<svg width="68" height="66" viewBox="0 0 68 66" fill="none" xmlns="http://www.w3.org/2000/svg">
<g clip-path="url(#clip0_4064_54646)">
<path d="M16.1618 64.2847C16.0759 64.2847 16.0759 64.2847 15.9899 64.2847L0.429836 60.5084C0.257901 60.5084 0.171934 60.4225 0.0859671 60.2509C0 60.0792 0 59.9076 0 59.8218L14.6144 0.430339C14.7004 0.172861 14.9583 -0.0846158 15.3021 0.00120993L30.9482 3.86337C31.1201 3.86337 31.2061 3.94919 31.292 4.12085C31.378 4.20667 31.378 4.37832 31.378 4.54997L16.7636 63.9414C16.6776 64.113 16.4197 64.2847 16.1618 64.2847ZM1.20354 59.5643L15.732 63.169L30.0885 4.80745L15.5601 1.20277L1.20354 59.5643Z" fill="#C47A2D"/>
<path d="M10.2308 58.4498C9.88692 58.4498 9.54305 58.4498 9.19918 58.3639C8.08161 58.1065 7.13597 57.4199 6.5342 56.3899C5.93243 55.4459 5.7605 54.2443 6.0184 53.1286C6.44824 51.1546 8.25354 49.8672 10.2308 49.8672C10.5747 49.8672 10.9185 49.8672 11.2624 49.953C13.5835 50.5538 14.959 52.8711 14.4432 55.1884C14.0133 57.1624 12.294 58.4498 10.2308 58.4498ZM10.2308 50.9829C8.76935 50.9829 7.47984 52.0128 7.13597 53.386C6.96404 54.2443 7.05 55.1026 7.47984 55.7892C7.90968 56.4758 8.59741 56.9907 9.45708 57.2482C9.71499 57.334 9.97289 57.334 10.2308 57.334C11.6922 57.334 12.9817 56.3041 13.3256 54.9309C13.7554 53.2144 12.7238 51.4979 11.0045 51.0687C10.7466 50.9829 10.4887 50.9829 10.2308 50.9829Z" fill="#C47A2D"/>
<path d="M13.2384 46.4341C12.8945 46.4341 12.5507 46.4341 12.2068 46.3483C9.88567 45.7475 8.5102 43.4302 9.026 41.1129C9.54181 39.139 11.2611 37.8516 13.2384 37.8516C13.5823 37.8516 13.9261 37.8516 14.27 37.9374C16.5911 38.5382 17.9666 40.8555 17.4508 43.1728C16.935 45.1468 15.2156 46.4341 13.2384 46.4341ZM13.2384 38.9673C11.777 38.9673 10.4874 39.9972 10.1436 41.3704C9.71374 43.0869 10.7453 44.8035 12.4647 45.2326C12.7226 45.3184 12.9805 45.3184 13.2384 45.3184C14.6998 45.3184 15.9893 44.2885 16.3332 42.9153C16.763 41.1988 15.7314 39.4823 14.0121 39.0531C13.7542 38.9673 13.4963 38.9673 13.2384 38.9673Z" fill="#C47A2D"/>
<path d="M26.5633 9.18413C26.4774 9.18413 26.4774 9.18413 26.3914 9.18413L16.849 6.78101C16.5911 6.69518 16.3332 6.4377 16.4192 6.0944C16.5052 5.83692 16.7631 5.57945 17.1069 5.66527L26.6493 8.06839C26.9072 8.15422 27.1651 8.4117 27.0791 8.755C26.9932 9.01248 26.8212 9.18413 26.5633 9.18413Z" fill="#C47A2D"/>
<path d="M24.6727 16.8249C24.5867 16.8249 24.5867 16.8249 24.5008 16.8249L14.9584 14.5076C14.7005 14.4217 14.4426 14.1643 14.5286 13.821C14.6145 13.5635 14.8725 13.306 15.2163 13.3918L24.7587 15.7091C25.0166 15.795 25.2745 16.0524 25.1885 16.3957C25.1025 16.6532 24.9306 16.8249 24.6727 16.8249Z" fill="#C47A2D"/>
<path d="M22.7821 24.5436C22.6961 24.5436 22.6961 24.5436 22.6101 24.5436L13.0678 22.2263C12.8099 22.1405 12.552 21.883 12.638 21.5397C12.7239 21.2822 12.9818 21.0248 13.3257 21.1106L22.868 23.4279C23.1259 23.5137 23.3838 23.7712 23.2979 24.1145C23.2119 24.372 23.04 24.5436 22.7821 24.5436Z" fill="#C47A2D"/>
<path d="M49.2597 66.0049H33.1838C32.8399 66.0049 32.582 65.7474 32.582 65.4041V4.38203C32.582 4.03873 32.8399 3.78125 33.1838 3.78125H49.2597C49.6035 3.78125 49.8614 4.03873 49.8614 4.38203V65.49C49.8614 65.7474 49.6035 66.0049 49.2597 66.0049ZM33.7856 64.8892H48.7439V4.89698H33.7856V64.8892Z" fill="#C47A2D"/>
<path d="M41.2632 61.8794C38.8561 61.8794 36.9648 59.9055 36.9648 57.5882C36.9648 55.185 38.9421 53.2969 41.2632 53.2969C43.6703 53.2969 45.5616 55.2709 45.5616 57.5882C45.5616 59.9055 43.5843 61.8794 41.2632 61.8794ZM41.2632 54.4126C39.4579 54.4126 38.0824 55.8716 38.0824 57.5882C38.0824 59.3905 39.5439 60.7637 41.2632 60.7637C43.0685 60.7637 44.444 59.3047 44.444 57.5882C44.444 55.7858 42.9825 54.4126 41.2632 54.4126Z" fill="#C47A2D"/>
<path d="M41.2632 49.5201C38.8561 49.5201 36.9648 47.5461 36.9648 45.2288C36.9648 42.8257 38.9421 40.9375 41.2632 40.9375C43.6703 40.9375 45.5616 42.9115 45.5616 45.2288C45.5616 47.5461 43.5843 49.5201 41.2632 49.5201ZM41.2632 41.9674C39.4579 41.9674 38.0824 43.4264 38.0824 45.143C38.0824 46.9453 39.5439 48.3185 41.2632 48.3185C43.0685 48.3185 44.444 46.8595 44.444 45.143C44.444 43.4264 42.9825 41.9674 41.2632 41.9674Z" fill="#C47A2D"/>
<path d="M46.1638 10.0453H36.2776C35.9337 10.0453 35.6758 9.78783 35.6758 9.44453C35.6758 9.10123 35.9337 8.84375 36.2776 8.84375H46.1638C46.5076 8.84375 46.7655 9.10123 46.7655 9.44453C46.7655 9.78783 46.5076 10.0453 46.1638 10.0453Z" fill="#C47A2D"/>
<path d="M46.1638 17.9359H36.2776C35.9337 17.9359 35.6758 17.6785 35.6758 17.3352C35.6758 16.9919 35.9337 16.7344 36.2776 16.7344H46.1638C46.5076 16.7344 46.7655 16.9919 46.7655 17.3352C46.7655 17.6785 46.5076 17.9359 46.1638 17.9359Z" fill="#C47A2D"/>
<path d="M46.1638 25.8344H36.2776C35.9337 25.8344 35.6758 25.5769 35.6758 25.2336C35.6758 24.8903 35.9337 24.6328 36.2776 24.6328H46.1638C46.5076 24.6328 46.7655 24.8903 46.7655 25.2336C46.7655 25.5769 46.5076 25.8344 46.1638 25.8344Z" fill="#C47A2D"/>
<path d="M67.4823 66.0049H51.3205C50.9767 66.0049 50.7188 65.7474 50.7188 65.4041V4.38203C50.7188 4.03873 50.9767 3.78125 51.3205 3.78125H67.3964C67.7402 3.78125 67.9981 4.03873 67.9981 4.38203V65.49C67.9981 65.7474 67.7402 66.0049 67.4823 66.0049ZM51.9223 64.8892H66.8806V4.89698H51.9223V64.8892Z" fill="#C47A2D"/>
<path d="M59.4038 61.8794C56.9967 61.8794 55.1055 59.9055 55.1055 57.5882C55.1055 55.185 57.0827 53.2969 59.4038 53.2969C61.8109 53.2969 63.7022 55.2709 63.7022 57.5882C63.7022 59.9055 61.8109 61.8794 59.4038 61.8794ZM59.4038 54.4126C57.5985 54.4126 56.223 55.8716 56.223 57.5882C56.223 59.3905 57.6845 60.7637 59.4038 60.7637C61.2091 60.7637 62.5846 59.3047 62.5846 57.5882C62.5846 55.7858 61.2091 54.4126 59.4038 54.4126Z" fill="#C47A2D"/>
<path d="M59.4038 49.5201C56.9967 49.5201 55.1055 47.5461 55.1055 45.2288C55.1055 42.8257 57.0827 40.9375 59.4038 40.9375C61.8109 40.9375 63.7022 42.9115 63.7022 45.2288C63.7022 47.5461 61.8109 49.5201 59.4038 49.5201ZM59.4038 41.9674C57.5985 41.9674 56.223 43.4264 56.223 45.143C56.223 46.9453 57.6845 48.3185 59.4038 48.3185C61.2091 48.3185 62.5846 46.8595 62.5846 45.143C62.5846 43.4264 61.2091 41.9674 59.4038 41.9674Z" fill="#C47A2D"/>
<path d="M64.3044 10.0453H54.5041C54.1602 10.0453 53.9023 9.78783 53.9023 9.44453C53.9023 9.10123 54.1602 8.84375 54.5041 8.84375H64.3903C64.7342 8.84375 64.9921 9.10123 64.9921 9.44453C64.9921 9.78783 64.6482 10.0453 64.3044 10.0453Z" fill="#C47A2D"/>
<path d="M64.3044 17.9359H54.5041C54.1602 17.9359 53.9023 17.6785 53.9023 17.3352C53.9023 16.9919 54.1602 16.7344 54.5041 16.7344H64.3903C64.7342 16.7344 64.9921 16.9919 64.9921 17.3352C64.9921 17.6785 64.6482 17.9359 64.3044 17.9359Z" fill="#C47A2D"/>
<path d="M64.3044 25.8344H54.5041C54.1602 25.8344 53.9023 25.5769 53.9023 25.2336C53.9023 24.8903 54.1602 24.6328 54.5041 24.6328H64.3903C64.7342 24.6328 64.9921 24.8903 64.9921 25.2336C64.9921 25.5769 64.6482 25.8344 64.3044 25.8344Z" fill="#C47A2D"/>
</g>
<defs>
<clipPath id="clip0_4064_54646">
<rect width="68" height="66" fill="white"/>
</clipPath>
</defs>
</svg>
