<svg width="71" height="67" viewBox="0 0 71 67" fill="none" xmlns="http://www.w3.org/2000/svg">
<path d="M64.1737 63.4017H6.82752C4.94534 63.4017 3.41406 61.9863 3.41406 60.2466V7.24103C3.41406 5.50131 4.94534 4.08594 6.82752 4.08594H64.1737C66.0559 4.08594 67.5871 5.50131 67.5871 7.24103V60.2466C67.5871 61.9863 66.0559 63.4017 64.1737 63.4017ZM6.82752 5.34798C5.69821 5.34798 4.77945 6.1972 4.77945 7.24103V60.2466C4.77945 61.2904 5.69821 62.1397 6.82752 62.1397H64.1737C65.303 62.1397 66.2218 61.2904 66.2218 60.2466V7.24103C66.2218 6.1972 65.303 5.34798 64.1737 5.34798H6.82752Z" fill="#C47A2D"/>
<path d="M57.348 57.0938H13.6556C11.7735 57.0938 10.2422 55.6785 10.2422 53.9387V13.5535C10.2422 11.8138 11.7735 10.3984 13.6556 10.3984H57.348C59.2301 10.3984 60.7614 11.8138 60.7614 13.5535V53.9387C60.7614 55.6785 59.2301 57.0938 57.348 57.0938ZM13.6556 11.6605C12.5263 11.6605 11.6076 12.5097 11.6076 13.5535V53.9387C11.6076 54.9826 12.5263 55.8318 13.6556 55.8318H57.348C58.4773 55.8318 59.396 54.9826 59.396 53.9387V13.5535C59.396 12.5097 58.4773 11.6605 57.348 11.6605H13.6556Z" fill="#C47A2D"/>
<path d="M46.4222 30.5855H24.576C20.4352 30.5855 17.0664 27.4717 17.0664 23.6443C17.0664 19.817 20.4352 16.7031 24.576 16.7031H46.4222C50.563 16.7031 53.9318 19.817 53.9318 23.6443C53.9318 27.4717 50.563 30.5855 46.4222 30.5855ZM24.576 17.9652C21.1881 17.9652 18.4318 20.5128 18.4318 23.6443C18.4318 26.7758 21.1881 29.3235 24.576 29.3235H46.4222C49.8101 29.3235 52.5664 26.7758 52.5664 23.6443C52.5664 20.5128 49.8101 17.9652 46.4222 17.9652H24.576Z" fill="#C47A2D"/>
<path d="M24.5772 30.5855C24.2002 30.5855 23.8945 30.303 23.8945 29.9545C23.8945 29.6061 24.2002 29.3235 24.5772 29.3235C27.9652 29.3235 30.7215 26.7758 30.7215 23.6443C30.7215 20.5128 27.9652 17.9652 24.5772 17.9652C24.2002 17.9652 23.8945 17.6826 23.8945 17.3341C23.8945 16.9857 24.2002 16.7031 24.5772 16.7031C28.718 16.7031 32.0868 19.817 32.0868 23.6443C32.0868 27.4717 28.718 30.5855 24.5772 30.5855Z" fill="#C47A2D"/>
<path d="M46.4222 50.7809H24.576C20.4352 50.7809 17.0664 47.667 17.0664 43.8396C17.0664 40.0123 20.4352 36.8984 24.576 36.8984H46.4222C50.563 36.8984 53.9318 40.0123 53.9318 43.8396C53.9318 47.667 50.563 50.7809 46.4222 50.7809ZM24.576 38.1605C21.1881 38.1605 18.4318 40.7082 18.4318 43.8396C18.4318 46.9711 21.1881 49.5188 24.576 49.5188H46.4222C49.8101 49.5188 52.5664 46.9711 52.5664 43.8396C52.5664 40.7082 49.8101 38.1605 46.4222 38.1605H24.576Z" fill="#C47A2D"/>
<path d="M46.4237 50.7809C42.2829 50.7809 38.9141 47.667 38.9141 43.8396C38.9141 40.0123 42.2829 36.8984 46.4237 36.8984C46.8008 36.8984 47.1064 37.1809 47.1064 37.5295C47.1064 37.878 46.8008 38.1605 46.4237 38.1605C43.0357 38.1605 40.2794 40.7082 40.2794 43.8396C40.2794 46.9711 43.0357 49.5188 46.4237 49.5188C46.8008 49.5188 47.1064 49.8013 47.1064 50.1498C47.1064 50.4984 46.8008 50.7809 46.4237 50.7809Z" fill="#C47A2D"/>
<path d="M28.6722 44.473H17.7491C17.3721 44.473 17.0664 44.1905 17.0664 43.842C17.0664 43.4934 17.3721 43.2109 17.7491 43.2109H28.6722C29.0492 43.2109 29.3549 43.4934 29.3549 43.842C29.3549 44.1905 29.0492 44.473 28.6722 44.473Z" fill="#C47A2D"/>
<path d="M53.2503 24.2777H42.3272C41.9501 24.2777 41.6445 23.9951 41.6445 23.6466C41.6445 23.2982 41.9501 23.0156 42.3272 23.0156H53.2503C53.6274 23.0156 53.933 23.2982 53.933 23.6466C53.933 23.9951 53.6274 24.2777 53.2503 24.2777Z" fill="#C47A2D"/>
</svg>
