<svg width="71" height="71" viewBox="0 0 71 71" fill="none" xmlns="http://www.w3.org/2000/svg">
<path d="M37.6676 68.5918C37.1159 68.5918 36.5624 68.5174 36.021 68.367L13.4689 62.1024C13.1055 62.0015 12.8929 61.6252 12.9938 61.262C13.0947 60.8988 13.4716 60.6856 13.8344 60.787L36.3864 67.0515C37.5291 67.3688 38.742 67.2516 39.8027 66.7213L66.2137 53.5159C67.0591 53.0931 67.5844 52.2433 67.5844 51.2979C67.5844 50.5867 67.2934 49.9327 66.7653 49.4564C66.2371 48.9803 65.5576 48.7586 64.8491 48.8316L41.0298 51.3008C40.6552 51.3381 40.3193 51.0671 40.2804 50.6921C40.2416 50.317 40.514 49.9816 40.889 49.9427L64.7083 47.4735C65.7901 47.3615 66.8726 47.7148 67.6797 48.4426C68.4869 49.1704 68.9499 50.2112 68.9499 51.2981C68.9499 52.764 68.1354 54.0818 66.8245 54.7372L40.4136 67.9425C39.5523 68.3729 38.6127 68.5918 37.6676 68.5918Z" fill="#C47A2D"/>
<path d="M35.7444 55.2983C35.2631 55.2983 34.7779 55.2393 34.2975 55.1191L24.4093 52.6471C24.0435 52.5556 23.8211 52.1849 23.9126 51.8193C24.0039 51.4535 24.3743 51.2311 24.7404 51.3225L34.6285 53.7946C35.9958 54.1362 37.4173 53.835 38.5285 52.9674C39.6395 52.1 40.2767 50.794 40.2767 49.3845C40.2767 47.2552 38.7656 45.3859 36.6835 44.9397L23.1585 42.0414C22.3243 41.8628 21.4553 41.911 20.6459 42.1806L13.8676 44.4401C13.51 44.5597 13.1233 44.3661 13.0039 44.0083C12.8848 43.6506 13.0781 43.2641 13.4358 43.1449L20.2141 40.8854C21.2548 40.5386 22.3719 40.4768 23.4445 40.7064L36.9697 43.6047C39.6771 44.1849 41.6422 46.6157 41.6422 49.3845C41.6422 51.2176 40.8137 52.9157 39.369 54.0438C38.3145 54.8671 37.0447 55.2983 35.7444 55.2983Z" fill="#C47A2D"/>
<path d="M13.6526 68.9507H2.72957C2.35258 68.9507 2.04688 68.6451 2.04688 68.268V38.2296C2.04688 37.8524 2.35258 37.5469 2.72957 37.5469H13.6526C14.0296 37.5469 14.3353 37.8524 14.3353 38.2296V68.268C14.3353 68.6451 14.0296 68.9507 13.6526 68.9507ZM3.41226 67.5853H12.97V38.9123H3.41226V67.5853Z" fill="#C47A2D"/>
<path d="M64.172 43.0066C63.9944 43.0066 63.8197 42.9373 63.6892 42.8066L57.0622 36.1797H42.3257C39.6907 36.1797 37.5469 34.0359 37.5469 31.4008V23.2085C37.5469 20.5735 39.6907 18.4297 42.3257 18.4297H64.1719C66.8069 18.4297 68.9507 20.5735 68.9507 23.2085V31.4008C68.9507 33.8042 67.1674 35.7987 64.8546 36.1311V42.3239C64.8546 42.6 64.6883 42.849 64.4331 42.9546C64.3487 42.9897 64.2601 43.0066 64.172 43.0066ZM42.3257 19.7951C40.4435 19.7951 38.9123 21.3264 38.9123 23.2085V31.4008C38.9123 33.283 40.4435 34.8143 42.3257 34.8143H57.345C57.526 34.8143 57.6997 34.8863 57.8276 35.0142L63.4892 40.6758V35.497C63.4892 35.1199 63.7948 34.8143 64.1719 34.8143C66.0541 34.8143 67.5853 33.283 67.5853 31.4008V23.2085C67.5853 21.3264 66.0541 19.7951 64.1719 19.7951H42.3257Z" fill="#C47A2D"/>
<path d="M6.82558 26.6238C6.73765 26.6238 6.6489 26.6067 6.56439 26.5719C6.30933 26.4662 6.14303 26.2172 6.14303 25.9411V19.7483C3.8302 19.4159 2.04688 17.4214 2.04688 15.018V6.82572C2.04688 4.19067 4.19067 2.04688 6.82572 2.04688H28.6719C31.3069 2.04688 33.4507 4.19067 33.4507 6.82572V15.018C33.4507 17.6531 31.3069 19.7969 28.6719 19.7969H13.9354L7.30838 26.4239C7.17785 26.5544 7.00322 26.6238 6.82558 26.6238ZM6.82572 3.41226C4.94354 3.41226 3.41226 4.94354 3.41226 6.82572V15.018C3.41226 16.9002 4.94354 18.4315 6.82572 18.4315C7.2027 18.4315 7.50841 18.7372 7.50841 19.1142V24.2929L13.1698 18.6315C13.2979 18.5034 13.4716 18.4315 13.6526 18.4315H28.6719C30.5541 18.4315 32.0853 16.9002 32.0853 15.018V6.82572C32.0853 4.94354 30.5541 3.41226 28.6719 3.41226H6.82572Z" fill="#C47A2D"/>
<path d="M27.3059 8.8732H8.1905C7.81352 8.8732 7.50781 8.56749 7.50781 8.1905C7.50781 7.81352 7.81352 7.50781 8.1905 7.50781H27.3059C27.6829 7.50781 27.9886 7.81352 27.9886 8.1905C27.9886 8.56749 27.6829 8.8732 27.3059 8.8732Z" fill="#C47A2D"/>
<path d="M27.3059 14.3341H8.1905C7.81352 14.3341 7.50781 14.0284 7.50781 13.6514C7.50781 13.2745 7.81352 12.9688 8.1905 12.9688H27.3059C27.6829 12.9688 27.9886 13.2745 27.9886 13.6514C27.9886 14.0284 27.6829 14.3341 27.3059 14.3341Z" fill="#C47A2D"/>
<path d="M62.8059 25.256H43.6905C43.3134 25.256 43.0078 24.9503 43.0078 24.5733C43.0078 24.1963 43.3134 23.8906 43.6905 23.8906H62.8059C63.183 23.8906 63.4886 24.1963 63.4886 24.5733C63.4886 24.9503 63.183 25.256 62.8059 25.256Z" fill="#C47A2D"/>
<path d="M62.8059 30.7169H43.6905C43.3134 30.7169 43.0078 30.4112 43.0078 30.0343C43.0078 29.6573 43.3134 29.3516 43.6905 29.3516H62.8059C63.183 29.3516 63.4886 29.6573 63.4886 30.0343C63.4886 30.4112 63.183 30.7169 62.8059 30.7169Z" fill="#C47A2D"/>
</svg>
