<svg width="53" height="74" viewBox="0 0 53 74" fill="none" xmlns="http://www.w3.org/2000/svg">
<path d="M51.8498 73.5524H0.603331C0.443316 73.5524 0.289864 73.4936 0.176716 73.3891C0.0635687 73.2845 0 73.1426 0 72.9947V6.23735C0 6.08945 0.0635687 5.94761 0.176716 5.84303C0.289864 5.73844 0.443316 5.67969 0.603331 5.67969H51.8498C52.0099 5.67969 52.1633 5.73844 52.2765 5.84303C52.3896 5.94761 52.4532 6.08945 52.4532 6.23735V72.9947C52.4532 73.1426 52.3896 73.2845 52.2765 73.3891C52.1633 73.4936 52.0099 73.5524 51.8498 73.5524ZM1.20668 72.437H51.2372V6.79503H1.20668V72.437Z" fill="#C47A2D"/>
<path d="M46.7168 30.1935H5.43928C5.27927 30.1935 5.1258 30.1347 5.01265 30.0301C4.89951 29.9255 4.83594 29.7837 4.83594 29.6358C4.83594 29.4879 4.89951 29.346 5.01265 29.2415C5.1258 29.1369 5.27927 29.0781 5.43928 29.0781H46.7168C46.8768 29.0781 47.0303 29.1369 47.1434 29.2415C47.2566 29.346 47.3201 29.4879 47.3201 29.6358C47.3201 29.7837 47.2566 29.9255 47.1434 30.0301C47.0303 30.1347 46.8768 30.1935 46.7168 30.1935Z" fill="#C47A2D"/>
<path d="M46.7168 36.0763H5.43928C5.27927 36.0763 5.1258 36.0175 5.01265 35.9129C4.89951 35.8084 4.83594 35.6665 4.83594 35.5186C4.83594 35.3707 4.89951 35.2288 5.01265 35.1243C5.1258 35.0197 5.27927 34.9609 5.43928 34.9609H46.7168C46.8768 34.9609 47.0303 35.0197 47.1434 35.1243C47.2566 35.2288 47.3201 35.3707 47.3201 35.5186C47.3201 35.6665 47.2566 35.8084 47.1434 35.9129C47.0303 36.0175 46.8768 36.0763 46.7168 36.0763Z" fill="#C47A2D"/>
<path d="M46.7168 41.9278H5.43928C5.27927 41.9278 5.1258 41.8691 5.01265 41.7645C4.89951 41.6599 4.83594 41.5181 4.83594 41.3702C4.83594 41.2223 4.89951 41.0804 5.01265 40.9758C5.1258 40.8713 5.27927 40.8125 5.43928 40.8125H46.7168C46.8768 40.8125 47.0303 40.8713 47.1434 40.9758C47.2566 41.0804 47.3201 41.2223 47.3201 41.3702C47.3201 41.5181 47.2566 41.6599 47.1434 41.7645C47.0303 41.8691 46.8768 41.9278 46.7168 41.9278Z" fill="#C47A2D"/>
<path d="M46.7168 47.8497H5.43928C5.28001 47.8475 5.12793 47.788 5.0153 47.6839C4.90267 47.5798 4.83833 47.4393 4.83594 47.292C4.83833 47.1448 4.90267 47.0043 5.0153 46.9002C5.12793 46.796 5.28001 46.7366 5.43928 46.7344H46.7168C46.8768 46.7344 47.0303 46.7931 47.1434 46.8977C47.2566 47.0023 47.3201 47.1441 47.3201 47.292C47.3201 47.4399 47.2566 47.5818 47.1434 47.6864C47.0303 47.791 46.8768 47.8497 46.7168 47.8497Z" fill="#C47A2D"/>
<path d="M46.7168 53.7169H5.43928C5.27927 53.7169 5.1258 53.6581 5.01265 53.5536C4.89951 53.449 4.83594 53.3071 4.83594 53.1592C4.83594 53.0113 4.89951 52.8695 5.01265 52.7649C5.1258 52.6603 5.27927 52.6016 5.43928 52.6016H46.7168C46.8768 52.6016 47.0303 52.6603 47.1434 52.7649C47.2566 52.8695 47.3201 53.0113 47.3201 53.1592C47.3201 53.3071 47.2566 53.449 47.1434 53.5536C47.0303 53.6581 46.8768 53.7169 46.7168 53.7169Z" fill="#C47A2D"/>
<path d="M46.7168 59.5997H5.43928C5.27927 59.5997 5.1258 59.541 5.01265 59.4364C4.89951 59.3318 4.83594 59.1899 4.83594 59.042C4.83594 58.8941 4.89951 58.7523 5.01265 58.6477C5.1258 58.5431 5.27927 58.4844 5.43928 58.4844H46.7168C46.8768 58.4844 47.0303 58.5431 47.1434 58.6477C47.2566 58.7523 47.3201 58.8941 47.3201 59.042C47.3201 59.1899 47.2566 59.3318 47.1434 59.4364C47.0303 59.541 46.8768 59.5997 46.7168 59.5997Z" fill="#C47A2D"/>
<path d="M46.7168 65.4903H5.43928C5.27927 65.4903 5.1258 65.4316 5.01265 65.327C4.89951 65.2224 4.83594 65.0806 4.83594 64.9327C4.83594 64.7848 4.89951 64.6429 5.01265 64.5383C5.1258 64.4338 5.27927 64.375 5.43928 64.375H46.7168C46.8768 64.375 47.0303 64.4338 47.1434 64.5383C47.2566 64.6429 47.3201 64.7848 47.3201 64.9327C47.3201 65.0806 47.2566 65.2224 47.1434 65.327C47.0303 65.4316 46.8768 65.4903 46.7168 65.4903Z" fill="#C47A2D"/>
<path d="M46.9094 19.5382C46.798 19.5382 46.6884 19.498 46.6065 19.4222L41.7685 14.9505L36.9305 19.4222C36.8079 19.5355 36.6235 19.5693 36.4637 19.508C36.3036 19.4468 36.1992 19.3024 36.1992 19.1422V0.927229C36.1992 0.708569 36.391 0.53125 36.6276 0.53125H46.9093C47.146 0.53125 47.3377 0.708569 47.3377 0.927229V19.1422C47.3377 19.3024 47.2334 19.4468 47.0732 19.508C47.0203 19.5284 46.9647 19.5382 46.9094 19.5382ZM41.7685 13.9945C41.8781 13.9945 41.9878 14.0332 42.0714 14.1105L46.4809 18.1863V1.32321H37.056V18.1863L41.4656 14.1105C41.5491 14.0332 41.6589 13.9945 41.7685 13.9945Z" fill="#C47A2D"/>
<path d="M41.7685 13.9945C41.8781 13.9945 41.9878 14.0332 42.0714 14.1105L46.4809 18.1863V1.32321H37.056V18.1863L41.4656 14.1105C41.5491 14.0332 41.6589 13.9945 41.7685 13.9945Z" fill="white"/>
</svg>
