<svg width="73" height="57" viewBox="0 0 73 57" fill="none" xmlns="http://www.w3.org/2000/svg">
<g clip-path="url(#clip0_4064_54553)">
<path d="M42.4526 45.2551H0.553729C0.276865 45.2551 0 45.0883 0 44.7547V1.13846C0 0.804876 0.276865 0.554688 0.553729 0.554688H64.7863C65.1555 0.554688 65.3401 0.804876 65.3401 1.13846V34.08C65.3401 34.4136 65.0632 34.6638 64.7863 34.6638C64.4172 34.6638 64.2326 34.4136 64.2326 34.08V1.63884H1.19975V44.171H42.4526C42.8217 44.171 43.0063 44.4212 43.0063 44.7547C43.0063 45.0883 42.7295 45.2551 42.4526 45.2551Z" fill="#C47A2D"/>
<path d="M64.7863 11.48H0.553729C0.184577 11.48 0 11.2299 0 10.8963C0 10.5627 0.276865 10.3125 0.553729 10.3125H64.7863C65.1555 10.3125 65.3401 10.5627 65.3401 10.8963C65.4324 11.2299 65.1555 11.48 64.7863 11.48Z" fill="#C47A2D"/>
<path d="M7.10506 8.06317C5.72074 8.06317 4.61328 7.14581 4.61328 5.89487C4.61328 4.72732 5.72074 3.72656 7.10506 3.72656C8.48939 3.72656 9.50456 4.72732 9.50456 5.89487C9.50456 7.14581 8.3971 8.06317 7.10506 8.06317ZM7.10506 4.81071C6.45905 4.81071 5.90532 5.31109 5.90532 5.89487C5.90532 6.47864 6.45905 6.97902 7.10506 6.97902C7.75108 6.97902 8.30481 6.47864 8.30481 5.89487C8.30481 5.31109 7.75108 4.81071 7.10506 4.81071Z" fill="#C47A2D"/>
<path d="M15.044 8.06317C13.6597 8.06317 12.6445 7.06241 12.6445 5.89487C12.6445 4.72732 13.752 3.72656 15.044 3.72656C16.3361 3.72656 17.4435 4.72732 17.4435 5.89487C17.4435 7.14581 16.3361 8.06317 15.044 8.06317ZM15.044 4.81071C14.398 4.81071 13.8443 5.31109 13.8443 5.89487C13.8443 6.47864 14.398 6.97902 15.044 6.97902C15.69 6.97902 16.2438 6.47864 16.2438 5.89487C16.2438 5.31109 15.69 4.81071 15.044 4.81071Z" fill="#C47A2D"/>
<path d="M64.7864 6.47224H29.1631C28.794 6.47224 28.6094 6.22205 28.6094 5.88846C28.6094 5.55488 28.8862 5.30469 29.1631 5.30469H64.7864C65.1555 5.30469 65.3401 5.55488 65.3401 5.88846C65.4324 6.22205 65.1555 6.47224 64.7864 6.47224Z" fill="#C47A2D"/>
<path d="M70.9678 56.017H43.835C42.7276 56.017 41.8047 55.183 41.8047 54.1823V35.3347C41.8047 34.334 42.7276 33.5 43.835 33.5H70.9678C72.0752 33.5 72.9981 34.334 72.9981 35.3347V54.1823C72.9981 55.183 72.0752 56.017 70.9678 56.017ZM43.835 34.5842C43.3736 34.5842 43.0044 34.9177 43.0044 35.3347V54.1823C43.0044 54.5993 43.3736 54.9328 43.835 54.9328H70.9678C71.4292 54.9328 71.7984 54.5993 71.7984 54.1823V35.3347C71.7984 34.9177 71.4292 34.5842 70.9678 34.5842H43.835Z" fill="#C47A2D"/>
<path d="M52.6983 50.0105C52.606 50.0105 52.5137 50.0105 52.4214 49.9271C52.2368 49.8437 52.1445 49.6769 52.1445 49.4267V40.0864C52.1445 39.9196 52.2368 39.7528 52.4214 39.586C52.606 39.5026 52.7906 39.5026 52.9751 39.586L63.4037 44.2562C63.5883 44.3396 63.7728 44.5064 63.7728 44.7566C63.7728 44.9233 63.6806 45.1735 63.4037 45.2569L52.9751 49.9271C52.8828 50.0105 52.7905 50.0105 52.6983 50.0105ZM53.252 40.9203V48.5928L61.7425 44.7566L53.252 40.9203Z" fill="#C47A2D"/>
<path d="M29.9935 18.066H7.19826C6.82911 18.066 6.64453 17.8158 6.64453 17.4822C6.64453 17.1486 6.9214 16.8984 7.19826 16.8984H29.9935C30.3626 16.8984 30.5472 17.1486 30.5472 17.4822C30.5472 17.8158 30.2703 18.066 29.9935 18.066Z" fill="#C47A2D"/>
<path d="M29.9946 22.1519H15.4131C15.044 22.1519 14.8594 21.9017 14.8594 21.5681C14.8594 21.2346 15.1362 20.9844 15.4131 20.9844H29.9946C30.3638 20.9844 30.5484 21.2346 30.5484 21.5681C30.5484 21.9017 30.2715 22.1519 29.9946 22.1519Z" fill="#C47A2D"/>
<path d="M22.8873 26.2379H7.19826C6.82911 26.2379 6.64453 25.9877 6.64453 25.6541C6.64453 25.3205 6.9214 25.0703 7.19826 25.0703H22.8873C23.2564 25.0703 23.441 25.3205 23.441 25.6541C23.5333 25.9877 23.2564 26.2379 22.8873 26.2379Z" fill="#C47A2D"/>
<path d="M29.9935 30.2457H7.19826C6.82911 30.2457 6.64453 29.9955 6.64453 29.6619C6.64453 29.3283 6.9214 29.0781 7.19826 29.0781H29.9935C30.3626 29.0781 30.5472 29.3283 30.5472 29.6619C30.5472 29.9955 30.2703 30.2457 29.9935 30.2457Z" fill="#C47A2D"/>
<path d="M28.6105 26.2379H24.5498C24.1807 26.2379 23.9961 25.9877 23.9961 25.6541C23.9961 25.3205 24.273 25.0703 24.5498 25.0703H28.6105C28.9797 25.0703 29.1642 25.3205 29.1642 25.6541C29.1642 25.9877 28.8874 26.2379 28.6105 26.2379Z" fill="#C47A2D"/>
<path d="M12.8293 22.1519H8.76857C8.39942 22.1519 8.21484 21.9017 8.21484 21.5681C8.21484 21.2346 8.49171 20.9844 8.76857 20.9844H12.8293C13.1984 20.9844 13.383 21.2346 13.383 21.5681C13.4753 21.9017 13.1984 22.1519 12.8293 22.1519Z" fill="#C47A2D"/>
</g>
<defs>
<clipPath id="clip0_4064_54553">
<rect width="73" height="55.4585" fill="white" transform="translate(0 0.554688)"/>
</clipPath>
</defs>
</svg>
