<svg width="76" height="71" viewBox="0 0 76 71" fill="none" xmlns="http://www.w3.org/2000/svg">
<path d="M71.6139 15.6869H4.38311C3.97958 15.6869 3.65234 15.3844 3.65234 15.0114C3.65234 14.6384 3.97958 14.3359 4.38311 14.3359H71.6139C72.0176 14.3359 72.3447 14.6384 72.3447 15.0114C72.3447 15.3844 72.0176 15.6869 71.6139 15.6869Z" fill="#C47A2D"/>
<path d="M8.76953 8.25781H11.6926V10.9596H8.76953V8.25781Z" fill="#C47A2D"/>
<path d="M14.6133 8.25781H17.5364V10.9596H14.6133V8.25781Z" fill="#C47A2D"/>
<path d="M20.4609 8.25781H23.384V10.9596H20.4609V8.25781Z" fill="#C47A2D"/>
<path d="M71.6139 67.0242H4.38311C3.97958 67.0242 3.65234 66.7218 3.65234 66.3487V4.20671C3.65234 3.83372 3.97958 3.53125 4.38311 3.53125H71.6139C72.0176 3.53125 72.3447 3.83372 72.3447 4.20671V66.3487C72.3447 66.7218 72.0176 67.0242 71.6139 67.0242ZM5.11388 65.6733H70.8831V4.88216H5.11388V65.6733Z" fill="#C47A2D"/>
<path d="M37.9976 52.1628C37.8269 52.1628 37.6563 52.1079 37.5191 51.9978L15.596 34.4359C15.291 34.1915 15.2579 33.765 15.5223 33.4831C15.7867 33.2012 16.2483 33.1708 16.5531 33.415L37.9976 50.5936L59.4421 33.4151C59.7467 33.1709 60.2087 33.2012 60.473 33.4832C60.7374 33.765 60.7043 34.1916 60.3993 34.436L38.4762 51.9979C38.3388 52.1079 38.1683 52.1628 37.9976 52.1628Z" fill="#C47A2D"/>
<path d="M16.0752 61.6195C15.8524 61.6195 15.6325 61.5259 15.489 61.3481C15.2475 61.0492 15.314 60.6259 15.6375 60.4028L33.7575 47.8998C34.0809 47.6768 34.5389 47.7381 34.7802 48.037C35.0217 48.336 34.9552 48.7592 34.6318 48.9824L16.5117 61.4854C16.3805 61.5759 16.2272 61.6195 16.0752 61.6195Z" fill="#C47A2D"/>
<path d="M59.9205 61.6194C59.7685 61.6194 59.6151 61.5758 59.484 61.4853L41.364 48.9823C41.0405 48.7592 40.9742 48.3359 41.2155 48.037C41.4568 47.7383 41.9148 47.6767 42.2382 47.8997L60.3583 60.4027C60.6817 60.6259 60.748 61.0491 60.5067 61.3481C60.3632 61.5257 60.1434 61.6194 59.9205 61.6194Z" fill="#C47A2D"/>
<path d="M59.9207 61.6192H16.0745C15.671 61.6192 15.3438 61.3168 15.3438 60.9437V33.9255C15.3438 33.5525 15.671 33.25 16.0745 33.25H28.7528C29.1563 33.25 29.4836 33.5525 29.4836 33.9255C29.4836 34.2984 29.1563 34.6009 28.7528 34.6009H16.8053V60.2683H59.1899V34.6009H47.2426C46.8389 34.6009 46.5118 34.2984 46.5118 33.9255C46.5118 33.5525 46.8389 33.25 47.2426 33.25H59.9207C60.3244 33.25 60.6514 33.5525 60.6514 33.9255V60.9437C60.6514 61.3168 60.3244 61.6192 59.9207 61.6192Z" fill="#C47A2D"/>
<path d="M37.9967 40.0059C33.7875 40.0059 29.8995 37.7335 28.0917 34.2167C27.3906 32.8528 27.0352 31.3917 27.0352 29.874C27.0352 24.2873 31.9525 19.7422 37.9967 19.7422C44.0409 19.7422 48.9582 24.2873 48.9582 29.874C48.9582 31.3917 48.6026 32.8527 47.9017 34.2167C46.0938 37.7335 42.2059 40.0059 37.9967 40.0059ZM37.9967 21.0931C32.7584 21.0931 28.4967 25.0322 28.4967 29.874C28.4967 31.1896 28.8046 32.4555 29.4119 33.6369C30.9788 36.6853 34.3485 38.655 37.9967 38.655C41.6447 38.655 45.0146 36.6852 46.5815 33.6369C47.1889 32.4555 47.4967 31.1896 47.4967 29.874C47.4967 25.0322 43.235 21.0931 37.9967 21.0931Z" fill="#C47A2D"/>
<path d="M38.5595 34.308C38.1559 34.308 37.8287 34.0055 37.8287 33.6325V27.1577L37.6147 27.3555C37.3293 27.6192 36.8667 27.6192 36.5813 27.3555C36.2958 27.0917 36.2958 26.664 36.5813 26.4003L38.0428 25.0494C38.2518 24.8562 38.566 24.7985 38.8392 24.9029C39.1122 25.0075 39.2902 25.2538 39.2902 25.5271V33.6325C39.2902 34.0055 38.963 34.308 38.5595 34.308Z" fill="#C47A2D"/>
</svg>
