<svg width="25" height="25" viewBox="0 0 25 25" fill="none" xmlns="http://www.w3.org/2000/svg">
<path d="M12.2175 0.369568C5.68459 0.369568 0.369629 5.68453 0.369629 12.2175C0.369629 18.7504 5.68459 24.0654 12.2175 24.0654C18.7505 24.0654 24.0654 18.7504 24.0654 12.2175C24.0654 5.68453 18.7505 0.369568 12.2175 0.369568ZM9.84913 17.4459L6.28819 13.8927C5.82523 13.4307 5.82429 12.6809 6.2861 12.2178C6.74819 11.7544 7.49852 11.7536 7.96167 12.2159L9.84676 14.0977L15.2814 8.66309C15.744 8.20048 16.4941 8.20047 16.9567 8.66309C17.4193 9.12571 17.4193 9.87577 16.9567 10.3384L9.84913 17.4459Z" fill="#F9B974"/>
</svg>
