<svg width="70" height="70" viewBox="0 0 70 70" fill="none" xmlns="http://www.w3.org/2000/svg">
<mask id="path-1-outside-1_1160_3303" maskUnits="userSpaceOnUse" x="19.7891" y="6.91602" width="31" height="31" fill="black">
<rect fill="white" x="19.7891" y="6.91602" width="31" height="31"/>
<path d="M38.1903 37.4396H32.9171C32.6403 37.4396 32.4039 37.2393 32.3588 36.9664L32.2879 36.5562L31.7183 33.3655C31.3746 33.2456 31.0374 33.107 30.7085 32.9506L27.7026 35.0458C27.4779 35.2027 27.1725 35.1757 26.9787 34.9819L23.2475 31.2499H23.2471C23.0528 31.0556 23.0259 30.7498 23.1836 30.5247L25.2841 27.5282C25.1246 27.1945 24.9821 26.8526 24.8574 26.5045L21.257 25.8766H21.2566C20.985 25.8284 20.7873 25.5912 20.7891 25.3152V20.0368C20.7891 19.7622 20.9863 19.5275 21.2566 19.4798L24.8601 18.8445C24.9839 18.5047 25.1269 18.1649 25.2859 17.8299L23.1846 14.8235V14.8231C23.0268 14.5976 23.0542 14.2917 23.2489 14.0979L26.98 10.3741L26.9805 10.3737C27.1738 10.1799 27.4784 10.1525 27.7035 10.3085L30.7046 12.4037C31.0353 12.2486 31.3738 12.1108 31.7188 11.9909L32.3601 8.38312C32.4079 8.11285 32.643 7.91602 32.9172 7.91602H38.1835C38.4577 7.91645 38.6923 8.11328 38.7405 8.38312L39.3823 11.9883H39.3819C39.729 12.109 40.0693 12.2485 40.4012 12.4063L43.3941 10.311C43.6192 10.1537 43.9242 10.1802 44.1185 10.374L47.8505 14.0979L47.8501 14.0983C48.0443 14.2925 48.0717 14.598 47.9144 14.8231L45.8187 17.8351C45.9773 18.164 46.119 18.5012 46.2437 18.8445L49.8445 19.4823C50.1152 19.5301 50.312 19.7652 50.3124 20.0398V25.3153C50.3129 25.5907 50.1147 25.8262 49.8436 25.8736L46.2424 26.5045C46.1181 26.85 45.976 27.1889 45.8165 27.52L47.917 30.5251C48.0743 30.7502 48.0474 31.0561 47.8531 31.2499L44.1202 34.9802C43.926 35.1739 43.6209 35.2009 43.3959 35.044L40.3947 32.9488H40.3943C40.0654 33.1052 39.7286 33.2434 39.3849 33.3638L38.7431 36.9698V36.9702C38.6966 37.2396 38.4638 37.4369 38.1904 37.4395L38.1903 37.4396ZM33.3937 36.3068H37.7158L38.3332 32.8359V32.8363C38.3697 32.6282 38.5192 32.4579 38.7208 32.3944C39.2257 32.2371 39.7154 32.0355 40.1842 31.7913C40.3715 31.6944 40.5975 31.7087 40.7708 31.8287L43.6561 33.8435L46.7141 30.7854L44.6923 27.8928V27.8933C44.5711 27.7195 44.5568 27.4931 44.655 27.3058C44.9026 26.8322 45.1099 26.339 45.2746 25.8306C45.3393 25.6312 45.5092 25.4834 45.7156 25.4474L49.1774 24.843V20.5121L45.7169 19.9016C45.5114 19.8651 45.3428 19.7191 45.2776 19.521C45.1112 19.0139 44.904 18.5216 44.6572 18.0485C44.5594 17.8616 44.5737 17.6352 44.6945 17.4619L46.7163 14.562L43.6583 11.5087L40.7787 13.5248C40.6066 13.6452 40.3816 13.6604 40.1943 13.5639C39.7194 13.3202 39.2245 13.1181 38.7147 12.9599C38.5127 12.8969 38.3628 12.7266 38.3259 12.5185L37.7084 9.04759H33.3915L32.7745 12.5171C32.7397 12.7122 32.6059 12.8747 32.4216 12.9464C32.406 12.9521 32.3508 12.9703 32.3295 12.976H32.3291C32.3091 12.9855 32.2887 12.9938 32.2674 13.0003C31.802 13.152 31.3493 13.3401 30.9134 13.5626C30.7266 13.6595 30.5015 13.6443 30.329 13.5239L27.4408 11.5087L24.3827 14.5628L26.4045 17.455V17.4545C26.5249 17.627 26.5396 17.8512 26.4436 18.0381C26.1977 18.5147 25.9896 19.0105 25.821 19.5197C25.7558 19.7179 25.5868 19.8643 25.3812 19.9004L21.9213 20.5122V24.8408L25.383 25.4452V25.4448C25.5898 25.4813 25.7597 25.6285 25.8245 25.8284C25.9892 26.3394 26.1969 26.8356 26.4445 27.3119C26.5419 27.4991 26.5271 27.7246 26.4063 27.8976L24.3854 30.7858L27.4435 33.8439L30.3369 31.8277C30.5103 31.707 30.7362 31.6926 30.9231 31.7904C31.3919 32.0341 31.8816 32.2362 32.3865 32.3939C32.5877 32.4569 32.7376 32.6273 32.7745 32.8349L33.3937 36.3068Z"/>
</mask>
<path d="M38.1903 37.4396H32.9171C32.6403 37.4396 32.4039 37.2393 32.3588 36.9664L32.2879 36.5562L31.7183 33.3655C31.3746 33.2456 31.0374 33.107 30.7085 32.9506L27.7026 35.0458C27.4779 35.2027 27.1725 35.1757 26.9787 34.9819L23.2475 31.2499H23.2471C23.0528 31.0556 23.0259 30.7498 23.1836 30.5247L25.2841 27.5282C25.1246 27.1945 24.9821 26.8526 24.8574 26.5045L21.257 25.8766H21.2566C20.985 25.8284 20.7873 25.5912 20.7891 25.3152V20.0368C20.7891 19.7622 20.9863 19.5275 21.2566 19.4798L24.8601 18.8445C24.9839 18.5047 25.1269 18.1649 25.2859 17.8299L23.1846 14.8235V14.8231C23.0268 14.5976 23.0542 14.2917 23.2489 14.0979L26.98 10.3741L26.9805 10.3737C27.1738 10.1799 27.4784 10.1525 27.7035 10.3085L30.7046 12.4037C31.0353 12.2486 31.3738 12.1108 31.7188 11.9909L32.3601 8.38312C32.4079 8.11285 32.643 7.91602 32.9172 7.91602H38.1835C38.4577 7.91645 38.6923 8.11328 38.7405 8.38312L39.3823 11.9883H39.3819C39.729 12.109 40.0693 12.2485 40.4012 12.4063L43.3941 10.311C43.6192 10.1537 43.9242 10.1802 44.1185 10.374L47.8505 14.0979L47.8501 14.0983C48.0443 14.2925 48.0717 14.598 47.9144 14.8231L45.8187 17.8351C45.9773 18.164 46.119 18.5012 46.2437 18.8445L49.8445 19.4823C50.1152 19.5301 50.312 19.7652 50.3124 20.0398V25.3153C50.3129 25.5907 50.1147 25.8262 49.8436 25.8736L46.2424 26.5045C46.1181 26.85 45.976 27.1889 45.8165 27.52L47.917 30.5251C48.0743 30.7502 48.0474 31.0561 47.8531 31.2499L44.1202 34.9802C43.926 35.1739 43.6209 35.2009 43.3959 35.044L40.3947 32.9488H40.3943C40.0654 33.1052 39.7286 33.2434 39.3849 33.3638L38.7431 36.9698V36.9702C38.6966 37.2396 38.4638 37.4369 38.1904 37.4395L38.1903 37.4396ZM33.3937 36.3068H37.7158L38.3332 32.8359V32.8363C38.3697 32.6282 38.5192 32.4579 38.7208 32.3944C39.2257 32.2371 39.7154 32.0355 40.1842 31.7913C40.3715 31.6944 40.5975 31.7087 40.7708 31.8287L43.6561 33.8435L46.7141 30.7854L44.6923 27.8928V27.8933C44.5711 27.7195 44.5568 27.4931 44.655 27.3058C44.9026 26.8322 45.1099 26.339 45.2746 25.8306C45.3393 25.6312 45.5092 25.4834 45.7156 25.4474L49.1774 24.843V20.5121L45.7169 19.9016C45.5114 19.8651 45.3428 19.7191 45.2776 19.521C45.1112 19.0139 44.904 18.5216 44.6572 18.0485C44.5594 17.8616 44.5737 17.6352 44.6945 17.4619L46.7163 14.562L43.6583 11.5087L40.7787 13.5248C40.6066 13.6452 40.3816 13.6604 40.1943 13.5639C39.7194 13.3202 39.2245 13.1181 38.7147 12.9599C38.5127 12.8969 38.3628 12.7266 38.3259 12.5185L37.7084 9.04759H33.3915L32.7745 12.5171C32.7397 12.7122 32.6059 12.8747 32.4216 12.9464C32.406 12.9521 32.3508 12.9703 32.3295 12.976H32.3291C32.3091 12.9855 32.2887 12.9938 32.2674 13.0003C31.802 13.152 31.3493 13.3401 30.9134 13.5626C30.7266 13.6595 30.5015 13.6443 30.329 13.5239L27.4408 11.5087L24.3827 14.5628L26.4045 17.455V17.4545C26.5249 17.627 26.5396 17.8512 26.4436 18.0381C26.1977 18.5147 25.9896 19.0105 25.821 19.5197C25.7558 19.7179 25.5868 19.8643 25.3812 19.9004L21.9213 20.5122V24.8408L25.383 25.4452V25.4448C25.5898 25.4813 25.7597 25.6285 25.8245 25.8284C25.9892 26.3394 26.1969 26.8356 26.4445 27.3119C26.5419 27.4991 26.5271 27.7246 26.4063 27.8976L24.3854 30.7858L27.4435 33.8439L30.3369 31.8277C30.5103 31.707 30.7362 31.6926 30.9231 31.7904C31.3919 32.0341 31.8816 32.2362 32.3865 32.3939C32.5877 32.4569 32.7376 32.6273 32.7745 32.8349L33.3937 36.3068Z" fill="#C47A2C"/>
<path d="M38.1903 37.4396H32.9171C32.6403 37.4396 32.4039 37.2393 32.3588 36.9664L32.2879 36.5562L31.7183 33.3655C31.3746 33.2456 31.0374 33.107 30.7085 32.9506L27.7026 35.0458C27.4779 35.2027 27.1725 35.1757 26.9787 34.9819L23.2475 31.2499H23.2471C23.0528 31.0556 23.0259 30.7498 23.1836 30.5247L25.2841 27.5282C25.1246 27.1945 24.9821 26.8526 24.8574 26.5045L21.257 25.8766H21.2566C20.985 25.8284 20.7873 25.5912 20.7891 25.3152V20.0368C20.7891 19.7622 20.9863 19.5275 21.2566 19.4798L24.8601 18.8445C24.9839 18.5047 25.1269 18.1649 25.2859 17.8299L23.1846 14.8235V14.8231C23.0268 14.5976 23.0542 14.2917 23.2489 14.0979L26.98 10.3741L26.9805 10.3737C27.1738 10.1799 27.4784 10.1525 27.7035 10.3085L30.7046 12.4037C31.0353 12.2486 31.3738 12.1108 31.7188 11.9909L32.3601 8.38312C32.4079 8.11285 32.643 7.91602 32.9172 7.91602H38.1835C38.4577 7.91645 38.6923 8.11328 38.7405 8.38312L39.3823 11.9883H39.3819C39.729 12.109 40.0693 12.2485 40.4012 12.4063L43.3941 10.311C43.6192 10.1537 43.9242 10.1802 44.1185 10.374L47.8505 14.0979L47.8501 14.0983C48.0443 14.2925 48.0717 14.598 47.9144 14.8231L45.8187 17.8351C45.9773 18.164 46.119 18.5012 46.2437 18.8445L49.8445 19.4823C50.1152 19.5301 50.312 19.7652 50.3124 20.0398V25.3153C50.3129 25.5907 50.1147 25.8262 49.8436 25.8736L46.2424 26.5045C46.1181 26.85 45.976 27.1889 45.8165 27.52L47.917 30.5251C48.0743 30.7502 48.0474 31.0561 47.8531 31.2499L44.1202 34.9802C43.926 35.1739 43.6209 35.2009 43.3959 35.044L40.3947 32.9488H40.3943C40.0654 33.1052 39.7286 33.2434 39.3849 33.3638L38.7431 36.9698V36.9702C38.6966 37.2396 38.4638 37.4369 38.1904 37.4395L38.1903 37.4396ZM33.3937 36.3068H37.7158L38.3332 32.8359V32.8363C38.3697 32.6282 38.5192 32.4579 38.7208 32.3944C39.2257 32.2371 39.7154 32.0355 40.1842 31.7913C40.3715 31.6944 40.5975 31.7087 40.7708 31.8287L43.6561 33.8435L46.7141 30.7854L44.6923 27.8928V27.8933C44.5711 27.7195 44.5568 27.4931 44.655 27.3058C44.9026 26.8322 45.1099 26.339 45.2746 25.8306C45.3393 25.6312 45.5092 25.4834 45.7156 25.4474L49.1774 24.843V20.5121L45.7169 19.9016C45.5114 19.8651 45.3428 19.7191 45.2776 19.521C45.1112 19.0139 44.904 18.5216 44.6572 18.0485C44.5594 17.8616 44.5737 17.6352 44.6945 17.4619L46.7163 14.562L43.6583 11.5087L40.7787 13.5248C40.6066 13.6452 40.3816 13.6604 40.1943 13.5639C39.7194 13.3202 39.2245 13.1181 38.7147 12.9599C38.5127 12.8969 38.3628 12.7266 38.3259 12.5185L37.7084 9.04759H33.3915L32.7745 12.5171C32.7397 12.7122 32.6059 12.8747 32.4216 12.9464C32.406 12.9521 32.3508 12.9703 32.3295 12.976H32.3291C32.3091 12.9855 32.2887 12.9938 32.2674 13.0003C31.802 13.152 31.3493 13.3401 30.9134 13.5626C30.7266 13.6595 30.5015 13.6443 30.329 13.5239L27.4408 11.5087L24.3827 14.5628L26.4045 17.455V17.4545C26.5249 17.627 26.5396 17.8512 26.4436 18.0381C26.1977 18.5147 25.9896 19.0105 25.821 19.5197C25.7558 19.7179 25.5868 19.8643 25.3812 19.9004L21.9213 20.5122V24.8408L25.383 25.4452V25.4448C25.5898 25.4813 25.7597 25.6285 25.8245 25.8284C25.9892 26.3394 26.1969 26.8356 26.4445 27.3119C26.5419 27.4991 26.5271 27.7246 26.4063 27.8976L24.3854 30.7858L27.4435 33.8439L30.3369 31.8277C30.5103 31.707 30.7362 31.6926 30.9231 31.7904C31.3919 32.0341 31.8816 32.2362 32.3865 32.3939C32.5877 32.4569 32.7376 32.6273 32.7745 32.8349L33.3937 36.3068Z" stroke="#C47A2C" stroke-width="0.6" mask="url(#path-1-outside-1_1160_3303)"/>
<path d="M30.8708 27.3499L30.8708 27.3499C29.6317 26.1095 28.9355 24.428 28.9359 22.6745C28.9364 20.9211 29.6331 19.2395 30.8731 17.9996C32.1127 16.7596 33.7941 16.0629 35.5476 16.0629L30.8708 27.3499ZM30.8708 27.3499C32.1103 28.5903 33.7914 29.2879 35.5449 29.2888H35.545M30.8708 27.3499L35.545 29.2888M35.545 29.2888C37.2998 29.2879 38.9822 28.5903 40.223 27.35L40.223 27.3499C41.4638 26.109 42.1609 24.4263 42.1618 22.672V22.6718M35.545 29.2888L42.1618 22.6718M42.1618 22.6718C42.1609 20.9183 41.4634 19.2369 40.2234 17.9978C38.983 16.7582 37.301 16.0625 35.5476 16.0629L42.1618 22.6718ZM35.545 17.4956L35.5775 17.4956C36.9395 17.5037 38.2445 18.0479 39.2089 19.0107C40.181 19.9815 40.7279 21.2982 40.7296 22.6724C40.7304 24.0461 40.1856 25.3645 39.2148 26.3365L39.2148 26.3365C38.244 27.3087 36.9268 27.8556 35.5527 27.8564H35.5527C34.179 27.8577 32.8606 27.3129 31.8885 26.3421L31.7825 26.4482L31.8885 26.3421C30.9163 25.3713 30.3695 24.0541 30.3686 22.68V22.68C30.3674 21.3059 30.9121 19.9879 31.883 19.0158L31.883 19.0158C32.8538 18.0433 34.1714 17.4964 35.545 17.4956Z" fill="#C47A2C" stroke="#C47A2C" stroke-width="0.3"/>
<path d="M56.5862 50.1552C56.7211 50.0209 56.7963 49.8383 56.7963 49.6483V42.9455C56.7963 42.7557 56.7212 42.5732 56.5864 42.4388C56.4523 42.3048 56.27 42.2289 56.0801 42.2289H15.0154C14.6195 42.2289 14.2992 42.55 14.2992 42.9455V49.6483C14.2992 50.0439 14.6195 50.365 15.0154 50.365C15.4112 50.365 15.7316 50.0439 15.7316 49.6483V43.6617H55.3639V49.6483C55.3639 50.0439 55.6843 50.365 56.0801 50.365H56.0801C56.2699 50.365 56.4522 50.2892 56.5862 50.1552ZM56.5862 50.1552L56.4803 50.049M56.5862 50.1552C56.5863 50.1552 56.5863 50.1551 56.5864 50.155L56.4803 50.049M56.4803 50.049C56.3743 50.155 56.2301 50.215 56.0801 50.215H56.0801C55.7673 50.215 55.5139 49.9612 55.5139 49.6483V43.6617L15.5816 49.6483C15.5816 49.9612 15.3282 50.215 15.0154 50.215C14.7025 50.215 14.4492 49.9612 14.4492 49.6483V42.9455C14.4492 42.6327 14.7025 42.3789 15.0154 42.3789H56.0801C56.2301 42.3789 56.3743 42.4389 56.4803 42.5449C56.5868 42.6509 56.6463 42.7952 56.6463 42.9455V49.6483C56.6463 49.7987 56.5868 49.9429 56.4803 50.049Z" fill="#C47A2C" stroke="#C47A2C" stroke-width="0.3"/>
<path d="M34.7719 49.649C34.7719 50.0447 35.0928 50.3656 35.4885 50.3656H35.4885C35.6782 50.3656 35.8605 50.2898 35.9945 50.1559C36.1294 50.0216 36.2047 49.839 36.2047 49.649V36.8748C36.2047 36.479 35.8837 36.1586 35.4885 36.1586C35.0929 36.1586 34.7719 36.4789 34.7719 36.8748V49.649Z" fill="#C47A2C" stroke="#C47A2C" stroke-width="0.3"/>
<path d="M22.3865 62.2317H7.65036C7.39027 62.2317 7.15075 62.0904 7.02441 61.8635L22.3865 62.2317ZM22.3865 62.2317C22.3866 62.2317 22.3867 62.2317 22.3868 62.2317C22.6468 62.2315 22.8862 62.0903 23.0125 61.8635C23.1388 61.6366 23.1324 61.3585 22.995 61.1379L22.3865 62.2317ZM7.0415 61.1379L7.04149 61.1379L14.4125 49.2692L7.0415 61.1379ZM15.0206 48.9301C14.7726 48.9301 14.5429 49.0587 14.4126 49.269L22.9948 61.1376L15.6296 49.2692C15.6295 49.2691 15.6295 49.2691 15.6295 49.2691C15.4987 49.0581 15.2685 48.9301 15.0206 48.9301ZM8.93899 60.7989L15.0208 51.0048L21.0994 60.7989H8.93899Z" fill="#C47A2C" stroke="#C47A2C" stroke-width="0.3"/>
<path d="M41.9902 49.1435L41.9902 49.1435C41.856 49.0092 41.6735 48.934 41.484 48.934H29.6174C29.2218 48.934 28.9008 49.2543 28.9008 49.6502V61.5167C28.9008 61.9124 29.2217 62.2333 29.6174 62.2333H41.334V62.2334H41.484C41.6738 62.2334 41.8562 62.1575 41.9902 62.0234L41.8842 61.9174L41.9902 62.0234C42.1248 61.8888 42.2002 61.7069 42.2002 61.5167V49.6502C42.2002 49.46 42.1248 49.2781 41.9902 49.1435ZM40.7682 50.3659V60.8005H30.3336V50.3659H40.7682Z" fill="#C47A2C" stroke="#C47A2C" stroke-width="0.3"/>
<path d="M56.235 62.2317L56.085 62.2318C54.3211 62.2327 52.6296 61.5325 51.3818 60.286L51.3818 60.286C50.1344 59.0395 49.4329 57.3485 49.432 55.5846L49.432 55.5846C49.4316 53.8211 50.1313 52.1292 51.3783 50.8818L56.235 62.2317ZM56.235 62.2317V62.2299M56.235 62.2317V62.2299M56.235 62.2299C57.9428 62.1897 59.5723 61.4936 60.7829 60.2829C62.029 59.0369 62.73 57.3477 62.7318 55.5855V55.5854V55.5797V55.5797C62.7313 53.8158 62.0303 52.1248 60.7825 50.8783C59.5351 49.6313 57.8432 48.9316 56.0797 48.932L56.0797 48.932C54.3158 48.9329 52.6248 49.6339 51.3783 50.8818L56.235 62.2299ZM56.1134 50.3652L56.0849 50.3652C54.7012 50.3643 53.3737 50.9134 52.3951 51.8912L52.3951 51.8912C51.416 52.869 50.8656 54.1956 50.8649 55.5793V55.5793C50.864 56.963 51.4131 58.2904 52.3908 59.2691L52.3909 59.2691C53.3687 60.2482 54.6952 60.7989 56.0789 60.7993H56.0789C57.4626 60.8001 58.7901 60.2515 59.7692 59.2738L56.1134 50.3652ZM56.1134 50.3652C57.4854 50.374 58.7997 50.9235 59.7704 51.8941L59.8764 51.7881L59.7704 51.8941C60.7482 52.8719 61.2977 54.1974 61.2994 55.5803V55.5857C61.2986 56.9693 60.7478 58.2959 59.7692 59.2737L56.1134 50.3652Z" fill="#C47A2C" stroke="#C47A2C" stroke-width="0.3"/>
<path d="M52.8318 54.814H59.3304C59.7261 54.814 60.047 54.4931 60.047 54.0974C60.047 53.7021 59.726 53.3812 59.3304 53.3812H52.8318C52.436 53.3812 52.1156 53.7022 52.1156 54.0974C52.1156 54.493 52.4359 54.814 52.8318 54.814Z" fill="#C47A2C" stroke="#C47A2C" stroke-width="0.3"/>
<path d="M52.8318 57.7843H59.3304C59.7259 57.7843 60.047 57.464 60.047 57.0681C60.047 56.6723 59.7259 56.352 59.3304 56.352H52.8318C52.4361 56.352 52.1156 56.6724 52.1156 57.0681C52.1156 57.4638 52.4361 57.7843 52.8318 57.7843Z" fill="#C47A2C" stroke="#C47A2C" stroke-width="0.3"/>
<path d="M32.301 54.3687H38.7974C39.1931 54.3687 39.5135 54.0477 39.5135 53.6525C39.5135 53.257 39.1932 52.9359 38.7974 52.9359H32.301C31.9053 52.9359 31.5844 53.2569 31.5844 53.6525C31.5844 54.0479 31.9054 54.3687 32.301 54.3687Z" fill="#C47A2C" stroke="#C47A2C" stroke-width="0.3"/>
<path d="M32.301 58.2296H38.7974C39.193 58.2296 39.5135 57.9091 39.5135 57.5134C39.5135 57.1177 39.193 56.7973 38.7974 56.7973H32.301C31.9054 56.7973 31.5844 57.1176 31.5844 57.5134C31.5844 57.9093 31.9054 58.2296 32.301 58.2296Z" fill="#C47A2C" stroke="#C47A2C" stroke-width="0.3"/>
<path d="M13.4514 56.9093H16.5851C16.9808 56.9093 17.3013 56.5888 17.3013 56.1931C17.3013 55.7974 16.9808 55.477 16.5851 55.477H13.4514C13.0558 55.477 12.7348 55.7973 12.7348 56.1931C12.7348 56.589 13.0558 56.9093 13.4514 56.9093Z" fill="#C47A2C" stroke="#C47A2C" stroke-width="0.3"/>
<path d="M11.7697 59.5523H18.2683C18.6641 59.5523 18.9845 59.2313 18.9845 58.8361C18.9845 58.4406 18.6642 58.1195 18.2683 58.1195H11.7697C11.374 58.1195 11.0531 58.4404 11.0531 58.8361C11.0531 59.2315 11.3741 59.5523 11.7697 59.5523Z" fill="#C47A2C" stroke="#C47A2C" stroke-width="0.3"/>
</svg>
