<svg width="70" height="70" viewBox="0 0 70 70" fill="none" xmlns="http://www.w3.org/2000/svg">
<path d="M63.2706 8.00005H7.07523C6.4816 8.00005 6 8.48165 6 9.07578V48.9744C6 49.5686 6.4816 50.0502 7.07523 50.0502H28.1397V56.6677C28.1397 57.4663 27.8241 58.2325 27.2615 58.7996C26.6984 59.3662 25.9347 59.6873 25.136 59.6933H24.0247C23.9412 59.6833 23.8567 59.6833 23.7737 59.6933H19.1992C18.6056 59.6933 18.124 60.1744 18.124 60.7685C18.124 61.3626 18.6056 61.8438 19.1992 61.8438H51.1537C51.7479 61.8438 52.229 61.3626 52.229 60.7685C52.229 60.1744 51.7479 59.6933 51.1537 59.6933H46.5368C46.4533 59.6833 46.3688 59.6833 46.2857 59.6933H45.21C44.4078 59.6933 43.6382 59.3742 43.071 58.8071C42.5034 58.2395 42.1848 57.4698 42.1848 56.6676V50.0501H63.2711C63.8647 50.0501 64.3463 49.5685 64.3463 48.9744V9.07573C64.3463 8.4816 63.8647 8 63.2711 8L63.2706 8.00005ZM29.2791 59.7208C29.9343 58.8371 30.2883 57.7663 30.2898 56.6667V50.0492H40.026V56.6667C40.0275 57.7664 40.3821 58.8372 41.0372 59.7208H29.2791ZM62.1874 47.8982H8.15066V42.6645H62.1938V47.9057L62.1874 47.8982ZM62.1874 40.5066H8.15066V10.1499H62.1938V40.513L62.1874 40.5066Z" fill="#C47A2C"/>
<path d="M36.5636 45.261C36.5636 46.0097 35.957 46.6163 35.2088 46.6163C34.4602 46.6163 33.8535 46.0097 33.8535 45.261C33.8535 44.5129 34.4602 43.9062 35.2088 43.9062C35.957 43.9062 36.5636 44.5129 36.5636 45.261Z" fill="#C47A2C"/>
<path d="M13.5375 35.0559V35.2059H13.6875H31.5203H31.6703V35.0559V29.0601C31.6703 27.1967 30.1483 25.6821 28.2782 25.682C28.2781 25.682 28.278 25.682 28.278 25.682H16.9295C15.0595 25.682 13.5375 27.1966 13.5375 29.0604V35.0559ZM17.8367 31.0587V33.9582H14.7887V29.06C14.7887 27.8859 15.7485 26.9293 16.9289 26.9293H28.2784C29.4592 26.9293 30.419 27.8859 30.419 29.06L30.4187 33.9582H27.3704V31.0587V30.9087H27.2204H26.2686H26.1186V31.0587V33.9582H19.0884V31.0587V30.9087H18.9384H17.9867H17.8367V31.0587Z" fill="#C47A2C" stroke="#C47A2C" stroke-width="0.3"/>
<path d="M27.366 19.069C27.366 21.6946 25.2298 23.8309 22.6041 23.8309C19.9781 23.8309 17.8419 21.6946 17.8422 19.069H27.366ZM27.366 19.069C27.366 16.4433 25.2298 14.307 22.6041 14.307M27.366 19.069L22.6041 14.307M22.6041 14.307C19.9785 14.307 17.8422 16.4433 17.8422 19.0689L22.6041 14.307ZM22.6041 15.5574C24.5403 15.5574 26.1157 17.1327 26.1157 19.069C26.1157 21.0049 24.5404 22.5806 22.6041 22.5806C20.6682 22.5806 19.0925 21.0052 19.0925 19.069C19.0925 17.1328 20.6678 15.5574 22.6041 15.5574Z" fill="#C47A2C" stroke="#C47A2C" stroke-width="0.3"/>
<path d="M56.6305 15.9941V15.8441H56.4805H45.6484H45.5861L45.5421 15.8883L40.0226 21.4365L39.9789 21.4804V21.5423V35.0568V35.2068H40.1289H56.4806H56.6306L56.6306 35.0568L56.6305 23.8471L56.6305 23.4696V15.9941ZM46.4957 22.243V17.1349H55.3444L55.3443 33.9162H41.265V22.393H46.3457H46.4957V22.243ZM42.1728 21.1019L45.2093 18.0496V21.1019H42.1728Z" fill="#C47A2C" stroke="#C47A2C" stroke-width="0.3"/>
<path d="M51.7891 30.8344H51.6391V30.9844V31.9097V32.0597H51.7891H53.4547H53.6047V31.9097V30.9844V30.8344H53.4547H51.7891Z" fill="#C47A2C" stroke="#C47A2C" stroke-width="0.3"/>
<path d="M46.0508 30.8344H45.9008V30.9844V31.9097V32.0597H46.0508H50.8627H51.0127V31.9097V30.9844V30.8344H50.8627H46.0508Z" fill="#C47A2C" stroke="#C47A2C" stroke-width="0.3"/>
<path d="M43.2734 30.8344H43.1234V30.9844V31.9097V32.0597H43.2734H45.3093H45.4593V31.9097V30.9844V30.8344H45.3093H43.2734Z" fill="#C47A2C" stroke="#C47A2C" stroke-width="0.3"/>
<path d="M51.6035 27.8734H51.4535V28.0234V28.9488V29.0988H51.6035H53.4543H53.6043V28.9488V28.0234V27.8734H53.4543H51.6035Z" fill="#C47A2C" stroke="#C47A2C" stroke-width="0.3"/>
<path d="M46.0508 27.8734H45.9008V28.0234V28.9488V29.0988H46.0508H50.8627H51.0127V28.9488V28.0234V27.8734H50.8627H46.0508Z" fill="#C47A2C" stroke="#C47A2C" stroke-width="0.3"/>
<path d="M43.2734 27.8734H43.1234V28.0234V28.9488V29.0988H43.2734H45.4943H45.6443V28.9488V28.0234V27.8734H45.4943H43.2734Z" fill="#C47A2C" stroke="#C47A2C" stroke-width="0.3"/>
<path d="M51.7891 24.9125H51.6391V25.0625V25.9879V26.1379H51.7891H53.4547H53.6047V25.9879V25.0625V24.9125H53.4547H51.7891Z" fill="#C47A2C" stroke="#C47A2C" stroke-width="0.3"/>
<path d="M45.4961 24.9125H45.3461V25.0625V25.9879V26.1379H45.4961H50.8632H51.0132V25.9879V25.0625V24.9125H50.8632H45.4961Z" fill="#C47A2C" stroke="#C47A2C" stroke-width="0.3"/>
<path d="M43.2734 24.9125H43.1234V25.0625V25.9879V26.1379H43.2734H44.9391H45.0891V25.9879V25.0625V24.9125H44.9391H43.2734Z" fill="#C47A2C" stroke="#C47A2C" stroke-width="0.3"/>
<path d="M49.5664 21.9516H49.4164V22.1016V23.0269V23.1769H49.5664H53.453H53.603V23.0269V22.1016V21.9516H53.453H49.5664Z" fill="#C47A2C" stroke="#C47A2C" stroke-width="0.3"/>
<path d="M47.5312 21.9516H47.3812V22.1016V23.0269V23.1769H47.5312H48.6417H48.7917V23.0269V22.1016V21.9516H48.6417H47.5312Z" fill="#C47A2C" stroke="#C47A2C" stroke-width="0.3"/>
<path d="M52.3438 18.9887H52.1937V19.1387V20.2491V20.3991H52.3438H53.4542H53.6042V20.2491V19.1387V18.9887H53.4542H52.3438Z" fill="#C47A2C" stroke="#C47A2C" stroke-width="0.3"/>
<path d="M47.5312 18.9887H47.3812V19.1387V20.2491V20.3991H47.5312H51.2327H51.3827V20.2491V19.1387V18.9887H51.2327H47.5312Z" fill="#C47A2C" stroke="#C47A2C" stroke-width="0.3"/>
</svg>
