<svg width="70" height="70" viewBox="0 0 70 70" fill="none" xmlns="http://www.w3.org/2000/svg">
<path d="M56.5605 14.0054L50.7988 8.24375C50.6426 8.0875 50.4309 8 50.2098 8H20.4098C19.9496 8 19.5762 8.37344 19.5762 8.83359V13.5762H14.8336C14.3734 13.5762 14 13.9496 14 14.4098V60.5008C14 60.9609 14.3734 61.3344 14.8336 61.3344H50.3956C50.8558 61.3344 51.2292 60.9609 51.2292 60.5008V55.7582H55.9718C56.4319 55.7582 56.8054 55.3847 56.8054 54.9246V14.5946C56.805 14.3735 56.7175 14.1618 56.5612 14.0055L56.5605 14.0054ZM51.0425 10.8449L53.9593 13.7618H51.0425V10.8449ZM49.5616 59.666H15.6666V15.241H43.7996V20.1695C43.7996 20.6296 44.1731 21.003 44.6332 21.003H49.5613L49.5616 59.666ZM45.4671 16.42L48.3839 19.3368H45.4671V16.42ZM51.2288 54.091V20.171C51.2288 19.9499 51.1413 19.7381 50.9851 19.5819L45.2234 13.8202C45.0671 13.6639 44.8554 13.5764 44.6343 13.5764H21.2433V9.66664H49.3763V14.5947C49.3763 15.0549 49.7498 15.4283 50.2099 15.4283H55.138V54.0913L51.2288 54.091ZM43.9714 28.6719C43.9714 29.1321 43.598 29.5055 43.1378 29.5055L22.0909 29.5051C21.6307 29.5051 21.2573 29.1317 21.2573 28.6716C21.2573 28.2114 21.6307 27.838 22.0909 27.838H43.1388C43.5986 27.8388 43.9721 28.2122 43.9721 28.6719H43.9714ZM43.9714 34.8751C43.9714 35.3352 43.598 35.7086 43.1378 35.7086H22.0909C21.6307 35.7086 21.2573 35.3352 21.2573 34.8751C21.2573 34.4149 21.6307 34.0415 22.0909 34.0415H43.1388C43.5986 34.0415 43.9721 34.4145 43.9721 34.8751H43.9714ZM43.9714 41.0774C43.9714 41.5375 43.598 41.9109 43.1378 41.9109H22.0909C21.6307 41.9109 21.2573 41.5375 21.2573 41.0774C21.2573 40.6172 21.6307 40.2438 22.0909 40.2438H43.1388C43.5986 40.2438 43.9721 40.6172 43.9721 41.0774H43.9714ZM21.2574 22.4693C21.2574 22.0092 21.6309 21.6358 22.091 21.6358H37.2C37.6602 21.6358 38.0336 22.0092 38.0336 22.4693C38.0336 22.9295 37.6602 23.3029 37.2 23.3029H22.091C21.6309 23.3029 21.2574 22.9295 21.2574 22.4693ZM43.1394 46.4474H22.0914C21.6313 46.4474 21.2579 46.8208 21.2579 47.2809V53.4836C21.2579 53.9438 21.6313 54.3172 22.0914 54.3172H43.1394C43.5996 54.3172 43.973 53.9438 43.973 53.4836L43.9734 47.2805C43.9726 46.8204 43.5992 46.4473 43.1398 46.4473L43.1394 46.4474ZM42.3059 52.6501H22.9249V48.1142H42.3059V52.6501Z" fill="#C47A2C"/>
</svg>
