<svg width="70" height="70" viewBox="0 0 70 70" fill="none" xmlns="http://www.w3.org/2000/svg">
<path d="M41.2914 33.0508V33.2008H41.4414H62.8574H63.0074V33.0508V25.8192C63.0074 23.5895 61.1938 21.7759 58.9638 21.7758C58.9637 21.7758 58.9637 21.7758 58.9636 21.7758H45.3348C43.1051 21.7758 41.2914 23.5894 41.2914 25.8196V33.0508ZM46.4544 28.2297V31.7578H42.7337V25.8191C42.7337 24.3851 43.9006 23.2183 45.3341 23.2183H58.9641C60.3981 23.2183 61.5649 24.3851 61.5649 25.8191L61.5646 31.7578H57.8435V28.2297V28.0797H57.6935H56.5505H56.4005V28.2297V31.7578H47.8974V28.2297V28.0797H47.7474H46.6044H46.4544V28.2297Z" fill="#C47A2C" stroke="#C47A2C" stroke-width="0.3"/>
<path d="M27.101 33.4867L27.1009 21.1527L27.1796 21.2977L27.2512 21.4296L27.383 21.358C27.8644 21.0966 28.3629 20.8556 28.8648 20.6415L29.0028 20.5826L28.9439 20.4446L28.4951 19.3934L28.4362 19.2555L28.2982 19.3143C27.8938 19.487 27.4935 19.6776 27.1009 19.8795V11.5078V11.3578H26.9509H14.3969H14.3348L14.2908 11.4017L7.89393 17.7986L7.85 17.8426V17.9047V33.4867V33.6367H8H26.951H27.101L27.101 33.4867ZM15.355 18.7126V12.8001H25.658L25.6579 32.1946H9.29288V18.8626H15.205H15.355V18.7126ZM10.3127 17.4199L13.9119 13.8207V17.4199H10.3127Z" fill="#C47A2C" stroke="#C47A2C" stroke-width="0.3"/>
<path d="M21.4434 28.5922H21.2934V28.7422V29.8852V30.0352H21.4434H23.4012H23.5512V29.8852V28.7422V28.5922H23.4012H21.4434Z" fill="#C47A2C" stroke="#C47A2C" stroke-width="0.3"/>
<path d="M14.7812 28.5922H14.6312V28.7422V29.8852V30.0352H14.7812H20.4887H20.6387V29.8852V28.7422V28.5922H20.4887H14.7812Z" fill="#C47A2C" stroke="#C47A2C" stroke-width="0.3"/>
<path d="M11.5488 28.5922H11.3988V28.7422V29.8852V30.0352H11.5488H13.9039H14.0539V29.8852V28.7422V28.5922H13.9039H11.5488Z" fill="#C47A2C" stroke="#C47A2C" stroke-width="0.3"/>
<path d="M21.2891 25.1859H21.1391V25.3359V26.4789V26.6289H21.2891H23.402H23.552V26.4789V25.3359V25.1859H23.402H21.2891Z" fill="#C47A2C" stroke="#C47A2C" stroke-width="0.3"/>
<path d="M14.7812 25.1859H14.6312V25.3359V26.4789V26.6289H14.7812H20.3335H20.4835V26.4789V25.3359V25.1859H20.3335H14.7812Z" fill="#C47A2C" stroke="#C47A2C" stroke-width="0.3"/>
<path d="M11.5488 25.1859H11.3988V25.3359V26.4789V26.6289H11.5488H14.1105H14.2605V26.4789V25.3359V25.1859H14.1105H11.5488Z" fill="#C47A2C" stroke="#C47A2C" stroke-width="0.3"/>
<path d="M21.5449 21.7758H21.3949V21.9258V23.0688V23.2188H21.5449H23.4008H23.5508V23.0688V21.9258V21.7758H23.4008H21.5449Z" fill="#C47A2C" stroke="#C47A2C" stroke-width="0.3"/>
<path d="M14.3164 21.7758H14.1664V21.9258V23.0688V23.2188H14.3164H20.3336H20.4836V23.0688V21.9258V21.7758H20.3336H14.3164Z" fill="#C47A2C" stroke="#C47A2C" stroke-width="0.3"/>
<path d="M11.5488 21.7758H11.3988V21.9258V23.0688V23.2188H11.5488H13.4906H13.6406V23.0688V21.9258V21.7758H13.4906H11.5488Z" fill="#C47A2C" stroke="#C47A2C" stroke-width="0.3"/>
<path d="M18.9395 18.3676H18.7895V18.5176V19.6606V19.8106H18.9395H23.4024H23.5524V19.6606V18.5176V18.3676H23.4024H18.9395Z" fill="#C47A2C" stroke="#C47A2C" stroke-width="0.3"/>
<path d="M16.5762 18.3676H16.4262V18.5176V19.6606V19.8106H16.5762H17.8532H18.0032V19.6606V18.5176V18.3676H17.8532H16.5762Z" fill="#C47A2C" stroke="#C47A2C" stroke-width="0.3"/>
<path d="M22.1641 14.9574H22.0141V15.1074V16.2504V16.4004H22.1641H23.4012H23.5512V16.2504V15.1074V14.9574H23.4012H22.1641Z" fill="#C47A2C" stroke="#C47A2C" stroke-width="0.3"/>
<path d="M16.5762 14.9574H16.4262V15.1074V16.2504V16.4004H16.5762H20.9262H21.0762V16.2504V15.1074V14.9574H20.9262H16.5762Z" fill="#C47A2C" stroke="#C47A2C" stroke-width="0.3"/>
<path d="M57.8425 13.5445C57.8425 16.6843 55.2879 19.239 52.148 19.239C49.0078 19.239 46.4531 16.6844 46.4535 13.5445H57.8425ZM57.8425 13.5445C57.8425 10.4047 55.2879 7.85 52.148 7.85M57.8425 13.5445L52.148 7.85M52.148 7.85C49.0082 7.85 46.4535 10.4046 46.4535 13.5445L52.148 7.85ZM52.148 9.2925C54.4925 9.2925 56.4 11.1999 56.4 13.5445C56.4 15.8887 54.4926 17.7965 52.148 17.7965C49.8039 17.7965 47.896 15.889 47.896 13.5445C47.896 11.2 49.8035 9.2925 52.148 9.2925Z" fill="#C47A2C" stroke="#C47A2C" stroke-width="0.3"/>
<path d="M45.7144 50.5955L45.7378 50.5055L45.8287 50.4864L48.4612 49.9329V46.7411L45.8287 46.1876L45.7378 46.1685L45.7144 46.0785L45.6254 45.7355L45.6253 45.7354C45.3964 44.8506 45.042 43.9943 44.5723 43.1912L44.5722 43.1911L44.3941 42.886L44.3474 42.806L44.398 42.7284L45.8674 40.4764L43.6122 38.219L41.3572 39.6915L41.2794 39.7423L41.1993 39.6952L40.8938 39.5159L40.8937 39.5159C40.1034 39.051 39.247 38.6957 38.3484 38.4597L38.3484 38.4597L38.007 38.3699L37.9174 38.3463L37.8984 38.2557L37.3449 35.6244H34.1541L33.6029 38.2568L33.5838 38.3479L33.4937 38.3712L33.1504 38.4603C33.1504 38.4603 33.1504 38.4603 33.1504 38.4603C32.264 38.6904 31.4072 39.0456 30.6037 39.5164L30.2987 39.6953L30.2185 39.7423L30.1407 39.6914L27.8889 38.2194L25.6337 40.4764L27.1039 42.7292L27.1547 42.8071L27.1076 42.8872L26.9283 43.1923L26.9283 43.1923C26.4623 43.985 26.107 44.841 25.8722 45.7371L25.7828 46.0788L25.7593 46.1686L25.6685 46.1877L23.0373 46.7411V49.9325L25.6685 50.4859L25.7593 50.505L25.7828 50.5947L25.8722 50.9365C25.8722 50.9365 25.8722 50.9365 25.8722 50.9365C26.1071 51.8327 26.4623 52.689 26.9283 53.4813L26.9283 53.4813L27.1076 53.7864L27.1547 53.8665L27.1039 53.9444L25.6337 56.1972L27.8889 58.4542L30.1408 56.9825L30.2185 56.9317L30.2987 56.9787L30.6037 57.1576C30.6037 57.1576 30.6038 57.1576 30.6038 57.1576C31.4073 57.6285 32.264 57.9836 33.1503 58.2129L33.1504 58.2129L33.4937 58.302L33.5838 58.3253L33.6029 58.4164L34.1544 61.0492H37.3449L37.8983 58.4179L37.9174 58.3273L38.007 58.3037L38.3484 58.2139L38.3484 58.2139C39.2478 57.9774 40.1042 57.6221 40.8937 57.1581L40.8938 57.1581L41.1993 56.9788L41.2794 56.9317L41.3572 56.9825L43.6122 58.4546L45.867 56.1976L44.3981 53.9492L44.3475 53.8716L44.3941 53.7915L44.5718 53.487L45.7144 50.5955ZM45.7144 50.5955L45.6254 50.9384L45.6253 50.9385M45.7144 50.5955L45.6253 50.9385M45.6253 50.9385C45.3964 51.8222 45.042 52.6793 44.5719 53.4869L45.6253 50.9385ZM47.6486 40.387L47.7151 40.2851L47.6291 40.199L43.8904 36.4568L43.8043 36.3706L43.7023 36.4372L41.2306 38.0509C40.569 37.6967 39.8713 37.4076 39.1475 37.187L38.5404 34.3012L38.5153 34.182H38.3936H33.1038H32.982L32.957 34.3013L32.3527 37.1861C31.6343 37.4035 30.9359 37.6934 30.2678 38.051L27.7984 36.437L27.6964 36.3703L27.6102 36.4565L23.8715 40.1991L23.7855 40.2852L23.852 40.3871L25.463 42.8553C25.1082 43.5182 24.8187 44.216 24.599 44.9388L21.7133 45.5458L21.5941 45.5709V45.6926V50.9821V51.1038L21.7133 51.1289L24.5991 51.7359C24.8187 52.4585 25.1082 53.1565 25.463 53.8194L23.852 56.2876L23.7855 56.3895L23.8715 56.4756L27.6102 60.2178L27.6964 60.304L27.7984 60.2374L30.2678 58.6237C30.9362 58.9813 31.6346 59.2711 32.3527 59.4882L32.957 62.3735L32.982 62.4927H33.1038H38.394H38.5157L38.5408 62.3736L39.1478 59.4874C39.872 59.2671 40.5697 58.9777 41.231 58.6238L43.7027 60.2375L43.8047 60.3041L43.8908 60.2179L47.6295 56.4761L47.7156 56.39L47.649 56.288L46.0372 53.8213C46.3944 53.1515 46.6832 52.4534 46.8999 51.7368L49.7848 51.1298L49.904 51.1047V50.983V45.6935V45.5718L49.7848 45.5467L46.9 44.9397C46.6832 44.2216 46.394 43.5241 46.0375 42.8558L47.6486 40.387Z" fill="#C47A2C" stroke="#C47A2C" stroke-width="0.3"/>
<path d="M35.7497 41.1098V41.1098C34.6883 41.1098 33.6647 41.3348 32.7088 41.7788L32.5727 41.842L32.636 41.9781L33.1176 43.0144L33.1808 43.1503L33.3168 43.0872C34.0804 42.7328 34.8987 42.5527 35.7497 42.5527C38.9392 42.5527 41.5341 45.1476 41.5341 48.3371C41.5341 51.5266 38.9392 54.1215 35.7497 54.1215C32.5603 54.1215 29.9649 51.5265 29.9649 48.3371C29.9649 47.0742 30.3642 45.8749 31.1204 44.8682L31.2105 44.7482L31.0905 44.6582L30.1764 43.9718L30.0565 43.8817L29.9664 44.0017C29.0215 45.2606 28.5219 46.7602 28.5219 48.3375C28.5219 52.3226 31.764 55.5648 35.7496 55.5648C39.7347 55.5648 42.9769 52.3226 42.9769 48.3375C42.9769 44.352 39.7348 41.1098 35.7497 41.1098Z" fill="#C47A2C" stroke="#C47A2C" stroke-width="0.3"/>
<path d="M38.8965 18.2072L38.9201 18.0592L38.7721 18.0355C38.1877 17.9418 37.5925 17.8752 37.002 17.8366L36.8522 17.8269L36.8425 17.9766L36.7683 19.1172L36.7585 19.2669L36.9083 19.2766C37.4539 19.3119 38.0048 19.3738 38.5447 19.4602L38.6929 19.4839L38.7165 19.3357L38.8965 18.2072Z" fill="#C47A2C" stroke="#C47A2C" stroke-width="0.3"/>
<path d="M32.0739 19.5974L32.1268 19.54L32.1102 19.4639L31.8677 18.3471L31.8358 18.2005L31.6892 18.2323C31.1107 18.358 30.5319 18.5131 29.9681 18.693L29.8251 18.7386L29.8708 18.8816L30.2184 19.9703L30.2641 20.1131L30.4069 20.0675C30.9274 19.9014 31.4623 19.7585 31.9956 19.6423L32.0418 19.6322L32.0739 19.5974L32.0739 19.5974Z" fill="#C47A2C" stroke="#C47A2C" stroke-width="0.3"/>
<path d="M45.4884 20.6547L45.565 20.5257L45.436 20.4491C44.9276 20.1475 44.3985 19.866 43.8634 19.6125L43.7278 19.5482L43.6636 19.6839L43.175 20.7167L43.1108 20.8523L43.2464 20.9164C43.741 21.1504 44.2298 21.4106 44.6991 21.6895L44.8281 21.7661L44.9047 21.6372L45.4884 20.6547Z" fill="#C47A2C" stroke="#C47A2C" stroke-width="0.3"/>
<path d="M42.3071 19.119L42.3581 18.978L42.2171 18.9269C41.6615 18.7257 41.0887 18.5485 40.5154 18.3997L40.3701 18.362L40.3325 18.5073L40.0462 19.6139L40.0086 19.7591L40.1538 19.7967C40.6833 19.9339 41.2124 20.0973 41.7257 20.2835L41.8668 20.3347L41.9179 20.1936L42.3071 19.119Z" fill="#C47A2C" stroke="#C47A2C" stroke-width="0.3"/>
<path d="M35.2925 19.2409L35.4095 19.2117L35.4062 19.0912L35.3749 17.949L35.3708 17.7991L35.2209 17.8032C34.6268 17.8193 34.0296 17.8638 33.4448 17.9347L33.296 17.9527L33.314 18.1016L33.4511 19.236L33.4691 19.385L33.618 19.3669C34.1583 19.3015 34.7111 19.2604 35.2603 19.2453L35.2766 19.2448L35.2925 19.2409L35.2925 19.2409Z" fill="#C47A2C" stroke="#C47A2C" stroke-width="0.3"/>
<path d="M18.835 45.1137L18.7009 45.1811L18.7684 45.3151C19.0345 45.8439 19.3286 46.366 19.6428 46.8672L19.7225 46.9943L19.8496 46.9146L20.818 46.3076L20.945 46.2279L20.8654 46.1009C20.5753 45.6376 20.3034 45.1553 20.0579 44.667L19.9905 44.533L19.8565 44.6003L18.835 45.1137Z" fill="#C47A2C" stroke="#C47A2C" stroke-width="0.3"/>
<path d="M18.8646 41.6055L18.8235 41.4612L18.6793 41.5022L17.5801 41.8147L17.4357 41.8558L17.4768 42.0001C17.639 42.569 17.8296 43.1371 18.0446 43.6889L18.0991 43.8287L18.2389 43.7742L19.3037 43.3589L19.4435 43.3044L19.3889 43.1646C19.1903 42.6559 19.0141 42.1311 18.8646 41.6055Z" fill="#C47A2C" stroke="#C47A2C" stroke-width="0.3"/>
<path d="M18.2662 38.3734L18.2529 38.224L18.1035 38.2373L16.9652 38.3389L16.8157 38.3522L16.8291 38.5017C16.8819 39.0911 16.963 39.6847 17.0705 40.266L17.0977 40.4134L17.2452 40.3862L18.369 40.1788L18.5166 40.1515L18.4893 40.0039C18.3897 39.4668 18.3146 38.9183 18.2662 38.3734Z" fill="#C47A2C" stroke="#C47A2C" stroke-width="0.3"/>
<path d="M18.279 35.084L18.2934 34.9347L18.1442 34.9202L17.0071 34.8097L16.8578 34.7952L16.8433 34.9444C16.7862 35.5304 16.7563 36.1288 16.7543 36.7233L16.7538 36.8733L16.9038 36.8738L18.0468 36.8777L18.1968 36.8782L18.1973 36.7282C18.1992 36.1781 18.2267 35.625 18.279 35.084Z" fill="#C47A2C" stroke="#C47A2C" stroke-width="0.3"/>
<path d="M54.5768 35.9611L54.7265 35.9534L54.7189 35.8037C54.6886 35.2103 54.6299 34.6143 54.5453 34.0312L54.5237 33.8826L54.3751 33.9043L53.2439 34.0695L53.0955 34.0912L53.1172 34.2396C53.1958 34.7779 53.25 35.3291 53.2783 35.8777L53.286 36.0275L53.4358 36.0198L54.5768 35.9611Z" fill="#C47A2C" stroke="#C47A2C" stroke-width="0.3"/>
<path d="M53.1424 39.1677L53.1222 39.3164L53.271 39.3365L54.4038 39.4892L54.5524 39.5093L54.5725 39.3607C54.6516 38.7748 54.704 38.178 54.7284 37.5863L54.7346 37.4364L54.5847 37.4302L53.4429 37.3833L53.293 37.3772L53.2868 37.527C53.2644 38.074 53.216 38.6259 53.1424 39.1677Z" fill="#C47A2C" stroke="#C47A2C" stroke-width="0.3"/>
<path d="M51.0646 45.3754L50.991 45.5061L51.1218 45.5796L52.1183 46.1394L52.2492 46.2129L52.3226 46.082C52.6124 45.5655 52.8813 45.0297 53.1207 44.4889L53.1814 44.3518L53.0444 44.291L51.9999 43.8277L51.8628 43.7669L51.802 43.904C51.5804 44.4033 51.3325 44.8986 51.0646 45.3754Z" fill="#C47A2C" stroke="#C47A2C" stroke-width="0.3"/>
<path d="M49.9976 47.0457L49.9095 47.1675L50.0315 47.2553L50.9588 47.9233L51.0805 48.011L51.1682 47.8892C51.2389 47.791 51.3091 47.6921 51.3785 47.5915L51.4636 47.4682L51.3405 47.3829L50.401 46.7322L50.2773 46.6464L50.192 46.7705C50.1284 46.8631 50.0634 46.9547 49.9976 47.0457Z" fill="#C47A2C" stroke="#C47A2C" stroke-width="0.3"/>
<path d="M52.3968 42.3676L52.3492 42.5098L52.4914 42.5575L53.575 42.9208L53.7173 42.9685L53.7649 42.8261C53.9524 42.2658 54.1157 41.6891 54.2504 41.1114L54.2845 40.9652L54.1383 40.9312L53.025 40.6723L52.8789 40.6383L52.8449 40.7844C52.721 41.3176 52.57 41.8506 52.3968 42.3676Z" fill="#C47A2C" stroke="#C47A2C" stroke-width="0.3"/>
<path d="M38.8828 48.3379C38.8828 46.698 37.5484 45.3637 35.9082 45.3637C34.2683 45.3637 32.934 46.698 32.934 48.3379C32.934 49.9777 34.2683 51.3121 35.9082 51.3121C37.5488 51.3121 38.8828 49.9781 38.8828 48.3379ZM34.3769 48.3379C34.3769 47.4934 35.064 46.8067 35.9081 46.8067C36.7526 46.8067 37.4397 47.4938 37.4397 48.3379C37.4397 49.1823 36.7526 49.8691 35.9081 49.8691C35.064 49.8691 34.3769 49.1823 34.3769 48.3379Z" fill="#C47A2C" stroke="#C47A2C" stroke-width="0.3"/>
</svg>
