<svg width="70" height="70" viewBox="0 0 70 70" fill="none" xmlns="http://www.w3.org/2000/svg">
<path fill-rule="evenodd" clip-rule="evenodd" d="M45.9189 42V9.00012C45.9189 8.73494 45.8212 8.48047 45.6474 8.29297C45.4737 8.10547 45.2379 8 44.9922 8H7.92675C7.41482 8 7 8.44766 7 9.00012V54.9999C7 55.5523 7.41482 56 7.92675 56H37V54.0001H8.85287V9.99921H44.066V42H45.9189ZM11.6328 26.9999H22.7526C22.9983 26.9999 23.2341 26.8944 23.4079 26.7069C23.5816 26.5194 23.6794 26.265 23.6794 25.9998V13.9997C23.6794 13.7345 23.5816 13.4801 23.4079 13.2926C23.2341 13.1051 22.9983 12.9996 22.7526 12.9996H11.6328C11.1212 12.9996 10.7064 13.4476 10.7064 13.9997V25.9998C10.7064 26.5519 11.1212 26.9999 11.6328 26.9999ZM21.8265 24.9997H12.5597V15.0002H21.8265V24.9997ZM41.941 13.2927C42.1148 13.4802 42.2122 13.7347 42.2122 13.9999C42.2122 14.2651 42.1148 14.5195 41.941 14.707C41.767 14.8945 41.5315 15 41.2858 15H28.3122C27.8006 15 27.3857 14.552 27.3857 13.9999C27.3857 13.4477 27.8005 12.9997 28.3122 12.9997H41.2858C41.5315 12.9997 41.767 13.1052 41.941 13.2927ZM41.941 19.2928C42.1148 19.4803 42.2122 19.7347 42.2122 19.9999C42.2122 20.2651 42.1148 20.5196 41.941 20.7071C41.767 20.8946 41.5315 21 41.2858 21H26.4591C25.9475 21 25.5324 20.552 25.5324 19.9999C25.5324 19.4478 25.9475 18.9998 26.4591 18.9998H41.2858C41.5315 18.9998 41.767 19.1053 41.941 19.2928ZM41.941 25.2928C42.1148 25.4803 42.2122 25.7348 42.2122 26C42.2122 26.2651 42.1148 26.5196 41.941 26.7071C41.767 26.8946 41.5315 27.0001 41.2858 27.0001H26.4591C25.9475 27.0001 25.5324 26.5521 25.5324 26C25.5324 25.4478 25.9475 24.9998 26.4591 24.9998H41.2858C41.5315 24.9998 41.767 25.1053 41.941 25.2928ZM41.941 31.2929C42.1148 31.4804 42.2122 31.7348 42.2122 32C42.2122 32.2652 42.1148 32.5196 41.941 32.7071C41.767 32.8947 41.5315 33.0001 41.2858 33.0001H11.6325C11.1209 33.0001 10.7061 32.5521 10.7061 32C10.7061 31.4479 11.1209 30.9999 11.6325 30.9999H41.2858C41.5315 30.9999 41.767 31.1054 41.941 31.2929ZM41.941 37.2929C42.1148 37.4804 42.2122 37.7349 42.2122 38C42.2122 38.2652 42.1148 38.5197 41.941 38.7072C41.767 38.8947 41.5315 39.0002 41.2858 39.0002H11.6325C11.1209 39.0002 10.7061 38.5522 10.7061 38C10.7061 37.4479 11.1209 36.9999 11.6325 36.9999H41.2858C41.5315 36.9999 41.767 37.1054 41.941 37.2929ZM36.3812 49.293C36.5549 49.4805 36.6523 49.7349 36.6523 50.0001C36.6523 50.2653 36.5549 50.5198 36.3812 50.7073C36.2071 50.8948 35.9716 51.0003 35.7259 51.0003H11.6325C11.1209 51.0003 10.7061 50.5523 10.7061 50.0001C10.7061 49.448 11.1209 49 11.6325 49H35.7259C35.9716 49 36.2071 49.1055 36.3812 49.293ZM36.6523 44.0001C36.6523 43.7349 36.5549 43.4805 36.3812 43.293C36.2071 43.1055 35.9716 43 35.7259 43H11.6325C11.1209 43 10.7061 43.448 10.7061 44.0001C10.7061 44.5522 11.1209 45.0002 11.6325 45.0002H35.7259C35.9716 45.0002 36.2071 44.8948 36.3812 44.7073C36.5549 44.5198 36.6523 44.2653 36.6523 44.0001Z" fill="#C47A2C"/>
<path d="M63.0007 38C62.2976 39.698 61.2701 41.2278 59.9918 42.5062V42.5042C57.479 45.017 54.0087 46.5711 50.1738 46.5711V53.4287C54.009 53.4287 57.4794 54.9836 59.9918 57.4956V57.4947C61.2701 58.7722 62.2978 60.3023 63.0007 62V38Z" stroke="#C47A2C" stroke-width="2" stroke-miterlimit="10" stroke-linecap="round" stroke-linejoin="round"/>
<path d="M50.1731 56.0002L39 51.7137V44.8574H50.1731V56.0002Z" stroke="#C47A2C" stroke-width="2" stroke-miterlimit="10" stroke-linecap="round" stroke-linejoin="round"/>
<path d="M43.3027 53.3633V61.9988H45.8739V54.3495L43.3027 53.3633Z" stroke="#C47A2C" stroke-width="2" stroke-miterlimit="10" stroke-linecap="round" stroke-linejoin="round"/>
</svg>
