<svg width="70" height="70" viewBox="0 0 70 70" fill="none" xmlns="http://www.w3.org/2000/svg">
<path d="M11.5 36H34.25V23.75H11.5V36ZM13.25 25.5H32.5V34.25H13.25V25.5Z" fill="#C47A2C"/>
<path d="M13.25 43.875H18.5V38.625H13.25V43.875ZM15 40.375H16.75V42.125H15V40.375Z" fill="#C47A2C"/>
<path d="M20.25 43.875H25.5V38.625H20.25V43.875ZM22 40.375H23.75V42.125H22V40.375Z" fill="#C47A2C"/>
<path d="M27.25 43.875H32.5V38.625H27.25V43.875ZM29 40.375H30.75V42.125H29V40.375Z" fill="#C47A2C"/>
<path d="M13.25 50.875H18.5V45.625H13.25V50.875ZM15 47.375H16.75V49.125H15V47.375Z" fill="#C47A2C"/>
<path d="M20.25 50.875H25.5V45.625H20.25V50.875ZM22 47.375H23.75V49.125H22V47.375Z" fill="#C47A2C"/>
<path d="M27.25 50.875H32.5V45.625H27.25V50.875ZM29 47.375H30.75V49.125H29V47.375Z" fill="#C47A2C"/>
<path d="M13.25 57.875H18.5V52.625H13.25V57.875ZM15 54.375H16.75V56.125H15V54.375Z" fill="#C47A2C"/>
<path d="M20.25 57.875H25.5V52.625H20.25V57.875ZM22 54.375H23.75V56.125H22V54.375Z" fill="#C47A2C"/>
<path d="M27.25 57.875H32.5V52.625H27.25V57.875ZM29 54.375H30.75V56.125H29V54.375Z" fill="#C47A2C"/>
<path d="M29 30.75H30.75V32.5H29V30.75Z" fill="#C47A2C"/>
<path d="M22 30.75H27.25V32.5H22V30.75Z" fill="#C47A2C"/>
<path d="M16.75 13.25H29V15H16.75V13.25Z" fill="#C47A2C"/>
<path d="M27.25 16.75H29V18.5H27.25V16.75Z" fill="#C47A2C"/>
<path d="M51.75 24.2145V20.25C51.75 18.8027 50.5723 17.625 49.125 17.625H37.75V16.75C37.75 14.8199 36.1801 13.25 34.25 13.25H32.5V8H13.25V13.25H11.5C9.5699 13.25 8 14.8199 8 16.75L8.0043 43.962L9.5172 59.099C9.6965 60.8943 11.1945 62.2498 13.0008 62.2498H32.7498C34.5549 62.2498 36.0529 60.8943 36.2322 59.0982L37.4884 46.5002H42.3751C42.2126 47.4584 42.1251 48.4279 42.1251 49.3982C42.1251 52.8275 43.1306 56.1478 45.0329 59.0013L45.6251 59.8904V62.2502H47.3751V59.36L46.4888 58.0299C44.779 55.4662 43.8751 52.4807 43.8751 49.3983C43.8751 48.128 44.0317 46.8581 44.3387 45.6237L45.5977 40.5874L45.6251 32.664C45.6251 31.6078 46.4825 30.7503 47.5388 30.7503C48.502 30.7503 49.3177 31.4706 49.4376 32.4261L50.9774 44.7501H53.4083L54.4024 35.8032L51.7501 31.3829V26.4942L60.5001 33.7856V42.0122L56.154 58.5272L56.1251 62.2502H57.8751V58.8631L62.2212 42.3481L62.2501 32.9645L51.75 24.2145ZM16.75 9.7505V11.5005H18.5V9.7505H20.25V11.5005H22V9.7505H23.75V11.5005H25.5V9.7505H27.25V11.5005H29V9.7505H30.75V20.2505H15V9.7505H16.75ZM34.491 58.9245C34.4019 59.8229 33.6527 60.5003 32.7496 60.5003H13.0016C12.0985 60.5003 11.3496 59.823 11.2602 58.9245L9.7508 43.8755V16.7505C9.7508 15.7853 10.5356 15.0005 11.5008 15.0005H13.2508V20.2505H11.5008V22.0005H34.2508V20.2505H32.5008V15.0005H34.2508C35.216 15.0005 36.0008 15.7853 36.0008 16.7505L36.0051 43.7885L34.491 58.9245ZM47.539 29.0005C45.5187 29.0005 43.8753 30.6439 43.8753 32.6642V40.2681L42.7534 44.7505H37.6628L37.7503 43.8755V19.3755H49.1253C49.6081 19.3755 50.0003 19.7677 50.0003 20.2505V29.9657C49.3448 29.368 48.4823 29.0005 47.539 29.0005V29.0005ZM52.5984 36.1974L52.1625 40.1181L51.7503 36.8247V34.7841L52.5984 36.1974Z" fill="#C47A2C"/>
<path d="M41.25 28.125C41.8668 28.125 42.4699 27.9586 43 27.6473C43.5301 27.9586 44.1332 28.125 44.75 28.125C46.6801 28.125 48.25 26.5551 48.25 24.625C48.25 22.6949 46.6801 21.125 44.75 21.125C44.1332 21.125 43.5301 21.2914 43 21.6027C42.4699 21.2914 41.8668 21.125 41.25 21.125C39.3199 21.125 37.75 22.6949 37.75 24.625C37.75 26.5551 39.3199 28.125 41.25 28.125ZM41.25 22.875C41.6742 22.875 42.0875 23.0379 42.4145 23.3309L43 23.8586L43.5856 23.3309C43.9125 23.0379 44.3258 22.875 44.7501 22.875C45.7153 22.875 46.5001 23.6598 46.5001 24.625C46.5001 25.5902 45.7153 26.375 44.7501 26.375C44.3259 26.375 43.9126 26.2121 43.5856 25.9191L43 25.3914L42.4145 25.9191C42.0875 26.2121 41.6743 26.375 41.25 26.375C40.2848 26.375 39.5 25.5902 39.5 24.625C39.5 23.6598 40.2848 22.875 41.25 22.875Z" fill="#C47A2C"/>
<path d="M39.5 29.875H41.25V39.5H39.5V29.875Z" fill="#C47A2C"/>
<path d="M39.5 41.25H41.25V43H39.5V41.25Z" fill="#C47A2C"/>
</svg>
