<svg width="70" height="70" viewBox="0 0 70 70" fill="none" xmlns="http://www.w3.org/2000/svg">
<path fill-rule="evenodd" clip-rule="evenodd" d="M45.7988 8.24375L51.5605 14.0054C51.7168 14.1617 51.805 14.3735 51.8054 14.5946V38H50.138V15.4283H45.2099C44.7498 15.4283 44.3763 15.0549 44.3763 14.5947V9.66664H16.2433V13.5764H39.6343C39.8554 13.5764 40.0671 13.6639 40.2234 13.8202L45.9851 19.5819C46.1413 19.7381 46.2288 19.9499 46.2288 20.171V38H44.5615L44.5613 21.003H39.6332C39.1731 21.003 38.7996 20.6296 38.7996 20.1695V15.241H10.6666V59.666H36V61.3344H9.83359C9.37344 61.3344 9 60.9609 9 60.5008V14.4098C9 13.9496 9.37343 13.5762 9.83359 13.5762H14.5762V8.83359C14.5762 8.37344 14.9496 8 15.4098 8H45.2098C45.4309 8 45.6426 8.0875 45.7988 8.24375ZM36 40.2438V41.9109H17.0909C16.6307 41.9109 16.2573 41.5375 16.2573 41.0774C16.2573 40.6172 16.6307 40.2438 17.0909 40.2438H36ZM48.9593 13.7618L46.0425 10.8449V13.7618H48.9593ZM43.3839 19.3368L40.4671 16.42V19.3368H43.3839ZM38.1378 29.5055C38.598 29.5055 38.9714 29.1321 38.9714 28.6719C38.9714 28.2122 38.5986 27.8388 38.1388 27.838H17.0909C16.6307 27.838 16.2573 28.2114 16.2573 28.6716C16.2573 29.1317 16.6307 29.5051 17.0909 29.5051L38.1378 29.5055ZM38.1378 35.7086C38.598 35.7086 38.9714 35.3352 38.9714 34.8751C38.9714 34.4145 38.5986 34.0415 38.1388 34.0415H17.0909C16.6307 34.0415 16.2573 34.4149 16.2573 34.8751C16.2573 35.3352 16.6307 35.7086 17.0909 35.7086H38.1378ZM17.091 21.6358C16.6309 21.6358 16.2574 22.0092 16.2574 22.4693C16.2574 22.9295 16.6309 23.3029 17.091 23.3029H32.2C32.6602 23.3029 33.0336 22.9295 33.0336 22.4693C33.0336 22.0092 32.6602 21.6358 32.2 21.6358H17.091Z" fill="#C47A2C"/>
<g clip-path="url(#clip0_1160_3268)">
<path d="M59.9703 55.2634L59.9936 55.1735L60.0846 55.1543L62.7171 54.6009V51.409L60.0846 50.8556L59.9936 50.8364L59.9703 50.7465L59.8812 50.4035L59.8812 50.4034C59.6522 49.5186 59.2978 48.6623 58.8281 47.8591L58.8281 47.859L58.6499 47.554L58.6032 47.474L58.6539 47.3964L60.1233 45.1444L57.8681 42.8869L55.6131 44.3594L55.5353 44.4102L55.4552 44.3632L55.1497 44.1839L55.1496 44.1838C54.3593 43.719 53.5029 43.3637 52.6043 43.1277L52.6042 43.1277L52.2628 43.0379L52.1733 43.0143L52.1542 42.9237L51.6007 40.2924H48.4099L47.8587 42.9247L47.8397 43.0158L47.7496 43.0392L47.4062 43.1282C47.4062 43.1282 47.4062 43.1282 47.4062 43.1282C46.5198 43.3583 45.6631 43.7135 44.8596 44.1844L44.5545 44.3633L44.4744 44.4103L44.3966 44.3594L42.1447 42.8874L39.8896 45.1444L41.3598 47.3972L41.4106 47.475L41.3635 47.5552L41.1842 47.8602L41.1842 47.8603C40.7181 48.653 40.3629 49.5089 40.1281 50.4051L40.0386 50.7468L40.0151 50.8365L39.9244 50.8556L37.2931 51.4091V54.6004L39.9244 55.1539L40.0151 55.173L40.0386 55.2627L40.1281 55.6045C40.1281 55.6045 40.1281 55.6045 40.1281 55.6045C40.3629 56.5007 40.7182 57.3569 41.1842 58.1492L41.1842 58.1493L41.3635 58.4544L41.4106 58.5345L41.3598 58.6123L39.8896 60.8651L42.1447 63.1221L44.3966 61.6505L44.4744 61.5997L44.5545 61.6467L44.8596 61.8256C44.8596 61.8256 44.8596 61.8256 44.8596 61.8256C45.6632 62.2964 46.5198 62.6516 47.4061 62.8809L47.4062 62.8809L47.7496 62.9699L47.8396 62.9933L47.8587 63.0844L48.4103 65.7171H51.6007L52.1542 63.0859L52.1733 62.9952L52.2628 62.9717L52.6042 62.8818L52.6043 62.8818C53.5037 62.6454 54.36 62.2901 55.1496 61.8261L55.1497 61.826L55.4551 61.6467L55.5353 61.5997L55.6131 61.6505L57.8681 63.1226L60.1229 60.8656L58.654 58.6171L58.6033 58.5396L58.65 58.4595L58.8277 58.1549L59.9703 55.2634ZM59.9703 55.2634L59.8812 55.6064L59.8812 55.6065M59.9703 55.2634L59.8812 55.6065M59.8812 55.6065C59.6523 56.4901 59.2979 57.3473 58.8277 58.1548L59.8812 55.6065ZM61.9045 45.055L61.971 44.9531L61.885 44.867L58.1463 41.1248L58.0602 41.0386L57.9582 41.1052L55.4864 42.7189C54.8249 42.3647 54.1271 42.0756 53.4033 41.855L52.7963 38.9691L52.7712 38.85H52.6495H47.3597H47.2378L47.2129 38.9692L46.6085 41.8541C45.8901 42.0715 45.1917 42.3614 44.5236 42.719L42.0543 41.1049L41.9522 41.0382L41.8661 41.1245L38.1274 44.8671L38.0414 44.9532L38.1079 45.0551L39.7189 47.5233C39.364 48.1862 39.0745 48.8839 38.8549 49.6068L35.9691 50.2138L35.85 50.2389V50.3606V55.6501V55.7718L35.9691 55.7969L38.8549 56.4039C39.0746 57.1264 39.364 57.8245 39.7189 58.4873L38.1079 60.9556L38.0414 61.0575L38.1274 61.1436L41.8661 64.8858L41.9522 64.972L42.0543 64.9053L44.5236 63.2917C45.192 63.6492 45.8905 63.9391 46.6085 64.1562L47.2129 67.0414L47.2378 67.1607H47.3597H52.6499H52.7716L52.7967 67.0415L53.4037 64.1553C54.1279 63.935 54.8256 63.6456 55.4868 63.2918L57.9586 64.9055L58.0606 64.972L58.1467 64.8859L61.8854 61.1441L61.9714 61.0579L61.9048 60.956L60.2931 58.4892C60.6502 57.8195 60.9391 57.1214 61.1558 56.4048L64.0407 55.7977L64.1598 55.7727V55.651V50.3615V50.2397L64.0407 50.2147L61.1558 49.6077C60.9391 48.8896 60.6499 48.1921 60.2934 47.5238L61.9045 45.055Z" fill="#C47A2C" stroke="#C47A2C" stroke-width="0.3"/>
<path d="M50.0056 45.7777V45.7777C48.9441 45.7777 47.9205 46.0027 46.9647 46.4468L46.8286 46.51L46.8918 46.646L47.3735 47.6823L47.4367 47.8183L47.5726 47.7552C48.3363 47.4008 49.1545 47.2207 50.0056 47.2207C53.1951 47.2207 55.79 49.8156 55.79 53.0051C55.79 56.1945 53.1951 58.7895 50.0056 58.7895C46.8161 58.7895 44.2208 56.1945 44.2208 53.0051C44.2208 51.7421 44.6201 50.5429 45.3762 49.5362L45.4663 49.4162L45.3464 49.3261L44.4323 48.6398L44.3123 48.5497L44.2223 48.6697C43.2773 49.9285 42.7777 51.4281 42.7777 53.0054C42.7777 56.9906 46.0199 60.2327 50.0054 60.2327C53.9906 60.2327 57.2327 56.9906 57.2327 53.0054C57.2327 49.0199 53.9906 45.7778 50.0056 45.7777Z" fill="#C47A2C" stroke="#C47A2C" stroke-width="0.3"/>
<path d="M53.1386 53.0058C53.1386 51.366 51.8043 50.0316 50.164 50.0316C48.5242 50.0316 47.1898 51.366 47.1898 53.0058C47.1898 54.6457 48.5242 55.98 50.164 55.98C51.8047 55.98 53.1386 54.6461 53.1386 53.0058ZM48.6327 53.0058C48.6327 52.1614 49.3199 51.4746 50.1639 51.4746C51.0085 51.4746 51.6955 52.1618 51.6955 53.0058C51.6955 53.8503 51.0084 54.537 50.1639 54.537C49.3198 54.537 48.6327 53.8503 48.6327 53.0058Z" fill="#C47A2C" stroke="#C47A2C" stroke-width="0.3"/>
</g>
<defs>
<clipPath id="clip0_1160_3268">
<rect width="28.0098" height="28.0107" fill="white" transform="translate(36 39)"/>
</clipPath>
</defs>
</svg>
