<svg width="100" height="100" viewBox="0 0 100 100" fill="none" xmlns="http://www.w3.org/2000/svg">
<path d="M2.52027 59.4061H24.8425C24.0324 58.056 23.3123 56.5258 22.6823 55.0857H2.52027C2.25024 55.0857 2.07022 54.9056 2.07022 54.6356C2.07022 54.3656 2.25024 54.1856 2.52027 54.1856H22.3222C21.6022 52.0254 21.0621 49.7751 20.8821 47.5249H1.08012C1.08012 48.335 0.990112 49.2351 0.990112 50.1352C0.990112 53.5555 1.35015 56.8858 1.98021 60.0362C1.98021 59.5861 2.25024 59.4061 2.52027 59.4061Z" fill="white"/>
<path d="M49.415 73.2675C45.4546 73.2675 41.5842 72.4574 38.0738 70.9272H5.67059C6.39067 72.3674 7.11074 73.8975 8.01083 75.2477H44.1945C44.4645 75.2477 44.6445 75.4277 44.6445 75.6977C44.6445 75.9677 44.4645 76.1478 44.1945 76.1478H8.64089C9.63099 77.6779 10.6211 79.1181 11.7012 80.4682H44.1044C44.3745 80.4682 44.5545 80.6482 44.5545 80.9182C44.5545 81.1883 44.3745 81.3683 44.1044 81.3683H12.6013C13.8614 82.8984 15.3016 84.3386 16.7417 85.6887H44.2845C44.5545 85.6887 44.7345 85.8687 44.7345 86.1388C44.7345 86.4088 44.5545 86.5888 44.2845 86.5888H17.8218C19.622 88.209 21.5122 89.6491 23.5824 90.9092H44.1945C44.4645 90.9092 44.6445 91.0893 44.6445 91.3593C44.6445 91.6293 44.4645 91.8093 44.1945 91.8093H25.1125C32.4033 96.1298 40.8641 98.56 49.955 98.56C50.135 98.56 50.3151 98.56 50.4951 98.56V73.2675C50.135 73.2675 49.775 73.2675 49.415 73.2675Z" fill="white"/>
<path d="M25.3825 60.3962H2.52024C2.34022 60.3962 2.1602 60.3062 2.07019 60.0361C2.43023 61.6563 2.79026 63.1865 3.24031 64.7166H28.8929C27.6327 63.3665 26.4626 61.9263 25.3825 60.3962Z" fill="white"/>
<path d="M29.973 65.7065H3.60034C4.1404 67.1467 4.68045 68.5868 5.31051 70.027H36.0936C33.8434 68.8569 31.7732 67.4167 29.973 65.7065Z" fill="white"/>
<path d="M2.52024 54.0952C2.25021 54.0952 2.07019 54.2752 2.07019 54.5453C2.07019 54.8153 2.25021 55.0853 2.52024 55.0853H22.6822C22.5922 54.7253 22.4122 54.4553 22.3222 54.0952H2.52024Z" fill="#C17E13"/>
<path d="M2.52024 60.3959H25.4725C25.2925 60.0358 25.0225 59.7658 24.8425 59.4058H2.52024C2.25021 59.4058 2.07019 59.5858 2.07019 59.9458V60.0358C2.07019 60.2158 2.25021 60.3959 2.52024 60.3959Z" fill="#C17E13"/>
<path d="M29.0729 64.8963C28.9829 64.8063 28.9829 64.8063 28.8929 64.7163H3.2403C3.3303 64.9863 3.42031 65.3464 3.60033 65.7064H29.973C29.7029 65.4364 29.3429 65.1664 29.0729 64.8963Z" fill="#C17E13"/>
<path d="M36.0936 70.0269H5.22052C5.40054 70.3869 5.49055 70.6569 5.67057 71.017H38.0738C37.4437 70.6569 36.7237 70.3869 36.0936 70.0269Z" fill="#C17E13"/>
<path d="M44.6445 75.7875C44.6445 75.5174 44.4644 75.3374 44.1944 75.3374H8.0108C8.19082 75.6974 8.46085 75.9675 8.64087 76.3275H44.1944C44.4644 76.3275 44.6445 76.0575 44.6445 75.7875Z" fill="#C17E13"/>
<path d="M44.6445 81.098C44.6445 80.828 44.4645 80.6479 44.1944 80.6479H11.7912C12.0612 81.008 12.3313 81.278 12.6013 81.638H44.1944C44.4645 81.638 44.6445 81.368 44.6445 81.098Z" fill="#C17E13"/>
<path d="M44.6445 86.4085C44.6445 86.1385 44.4644 85.9585 44.1944 85.9585H16.6517C17.0117 86.3185 17.3717 86.5886 17.7318 86.9486H44.1044C44.4644 86.9486 44.6445 86.6786 44.6445 86.4085Z" fill="#C17E13"/>
<path d="M44.6445 91.7191C44.6445 91.4491 44.4645 91.269 44.1944 91.269H23.4924C24.0324 91.6291 24.5725 91.8991 25.1125 92.2591H44.1944C44.4645 92.2591 44.6445 91.9891 44.6445 91.7191Z" fill="#C17E13"/>
<path d="M65.4365 60.4862C61.2061 64.8066 55.5355 67.1469 49.4149 67.1469C43.3843 67.1469 37.7137 64.8066 33.3933 60.4862C33.2133 60.3062 33.0333 60.1262 32.9433 59.9462L32.8533 59.8562C32.7633 59.6761 32.5832 59.5861 32.4932 59.4061L32.4032 59.3161C30.063 56.6158 28.4428 53.5555 27.6327 50.2252C27.6327 50.1352 27.6327 50.0452 27.5427 49.9552C27.5427 49.8652 27.4527 49.6851 27.4527 49.5951C26.5526 45.9048 26.6426 41.9444 27.7227 38.164V38.074C28.7128 34.4736 30.693 31.1433 33.4833 28.353C37.7137 24.1226 43.4743 21.6923 49.5049 21.6923C55.5355 21.6923 61.2061 24.0326 65.5265 28.353C74.2574 37.3539 74.2574 51.6653 65.4365 60.4862ZM71.5571 60.3962C75.3375 55.1757 77.0477 48.8751 76.5976 42.3944C76.1476 35.9138 73.2673 29.7932 68.6768 25.2027C63.5463 20.0722 56.7056 17.1919 49.4149 17.1919C42.1242 17.1919 35.2835 19.9822 30.153 25.2027C19.5319 35.8238 19.5319 53.1055 30.153 63.6365C35.2835 68.767 42.1242 71.6473 49.4149 71.6473C55.1755 71.6473 60.666 69.8472 65.3465 66.5168C65.5265 66.4268 65.6165 66.3368 65.7966 66.3368C65.9766 66.3368 66.2466 66.4268 66.3366 66.6068L71.6471 71.9174L76.8677 66.6968L71.5571 61.3863C71.2871 61.2063 71.2871 60.7562 71.5571 60.3962Z" fill="white"/>
<path d="M79.6579 67.3267C78.9379 67.3267 78.2178 67.5967 77.6778 68.1367L73.0873 72.7272C72.5472 73.2673 72.2772 73.9873 72.2772 74.7074C72.2772 75.4275 72.5472 76.1475 73.0873 76.6876L82.8083 86.4086C85.7786 83.7083 88.4788 80.648 90.729 77.3177L81.6381 68.1367C81.0981 67.5967 80.378 67.3267 79.6579 67.3267Z" fill="#DAAF71"/>
<path d="M29.0729 39.334C28.5328 41.5842 28.3528 43.8344 28.4428 46.0847H49.3249C49.7749 46.0847 50.135 46.4447 50.135 46.8947C50.135 47.3448 49.7749 47.7048 49.3249 47.7048H28.6228C28.9829 49.865 29.6129 52.0253 30.603 54.0055H49.2349C49.6849 54.0055 50.045 54.3655 50.045 54.8155C50.045 55.2656 49.6849 55.6256 49.2349 55.6256H31.5031C32.3132 56.9757 33.3933 58.3259 34.5634 59.496C35.4635 60.3961 36.5436 61.2962 37.6237 62.0163H49.4149C49.865 62.0163 50.225 62.3763 50.225 62.8263C50.225 63.2764 49.865 63.6364 49.4149 63.6364H40.414C43.2043 64.9865 46.3546 65.7066 49.5049 65.7066C51.9352 65.7066 54.2754 65.2566 56.6156 64.4465V39.334H29.0729Z" fill="#DAAF71"/>
<path d="M49.3249 47.6148C49.775 47.6148 50.135 47.2548 50.135 46.8047C50.135 46.3547 49.775 45.9946 49.3249 45.9946H28.4429H28.3528C28.3528 46.5347 28.4429 47.0747 28.5329 47.6148H28.6229H49.3249Z" fill="white"/>
<path d="M50.135 54.8155C50.135 54.3654 49.775 54.0054 49.325 54.0054H30.6931H30.6031C30.8731 54.5454 31.1431 55.0855 31.5032 55.6255H49.325C49.775 55.5355 50.135 55.1755 50.135 54.8155Z" fill="white"/>
<path d="M50.135 62.646C50.135 62.196 49.775 61.8359 49.3249 61.8359H37.6238H37.5338C38.4338 62.466 39.3339 63.0061 40.234 63.4561H40.324H49.3249C49.775 63.4561 50.135 63.0961 50.135 62.646Z" fill="white"/>
<path d="M50.4951 73.2673V99.0098C51.0351 99.0098 51.5752 99.0098 52.1152 99.0098V73.1772C51.5752 73.1772 51.0351 73.2673 50.4951 73.2673Z" fill="#1D1D1B"/>
<path d="M20.702 45.8145H1.17009C1.17009 46.3545 1.08008 46.8946 1.08008 47.4346H20.8821C20.792 46.8946 20.702 46.3545 20.702 45.8145Z" fill="#1D1D1B"/>
<path d="M71.6472 71.9171L66.3366 66.6065C66.1566 66.4265 65.9766 66.3365 65.7966 66.3365C65.6166 66.3365 65.4365 66.4265 65.3465 66.5165C60.6661 69.8469 55.1755 71.6471 49.4149 71.6471C42.1242 71.6471 35.2835 68.8568 30.153 63.6362C19.532 53.0152 19.532 35.7335 30.153 25.2024C35.2835 20.0719 42.1242 17.1916 49.4149 17.1916C56.7057 17.1916 63.5464 19.9819 68.6769 25.2024C73.2673 29.7929 76.0576 35.9135 76.5977 42.3941C77.0477 48.7848 75.2475 55.1754 71.5572 60.3959C71.2871 60.756 71.3771 61.116 71.6472 61.386L76.9577 66.6966L71.6472 71.9171ZM20.7921 47.4346C21.0621 49.6849 21.5122 51.9351 22.2322 54.0953C22.3222 54.4553 22.5023 54.7254 22.5923 55.0854C23.1323 56.6156 23.8524 58.0557 24.7525 59.4058C24.9325 59.7659 25.2025 60.0359 25.3825 60.3959C26.3726 61.9261 27.5428 63.3662 28.8929 64.7164C28.9829 64.8064 28.9829 64.8064 29.0729 64.8964C29.3429 65.1664 29.613 65.4364 29.883 65.7065C31.7732 67.4166 33.7534 68.8568 36.0036 70.0269C36.7237 70.3869 37.3537 70.747 38.0738 71.017C41.5842 72.5471 45.4545 73.3572 49.4149 73.3572C49.775 73.3572 50.135 73.3572 50.495 73.3572C51.0351 73.3572 51.5752 73.2672 52.1152 73.2672C57.0657 72.8172 61.6562 71.197 65.7966 68.3167L70.9271 73.4472C71.1071 72.7272 71.4671 72.1871 72.0072 71.6471L76.5977 67.0566C77.1377 66.5165 77.7678 66.1565 78.3978 65.9765L73.2673 60.846C76.9577 55.4454 78.7579 48.9648 78.2178 42.3941C77.6778 35.5534 74.7075 29.0728 69.847 24.2123C64.4464 18.8118 57.1557 15.7515 49.505 15.7515C41.8542 15.7515 34.5635 18.7218 29.1629 24.2123C23.2223 30.1529 20.432 38.0737 20.7921 45.9045C20.7021 46.3545 20.7921 46.8946 20.7921 47.4346Z" fill="#1D1D1B"/>
<path d="M65.4365 28.5327C61.2061 24.3023 55.4455 21.8721 49.4149 21.8721C43.3843 21.8721 37.7138 24.2123 33.3933 28.5327C30.603 31.323 28.7129 34.6533 27.6328 38.2537C27.7228 37.9837 28.0828 37.8037 28.3528 37.8037H29.4329C30.423 34.8334 32.1332 32.0431 34.4734 29.7029C38.4338 25.7425 43.7444 23.5822 49.3249 23.5822C54.9055 23.5822 60.216 25.7425 64.1764 29.7029C72.3672 37.8937 72.3672 51.305 64.1764 59.4958C62.3762 61.296 60.216 62.7361 57.9658 63.8163V64.9864C57.9658 65.3464 57.7858 65.6164 57.4257 65.7064C54.8155 66.6965 52.1152 67.2366 49.2349 67.2366C43.2043 67.2366 37.5337 64.8964 33.2133 60.5759C37.4437 64.8064 43.2043 67.2366 49.2349 67.2366C55.2655 67.2366 60.9361 64.8964 65.2565 60.5759C74.2574 51.665 74.2574 37.3536 65.4365 28.5327Z" fill="#1D1D1B"/>
<path d="M27.5427 50.3149C28.4428 53.5553 29.973 56.7056 32.3132 59.4058C30.063 56.7056 28.4428 53.5553 27.5427 50.3149Z" fill="#1D1D1B"/>
<path d="M27.5428 50.0451C27.5428 49.9551 27.4528 49.7751 27.4528 49.6851C27.4528 49.8651 27.4528 49.9551 27.5428 50.0451Z" fill="#1D1D1B"/>
<path d="M32.8533 59.8558C32.7633 59.6758 32.5832 59.5858 32.4932 59.4058C32.5832 59.5858 32.6732 59.7658 32.8533 59.8558Z" fill="#594A42"/>
<path d="M32.9433 60.0361C33.1233 60.2162 33.3033 60.3962 33.3933 60.5762C33.3033 60.3062 33.1233 60.2162 32.9433 60.0361Z" fill="#594A42"/>
<path d="M79.658 65.7964C79.2079 65.7964 78.7579 65.8864 78.3978 65.9764C77.7678 66.1564 77.1377 66.5165 76.5977 67.0565L72.0072 71.647C71.4671 72.187 71.1071 72.8171 70.9271 73.4472C70.8371 73.8972 70.7471 74.2572 70.7471 74.7073C70.7471 75.8774 71.1971 76.9575 72.0072 77.7676L81.6382 87.3986C81.9982 87.0385 82.4482 86.6785 82.8083 86.3184L73.0873 76.6875C72.5472 76.1474 72.2772 75.4274 72.2772 74.7073C72.2772 73.9872 72.5472 73.2671 73.0873 72.7271L77.6778 68.1366C78.2178 67.5966 78.9379 67.3265 79.658 67.3265C80.378 67.3265 81.0981 67.5966 81.6382 68.1366L90.7291 77.2275C90.9991 76.7775 91.3591 76.3274 91.6292 75.8774L82.8083 67.0565C81.9082 66.2464 80.8281 65.7964 79.658 65.7964Z" fill="#1D1D1B"/>
<path d="M56.5257 64.3565C54.2754 65.1666 51.8452 65.6167 49.4149 65.6167C46.1746 65.6167 43.1143 64.8966 40.324 63.5464H40.234C39.3339 63.0964 38.4338 62.5564 37.5338 61.9263H37.6238C36.5437 61.2062 35.4635 60.3061 34.5635 59.406C33.3933 58.2359 32.4032 56.9758 31.5031 55.5356C31.1431 54.9956 30.8731 54.4555 30.6031 53.9155H30.6931C29.703 51.9353 28.9829 49.7751 28.7129 47.6149H28.6229C28.5328 47.0748 28.4428 46.5347 28.4428 45.9947H28.5329C28.3528 43.7445 28.5329 41.4942 29.1629 39.244H56.6157V64.3565H56.5257ZM49.4149 67.1468C52.2052 67.1468 54.9955 66.6068 57.6058 65.6167C57.8758 65.5266 58.1458 65.1666 58.1458 64.8966V63.7265V38.5239C58.1458 38.0739 57.7858 37.7139 57.3357 37.7139H29.5229H28.4428C28.0828 37.7139 27.8128 37.8939 27.7228 38.1639V38.2539C26.6427 42.0343 26.6427 45.9947 27.4527 49.6851C27.4527 49.7751 27.5428 49.9551 27.5428 50.0451C27.5428 50.1351 27.5428 50.2251 27.6328 50.3151C28.5329 53.6455 30.153 56.7058 32.4032 59.406L32.4932 59.496C32.5833 59.6761 32.7633 59.7661 32.8533 59.9461L32.9433 60.0361C33.1233 60.2161 33.3033 60.3961 33.3933 60.5762C37.7138 64.8066 43.3843 67.1468 49.4149 67.1468Z" fill="#1D1D1B"/>
<path d="M62.8263 3.6903C62.7363 3.6903 62.6463 3.6903 62.5563 3.6903C60.9361 3.24026 59.2259 2.88022 57.6058 2.61019C57.0657 2.52018 56.7057 1.98013 56.7957 1.44008C56.8857 0.900022 57.4258 0.539986 57.9658 0.629995C59.676 0.900022 61.4762 1.26006 63.1863 1.7101C63.7264 1.89012 63.9964 2.43018 63.9064 2.88022C63.7264 3.42027 63.2764 3.6903 62.8263 3.6903Z" fill="#1D1D1B"/>
<path d="M49.955 100C36.6337 100 24.0324 94.7795 14.5815 85.3285C5.22052 75.8776 0 63.3663 0 49.955C0 36.6337 5.22052 24.0324 14.6715 14.5815C24.1224 5.13051 36.6337 0 49.955 0C50.4951 0 50.9451 0.450045 50.9451 0.990099C50.9451 1.53015 50.4951 1.9802 49.955 1.9802C37.1737 1.9802 25.1125 6.93069 16.0216 16.0216C6.93069 25.1125 1.9802 37.1737 1.9802 49.955C1.9802 62.7363 6.93069 74.7975 16.0216 83.8884C25.1125 92.9793 37.1737 97.9298 49.955 97.9298C62.7363 97.9298 74.7975 92.9793 83.8884 83.8884C92.9793 74.7975 97.9298 62.7363 97.9298 49.955C97.9298 40.9541 95.4095 32.2232 90.7291 24.5725C86.1386 17.1917 79.568 11.1611 71.8272 7.20072C71.3771 6.93069 71.1071 6.39064 71.3771 5.85059C71.6472 5.40054 72.1872 5.13051 72.7273 5.40054C80.7381 9.54095 87.5788 15.7516 92.3492 23.4923C97.2997 31.4131 99.91 40.5041 99.91 49.865C99.91 63.1863 94.6895 75.7876 85.2385 85.2385C75.8776 94.7795 63.3663 100 49.955 100Z" fill="#1D1D1B"/>
<path d="M68.9469 4.23034C68.9469 4.95041 68.4068 5.49047 67.6868 5.49047C66.9667 5.49047 66.4266 4.95041 66.4266 4.23034C66.4266 3.51027 66.9667 2.97021 67.6868 2.97021C68.4068 2.97021 68.9469 3.51027 68.9469 4.23034Z" fill="#1D1D1B"/>
</svg>
