<svg width="40" height="40" viewBox="0 0 40 40" fill="none" xmlns="http://www.w3.org/2000/svg">
<path fill-rule="evenodd" clip-rule="evenodd" d="M0 20C0 8.9543 8.9543 0 20 0C31.0457 0 40 8.9543 40 20C40 31.0457 31.0457 40 20 40C8.9543 40 0 31.0457 0 20ZM20.001 9.33333C17.104 9.33333 16.7405 9.346 15.6027 9.39778C14.4672 9.44978 13.692 9.62955 13.0138 9.89333C12.3122 10.1658 11.7171 10.5302 11.1242 11.1233C10.5309 11.7162 10.1665 12.3114 9.89312 13.0127C9.62867 13.6911 9.44867 14.4665 9.39755 15.6016C9.34667 16.7393 9.33333 17.1032 9.33333 20.0002C9.33333 22.897 9.34622 23.2595 9.39778 24.3973C9.45 25.5328 9.62978 26.308 9.89333 26.9862C10.166 27.6877 10.5304 28.2828 11.1236 28.8758C11.7162 29.4692 12.3114 29.8345 13.0125 30.1068C13.6911 30.3707 14.4665 30.5505 15.6018 30.6025C16.7397 30.6542 17.103 30.6668 19.9997 30.6668C22.8968 30.6668 23.2593 30.6542 24.397 30.6025C25.5327 30.5505 26.3087 30.3707 26.9873 30.1068C27.6887 29.8345 28.2828 29.4692 28.8755 28.8758C29.4688 28.2828 29.8333 27.6877 30.1067 26.9863C30.3688 26.308 30.5488 25.5327 30.6022 24.3975C30.6533 23.2597 30.6667 22.897 30.6667 20.0002C30.6667 17.1032 30.6533 16.7397 30.6022 15.6018C30.5488 14.4663 30.3688 13.6911 30.1067 13.0129C29.8333 12.3114 29.4688 11.7162 28.8755 11.1233C28.2822 10.53 27.6888 10.1656 26.9867 9.89333C26.3067 9.62955 25.531 9.44978 24.3955 9.39778C23.2577 9.346 22.8955 9.33333 19.9977 9.33333H20.001Z" fill="#DAAF71"/>
<path fill-rule="evenodd" clip-rule="evenodd" d="M19.044 11.2546C19.328 11.2542 19.6449 11.2546 20.0009 11.2546C22.8489 11.2546 23.1865 11.2648 24.3112 11.316C25.3512 11.3635 25.9155 11.5373 26.2915 11.6833C26.7894 11.8766 27.1442 12.1077 27.5174 12.4811C27.8907 12.8544 28.1219 13.21 28.3157 13.7078C28.4617 14.0833 28.6357 14.6478 28.683 15.6878C28.734 16.8122 28.7452 17.15 28.7452 19.9967C28.7452 22.8434 28.734 23.1812 28.683 24.3057C28.6354 25.3457 28.4617 25.91 28.3157 26.2857C28.1224 26.7834 27.8907 27.1379 27.5174 27.511C27.144 27.8844 26.7895 28.1155 26.2915 28.3089C25.916 28.4555 25.3512 28.6289 24.3112 28.6764C23.1867 28.7275 22.8489 28.7385 20.0009 28.7385C17.1525 28.7385 16.815 28.7275 15.6906 28.6764C14.6506 28.6284 14.0861 28.4545 13.7099 28.3085C13.2121 28.1152 12.8566 27.884 12.4832 27.5107C12.1099 27.1374 11.8788 26.7827 11.685 26.2847C11.539 25.9092 11.365 25.3447 11.3177 24.3047C11.2666 23.1804 11.2563 22.8425 11.2563 19.994C11.2563 17.1455 11.2666 16.8095 11.3177 15.6851C11.3652 14.6451 11.539 14.0806 11.685 13.7046C11.8783 13.2069 12.1099 12.8513 12.4832 12.478C12.8566 12.1046 13.2121 11.8735 13.7099 11.6797C14.0859 11.5331 14.6506 11.3597 15.6906 11.312C16.6745 11.2675 17.0559 11.2542 19.044 11.252V11.2546ZM25.6947 13.0257C24.988 13.0257 24.4147 13.5984 24.4147 14.3053C24.4147 15.012 24.988 15.5853 25.6947 15.5853C26.4014 15.5853 26.9747 15.012 26.9747 14.3053C26.9747 13.5986 26.4014 13.0257 25.6947 13.0257ZM20.0009 14.5213C16.9757 14.5213 14.523 16.974 14.523 19.9992C14.523 23.0244 16.9757 25.4759 20.0009 25.4759C23.026 25.4759 25.4779 23.0244 25.4779 19.9992C25.4779 16.974 23.026 14.5213 20.0009 14.5213Z" fill="#DAAF71"/>
<path fill-rule="evenodd" clip-rule="evenodd" d="M20.0009 16.4453C21.9644 16.4453 23.5566 18.0371 23.5566 20.001C23.5566 21.9645 21.9644 23.5565 20.0009 23.5565C18.0371 23.5565 16.4453 21.9645 16.4453 20.001C16.4453 18.0371 18.0371 16.4453 20.0009 16.4453Z" fill="#DAAF71"/>
</svg>
