<svg width="100" height="100" viewBox="0 0 100 100" fill="none" xmlns="http://www.w3.org/2000/svg">
<path d="M88.8179 38.019H73.4824C72.524 38.019 71.246 39.1373 71.0863 40.4152C71.0863 40.4152 71.0863 40.4152 71.0863 40.575L69.968 43.6101C69.8083 43.9296 69.4888 44.0893 69.1693 44.0893H15.3355C13.8978 44.0893 12.7795 45.2075 12.7795 46.6452V52.5558H14.2172V49.9999C14.2172 49.5206 14.5367 49.2012 15.016 49.2012H17.8914V46.6452C17.8914 46.166 18.2109 45.8465 18.6901 45.8465H86.5815C87.0607 45.8465 87.3802 46.166 87.3802 46.6452V52.396H88.1789C89.1374 52.396 90.0958 52.7155 90.7348 53.3545V39.7762C90.5751 38.8178 89.9361 38.019 88.8179 38.019Z" fill="#DAAF71"/>
<path d="M19.4888 47.4443V49.2015H82.9073C83.3865 49.2015 83.706 49.521 83.706 50.0002V52.5562H85.7827V47.4443H19.4888Z" fill="white"/>
<path d="M82.1086 50.7988H15.8147V52.556H82.1086V50.7988Z" fill="white"/>
<path d="M78.115 70.7668H51.5974V61.6614H78.115V70.7668ZM88.1789 53.9937H11.5016C10.0639 53.9937 8.94568 55.1119 8.94568 56.5496V76.8371C17.7316 90.0959 32.7476 99.0416 50 99.0416C66.9329 99.0416 81.9489 90.4154 90.7348 77.3163V56.5496C90.5751 55.1119 89.4569 53.9937 88.1789 53.9937Z" fill="#DAAF71"/>
<path d="M55.2715 67.5717H74.4408C74.7603 67.5717 74.9201 67.7314 74.9201 68.0509C74.9201 68.3704 74.7603 68.5301 74.4408 68.5301H55.2715C54.952 68.5301 54.7923 68.3704 54.7923 68.0509C54.7923 67.7314 55.1118 67.5717 55.2715 67.5717ZM55.2715 64.3768H74.4408C74.7603 64.3768 74.9201 64.5365 74.9201 64.856C74.9201 65.1755 74.7603 65.3353 74.4408 65.3353H55.2715C54.952 65.3353 54.7923 65.1755 54.7923 64.856C54.7923 64.6963 55.1118 64.3768 55.2715 64.3768ZM51.5974 70.7666H78.115V61.6611H51.5974V70.7666Z" fill="white"/>
<path d="M55.2716 65.3354H74.4409C74.7604 65.3354 74.9202 65.1757 74.9202 64.8562C74.9202 64.5367 74.7604 64.377 74.4409 64.377H55.2716C54.9521 64.377 54.7924 64.5367 54.7924 64.8562C54.7924 65.1757 55.1118 65.3354 55.2716 65.3354Z" fill="#C17E13"/>
<path d="M55.2716 68.5302H74.4409C74.7604 68.5302 74.9202 68.3705 74.9202 68.051C74.9202 67.7315 74.7604 67.5718 74.4409 67.5718H55.2716C54.9521 67.5718 54.7924 67.7315 54.7924 68.051C54.7924 68.3705 55.1118 68.5302 55.2716 68.5302Z" fill="#C17E13"/>
<path d="M12.7796 52.3963V46.4858C12.7796 45.0481 13.8978 43.9299 15.3355 43.9299H69.1693C69.4888 43.9299 69.8083 43.7701 69.9681 43.4506L71.0863 40.4155C71.0863 40.4155 71.0863 40.4155 71.0863 40.2557C71.4058 38.9778 72.524 37.8596 73.4824 37.8596H88.8179C89.7764 37.8596 90.5751 38.6583 90.5751 39.6168V53.195C91.5336 53.9938 92.1725 55.112 92.1725 56.3899V39.7765C92.1725 37.8596 90.7348 36.4219 88.8179 36.4219H73.4824C71.7253 36.4219 69.9681 38.0193 69.4888 39.9363L68.5304 42.4922H15.3355C13.0991 42.4922 11.1821 44.4091 11.1821 46.6455V52.5561C11.3419 52.5561 11.3419 52.5561 11.5016 52.5561H12.7796V52.3963Z" fill="#1D1D1B"/>
<path d="M86.5814 45.8467H18.6901C18.2108 45.8467 17.8914 46.1662 17.8914 46.6454V49.2013H19.4888V47.4441H85.7827V52.5559H87.3801V46.8051C87.3801 46.1662 87.0607 45.8467 86.5814 45.8467Z" fill="#1D1D1B"/>
<path d="M82.9074 49.2012H19.4888H17.8914H15.016C14.5368 49.2012 14.2173 49.5207 14.2173 49.9999V52.3961H15.8147V50.6389H82.1086V52.3961H83.7061V49.9999C83.7061 49.5207 83.3866 49.2012 82.9074 49.2012Z" fill="#1D1D1B"/>
<path d="M90.5751 53.3545C89.9361 52.8752 88.9777 52.396 88.0192 52.396H87.2205H85.623H83.5464H81.9489H15.8147H14.2173H12.7796H11.5016C11.3419 52.396 11.1821 52.396 11.1821 52.396C9.10546 52.5557 7.34827 54.3129 7.34827 56.5494V74.1212C7.8275 74.92 8.30673 75.8784 8.94571 76.6771V56.5494C8.94571 55.1117 10.0639 53.9934 11.5016 53.9934H88.0192C89.4569 53.9934 90.5751 55.1117 90.5751 56.5494V77.3161C91.0544 76.5174 91.6933 75.7187 92.1726 74.7602V56.5494C92.1726 55.2714 91.6933 54.1532 90.5751 53.3545Z" fill="#1D1D1B"/>
<path d="M62.7796 3.6739C62.6199 3.6739 62.6199 3.6739 62.4601 3.6739C60.8627 3.19467 59.1055 2.87518 57.508 2.55569C57.0288 2.39594 56.5496 1.91671 56.7093 1.43748C56.8691 0.958245 57.3483 0.479012 57.8275 0.638756C59.5847 0.958245 61.3419 1.27773 62.9394 1.75697C63.4186 1.91671 63.7381 2.39594 63.5783 3.03492C63.7381 3.35441 63.2588 3.6739 62.7796 3.6739Z" fill="#1D1D1B"/>
<path d="M50 100C36.5815 100 24.1214 94.7284 14.6965 85.3035C5.27157 75.8786 0 63.2588 0 50C0 36.5815 5.27157 24.1214 14.6965 14.6965C24.1214 5.27157 36.5815 0 50 0C50.4792 0 50.9585 0.479233 50.9585 0.958467C50.9585 1.4377 50.4792 1.91693 50 1.91693C37.2204 1.91693 25.0799 6.86901 16.1342 15.9744C7.02876 25.0799 2.07668 37.0607 2.07668 49.8403C2.07668 62.6198 7.02875 74.9201 15.9744 83.8658C25.0799 92.9713 37.0607 97.9233 49.8403 97.9233C62.6198 97.9233 74.7604 92.9713 83.7061 83.8658C92.8115 74.7604 97.7636 62.7796 97.7636 50C97.7636 41.0543 95.2077 32.2684 90.5751 24.6006C86.1022 17.2524 79.5527 11.1821 71.885 7.1885C71.4058 6.86901 71.246 6.38978 71.4058 5.91054C71.7252 5.43131 72.2045 5.27157 72.6837 5.43131C80.6709 9.58467 87.5399 15.8147 92.3323 23.4824C97.2843 31.4696 99.8403 40.5751 99.8403 49.8403C99.8403 63.2588 94.5687 75.7189 85.1438 85.1438C75.8786 94.7284 63.2588 100 50 100Z" fill="#1D1D1B"/>
<path d="M68.8498 4.15344C68.8498 4.79242 68.2109 5.4314 67.5719 5.4314C66.9329 5.4314 66.2939 4.79242 66.2939 4.15344C66.2939 3.51447 66.9329 2.87549 67.5719 2.87549C68.3706 3.03523 68.8498 3.51447 68.8498 4.15344Z" fill="#1D1D1B"/>
</svg>
