<svg width="85" height="85" viewBox="0 0 85 85" fill="none" xmlns="http://www.w3.org/2000/svg">
<g clip-path="url(#clip0_204_604)">
<path d="M42.5 22.0749C44.7036 22.0749 46.4954 20.2825 46.4954 18.0795C46.4954 15.8759 44.7029 14.0835 42.5 14.0835C40.2971 14.0835 38.5046 15.8759 38.5046 18.0795C38.5046 20.2825 40.2971 22.0749 42.5 22.0749ZM42.5 16.5737C43.3301 16.5737 44.0052 17.2495 44.0052 18.0795C44.0052 18.909 43.3301 19.5847 42.5 19.5847C41.6699 19.5847 40.9948 18.9096 40.9948 18.0795C40.9948 17.2495 41.6699 16.5737 42.5 16.5737Z" fill="#CE9543"/>
<path d="M83.7549 76.8258H82.2497V72.5704C82.2497 71.883 81.692 71.3253 81.0046 71.3253H76.7492V67.0698C76.7492 66.3824 76.1921 65.8247 75.504 65.8247H73.9995V38.5767H75.504C76.1921 38.5767 76.7492 38.019 76.7492 37.3316V33.0762H81.0046C81.6927 33.0762 82.2497 32.5185 82.2497 31.8311V26.3305C82.2497 25.6431 81.6927 25.0854 81.0046 25.0854H78.6434L43.2088 0.553331C42.7827 0.258265 42.2179 0.258265 41.7912 0.553331L6.35723 25.0854H3.9954C3.30799 25.0854 2.75028 25.6424 2.75028 26.3305V31.8311C2.75028 32.5185 3.30799 33.0762 3.9954 33.0762H8.25085V37.3316C8.25085 38.019 8.80856 38.5767 9.49596 38.5767H11.0011V65.8247H9.49596C8.80856 65.8247 8.25085 66.3818 8.25085 67.0698V71.3253H3.9954C3.30799 71.3253 2.75028 71.883 2.75028 72.5704V76.8258H1.24512C0.55706 76.8258 0 77.3829 0 78.071V83.5709C0 84.2589 0.55706 84.816 1.24512 84.816H83.7549C84.4429 84.816 85 84.2589 85 83.5709V78.071C85 77.3835 84.4429 76.8258 83.7549 76.8258ZM74.2589 71.3253H62.9977V68.3149H74.2589V71.3253ZM65.7474 65.8247V38.5767H71.5086V65.8247H65.7474ZM74.2589 36.0865H62.9977V33.0762H74.2589V36.0865ZM61.7526 38.5767H63.2571V65.8247H61.7526C61.0646 65.8247 60.5075 66.3818 60.5075 67.0698V71.3253H50.6211V67.0698C50.6211 66.3818 50.0634 65.8247 49.376 65.8247H47.8709V38.5767H49.376C50.0634 38.5767 50.6211 38.019 50.6211 37.3316V33.0762H60.5075V37.3316C60.5075 38.019 61.0646 38.5767 61.7526 38.5767ZM36.8697 33.0762H48.1309V36.0865H36.8697V33.0762ZM39.6194 38.5767H45.3806V65.8247H39.6194V38.5767ZM48.1309 68.3149V71.3253H36.8697V68.3149H48.1309ZM5.24052 27.5756H6.74633H6.74763H6.74828H26.9691C27.6572 27.5756 28.2142 27.0179 28.2142 26.3305C28.2142 25.6424 27.6572 25.0854 26.9691 25.0854H10.732L42.5 3.09155L74.2686 25.0854H31.9496C31.2622 25.0854 30.7045 25.6424 30.7045 26.3305C30.7045 27.0179 31.2622 27.5756 31.9496 27.5756H78.2375H78.2413H79.7595V30.5859H5.24052V27.5756ZM10.7411 33.0762H22.0029V36.0865H10.7411V33.0762ZM19.2526 38.5767V65.8247H13.4914V38.5767H19.2526ZM10.7411 68.3149H22.0029V71.3253H10.7411V68.3149ZM23.248 65.8247H21.7429V38.5767H23.248C23.9354 38.5767 24.4931 38.019 24.4931 37.3316V33.0762H34.3795V37.3316C34.3795 38.019 34.9366 38.5767 35.6246 38.5767H37.1291V65.8247H35.6246C34.9366 65.8247 34.3795 66.3818 34.3795 67.0698V71.3253H24.4931V67.0698C24.4931 66.3818 23.9354 65.8247 23.248 65.8247ZM5.24052 73.8155H79.7595V76.8258H5.24052V73.8155ZM82.5098 82.3264H2.49023V79.3161H82.5098V82.3264Z" fill="#CE9543"/>
</g>
<defs>
<clipPath id="clip0_204_604">
<rect width="85" height="85" fill="white"/>
</clipPath>
</defs>
</svg>
