<svg width="100" height="100" viewBox="0 0 100 100" fill="none" xmlns="http://www.w3.org/2000/svg">
<g clip-path="url(#clip0_236_541)">
<path d="M21.9828 34.6265V37.2127H82.9023C83.3334 37.2127 83.7644 37.5 83.7644 38.0747V85.6322C84.9138 84.6265 85.9196 83.477 86.9253 82.3276V34.6265H21.9828Z" fill="white"/>
<path d="M29.023 39.6553C27.8735 39.6553 27.0115 40.5173 26.8678 41.6668H31.1781C31.1781 40.8047 30.7471 39.6553 29.023 39.6553Z" fill="#C17E13"/>
<path d="M31.3218 38.793C32.1839 39.3677 32.7586 40.5171 32.9023 41.8102H66.3793C66.523 41.8102 66.523 41.8102 66.6667 41.8102C66.6667 41.8102 66.6667 41.8102 66.8103 41.8102C66.8103 41.8102 66.954 41.8102 66.954 41.9539L79.454 54.4539C79.454 54.4539 79.454 54.4539 79.5977 54.5976C79.5977 54.5976 79.5977 54.5976 79.5977 54.7412V54.8849V55.0286V89.0803C80.4598 88.3619 81.3218 87.7872 82.1839 87.0688V38.793H31.3218Z" fill="#DAAF71"/>
<path d="M25.2874 41.6667C25.4311 40.3736 26.0058 39.3678 26.8678 38.6494H17.2414V41.6667H25.2874Z" fill="#C17E13"/>
<path d="M29.7414 59.4826C30.6034 59.4826 31.6092 59.0515 32.0402 58.1895H27.2988C28.0172 59.0515 28.8793 59.4826 29.7414 59.4826Z" fill="white"/>
<path d="M50 98.9943C56.4655 98.9943 62.7873 97.7012 68.3908 95.4023H31.4655C37.2126 97.7012 43.3908 98.9943 50 98.9943Z" fill="white"/>
<path d="M70.1149 63.5057H20.8333C20.546 63.5057 20.4023 63.2183 20.4023 63.0747C20.4023 62.931 20.6896 62.6436 20.8333 62.6436H70.1149C70.4023 62.6436 70.546 62.931 70.546 63.0747C70.546 63.2183 70.4023 63.5057 70.1149 63.5057ZM70.1149 68.8218H20.8333C20.546 68.8218 20.4023 68.5344 20.4023 68.3907C20.4023 68.2471 20.6896 67.9597 20.8333 67.9597H70.1149C70.4023 67.9597 70.546 68.2471 70.546 68.3907C70.546 68.5344 70.4023 68.8218 70.1149 68.8218ZM70.1149 74.1379H20.8333C20.546 74.1379 20.4023 73.8505 20.4023 73.7068C20.4023 73.5632 20.6896 73.2758 20.8333 73.2758H70.1149C70.4023 73.2758 70.546 73.5632 70.546 73.7068C70.546 73.8505 70.4023 74.1379 70.1149 74.1379ZM70.1149 79.454H20.8333C20.546 79.454 20.4023 79.1666 20.4023 79.0229C20.4023 78.8793 20.6896 78.5919 20.8333 78.5919H70.1149C70.4023 78.5919 70.546 78.8793 70.546 79.0229C70.546 79.1666 70.4023 79.454 70.1149 79.454ZM70.1149 84.7701H20.8333C20.546 84.7701 20.4023 84.4827 20.4023 84.339C20.4023 84.1953 20.6896 83.908 20.8333 83.908H70.1149C70.4023 83.908 70.546 84.1953 70.546 84.339C70.546 84.4827 70.4023 84.7701 70.1149 84.7701ZM66.2356 55.7471C65.8046 55.7471 65.3736 55.4597 65.3736 55.0287V43.3907H26.8678V56.4655C26.8678 56.7528 26.8678 57.1839 27.0115 57.3275H32.4713C32.4713 57.0402 32.6149 56.7528 32.6149 56.4655V45.2586C32.6149 44.8275 32.9023 44.3965 33.477 44.3965C34.0517 44.3965 34.3391 44.6839 34.3391 45.2586V56.4655C34.3391 56.7528 34.3391 57.0402 34.3391 57.3275H70.4023C70.6897 57.3275 70.8333 57.6149 70.8333 57.7586C70.8333 57.9022 70.546 58.1896 70.4023 58.1896H33.908C33.6207 58.908 33.1896 59.4827 32.9023 59.7701C32.0402 60.4884 31.0345 60.9195 29.885 60.9195C28.1609 60.9195 26.4368 59.9137 25.7184 58.0459H20.977C20.6896 58.0459 20.546 57.7586 20.546 57.6149C20.546 57.4712 20.8333 57.1838 20.977 57.1838H25.431C25.431 56.8965 25.2874 56.6091 25.2874 56.3218V43.2471H13.0747V82.1838C15.3736 84.7701 17.8161 87.0689 20.546 89.2241C20.6896 89.2241 20.6896 89.0804 20.8333 89.0804H70.1149C70.4023 89.0804 70.546 89.3678 70.546 89.5114C70.546 89.6551 70.2586 89.9425 70.1149 89.9425H21.8391C24.1379 91.5229 26.7241 93.1034 29.3103 94.2528H70.1149C70.2586 94.2528 70.4023 94.2528 70.4023 94.3965C72.9885 93.2471 75.5747 91.8103 77.8736 90.0861V55.6034H66.2356V55.7471Z" fill="white"/>
<path d="M67.0977 54.1666H76.8678L67.0977 44.3965V54.1666Z" fill="white"/>
<path d="M32.0402 58.1898C32.1839 57.9025 32.3276 57.6151 32.4712 57.1841H27.0115C27.1552 57.6151 27.2988 57.9025 27.4425 58.1898H32.0402Z" fill="#C17E13"/>
<path d="M20.8333 57.1837C20.546 57.1837 20.4023 57.4711 20.4023 57.6147C20.4023 57.7584 20.6896 58.0458 20.8333 58.0458H25.5747C25.431 57.7584 25.431 57.4711 25.2873 57.04H20.8333V57.1837Z" fill="#C17E13"/>
<path d="M70.1149 58.1897C70.4023 58.1897 70.5459 57.9023 70.5459 57.7587C70.5459 57.615 70.2586 57.3276 70.1149 57.3276H34.0517C34.0517 57.7587 33.908 58.046 33.7643 58.3334H70.1149V58.1897Z" fill="#C17E13"/>
<path d="M70.1149 62.5H20.8333C20.546 62.5 20.4023 62.7874 20.4023 62.931C20.4023 63.0747 20.6896 63.3621 20.8333 63.3621H70.1149C70.4023 63.3621 70.546 63.0747 70.546 62.931C70.546 62.7874 70.4023 62.5 70.1149 62.5Z" fill="#C17E13"/>
<path d="M70.1149 67.8159H20.8333C20.546 67.8159 20.4023 68.1033 20.4023 68.247C20.4023 68.3906 20.6896 68.678 20.8333 68.678H70.1149C70.4023 68.678 70.546 68.3906 70.546 68.247C70.546 68.1033 70.4023 67.8159 70.1149 67.8159Z" fill="#C17E13"/>
<path d="M70.1149 73.1323H20.8333C20.546 73.1323 20.4023 73.4197 20.4023 73.5634C20.4023 73.707 20.6896 73.9944 20.8333 73.9944H70.1149C70.4023 73.9944 70.546 73.707 70.546 73.5634C70.546 73.4197 70.4023 73.1323 70.1149 73.1323Z" fill="#C17E13"/>
<path d="M70.1149 78.4482H20.8333C20.546 78.4482 20.4023 78.7356 20.4023 78.8793C20.4023 79.023 20.6896 79.3103 20.8333 79.3103H70.1149C70.4023 79.3103 70.546 79.023 70.546 78.8793C70.546 78.7356 70.4023 78.4482 70.1149 78.4482Z" fill="#C17E13"/>
<path d="M70.1149 83.7642H20.8333C20.546 83.7642 20.4023 84.0515 20.4023 84.1952C20.4023 84.3389 20.6896 84.6263 20.8333 84.6263H70.1149C70.4023 84.6263 70.546 84.3389 70.546 84.1952C70.546 84.0515 70.4023 83.7642 70.1149 83.7642Z" fill="#C17E13"/>
<path d="M70.1149 90.0863C70.4023 90.0863 70.546 89.799 70.546 89.6553C70.546 89.5116 70.4023 89.0806 70.1149 89.0806H20.8333C20.6896 89.0806 20.6896 89.0806 20.546 89.2242C20.977 89.5116 21.408 89.799 21.8391 90.0863H70.1149Z" fill="#C17E13"/>
<path d="M29.3104 94.3965C30.0288 94.6838 30.7471 95.1149 31.6092 95.4022H68.5345C69.2529 95.1149 69.8276 94.8275 70.546 94.5402C70.4023 94.5402 70.4023 94.3965 70.2586 94.3965H29.3104Z" fill="#C17E13"/>
<path d="M87.6437 33.0459H21.2644C20.8333 33.0459 20.4023 33.3333 20.4023 33.908V37.2126H21.9827V34.6264H86.7816V82.1838C87.3563 81.6091 87.7873 80.8907 88.3621 80.316V33.7643C88.5057 33.3333 88.0747 33.0459 87.6437 33.0459Z" fill="#1D1D1B"/>
<path d="M82.9023 37.0688H21.9828H20.4023H16.3793C15.9483 37.0688 15.5173 37.3562 15.5173 37.9309V41.6665H17.2414V38.793H26.8678C27.4426 38.362 28.161 38.0746 29.023 38.0746C29.8851 38.0746 30.7472 38.362 31.3219 38.793H82.0403V87.0688C82.615 86.6378 83.046 86.0631 83.6207 85.6321V37.9309C83.6207 37.4999 83.3334 37.0688 82.9023 37.0688Z" fill="#1D1D1B"/>
<path d="M79.454 54.8853C79.454 55.0289 79.454 55.1726 79.454 55.1726C79.3103 55.46 79.023 55.6036 78.7356 55.6036H77.8735V90.0864C78.4483 89.6554 78.8793 89.368 79.454 88.937V54.8853Z" fill="#1D1D1B"/>
<path d="M32.0402 42.96C31.6092 42.96 31.1781 42.6726 31.1781 42.2416C31.1781 42.0979 31.1781 41.9542 31.1781 41.8105H26.8678C26.8678 41.9542 26.8678 42.0979 26.8678 42.2416V43.391H65.5172V42.5289C65.5172 42.2416 65.6609 41.9542 65.9482 41.8105C66.0919 41.8105 66.0919 41.8105 66.2356 41.8105H32.9023C32.9023 41.9542 32.9023 42.0979 32.9023 42.2416C32.9023 42.5289 32.4712 42.96 32.0402 42.96Z" fill="#1D1D1B"/>
<path d="M25.2874 43.247V42.0975C25.2874 41.9539 25.2874 41.8102 25.2874 41.6665H17.2414H15.6609H12.2127C11.7816 41.6665 11.4943 42.0975 11.4943 42.5286V80.3159C12.069 81.0343 12.5 81.609 13.0747 82.1837V43.247H25.2874Z" fill="#1D1D1B"/>
<path d="M76.8678 54.1669H67.0977V44.3968L76.8678 54.1669ZM65.5172 42.5289V43.391V55.0289C65.5172 55.46 65.8046 55.7473 66.2356 55.7473H77.8735H78.5919C78.8793 55.7473 79.1666 55.6037 79.3103 55.3163C79.3103 55.1726 79.3103 55.1726 79.3103 55.0289V54.8853V54.7416C79.3103 54.7416 79.3103 54.7416 79.3103 54.5979C79.3103 54.5979 79.3103 54.4542 79.1666 54.4542L66.6666 41.9542C66.6666 41.9542 66.6666 41.9542 66.523 41.8105C66.523 41.8105 66.523 41.8105 66.3793 41.8105C66.2356 41.8105 66.2356 41.8105 66.0919 41.8105C65.9482 41.8105 65.9482 41.8105 65.8046 41.8105C65.6609 41.8105 65.5172 42.0979 65.5172 42.5289Z" fill="#1D1D1B"/>
<path d="M25.2874 41.6667C25.2874 41.8103 25.2874 41.954 25.2874 42.0977V43.2471V56.3218C25.2874 56.6092 25.2874 56.8965 25.431 57.3276C25.431 57.6149 25.5747 58.046 25.7184 58.3333C26.4368 60.2011 28.1609 61.2069 29.8851 61.2069C31.0345 61.2069 32.1839 60.7759 32.9023 60.0575C33.3333 59.7701 33.6207 59.1954 33.908 58.477C34.0517 58.1896 34.0517 57.9023 34.1954 57.4713C34.1954 57.1839 34.1954 56.8965 34.1954 56.4655V45.2586C34.1954 44.8276 33.908 44.3965 33.477 44.3965C33.046 44.3965 32.6149 44.6839 32.6149 45.2586V56.4655C32.6149 56.7529 32.6149 57.1839 32.4713 57.4713C32.3276 57.9023 32.1839 58.1896 32.0402 58.477C31.4655 59.3391 30.6034 59.7701 29.7414 59.7701C28.8793 59.7701 27.8736 59.3391 27.2988 58.477C27.1552 58.1896 27.0115 57.9023 26.8678 57.4713C26.8678 57.1839 26.7241 56.8965 26.7241 56.4655V43.3908V42.2414C26.7241 42.0977 26.7241 41.954 26.7241 41.8103C26.8678 40.5172 27.7299 39.7988 28.8793 39.7988C30.6034 39.7988 31.0345 40.9483 31.1782 41.8103C31.1782 41.954 31.1782 42.0977 31.1782 42.2414C31.1782 42.6724 31.4655 43.1034 32.0402 43.1034C32.6149 43.1034 32.9023 42.8161 32.9023 42.2414C32.9023 42.0977 32.9023 41.954 32.9023 41.8103C32.7586 40.5172 32.1839 39.5115 31.3218 38.7931C30.7471 38.3621 29.8851 38.0747 29.023 38.0747C28.1609 38.0747 27.4425 38.3621 26.8678 38.7931C26.0057 39.3678 25.431 40.3736 25.2874 41.6667Z" fill="#1D1D1B"/>
<path d="M62.7873 3.7355C62.6437 3.7355 62.6437 3.7355 62.5 3.7355C60.9195 3.30447 59.1954 2.87343 57.4713 2.72976C56.8965 2.58608 56.6092 2.15504 56.6092 1.58033C56.7529 1.00562 57.1839 0.718262 57.7586 0.718262C59.4828 1.00562 61.2069 1.43665 62.931 1.86769C63.5057 2.01137 63.7931 2.58608 63.6494 3.01711C63.6494 3.44815 63.2184 3.7355 62.7873 3.7355Z" fill="#1D1D1B"/>
<path d="M50 100C36.6379 100 24.1379 94.8276 14.6552 85.3448C5.17241 75.8621 0 63.3621 0 50C0 36.6379 5.17241 24.1379 14.6552 14.6552C24.1379 5.17241 36.6379 0 50 0C50.5747 0 51.0058 0.431034 51.0058 1.00575C51.0058 1.58046 50.5747 2.01149 50 2.01149C37.2127 2.01149 25.1437 7.04023 16.092 16.092C7.04023 25.1437 2.01149 37.2126 2.01149 50C2.01149 62.7874 7.04023 74.8563 16.092 83.9081C25.1437 92.9598 37.2127 97.9885 50 97.9885C62.7874 97.9885 74.8563 92.9598 83.9081 83.9081C92.9598 74.8563 97.9885 62.7874 97.9885 50C97.9885 40.9483 95.546 32.1839 90.8046 24.7126C86.0632 17.2414 79.5977 11.2069 71.8391 7.18391C71.4081 6.89655 71.1207 6.32184 71.4081 5.8908C71.6954 5.45977 72.2701 5.17241 72.7012 5.45977C80.7471 9.62644 87.5 15.8046 92.3851 23.5632C97.2701 31.4655 99.8563 40.6609 99.8563 50C99.8563 63.3621 94.6839 75.8621 85.2012 85.3448C75.8621 94.6839 63.3621 100 50 100Z" fill="#1D1D1B"/>
<path d="M68.9655 4.16664C68.9655 4.88503 68.3908 5.45974 67.6724 5.45974C66.954 5.45974 66.3793 4.88503 66.3793 4.16664C66.3793 3.44825 66.954 2.87354 67.6724 2.87354C68.3908 3.01721 68.9655 3.59193 68.9655 4.16664Z" fill="#1D1D1B"/>
</g>
<defs>
<clipPath id="clip0_236_541">
<rect width="100" height="100" fill="white"/>
</clipPath>
</defs>
</svg>
