<svg width="85" height="85" viewBox="0 0 85 85" fill="none" xmlns="http://www.w3.org/2000/svg">
<g clip-path="url(#clip0_218_5113)">
<path d="M71.9099 26.6636L67.919 21.822C67.3711 21.1573 67.0377 20.3531 66.956 19.4965L66.3542 13.2508C66.0416 10.0057 63.4593 7.42341 60.2143 7.11084L53.9686 6.50968C53.1119 6.42732 52.3078 6.094 51.6431 5.54667L46.8014 1.55517C44.2859 -0.518066 40.6342 -0.518066 38.1187 1.55517L33.277 5.54667C32.613 6.094 31.8088 6.42732 30.9515 6.50968L24.7059 7.11084C21.4608 7.42341 18.8791 10.0057 18.5659 13.2508L17.9648 19.4965C17.8824 20.3531 17.5491 21.1573 17.0017 21.822L13.0103 26.6636C10.937 29.1791 10.937 32.8308 13.0103 35.3463L17.0017 40.188C17.5491 40.8527 17.8824 41.6569 17.9648 42.5135L18.5659 48.7592C18.8785 52.0043 21.4608 54.5859 24.7059 54.8991L28.5236 55.2668L19.4531 76.9415C19.2073 77.5316 19.3182 78.1957 19.7429 78.6743C20.1677 79.1522 20.813 79.3416 21.4264 79.1671L29.2959 76.9454C29.3303 76.9357 29.3634 76.9506 29.3789 76.9785L33.3198 84.1443C33.613 84.6781 34.1609 84.9997 34.764 84.9997C34.7926 84.9997 34.8211 84.9991 34.8503 84.9978C35.4878 84.9653 36.039 84.5801 36.2913 83.9861L45.8676 61.1007C46.1925 60.9139 46.5051 60.6993 46.8021 60.4548L51.6437 56.464C52.2566 55.9581 52.99 55.6384 53.7727 55.5269L62.4464 76.2522L56.3084 74.5194C55.1411 74.1906 53.9187 74.7023 53.3331 75.7638L50.2598 81.3519L46.1879 71.6212C45.9188 70.9786 45.1808 70.6764 44.5382 70.9449C43.8962 71.2133 43.5933 71.952 43.8624 72.594L48.6321 83.9926C48.8818 84.5801 49.4324 84.9653 50.0705 84.9978C50.0997 84.9991 50.1282 85.0004 50.1567 85.0004C50.7598 85.0004 51.3078 84.6781 51.6009 84.1443L55.5412 76.9798C55.5574 76.9506 55.5911 76.937 55.6242 76.9454L63.4924 79.1671C64.1072 79.3409 64.7531 79.1522 65.1772 78.6743C65.602 78.1957 65.7129 77.5323 65.4664 76.9402L56.3966 55.2662L60.2143 54.8985C63.4593 54.5859 66.0416 52.0043 66.3542 48.7592L66.956 42.5129C67.0377 41.6562 67.3711 40.8527 67.919 40.188L71.9099 35.3463C73.9838 32.8308 73.9838 29.1791 71.9099 26.6636V26.6636ZM34.6609 81.3519L31.5871 75.7625C31.0021 74.7016 29.7784 74.1899 28.6118 74.5194L22.4744 76.2515L31.1474 55.5269C31.9308 55.6384 32.6642 55.9581 33.277 56.4633L38.1187 60.4548C39.3768 61.4917 40.9183 62.0099 42.4604 62.0099C42.5596 62.0099 42.6582 62.0073 42.7574 62.0028L34.6609 81.3519ZM69.965 33.7433L65.9742 38.5849C65.1052 39.6381 64.5773 40.913 64.4463 42.2716L63.8452 48.5173C63.648 50.5639 62.0197 52.1923 59.973 52.3895L54.4867 52.918C54.4653 52.9193 54.4433 52.9212 54.4219 52.9245L53.7274 52.9913C52.3681 53.1223 51.0932 53.6501 50.04 54.5185L45.1983 58.5093C43.6121 59.8173 41.3087 59.8173 39.7224 58.5093L34.8808 54.5185C33.8276 53.6501 32.5527 53.1216 31.1934 52.9913L30.4956 52.9238C30.4762 52.9212 30.4574 52.9199 30.4379 52.9186L24.9478 52.3895C22.9011 52.1923 21.2727 50.5639 21.0756 48.5173L20.4744 42.2723C20.3434 40.913 19.8156 39.6381 18.9466 38.5849L14.9557 33.7433C13.6477 32.1564 13.6477 29.8529 14.9557 28.2667L18.9466 23.425C19.8156 22.3719 20.3434 21.0969 20.4744 19.7377L21.0756 13.492C21.2727 11.4454 22.9011 9.81701 24.9478 9.61987L31.1934 9.01871C32.5527 8.88772 33.8276 8.35984 34.8808 7.4915L39.7224 3.50066C40.5156 2.84698 41.4883 2.51949 42.4604 2.51949C43.4325 2.51949 44.4052 2.84633 45.1983 3.50066L50.04 7.4915C51.0932 8.35984 52.3681 8.88836 53.7274 9.01871L59.973 9.61987C62.0197 9.81701 63.648 11.4454 63.8452 13.492L64.4463 19.7377C64.5773 21.0969 65.1052 22.3719 65.9742 23.425L69.965 28.2667C71.2724 29.8536 71.2724 32.1564 69.965 33.7433V33.7433Z" fill="#CE9543"/>
<path d="M42.4605 11.3149C41.6188 11.3149 40.7719 11.3681 39.9418 11.4745C39.2518 11.5627 38.7635 12.1943 38.8517 12.8843C38.9399 13.5749 39.5721 14.0626 40.2615 13.9751C40.9852 13.8823 41.7252 13.8356 42.4605 13.8356C51.9279 13.8356 59.6301 21.5378 59.6301 31.0052C59.6301 40.4726 51.9273 48.1741 42.4605 48.1741C32.9932 48.1741 25.291 40.472 25.291 31.0046C25.291 24.2518 29.2727 18.1008 35.4347 15.3337C36.0696 15.049 36.3537 14.3026 36.0683 13.6677C35.783 13.0322 35.0366 12.7488 34.4023 13.0341C27.3357 16.2072 22.7703 23.2609 22.7703 31.0046C22.7703 41.8623 31.6034 50.6948 42.4605 50.6948C53.3177 50.6948 62.1508 41.8623 62.1508 31.0046C62.1508 20.1475 53.3177 11.3149 42.4605 11.3149V11.3149Z" fill="#CE9543"/>
<path d="M29.9426 29.5448C28.44 31.0474 28.44 33.4929 29.9426 34.9955L35.4477 40.5012C36.176 41.2288 37.1435 41.6296 38.1733 41.6296C39.2025 41.6296 40.1707 41.2288 40.899 40.5012L52.9163 28.4832C54.4189 26.98 54.4189 24.5352 52.9163 23.032C51.4137 21.5294 48.9683 21.5294 47.465 23.032L38.1733 32.3243L35.3932 29.5448C33.8907 28.0423 31.4452 28.0423 29.9426 29.5448ZM38.1733 35.3677C38.5073 35.3677 38.8277 35.2348 39.0644 34.9981L49.2478 24.8147C49.7678 24.2946 50.6135 24.2952 51.1336 24.8147C51.6537 25.3348 51.6537 26.1811 51.1336 26.7005L39.1163 38.7185C38.8646 38.9701 38.5294 39.1089 38.1733 39.1089C37.8167 39.1089 37.482 38.9701 37.2304 38.7185L31.7247 33.2134C31.2052 32.6933 31.2052 31.847 31.7247 31.3276C31.9847 31.0675 32.3265 30.9372 32.6682 30.9372C33.0094 30.9372 33.3511 31.0675 33.6105 31.3269L37.2817 34.9981C37.5184 35.2348 37.8387 35.3677 38.1733 35.3677Z" fill="#CE9543"/>
</g>
<defs>
<clipPath id="clip0_218_5113">
<rect width="85" height="85" fill="white"/>
</clipPath>
</defs>
</svg>
