<svg width="85" height="75" viewBox="0 0 85 75" fill="none" xmlns="http://www.w3.org/2000/svg">
<path d="M78.2543 19.3495H60.2469V6.84271C60.2469 3.1233 57.2208 0.097168 53.5012 0.097168H6.74571C3.02613 0.097168 0 3.1233 0 6.84271V25.3843C0 26.0721 0.557314 26.6295 1.24512 26.6295C1.93292 26.6295 2.49023 26.0721 2.49023 25.3843V6.84271C2.49023 4.49625 4.39925 2.5874 6.74571 2.5874H53.5014C55.8478 2.5874 57.7568 4.49625 57.7568 6.84271V39.8471C57.7568 42.1936 55.848 44.1026 53.5015 44.1026H26.5675C25.8672 44.1026 25.2091 44.3754 24.7147 44.8699L16.4638 53.1209C16.4407 53.1443 16.402 53.1823 16.322 53.1493C16.2418 53.1161 16.2418 53.0616 16.2418 53.0291V46.7228C16.2418 45.278 15.0663 44.1026 13.6214 44.1026H6.74571C4.39925 44.1026 2.49023 42.1936 2.49023 39.8471V30.3648C2.49023 29.677 1.93292 29.1197 1.24512 29.1197C0.557314 29.1197 0 29.677 0 30.3648V39.8471C0 43.5667 3.02613 46.5928 6.74571 46.5928H13.6214C13.6933 46.5928 13.7516 46.6513 13.7516 46.7228V53.0291C13.7516 54.0926 14.3864 55.0429 15.3691 55.4498C15.6953 55.5851 16.0364 55.6506 16.3745 55.6506C17.0551 55.6505 17.7222 55.3844 18.2249 54.8818L24.7531 48.3534V59.0994C24.7531 62.8189 27.7791 65.845 31.4986 65.845H46.5785C47.2663 65.845 47.8236 65.2877 47.8236 64.5999C47.8236 63.9121 47.2663 63.3548 46.5785 63.3548H31.4986C29.1522 63.3548 27.2433 61.4459 27.2433 59.0994V46.5928H53.5015C57.2209 46.5928 60.2471 43.5667 60.2471 39.8471V21.8397H78.2545C80.6009 21.8397 82.5099 23.7487 82.5099 26.0952V59.0996C82.5099 61.4461 80.6009 63.3549 78.2545 63.3549H71.3787C69.9339 63.3549 68.7584 64.5303 68.7584 65.9752V72.2814C68.7584 72.314 68.7584 72.3682 68.6782 72.4018C68.5985 72.435 68.5595 72.3968 68.5366 72.3734L60.2858 64.1227C59.791 63.6277 59.1329 63.3549 58.4328 63.3549H51.5595C50.8717 63.3549 50.3144 63.9122 50.3144 64.6C50.3144 65.2878 50.8717 65.8452 51.5595 65.8452H58.4328C58.4669 65.8452 58.5003 65.8589 58.5247 65.8833L66.7756 74.1343C67.2782 74.6367 67.9454 74.9031 68.626 74.9031C68.9639 74.903 69.3054 74.8374 69.6314 74.7023C70.6141 74.2954 71.2489 73.3451 71.2489 72.2814V65.9752C71.2489 65.9034 71.3074 65.8452 71.3791 65.8452H78.2548C81.9744 65.8452 85.0005 62.819 85.0005 59.0996V26.0952C85 22.3756 81.9739 19.3495 78.2543 19.3495Z" fill="#CE9543"/>
<path d="M38.5047 53.5985C38.5047 55.8017 40.297 57.5938 42.5 57.5938C44.7032 57.5938 46.4953 55.8015 46.4953 53.5985C46.4953 51.3955 44.7032 49.603 42.5 49.603C40.297 49.603 38.5047 51.3953 38.5047 53.5985ZM44.0051 53.5985C44.0051 54.4284 43.3299 55.1036 42.5 55.1036C41.6701 55.1036 40.9949 54.4284 40.9949 53.5985C40.9949 52.7686 41.6701 52.0934 42.5 52.0934C43.3299 52.0934 44.0051 52.7686 44.0051 53.5985Z" fill="#CE9543"/>
<path d="M26.128 37.0964C26.128 39.2994 27.9205 41.0917 30.1235 41.0917C32.3267 41.0917 34.1189 39.2994 34.1189 37.0964C34.1189 34.8932 32.3266 33.1011 30.1235 33.1011C27.9205 33.1011 26.128 34.8934 26.128 37.0964ZM31.6288 37.0964C31.6288 37.9263 30.9536 38.6015 30.1237 38.6015C29.2936 38.6015 28.6184 37.9263 28.6184 37.0964C28.6184 36.2665 29.2936 35.5913 30.1237 35.5913C30.9534 35.5913 31.6288 36.2665 31.6288 37.0964Z" fill="#CE9543"/>
<path d="M34.119 23.7102C37.6821 22.0592 39.8696 18.3828 39.5966 14.4291C39.2728 9.73156 35.4862 5.94491 30.7891 5.62068C28.1667 5.43906 25.5621 6.36161 23.6449 8.1511C21.7271 9.94091 20.6273 12.4715 20.6273 15.0939C20.6273 17.2971 22.4197 19.0892 24.6228 19.0892C26.8258 19.0892 28.6181 17.2969 28.6181 15.0939C28.6181 14.6659 28.7838 14.2852 29.0971 13.9929C29.4049 13.7058 29.8113 13.5645 30.2387 13.5926C30.9536 13.6419 31.5752 14.2636 31.6245 14.9792C31.6698 15.6346 31.2959 16.2412 30.6941 16.4882C27.9202 17.6273 26.1279 20.3187 26.1279 23.345V26.0952C26.1279 28.2984 27.9202 30.0907 30.1232 30.0907C32.3262 30.0907 34.1187 28.2983 34.1187 26.0952V23.7102H34.119ZM32.7841 21.5764C32.0822 21.8645 31.6288 22.5588 31.6288 23.3448V26.0951C31.6288 26.9251 30.9536 27.6003 30.1235 27.6003C29.2936 27.6003 28.6184 26.9251 28.6184 26.0951V23.3448C28.6184 21.3327 29.8046 19.5454 31.6403 18.7915C33.2363 18.1363 34.2284 16.5351 34.1091 14.8075C33.9753 12.8669 32.3506 11.242 30.4087 11.1082C30.3138 11.1017 30.2193 11.0984 30.1255 11.0984C29.1059 11.0984 28.1465 11.4741 27.3986 12.172C26.5793 12.9363 26.1282 13.9741 26.1282 15.0939C26.1282 15.9238 25.453 16.599 24.6231 16.599C23.793 16.599 23.1178 15.9238 23.1178 15.0939C23.1178 13.1593 23.9295 11.2921 25.3443 9.97146C26.7584 8.6513 28.6775 7.96947 30.6179 8.10511C34.0815 8.34384 36.8737 11.1364 37.1125 14.6005C37.321 17.6239 35.5815 20.4276 32.7841 21.5764Z" fill="#CE9543"/>
<path d="M71.2484 53.5988C71.2484 51.3957 69.4561 49.6035 67.2531 49.6035C65.0501 49.6035 63.2578 51.3958 63.2578 53.5988C63.2578 55.8019 65.0501 57.5942 67.2531 57.5942C69.4561 57.5942 71.2484 55.8019 71.2484 53.5988ZM65.7478 53.5988C65.7478 52.7689 66.423 52.0937 67.2529 52.0937C68.0828 52.0937 68.758 52.7689 68.758 53.5988C68.758 54.4288 68.0828 55.1039 67.2529 55.1039C66.4232 55.1039 65.7478 54.4288 65.7478 53.5988Z" fill="#CE9543"/>
<path d="M54.8766 57.5942C57.0797 57.5942 58.872 55.8019 58.872 53.5988C58.872 51.3958 57.0797 49.6035 54.8766 49.6035C52.6734 49.6035 50.8811 51.3958 50.8811 53.5988C50.8811 55.8019 52.6734 57.5942 54.8766 57.5942ZM54.8766 52.0936C55.7065 52.0936 56.3817 52.7688 56.3817 53.5987C56.3817 54.4286 55.7065 55.1038 54.8766 55.1038C54.0466 55.1038 53.3714 54.4286 53.3714 53.5987C53.3714 52.7688 54.0466 52.0936 54.8766 52.0936Z" fill="#CE9543"/>
</svg>
