<svg width="100" height="100" viewBox="0 0 100 100" fill="none" xmlns="http://www.w3.org/2000/svg">
<g clip-path="url(#clip0_236_575)">
<path d="M79.4746 45.1558H24.3021V52.7091H79.4746V45.1558Z" fill="#CE9543"/>
<path d="M48.1117 58.2925H28.243V62.8902H48.1117V58.2925Z" fill="#CE9543"/>
<path d="M31.0345 73.8916V95.2381C31.5271 95.4023 32.0197 95.7307 32.6765 95.8949V73.8916H31.0345Z" fill="#1D1D1B"/>
<path d="M32.5123 35.6324V4.26953C32.0197 4.43373 31.5271 4.76214 30.8703 4.92635V35.7966H32.5123V35.6324Z" fill="#1D1D1B"/>
<path d="M27.422 73.8917V80.1314H20.6897V28.2431H27.422V35.6323H29.064V27.4221C29.064 26.9295 28.7356 26.6011 28.243 26.6011H19.8686C19.376 26.6011 19.0476 26.9295 19.0476 27.4221V80.9525C19.0476 81.4451 19.376 81.7735 19.8686 81.7735H28.243C28.7356 81.7735 29.064 81.4451 29.064 80.9525V73.8917H27.422Z" fill="#1D1D1B"/>
<path d="M80.2956 54.1872H79.4746V70.7718C79.4746 71.5928 78.8177 72.4138 77.8325 72.4138H25.9442C25.1231 72.4138 24.3021 71.757 24.3021 70.7718V54.1872H23.4811C22.9885 54.1872 22.6601 53.8588 22.6601 53.3662V70.7718C22.6601 72.578 24.1379 73.8917 25.78 73.8917H27.2578H28.8998H30.8703H32.5123H77.8325C79.6388 73.8917 80.9524 72.4138 80.9524 70.7718V53.3662C81.1166 53.8588 80.7882 54.1872 80.2956 54.1872Z" fill="#1D1D1B"/>
<path d="M31.0345 35.6323H29.064H27.422H25.9442C24.1379 35.6323 22.8243 37.1102 22.8243 38.7522V44.3351C22.8243 43.8425 23.1527 43.5141 23.6453 43.5141H24.4663V38.7522C24.4663 37.9312 25.1231 37.1102 26.1084 37.1102H78.1609C78.9819 37.1102 79.8029 37.767 79.8029 38.7522V43.5141H80.624C81.1166 43.5141 81.445 43.8425 81.445 44.3351V38.7522C81.445 36.946 79.9671 35.6323 78.3251 35.6323H32.5123H31.0345Z" fill="#1D1D1B"/>
<path d="M79.4745 52.5454H24.3021V44.992H79.4745V52.5454ZM80.2956 43.5142H79.4745H24.3021H23.4811C22.9885 43.5142 22.6601 43.8426 22.6601 44.3352V53.3664C22.6601 53.859 22.9885 54.1874 23.4811 54.1874H24.3021H79.4745H80.2956C80.7882 54.1874 81.1166 53.859 81.1166 53.3664V44.3352C81.1166 43.8426 80.7882 43.5142 80.2956 43.5142Z" fill="#1D1D1B"/>
<path d="M62.89 3.61253C62.7258 3.61253 62.7258 3.61253 62.5616 3.61253C60.9195 3.11992 59.2775 2.79151 57.6355 2.4631C57.1429 2.2989 56.6502 1.80629 56.8145 1.31368C56.9787 0.821065 57.4713 0.328455 57.9639 0.492658C59.7701 0.821065 61.4122 1.14947 63.2184 1.64208C63.711 1.80629 64.0394 2.2989 63.8752 2.79151C63.711 3.44832 63.3826 3.61253 62.89 3.61253Z" fill="#1D1D1B"/>
<path d="M50.0821 100C36.7816 100 24.1379 94.7455 14.7783 85.3859C5.41872 76.0263 0 63.3826 0 50.0821C0 36.7816 5.25452 24.1379 14.6141 14.7783C23.9737 5.41872 36.6174 0 50.0821 0C50.5747 0 51.0673 0.492611 51.0673 0.985222C51.0673 1.47783 50.5747 1.97044 50.0821 1.97044C37.2742 1.97044 25.1232 6.89655 16.092 16.092C7.06076 25.1232 1.97044 37.2742 1.97044 50.0821C1.97044 62.89 6.89655 75.0411 16.092 84.0723C25.1232 93.1034 37.2742 98.1938 50.0821 98.1938C62.89 98.1938 75.0411 93.2676 84.0723 84.0723C93.1034 75.0411 98.1938 62.89 98.1938 50.0821C98.1938 41.0509 95.7307 32.3481 90.9688 24.6305C86.3711 17.2414 79.803 11.1658 72.0854 7.22496C71.5928 6.89655 71.4286 6.40394 71.5928 5.91133C71.9212 5.41872 72.4138 5.25452 72.9064 5.41872C80.9524 9.52381 87.6847 15.7635 92.6108 23.4811C97.5369 31.3629 100.164 40.5583 100.164 49.9179C100.164 63.2184 94.9097 75.8621 85.5501 85.2217C76.1905 94.5813 63.3826 100 50.0821 100Z" fill="#1D1D1B"/>
<path d="M68.9655 4.2692C68.9655 4.92601 68.4729 5.58282 67.6519 5.58282C66.9951 5.58282 66.3383 5.09021 66.3383 4.2692C66.3383 3.61238 66.8309 2.95557 67.6519 2.95557C68.4729 2.95557 68.9655 3.61238 68.9655 4.2692Z" fill="#1D1D1B"/>
</g>
<defs>
<clipPath id="clip0_236_575">
<rect width="100" height="100" fill="white"/>
</clipPath>
</defs>
</svg>
