<svg width="40" height="40" viewBox="0 0 40 40" fill="none" xmlns="http://www.w3.org/2000/svg">
<path fill-rule="evenodd" clip-rule="evenodd" d="M0 20C0 8.9543 8.9543 0 20 0C31.0457 0 40 8.9543 40 20C40 31.0457 31.0457 40 20 40C8.9543 40 0 31.0457 0 20ZM21.0463 26.5635C21.0463 26.5635 21.4313 26.5215 21.6285 26.3135C21.809 26.123 21.8027 25.7635 21.8027 25.7635C21.8027 25.7635 21.7787 24.0848 22.5728 23.837C23.3553 23.5932 24.3602 25.4603 25.4265 26.1783C26.232 26.7212 26.8435 26.6023 26.8435 26.6023L29.693 26.5635C29.693 26.5635 31.183 26.4733 30.4767 25.3232C30.4182 25.2288 30.0645 24.472 28.3585 22.9172C26.5712 21.2898 26.8112 21.553 28.9627 18.7375C30.2732 17.0228 30.797 15.9761 30.6332 15.5286C30.4777 15.1004 29.5135 15.2141 29.5135 15.2141L26.3062 15.2336C26.3062 15.2336 26.0682 15.2018 25.8918 15.3053C25.7197 15.4067 25.608 15.6433 25.608 15.6433C25.608 15.6433 25.101 16.9697 24.4238 18.0983C22.9953 20.4785 22.4247 20.6045 22.1908 20.457C21.6473 20.1118 21.7828 19.0723 21.7828 18.3338C21.7828 16.0263 22.1398 15.0646 21.089 14.8157C20.7405 14.7327 20.4838 14.6785 19.5917 14.6692C18.4472 14.658 17.4788 14.6733 16.93 14.9366C16.5648 15.1117 16.2831 15.503 16.4552 15.5255C16.667 15.5532 17.147 15.6525 17.4017 15.9925C17.7303 16.4319 17.7188 17.4172 17.7188 17.4172C17.7188 17.4172 17.9077 20.1335 17.2775 20.4703C16.8455 20.7018 16.2528 20.2297 14.9788 18.0697C14.3267 16.9635 13.8342 15.7406 13.8342 15.7406C13.8342 15.7406 13.7392 15.5122 13.5691 15.3893C13.3636 15.2407 13.0767 15.1947 13.0767 15.1947L10.0288 15.2141C10.0288 15.2141 9.5708 15.2264 9.4028 15.422C9.2536 15.5951 9.39133 15.9546 9.39133 15.9546C9.39133 15.9546 11.7776 21.4352 14.4801 24.1975C16.9582 26.7293 19.7712 26.5635 19.7712 26.5635H21.0463Z" fill="#DAAF71"/>
</svg>
