<svg width="100" height="100" viewBox="0 0 100 100" fill="none" xmlns="http://www.w3.org/2000/svg">
<g clip-path="url(#clip0_236_468)">
<path d="M63.0542 54.6797C63.0542 55.665 62.2332 56.486 61.2479 56.486H20.197C19.2118 56.486 18.3908 55.665 18.3908 54.6797V41.5434C18.3908 40.5582 19.2118 39.7372 20.197 39.7372H61.2479C62.2332 39.7372 63.0542 40.5582 63.0542 41.5434V54.6797ZM63.0542 67.3234C63.0542 68.1444 62.3974 68.9655 61.4121 68.9655H55.0082C54.1872 68.9655 53.3662 68.3086 53.3662 67.3234V60.9195C53.3662 60.0985 54.023 59.2774 55.0082 59.2774H61.4121C62.2332 59.2774 63.0542 59.9343 63.0542 60.9195V67.3234ZM63.0542 78.1609C63.0542 78.9819 62.3974 79.8029 61.4121 79.8029H55.0082C54.1872 79.8029 53.3662 79.1461 53.3662 78.1609V71.7569C53.3662 70.9359 54.023 70.1149 55.0082 70.1149H61.4121C62.2332 70.1149 63.0542 70.7717 63.0542 71.7569V78.1609ZM51.3957 67.3234C51.3957 68.1444 50.7389 68.9655 49.7537 68.9655H43.3497C42.5287 68.9655 41.7077 68.3086 41.7077 67.3234V60.9195C41.7077 60.0985 42.3645 59.2774 43.3497 59.2774H49.7537C50.5747 59.2774 51.3957 59.9343 51.3957 60.9195V67.3234ZM51.3957 78.1609C51.3957 78.9819 50.7389 79.8029 49.7537 79.8029H43.3497C42.5287 79.8029 41.7077 79.1461 41.7077 78.1609V71.7569C41.7077 70.9359 42.3645 70.1149 43.3497 70.1149H49.7537C50.5747 70.1149 51.3957 70.7717 51.3957 71.7569V78.1609ZM51.3957 88.9983C51.3957 89.8193 50.7389 90.6403 49.7537 90.6403H43.3497C42.5287 90.6403 41.7077 89.9835 41.7077 88.9983V82.5944C41.7077 81.7733 42.3645 80.9523 43.3497 80.9523H49.7537C50.5747 80.9523 51.3957 81.6091 51.3957 82.5944V88.9983ZM39.7373 67.3234C39.7373 68.1444 39.0805 68.9655 38.0952 68.9655H31.6913C30.8703 68.9655 30.0493 68.3086 30.0493 67.3234V60.9195C30.0493 60.0985 30.7061 59.2774 31.6913 59.2774H38.0952C38.9162 59.2774 39.7373 59.9343 39.7373 60.9195V67.3234ZM39.7373 78.1609C39.7373 78.9819 39.0805 79.8029 38.0952 79.8029H31.6913C30.8703 79.8029 30.0493 79.1461 30.0493 78.1609V71.7569C30.0493 70.9359 30.7061 70.1149 31.6913 70.1149H38.0952C38.9162 70.1149 39.7373 70.7717 39.7373 71.7569V78.1609ZM39.7373 88.9983C39.7373 89.8193 39.0805 90.6403 38.0952 90.6403H31.6913C30.8703 90.6403 30.0493 89.9835 30.0493 88.9983V82.5944C30.0493 81.7733 30.7061 80.9523 31.6913 80.9523H38.0952C38.9162 80.9523 39.7373 81.6091 39.7373 82.5944V88.9983ZM28.243 67.3234C28.243 68.1444 27.5862 68.9655 26.601 68.9655H20.197C19.376 68.9655 18.555 68.3086 18.555 67.3234V60.9195C18.555 60.0985 19.2118 59.2774 20.197 59.2774H26.601C27.422 59.2774 28.243 59.9343 28.243 60.9195V67.3234ZM28.243 78.1609C28.243 78.9819 27.5862 79.8029 26.601 79.8029H20.197C19.376 79.8029 18.555 79.1461 18.555 78.1609V71.7569C18.555 70.9359 19.2118 70.1149 20.197 70.1149H26.601C27.422 70.1149 28.243 70.7717 28.243 71.7569V78.1609ZM65.8456 35.3037H15.5993C14.9425 35.3037 14.2857 35.9605 14.2857 36.6173V83.5796C15.5993 84.8932 16.913 86.2068 18.3908 87.5205V82.7586C18.3908 81.9375 19.0476 81.1165 20.0328 81.1165H26.4368C27.2578 81.1165 28.0788 81.7733 28.0788 82.7586V89.1625C28.0788 89.9835 27.422 90.8045 26.4368 90.8045H22.4959C23.1527 91.2971 23.8095 91.6255 24.4663 92.1182H26.4368C27.2578 92.1182 28.0788 92.775 28.0788 93.7602V94.0886C28.7356 94.417 29.3924 94.7454 29.885 94.9096V93.596C29.885 92.775 30.5419 91.954 31.5271 91.954H37.931C38.752 91.954 39.5731 92.6108 39.5731 93.596V98.0295C40.2299 98.1937 40.8867 98.3579 41.3793 98.3579V93.596C41.3793 92.775 42.0361 91.954 43.0213 91.954H49.4253C50.2463 91.954 51.0673 92.6108 51.0673 93.596V99.0147C51.7241 99.0147 52.3809 99.0147 52.8736 98.8505V82.5944C52.8736 81.7733 53.5304 80.9523 54.5156 80.9523H60.9195C61.7405 80.9523 62.5616 81.6091 62.5616 82.5944V97.2085C63.8752 96.8801 65.353 96.3875 66.6667 95.8948V36.6173C67.1593 35.9605 66.5024 35.3037 65.8456 35.3037Z" fill="white"/>
<path d="M61.2479 41.2153H20.197C20.0328 41.2153 20.0328 41.3795 20.0328 41.3795V54.5158C20.0328 54.68 20.197 54.68 20.197 54.68H61.2479C61.4121 54.68 61.4121 54.5158 61.4121 54.5158V41.3795C61.4121 41.3795 61.4121 41.2153 61.2479 41.2153Z" fill="#CE9543"/>
<path d="M69.1297 21.8389H57.4713C56.9786 21.8389 56.6502 22.1673 56.6502 22.6599C56.6502 23.1525 56.9786 23.4809 57.4713 23.4809H69.1297C69.6223 23.4809 69.9507 23.1525 69.9507 22.6599C70.1149 22.1673 69.6223 21.8389 69.1297 21.8389Z" fill="#C47D2F"/>
<path d="M47.619 18.2266H42.6929V13.3005C42.6929 12.8079 42.3645 12.4795 41.8719 12.4795C41.3793 12.4795 41.0509 12.8079 41.0509 13.3005V18.2266H36.1248C35.6322 18.2266 35.3038 18.555 35.3038 19.0476C35.3038 19.5402 35.6322 19.8687 36.1248 19.8687H41.0509V24.7948C41.0509 25.2874 41.3793 25.6158 41.8719 25.6158C42.3645 25.6158 42.6929 25.2874 42.6929 24.7948V19.8687H47.619C48.1117 19.8687 48.4401 19.5402 48.4401 19.0476C48.6043 18.555 48.1117 18.2266 47.619 18.2266Z" fill="#C47D2F"/>
<path d="M83.5796 40.5582C83.7438 40.7224 83.908 40.8866 84.2364 40.8866C84.4007 40.8866 84.7291 40.7224 84.8933 40.5582C85.2217 40.2298 85.2217 39.573 84.8933 39.2446L81.445 35.7963L84.8933 32.348C85.2217 32.0196 85.2217 31.3628 84.8933 31.0344C84.5649 30.706 83.908 30.706 83.5796 31.0344L79.9672 34.4827L76.5189 31.0344C76.1905 30.706 75.5337 30.706 75.2053 31.0344C74.8768 31.3628 74.8768 32.0196 75.2053 32.348L78.6535 35.7963L75.2053 39.2446C74.8768 39.573 74.8768 40.2298 75.2053 40.5582C75.3695 40.7224 75.5337 40.8866 75.8621 40.8866C76.1905 40.8866 76.3547 40.7224 76.5189 40.5582L79.9672 37.1099L83.5796 40.5582Z" fill="#C47D2F"/>
<path d="M90.8046 52.8735H79.1461C78.6535 52.8735 78.3251 53.2019 78.3251 53.6946C78.3251 54.1872 78.6535 54.5156 79.1461 54.5156H90.8046C91.2972 54.5156 91.6256 54.1872 91.6256 53.6946C91.7898 53.2019 91.2972 52.8735 90.8046 52.8735Z" fill="#C47D2F"/>
<path d="M83.7438 49.4254C83.7438 50.0823 84.2365 50.7391 85.0575 50.7391C85.7143 50.7391 86.3711 50.2465 86.3711 49.4254C86.3711 48.7686 85.8785 48.1118 85.0575 48.1118C84.4007 48.276 83.7438 48.7686 83.7438 49.4254Z" fill="#C47D2F"/>
<path d="M85.0575 56.6504C84.4007 56.6504 83.7438 57.143 83.7438 57.964C83.7438 58.6208 84.2365 59.2776 85.0575 59.2776C85.7143 59.2776 86.3711 58.785 86.3711 57.964C86.3711 57.143 85.7143 56.6504 85.0575 56.6504Z" fill="#C47D2F"/>
<path d="M65.8456 33.8262H15.5993C13.9573 33.8262 12.6437 35.1398 12.6437 36.7818V81.9378C13.1363 82.5946 13.6289 83.0873 14.2857 83.7441V36.6176C14.2857 35.9608 14.9425 35.304 15.5993 35.304H65.8456C66.5025 35.304 67.1593 35.9608 67.1593 36.6176V95.8951C67.6519 95.7309 68.1445 95.5667 68.8013 95.2383V36.6176C68.8013 35.1398 67.4877 33.8262 65.8456 33.8262Z" fill="#1D1D1B"/>
<path d="M26.601 67.3237H20.0328V60.9197H26.4368V67.3237H26.601ZM26.601 59.4419H20.197C19.376 59.4419 18.555 60.0987 18.555 61.0839V67.3237C18.555 68.1447 19.2118 68.9657 20.197 68.9657H26.601C27.422 68.9657 28.243 68.3089 28.243 67.3237V60.9197C28.243 60.0987 27.422 59.4419 26.601 59.4419Z" fill="#1D1D1B"/>
<path d="M38.2594 67.3237H31.6913V60.9197H38.0952V67.3237H38.2594ZM38.0952 59.4419H31.6913C30.8703 59.4419 30.0493 60.0987 30.0493 61.0839V67.3237C30.0493 68.1447 30.7061 68.9657 31.6913 68.9657H38.0952C38.9163 68.9657 39.7373 68.3089 39.7373 67.3237V60.9197C39.7373 60.0987 39.0805 59.4419 38.0952 59.4419Z" fill="#1D1D1B"/>
<path d="M49.9179 67.3237C49.9179 67.3237 49.7537 67.3237 49.9179 67.3237H43.3498V60.9197H49.7537V67.3237H49.9179ZM49.7537 59.4419H43.3498C42.5287 59.4419 41.7077 60.0987 41.7077 61.0839V67.3237C41.7077 68.1447 42.3645 68.9657 43.3498 68.9657H49.7537C50.5747 68.9657 51.3957 68.3089 51.3957 67.3237V60.9197C51.3957 60.0987 50.7389 59.4419 49.7537 59.4419Z" fill="#1D1D1B"/>
<path d="M61.4122 67.3237H54.844V60.9197H61.248V67.3237H61.4122ZM61.4122 59.4419H55.0082C54.1872 59.4419 53.3662 60.0987 53.3662 61.0839V67.3237C53.3662 68.1447 54.023 68.9657 55.0082 68.9657H61.4122C62.2332 68.9657 63.0542 68.3089 63.0542 67.3237V60.9197C63.0542 60.0987 62.3974 59.4419 61.4122 59.4419Z" fill="#1D1D1B"/>
<path d="M26.601 78.1611H20.0328V71.7571H26.4368V78.1611H26.601ZM26.601 70.2793H20.197C19.376 70.2793 18.555 70.9361 18.555 71.9213V78.3253C18.555 79.1463 19.2118 79.9673 20.197 79.9673H26.601C27.422 79.9673 28.243 79.3105 28.243 78.3253V71.9213C28.243 70.9361 27.422 70.2793 26.601 70.2793Z" fill="#1D1D1B"/>
<path d="M38.2594 78.1611H31.6913V71.7571H38.0952V78.1611H38.2594ZM38.0952 70.2793H31.6913C30.8703 70.2793 30.0493 70.9361 30.0493 71.9213V78.3253C30.0493 79.1463 30.7061 79.9673 31.6913 79.9673H38.0952C38.9163 79.9673 39.7373 79.3105 39.7373 78.3253V71.9213C39.7373 70.9361 39.0805 70.2793 38.0952 70.2793Z" fill="#1D1D1B"/>
<path d="M49.9179 78.1611C49.9179 78.1611 49.7537 78.1611 49.9179 78.1611H43.3498V71.7571H49.7537V78.1611H49.9179ZM49.7537 70.2793H43.3498C42.5287 70.2793 41.7077 70.9361 41.7077 71.9213V78.3253C41.7077 79.1463 42.3645 79.9673 43.3498 79.9673H49.7537C50.5747 79.9673 51.3957 79.3105 51.3957 78.3253V71.9213C51.3957 70.9361 50.7389 70.2793 49.7537 70.2793Z" fill="#1D1D1B"/>
<path d="M61.4122 78.1611H54.844V71.7571H61.248V78.1611H61.4122ZM61.4122 70.2793H55.0082C54.1872 70.2793 53.3662 70.9361 53.3662 71.9213V78.3253C53.3662 79.1463 54.023 79.9673 55.0082 79.9673H61.4122C62.2332 79.9673 63.0542 79.3105 63.0542 78.3253V71.9213C63.0542 70.9361 62.3974 70.2793 61.4122 70.2793Z" fill="#1D1D1B"/>
<path d="M28.243 88.9981V82.5942C28.243 81.7732 27.5862 80.9521 26.601 80.9521H20.197C19.376 80.9521 18.555 81.609 18.555 82.5942V87.3561C19.0476 87.8487 19.5402 88.1771 20.197 88.6697V82.5942H26.601V88.9981H20.3612C21.0181 89.4907 21.8391 90.1476 22.4959 90.6402H26.4368C27.422 90.6402 28.243 89.9834 28.243 88.9981Z" fill="#1D1D1B"/>
<path d="M38.2594 88.9985H31.6913V82.5945H38.0952V88.9985H38.2594ZM38.0952 81.1167H31.6913C30.8703 81.1167 30.0493 81.7735 30.0493 82.7587V89.1627C30.0493 89.9837 30.7061 90.8047 31.6913 90.8047H38.0952C38.9163 90.8047 39.7373 90.1479 39.7373 89.1627V82.7587C39.7373 81.7735 39.0805 81.1167 38.0952 81.1167Z" fill="#1D1D1B"/>
<path d="M49.9179 88.9985C49.9179 88.9985 49.7537 88.9985 49.9179 88.9985H43.3498V82.5945H49.7537V88.9985H49.9179ZM49.7537 81.1167H43.3498C42.5287 81.1167 41.7077 81.7735 41.7077 82.7587V89.1627C41.7077 89.9837 42.3645 90.8047 43.3498 90.8047H49.7537C50.5747 90.8047 51.3957 90.1479 51.3957 89.1627V82.7587C51.3957 81.7735 50.7389 81.1167 49.7537 81.1167Z" fill="#1D1D1B"/>
<path d="M61.4122 81.1167H55.0082C54.1872 81.1167 53.3662 81.7735 53.3662 82.7587V99.0149C53.8588 99.0149 54.3514 99.0149 55.0082 98.8507V82.7587H61.4122V97.7013C61.9048 97.5371 62.3974 97.3729 63.0542 97.3729V82.7587C63.0542 81.7735 62.3974 81.1167 61.4122 81.1167Z" fill="#1D1D1B"/>
<path d="M26.601 91.9541H24.6305C25.78 92.6109 27.0936 93.2677 28.243 93.9245V93.5961C28.243 92.6109 27.422 91.9541 26.601 91.9541Z" fill="#1D1D1B"/>
<path d="M38.0952 91.9541H31.6913C30.8703 91.9541 30.0493 92.6109 30.0493 93.5961V94.9098C30.5419 95.074 31.0345 95.4024 31.6913 95.5666V93.5961H38.0952V97.7012C38.5878 97.8654 39.0805 98.0296 39.7373 98.0296V93.5961C39.7373 92.6109 39.0805 91.9541 38.0952 91.9541Z" fill="#1D1D1B"/>
<path d="M49.7537 91.9541H43.3498C42.5287 91.9541 41.7077 92.6109 41.7077 93.5961V98.358C42.2003 98.5222 42.6929 98.5222 43.3498 98.5222V93.5961H49.7537V99.1791H49.9179C50.4105 99.1791 50.9031 99.1791 51.2315 99.1791V93.5961C51.3957 92.6109 50.7389 91.9541 49.7537 91.9541Z" fill="#1D1D1B"/>
<path d="M61.4122 54.6798C61.4122 54.844 61.2479 54.844 61.2479 54.844H20.197C20.0328 54.844 20.0328 54.6798 20.0328 54.6798V41.5435C20.0328 41.3793 20.197 41.3793 20.197 41.3793H61.2479C61.4122 41.3793 61.4122 41.5435 61.4122 41.5435V54.6798ZM61.2479 39.7373H20.197C19.2118 39.7373 18.3908 40.5583 18.3908 41.5435V54.6798C18.3908 55.6651 19.2118 56.4861 20.197 56.4861H61.2479C62.2332 56.4861 63.0542 55.6651 63.0542 54.6798V41.5435C63.0542 40.5583 62.2332 39.7373 61.2479 39.7373Z" fill="#1D1D1B"/>
<path d="M62.89 3.61253C62.7258 3.61253 62.7258 3.61253 62.5616 3.61253C60.9195 3.11992 59.2775 2.79151 57.6355 2.4631C57.1429 2.2989 56.6502 1.80629 56.8145 1.31368C56.9787 0.821065 57.4713 0.328455 57.9639 0.492658C59.7701 0.821065 61.4122 1.14947 63.2184 1.64208C63.711 1.80629 64.0394 2.2989 63.8752 2.79151C63.711 3.44832 63.3826 3.61253 62.89 3.61253Z" fill="#1D1D1B"/>
<path d="M50.0821 100C36.7816 100 24.1379 94.7455 14.7783 85.3859C5.41872 76.0263 0 63.3826 0 50.0821C0 36.7816 5.25452 24.1379 14.6141 14.6141C23.9737 5.09031 36.6174 0 50.0821 0C50.5747 0 51.0673 0.492611 51.0673 0.985222C51.0673 1.47783 50.5747 1.97044 50.0821 1.97044C37.2742 1.97044 25.1232 6.89655 16.092 16.092C7.06076 25.1232 1.97044 37.2742 1.97044 50.0821C1.97044 62.89 6.89655 75.0411 16.092 84.0723C25.1232 93.1034 37.2742 98.1938 50.0821 98.1938C62.89 98.1938 75.0411 93.2676 84.0723 84.0723C93.1034 75.0411 98.1938 62.89 98.1938 50.0821C98.1938 41.0509 95.7307 32.3481 90.9688 24.6305C86.3711 17.2414 79.803 11.1658 72.0854 7.22496C71.5928 6.89655 71.4286 6.40394 71.5928 5.91133C71.9212 5.41872 72.4138 5.25452 72.9064 5.41872C80.9524 9.52381 87.6847 15.7635 92.6108 23.4811C97.5369 31.3629 100.164 40.5583 100.164 49.9179C100.164 63.2184 94.9097 75.8621 85.5501 85.2217C76.1905 94.5813 63.3826 100 50.0821 100Z" fill="#1D1D1B"/>
<path d="M68.9655 4.2692C68.9655 4.92601 68.4729 5.58282 67.6519 5.58282C66.9951 5.58282 66.3383 5.09021 66.3383 4.2692C66.3383 3.61238 66.8309 2.95557 67.6519 2.95557C68.4729 2.95557 68.9655 3.61238 68.9655 4.2692Z" fill="#1D1D1B"/>
</g>
<defs>
<clipPath id="clip0_236_468">
<rect width="100" height="100" fill="white"/>
</clipPath>
</defs>
</svg>
