<svg width="40" height="40" viewBox="0 0 40 40" fill="none" xmlns="http://www.w3.org/2000/svg">
<path fill-rule="evenodd" clip-rule="evenodd" d="M40 20C40 31.0457 31.0457 40 20 40C8.95433 40 0 31.0457 0 20C0 8.95433 8.95433 0 20 0C31.0457 0 40 8.95433 40 20ZM13.3929 18.168C11.3894 19.0427 9.33092 19.9415 7.44855 20.9783C6.46565 21.698 7.77198 22.2072 8.99758 22.6847C9.19242 22.7605 9.38517 22.8357 9.56642 22.9107C9.71725 22.957 9.87058 23.0058 10.026 23.0553C11.3891 23.4897 12.9089 23.9738 14.2322 23.2455C16.4061 21.9967 18.4575 20.553 20.5075 19.1103C21.179 18.6377 21.8505 18.1652 22.526 17.6998C22.5577 17.6795 22.5933 17.6563 22.6323 17.631C23.2078 17.258 24.502 16.4191 24.0232 17.575C22.8912 18.813 21.6787 19.909 20.4595 21.0108C19.6378 21.7535 18.8133 22.4988 18.0083 23.2922C17.3072 23.8617 16.5791 25.0073 17.3642 25.805C19.1725 27.0708 21.009 28.3062 22.8443 29.5405C23.4415 29.9422 24.0388 30.344 24.6348 30.7467C25.645 31.5532 27.2238 30.9007 27.4458 29.6405C27.5447 29.0607 27.6438 28.481 27.743 27.9012C28.291 24.6973 28.839 21.4923 29.3233 18.278C29.3892 17.7737 29.4637 17.2695 29.5383 16.765C29.7193 15.5425 29.9005 14.3184 29.9572 13.0892C29.8113 11.8626 28.3238 12.1323 27.4962 12.4082C23.2418 14.027 19.03 15.7658 14.8349 17.5353C14.3597 17.7458 13.8779 17.9562 13.3929 18.168Z" fill="#DAAF71"/>
</svg>
