<svg width="85" height="85" viewBox="0 0 85 85" fill="none" xmlns="http://www.w3.org/2000/svg">
<path d="M78.3396 34.0985C78.3396 18.985 66.0481 6.65869 50.8994 6.65869C35.7691 6.65869 23.4597 18.9681 23.4597 34.0985C23.4597 41.4401 26.3103 48.334 31.4866 53.5108C36.6633 58.6878 43.5573 61.5386 50.8994 61.5384C66.0299 61.5384 78.3394 49.2288 78.3396 34.0985ZM65.7284 14.0478L50.4444 36.2668L48.208 34.7286L63.4631 12.5513C64.2442 13.0087 65.0013 13.5087 65.7284 14.0478ZM41.605 40.5239L43.0058 34.1727C44.1111 34.9331 51.7509 40.1881 52.8238 40.9262L47.3937 44.5056L41.605 40.5239ZM45.1499 45.9848L41.2398 48.5623C40.9474 48.755 40.6189 48.7422 40.3453 48.5533C40.2116 48.4615 39.9125 48.1966 40.0172 47.7213L41.0259 43.1483L45.1499 45.9848ZM61.2366 11.3941L46.1562 33.3171L43.9199 31.7788L58.6398 10.3794C59.4994 10.6608 60.3595 10.993 61.2366 11.3941ZM25.9499 34.0985C25.9499 20.3413 37.1422 9.14889 50.8994 9.14889C52.6786 9.14889 54.4144 9.33765 56.0892 9.69325L41.1622 31.3935C41.0714 31.5265 41.0038 31.6897 40.9721 31.8311C40.4919 34.0081 38.3686 43.6347 37.5855 47.185C37.2954 48.4997 37.8247 49.8423 38.934 50.6052C39.5006 50.995 40.192 51.1914 40.7351 51.1914H56.9479C57.6357 51.1914 58.193 50.6341 58.193 49.9463C58.193 49.2585 57.6357 48.7012 56.9479 48.7012H45.5538C46.6297 47.992 54.4798 42.8172 55.738 41.988C55.8728 41.9 55.9894 41.7825 56.0787 41.6541L63.0542 31.5132C63.4439 30.9468 63.3004 30.1715 62.734 29.7817C62.1672 29.3921 61.3923 29.5357 61.0023 30.1019L54.7327 39.2169L52.4961 37.6785L67.6595 15.6347C68.3416 16.2546 68.9906 16.9123 69.6003 17.6026L64.299 25.3091C63.9094 25.8757 64.0528 26.651 64.6193 27.0408C65.186 27.4304 65.961 27.287 66.3509 26.7206L71.2216 19.6399C74.134 23.7215 75.8492 28.7136 75.8492 34.0985C75.8491 47.8557 64.6564 59.0482 50.8991 59.0482C44.2222 59.0484 37.9535 56.4564 33.2474 51.7499C28.5416 47.0436 25.9499 40.7748 25.9499 34.0985Z" fill="#CE9543"/>
<path d="M50.8995 0C32.0977 0 16.8014 15.2965 16.8014 34.0983C16.8014 41.0495 18.8968 47.7473 22.774 53.3915C21.2695 54.896 7.15766 69.0058 1.8293 74.3333C-0.60678 76.7692 -0.606946 80.7326 1.82897 83.1689C4.27069 85.6101 8.22247 85.6108 10.6644 83.1689L31.6101 62.2263C36.409 65.5216 41.9959 67.548 47.886 68.063C48.5675 68.1227 49.1746 67.6192 49.2349 66.9311C49.2947 66.246 48.788 65.6422 48.103 65.5822C31.9157 64.1671 19.2917 50.7365 19.2917 34.0985C19.2916 16.6694 33.4708 2.4902 50.8995 2.4902C68.3283 2.4902 82.5078 16.6696 82.5078 34.0985C82.5076 50.3298 69.8519 64.1585 53.6955 65.5813C53.0105 65.6415 52.5042 66.2456 52.5646 66.9308C52.6251 67.6159 53.2297 68.1246 53.9142 68.0617C71.3447 66.527 84.9977 51.8558 84.998 34.0985C84.998 15.2389 69.7621 0 50.8995 0V0ZM8.90329 81.4078C7.4354 82.876 5.05826 82.8765 3.5897 81.408C2.1248 79.9429 2.1248 77.5591 3.5897 76.0942L17.9523 61.7336L23.2661 67.0473L8.90329 81.4078ZM29.5891 60.7254L25.0272 65.2866L19.7136 59.9728L24.2746 55.4124C25.8192 57.3395 27.6088 59.1388 29.5891 60.7254Z" fill="#CE9543"/>
</svg>
