<svg width="58" height="55" viewBox="0 0 58 55" fill="none" xmlns="http://www.w3.org/2000/svg">
<circle cx="24.5" cy="30.5" r="24.5" fill="#DAAF71"/>
<g clip-path="url(#clip0_68_4763)">
<path d="M49.302 22.502C48.993 22.193 48.4922 22.1931 48.1833 22.502L29.9263 40.7591C29.0796 41.6056 27.9541 42.0718 26.7568 42.0718C25.5594 42.0718 24.4338 41.6055 23.5873 40.7591L9.9097 27.0815L16.2487 20.7425L18.4889 22.9827C18.7977 23.2915 19.2985 23.2916 19.6076 22.9827C19.9165 22.674 19.9165 22.1731 19.6076 21.8642L16.808 19.0647C16.4991 18.7558 15.9983 18.7558 15.6893 19.0647L8.23167 26.5222C7.92278 26.831 7.92278 27.3319 8.23167 27.6408L22.4684 41.8776C23.6139 43.0231 25.1368 43.6539 26.7567 43.6539C28.3763 43.6539 29.8993 43.0231 31.0449 41.8777L49.302 23.6205C49.6109 23.3118 49.6109 22.8109 49.302 22.502Z" fill="#1D1D1B"/>
<path d="M57.7683 14.0355L50.3107 6.57786C50.0018 6.26897 49.501 6.26897 49.1921 6.57786L27.2674 28.5027C27.131 28.6391 26.9495 28.7142 26.7567 28.7142C26.5638 28.7142 26.3823 28.6391 26.246 28.5028L21.8448 24.1016C21.5359 23.7927 21.0352 23.7927 20.7262 24.1016C20.4173 24.4104 20.4173 24.9113 20.7262 25.2202L25.1274 29.6214C25.5625 30.0566 26.1412 30.2963 26.7567 30.2963C27.3721 30.2963 27.9507 30.0565 28.386 29.6214L49.7515 8.25589L56.0904 14.5948L50.4204 20.2647C50.1115 20.5735 50.1115 21.0744 50.4204 21.3833C50.7293 21.692 51.23 21.6921 51.539 21.3833L57.7682 15.154C57.9165 15.0058 57.9999 14.8045 57.9999 14.5948C57.9999 14.385 57.9166 14.1838 57.7683 14.0355Z" fill="#1D1D1B"/>
</g>
<defs>
<clipPath id="clip0_68_4763">
<rect width="50" height="50" fill="white" transform="translate(8)"/>
</clipPath>
</defs>
</svg>
