<svg width="100" height="100" viewBox="0 0 100 100" fill="none" xmlns="http://www.w3.org/2000/svg">
<path d="M18.4647 24.4811V73.4438H92.946C93.5684 72.4064 93.9834 71.5765 94.3983 70.5392H22.4066C21.9917 70.5392 21.5768 70.1242 21.5768 69.7093V26.3483C21.5768 25.9334 21.9917 25.5184 22.4066 25.5184H92.5311C92.1162 24.6886 91.4938 23.8587 91.0788 23.0288H20.1245C19.0871 23.0288 18.4647 23.6512 18.4647 24.4811Z" fill="#DAAF71"/>
<path d="M59.3361 76.9707H64.7303C65.1452 76.9707 65.5602 77.3857 65.5602 77.8006C65.5602 78.2155 65.1452 78.6305 64.7303 78.6305H59.3361C58.9212 78.6305 58.5062 78.2155 58.5062 77.8006C58.2987 77.1782 58.7137 76.9707 59.3361 76.9707ZM18.4647 78.6305C18.4647 79.4604 19.0871 80.2902 20.1245 80.2902H52.4896H71.5768H88.5892C89.834 78.6305 91.0788 76.9707 92.1162 75.1035H18.4647V78.6305Z" fill="white"/>
<path d="M43.3618 43.5687H46.8888C47.3037 43.5687 47.7186 43.9836 47.7186 44.3986C47.7186 44.8135 47.3037 45.2285 46.8888 45.2285H43.3618C42.9469 45.2285 42.5319 44.8135 42.5319 44.3986C42.5319 43.9836 42.9469 43.5687 43.3618 43.5687ZM44.3991 37.5521C44.6066 37.1372 45.0215 37.1372 45.4365 37.3446L48.5485 39.2119C48.9635 39.4193 48.9634 39.8343 48.756 40.2492C48.5485 40.4567 48.341 40.6641 48.1336 40.6641C47.9261 40.6641 47.9261 40.6641 47.7186 40.4567L44.6066 38.5894C44.3991 38.382 44.1917 37.7596 44.3991 37.5521ZM49.5859 32.3654C50.0008 32.1579 50.4157 32.3654 50.6232 32.5729L52.4904 35.6849C52.6979 36.0998 52.4904 36.5148 52.283 36.7222C52.0755 36.7222 52.0755 36.9297 51.868 36.9297C51.6605 36.9297 51.2456 36.7222 51.2456 36.5148L49.1709 33.4027C48.9634 33.1953 49.1709 32.5729 49.5859 32.3654ZM55.6025 31.328C55.6025 30.9131 56.0174 30.4982 56.4323 30.4982C56.8473 30.4982 57.2622 30.9131 57.2622 31.328V34.855C57.2622 35.2699 56.8473 35.6849 56.4323 35.6849C56.0174 35.6849 55.6025 35.2699 55.6025 34.855V31.328ZM78.0091 61.826L74.0672 65.5604L64.9386 56.4318L62.034 65.7679L52.0755 39.6268L78.2166 49.5853L68.8805 52.4899L78.0091 61.826ZM23.2373 69.0874H95.0215C97.5112 63.2782 98.9635 56.6392 98.9635 49.7928C98.9635 41.494 96.8888 33.8177 93.3618 26.9712H23.2373V69.0874Z" fill="white"/>
<path d="M53.1126 81.9502C52.9051 85.6846 52.0752 87.7593 51.2454 89.0041H72.4072C71.5773 87.7593 70.7474 85.6846 70.54 81.9502H53.1126Z" fill="#DAAF71"/>
<path d="M49.3774 90.4565H44.6056C43.9832 90.4565 43.1533 91.0789 43.1533 91.4938V91.7013H75.311C76.1409 91.2864 76.7633 90.8714 77.5932 90.249H74.6886H49.3774V90.4565Z" fill="#DAAF71"/>
<path d="M59.337 78.6309H64.7312C65.1461 78.6309 65.561 78.216 65.561 77.8011C65.561 77.3861 65.1461 76.9712 64.7312 76.9712H59.337C58.922 76.9712 58.5071 77.3861 58.5071 77.8011C58.2996 78.216 58.7146 78.6309 59.337 78.6309Z" fill="#C17E13"/>
<path d="M51.8673 39.6265L62.0333 65.7675L64.9378 56.4314L74.0665 65.5601L78.0084 61.8256L68.8798 52.697L78.0084 49.585L51.8673 39.6265Z" fill="#C17E13"/>
<path d="M16.804 24.4816V74.2741C16.804 73.8592 17.2189 73.4443 17.6338 73.4443H18.4637V24.4816C18.4637 23.6517 19.2936 22.8219 20.1235 22.8219H91.0778C90.6629 22.1995 90.4554 21.7845 90.0405 21.1621H20.1235C18.2562 21.3696 16.804 22.8219 16.804 24.4816Z" fill="#1D1D1B"/>
<path d="M17.6338 73.6518C17.2189 73.6518 16.804 74.0667 16.804 74.4817V78.8385C16.804 80.4983 18.2562 81.9506 19.916 81.9506H51.4513C51.4513 81.7431 51.4513 81.3282 51.4513 81.1207C51.4513 80.7057 51.8662 80.2908 52.2811 80.2908H20.1235C19.2936 80.2908 18.4637 79.6684 18.4637 78.6311V75.1041H92.1152C92.5301 74.4817 92.7376 74.0667 92.945 73.4443H18.4637H17.6338V73.6518Z" fill="#1D1D1B"/>
<path d="M72.4059 81.1204C72.4059 81.3279 72.4059 81.7428 72.4059 81.9503H87.3437C87.7586 81.5353 88.1736 80.9129 88.5885 80.2905H71.576C71.991 80.2905 72.4059 80.7055 72.4059 81.1204Z" fill="#1D1D1B"/>
<path d="M21.5767 26.1409V69.9168C21.5767 70.3318 21.9916 70.7467 22.4065 70.7467H94.3982C94.6057 70.1243 94.8132 69.7094 95.0206 69.087H23.2364V26.9708H93.3609C93.1534 26.3484 92.7385 25.9334 92.531 25.311H22.4065C21.9916 25.5185 21.5767 25.726 21.5767 26.1409Z" fill="#1D1D1B"/>
<path d="M71.5765 80.2905H52.4893C52.0744 80.2905 51.6595 80.7055 51.6595 81.1204C51.6595 81.3279 51.6595 81.7428 51.6595 81.9503C51.452 87.137 49.7923 88.5893 49.3773 89.0042H51.452C52.2819 87.7594 53.1118 85.6847 53.3192 81.9503H70.9541C71.1616 85.6847 71.9914 87.7594 72.8213 89.0042H74.896C74.4811 88.5893 72.6138 87.137 72.6138 81.9503C72.6138 81.7428 72.6138 81.5353 72.6138 81.1204C72.4064 80.7055 71.9914 80.2905 71.5765 80.2905Z" fill="#1D1D1B"/>
<path d="M74.6896 89.0044H72.6149H51.4531H49.3784H44.8141C43.3618 89.0044 41.702 90.2492 41.702 91.7015V92.7388C41.702 93.1538 42.117 93.5687 42.5319 93.5687H72.6149C73.6522 93.1538 74.4821 92.5314 75.5195 91.909H43.1543V91.7015C43.1543 91.2866 43.9842 90.6641 44.6066 90.6641H49.3784H74.2746H77.1792C78.0091 90.2492 78.6315 89.6268 79.2539 89.0044C79.0464 89.0044 79.0464 89.0044 78.839 89.0044H74.6896Z" fill="#1D1D1B"/>
<path d="M56.4312 35.6848C56.8461 35.6848 57.2611 35.2698 57.2611 34.8549V31.3279C57.2611 30.913 56.8461 30.498 56.4312 30.498C56.0163 30.498 55.6013 30.913 55.6013 31.3279V34.8549C55.6013 35.2698 56.0163 35.6848 56.4312 35.6848Z" fill="#1D1D1B"/>
<path d="M51.037 36.5147C51.2445 36.7221 51.452 36.9296 51.6594 36.9296C51.8669 36.9296 51.8669 36.9296 52.0744 36.7221C52.4893 36.5147 52.4893 36.0997 52.2818 35.6848L50.4146 32.5727C50.2071 32.1578 49.7922 32.1578 49.3773 32.3653C49.1698 32.5727 48.9623 33.1952 49.1698 33.4026L51.037 36.5147Z" fill="#1D1D1B"/>
<path d="M44.6066 38.589L47.7187 40.4563C47.9261 40.4563 47.9261 40.6637 48.1336 40.6637C48.3411 40.6637 48.756 40.4563 48.756 40.2488C48.9635 39.8339 48.756 39.4189 48.5485 39.2115L45.4365 37.3442C45.0216 37.1368 44.6066 37.3442 44.3992 37.5517C44.1917 37.7592 44.3992 38.3816 44.6066 38.589Z" fill="#1D1D1B"/>
<path d="M43.3613 45.2281H46.8882C47.3032 45.2281 47.7181 44.8132 47.7181 44.3982C47.7181 43.9833 47.3032 43.5684 46.8882 43.5684H43.3613C42.9463 43.5684 42.5314 43.9833 42.5314 44.3982C42.5314 44.8132 42.9463 45.2281 43.3613 45.2281Z" fill="#1D1D1B"/>
<path d="M62.8619 3.73464H62.6545C60.9947 3.3197 59.335 2.90477 57.6752 2.6973C57.0528 2.6973 56.8453 2.07489 56.8453 1.65995C56.8453 1.03755 57.4677 0.830078 57.8827 0.830078C59.5424 1.03755 61.4096 1.45248 63.0694 1.86742C63.6918 2.07489 63.8993 2.48983 63.6918 3.11224C63.6918 3.3197 63.4843 3.73464 62.8619 3.73464Z" fill="#1D1D1B"/>
<path d="M50 100C36.722 100 24.0664 94.8133 14.7303 85.2697C5.39419 75.9336 0 63.278 0 50C0 36.722 5.18672 24.0664 14.7303 14.7303C24.2739 5.18672 36.722 0 50 0C50.6224 0 51.0373 0.414938 51.0373 1.03734C51.0373 1.65975 50.6224 2.07469 50 2.07469C37.1369 2.07469 25.1037 7.05394 15.9751 16.1826C6.84647 25.3112 1.86722 37.3444 1.86722 50.2075C1.86722 63.0705 6.84647 75.1037 15.9751 84.2324C25.1037 93.361 37.1369 98.3402 50 98.3402C62.8631 98.3402 74.8963 93.361 84.0249 84.2324C93.1535 75.1037 98.1328 63.0705 98.1328 50.2075C98.1328 41.2863 95.6431 32.3651 90.8714 24.8963C86.307 17.4274 79.668 11.4108 71.9917 7.46888C71.5768 7.26141 71.3693 6.639 71.5768 6.22407C71.7842 5.80913 72.4066 5.60166 72.8216 5.80913C80.9129 9.95851 87.5519 16.1826 92.5311 23.8589C97.5104 31.7427 100 40.8714 100 50.2075C100 63.4855 94.8133 76.1411 85.2697 85.4772C75.9336 94.6058 63.4855 100 50 100Z" fill="#1D1D1B"/>
<path d="M69.0876 4.14911C69.0876 4.77152 68.4652 5.39392 67.8428 5.39392C67.2204 5.39392 66.598 4.97899 66.598 4.14911C66.598 3.5267 67.2204 2.9043 67.8428 2.9043C68.4652 2.9043 69.0876 3.5267 69.0876 4.14911Z" fill="#1D1D1B"/>
</svg>
