<svg width="95" height="95" viewBox="0 0 95 95" fill="none" xmlns="http://www.w3.org/2000/svg">
<path d="M11.8327 40.0774H75.2357L43.5299 18.6169L11.8327 40.0774ZM77.0244 41.1641C77.0244 41.1641 77.0158 41.1641 77.0072 41.1641H10.0613C9.82047 41.1641 9.60549 41.0064 9.5281 40.7825C9.4507 40.5585 9.53669 40.3179 9.74308 40.1769L15.9495 35.9742L43.2118 17.5136C43.4009 17.3809 43.6589 17.3809 43.8567 17.5136L77.2566 40.1271C77.4543 40.2101 77.5833 40.4009 77.5833 40.6165C77.5833 40.9152 77.3339 41.1641 77.0244 41.1641Z" fill="#C47A2C"/>
<circle cx="19.5" cy="24.5" r="13.5" fill="white"/>
<path d="M19.6757 38.5717C16.8792 38.57 14.146 37.7392 11.8216 36.1843C9.49717 34.6294 7.68598 32.4202 6.61697 29.8361C5.54796 27.252 5.26913 24.4089 5.81574 21.6663C6.36235 18.9237 7.70986 16.4048 9.68789 14.4279C11.6659 12.4511 14.1857 11.1051 16.9286 10.5602C19.6715 10.0152 22.5144 10.2958 25.0979 11.3663C27.6814 12.4369 29.8895 14.2494 31.4429 16.5748C32.9964 18.9001 33.8256 21.6339 33.8256 24.4304C33.821 28.181 32.3285 31.7765 29.6757 34.4278C27.0228 37.0791 23.4263 38.5694 19.6757 38.5717ZM19.6757 11.4005C17.099 11.4022 14.5807 12.1679 12.4391 13.6006C10.2974 15.0334 8.62872 17.069 7.64383 19.45C6.65895 21.831 6.40213 24.4506 6.90585 26.9776C7.40958 29.5046 8.65121 31.8255 10.4738 33.6469C12.2964 35.4683 14.6181 36.7084 17.1454 37.2105C19.6727 37.7125 22.2921 37.454 24.6725 36.4675C27.0529 35.4811 29.0874 33.811 30.5188 31.6685C31.9501 29.5259 32.7141 27.0071 32.7141 24.4304C32.7096 20.9746 31.3342 17.6617 28.8897 15.2189C26.4453 12.776 23.1315 11.4028 19.6757 11.4005Z" fill="#C47A2C"/>
<path d="M21.0655 23.5958H11.5849C11.4815 23.5958 11.3825 23.5373 11.3094 23.4331C11.2364 23.3289 11.1953 23.1875 11.1953 23.0401C11.1953 22.8927 11.2364 22.7514 11.3094 22.6471C11.3825 22.5429 11.4815 22.4844 11.5849 22.4844H21.0655C21.1688 22.4844 21.2679 22.5429 21.3409 22.6471C21.414 22.7514 21.455 22.8927 21.455 23.0401C21.455 23.1875 21.414 23.3289 21.3409 23.4331C21.2679 23.5373 21.1688 23.5958 21.0655 23.5958Z" fill="#C47A2C"/>
<path d="M21.0655 26.5959H11.5849C11.4815 26.5959 11.3825 26.5373 11.3094 26.4331C11.2364 26.3289 11.1953 26.1875 11.1953 26.0401C11.1953 25.8927 11.2364 25.7514 11.3094 25.6472C11.3825 25.5429 11.4815 25.4844 11.5849 25.4844H21.0655C21.1688 25.4844 21.2679 25.5429 21.3409 25.6472C21.414 25.7514 21.455 25.8927 21.455 26.0401C21.455 26.1875 21.414 26.3289 21.3409 26.4331C21.2679 26.5373 21.1688 26.5959 21.0655 26.5959Z" fill="#C47A2C"/>
<path d="M23.5554 32.7344H21.1016C18.927 32.7344 16.8415 31.8705 15.3039 30.3329C13.7662 28.7952 12.9023 26.7097 12.9023 24.5352C12.9023 22.3606 13.7662 20.2751 15.3039 18.7374C16.8415 17.1998 18.927 16.3359 21.1016 16.3359H23.5554C23.7028 16.3359 23.8441 16.3945 23.9483 16.4987C24.0526 16.6029 24.1111 16.7443 24.1111 16.8917C24.1111 17.0391 24.0526 17.1804 23.9483 17.2846C23.8441 17.3889 23.7028 17.4474 23.5554 17.4474H21.1016C19.2218 17.4474 17.419 18.1942 16.0898 19.5234C14.7606 20.8526 14.0138 22.6554 14.0138 24.5352C14.0138 26.4149 14.7606 28.2177 16.0898 29.5469C17.419 30.8762 19.2218 31.6229 21.1016 31.6229H23.5554C23.7028 31.6229 23.8441 31.6814 23.9483 31.7857C24.0526 31.8899 24.1111 32.0312 24.1111 32.1786C24.1111 32.326 24.0526 32.4674 23.9483 32.5716C23.8441 32.6758 23.7028 32.7344 23.5554 32.7344Z" fill="#C47A2C"/>
<path d="M16.9081 72.5165H23.4642V47.02H16.9081V72.5165ZM24.0023 73.6224H16.3701C16.0721 73.6224 15.832 73.3757 15.832 73.0694V46.4671C15.832 46.1608 16.0721 45.9141 16.3701 45.9141H24.0023C24.3003 45.9141 24.5404 46.1608 24.5404 46.4671V73.0694C24.5404 73.3757 24.3003 73.6224 24.0023 73.6224Z" fill="#C47A2C"/>
<path d="M39.9669 72.5165H47.119V47.02H39.9669V72.5165ZM47.706 73.6224H39.3799C39.0548 73.6224 38.793 73.3757 38.793 73.0694V46.4671C38.793 46.1608 39.0548 45.9141 39.3799 45.9141H47.706C48.0311 45.9141 48.293 46.1608 48.293 46.4671V73.0694C48.293 73.3757 48.0311 73.6224 47.706 73.6224Z" fill="#C47A2C"/>
<path d="M62.9149 72.5165H70.067V47.02H62.9149V72.5165ZM70.663 73.6224H62.337C62.0119 73.6224 61.75 73.3757 61.75 73.0694V46.4671C61.75 46.1608 62.0119 45.9141 62.337 45.9141H70.663C70.9881 45.9141 71.25 46.1608 71.25 46.4671V73.0694C71.25 73.3757 70.9791 73.6224 70.663 73.6224Z" fill="#C47A2C"/>
<path d="M38.3724 45.6178H48.7083V41.4655H38.3724V45.6178ZM49.291 46.7083H37.7897C37.467 46.7083 37.207 46.465 37.207 46.1631V40.9203C37.207 40.6183 37.467 40.375 37.7897 40.375H49.291C49.6137 40.375 49.8737 40.6183 49.8737 40.9203V46.1631C49.8737 46.4567 49.6137 46.7083 49.291 46.7083Z" fill="#C47A2C"/>
<path d="M62.0496 45.6178H71.7395V41.4655H62.0496V45.6178ZM72.2857 46.7083H61.5033C61.2007 46.7083 60.957 46.465 60.957 46.1631V40.9203C60.957 40.6183 61.2007 40.375 61.5033 40.375H72.2857C72.5883 40.375 72.832 40.6183 72.832 40.9203V46.1631C72.832 46.4567 72.5883 46.7083 72.2857 46.7083Z" fill="#C47A2C"/>
<path d="M15.3425 45.6178H25.0325V41.4655H15.3425V45.6178ZM25.5787 46.7083H14.7963C14.4937 46.7083 14.25 46.465 14.25 46.1631V40.9203C14.25 40.6183 14.4937 40.375 14.7963 40.375H25.5787C25.8813 40.375 26.125 40.6183 26.125 40.9203V46.1631C26.125 46.4567 25.8813 46.7083 25.5787 46.7083Z" fill="#C47A2C"/>
<path d="M38.3724 78.0872H48.7083V73.9348H38.3724V78.0872ZM49.291 79.1693H37.7897C37.467 79.1693 37.207 78.926 37.207 78.624V73.3812C37.207 73.0792 37.467 72.8359 37.7897 72.8359H49.291C49.6137 72.8359 49.8737 73.0792 49.8737 73.3812V78.624C49.8737 78.926 49.6137 79.1693 49.291 79.1693Z" fill="#C47A2C"/>
<path d="M62.0496 78.0872H71.7395V73.9348H62.0496V78.0872ZM72.2857 79.1693H61.5033C61.2007 79.1693 60.957 78.926 60.957 78.624V73.3812C60.957 73.0792 61.2007 72.8359 61.5033 72.8359H72.2857C72.5883 72.8359 72.832 73.0792 72.832 73.3812V78.624C72.832 78.926 72.5883 79.1693 72.2857 79.1693Z" fill="#C47A2C"/>
<path d="M15.3425 78.0872H25.0325V73.9348H15.3425V78.0872ZM25.5787 79.1693H14.7963C14.4937 79.1693 14.25 78.926 14.25 78.624V73.3812C14.25 73.0792 14.4937 72.8359 14.7963 72.8359H25.5787C25.8813 72.8359 26.125 73.0792 26.125 73.3812V78.624C26.125 78.926 25.8813 79.1693 25.5787 79.1693Z" fill="#C47A2C"/>
<path d="M11.4075 83.6528H76.4701V79.4144H11.4075V83.6528ZM77.0274 84.7083H10.8503C10.5416 84.7083 10.293 84.4746 10.293 84.1846V78.8987C10.293 78.6086 10.5416 78.375 10.8503 78.375H77.0274C77.336 78.375 77.5846 78.6086 77.5846 78.8987V84.1846C77.5846 84.4666 77.336 84.7083 77.0274 84.7083Z" fill="#C47A2C"/>
<path d="M43.543 27.9177C41.4787 27.9177 39.7905 29.4231 39.7905 31.2682C39.7905 33.1133 41.4711 34.6111 43.543 34.6111C45.6149 34.6111 47.2954 33.1133 47.2954 31.2682C47.2954 29.4231 45.6072 27.9177 43.543 27.9177ZM43.543 35.6224C40.9262 35.6224 38.793 33.6692 38.793 31.2682C38.793 28.8673 40.9262 26.9141 43.543 26.9141C46.1597 26.9141 48.293 28.8673 48.293 31.2682C48.293 33.6692 46.1597 35.6224 43.543 35.6224Z" fill="#C47A2C"/>
<circle cx="74.5" cy="67.5" r="14.5" fill="white"/>
<path d="M74.6093 81.3217C71.8128 81.32 69.0796 80.4892 66.7552 78.9343C64.4308 77.3794 62.6196 75.1702 61.5506 72.5861C60.4815 70.002 60.2027 67.1589 60.7493 64.4163C61.2959 61.6737 62.6434 59.1548 64.6215 57.1779C66.5995 55.2011 69.1193 53.8551 71.8622 53.3102C74.6051 52.7652 77.448 53.0458 80.0315 54.1163C82.615 55.1869 84.823 56.9994 86.3765 59.3248C87.93 61.6501 88.7592 64.3839 88.7592 67.1804C88.7546 70.931 87.2621 74.5265 84.6093 77.1778C81.9564 79.8291 78.3599 81.3194 74.6093 81.3217ZM74.6093 54.1505C72.0326 54.1522 69.5143 54.9179 67.3727 56.3506C65.231 57.7834 63.5623 59.819 62.5774 62.2C61.5925 64.581 61.3357 67.2006 61.8394 69.7276C62.3432 72.2546 63.5848 74.5755 65.4074 76.3969C67.23 78.2183 69.5517 79.4584 72.079 79.9605C74.6063 80.4625 77.2257 80.204 79.6061 79.2175C81.9865 78.2311 84.021 76.561 85.4524 74.4185C86.8837 72.2759 87.6477 69.7571 87.6477 67.1804C87.6432 63.7246 86.2678 60.4117 83.8233 57.9689C81.3789 55.526 78.0651 54.1528 74.6093 54.1505Z" fill="#C47A2C"/>
<path d="M74.6759 76.7611C73.6086 76.7679 72.5545 76.5249 71.5979 76.0515C70.8912 75.6597 70.3011 75.0873 69.888 74.3928C69.3782 73.5763 69.084 72.6438 69.033 71.6825C69.0272 71.6095 69.0358 71.5361 69.0585 71.4664C69.0812 71.3967 69.1174 71.3322 69.165 71.2766C69.2127 71.221 69.2709 71.1754 69.3363 71.1423C69.4017 71.1093 69.4729 71.0895 69.546 71.0841C69.6186 71.0783 69.6916 71.087 69.7607 71.1097C69.8299 71.1325 69.8938 71.1688 69.9488 71.2166C70.0037 71.2644 70.0486 71.3226 70.0807 71.3879C70.1128 71.4533 70.1316 71.5244 70.1359 71.597C70.1703 72.3753 70.3964 73.1331 70.7943 73.8029C71.1065 74.3282 71.5518 74.7617 72.0853 75.0597C73.7952 75.9147 76.5226 75.9147 77.9846 74.3928C78.3442 74.0118 78.6246 73.5632 78.8095 73.073C78.9945 72.5828 79.0802 72.0608 79.0619 71.5372C79.0652 71.0467 78.9782 70.5598 78.8054 70.1008C78.6471 69.6863 78.4023 69.3103 78.0872 68.9979C77.73 68.6392 77.3097 68.3494 76.8475 68.1429C76.1376 67.8516 75.4058 67.6172 74.6587 67.4419C73.5316 67.188 72.4424 66.7885 71.4184 66.2534C70.7469 65.8828 70.1951 65.3281 69.8281 64.6546C69.4592 63.957 69.2711 63.178 69.281 62.3889C69.2616 61.7014 69.3949 61.0181 69.6714 60.3883C69.9478 59.7585 70.3605 59.1978 70.8798 58.7467C71.9123 57.9403 73.1955 57.5226 74.5049 57.5669C75.7845 57.5159 77.042 57.9119 78.0616 58.6869C78.9967 59.4812 79.5906 60.6046 79.7202 61.8247C79.7398 61.9696 79.7014 62.1165 79.6133 62.2333C79.5253 62.3502 79.3947 62.4276 79.25 62.4488C79.1779 62.4609 79.1041 62.4581 79.033 62.4408C78.962 62.4234 78.8953 62.3917 78.8369 62.3478C78.7785 62.3038 78.7297 62.2483 78.6934 62.1849C78.6571 62.1214 78.6341 62.0512 78.6258 61.9786C78.5288 61.0288 78.0695 60.1531 77.3434 59.5333C76.5232 58.9314 75.5211 58.6295 74.5049 58.6784C73.4631 58.6367 72.439 58.9569 71.6065 59.5846C71.208 59.9321 70.8921 60.3642 70.6821 60.8494C70.472 61.3346 70.3731 61.8606 70.3924 62.3889C70.3854 62.9841 70.5264 63.5717 70.8028 64.0989C71.0683 64.5869 71.4691 64.9877 71.957 65.2531C72.9004 65.743 73.9034 66.108 74.9409 66.3389C75.7428 66.5325 76.5288 66.7869 77.2921 67.0999C77.8816 67.3464 78.4184 67.7033 78.8738 68.1515C79.3002 68.5712 79.6299 69.0789 79.8399 69.6392C80.0626 70.2263 80.1757 70.8494 80.1734 71.4774C80.1921 72.1417 80.0794 72.8032 79.8417 73.4238C79.604 74.0445 79.246 74.612 78.7883 75.0939C78.2514 75.6357 77.61 76.0628 76.9031 76.3494C76.1962 76.636 75.4385 76.776 74.6759 76.7611Z" fill="#C47A2C"/>
<path d="M74.6104 78.6247C74.463 78.6247 74.3217 78.5662 74.2174 78.462C74.1132 78.3577 74.0547 78.2164 74.0547 78.069V56.3526C74.0547 56.2052 74.1132 56.0639 74.2174 55.9596C74.3217 55.8554 74.463 55.7969 74.6104 55.7969C74.7578 55.7969 74.8992 55.8554 75.0034 55.9596C75.1076 56.0639 75.1661 56.2052 75.1661 56.3526V78.069C75.1661 78.2164 75.1076 78.3577 75.0034 78.462C74.8992 78.5662 74.7578 78.6247 74.6104 78.6247Z" fill="#C47A2C"/>
</svg>
