<svg width="86" height="86" viewBox="0 0 86 86" fill="none" xmlns="http://www.w3.org/2000/svg">
<path d="M8.7132 19.7153C8.42711 19.7153 8.15267 19.8287 7.94952 20.0309C7.74636 20.2332 7.63103 20.5078 7.6286 20.795V67.9332C7.63103 68.2204 7.74636 68.495 7.94952 68.6973C8.15267 68.8995 8.42711 69.0129 8.7132 69.0129H69.9322V61.2612C69.9322 61.1021 69.995 60.9495 70.107 60.837C70.2191 60.7245 70.3711 60.6613 70.5296 60.6613H77.9568V20.795C77.9568 20.5086 77.8434 20.234 77.6417 20.0316C77.4401 19.8291 77.1664 19.7153 76.8812 19.7153H73.0574V22.1331C73.0574 22.5418 72.8958 22.9338 72.6079 23.2228C72.32 23.5118 71.9295 23.6742 71.5224 23.6742H68.5808C68.3792 23.6742 68.1797 23.6344 67.9935 23.5569C67.8072 23.4795 67.638 23.3659 67.4955 23.2228C67.353 23.0797 67.2398 22.9099 67.1627 22.7229C67.0855 22.5359 67.0458 22.3355 67.0458 22.1331V19.7153H59.4071V22.1331C59.4047 22.5427 59.2409 22.9346 58.9516 23.2234C58.6622 23.5121 58.2709 23.6742 57.8629 23.6742H54.9307C54.5228 23.6742 54.1314 23.5121 53.8421 23.2234C53.5528 22.9346 53.389 22.5427 53.3865 22.1331V19.7153H45.7479V22.1331C45.7455 22.5427 45.5817 22.9346 45.2924 23.2234C45.003 23.5121 44.6117 23.6742 44.2037 23.6742H41.2621C40.8566 23.6718 40.4686 23.5084 40.1827 23.2196C39.8968 22.9309 39.7363 22.5402 39.7363 22.1331V19.7153H32.0885V22.1331C32.0885 22.5418 31.9268 22.9338 31.639 23.2228C31.3511 23.5118 30.9606 23.6742 30.5535 23.6742H27.6121C27.4105 23.6742 27.2108 23.6344 27.0245 23.5569C26.8383 23.4795 26.6691 23.3659 26.5266 23.2228C26.384 23.0797 26.2709 22.9099 26.1938 22.7229C26.1166 22.5359 26.0768 22.3355 26.0768 22.1331V19.7153H18.4292V22.1331C18.4292 22.5418 18.2674 22.9338 17.9795 23.2228C17.6916 23.5118 17.3011 23.6742 16.894 23.6742H13.9618C13.5538 23.6742 13.1625 23.5121 12.8732 23.2234C12.5838 22.9346 12.42 22.5427 12.4176 22.1331V19.7153H8.7132ZM70.5296 70.2034H8.7132C8.11019 70.2034 7.53184 69.9635 7.10459 69.5363C6.67734 69.1091 6.43603 68.5294 6.43359 67.924V20.795C6.43603 20.1896 6.67734 19.6099 7.10459 19.1827C7.53184 18.7555 8.11019 18.5156 8.7132 18.5156H13.0702C13.2287 18.5156 13.3807 18.5788 13.4928 18.6913C13.6048 18.8038 13.6676 18.9563 13.6676 19.1154V22.1331C13.6676 22.1787 13.6769 22.2239 13.6945 22.2659C13.7122 22.308 13.738 22.3461 13.7706 22.3779C13.8032 22.4097 13.8416 22.4347 13.8839 22.4513C13.9263 22.4679 13.9716 22.4758 14.017 22.4745H16.9492C17.0394 22.4745 17.126 22.4386 17.1898 22.3746C17.2536 22.3105 17.2894 22.2237 17.2894 22.1331V19.1154C17.2894 18.9563 17.3522 18.8038 17.4643 18.6913C17.5763 18.5788 17.7284 18.5156 17.8868 18.5156H26.7297C26.8881 18.5156 27.04 18.5788 27.152 18.6913C27.2641 18.8038 27.3271 18.9563 27.3271 19.1154V22.1331C27.3294 22.2229 27.3659 22.3084 27.4292 22.372C27.4924 22.4355 27.5778 22.4722 27.6673 22.4745H30.6087C30.6981 22.4722 30.7833 22.4355 30.8466 22.372C30.9098 22.3084 30.9463 22.2229 30.9487 22.1331V19.1154C30.9487 18.9563 31.0117 18.8038 31.1237 18.6913C31.2358 18.5788 31.3878 18.5156 31.5463 18.5156H40.3889C40.5474 18.5156 40.6994 18.5788 40.8115 18.6913C40.9235 18.8038 40.9865 18.9563 40.9865 19.1154V22.1331C40.9865 22.2221 41.021 22.3076 41.0828 22.3714C41.1446 22.4351 41.2287 22.4721 41.3173 22.4745H44.2587C44.3041 22.4758 44.3494 22.4679 44.3918 22.4513C44.4341 22.4347 44.4728 22.4097 44.5053 22.3779C44.5379 22.3461 44.5637 22.308 44.5814 22.2659C44.5991 22.2239 44.6081 22.1787 44.6081 22.1331V19.1154C44.6081 18.9563 44.6711 18.8038 44.7832 18.6913C44.8952 18.5788 45.047 18.5156 45.2055 18.5156H54.0391C54.1976 18.5156 54.3494 18.5788 54.4615 18.6913C54.5735 18.8038 54.6365 18.9563 54.6365 19.1154V22.1331C54.6389 22.2245 54.6768 22.3114 54.742 22.3751C54.8073 22.4389 54.8949 22.4746 54.9859 22.4745H57.9182C58.0092 22.4746 58.0966 22.4389 58.1619 22.3751C58.2271 22.3114 58.2649 22.2245 58.2673 22.1331V19.1154C58.2673 18.9563 58.3303 18.8038 58.4424 18.6913C58.5544 18.5788 58.7065 18.5156 58.865 18.5156H67.6984C67.8568 18.5156 68.0089 18.5788 68.1209 18.6913C68.233 18.8038 68.296 18.9563 68.296 19.1154V22.1331C68.2947 22.1783 68.3027 22.2232 68.3193 22.2652C68.336 22.3072 68.3609 22.3454 68.3927 22.3774C68.4245 22.4094 68.4626 22.4345 68.5045 22.4512C68.5463 22.4679 68.591 22.4758 68.636 22.4745H71.5774C71.6668 22.4722 71.7522 22.4355 71.8155 22.372C71.8788 22.3084 71.9153 22.2229 71.9176 22.1331V19.1154C71.9176 18.9563 71.9806 18.8038 72.0926 18.6913C72.2047 18.5788 72.3565 18.5156 72.515 18.5156H76.8812C77.4826 18.5181 78.0587 18.759 78.484 19.1859C78.9092 19.6128 79.1492 20.1912 79.1516 20.795V61.2519C79.1516 61.411 79.0888 61.5636 78.9768 61.6761C78.8647 61.7885 78.7127 61.8517 78.5542 61.8517H71.127V69.6035C71.127 69.7626 71.0642 69.9152 70.9522 70.0277C70.8401 70.1402 70.688 70.2034 70.5296 70.2034V70.2034Z" fill="#C47A2C"/>
<path d="M78.5698 30.6528H7.04661C6.88815 30.6528 6.73631 30.5896 6.62426 30.4771C6.51221 30.3646 6.44922 30.2121 6.44922 30.053C6.44922 29.8939 6.51221 29.7413 6.62426 29.6288C6.73631 29.5163 6.88815 29.4531 7.04661 29.4531H78.5698C78.7283 29.4531 78.8804 29.5163 78.9924 29.6288C79.1045 29.7413 79.1672 29.8939 79.1672 30.053C79.1672 30.2121 79.1045 30.3646 78.9924 30.4771C78.8804 30.5896 78.7283 30.6528 78.5698 30.6528V30.6528Z" fill="#C47A2C"/>
<path d="M13.9973 15.7558C13.9519 15.7545 13.9066 15.7624 13.8642 15.779C13.8219 15.7957 13.7835 15.8206 13.7509 15.8524C13.7184 15.8843 13.6925 15.9223 13.6748 15.9644C13.6572 16.0064 13.6481 16.0516 13.6481 16.0972V22.1325C13.6481 22.1781 13.6572 22.2233 13.6748 22.2653C13.6925 22.3074 13.7184 22.3455 13.7509 22.3773C13.7835 22.4091 13.8219 22.4341 13.8642 22.4507C13.9066 22.4673 13.9519 22.4752 13.9973 22.474H16.9295C17.0197 22.474 17.1063 22.438 17.1701 22.374C17.2339 22.31 17.2697 22.2231 17.2697 22.1325V16.0972C17.271 16.052 17.263 16.007 17.2464 15.965C17.2298 15.923 17.2046 15.8849 17.1728 15.8529C17.141 15.821 17.1031 15.7959 17.0613 15.7792C17.0194 15.7624 16.9745 15.7545 16.9295 15.7558H13.9973ZM16.9295 23.6736H13.9973C13.5893 23.6736 13.198 23.5116 12.9087 23.2228C12.6193 22.9341 12.4556 22.5421 12.4531 22.1325V16.0972C12.4531 15.686 12.6157 15.2917 12.9053 15.001C13.1949 14.7102 13.5878 14.5469 13.9973 14.5469H16.9295C17.3375 14.5493 17.7281 14.7137 18.0157 15.0042C18.3033 15.2947 18.4648 15.6876 18.4647 16.0972V22.1325C18.4647 22.5413 18.3029 22.9332 18.015 23.2222C17.7271 23.5113 17.3367 23.6736 16.9295 23.6736V23.6736Z" fill="#C47A2C"/>
<path d="M27.6485 15.7558C27.5583 15.7558 27.4717 15.7917 27.4079 15.8558C27.3441 15.9198 27.3083 16.0067 27.3083 16.0972V22.1325C27.3106 22.2223 27.3471 22.3079 27.4104 22.3714C27.4737 22.4349 27.559 22.4716 27.6485 22.474H30.5899C30.6794 22.4716 30.7645 22.4349 30.8278 22.3714C30.8911 22.3079 30.9276 22.2223 30.9299 22.1325V16.0972C30.9299 16.0067 30.894 15.9198 30.8303 15.8558C30.7665 15.7917 30.6801 15.7558 30.5899 15.7558H27.6485ZM30.5899 23.6736H27.6485C27.2414 23.6736 26.8509 23.5113 26.563 23.2222C26.2751 22.9332 26.1133 22.5413 26.1133 22.1325V16.0972C26.1133 15.6876 26.2747 15.2947 26.5623 15.0042C26.85 14.7137 27.2405 14.5493 27.6485 14.5469H30.5899C30.9979 14.5493 31.3882 14.7137 31.6758 15.0042C31.9635 15.2947 32.1249 15.6876 32.1249 16.0972V22.1325C32.1249 22.5413 31.9633 22.9332 31.6754 23.2222C31.3875 23.5113 30.997 23.6736 30.5899 23.6736V23.6736Z" fill="#C47A2C"/>
<path d="M41.2953 15.7558C41.2511 15.7558 41.2073 15.7646 41.1665 15.7819C41.1258 15.7992 41.089 15.8245 41.0581 15.8563C41.0273 15.8882 41.0031 15.9258 40.987 15.9672C40.9709 16.0086 40.9633 16.0528 40.9645 16.0972V22.1325C40.9645 22.2215 40.999 22.307 41.0608 22.3708C41.1226 22.4346 41.2067 22.4716 41.2953 22.474H44.2367C44.2822 22.4752 44.3275 22.4673 44.3698 22.4507C44.4121 22.4341 44.4508 22.4091 44.4834 22.3773C44.5159 22.3455 44.5418 22.3074 44.5594 22.2653C44.5771 22.2233 44.5862 22.1781 44.5861 22.1325V16.0972C44.5862 16.0516 44.5771 16.0064 44.5594 15.9644C44.5418 15.9223 44.5159 15.8843 44.4834 15.8524C44.4508 15.8206 44.4121 15.7957 44.3698 15.779C44.3275 15.7624 44.2822 15.7545 44.2367 15.7558H41.2953ZM44.2367 23.6736H41.2953C40.8898 23.6712 40.5018 23.5078 40.2159 23.219C39.93 22.9303 39.7695 22.5397 39.7695 22.1325V16.0972C39.7695 15.6892 39.9296 15.2976 40.2152 15.0074C40.5009 14.7172 40.889 14.5517 41.2953 14.5469H44.2367C44.6463 14.5469 45.0391 14.7102 45.3287 15.001C45.6183 15.2917 45.7812 15.686 45.7812 16.0972V22.1325C45.7787 22.5421 45.6149 22.9341 45.3256 23.2228C45.0363 23.5116 44.6447 23.6736 44.2367 23.6736Z" fill="#C47A2C"/>
<path d="M54.9624 15.7558C54.917 15.7545 54.8716 15.7624 54.8293 15.779C54.787 15.7957 54.7485 15.8206 54.716 15.8524C54.6834 15.8843 54.6573 15.9223 54.6397 15.9644C54.622 16.0064 54.613 16.0516 54.613 16.0972V22.1325C54.6154 22.2239 54.6532 22.3108 54.7185 22.3745C54.7837 22.4383 54.8713 22.474 54.9624 22.474H57.8946C57.9857 22.474 58.0731 22.4383 58.1383 22.3745C58.2036 22.3108 58.2414 22.2239 58.2438 22.1325V16.0972C58.2438 16.0516 58.2347 16.0064 58.2171 15.9644C58.1994 15.9223 58.1736 15.8843 58.141 15.8524C58.1084 15.8206 58.07 15.7957 58.0277 15.779C57.9853 15.7624 57.94 15.7545 57.8946 15.7558H54.9624ZM57.8946 23.6736H54.9624C54.5544 23.6736 54.1629 23.5116 53.8735 23.2228C53.5842 22.9341 53.4204 22.5421 53.418 22.1325V16.0972C53.418 15.686 53.5808 15.2917 53.8704 15.001C54.16 14.7102 54.5528 14.5469 54.9624 14.5469H57.8946C58.3034 14.5493 58.6948 14.7134 58.9839 15.0036C59.273 15.2938 59.4364 15.6868 59.4388 16.0972V22.1325C59.4364 22.5421 59.2726 22.9341 58.9832 23.2228C58.6939 23.5116 58.3026 23.6736 57.8946 23.6736V23.6736Z" fill="#C47A2C"/>
<path d="M68.617 15.7558C68.572 15.7545 68.5274 15.7624 68.4855 15.7792C68.4437 15.7959 68.4056 15.821 68.3738 15.8529C68.3419 15.8849 68.317 15.923 68.3004 15.965C68.2837 16.007 68.2758 16.052 68.277 16.0972V22.1325C68.2758 22.1777 68.2837 22.2227 68.3004 22.2647C68.317 22.3067 68.3419 22.3448 68.3738 22.3768C68.4056 22.4088 68.4437 22.4339 68.4855 22.4506C68.5274 22.4673 68.572 22.4752 68.617 22.474H71.5587C71.6481 22.4716 71.7332 22.4349 71.7965 22.3714C71.8598 22.3079 71.8963 22.2223 71.8986 22.1325V16.0972C71.8986 16.0067 71.8628 15.9198 71.799 15.8558C71.7352 15.7917 71.6489 15.7558 71.5587 15.7558H68.617ZM71.5587 23.6736H68.617C68.2099 23.6736 67.8194 23.5113 67.5315 23.2222C67.2437 22.9332 67.082 22.5413 67.082 22.1325V16.0972C67.082 15.6876 67.2435 15.2947 67.5311 15.0042C67.8187 14.7137 68.2091 14.5493 68.617 14.5469H71.5587C71.9666 14.5493 72.357 14.7137 72.6446 15.0042C72.9322 15.2947 73.0937 15.6876 73.0937 16.0972V22.1325C73.0937 22.5413 72.9318 22.9332 72.6439 23.2222C72.356 23.5113 71.9658 23.6736 71.5587 23.6736V23.6736Z" fill="#C47A2C"/>
<path d="M70.6553 70.0421C70.5014 70.0414 70.3536 69.982 70.2417 69.876C70.1861 69.8203 70.1421 69.7541 70.112 69.6813C70.0819 69.6084 70.0664 69.5304 70.0664 69.4515C70.0664 69.3726 70.0819 69.2945 70.112 69.2217C70.1421 69.1489 70.1861 69.0827 70.2417 69.027L78.1101 60.8415C78.1644 60.7845 78.2294 60.7388 78.3013 60.7071C78.3732 60.6753 78.4506 60.6581 78.5291 60.6564C78.6076 60.6547 78.6857 60.6685 78.7589 60.6971C78.8321 60.7257 78.899 60.7685 78.9557 60.823C79.0124 60.8775 79.0581 60.9428 79.0897 61.015C79.1213 61.0871 79.1385 61.1649 79.1402 61.2437C79.1419 61.3225 79.128 61.401 79.0996 61.4745C79.0711 61.5479 79.0284 61.6151 78.9741 61.672L71.0967 69.8576C71.0415 69.9169 70.9745 69.964 70.9001 69.9958C70.8257 70.0276 70.7453 70.0434 70.6645 70.0421H70.6553Z" fill="#C47A2C"/>
<path d="M26.2191 41.5903H13.6445C13.566 41.5903 13.4883 41.5748 13.4158 41.5446C13.3433 41.5145 13.2774 41.4703 13.2219 41.4146C13.1664 41.3589 13.1225 41.2928 13.0924 41.22C13.0624 41.1472 13.0469 41.0692 13.0469 40.9904C13.0469 40.9117 13.0624 40.8337 13.0924 40.7609C13.1225 40.6881 13.1664 40.622 13.2219 40.5663C13.2774 40.5106 13.3433 40.4664 13.4158 40.4362C13.4883 40.4061 13.566 40.3906 13.6445 40.3906H26.2191C26.3776 40.3906 26.5294 40.4538 26.6415 40.5663C26.7535 40.6788 26.8165 40.8313 26.8165 40.9904C26.8165 41.1495 26.7535 41.3021 26.6415 41.4146C26.5294 41.5271 26.3776 41.5903 26.2191 41.5903V41.5903Z" fill="#C47A2C"/>
<path d="M49.0627 41.5903H36.488C36.3296 41.5903 36.1777 41.5271 36.0657 41.4146C35.9536 41.3021 35.8906 41.1495 35.8906 40.9904C35.8906 40.8313 35.9536 40.6788 36.0657 40.5663C36.1777 40.4538 36.3296 40.3906 36.488 40.3906H49.0627C49.2211 40.3906 49.3732 40.4538 49.4852 40.5663C49.5973 40.6788 49.6603 40.8313 49.6603 40.9904C49.6603 41.1495 49.5973 41.3021 49.4852 41.4146C49.3732 41.5271 49.2211 41.5903 49.0627 41.5903V41.5903Z" fill="#C47A2C"/>
<path d="M71.8974 41.5903H59.332C59.2535 41.5903 59.1758 41.5748 59.1033 41.5446C59.0308 41.5145 58.9649 41.4703 58.9094 41.4146C58.8539 41.3589 58.81 41.2928 58.7799 41.22C58.7499 41.1472 58.7344 41.0692 58.7344 40.9904C58.7344 40.9117 58.7499 40.8337 58.7799 40.7609C58.81 40.6881 58.8539 40.622 58.9094 40.5663C58.9649 40.5106 59.0308 40.4664 59.1033 40.4362C59.1758 40.4061 59.2535 40.3906 59.332 40.3906H71.8974C71.9759 40.3906 72.0536 40.4061 72.1261 40.4362C72.1986 40.4664 72.2645 40.5106 72.32 40.5663C72.3755 40.622 72.4195 40.6881 72.4495 40.7609C72.4795 40.8337 72.4948 40.9117 72.4948 40.9904C72.4948 41.0692 72.4795 41.1472 72.4495 41.22C72.4195 41.2928 72.3755 41.3589 72.32 41.4146C72.2645 41.4703 72.1986 41.5145 72.1261 41.5446C72.0536 41.5748 71.9759 41.5903 71.8974 41.5903V41.5903Z" fill="#C47A2C"/>
<path d="M26.2191 50.4028H13.6445C13.486 50.4028 13.334 50.3396 13.2219 50.2271C13.1099 50.1146 13.0469 49.962 13.0469 49.8029C13.0469 49.6438 13.1099 49.4913 13.2219 49.3788C13.334 49.2663 13.486 49.2031 13.6445 49.2031H26.2191C26.3776 49.2031 26.5294 49.2663 26.6415 49.3788C26.7535 49.4913 26.8165 49.6438 26.8165 49.8029C26.8165 49.962 26.7535 50.1146 26.6415 50.2271C26.5294 50.3396 26.3776 50.4028 26.2191 50.4028Z" fill="#C47A2C"/>
<path d="M49.0627 50.4028H36.488C36.3296 50.4028 36.1777 50.3396 36.0657 50.2271C35.9536 50.1146 35.8906 49.962 35.8906 49.8029C35.8906 49.6438 35.9536 49.4913 36.0657 49.3788C36.1777 49.2663 36.3296 49.2031 36.488 49.2031H49.0627C49.2211 49.2031 49.3732 49.2663 49.4852 49.3788C49.5973 49.4913 49.6603 49.6438 49.6603 49.8029C49.6603 49.962 49.5973 50.1146 49.4852 50.2271C49.3732 50.3396 49.2211 50.4028 49.0627 50.4028Z" fill="#C47A2C"/>
<path d="M71.8974 50.4028H59.332C59.1735 50.4028 59.0215 50.3396 58.9094 50.2271C58.7974 50.1146 58.7344 49.962 58.7344 49.8029C58.7344 49.6438 58.7974 49.4913 58.9094 49.3788C59.0215 49.2663 59.1735 49.2031 59.332 49.2031H71.8974C72.0559 49.2031 72.2079 49.2663 72.32 49.3788C72.432 49.4913 72.4948 49.6438 72.4948 49.8029C72.4948 49.962 72.432 50.1146 72.32 50.2271C72.2079 50.3396 72.0559 50.4028 71.8974 50.4028V50.4028Z" fill="#C47A2C"/>
<path d="M26.2191 59.2622H13.6445C13.486 59.2622 13.334 59.199 13.2219 59.0865C13.1099 58.974 13.0469 58.8215 13.0469 58.6624C13.0469 58.5033 13.1099 58.3507 13.2219 58.2382C13.334 58.1257 13.486 58.0625 13.6445 58.0625H26.2191C26.3776 58.0625 26.5294 58.1257 26.6415 58.2382C26.7535 58.3507 26.8165 58.5033 26.8165 58.6624C26.8165 58.8215 26.7535 58.974 26.6415 59.0865C26.5294 59.199 26.3776 59.2622 26.2191 59.2622V59.2622Z" fill="#C47A2C"/>
<path d="M49.0627 59.2622H36.488C36.3296 59.2622 36.1777 59.199 36.0657 59.0865C35.9536 58.974 35.8906 58.8215 35.8906 58.6624C35.8906 58.5033 35.9536 58.3507 36.0657 58.2382C36.1777 58.1257 36.3296 58.0625 36.488 58.0625H49.0627C49.2211 58.0625 49.3732 58.1257 49.4852 58.2382C49.5973 58.3507 49.6603 58.5033 49.6603 58.6624C49.6603 58.8215 49.5973 58.974 49.4852 59.0865C49.3732 59.199 49.2211 59.2622 49.0627 59.2622V59.2622Z" fill="#C47A2C"/>
<path d="M71.8974 59.2622H59.332C59.1735 59.2622 59.0215 59.199 58.9094 59.0865C58.7974 58.974 58.7344 58.8215 58.7344 58.6624C58.7344 58.5033 58.7974 58.3507 58.9094 58.2382C59.0215 58.1257 59.1735 58.0625 59.332 58.0625H71.8974C72.0559 58.0625 72.2079 58.1257 72.32 58.2382C72.432 58.3507 72.4948 58.5033 72.4948 58.6624C72.4948 58.8215 72.432 58.974 72.32 59.0865C72.2079 59.199 72.0559 59.2622 71.8974 59.2622V59.2622Z" fill="#C47A2C"/>
</svg>
