<svg width="81" height="81" viewBox="0 0 81 81" fill="none" xmlns="http://www.w3.org/2000/svg">
<path d="M66.9826 78.6629H14.021C13.591 78.6629 13.2422 78.3143 13.2422 77.884V3.11478C13.2422 2.6847 13.591 2.33594 14.021 2.33594H54.521C54.9513 2.33594 55.2999 2.6847 55.2999 3.11478V14.7975H66.9826C67.4128 14.7975 67.7614 15.1462 67.7614 15.5763V77.884C67.7614 78.3143 67.4128 78.6629 66.9826 78.6629ZM14.7999 77.1052H66.2037V16.3552H54.521C54.0908 16.3552 53.7422 16.0064 53.7422 15.5763V3.89363H14.7999V77.1052Z" fill="#C47A2C"/>
<path d="M66.9826 16.3552H54.521C54.0908 16.3552 53.7422 16.0064 53.7422 15.5763V3.1148C53.7422 2.79983 53.9319 2.51571 54.223 2.39514C54.5136 2.27489 54.8491 2.34109 55.0717 2.564L67.5332 15.0255C67.7561 15.2483 67.8226 15.5833 67.7021 15.8743C67.5817 16.1655 67.2975 16.3552 66.9826 16.3552ZM55.2999 14.7975H65.1023L55.2999 4.99509V14.7975Z" fill="#C47A2C"/>
<path d="M32.713 22.5895H20.2515C19.8214 22.5895 19.4727 22.2408 19.4727 21.8107V9.34916C19.4727 8.91908 19.8214 8.57031 20.2515 8.57031H32.713C33.1431 8.57031 33.4919 8.91908 33.4919 9.34916V21.8107C33.4919 22.2408 33.1431 22.5895 32.713 22.5895ZM21.0303 21.0319H31.9342V10.128H21.0303V21.0319Z" fill="#C47A2C"/>
<path d="M48.2891 10.128H38.9429C38.5128 10.128 38.1641 9.77924 38.1641 9.34916C38.1641 8.91908 38.5128 8.57031 38.9429 8.57031H48.2891C48.7193 8.57031 49.0679 8.91908 49.0679 9.34916C49.0679 9.77924 48.7193 10.128 48.2891 10.128Z" fill="#C47A2C"/>
<path d="M48.2891 16.3546H38.9429C38.5128 16.3546 38.1641 16.0058 38.1641 15.5757C38.1641 15.1456 38.5128 14.7969 38.9429 14.7969H48.2891C48.7193 14.7969 49.0679 15.1456 49.0679 15.5757C49.0679 16.0058 48.7193 16.3546 48.2891 16.3546Z" fill="#C47A2C"/>
<path d="M60.7506 22.5889H38.9429C38.5128 22.5889 38.1641 22.2402 38.1641 21.8101C38.1641 21.38 38.5128 21.0312 38.9429 21.0312H60.7506C61.1808 21.0312 61.5294 21.38 61.5294 21.8101C61.5294 22.2402 61.1808 22.5889 60.7506 22.5889Z" fill="#C47A2C"/>
<path d="M60.7515 28.8155H20.2515C19.8214 28.8155 19.4727 28.4667 19.4727 28.0367C19.4727 27.6066 19.8214 27.2578 20.2515 27.2578H60.7515C61.1817 27.2578 61.5303 27.6066 61.5303 28.0367C61.5303 28.4667 61.1817 28.8155 60.7515 28.8155Z" fill="#C47A2C"/>
<path d="M60.7515 35.0499H20.2515C19.8214 35.0499 19.4727 34.7011 19.4727 34.271C19.4727 33.841 19.8214 33.4922 20.2515 33.4922H60.7515C61.1817 33.4922 61.5303 33.841 61.5303 34.271C61.5303 34.7011 61.1817 35.0499 60.7515 35.0499Z" fill="#C47A2C"/>
<path d="M40.5003 72.4303C31.4817 72.4303 24.1445 65.0931 24.1445 56.0745C24.1445 47.0559 31.4817 39.7188 40.5003 39.7188C49.5189 39.7188 56.8561 47.0559 56.8561 56.0745C56.8561 65.0931 49.5189 72.4303 40.5003 72.4303ZM40.5003 41.2764C32.3406 41.2764 25.7022 47.9149 25.7022 56.0745C25.7022 64.2342 32.3406 70.8726 40.5003 70.8726C48.66 70.8726 55.2984 64.2342 55.2984 56.0745C55.2984 47.9149 48.66 41.2764 40.5003 41.2764Z" fill="#C47A2C"/>
<path d="M40.5015 66.2031C40.0713 66.2031 39.7227 65.8545 39.7227 65.4243V46.732C39.7227 46.3017 40.0713 45.9531 40.5015 45.9531C40.9317 45.9531 41.2803 46.3017 41.2803 46.732V65.4243C41.2803 65.8545 40.9317 66.2031 40.5015 66.2031Z" fill="#C47A2C"/>
<path d="M45.1757 52.1839C44.9765 52.1839 44.777 52.1078 44.6251 51.9557L40.5027 47.8334L36.3804 51.9557C36.0762 52.2599 35.5832 52.2599 35.2789 51.9557C34.9747 51.6516 34.9747 51.1584 35.2789 50.8544L39.952 46.1813C40.2561 45.8771 40.7496 45.8771 41.0535 46.1813L45.7265 50.8544C46.0308 51.1584 46.0308 51.6516 45.7265 51.9557C45.5745 52.1078 45.375 52.1839 45.1757 52.1839Z" fill="#C47A2C"/>
</svg>
