<svg width="69" height="69" viewBox="0 0 69 69" fill="none" xmlns="http://www.w3.org/2000/svg">
<path d="M61.0415 67.0114H21.2338C20.8674 67.0114 20.5703 66.7144 20.5703 66.3479V2.65565C20.5703 2.28929 20.8674 1.99219 21.2338 1.99219H66.3492C66.7157 1.99219 67.0126 2.28929 67.0126 2.65565V61.0403C67.0126 64.3328 64.334 67.0114 61.0415 67.0114ZM21.8972 65.6845H61.0415C63.6023 65.6845 65.6857 63.6011 65.6857 61.0403V3.31911H21.8972V65.6845Z" fill="#C47A2C"/>
<path d="M21.2326 67.0126H7.96334C4.67085 67.0126 1.99219 64.334 1.99219 61.0415V21.2338C1.99219 20.8674 2.28929 20.5703 2.65565 20.5703H21.2326C21.5989 20.5703 21.896 20.8674 21.896 21.2338V66.3492C21.896 66.7157 21.5989 67.0126 21.2326 67.0126ZM3.31911 21.8972V61.0415C3.31911 63.6023 5.40251 65.6857 7.96334 65.6857H20.5691V21.8972H3.31911Z" fill="#C47A2C"/>
<path d="M61.0385 24.5469H26.5385C26.1721 24.5469 25.875 24.2498 25.875 23.8834V7.96034C25.875 7.59397 26.1721 7.29688 26.5385 7.29688H61.0385C61.405 7.29688 61.7019 7.59397 61.7019 7.96034V23.8834C61.7019 24.2498 61.405 24.5469 61.0385 24.5469ZM27.2019 23.22H60.375V8.6238H27.2019V23.22Z" fill="#C47A2C"/>
<path d="M45.1154 35.1659H26.5385C26.1721 35.1659 25.875 34.8689 25.875 34.5024V29.1947C25.875 28.8283 26.1721 28.5312 26.5385 28.5312H45.1154C45.4819 28.5312 45.7788 28.8283 45.7788 29.1947V34.5024C45.7788 34.8689 45.4819 35.1659 45.1154 35.1659ZM27.2019 33.8389H44.4519V29.8582H27.2019V33.8389Z" fill="#C47A2C"/>
<path d="M61.0406 40.4736H50.4252C50.0587 40.4736 49.7617 40.1766 49.7617 39.8101V29.1947C49.7617 28.8283 50.0587 28.5312 50.4252 28.5312H61.0406C61.4071 28.5312 61.704 28.8283 61.704 29.1947V39.8101C61.704 40.1766 61.4071 40.4736 61.0406 40.4736ZM51.0886 39.1466H60.3771V29.8582H51.0886V39.1466Z" fill="#C47A2C"/>
<path d="M61.0406 51.0877H50.4252C50.0587 51.0877 49.7617 50.7908 49.7617 50.4243V45.1166C49.7617 44.7501 50.0587 44.4531 50.4252 44.4531H61.0406C61.4071 44.4531 61.704 44.7501 61.704 45.1166V50.4243C61.704 50.7908 61.4071 51.0877 61.0406 51.0877ZM51.0886 49.7608H60.3771V45.78H51.0886V49.7608Z" fill="#C47A2C"/>
<path d="M61.0406 61.7049H50.4252C50.0587 61.7049 49.7617 61.408 49.7617 61.0415V55.7338C49.7617 55.3673 50.0587 55.0703 50.4252 55.0703H61.0406C61.4071 55.0703 61.704 55.3673 61.704 55.7338V61.0415C61.704 61.408 61.4071 61.7049 61.0406 61.7049ZM51.0886 60.378H60.3771V56.3972H51.0886V60.378Z" fill="#C47A2C"/>
<path d="M45.1154 45.78H26.5385C26.1721 45.78 25.875 45.4831 25.875 45.1166C25.875 44.7501 26.1721 44.4531 26.5385 44.4531H45.1154C45.4819 44.4531 45.7788 44.7501 45.7788 45.1166C45.7788 45.4831 45.4819 45.78 45.1154 45.78Z" fill="#C47A2C"/>
<path d="M45.1154 51.0847H26.5385C26.1721 51.0847 25.875 50.7878 25.875 50.4213C25.875 50.0548 26.1721 49.7578 26.5385 49.7578H45.1154C45.4819 49.7578 45.7788 50.0548 45.7788 50.4213C45.7788 50.7878 45.4819 51.0847 45.1154 51.0847Z" fill="#C47A2C"/>
<path d="M45.1154 56.3972H26.5385C26.1721 56.3972 25.875 56.1003 25.875 55.7338C25.875 55.3673 26.1721 55.0703 26.5385 55.0703H45.1154C45.4819 55.0703 45.7788 55.3673 45.7788 55.7338C45.7788 56.1003 45.4819 56.3972 45.1154 56.3972Z" fill="#C47A2C"/>
<path d="M45.1154 61.7019H26.5385C26.1721 61.7019 25.875 61.405 25.875 61.0385C25.875 60.672 26.1721 60.375 26.5385 60.375H45.1154C45.4819 60.375 45.7788 60.672 45.7788 61.0385C45.7788 61.405 45.4819 61.7019 45.1154 61.7019Z" fill="#C47A2C"/>
<path d="M45.1154 40.4754H26.5385C26.1721 40.4754 25.875 40.1784 25.875 39.8119C25.875 39.4454 26.1721 39.1484 26.5385 39.1484H45.1154C45.4819 39.1484 45.7788 39.4454 45.7788 39.8119C45.7788 40.1784 45.4819 40.4754 45.1154 40.4754Z" fill="#C47A2C"/>
<path d="M21.232 59.0511H13.2704C11.4413 59.0511 9.95312 57.5629 9.95312 55.7338V21.2338C9.95312 20.8674 10.2502 20.5703 10.6166 20.5703C10.983 20.5703 11.28 20.8674 11.28 21.2338V55.7338C11.28 56.8313 12.1729 57.7242 13.2704 57.7242H21.232C21.5983 57.7242 21.8954 58.0211 21.8954 58.3876C21.8954 58.7541 21.5983 59.0511 21.232 59.0511Z" fill="#C47A2C"/>
</svg>
