<svg width="92" height="92" viewBox="0 0 92 92" fill="none" xmlns="http://www.w3.org/2000/svg">
<path d="M42.5621 43.7105C41.0501 43.5881 39.6192 43.5168 38.3203 43.5168V39.7656H42.5723V43.7105H42.5621Z" stroke="#C47A2C" stroke-width="1.3" stroke-linecap="round" stroke-linejoin="round"/>
<path d="M49.4676 44.6907C48.0672 44.4053 46.6566 44.181 45.2461 43.9975V34.375H49.4879V44.5684L49.4676 44.6907Z" stroke="#C47A2C" stroke-width="1.3" stroke-linecap="round" stroke-linejoin="round"/>
<path d="M56.4754 29.2031V46.3586L56.313 46.7357C54.9944 46.1749 53.638 45.7083 52.2539 45.3392V29.2031H56.4754Z" stroke="#C47A2C" stroke-width="1.3" stroke-linecap="round" stroke-linejoin="round"/>
<path d="M66.0898 51.093V21.6953H70.3418V48.881L70.4128 49.0441C68.9211 49.6761 67.4395 50.3693 66.0898 51.093Z" stroke="#C47A2C" stroke-width="1.3" stroke-linecap="round" stroke-linejoin="round"/>
<path d="M63.3955 25.5156V52.4771L63.497 52.6402C62.8518 53.0522 62.2285 53.4979 61.6298 53.9755C61.8793 53.3264 61.9425 52.6202 61.8125 51.9368C61.6227 51.1456 61.2711 50.4026 60.7802 49.7551C60.2893 49.1076 59.6698 48.5697 58.9609 48.1755L59.1537 47.9105V25.5156H63.3955Z" stroke="#C47A2C" stroke-width="1.3" stroke-linecap="round" stroke-linejoin="round"/>
<path d="M52.2079 29.2048V45.3409C51.3149 45.0962 50.4016 44.8924 49.468 44.6987V44.5764V34.383H45.3074V44.0056C44.3941 43.8832 43.4909 43.7915 42.6182 43.7201V39.7753H38.3663V43.5264C36.892 43.4936 35.4179 43.596 33.9621 43.8323C33.3837 43.9546 32.7748 44.1177 32.1254 44.3113C31.3598 41.8963 30.9829 39.374 31.0091 36.8396C30.9972 33.1043 31.8103 29.4129 33.3897 26.0312C34.9691 22.6495 37.2754 19.6617 40.1427 17.2831C43.0099 14.9046 46.3667 13.1943 49.9712 12.2757C53.5756 11.3571 57.338 11.253 60.9874 11.9707C64.6367 12.6885 68.0821 14.2104 71.0755 16.4267C74.0688 18.643 76.5356 21.4986 78.298 24.7877C80.0604 28.0769 81.0747 31.7178 81.2677 35.4481C81.4607 39.1784 80.8277 42.9052 79.4142 46.3602H79.3026C76.2415 46.8956 73.2564 47.8026 70.4131 49.0615L70.3421 48.8984V21.6923H66.0901V51.09C65.1565 51.5894 64.2838 52.1093 63.4923 52.619L63.3908 52.4558V25.5148H59.1491V47.8586L58.9562 48.1237C58.1099 47.5791 57.2167 47.1117 56.2874 46.7272L56.47 46.3602V29.2048H52.2079Z" stroke="#C47A2C" stroke-width="1.3" stroke-linecap="round" stroke-linejoin="round"/>
<path d="M19.0149 65.818C18.5117 65.8748 18.0514 66.1301 17.7355 66.5277C17.4196 66.9253 17.2739 67.4327 17.3304 67.9382C17.3869 68.4438 17.6411 68.9061 18.0369 69.2234C18.4327 69.5407 18.9379 69.6871 19.4412 69.6304C19.6904 69.6022 19.9316 69.5251 20.1511 69.4033C20.3707 69.2816 20.5642 69.1175 20.7206 68.9207C20.877 68.7238 20.9933 68.4979 21.0628 68.2559C21.1323 68.0139 21.1537 67.7604 21.1257 67.5101C21.0977 67.2598 21.0209 67.0175 20.8997 66.7969C20.7785 66.5764 20.6152 66.3821 20.4192 66.2249C20.2232 66.0678 19.9983 65.951 19.7574 65.8812C19.5164 65.8114 19.2642 65.7899 19.0149 65.818V65.818ZM9.2629 79.732L6.89844 54.6155L17.9088 51.2109L27.7116 67.1126L28.2292 71.1899L9.2629 79.732Z" stroke="#C47A2C" stroke-width="1.3" stroke-linecap="round" stroke-linejoin="round"/>
<path d="M56.4149 68.2939C44.613 69.1807 42.208 61.4133 27.6763 67.1114L17.9141 51.2098C21.4962 49.1711 27.5545 45.7461 32.121 44.2986C32.7705 44.105 33.3793 43.9419 33.9578 43.8196C35.4135 43.5833 36.8877 43.481 38.362 43.5138C39.6609 43.5138 41.0917 43.5851 42.6037 43.7075C43.4765 43.7788 44.3796 43.8705 45.2929 43.9929C46.7034 44.1763 48.114 44.4006 49.5144 44.686C50.448 44.8797 51.3613 45.0835 52.2543 45.3282C53.6384 45.6972 54.9948 46.1639 56.3135 46.7247C57.2428 47.1092 58.136 47.5766 58.9823 48.1212V48.1212C59.6912 48.5153 60.3108 49.0533 60.8016 49.7008C61.2925 50.3483 61.6441 51.0913 61.8339 51.8825C61.964 52.5659 61.9006 53.2721 61.6512 53.9212C62.2499 53.4436 62.8732 52.9979 63.5184 52.5859C64.3099 52.066 65.1826 51.5665 66.1162 51.0568C67.4659 50.3331 68.9475 49.64 70.4392 49.0182C73.2778 47.7749 76.2559 46.8816 79.3084 46.3577H79.42C81.9265 46.0213 85.6204 46.2558 85.8639 49.4871C86.2496 54.6755 63.2952 67.7638 56.4149 68.2939Z" stroke="#C47A2C" stroke-width="1.3" stroke-linecap="round" stroke-linejoin="round"/>
<path d="M17.9141 51.2098C21.4962 49.1711 27.5545 45.7461 32.121 44.2986C32.7705 44.105 33.3794 43.9419 33.9578 43.8196C35.4135 43.5833 36.8877 43.481 38.362 43.5138C39.6609 43.5138 41.0917 43.5851 42.6037 43.7075C43.4765 43.7788 44.3796 43.8705 45.2929 43.9929C46.7034 44.1763 48.114 44.4006 49.5144 44.686C50.448 44.8797 51.3613 45.0835 52.2543 45.3282C53.6384 45.6972 54.9948 46.1639 56.3135 46.7247C57.2428 47.1092 58.136 47.5766 58.9823 48.1212V48.1212C59.6912 48.5153 60.3108 49.0533 60.8016 49.7008C61.2925 50.3483 61.6441 51.0913 61.8339 51.8825C61.964 52.5659 61.9006 53.2721 61.6512 53.9212C59.7129 58.5286 46.5208 54.6143 43.8316 53.9212" stroke="#C47A2C" stroke-width="1.3" stroke-linecap="round" stroke-linejoin="round"/>
<path d="M27.6719 67.117C42.2137 61.419 44.6086 69.1557 56.4105 68.2995C63.2908 67.7898 86.2452 54.6811 85.8392 49.4621C85.5957 46.2308 81.9019 45.9964 79.3954 46.3328H79.2837C76.2226 46.8681 73.2375 47.7752 70.3942 49.034C68.9025 49.666 67.421 50.3592 66.0713 51.0727C65.1377 51.5722 64.265 52.092 63.4734 52.6017C62.8282 53.0137 62.2049 53.4594 61.6062 53.937" stroke="#C47A2C" stroke-width="1.3" stroke-linecap="round" stroke-linejoin="round"/>
<path d="M27.671 67.1126L28.1886 71.1899L9.2629 79.732L6.89844 54.6155L17.8682 51.2109L27.671 67.1126Z" stroke="#C47A2C" stroke-width="1.3" stroke-linecap="round" stroke-linejoin="round"/>
<path d="M19.0142 65.8165C19.389 65.7745 19.7678 65.8452 20.1028 66.0194C20.4377 66.1937 20.7137 66.4637 20.8958 66.7954C21.078 67.1272 21.1582 67.5057 21.1263 67.8833C21.0943 68.2608 20.9517 68.6203 20.7164 68.9164C20.4812 69.2125 20.1638 69.432 19.8044 69.547C19.4451 69.662 19.0598 69.6674 18.6973 69.5625C18.3349 69.4577 18.0115 69.2473 17.7681 68.9579C17.5246 68.6685 17.3721 68.3131 17.3296 67.9366C17.3 67.6861 17.3202 67.4321 17.3891 67.1894C17.458 66.9468 17.5742 66.7202 17.7309 66.523C17.8876 66.3257 18.0817 66.1617 18.302 66.0404C18.5223 65.9192 18.7644 65.843 19.0142 65.8165V65.8165Z" stroke="#C47A2C" stroke-width="1.3" stroke-linecap="round" stroke-linejoin="round"/>
<path d="M66.0898 51.093V21.6953H70.3418V48.881" stroke="#C47A2C" stroke-width="1.3" stroke-linecap="round" stroke-linejoin="round"/>
<path d="M59.1523 47.8595V25.5156H63.3941V52.4567" stroke="#C47A2C" stroke-width="1.3" stroke-linecap="round" stroke-linejoin="round"/>
<path d="M52.2109 45.3596V45.329V29.2031H56.4527V46.3484" stroke="#C47A2C" stroke-width="1.3" stroke-linecap="round" stroke-linejoin="round"/>
<path d="M45.2617 43.9364V34.375H49.5035V44.5684" stroke="#C47A2C" stroke-width="1.3" stroke-linecap="round" stroke-linejoin="round"/>
<path d="M38.3203 43.5881V43.5168V39.7656H42.5723V43.6493" stroke="#C47A2C" stroke-width="1.3" stroke-linecap="round" stroke-linejoin="round"/>
<path d="M32.1214 44.3713C32.117 44.3477 32.117 44.3235 32.1214 44.3C31.3558 41.8849 30.979 39.3626 31.0052 36.8283C30.9985 33.0955 31.8154 29.4077 33.3973 26.03C34.9792 22.6524 37.2867 19.6689 40.1538 17.2942C43.0209 14.9195 46.3763 13.2126 49.9787 12.2963C53.581 11.38 57.3408 11.2771 60.9875 11.9949C64.6342 12.7128 68.0772 14.2337 71.0688 16.448C74.0604 18.6623 76.5262 21.5152 78.2888 24.8013C80.0515 28.0874 81.0672 31.7251 81.2629 35.4526C81.4585 39.1802 80.8293 42.905 79.4204 46.359V46.359" stroke="#C47A2C" stroke-width="1.3" stroke-linecap="round" stroke-linejoin="round"/>
</svg>
