<svg width="81" height="81" viewBox="0 0 81 81" fill="none" xmlns="http://www.w3.org/2000/svg">
<path d="M66.5628 76.7756H13.757C8.49978 76.7756 4.22266 72.4985 4.22266 67.2412C4.22266 67.0467 4.29993 66.8602 4.43747 66.7226C4.57501 66.5851 4.76156 66.5078 4.95607 66.5078H75.3638C75.5583 66.5078 75.7448 66.5851 75.8824 66.7226C76.0199 66.8602 76.0972 67.0467 76.0972 67.2412C76.0972 72.4985 71.8201 76.7756 66.5628 76.7756ZM5.72249 67.9746C6.09403 72.0809 9.5556 75.3088 13.757 75.3088H66.5628C70.7642 75.3088 74.2257 72.0809 74.5972 67.9746H5.72249Z" fill="#C47A2C"/>
<path d="M70.9691 67.9716H9.36232C9.16781 67.9716 8.98126 67.8944 8.84372 67.7568C8.70618 67.6193 8.62891 67.4327 8.62891 67.2382V27.6339C8.62891 24.8031 10.932 22.5 13.7628 22.5H40.1657C40.3602 22.5 40.5467 22.5773 40.6843 22.7148C40.8218 22.8524 40.8991 23.0389 40.8991 23.2334V24.7002C40.8991 26.7223 42.5441 28.3673 44.5662 28.3673C44.7607 28.3673 44.9472 28.4446 45.0848 28.5821C45.2223 28.7197 45.2996 28.9062 45.2996 29.1007V36.1311L52.8486 28.5822C52.9167 28.5141 52.9975 28.4601 53.0865 28.4232C53.1755 28.3864 53.2708 28.3674 53.3671 28.3675H70.9691C71.1636 28.3675 71.3501 28.4447 71.4877 28.5823C71.6252 28.7198 71.7025 28.9064 71.7025 29.1009V67.2384C71.7025 67.3347 71.6835 67.43 71.6466 67.519C71.6098 67.608 71.5557 67.6888 71.4876 67.7569C71.4195 67.825 71.3387 67.879 71.2497 67.9159C71.1607 67.9527 71.0654 67.9717 70.9691 67.9716ZM10.0957 66.5048H70.2356V29.8341H53.6709L45.0847 38.4204C44.9821 38.5229 44.8514 38.5927 44.7092 38.621C44.5669 38.6493 44.4195 38.6348 44.2855 38.5792C44.1515 38.5237 44.0369 38.4297 43.9563 38.3091C43.8758 38.1885 43.8328 38.0467 43.8328 37.9017V29.7819C41.3481 29.4249 39.4323 27.2821 39.4323 24.7002V23.9668H13.7628C11.7408 23.9668 10.0957 25.6119 10.0957 27.6339V66.5048Z" fill="#C47A2C"/>
<path d="M44.5639 38.6355C44.3694 38.6354 44.1829 38.5581 44.0453 38.4206C43.9078 38.2831 43.8306 38.0965 43.8306 37.902V29.7823C41.3459 29.4253 39.4301 27.2825 39.4301 24.7006V10.0323C39.4301 7.2015 41.7332 4.89844 44.564 4.89844H70.9669C73.7977 4.89844 76.1008 7.2015 76.1008 10.0323V24.7006C76.1008 27.5314 73.7977 29.8345 70.9669 29.8345H53.6687L45.0825 38.4207C45.0144 38.4888 44.9336 38.5428 44.8446 38.5797C44.7556 38.6165 44.6602 38.6355 44.5639 38.6355ZM44.564 6.36526C42.542 6.36526 40.8969 8.01031 40.8969 10.0323V24.7006C40.8969 26.7226 42.542 28.3677 44.564 28.3677C44.7585 28.3677 44.9451 28.4449 45.0826 28.5825C45.2201 28.72 45.2974 28.9066 45.2974 29.1011V36.1314L52.8464 28.5826C52.9145 28.5145 52.9954 28.4604 53.0843 28.4236C53.1733 28.3868 53.2687 28.3678 53.365 28.3678H70.9669C72.9889 28.3678 74.634 26.7228 74.634 24.7007V10.0323C74.634 8.01031 72.9889 6.36526 70.9669 6.36526H44.564ZM26.9621 44.5028C22.5136 44.5028 18.8945 40.8837 18.8945 36.4352C18.8945 31.9868 22.5136 28.3677 26.9621 28.3677C31.4105 28.3677 35.0296 31.9868 35.0296 36.4352C35.0296 40.8837 31.4105 44.5028 26.9621 44.5028ZM26.9621 29.8345C23.3224 29.8345 20.3614 32.7956 20.3614 36.4352C20.3614 40.0749 23.3224 43.0359 26.9621 43.0359C30.6017 43.0359 33.5628 40.0749 33.5628 36.4352C33.5628 32.7956 30.6017 29.8345 26.9621 29.8345Z" fill="#C47A2C"/>
<path d="M38.6948 62.1046H15.2256C15.0311 62.1046 14.8445 62.0273 14.707 61.8898C14.5695 61.7522 14.4922 61.5657 14.4922 61.3712V52.5702C14.4922 47.3129 18.7693 43.0358 24.0266 43.0358H29.8939C35.1511 43.0358 39.4282 47.3129 39.4282 52.5702V61.3712C39.4282 61.5657 39.351 61.7522 39.2134 61.8898C39.0759 62.0273 38.8893 62.1046 38.6948 62.1046ZM15.959 60.6377H37.9614V52.5702C37.9614 48.1217 34.3423 44.5026 29.8939 44.5026H24.0266C19.5781 44.5026 15.959 48.1217 15.959 52.5702V60.6377ZM69.4982 12.2325H46.029C45.8344 12.2325 45.6479 12.1552 45.5104 12.0176C45.3728 11.8801 45.2955 11.6936 45.2955 11.499C45.2955 11.3045 45.3728 11.118 45.5104 10.9804C45.6479 10.8429 45.8344 10.7656 46.029 10.7656H69.4982C69.6927 10.7656 69.8792 10.8429 70.0168 10.9804C70.1543 11.118 70.2316 11.3045 70.2316 11.499C70.2316 11.6936 70.1543 11.8801 70.0168 12.0176C69.8792 12.1552 69.6927 12.2325 69.4982 12.2325ZM69.4982 18.0998H46.029C45.8344 18.0998 45.6479 18.0225 45.5104 17.8849C45.3728 17.7474 45.2955 17.5609 45.2955 17.3663C45.2955 17.1718 45.3728 16.9853 45.5104 16.8477C45.6479 16.7102 45.8344 16.6329 46.029 16.6329H69.4982C69.6927 16.6329 69.8792 16.7102 70.0168 16.8477C70.1543 16.9853 70.2316 17.1718 70.2316 17.3663C70.2316 17.5609 70.1543 17.7474 70.0168 17.8849C69.8792 18.0225 69.6927 18.0998 69.4982 18.0998ZM69.4982 23.9671H46.029C45.8344 23.9671 45.6479 23.8898 45.5104 23.7523C45.3728 23.6147 45.2955 23.4282 45.2955 23.2337C45.2955 23.0391 45.3728 22.8526 45.5104 22.7151C45.6479 22.5775 45.8344 22.5002 46.029 22.5002H69.4982C69.6927 22.5002 69.8792 22.5775 70.0168 22.7151C70.1543 22.8526 70.2316 23.0391 70.2316 23.2337C70.2316 23.4282 70.1543 23.6147 70.0168 23.7523C69.8792 23.8898 69.6927 23.9671 69.4982 23.9671Z" fill="#C47A2C"/>
</svg>
