<svg width="112" height="112" viewBox="0 0 112 112" fill="none" xmlns="http://www.w3.org/2000/svg">
<path fill-rule="evenodd" clip-rule="evenodd" d="M30.6423 43.8911C29.9077 43.6133 28.0806 42.9188 23.7098 41.2517C22.9948 40.979 22.634 40.1637 22.9041 39.4308C23.1741 38.6981 23.9728 38.3251 24.6878 38.5978C29.0592 40.2652 30.8827 40.9582 31.6129 41.2345C31.7378 41.2816 31.8299 41.3164 31.897 41.3416C31.9302 41.3516 31.9634 41.363 31.9963 41.3759L32.0122 41.382L32.0468 41.3956L32.0888 41.4123C32.0944 41.4145 32.1077 41.42 32.1224 41.4261C32.1274 41.4284 32.1497 41.4377 32.1762 41.4503C32.1836 41.4538 32.2347 41.4779 32.2936 41.5133C32.3122 41.5248 32.357 41.5539 32.3831 41.572C32.4224 41.6011 32.5249 41.6881 32.5858 41.7487C32.6975 41.8828 32.9392 42.42 32.9683 42.8369C32.8067 43.4007 32.1762 44.0142 31.8876 44.1161C31.758 44.1395 31.5579 44.1508 31.4889 44.1479C31.4479 44.1444 31.3797 44.1358 31.3525 44.1315C31.301 44.1227 31.2614 44.1126 31.2464 44.1088C31.212 44.1 31.1854 44.0917 31.1774 44.0892C31.1568 44.0828 31.1402 44.077 31.1348 44.0752L31.0982 44.0622L31.0149 44.0314C30.9429 44.0045 30.8259 43.9605 30.6423 43.8911ZM31.0616 44.0468C31.0625 44.0471 31.0625 44.0471 31.0616 44.0468V44.0468Z" fill="#C47A2C"/>
<path fill-rule="evenodd" clip-rule="evenodd" d="M15.4402 41.994C16.0582 41.7626 16.7128 41.5173 17.4086 41.252C18.1236 40.9791 18.4844 40.1641 18.2143 39.4312C17.9443 38.6983 17.1457 38.3253 16.4306 38.5982C15.78 38.8462 15.1497 39.0823 14.543 39.3096C13.1509 39.831 11.8831 40.3059 10.7796 40.7732C9.18902 41.4469 7.78796 42.1647 6.68064 43.114C5.53627 44.0951 4.73281 45.2993 4.30271 46.871C3.88449 48.3994 3.83864 50.2047 4.0687 52.3771C4.15107 53.1549 4.83386 53.7202 5.59377 53.6397C6.35366 53.5592 6.90291 52.8634 6.82054 52.0856C6.60896 50.0878 6.68389 48.6866 6.96847 47.6466C7.24117 46.65 7.72251 45.9241 8.46452 45.2879C9.24358 44.6201 10.3305 44.0335 11.849 43.3904C12.8976 42.9461 14.0797 42.5035 15.4402 41.994Z" fill="#C47A2C"/>
<path fill-rule="evenodd" clip-rule="evenodd" d="M13.2388 26.8413C13.2388 22.8421 16.4808 19.6001 20.4801 19.6001C24.4793 19.6001 27.7213 22.8421 27.7213 26.8413V30.8613C27.7213 34.8605 24.4793 38.1026 20.4801 38.1026C16.4808 38.1026 13.2388 34.8605 13.2388 30.8613V26.8413ZM20.4801 22.4001C18.0271 22.4001 16.0387 24.3885 16.0387 26.8413V30.8613C16.0387 33.3142 18.0271 35.3026 20.4801 35.3026C22.9329 35.3026 24.9213 33.3142 24.9213 30.8613V26.8413C24.9213 24.3885 22.9329 22.4001 20.4801 22.4001Z" fill="#C47A2C"/>
<path fill-rule="evenodd" clip-rule="evenodd" d="M68.3385 41.355C68.5674 41.4319 68.7793 41.5712 68.9483 41.771L67.8997 42.7001C68.9483 41.771 69.0491 43.4832 67.4619 44.0455L67.4496 44.0412L67.4436 44.0391L67.4406 44.0381L59.6699 41.2619C58.9495 41.0045 58.5722 40.1972 58.8273 39.4589C59.0825 38.7205 59.8734 38.3307 60.5939 38.5881L68.3385 41.355Z" fill="#C47A2C"/>
<path fill-rule="evenodd" clip-rule="evenodd" d="M43.5366 42.8142C43.2238 43.5261 43.5356 44.3654 44.2329 44.6889L44.7994 43.3999C44.2329 44.6889 44.7712 44.8152 45.314 44.7168L45.3281 44.7109L45.3353 44.7078L45.3389 44.7063L45.341 44.7054L53.3958 41.2299C54.0987 40.9266 54.4255 40.0964 54.1256 39.3756C53.8256 38.6551 53.0126 38.3167 52.3095 38.6201L44.2608 42.0929C43.9497 42.2258 43.6857 42.4748 43.5366 42.8142Z" fill="#C47A2C"/>
<path fill-rule="evenodd" clip-rule="evenodd" d="M49.1719 26.8413C49.1719 22.8421 52.414 19.6001 56.4132 19.6001C60.4125 19.6001 63.6545 22.8421 63.6545 26.8413V30.8613C63.6545 34.8605 60.4125 38.1026 56.4132 38.1026C52.414 38.1026 49.1719 34.8605 49.1719 30.8613V26.8413ZM56.4132 22.4001C53.9603 22.4001 51.9719 24.3885 51.9719 26.8413V30.8613C51.9719 33.3142 53.9603 35.3026 56.4132 35.3026C58.866 35.3026 60.8545 33.3142 60.8545 30.8613V26.8413C60.8545 24.3885 58.866 22.4001 56.4132 22.4001Z" fill="#C47A2C"/>
<path fill-rule="evenodd" clip-rule="evenodd" d="M97.6824 42.0442C97.0209 41.7973 96.3206 41.5358 95.5765 41.252C94.8615 40.9791 94.5007 40.164 94.7708 39.4311C95.0408 38.6984 95.8395 38.3253 96.5545 38.5981C97.2495 38.8632 97.9251 39.1154 98.5763 39.3588C99.9308 39.8647 101.18 40.3312 102.279 40.7912C103.915 41.4761 105.369 42.2055 106.532 43.1592C107.729 44.1403 108.605 45.3485 109.094 46.9374C109.571 48.4894 109.651 50.3166 109.419 52.5067C109.337 53.2846 108.654 53.8497 107.894 53.7692C107.134 53.6887 106.585 52.9929 106.667 52.2152C106.877 50.2351 106.773 48.8394 106.453 47.7988C106.145 46.795 105.61 46.0407 104.795 45.3722C103.946 44.6764 102.787 44.0691 101.22 43.4127C100.17 42.973 99.0034 42.5376 97.6824 42.0442Z" fill="#C47A2C"/>
<path fill-rule="evenodd" clip-rule="evenodd" d="M80.3943 42.2444C79.7726 42.6963 79.6292 43.58 80.074 44.2181L81.1996 43.4C80.074 44.2181 80.8273 44.7617 81.7452 44.7038L81.7578 44.6983L81.7639 44.6955L81.7671 44.694L81.7688 44.6933L89.3572 41.2176C90.0536 40.8987 90.3626 40.0614 90.0474 39.3475C89.7323 38.6335 88.9123 38.3133 88.216 38.6323L80.6553 42.0952C80.565 42.1344 80.4775 42.1841 80.3943 42.2444Z" fill="#C47A2C"/>
<path fill-rule="evenodd" clip-rule="evenodd" d="M85.106 26.8413C85.106 22.8421 88.3481 19.6001 92.3473 19.6001C96.3466 19.6001 99.5885 22.8421 99.5885 26.8413V30.8613C99.5885 34.8605 96.3466 38.1026 92.3473 38.1026C88.3481 38.1026 85.106 34.8605 85.106 30.8613V26.8413ZM92.3473 22.4001C89.8944 22.4001 87.906 24.3885 87.906 26.8413V30.8613C87.906 33.3142 89.8944 35.3026 92.3473 35.3026C94.8001 35.3026 96.7885 33.3142 96.7885 30.8613V26.8413C96.7885 24.3885 94.8001 22.4001 92.3473 22.4001Z" fill="#C47A2C"/>
<path fill-rule="evenodd" clip-rule="evenodd" d="M80.2353 59.3648C79.5397 59.1111 78.8034 58.8426 78.0215 58.5514C77.297 58.2816 76.9284 57.4753 77.1983 56.7508C77.4681 56.0262 78.2744 55.6577 78.9988 55.9275C79.7309 56.2002 80.442 56.4595 81.1271 56.7094C82.5515 57.2289 83.8637 57.7076 85.019 58.1798C86.7383 58.8828 88.2635 59.6299 89.4819 60.6053C90.7346 61.6083 91.6508 62.8421 92.1616 64.4646C92.6607 66.0502 92.745 67.9192 92.5016 70.1647C92.4183 70.9333 91.7275 71.4889 90.9588 71.4055C90.19 71.3222 89.6345 70.6314 89.7179 69.8627C89.939 67.8244 89.8301 66.383 89.4909 65.3054C89.1633 64.2648 88.5958 63.4827 87.732 62.7911C86.8339 62.0721 85.6096 61.4463 83.9593 60.7716C82.8537 60.3196 81.6257 59.8717 80.2353 59.3648Z" fill="#C47A2C"/>
<path fill-rule="evenodd" clip-rule="evenodd" d="M66.3934 60.2415C67.8238 59.7795 69.4881 59.2419 71.3412 58.5517C72.0658 58.2818 72.4344 57.4756 72.1645 56.751C71.8946 56.0265 71.0885 55.6579 70.3638 55.9278C68.5746 56.5942 66.9841 57.1081 65.5586 57.5686C65.1798 57.691 64.8128 57.8095 64.4567 57.9263C62.8026 58.4684 61.3141 58.9906 60.148 59.6694C58.9346 60.3759 57.9637 61.3121 57.4765 62.7122C57.0108 64.0513 57.0567 65.6248 57.4266 67.4744C57.5782 68.2327 58.3157 68.7244 59.0739 68.5727C59.832 68.4211 60.3237 67.6836 60.1721 66.9254C59.8421 65.275 59.8952 64.2817 60.1211 63.6323C60.3258 63.0439 60.7314 62.5698 61.5569 62.0892C62.4295 61.5811 63.6421 61.1399 65.3287 60.587C65.6674 60.476 66.0226 60.3613 66.3934 60.2415Z" fill="#C47A2C"/>
<path fill-rule="evenodd" clip-rule="evenodd" d="M67.0532 43.9447C67.0532 39.7779 70.431 36.4001 74.5978 36.4001C78.7646 36.4001 82.1424 39.7779 82.1424 43.9447V47.7851C82.1424 51.9519 78.7646 55.3297 74.5978 55.3297C70.431 55.3297 67.0532 51.9519 67.0532 47.7851V43.9447ZM74.5978 39.2001C71.9774 39.2001 69.8532 41.3244 69.8532 43.9447V47.7851C69.8532 50.4055 71.9774 52.5297 74.5978 52.5297C77.2182 52.5297 79.3424 50.4055 79.3424 47.7851V43.9447C79.3424 41.3244 77.2182 39.2001 74.5978 39.2001Z" fill="#C47A2C"/>
<path fill-rule="evenodd" clip-rule="evenodd" d="M43.8364 59.3688C43.1402 59.1132 42.4032 58.8426 41.6216 58.5514C40.8971 58.2816 40.5285 57.4753 40.7984 56.7508C41.0682 56.0262 41.8745 55.6577 42.599 55.9275C43.3466 56.206 44.0667 56.4704 44.7559 56.7235C46.1583 57.2386 47.4336 57.7069 48.5558 58.152C50.2308 58.8161 51.6819 59.472 52.8381 60.2364C54.0122 61.0126 54.9517 61.9454 55.5126 63.1865C56.0709 64.4226 56.1841 65.8107 55.9887 67.3739C55.8928 68.1411 55.1931 68.6853 54.4257 68.5894C53.6585 68.4935 53.1143 67.7936 53.2102 67.0264C53.365 65.7897 53.2416 64.9609 52.9609 64.3394C52.6824 63.7231 52.1803 63.1581 51.2941 62.5722C50.39 61.9745 49.1622 61.4044 47.5239 60.7548C46.4345 60.3229 45.2154 59.8752 43.8364 59.3688Z" fill="#C47A2C"/>
<path fill-rule="evenodd" clip-rule="evenodd" d="M32.8724 59.3134C33.5221 59.0756 34.2104 58.8239 34.9414 58.5516C35.6661 58.2819 36.0347 57.4756 35.7648 56.7511C35.4949 56.0264 34.6887 55.658 33.9641 55.9277C33.2789 56.183 32.6155 56.4256 31.9771 56.6591C30.5132 57.1946 29.1811 57.6818 28.0214 58.1614C26.3495 58.8529 24.881 59.5879 23.7217 60.5585C22.5244 61.5608 21.6844 62.7903 21.2347 64.3952C20.7971 65.9568 20.7485 67.8039 20.99 70.0318C21.0735 70.8005 21.7642 71.356 22.5328 71.2727C23.3016 71.1893 23.8571 70.4985 23.7738 69.7299C23.5508 67.674 23.6292 66.2274 23.9309 65.1507C24.2204 64.1175 24.7321 63.3643 25.519 62.7054C26.344 62.0148 27.4927 61.4102 29.0915 60.7489C30.1956 60.2923 31.4405 59.837 32.8724 59.3134Z" fill="#C47A2C"/>
<path fill-rule="evenodd" clip-rule="evenodd" d="M30.6533 43.9447C30.6533 39.7779 34.0311 36.4001 38.1979 36.4001C42.3647 36.4001 45.7425 39.7779 45.7425 43.9447V47.7851C45.7425 51.9519 42.3647 55.3297 38.1979 55.3297C34.0311 55.3297 30.6533 51.9519 30.6533 47.7851V43.9447ZM38.1979 39.2001C35.5775 39.2001 33.4533 41.3244 33.4533 43.9447V47.7851C33.4533 50.4055 35.5775 52.5297 38.1979 52.5297C40.8183 52.5297 42.9425 50.4055 42.9425 47.7851V43.9447C42.9425 41.3244 40.8183 39.2001 38.1979 39.2001Z" fill="#C47A2C"/>
<path fill-rule="evenodd" clip-rule="evenodd" d="M62.0355 88.7649C61.34 88.5112 60.6037 88.2427 59.8218 87.9515C59.0973 87.6817 58.7287 86.8755 58.9986 86.151C59.2684 85.4264 60.0746 85.0579 60.7991 85.3276C61.5312 85.6004 62.2423 85.8596 62.9274 86.1095C64.3518 86.6291 65.664 87.1077 66.8193 87.58C68.5386 88.2829 70.0638 89.0301 71.2822 90.0055C72.5348 91.0084 73.4511 92.2422 73.9619 93.8647C74.461 95.4503 74.5453 97.3193 74.3019 99.5648C74.2184 100.333 73.5278 100.889 72.7591 100.806C71.9903 100.722 71.4348 100.032 71.5181 99.2628C71.7392 97.2246 71.6304 95.7831 71.2912 94.7055C70.9636 93.6649 70.3961 92.8829 69.5322 92.1913C68.6341 91.4722 67.4099 90.8465 65.7596 90.1718C64.654 89.7197 63.4258 89.2719 62.0355 88.7649Z" fill="#C47A2C"/>
<path fill-rule="evenodd" clip-rule="evenodd" d="M51.0726 88.7135C51.7223 88.4758 52.4106 88.2241 53.1416 87.9518C53.8663 87.682 54.2349 86.8757 53.965 86.1512C53.6951 85.4266 52.8889 85.0581 52.1643 85.3279C51.4791 85.5831 50.8157 85.8257 50.1773 86.0593C48.7134 86.5948 47.3813 87.082 46.2216 87.5616C44.5497 88.2531 43.0812 88.9881 41.9219 89.9587C40.7246 90.9609 39.8846 92.1904 39.4349 93.7954C38.9973 95.3569 38.9487 97.2041 39.1902 99.4319C39.2737 100.201 39.9644 100.756 40.733 100.673C41.5018 100.589 42.0573 99.8987 41.974 99.1301C41.751 97.0742 41.8294 95.6276 42.1311 94.5508C42.4206 93.5176 42.9323 92.7644 43.7192 92.1056C44.5442 91.4149 45.6929 90.8103 47.2917 90.1491C48.3958 89.6924 49.6407 89.2371 51.0726 88.7135Z" fill="#C47A2C"/>
<path fill-rule="evenodd" clip-rule="evenodd" d="M48.8535 73.3447C48.8535 69.1778 52.2313 65.8 56.3981 65.8C60.5649 65.8 63.9427 69.1778 63.9427 73.3447V77.185C63.9427 81.3518 60.5649 84.7296 56.3981 84.7296C52.2313 84.7296 48.8535 81.3518 48.8535 77.185V73.3447ZM56.3981 68.6C53.7777 68.6 51.6535 70.7243 51.6535 73.3447V77.185C51.6535 79.8054 53.7777 81.9296 56.3981 81.9296C59.0185 81.9296 61.1427 79.8054 61.1427 77.185V73.3447C61.1427 70.7243 59.0185 68.6 56.3981 68.6Z" fill="#C47A2C"/>
</svg>
