<svg width="112" height="112" viewBox="0 0 112 112" fill="none" xmlns="http://www.w3.org/2000/svg">
<path fill-rule="evenodd" clip-rule="evenodd" d="M53.2573 68.601C54.0298 68.6327 54.6306 69.2845 54.5989 70.057L53.2215 103.807L56.0002 107.049L58.7789 103.807L57.4013 70.057C57.3698 69.2845 57.9705 68.6327 58.7431 68.601C59.5156 68.5695 60.1674 69.1703 60.1989 69.9428L61.6215 104.793L56.0002 111.351L50.3789 104.793L51.8013 69.9428C51.8328 69.1703 52.4846 68.5695 53.2573 68.601Z" fill="#C47A2C"/>
<path fill-rule="evenodd" clip-rule="evenodd" d="M60.9497 69.3496C59.6371 70.6624 57.8565 71.3999 56 71.3999C54.1435 71.3999 52.3629 70.6624 51.0503 69.3496C49.7375 68.037 49 66.2564 49 64.3999H51.8C51.8 65.5137 52.2425 66.5821 53.0302 67.3697C53.8178 68.1574 54.8862 68.5999 56 68.5999C57.1138 68.5999 58.1822 68.1574 58.9698 67.3697C59.7575 66.5821 60.2 65.5137 60.2 64.3999H63C63 66.2564 62.2625 68.037 60.9497 69.3496Z" fill="#C47A2C"/>
<path fill-rule="evenodd" clip-rule="evenodd" d="M70.5133 64.8233C68.8669 64.223 67.1344 63.5912 65.3111 62.912C64.5866 62.6421 64.2179 61.836 64.4879 61.1114C64.7576 60.3869 65.5639 60.0182 66.2884 60.2882C68.0619 60.9487 69.7692 61.5714 71.4051 62.1679C74.7676 63.3942 77.828 64.5104 80.5393 65.6188C84.5781 67.27 87.9957 68.9623 90.6709 71.104C93.3804 73.2732 95.3178 75.8947 96.4058 79.3501C97.4819 82.7688 97.6992 86.9166 97.136 92.1104C97.0526 92.8792 96.3618 93.4347 95.5932 93.3514C94.8245 93.268 94.2689 92.5772 94.3522 91.8086C94.8931 86.8217 94.6513 83.1017 93.735 80.191C92.8303 77.3173 91.2416 75.1478 88.9209 73.2898C86.566 71.4044 83.4495 69.8335 79.4798 68.2106C76.8181 67.1224 73.8418 66.0371 70.5133 64.8233Z" fill="#C47A2C"/>
<path fill-rule="evenodd" clip-rule="evenodd" d="M43.228 64.7013C44.7648 64.1392 46.3835 63.5473 48.0888 62.912C48.8134 62.6422 49.1821 61.8359 48.9121 61.1114C48.6422 60.3868 47.8361 60.0183 47.1115 60.2881C45.452 60.9062 43.8581 61.4892 42.3327 62.0471C38.875 63.3117 35.7695 64.4475 33.0517 65.5716C29.1286 67.194 25.8588 68.8513 23.3334 70.9653C20.7703 73.1111 19.0002 75.7052 18.0416 79.1261C17.095 82.5034 16.959 86.6178 17.5204 91.7943C17.6037 92.5629 18.2944 93.1185 19.0632 93.0351C19.8318 92.9518 20.3874 92.261 20.304 91.4923C19.7613 86.488 19.9271 82.7741 20.7377 79.8815C21.5361 77.0324 22.978 74.9146 25.1309 73.1124C27.3216 71.2782 30.2718 69.7513 34.1218 68.159C36.7839 67.0581 39.8022 65.9542 43.228 64.7013Z" fill="#C47A2C"/>
<path fill-rule="evenodd" clip-rule="evenodd" d="M39.2002 30.1C39.2002 21.2082 46.4084 14 55.3002 14C64.192 14 71.4002 21.2082 71.4002 30.1V39.9C71.4002 48.7918 64.192 56 55.3002 56C46.4084 56 39.2002 48.7918 39.2002 39.9V30.1ZM55.3002 16.8C47.9548 16.8 42.0002 22.7546 42.0002 30.1V39.9C42.0002 47.2454 47.9548 53.2 55.3002 53.2C62.6456 53.2 68.6002 47.2454 68.6002 39.9V30.1C68.6002 22.7546 62.6456 16.8 55.3002 16.8Z" fill="#C47A2C"/>
<path fill-rule="evenodd" clip-rule="evenodd" d="M107.693 39.2041C108.46 39.1451 109.132 39.7167 109.195 40.4837L109.895 48.8837C109.96 49.6543 109.387 50.3309 108.616 50.3952C107.846 50.4595 107.169 49.8868 107.105 49.1163L106.663 43.8141L93.4119 57.6678C93.1515 57.9399 92.7924 58.0958 92.4158 58.1C92.0391 58.1042 91.6766 57.9563 91.4103 57.69L84.457 50.7367L79.0801 53.7238C78.4042 54.0993 77.5519 53.8558 77.1764 53.1799C76.8009 52.504 77.0445 51.6517 77.7203 51.2762L84.0203 47.7762C84.5667 47.4727 85.2482 47.568 85.6902 48.01L92.378 54.6978L104.259 42.2766L98.8077 42.6959C98.0367 42.7552 97.3637 42.1783 97.3043 41.4073C97.2451 40.6365 97.8219 39.9635 98.5929 39.9041L107.693 39.2041Z" fill="#C47A2C"/>
</svg>
