<svg width="112" height="112" viewBox="0 0 112 112" fill="none" xmlns="http://www.w3.org/2000/svg">
<path fill-rule="evenodd" clip-rule="evenodd" d="M52.313 40.3936C52.313 39.7345 52.8304 39.2002 53.4685 39.2002H80.8104C81.4486 39.2002 81.966 39.7345 81.966 40.3936V92.4461H96.0004C96.6386 92.4461 97.1558 92.9804 97.1558 93.6395C97.1558 94.2987 96.6386 94.833 96.0004 94.833H16.0003C15.3621 94.833 14.8447 94.2987 14.8447 93.6395C14.8447 92.9804 15.3621 92.4461 16.0003 92.4461H18.8953V49.9779C18.8953 49.3188 19.4127 48.7845 20.051 48.7845H36.2535C36.8917 48.7845 37.4089 49.3188 37.4089 49.9779V70.6153H52.313V40.3936ZM52.313 73.0022H37.4089V92.4461H52.313V73.0022ZM54.6241 92.4461H79.6548V41.5871H54.6241V92.4461ZM35.0979 92.4461V51.1713H21.2066V92.4461H35.0979Z" fill="#C47A2C"/>
<path fill-rule="evenodd" clip-rule="evenodd" d="M57.5112 47.7379C57.5112 47.0787 58.0286 46.5444 58.6669 46.5444H64.0003C64.6385 46.5444 65.1557 47.0787 65.1557 47.7379V53.2461C65.1557 53.9052 64.6385 54.4395 64.0003 54.4395H58.6669C58.0286 54.4395 57.5112 53.9052 57.5112 53.2461V47.7379ZM59.8225 48.9313V52.0526H62.8446V48.9313H59.8225Z" fill="#C47A2C"/>
<path fill-rule="evenodd" clip-rule="evenodd" d="M57.5112 69.7706C57.5112 69.1114 58.0286 68.5771 58.6669 68.5771H64.0003C64.6385 68.5771 65.1557 69.1114 65.1557 69.7706V75.2788C65.1557 75.9379 64.6385 76.4722 64.0003 76.4722H58.6669C58.0286 76.4722 57.5112 75.9379 57.5112 75.2788V69.7706ZM59.8225 70.964V74.0853H62.8446V70.964H59.8225Z" fill="#C47A2C"/>
<path fill-rule="evenodd" clip-rule="evenodd" d="M57.5112 58.7542C57.5112 58.0951 58.0286 57.5608 58.6669 57.5608H64.0003C64.6385 57.5608 65.1557 58.0951 65.1557 58.7542V64.2624C65.1557 64.9216 64.6385 65.4559 64.0003 65.4559H58.6669C58.0286 65.4559 57.5112 64.9216 57.5112 64.2624V58.7542ZM59.8225 59.9477V63.069H62.8446V59.9477H59.8225Z" fill="#C47A2C"/>
<path fill-rule="evenodd" clip-rule="evenodd" d="M57.5112 80.7872C57.5112 80.128 58.0286 79.5938 58.6669 79.5938H64.0003C64.6385 79.5938 65.1557 80.128 65.1557 80.7872V86.2954C65.1557 86.9545 64.6385 87.4888 64.0003 87.4888H58.6669C58.0286 87.4888 57.5112 86.9545 57.5112 86.2954V80.7872ZM59.8225 81.9806V85.1019H62.8446V81.9806H59.8225Z" fill="#C47A2C"/>
<path fill-rule="evenodd" clip-rule="evenodd" d="M69.9561 47.7379C69.9561 47.0787 70.4733 46.5444 71.1115 46.5444H76.4449C77.0831 46.5444 77.6005 47.0787 77.6005 47.7379V53.2461C77.6005 53.9052 77.0831 54.4395 76.4449 54.4395H71.1115C70.4733 54.4395 69.9561 53.9052 69.9561 53.2461V47.7379ZM72.2671 48.9313V52.0526H75.2893V48.9313H72.2671Z" fill="#C47A2C"/>
<path fill-rule="evenodd" clip-rule="evenodd" d="M69.9561 69.7706C69.9561 69.1114 70.4733 68.5771 71.1115 68.5771H76.4449C77.0831 68.5771 77.6005 69.1114 77.6005 69.7706V75.2788C77.6005 75.9379 77.0831 76.4722 76.4449 76.4722H71.1115C70.4733 76.4722 69.9561 75.9379 69.9561 75.2788V69.7706ZM72.2671 70.964V74.0853H75.2893V70.964H72.2671Z" fill="#C47A2C"/>
<path fill-rule="evenodd" clip-rule="evenodd" d="M69.9561 58.7542C69.9561 58.0951 70.4733 57.5608 71.1115 57.5608H76.4449C77.0831 57.5608 77.6005 58.0951 77.6005 58.7542V64.2624C77.6005 64.9216 77.0831 65.4559 76.4449 65.4559H71.1115C70.4733 65.4559 69.9561 64.9216 69.9561 64.2624V58.7542ZM72.2671 59.9477V63.069H75.2893V59.9477H72.2671Z" fill="#C47A2C"/>
<path fill-rule="evenodd" clip-rule="evenodd" d="M69.9561 80.7872C69.9561 80.128 70.4733 79.5938 71.1115 79.5938H76.4449C77.0831 79.5938 77.6005 80.128 77.6005 80.7872V86.2954C77.6005 86.9545 77.0831 87.4888 76.4449 87.4888H71.1115C70.4733 87.4888 69.9561 86.9545 69.9561 86.2954V80.7872ZM72.2671 81.9806V85.1019H75.2893V81.9806H72.2671Z" fill="#C47A2C"/>
<path fill-rule="evenodd" clip-rule="evenodd" d="M40.8892 75.921C40.8892 75.2619 41.4066 74.7278 42.0448 74.7278H48.6225C49.2607 74.7278 49.7781 75.2619 49.7781 75.921C49.7781 76.58 49.2607 77.1147 48.6225 77.1147H42.0448C41.4066 77.1147 40.8892 76.58 40.8892 75.921Z" fill="#C47A2C"/>
<path fill-rule="evenodd" clip-rule="evenodd" d="M23.1113 74.0851C23.1113 73.426 23.6287 72.8918 24.2669 72.8918H32.6225C33.2607 72.8918 33.778 73.426 33.778 74.0851C33.778 74.7441 33.2607 75.2787 32.6225 75.2787H24.2669C23.6287 75.2787 23.1113 74.7441 23.1113 74.0851Z" fill="#C47A2C"/>
<path fill-rule="evenodd" clip-rule="evenodd" d="M23.1113 57.5606C23.1113 56.9015 23.6287 56.3672 24.2669 56.3672H32.6225C33.2607 56.3672 33.778 56.9015 33.778 57.5606C33.778 58.2196 33.2607 58.7541 32.6225 58.7541H24.2669C23.6287 58.7541 23.1113 58.2196 23.1113 57.5606Z" fill="#C47A2C"/>
<path fill-rule="evenodd" clip-rule="evenodd" d="M40.8892 81.4293C40.8892 80.7702 41.4066 80.2361 42.0448 80.2361H48.6225C49.2607 80.2361 49.7781 80.7702 49.7781 81.4293C49.7781 82.0883 49.2607 82.623 48.6225 82.623H42.0448C41.4066 82.623 40.8892 82.0883 40.8892 81.4293Z" fill="#C47A2C"/>
<path fill-rule="evenodd" clip-rule="evenodd" d="M23.1113 79.5932C23.1113 78.934 23.6287 78.3999 24.2669 78.3999H32.6225C33.2607 78.3999 33.778 78.934 33.778 79.5932C33.778 80.2521 33.2607 80.7868 32.6225 80.7868H24.2669C23.6287 80.7868 23.1113 80.2521 23.1113 79.5932Z" fill="#C47A2C"/>
<path fill-rule="evenodd" clip-rule="evenodd" d="M23.1113 63.0687C23.1113 62.4096 23.6287 61.8755 24.2669 61.8755H32.6225C33.2607 61.8755 33.778 62.4096 33.778 63.0687C33.778 63.7277 33.2607 64.2624 32.6225 64.2624H24.2669C23.6287 64.2624 23.1113 63.7277 23.1113 63.0687Z" fill="#C47A2C"/>
<path fill-rule="evenodd" clip-rule="evenodd" d="M40.8892 86.9374C40.8892 86.2783 41.4066 85.7441 42.0448 85.7441H48.6225C49.2607 85.7441 49.7781 86.2783 49.7781 86.9374C49.7781 87.5964 49.2607 88.131 48.6225 88.131H42.0448C41.4066 88.131 40.8892 87.5964 40.8892 86.9374Z" fill="#C47A2C"/>
<path fill-rule="evenodd" clip-rule="evenodd" d="M23.1113 85.1015C23.1113 84.4423 23.6287 83.9082 24.2669 83.9082H32.6225C33.2607 83.9082 33.778 84.4423 33.778 85.1015C33.778 85.7604 33.2607 86.2951 32.6225 86.2951H24.2669C23.6287 86.2951 23.1113 85.7604 23.1113 85.1015Z" fill="#C47A2C"/>
<path fill-rule="evenodd" clip-rule="evenodd" d="M23.1113 68.5768C23.1113 67.9177 23.6287 67.3835 24.2669 67.3835H32.6225C33.2607 67.3835 33.778 67.9177 33.778 68.5768C33.778 69.2358 33.2607 69.7704 32.6225 69.7704H24.2669C23.6287 69.7704 23.1113 69.2358 23.1113 68.5768Z" fill="#C47A2C"/>
<path fill-rule="evenodd" clip-rule="evenodd" d="M97.6897 13.4984C98.3231 13.4481 98.877 13.9354 98.9297 14.5893L99.8188 25.6056C99.8716 26.2624 99.399 26.8393 98.763 26.894C98.127 26.9489 97.5687 26.4607 97.5156 25.8039L96.8397 17.4283L79.0576 36.6281C78.8426 36.8602 78.5463 36.9929 78.2354 36.9964C77.9246 37.0001 77.6255 36.8741 77.4055 36.647L68.2441 27.1852L61.006 31.3382C60.4482 31.6582 59.7448 31.4508 59.4347 30.8746C59.1248 30.2983 59.3258 29.5717 59.8836 29.2517L67.8835 24.6615C68.3346 24.4027 68.897 24.4842 69.2619 24.8609L78.2042 34.0963L94.8555 16.1175L86.3114 16.7963C85.6748 16.8469 85.1196 16.3551 85.0704 15.6979C85.0215 15.0408 85.4976 14.467 86.134 14.4165L97.6897 13.4984Z" fill="#C47A2C"/>
</svg>
