<svg width="112" height="112" viewBox="0 0 112 112" fill="none" xmlns="http://www.w3.org/2000/svg">
<path fill-rule="evenodd" clip-rule="evenodd" d="M43.1603 67.6496C45.3469 68.2159 47.3192 69.6585 49.332 71.8541C51.0911 73.7732 52.6742 74.5564 54.0508 74.8283C55.4546 75.1053 56.8038 74.8843 58.169 74.512C58.6042 74.3933 58.9915 74.2744 59.3876 74.1529C59.6467 74.0734 59.9094 73.9927 60.1916 73.9104C60.8474 73.7189 61.5559 73.5349 62.2523 73.4729C62.9621 73.4096 63.7403 73.4647 64.4933 73.824C64.8671 74.0026 65.201 74.24 65.4986 74.5304C69.1809 72.6828 72.0999 71.3616 74.362 70.5192C75.5969 70.0595 76.6657 69.731 77.5754 69.5403C78.466 69.3539 79.3034 69.2773 80.0324 69.4055C80.8062 69.5416 81.5528 69.9339 81.9815 70.7231C82.3706 71.4392 82.3585 72.2377 82.2453 72.9047C82.1587 73.4147 81.9898 73.9741 81.7581 74.5718C84.5491 73.7468 86.9538 73.4203 88.5513 73.5816C89.1032 73.6373 89.6914 73.7626 90.1858 74.0447C90.7196 74.3492 91.2674 74.9282 91.2797 75.8039C91.2904 76.5503 90.8935 77.1551 90.5338 77.5658C90.1467 78.0079 89.6144 78.4397 88.9765 78.865L88.924 78.9L88.8685 78.9303C81.6216 82.8687 76.3989 86.1305 72.2602 88.7153C71.8258 88.9866 71.4032 89.2505 70.9916 89.5068C66.6953 92.1829 63.4588 94.1306 60.1818 95.1599C56.8264 96.2137 53.5128 96.2856 49.0569 95.4435C44.6911 94.6184 39.1365 92.8964 31.2746 90.3002H21.6072L16.3188 81.4862L17.4127 80.7426C19.592 79.2605 21.5763 77.8761 23.3995 76.6008C23.562 76.4871 23.7232 76.3744 23.8832 76.2624C25.5161 75.1202 27.0225 74.0662 28.416 73.119C31.4583 71.0506 34.0536 69.4251 36.3828 68.4469C38.7383 67.4577 40.9467 67.0762 43.1603 67.6496ZM78.0303 75.8977C78.8819 74.3183 79.3596 73.174 79.4847 72.4362C79.5057 72.3129 79.5129 72.2222 79.5141 72.1579C79.2843 72.1249 78.8567 72.1327 78.1496 72.2808C77.4259 72.4325 76.4999 72.7109 75.3392 73.1432C73.1917 73.9429 70.3422 75.2302 66.6502 77.0852C66.7291 77.9085 66.6549 78.7459 66.2752 79.538C65.7138 80.7093 64.6341 81.4776 63.2509 82.0215C60.5689 83.0759 55.8834 83.6078 48.3727 83.9983C47.6004 84.0384 46.942 83.445 46.9018 82.6729C46.8617 81.9008 47.4551 81.2422 48.2272 81.202C55.8476 80.8058 60.0478 80.2722 62.2262 79.4156C63.273 79.004 63.6171 78.6056 63.7503 78.3277C63.8823 78.0523 63.9424 77.6186 63.7826 76.8293C63.5848 76.5321 63.4119 76.4106 63.2867 76.3508C63.129 76.2756 62.8957 76.2266 62.5008 76.2619C62.0924 76.2983 61.6032 76.415 60.9766 76.598C60.77 76.6585 60.5356 76.7302 60.2864 76.8063C59.8496 76.9399 59.3667 77.0876 58.9059 77.2133C57.3835 77.6284 55.539 77.9762 53.5084 77.5752C51.4507 77.1689 49.3588 76.0271 47.2679 73.7462C45.4306 71.7418 43.903 70.7344 42.4582 70.3602C41.0407 69.9929 39.4866 70.1803 37.4671 71.0285C35.4211 71.8877 33.0291 73.3685 29.9901 75.4346C28.6132 76.3707 27.1225 77.4135 25.4858 78.5586C25.3266 78.6699 25.1661 78.7821 25.0043 78.8953C23.4871 79.9563 21.8507 81.0987 20.0798 82.3121L23.1926 87.5002H31.7253L31.9392 87.5709C39.9472 90.2173 45.3854 91.9 49.5768 92.6921C53.7179 93.4749 56.5438 93.3676 59.3427 92.4886C62.2199 91.5849 65.1522 89.8454 69.5113 87.1302C69.9216 86.8746 70.3437 86.6111 70.7783 86.3396C74.9095 83.7593 80.1798 80.4677 87.4741 76.5013C87.5563 76.4458 87.6329 76.3924 87.7043 76.341C86.0197 76.3378 83.0832 76.897 79.5388 78.3017C78.2305 78.8202 76.0581 79.9951 74.1442 81.0867C73.2024 81.6239 72.3475 82.1266 71.7278 82.4954C71.4181 82.6796 71.1676 82.8301 70.9949 82.9344L70.7965 83.0543L70.7298 83.0949L69.9999 81.9002C69.2708 80.705 69.2709 80.7051 69.2709 80.7049L69.2759 80.7018L69.3438 80.6607L69.5484 80.5369C69.7255 80.4301 69.9808 80.2767 70.2961 80.0891C70.9261 79.7143 71.7965 79.2023 72.7569 78.6545C74.4592 77.6837 76.5253 76.5532 78.0303 75.8977Z" fill="#C47A2C"/>
<path fill-rule="evenodd" clip-rule="evenodd" d="M17.5 16.8H94.5V54.6001H17.5V16.8ZM20.3 19.6V51.8001H91.7V19.6H20.3ZM28.699 22.4H83.0599L83.2756 23.5398C83.6291 25.4079 84.0713 26.314 84.6194 26.8491C85.1623 27.3792 86.0161 27.7476 87.719 28.0173L88.9 28.2043V43.4001H87.5C85.6138 43.4001 84.6695 43.8699 84.1609 44.4293C83.6277 45.0158 83.3 45.9959 83.3 47.6001V49H28.7216L28.7001 47.6217C28.6728 45.8541 28.3366 44.8929 27.8289 44.3481C27.3461 43.8299 26.432 43.4001 24.5 43.4001H23.1V28H24.5C26.0263 28 27.0267 27.6099 27.644 27.0173C28.2509 26.4346 28.7013 25.4509 28.7 23.801L28.699 22.4ZM31.4084 25.2C31.1954 26.7442 30.6053 28.0561 29.5831 29.0372C28.5918 29.9888 27.3178 30.5104 25.9 30.7072V40.6717C27.5363 40.8514 28.8935 41.3832 29.8774 42.4392C30.8147 43.4451 31.2486 44.7546 31.415 46.2001H80.577C80.7387 44.8251 81.1762 43.55 82.0891 42.5458C83.069 41.4679 84.4315 40.8794 86.1 40.6793V30.557C84.75 30.245 83.5864 29.7537 82.6634 28.8526C81.7158 27.9275 81.1567 26.7024 80.7743 25.2H31.4084Z" fill="#C47A2C"/>
<path fill-rule="evenodd" clip-rule="evenodd" d="M56 31.5C53.6803 31.5 51.8 33.3803 51.8 35.7C51.8 38.0196 53.6803 39.9 56 39.9C58.3197 39.9 60.2 38.0196 60.2 35.7C60.2 33.3803 58.3197 31.5 56 31.5ZM49 35.7C49 31.834 52.134 28.7 56 28.7C59.866 28.7 63 31.834 63 35.7C63 39.5659 59.866 42.7 56 42.7C52.134 42.7 49 39.5659 49 35.7Z" fill="#C47A2C"/>
</svg>
