<svg width="112" height="112" viewBox="0 0 112 112" fill="none" xmlns="http://www.w3.org/2000/svg">
<path fill-rule="evenodd" clip-rule="evenodd" d="M63.6046 76.1092C65.0031 74.8064 66.8859 74.0853 69.2496 73.7203C71.2196 73.4159 72.3604 72.747 73.0863 72.0184C73.8318 71.2704 74.2579 70.3436 74.6048 69.3052C74.7163 68.9716 74.8049 68.6757 74.8969 68.3685C74.9581 68.1641 75.0208 67.9547 75.0928 67.7259C75.2546 67.2106 75.4507 66.6436 75.7289 66.1343C76.0135 65.613 76.4222 65.0802 77.0463 64.7089C77.2941 64.5615 77.5555 64.4516 77.8281 64.3757C78.2201 61.2564 78.6238 58.8263 79.0546 57.0047C79.295 55.9886 79.5508 55.1309 79.8308 54.4343C80.1035 53.7559 80.4363 53.1348 80.8764 52.6742C81.3479 52.181 82.0148 51.8093 82.8321 51.8839C83.5665 51.951 84.1437 52.359 84.5517 52.7442C84.7421 52.924 84.93 53.1323 85.1156 53.3644C85.768 51.4173 86.5454 49.8717 87.3091 48.9452C87.5982 48.5944 87.9684 48.2284 88.4223 48.0015C88.9168 47.7542 89.653 47.6216 90.3466 48.0706C90.9315 48.4493 91.1804 49.0599 91.2991 49.5009C91.4286 49.982 91.4795 50.5474 91.479 51.1638V51.2269L91.4733 51.2899C90.8857 57.7362 90.7387 62.5651 90.622 66.3979C90.6096 66.8002 90.5977 67.1917 90.5857 67.5728C90.4601 71.5409 90.3211 74.5457 89.5511 77.18C88.7582 79.8929 87.3268 82.1315 84.8078 84.7009C82.3523 87.2054 78.7967 90.0894 73.6894 94.0794L69.1412 100.772H60.7117L60.6999 99.384C60.6832 97.4046 60.6484 95.5327 60.6161 93.7966C60.5818 91.9535 60.5504 90.2632 60.5463 88.7596C60.5386 85.8045 60.6312 83.2985 61.0361 81.243C61.4453 79.1666 62.1973 77.4203 63.6046 76.1092ZM84.1496 57.073C83.562 55.9743 83.087 55.255 82.7181 54.8685C82.6369 55.008 82.5386 55.2054 82.4287 55.4787C82.2196 55.999 82.0016 56.71 81.7796 57.6491C81.3771 59.3504 80.9846 61.6988 80.5946 64.8173C81.1311 65.1332 81.6211 65.5545 81.9697 66.1425C82.5444 67.1119 82.5646 68.2403 82.3082 69.4196C81.8147 71.6893 80.0884 75.027 77.0718 80.0967C76.6764 80.7612 75.8173 80.9793 75.1528 80.5839C74.4884 80.1886 74.2703 79.3294 74.6656 78.6649C77.7382 73.5011 79.1936 70.5658 79.572 68.8248C79.7517 67.9988 79.6306 67.6874 79.5611 67.5704C79.4888 67.4481 79.3101 67.2615 78.7959 67.0431C78.601 67.0501 78.5141 67.0937 78.4777 67.1154C78.4203 67.1495 78.3195 67.2325 78.1863 67.4763C78.0467 67.7319 77.9167 68.079 77.7638 68.5655C77.7155 68.7193 77.6612 68.9001 77.6027 69.0944C77.4982 69.4422 77.3806 69.8335 77.2605 70.1926C76.8621 71.3852 76.2662 72.7942 75.0696 73.995C73.8536 75.2152 72.1322 76.1083 69.6769 76.4874C67.6151 76.8059 66.3471 77.3811 65.5132 78.158C64.6882 78.9266 64.1263 80.0437 63.7833 81.7843C63.4362 83.546 63.3386 85.8114 63.3463 88.7522C63.3504 90.2754 63.3811 91.9088 63.4149 93.7084C63.4399 95.0322 63.4665 96.4461 63.4854 97.9721H67.6586L71.6202 92.1426L71.7931 92.0075C77.0205 87.9261 80.4776 85.118 82.8083 82.7406C85.103 80.4001 86.2342 78.5476 86.8635 76.3943C87.5159 74.1624 87.6591 71.5261 87.7871 67.4841C87.7991 67.1044 87.811 66.7137 87.8232 66.3111C87.9328 62.7093 88.0712 58.1662 88.5803 52.218C88.023 53.3888 87.4326 55.0656 86.9853 57.1493C86.7584 58.2069 86.5793 60.1187 86.4574 61.8491C86.3976 62.6965 86.3532 63.473 86.3238 64.0377C86.3091 64.3198 86.2982 64.5486 86.2909 64.7065L86.2829 64.8877L86.2803 64.9483L84.8814 64.8917C83.4827 64.8345 83.4827 64.8344 83.4827 64.8342L83.4855 64.7666L83.4939 64.5781C83.5014 64.4153 83.5126 64.1807 83.5276 63.8921C83.5577 63.3155 83.6029 62.5213 83.6642 61.6522C83.7695 60.1598 83.9272 58.3581 84.1496 57.073ZM88.5694 50.1512C88.5696 50.1507 88.5722 50.1559 88.5767 50.168C88.5714 50.1576 88.5691 50.1516 88.5694 50.1512Z" fill="#C47A2C"/>
<path fill-rule="evenodd" clip-rule="evenodd" d="M48.3541 75.6667C46.8825 74.3991 44.9115 73.7641 42.4559 73.5185C40.3857 73.3115 39.2066 72.6861 38.4689 71.9947C37.7115 71.2848 37.2799 70.3775 36.9275 69.3391C36.8141 69.005 36.7248 68.7098 36.6317 68.4021C36.5696 68.1965 36.5057 67.9856 36.4319 67.7539C36.2672 67.2361 36.0653 66.6612 35.7746 66.1481C35.4755 65.6201 35.0427 65.0856 34.3819 64.7335C34.1318 64.6002 33.8701 64.5043 33.5991 64.4415C33.2184 61.2997 32.8194 58.8535 32.3868 57.0231C32.1443 55.9974 31.8835 55.1316 31.5949 54.4303C31.3144 53.7484 30.9666 53.1194 30.4987 52.661C29.988 52.1607 29.2904 51.8326 28.4748 51.947C27.7535 52.048 27.182 52.4663 26.7663 52.8677C26.5381 53.0882 26.312 53.3483 26.0879 53.6406C25.4202 51.6736 24.6144 50.12 23.8125 49.2011C23.5081 48.8523 23.1167 48.4914 22.6372 48.2807C22.1056 48.0472 21.3827 47.9787 20.7255 48.4253C20.1655 48.806 19.9097 49.3976 19.781 49.8565C19.6433 50.3479 19.5851 50.9248 19.58 51.5556L19.5796 51.6205L19.5851 51.6854C20.1421 58.2349 20.2533 63.157 20.3415 67.0639C20.3507 67.474 20.3597 67.873 20.3689 68.2614C20.4651 72.3035 20.5837 75.369 21.3674 78.0251C22.1769 80.7685 23.6631 82.9905 26.281 85.4868C28.8273 87.9148 32.5175 90.6698 37.8116 94.4652L42.1908 100.728H51.276L51.2998 99.352C51.3326 97.4514 51.3797 95.6577 51.4236 93.9843C51.4765 91.9694 51.5248 90.1291 51.5382 88.4872C51.5629 85.466 51.4752 82.9055 51.0555 80.8194C50.6312 78.711 49.8406 76.947 48.3541 75.6667ZM27.0609 57.3636C27.7389 56.1081 28.2841 55.2968 28.7065 54.8866C28.7882 55.02 28.8904 55.2157 29.0057 55.4959C29.2176 56.0109 29.4384 56.7216 29.6618 57.6673C30.0687 59.388 30.4595 61.7766 30.8413 64.9606C30.2662 65.3065 29.7434 65.7569 29.3741 66.3756C28.7849 67.3624 28.7437 68.5036 29.0052 69.712C29.2631 70.9041 29.8477 72.3187 30.7212 74.0184C31.6022 75.733 32.818 77.8147 34.3937 80.3571C34.801 81.0142 35.6639 81.2168 36.3212 80.8096C36.9784 80.4022 37.181 79.5392 36.7737 78.882C35.2123 76.3626 34.042 74.3546 33.2117 72.7388C32.3738 71.1083 31.9218 69.952 31.7418 69.1198C31.5654 68.3042 31.6847 67.9676 31.7782 67.811C31.8807 67.6392 32.1127 67.4132 32.6923 67.1484C32.9297 67.1405 33.0308 67.1863 33.0654 67.2048C33.1134 67.2303 33.2076 67.2975 33.3385 67.5283C33.4777 67.774 33.6086 68.1149 33.764 68.6031C33.8126 68.7558 33.8674 68.9367 33.9268 69.1316C34.0332 69.4819 34.1536 69.8778 34.2761 70.2389C34.6831 71.4387 35.2991 72.8615 36.5543 74.0378C37.8294 75.2328 39.6279 76.0496 42.1771 76.3046C44.341 76.5209 45.6644 77.0454 46.5268 77.7882C47.3742 78.5182 47.957 79.6152 48.3105 81.3718C48.6685 83.1506 48.7629 85.4592 48.7382 88.4643C48.7249 90.1036 48.6779 91.8881 48.6257 93.8654C48.5922 95.1356 48.5567 96.4855 48.5266 97.9278H43.6496L39.8319 92.4681L39.6371 92.3286C34.2083 88.4393 30.6241 85.7593 28.2133 83.4605C25.8431 81.2003 24.6871 79.3818 24.0529 77.2327C23.393 74.9963 23.2662 72.3175 23.1682 68.1949C23.159 67.8078 23.15 67.4095 23.1408 66.9991C23.0556 63.2295 22.9478 58.4478 22.4345 52.1616C23.0503 53.3186 23.73 55.1151 24.2248 57.4333C24.452 58.4973 24.6223 60.4373 24.7345 62.1982C24.7894 63.0604 24.8289 63.8505 24.8547 64.4254C24.8675 64.7126 24.8769 64.9456 24.8831 65.1063L24.8899 65.2908L24.8922 65.3526L26.2913 65.3067C27.6906 65.2601 27.6906 65.2599 27.6906 65.2599L27.6883 65.1909L27.6811 64.9989C27.6747 64.8329 27.665 64.5941 27.6518 64.3002C27.6255 63.7129 27.5852 62.9044 27.5288 62.0202C27.432 60.5016 27.2828 58.6669 27.0609 57.3636Z" fill="#C47A2C"/>
<path fill-rule="evenodd" clip-rule="evenodd" d="M55.3209 4.90004C55.8189 4.89301 56.283 5.15102 56.5399 5.57761C57.6393 7.40296 59.5547 9.05345 61.9456 10.5067C64.3208 11.9503 67.0633 13.1383 69.6907 14.0824C72.3126 15.0246 74.7854 15.7115 76.6047 16.163C77.5132 16.3884 78.2559 16.5545 78.7691 16.6638C79.0257 16.7184 79.2248 16.7587 79.3584 16.7852C79.4251 16.7985 79.4755 16.8083 79.5086 16.8146L79.545 16.8215L79.5531 16.823L79.5545 16.8233C80.0857 16.9218 80.5131 17.3172 80.6524 17.8391C80.8533 18.5929 80.833 19.6618 80.7133 20.8073C80.5876 22.0104 80.3295 23.4846 79.9381 25.1485C79.1548 28.4788 77.8206 32.6401 75.8732 37.0264C71.9914 45.7691 65.5912 55.5865 56.0698 61.3951C55.6005 61.6814 55.007 61.6665 54.5526 61.357C45.8632 55.4391 39.8161 46.2647 36.0359 38.0718C34.1406 33.9638 32.7979 30.0655 31.9712 26.8852C31.558 25.2955 31.27 23.871 31.1079 22.6789C30.9501 21.5175 30.8972 20.476 31.0155 19.6999C31.0981 19.159 31.488 18.7158 32.014 18.5652L32.0157 18.5647L32.0237 18.5624L32.0588 18.5521C32.0907 18.5428 32.1395 18.5285 32.204 18.5092C32.3328 18.4707 32.5249 18.4123 32.7721 18.3347C33.2669 18.1797 33.9823 17.9479 34.8571 17.6434C36.6087 17.0336 38.9889 16.1356 41.5098 14.9824C44.0352 13.827 46.6717 12.4288 48.9504 10.8254C51.2445 9.21108 53.0819 7.45366 54.1214 5.61177C54.3663 5.17808 54.8229 4.90707 55.3209 4.90004ZM33.757 20.9601C33.7709 21.3198 33.8096 21.7663 33.8824 22.3019C34.0262 23.3593 34.289 24.6721 34.6811 26.1807C35.4651 29.1969 36.7512 32.9385 38.5783 36.8987C42.13 44.5963 47.6614 52.9815 55.382 58.5206C63.8046 53.0722 69.6572 44.1264 73.3141 35.8902C75.1911 31.6624 76.4693 27.6668 77.2125 24.5075C77.5843 22.9267 77.8181 21.5728 77.9284 20.5162C77.9775 20.0468 77.9988 19.6646 78.0028 19.363C77.4768 19.2493 76.7707 19.0892 75.9302 18.8806C74.0476 18.4133 71.4792 17.7004 68.7438 16.7174C66.0138 15.7365 63.0828 14.4745 60.4913 12.8994C58.5625 11.727 56.7635 10.3463 55.3808 8.72939C54.0844 10.3671 52.3886 11.8297 50.5616 13.1153C48.0943 14.8515 45.2919 16.3312 42.6747 17.5286C40.0528 18.7281 37.5869 19.6579 35.7778 20.2877C34.9546 20.5742 34.2655 20.7994 33.757 20.9601Z" fill="#C47A2C"/>
<path fill-rule="evenodd" clip-rule="evenodd" d="M50.3927 21.0001C50.3927 20.2269 51.0194 19.6001 51.7927 19.6001H58.5334C59.3066 19.6001 59.9334 20.2269 59.9334 21.0001V24.9456H64.6C65.3732 24.9456 66 25.5724 66 26.3456V32.4546C66 33.2278 65.3732 33.8546 64.6 33.8546H59.9334V37.8001C59.9334 38.5733 59.3066 39.2001 58.5334 39.2001H51.7927C51.0194 39.2001 50.3927 38.5733 50.3927 37.8001V33.8546H46.4C45.6268 33.8546 45 33.2278 45 32.4546V26.3456C45 25.5724 45.6268 24.9456 46.4 24.9456H50.3927V21.0001ZM53.1927 22.4001V26.3456C53.1927 27.1188 52.5657 27.7456 51.7927 27.7456H47.8V31.0546H51.7927C52.5657 31.0546 53.1927 31.6814 53.1927 32.4546V36.4001H57.1334V32.4546C57.1334 31.6814 57.7602 31.0546 58.5334 31.0546H63.2V27.7456H58.5334C57.7602 27.7456 57.1334 27.1188 57.1334 26.3456V22.4001H53.1927Z" fill="#C47A2C"/>
</svg>
