<svg width="112" height="112" viewBox="0 0 112 112" fill="none" xmlns="http://www.w3.org/2000/svg">
<path fill-rule="evenodd" clip-rule="evenodd" d="M39.8019 14.0001C39.8019 13.2269 40.4287 12.6001 41.2019 12.6001H70.2519C71.0251 12.6001 71.6519 13.2269 71.6519 14.0001V27.3187H94.2665C94.6379 27.3187 94.994 27.4663 95.2565 27.7288C95.5191 27.9914 95.6665 28.3474 95.6665 28.7187V64.9321C95.6665 65.7053 95.0397 66.3321 94.2665 66.3321C93.4934 66.3321 92.8665 65.7053 92.8665 64.9321V31.8971L77.0069 46.407C76.7489 46.6432 76.4118 46.7741 76.0619 46.7741H64.2925V53.5081C64.2925 54.2813 63.6657 54.9081 62.8925 54.9081H49.3359C48.5627 54.9081 47.9359 54.2813 47.9359 53.5081V46.7741H34.6173C34.2622 46.7741 33.9205 46.6393 33.6612 46.3968L18.1999 31.9439V82.3204C26.9689 82.323 38.3899 82.3495 47.8014 82.3761C52.7621 82.3901 57.1651 82.4041 60.3279 82.4146L65.4118 82.4321C65.4121 82.4321 65.4134 82.4321 65.4082 83.8321C65.4031 85.2321 65.403 85.2321 65.4027 85.2321L60.3185 85.2146C57.1562 85.2041 52.7537 85.1901 47.7935 85.1761C37.8727 85.1481 25.7222 85.1201 16.7999 85.1201C16.0267 85.1201 15.3999 84.4933 15.3999 83.7201V28.7187C15.3999 27.9455 16.0267 27.3187 16.7999 27.3187H39.8019V14.0001ZM42.6019 27.3187H68.8519V15.4001H42.6019V27.3187ZM65.4082 83.8321L65.4027 85.2321C66.1759 85.2349 66.8054 84.6104 66.8082 83.8371C66.811 83.0641 66.1864 82.4349 65.4134 82.4321L65.4082 83.8321ZM20.3476 30.1187H90.6624L75.5181 43.9741H64.2925V38.4021C64.2925 37.6289 63.6657 37.0021 62.8925 37.0021H49.3359C48.9646 37.0021 48.6085 37.1497 48.346 37.4122C48.0835 37.6747 47.9359 38.0308 47.9359 38.4021V43.9741H35.1697L20.3476 30.1187ZM50.7359 39.8021V52.1081H61.4925V39.8021H50.7359ZM83.0339 71.2321C83.8071 71.2321 84.4339 71.8589 84.4339 72.6321V78.6266L89.1763 81.2018C89.8558 81.5708 90.1075 82.4208 89.7385 83.1002C89.3696 83.7797 88.5197 84.0313 87.8401 83.6624L82.3658 80.6898C81.9147 80.4448 81.6339 79.9727 81.6339 79.4595V72.6321C81.6339 71.8589 82.2607 71.2321 83.0339 71.2321Z" fill="#C47A2C"/>
<path fill-rule="evenodd" clip-rule="evenodd" d="M83.809 63.4292C74.9558 63.4292 67.779 70.6061 67.779 79.4592C67.779 88.3123 74.9558 95.4891 83.809 95.4891C92.662 95.4891 99.839 88.3123 99.839 79.4592C99.839 70.6061 92.662 63.4292 83.809 63.4292ZM64.979 79.4592C64.979 69.0597 73.4094 60.6292 83.809 60.6292C94.2085 60.6292 102.639 69.0597 102.639 79.4592C102.639 89.8588 94.2085 98.2891 83.809 98.2891C73.4094 98.2891 64.979 89.8588 64.979 79.4592Z" fill="#C47A2C"/>
</svg>
