<svg width="112" height="112" viewBox="0 0 112 112" fill="none" xmlns="http://www.w3.org/2000/svg">
<path fill-rule="evenodd" clip-rule="evenodd" d="M46.5409 83.7772C45.456 83.3817 44.3121 82.9645 43.1042 82.5146C42.3795 82.2447 42.0109 81.4385 42.2808 80.7139C42.5508 79.9894 43.3569 79.6208 44.0814 79.8907C45.2396 80.322 46.3583 80.7301 47.4327 81.1219C49.6501 81.9306 51.6778 82.6701 53.4698 83.4027C56.1384 84.4938 58.438 85.6276 60.2525 87.0804C62.1013 88.5606 63.4355 90.3623 64.1826 92.7348C64.9178 95.0706 65.0566 97.8721 64.6822 101.324C64.5988 102.093 63.908 102.648 63.1394 102.565C62.3707 102.482 61.8152 101.791 61.8985 101.022C62.2504 97.7774 62.0872 95.4034 61.5118 93.5757C60.948 91.7849 59.9627 90.4351 58.5026 89.2662C57.0084 88.0699 55.0098 87.0573 52.4102 85.9946C50.6678 85.2822 48.7243 84.5734 46.5409 83.7772Z" fill="#C47A2C"/>
<path fill-rule="evenodd" clip-rule="evenodd" d="M28.8979 83.697C29.9107 83.3267 30.9797 82.9357 32.1095 82.5148C32.834 82.245 33.2026 81.4388 32.9327 80.7143C32.6629 79.9896 31.8567 79.621 31.1322 79.8909C30.0483 80.2947 29.004 80.6766 28.0026 81.0429C25.7227 81.8767 23.665 82.6293 21.8677 83.3727C19.2746 84.4451 17.0689 85.5576 15.3505 86.9961C13.5942 88.4664 12.3736 90.2542 11.7156 92.6022C11.0698 94.9069 10.9853 97.6818 11.3578 101.116C11.4412 101.885 12.1319 102.441 12.9006 102.357C13.6693 102.274 14.2249 101.583 14.1415 100.814C13.7877 97.5521 13.9018 95.1777 14.4118 93.3578C14.9095 91.5815 15.8019 90.2698 17.1478 89.1431C18.5317 87.9845 20.4177 87.0024 22.9377 85.9601C24.6794 85.2398 26.6501 84.5191 28.8979 83.697Z" fill="#C47A2C"/>
<path fill-rule="evenodd" clip-rule="evenodd" d="M26.4702 60.4183C26.4702 54.3398 31.3979 49.4121 37.4765 49.4121C43.555 49.4121 48.4827 54.3398 48.4827 60.4183V66.4223C48.4827 72.5008 43.555 77.4285 37.4765 77.4285C31.3979 77.4285 26.4702 72.5008 26.4702 66.4223V60.4183ZM37.4765 52.2121C32.9442 52.2121 29.2702 55.8863 29.2702 60.4183V66.4223C29.2702 70.9545 32.9442 74.6285 37.4765 74.6285C42.0087 74.6285 45.6827 70.9545 45.6827 66.4223V60.4183C45.6827 55.8863 42.0087 52.2121 37.4765 52.2121Z" fill="#C47A2C"/>
<path fill-rule="evenodd" clip-rule="evenodd" d="M33.4086 30.8156C34.0481 30.7197 34.67 31.0742 34.9134 31.6733L42.7184 50.8856C43.0095 51.602 42.6647 52.4186 41.9483 52.7097C41.2319 53.0007 40.4153 52.6559 40.1244 51.9395L38.7811 48.6331C38.6229 48.5923 38.4498 48.5414 38.2692 48.4784C37.6055 48.2466 36.5182 47.7387 35.9665 46.6352C35.3236 45.3494 35.9036 44.1165 36.2756 43.5152C36.3634 43.3733 36.4543 43.2422 36.5427 43.1234L34.5014 38.0983L33.2098 52.7364C33.1417 53.5067 32.4623 54.0759 31.6922 54.0079C30.9219 53.94 30.3526 53.2606 30.4205 52.4903L32.2218 32.0772C32.2786 31.433 32.7692 30.9117 33.4086 30.8156Z" fill="#C47A2C"/>
<path fill-rule="evenodd" clip-rule="evenodd" d="M75.7076 66.2314C76.5056 65.9405 77.3491 65.6329 78.2429 65.3C78.9675 65.0301 79.3362 64.2239 79.0662 63.4993C78.7963 62.7748 77.9902 62.4062 77.2657 62.6761C76.4216 62.9904 75.6033 63.2889 74.8158 63.576C73.1829 64.1716 71.6825 64.7188 70.3598 65.2597C68.3908 66.0645 66.662 66.9135 65.2869 68.0144C63.8774 69.1428 62.8512 70.526 62.2783 72.3458C61.717 74.1285 61.6185 76.2428 61.8964 78.8055C61.9798 79.5742 62.6704 80.1298 63.4392 80.0465C64.2079 79.963 64.7634 79.2724 64.6801 78.5037C64.4246 76.148 64.5478 74.4614 64.9491 73.1866C65.3388 71.9487 66.0161 71.0173 67.0367 70.2003C68.0916 69.3556 69.5195 68.6281 71.4194 67.8513C72.6925 67.331 74.1087 66.8145 75.7076 66.2314Z" fill="#C47A2C"/>
<path fill-rule="evenodd" clip-rule="evenodd" d="M88.4268 66.1722C87.6816 65.8996 86.8931 65.6113 86.0572 65.3C85.3327 65.0301 84.964 64.2239 85.234 63.4993C85.5037 62.7748 86.31 62.4062 87.0345 62.6761C87.8245 62.9702 88.5881 63.2495 89.322 63.5181C91.0004 64.132 92.5235 64.6889 93.8508 65.238C95.7649 66.0295 97.4273 66.8639 98.7336 67.9575C100.078 69.0829 101.018 70.4591 101.522 72.2595C102.015 74.0164 102.073 76.1076 101.797 78.6528C101.713 79.4215 101.023 79.977 100.254 79.8937C99.4854 79.8103 98.9299 79.1197 99.0132 78.3509C99.2705 75.9778 99.1827 74.2871 98.8263 73.015C98.482 71.7863 97.8702 70.8864 96.9363 70.1045C95.9643 69.2908 94.6218 68.5868 92.7807 67.8253C91.509 67.2995 90.0732 66.7743 88.4268 66.1722Z" fill="#C47A2C"/>
<path fill-rule="evenodd" clip-rule="evenodd" d="M90.7013 48.7237C90.7013 44.0543 86.9159 40.2688 82.2464 40.2688C77.5768 40.2688 73.7915 44.0543 73.7915 48.7237V53.133C73.7915 57.8025 77.5768 61.588 82.2464 61.588C86.9159 61.588 90.7013 57.8025 90.7013 53.133V48.7237ZM82.2464 43.0688C85.3695 43.0688 87.9013 45.6006 87.9013 48.7237V53.133C87.9013 56.2561 85.3695 58.788 82.2464 58.788C79.1233 58.788 76.5915 56.2561 76.5915 53.133V48.7237C76.5915 45.6006 79.1233 43.0688 82.2464 43.0688Z" fill="#C47A2C"/>
<path fill-rule="evenodd" clip-rule="evenodd" d="M82.4701 23.8005C81.8275 23.7847 81.2565 24.2084 81.0859 24.8281L77.9993 36.0281L77.9908 36.0604L76.3423 42.652C76.1927 43.2497 76.4515 43.8748 76.9797 44.1919C77.5078 44.5091 78.1812 44.4438 78.6385 44.0309L77.7004 42.9917C78.6385 44.0309 78.6387 44.0308 78.6388 44.0306L78.6392 44.0302L78.6404 44.0292L78.6437 44.0261L78.6549 44.0159L78.6947 43.9797C78.7286 43.9486 78.7767 43.9039 78.8371 43.8472C78.9577 43.7341 79.1276 43.5724 79.3285 43.3744C79.7279 42.9808 80.2604 42.4332 80.7758 41.8321C81.2809 41.2427 81.817 40.5473 82.1835 39.862C82.3663 39.5198 82.5387 39.1225 82.6234 38.7014C82.7078 38.2822 82.7272 37.7233 82.4526 37.174C82.0631 36.3949 81.549 35.8783 81.0365 35.5461L82.2923 30.9891L85.0375 43.2965C85.2058 44.0512 85.954 44.5265 86.7087 44.3581C87.4633 44.1898 87.9386 43.4416 87.7703 42.6869L83.8019 24.8953C83.662 24.2679 83.1128 23.8164 82.4701 23.8005Z" fill="#C47A2C"/>
<path d="M45.3684 28.4424C45.1105 29.1961 45.1064 30.0141 45.3577 30.7702C45.6086 31.5264 46.1011 32.1789 46.7593 32.6283L47.6184 31.4491H47.618C47.2117 31.1841 46.905 30.7909 46.7471 30.3319C46.5886 29.8734 46.5882 29.3747 46.7446 28.9156C47.3762 29.0806 48.0288 29.1522 48.6809 29.1269C49.692 29.1385 50.6517 28.6814 51.2799 27.8893C51.6556 27.3292 51.742 26.6233 51.5129 25.9891C51.4068 25.5702 51.1635 25.1995 50.8218 24.9354C50.48 24.6713 50.0591 24.5296 49.6274 24.5332C48.3533 24.5332 46.8538 25.6468 45.9874 27.1033V27.1028C44.0055 26.2359 42.5374 24.4988 42.0123 22.3999L40.6001 22.764C41.2252 25.2929 42.9858 27.3896 45.3685 28.4424H45.3684ZM49.6416 26.0182C49.831 26.0182 50.0057 26.0182 50.1368 26.4549C50.2241 26.658 50.2023 26.8911 50.0788 27.0739C49.7015 27.4735 49.1719 27.6934 48.6229 27.6782C48.2228 27.696 47.8221 27.6666 47.4286 27.5908C47.9217 26.786 48.7205 26.2157 49.6421 26.0111L49.6416 26.0182Z" fill="#C47A2C"/>
<path d="M14.5681 62.0425C14.3102 62.7962 14.3061 63.6142 14.5574 64.3703C14.8083 65.1265 15.3008 65.779 15.959 66.2284L16.8181 65.0492H16.8177C16.4114 64.7842 16.1047 64.391 15.9468 63.932C15.7883 63.4735 15.7879 62.9748 15.9443 62.5157C16.5759 62.6807 17.2285 62.7523 17.8806 62.727C18.8917 62.7386 19.8514 62.2815 20.4796 61.4894C20.8553 60.9293 20.9417 60.2234 20.7127 59.5892C20.6065 59.1703 20.3632 58.7996 20.0215 58.5355C19.6797 58.2714 19.2588 58.1297 18.8271 58.1333C17.553 58.1333 16.0535 59.2469 15.1871 60.7034V60.7029C13.2051 59.836 11.7371 58.0989 11.212 56L9.7998 56.3641C10.4249 58.893 12.1856 60.9897 14.5682 62.0425H14.5681ZM18.8413 59.6183C19.0307 59.6183 19.2054 59.6183 19.3365 60.055C19.4238 60.2581 19.402 60.4912 19.2785 60.674C18.9012 61.0736 18.3716 61.2935 17.8226 61.2783C17.4225 61.2961 17.0218 61.2667 16.6283 61.1909C17.1214 60.3861 17.9202 59.8158 18.8418 59.6112L18.8413 59.6183Z" fill="#C47A2C"/>
<path d="M11.6615 26.7361C11.6615 27.2094 11.108 27.7046 10.4894 28.1921C9.52104 29.0294 8.20326 30.1435 8.92436 31.9199C9.74701 33.9511 12.091 33.3757 14.1589 32.837C15.6803 32.451 17.406 32.0144 18.3378 32.6186C18.8258 32.9315 18.8328 33.2814 18.5999 34.497C18.2068 36.5135 17.6172 39.5928 24.2564 41.9954L24.7586 40.6269C19.2839 38.6252 19.6628 36.6664 20.0269 34.8027C20.2382 33.6963 20.5072 32.313 19.124 31.4248C17.7407 30.5367 15.6078 31.0029 13.802 31.4248C11.8221 31.9271 10.5987 32.1531 10.2712 31.3664C9.94371 30.5803 10.3804 30.2162 11.4285 29.328C12.2512 28.5999 13.183 27.8722 13.1175 26.6489C13.023 25.0036 11.9455 23.7808 10.9334 22.601C10.4565 22.1014 10.0188 21.5662 9.62322 21L8.3999 21.7861C8.82494 22.4158 9.2967 23.0119 9.81261 23.5696C10.7297 24.6106 11.5961 25.5861 11.6616 26.7362L11.6615 26.7361Z" fill="#C47A2C"/>
<path d="M70.6369 21.9372C70.4083 21.5228 70.654 20.822 70.9602 20.0963C71.4039 18.8954 72.0199 17.2835 70.5305 16.0761C68.8294 14.6947 67.0546 16.3303 65.5038 17.8008C64.3579 18.8733 63.0578 20.0891 61.9499 20.0098C61.3716 19.9716 61.1965 19.6686 60.8136 18.4915C60.184 16.5359 59.2132 13.5547 52.2393 14.6568L52.4603 16.0977C58.221 15.2068 58.8351 17.1051 59.4162 18.9129C59.7655 19.9838 60.1978 21.3251 61.8379 21.4349C63.4782 21.5446 65.1208 20.1066 66.4984 18.865C67.9895 17.4691 68.9518 16.6805 69.6184 17.2112C70.2848 17.7414 70.0782 18.2712 69.5893 19.555C69.2206 20.59 68.7559 21.6771 69.404 22.7167C70.2812 24.1118 71.8153 24.6623 73.2712 25.2066C73.93 25.414 74.5719 25.6713 75.1917 25.9761L75.8833 24.6969C75.207 24.3508 74.506 24.0565 73.785 23.8174C72.4792 23.3485 71.2494 22.9127 70.6368 21.9372H70.6369Z" fill="#C47A2C"/>
<path d="M55.2589 54.1456C55.624 53.8445 56.3581 53.9565 57.1277 54.1235C58.3898 54.3378 60.0879 54.6457 60.9996 52.9592C62.0433 51.0323 60.108 49.5899 58.3767 48.3373C57.1111 47.4089 55.6762 46.3556 55.5495 45.2521C55.4803 44.6766 55.7458 44.4485 56.832 43.8549C58.6379 42.8752 59.7193 42.3731 59.9461 40.1711L58.4273 39.7922C58.2365 40.5519 57.8295 41.6547 56.16 42.5595C55.1719 43.1004 53.9335 43.7729 54.1284 45.4051C54.3232 47.0374 56.0398 48.3863 57.5143 49.511C59.1614 50.719 60.1141 51.5191 59.7156 52.2723C59.3175 53.025 58.7587 52.9198 57.4066 52.6762C56.3215 52.5048 55.1672 52.2489 54.2651 53.0777C53.0558 54.1974 52.7981 55.8067 52.5318 57.3382C52.7169 56.6727 52.4496 58.0239 52.5318 57.3382L53.7278 57.3335C53.6259 58.0863 53.9433 56.605 53.7278 57.3335C53.9475 55.9636 54.4131 54.9278 55.2589 54.1456Z" fill="#C47A2C"/>
</svg>
