<svg width="28" height="28" viewBox="0 0 28 28" fill="none" xmlns="http://www.w3.org/2000/svg">
<path d="M25.6648 0.036377H9.7344C9.05969 0.036377 8.51075 0.588288 8.51075 1.26687V4.07698H2.33669C1.66178 4.07698 1.11279 4.62897 1.11279 5.30753V23.0341V23.3579V26.7331C1.11279 27.4116 1.66178 27.9635 2.33669 27.9635H18.267C18.9417 27.9635 19.4906 27.4116 19.4906 26.7331V25.9379H25.665C26.3398 25.9379 26.8886 25.386 26.8886 24.7075V17.3185V8.65579V1.26685C26.8886 0.588288 26.3396 0.036377 25.6648 0.036377ZM18.5839 26.7331C18.5839 26.9116 18.4418 27.0568 18.267 27.0568H2.33669C2.1618 27.0568 2.01951 26.9116 2.01951 26.7331V23.3579V23.0341V5.30753C2.01951 5.12903 2.1618 4.9837 2.33669 4.9837H8.51077H9.41755H15.0073V7.765C15.0073 8.01677 15.2108 8.22082 15.4619 8.22082H18.5839V23.0341V23.3579V25.0312V25.9379V26.7331ZM15.9168 7.30918V5.55658L17.8535 7.30918H15.9168ZM25.9819 17.3185V24.7075C25.9819 24.886 25.8399 25.0312 25.665 25.0312H19.4906V23.3579V23.0341V7.79008V7.74308C19.4842 7.60766 19.4194 7.48746 19.3202 7.40819L18.5839 6.742L16.6409 4.98368L15.7667 4.19264C15.6885 4.12195 15.5902 4.08309 15.4892 4.07696H15.4376H9.41755V1.26685C9.41755 1.08835 9.55957 0.943141 9.7344 0.943141H25.6648C25.8396 0.943141 25.9819 1.08835 25.9819 1.26685V8.65577V17.3185Z" fill="#2B9140"/>
<path d="M4.47435 7.97166C4.47827 7.97166 4.48221 7.97221 4.48614 7.97221H11.7301C11.9986 7.97221 12.2163 7.75458 12.2163 7.48606C12.2163 7.21754 11.9986 7 11.7301 7H6.18543H4.48614C4.21768 7 4 7.21754 4 7.48606C4 7.75057 4.21143 7.96535 4.47435 7.97166Z" fill="#2B9140"/>
<path d="M4 9.92363C4 10.1921 4.21768 10.4098 4.48614 10.4098H16.4553C16.7238 10.4098 16.9415 10.1921 16.9415 9.92363C16.9415 9.65505 16.7238 9.4375 16.4553 9.4375H4.48614C4.21768 9.4375 4 9.65505 4 9.92363Z" fill="#2B9140"/>
<path d="M16.4553 11.875H4.48614C4.35938 11.875 4.24427 11.924 4.15767 12.0035C4.06102 12.0924 4 12.2194 4 12.3611C4 12.6296 4.21768 12.8473 4.48614 12.8473H16.4553C16.7238 12.8473 16.9415 12.6296 16.9415 12.3611C16.9415 12.2194 16.8805 12.0924 16.7838 12.0035C16.6972 11.924 16.5822 11.875 16.4553 11.875Z" fill="#2B9140"/>
<path d="M16.4553 14.3127H4.48614C4.21768 14.3127 4 14.5304 4 14.7988C4 15.0673 4.21768 15.285 4.48614 15.285H16.4553C16.7238 15.285 16.9415 15.0673 16.9415 14.7988C16.9415 14.5304 16.7238 14.3127 16.4553 14.3127Z" fill="#2B9140"/>
<path d="M16.4553 16.7502H4.48614C4.35938 16.7502 4.24427 16.7992 4.15767 16.8787C4.06102 16.9676 4 17.0946 4 17.2363C4 17.5048 4.21768 17.7226 4.48614 17.7226H16.4553C16.7238 17.7226 16.9415 17.5048 16.9415 17.2363C16.9415 17.0946 16.8805 16.9676 16.7838 16.8787C16.6972 16.7992 16.5822 16.7502 16.4553 16.7502Z" fill="#2B9140"/>
<path d="M16.4553 19.188H4.48614C4.21768 19.188 4 19.4056 4 19.674C4 19.9427 4.21768 20.1603 4.48614 20.1603H16.4553C16.7238 20.1603 16.9415 19.9427 16.9415 19.674C16.9415 19.4056 16.7238 19.188 16.4553 19.188Z" fill="#2B9140"/>
<path d="M16.4553 21.6257H4.48614C4.21768 21.6257 4 21.8434 4 22.1119C4 22.3803 4.21768 22.598 4.48614 22.598H16.4553C16.7238 22.598 16.9415 22.3803 16.9415 22.1119C16.9415 21.8434 16.7238 21.6257 16.4553 21.6257Z" fill="#2B9140"/>
<path d="M16.4553 24.0632H4.48614C4.35938 24.0632 4.24427 24.1122 4.15767 24.1918C4.06102 24.2807 4 24.4076 4 24.5494C4 24.8178 4.21768 25.0357 4.48614 25.0357H16.4553C16.7238 25.0357 16.9415 24.8178 16.9415 24.5494C16.9415 24.4076 16.8805 24.2807 16.7838 24.1918C16.6972 24.1123 16.5822 24.0632 16.4553 24.0632Z" fill="#2B9140"/>
</svg>
