<svg width="28" height="28" viewBox="0 0 28 28" fill="none" xmlns="http://www.w3.org/2000/svg">
<path d="M3.74901 5.05272C3.75293 5.05272 3.75686 5.05326 3.7608 5.05326H11.0047C11.2733 5.05326 11.4909 4.83564 11.4909 4.56712C11.4909 4.2986 11.2733 4.08105 11.0047 4.08105H5.46009H3.7608C3.49234 4.08105 3.27466 4.2986 3.27466 4.56712C3.27466 4.83163 3.48609 5.0464 3.74901 5.05272Z" fill="#2B9140"/>
<path d="M3.27466 7.00468C3.27466 7.27312 3.49234 7.49081 3.7608 7.49081H15.73C15.9985 7.49081 16.2162 7.27312 16.2162 7.00468C16.2162 6.73611 15.9985 6.51855 15.73 6.51855H3.7608C3.49234 6.51855 3.27466 6.73611 3.27466 7.00468Z" fill="#2B9140"/>
<path d="M15.73 8.95605H3.7608C3.63404 8.95605 3.51893 9.00501 3.43233 9.08456C3.33568 9.17341 3.27466 9.30046 3.27466 9.44214C3.27466 9.71066 3.49234 9.9284 3.7608 9.9284H15.73C15.9985 9.9284 16.2162 9.71064 16.2162 9.44214C16.2162 9.30046 16.1552 9.17341 16.0584 9.08456C15.9719 9.00501 15.8568 8.95605 15.73 8.95605Z" fill="#2B9140"/>
<path d="M15.73 11.3938H3.7608C3.49234 11.3938 3.27466 11.6114 3.27466 11.8799C3.27466 12.1484 3.49234 12.3661 3.7608 12.3661H15.73C15.9985 12.3661 16.2162 12.1484 16.2162 11.8799C16.2162 11.6114 15.9985 11.3938 15.73 11.3938Z" fill="#2B9140"/>
<path d="M15.73 13.8313H3.7608C3.63404 13.8313 3.51893 13.8803 3.43233 13.9598C3.33568 14.0487 3.27466 14.1757 3.27466 14.3174C3.27466 14.5858 3.49234 14.8037 3.7608 14.8037H15.73C15.9985 14.8037 16.2162 14.5858 16.2162 14.3174C16.2162 14.1757 16.1552 14.0487 16.0584 13.9598C15.9719 13.8803 15.8568 13.8313 15.73 13.8313Z" fill="#2B9140"/>
<path d="M15.73 16.269H3.7608C3.49234 16.269 3.27466 16.4867 3.27466 16.755C3.27466 17.0237 3.49234 17.2414 3.7608 17.2414H15.73C15.9985 17.2414 16.2162 17.0237 16.2162 16.755C16.2162 16.4867 15.9985 16.269 15.73 16.269Z" fill="#2B9140"/>
<path d="M15.73 18.7065H3.7608C3.49234 18.7065 3.27466 18.9242 3.27466 19.1927C3.27466 19.4611 3.49234 19.6788 3.7608 19.6788H15.73C15.9985 19.6788 16.2162 19.4611 16.2162 19.1927C16.2162 18.9242 15.9985 18.7065 15.73 18.7065Z" fill="#2B9140"/>
<path d="M15.73 21.144H3.7608C3.63404 21.144 3.51893 21.1931 3.43233 21.2726C3.33568 21.3615 3.27466 21.4884 3.27466 21.6302C3.27466 21.8986 3.49234 22.1165 3.7608 22.1165H15.73C15.9985 22.1165 16.2162 21.8986 16.2162 21.6302C16.2162 21.4884 16.1552 21.3615 16.0584 21.2726C15.9719 21.1931 15.8568 21.144 15.73 21.144Z" fill="#2B9140"/>
<path d="M19.1882 3.90785L18.4127 3.20615L16.3663 1.35437L15.4456 0.521307C15.3633 0.446765 15.2598 0.40587 15.1534 0.399414H15.0991H1.30135C0.590651 0.399414 0.0124512 0.980803 0.0124512 1.69544V26.3294C0.0124512 27.044 0.590651 27.6254 1.30135 27.6254H18.079C18.7896 27.6254 19.3677 27.044 19.3677 26.3294V4.30999V4.26049C19.3609 4.11788 19.2927 3.99124 19.1882 3.90785ZM15.6038 1.95774L17.6434 3.80351H15.6038V1.95774ZM18.4127 26.3294C18.4127 26.5175 18.263 26.6705 18.079 26.6705H1.30135C1.11724 26.6705 0.967422 26.5175 0.967422 26.3294V1.69543C0.967422 1.50737 1.11724 1.35437 1.30135 1.35437H14.6458V4.28354C14.6458 4.5488 14.8602 4.76362 15.1247 4.76362H18.4127V26.3294Z" fill="#2B9140"/>
<path d="M27.9766 2.81136C27.8669 1.43773 26.7148 0.353271 25.3134 0.353271C25.3133 0.353271 25.3133 0.353271 25.3133 0.353271C24.5995 0.353271 23.9284 0.631312 23.4236 1.13603C22.9697 1.58986 22.7 2.17833 22.6501 2.81134H22.6409V3.02304C22.6409 3.02397 22.6409 3.02483 22.6409 3.02576C22.6409 3.02617 22.6409 3.02663 22.6409 3.02704L22.6409 24.3266H22.6439C22.6526 24.4107 22.6832 24.4936 22.738 24.5658L24.9334 27.4577C25.0237 27.5767 25.1644 27.6465 25.3137 27.6465C25.4631 27.6464 25.6038 27.5766 25.694 27.4576L27.8888 24.5659C27.9437 24.4936 27.9742 24.4106 27.9829 24.3265H27.986V2.81136H27.9766ZM24.0989 1.81131C24.4233 1.4869 24.8545 1.30826 25.3133 1.30826H25.3134C26.0949 1.30826 26.7561 1.83284 26.9634 2.54832H23.6627C23.742 2.27253 23.8904 2.01982 24.0989 1.81131ZM24.8156 23.3716L23.5958 23.3717L23.5959 3.76633H27.031V23.3716H25.7694L25.7695 7.55955L24.8154 7.55962L24.8156 23.3716ZM25.3135 26.3793L23.7553 24.3266L26.8717 24.3265L25.3135 26.3793Z" fill="#2B9140"/>
</svg>
