<svg width="28" height="28" viewBox="0 0 28 28" fill="none" xmlns="http://www.w3.org/2000/svg">
<path d="M13.5781 20.6336C13.547 20.6354 13.5181 20.6308 13.4889 20.6254C13.3946 20.6086 13.3044 20.564 13.2318 20.4914L5.22284 12.4825C5.13181 12.3914 5.08069 12.268 5.08069 12.1392C5.08069 12.0105 5.13182 11.887 5.2229 11.7959L7.08625 9.93278C7.27586 9.74324 7.58332 9.74324 7.77266 9.93278L13.5766 15.7366L24.8992 4.41383C25.0888 4.22428 25.3962 4.22428 25.5857 4.41383L27.4491 6.27713C27.5401 6.36815 27.5913 6.49167 27.5913 6.6204C27.5913 6.74912 27.5402 6.87258 27.4491 6.9636L13.9213 20.4914C13.8303 20.5824 13.7068 20.6336 13.5781 20.6336ZM6.25255 12.1392L13.5765 19.4632L26.4194 6.62041L25.2425 5.44359L13.9198 16.7663C13.7302 16.9559 13.4228 16.9559 13.2334 16.7663L7.42946 10.9625L6.25255 12.1392Z" fill="white"/>
<path d="M26.3268 10.3082C26.6778 11.4781 26.8674 12.7173 26.8674 14C26.8674 21.0946 21.0955 26.8665 14.0008 26.8665C6.90627 26.8665 1.13439 21.0946 1.13439 14C1.13439 6.90542 6.90627 1.13348 14.0008 1.13348C17.3171 1.13348 20.3442 2.39481 22.628 4.4627L23.315 3.77569C20.8547 1.53243 17.5848 0.162659 14.0008 0.162659C6.37094 0.162659 0.163557 6.37011 0.163557 14C0.163557 21.63 6.37094 27.8373 14.0008 27.8373C21.6308 27.8373 27.8383 21.63 27.8383 14C27.8383 12.4387 27.5779 10.937 27.0991 9.53584L26.3268 10.3082Z" fill="white"/>
</svg>
