<svg width="48" height="39" viewBox="0 0 48 39" fill="none" xmlns="http://www.w3.org/2000/svg">
<path d="M30.6017 4.81375C29.5014 5.91404 27.7135 5.91404 26.6132 4.81375C25.5129 3.71347 25.5129 1.9255 26.6132 0.825215C27.7135 -0.275072 29.5014 -0.275072 30.6017 0.825215C31.702 1.9255 31.702 3.71347 30.6017 4.81375Z" fill="#BDBDBD"/>
<path d="M36.1031 10.3841C35.0028 11.4844 33.2149 11.4844 32.1146 10.3841C31.0143 9.28378 31.0143 7.49581 32.1146 6.39553C33.2149 5.29524 35.0028 5.29524 36.1031 6.39553C37.2034 7.42705 37.2034 9.21501 36.1031 10.3841Z" fill="#BDBDBD"/>
<path d="M41.6733 15.8855C40.573 16.9858 38.7851 16.9858 37.6848 15.8855C36.5845 14.7852 36.5845 12.9973 37.6848 11.897C38.7851 10.7967 40.573 10.7967 41.6733 11.897C42.7736 12.9973 42.7736 14.7852 41.6733 15.8855Z" fill="#BDBDBD"/>
<path d="M47.1748 21.387C46.0745 22.4873 44.2865 22.4873 43.1862 21.387C42.086 20.2867 42.086 18.4987 43.1862 17.3985C44.2865 16.2982 46.0745 16.2982 47.1748 17.3985C48.2751 18.4987 48.2751 20.2867 47.1748 21.387Z" fill="#BDBDBD"/>
<path d="M13.4785 19.3927C13.4785 20.9744 12.2407 22.2122 10.659 22.2122C9.07736 22.2122 7.83954 20.9744 7.83954 19.3927C7.83954 17.8111 9.07736 16.5732 10.659 16.5732C12.2407 16.5732 13.4785 17.8798 13.4785 19.3927Z" fill="#BDBDBD"/>
<path d="M21.318 19.3927C21.318 20.9744 20.0802 22.2122 18.4986 22.2122C16.9169 22.2122 15.6791 20.9744 15.6791 19.3927C15.6791 17.8111 16.9169 16.5732 18.4986 16.5732C20.0115 16.5732 21.318 17.8798 21.318 19.3927Z" fill="#BDBDBD"/>
<path d="M29.1576 19.3927C29.1576 20.9744 27.9198 22.2122 26.3381 22.2122C24.7564 22.2122 23.5186 20.9744 23.5186 19.3927C23.5186 17.8111 24.7564 16.5732 26.3381 16.5732C27.851 16.5732 29.1576 17.8798 29.1576 19.3927Z" fill="#BDBDBD"/>
<path d="M36.9283 19.3927C36.9283 20.9744 35.6905 22.2122 34.1088 22.2122C32.5272 22.2122 31.2894 20.9744 31.2894 19.3927C31.2894 17.8111 32.5272 16.5732 34.1088 16.5732C35.6905 16.5732 36.9283 17.8798 36.9283 19.3927Z" fill="#BDBDBD"/>
<path d="M5.63897 19.3927C5.63897 20.9744 4.40114 22.2122 2.81948 22.2122C1.23782 22.2122 0 20.9744 0 19.3927C0 17.8111 1.23782 16.5732 2.81948 16.5732C4.40114 16.5732 5.63897 17.8798 5.63897 19.3927Z" fill="#BDBDBD"/>
<path d="M30.6017 33.9717C31.702 35.072 31.702 36.86 30.6017 37.9602C29.5014 39.0605 27.7135 39.0605 26.6132 37.9602C25.5129 36.86 25.5129 35.072 26.6132 33.9717C27.7135 32.8714 29.5014 32.8714 30.6017 33.9717Z" fill="#BDBDBD"/>
<path d="M34.1088 33.284C35.666 33.284 36.9283 32.0217 36.9283 30.4645C36.9283 28.9073 35.666 27.645 34.1088 27.645C32.5517 27.645 31.2894 28.9073 31.2894 30.4645C31.2894 32.0217 32.5517 33.284 34.1088 33.284Z" fill="#BDBDBD"/>
<path d="M41.6733 22.9688C42.7736 24.0691 42.7736 25.857 41.6733 26.9573C40.573 28.0576 38.7851 28.0576 37.6848 26.9573C36.5845 25.857 36.5845 24.0691 37.6848 22.9688C38.7851 21.8685 40.573 21.8685 41.6733 22.9688Z" fill="#BDBDBD"/>
<path d="M39.6103 16.7107C41.1675 16.7107 42.4298 15.4484 42.4298 13.8913C42.4298 12.3341 41.1675 11.0718 39.6103 11.0718C38.0532 11.0718 36.7908 12.3341 36.7908 13.8913C36.7908 15.4484 38.0532 16.7107 39.6103 16.7107Z" fill="#BDBDBD"/>
<path d="M39.6103 27.7825C41.1675 27.7825 42.4298 26.5202 42.4298 24.963C42.4298 23.4059 41.1675 22.1436 39.6103 22.1436C38.0532 22.1436 36.7908 23.4059 36.7908 24.963C36.7908 26.5202 38.0532 27.7825 39.6103 27.7825Z" fill="#BDBDBD"/>
</svg>
