<svg width="38" height="59" viewBox="0 0 38 59" fill="none" xmlns="http://www.w3.org/2000/svg">
<path d="M36.5255 57.1489H2.73343V50.9019L19.5329 31.2826C22.2363 28.0127 24.1672 25.3285 25.2293 23.2299C26.2913 21.1313 26.8223 19.0815 26.8223 17.1293C26.8223 14.8355 26.1948 12.9322 24.8913 11.468C23.6362 10.0039 21.8018 9.27185 19.3881 9.27185C16.5882 9.27185 14.4641 10.1991 13.0159 12.0049C11.5194 13.8106 10.7952 16.1044 10.7952 18.8863H2.10587L2.00932 18.6423C1.86449 14.0059 3.40927 10.0527 6.5471 6.83163C9.68493 3.61054 13.9813 2 19.3398 2C24.4569 2 28.5119 3.36652 31.3601 6.19717C34.2566 8.97902 35.7048 12.6393 35.7048 17.1781C35.7048 20.2528 34.8841 23.1323 33.2911 25.8165C31.698 28.5007 29.1395 32.1611 25.3258 36.6023L13.1607 50.8531" stroke="#188B30" stroke-width="2.94556" stroke-miterlimit="10"/>
</svg>
