<svg width="51" height="50" viewBox="0 0 51 50" fill="none" xmlns="http://www.w3.org/2000/svg">
<path d="M38.0723 17.0803L28.4314 21.3098C28.0372 21.4827 27.5731 21.3017 27.4002 20.9075C27.2272 20.5132 27.4082 20.0492 27.8025 19.8762L37.4075 15.6624C37.8017 15.4895 38.2658 15.6705 38.4387 16.0647C38.6117 16.459 38.4665 16.9073 38.0723 17.0803Z" fill="#2B9040"/>
<path d="M43.5443 29.5522L40.0679 31.0774C39.6736 31.2503 39.2096 31.0693 39.0366 30.675C38.8637 30.2808 39.0447 29.8167 39.439 29.6438L42.9154 28.1186C43.3096 27.9457 43.7737 28.1267 43.9467 28.521C44.1196 28.9152 43.9386 29.3793 43.5443 29.5522Z" fill="#2B9040"/>
<path d="M39.349 20.2814L31.1058 23.8977C30.7116 24.0706 30.2475 23.8896 30.0746 23.4954C29.9016 23.1011 30.0827 22.6371 30.4769 22.4641L38.72 18.8478C39.1143 18.6748 39.5783 18.8559 39.7513 19.2501C39.9242 19.6443 39.7432 20.1084 39.349 20.2814Z" fill="#2B9040"/>
<path d="M40.8099 23.3164L31.1691 27.5459C30.7748 27.7188 30.3108 27.5378 30.1378 27.1435C29.9649 26.7493 30.1459 26.2852 30.5402 26.1123L40.1452 21.8985C40.5394 21.7255 41.0035 21.9066 41.1764 22.3008C41.3852 22.6793 41.2042 23.1434 40.8099 23.3164Z" fill="#2B9040"/>
<path d="M39.4494 9.21071C39.3393 8.95984 39.1532 8.82781 38.9111 8.76307L26.7938 4.0357C26.7423 4.01558 26.6549 4.01119 26.6033 3.99107C26.6033 3.99107 26.5675 4.0068 26.5518 3.97096C26.4644 3.96656 26.4285 3.98229 26.3411 3.97789C26.3053 3.99362 26.2694 4.00934 26.1977 4.04079L9.71154 11.2734C9.31731 11.4464 9.13626 11.9104 9.30921 12.3047L12.4853 19.5443C12.7204 19.3984 13.0072 19.2726 13.2939 19.1468C13.5089 19.0525 13.6881 18.9739 13.9189 18.9154L11.0573 12.3925L26.1099 5.78883L29.5218 13.566C29.6948 13.9603 30.1588 14.1413 30.5531 13.9684L38.3302 10.5564L48.2673 33.207L24.7207 43.5371L21.8591 37.0143C21.6597 37.1445 21.4805 37.2231 21.2655 37.3175C20.9788 37.4433 20.7279 37.5533 20.4255 37.6433L23.6015 44.8829C23.7745 45.2771 24.2386 45.4581 24.6328 45.2852L49.613 34.3262C50.0072 34.1532 50.1883 33.6891 50.0153 33.2949L39.4808 9.28239C39.4808 9.28239 39.4651 9.24655 39.4494 9.21071ZM30.6409 12.2203L27.9837 6.16342L36.6978 9.5631L30.6409 12.2203Z" fill="#2B9040"/>
<path d="M17.8347 32.7113C17.6555 32.7899 17.4449 32.7968 17.2902 32.7365L12.8741 31.3404C12.4773 31.2153 12.2371 30.7651 12.3621 30.3683C12.4872 29.9715 12.9374 29.7313 13.3342 29.8564L16.9568 31.0023L19.4517 22.8561C19.5768 22.4593 20.027 22.2191 20.4237 22.3442C20.8205 22.4693 21.0608 22.9195 20.9357 23.3162L18.2623 32.2246C18.2176 32.4151 18.0856 32.6012 17.8706 32.6956C17.8706 32.6956 17.8706 32.6956 17.8347 32.7113Z" fill="#2B9040"/>
<path d="M21.5811 38.0343C21.2944 38.1601 21.0077 38.2858 20.6694 38.3915C15.3758 40.1583 9.70131 37.6474 7.45291 32.5224C5.2045 27.3973 7.19973 21.5217 12.0845 18.8231C12.6423 18.5357 13.0924 18.2955 13.6615 18.1313C18.9281 16.2054 24.8289 18.7452 27.093 23.9061C29.3571 29.067 27.2141 35.0929 22.2463 37.6997C22.0112 37.8456 21.7961 37.9399 21.5811 38.0343ZM13.6095 19.8636C13.3586 19.9737 13.1077 20.0837 12.8726 20.2296C8.65735 22.5062 6.98399 27.5569 8.88649 31.8934C10.8047 36.2659 15.6384 38.419 20.1838 36.895C20.6654 36.7265 21.1112 36.5736 21.474 36.329C25.7565 34.1083 27.5418 28.9232 25.6236 24.5507C23.7054 20.1783 18.6968 18.0164 14.1829 19.612C13.9679 19.7064 13.7887 19.785 13.6095 19.8636Z" fill="#2B9040"/>
</svg>
