<svg width="25" height="26" viewBox="0 0 25 26" fill="none" xmlns="http://www.w3.org/2000/svg">
<g clip-path="url(#clip0)">
<path d="M5.88563 10.0561C5.62209 10.0561 5.4082 10.2697 5.4082 10.5329C5.4082 10.796 5.62209 11.0096 5.88563 11.0096C6.14918 11.0096 6.36306 10.796 6.36306 10.5329C6.36306 10.2697 6.14918 10.0561 5.88563 10.0561Z" fill="black"/>
<path d="M5.88544 16.397H3.97572C3.71204 16.397 3.49829 16.6105 3.49829 16.8738V18.7808C3.49829 19.0441 3.71204 19.2576 3.97572 19.2576H5.88544C6.14913 19.2576 6.36287 19.0441 6.36287 18.7808V16.8738C6.36287 16.6105 6.14913 16.397 5.88544 16.397ZM5.40801 18.3041H4.45315V17.3506H5.40801V18.3041Z" fill="black"/>
<path d="M5.88544 20.2112H3.97572C3.71204 20.2112 3.49829 20.4247 3.49829 20.6879V22.595C3.49829 22.8583 3.71204 23.0718 3.97572 23.0718H5.88544C6.14913 23.0718 6.36287 22.8583 6.36287 22.595V20.6879C6.36287 20.4247 6.14913 20.2112 5.88544 20.2112ZM5.40801 22.1182H4.45315V21.1647H5.40801V22.1182Z" fill="black"/>
<path d="M9.70478 16.397H7.79506C7.53137 16.397 7.31763 16.6105 7.31763 16.8738V18.7808C7.31763 19.0441 7.53137 19.2576 7.79506 19.2576H9.70478C9.96847 19.2576 10.1822 19.0441 10.1822 18.7808V16.8738C10.1822 16.6105 9.96847 16.397 9.70478 16.397ZM9.22735 18.3041H8.27249V17.3506H9.22735V18.3041Z" fill="black"/>
<path d="M9.70478 20.2112H7.79506C7.53137 20.2112 7.31763 20.4247 7.31763 20.6879V22.595C7.31763 22.8583 7.53137 23.0718 7.79506 23.0718H9.70478C9.96847 23.0718 10.1822 22.8583 10.1822 22.595V20.6879C10.1822 20.4247 9.96847 20.2112 9.70478 20.2112ZM9.22735 22.1182H8.27249V21.1647H9.22735V22.1182Z" fill="black"/>
<path d="M13.5241 16.397H11.6144C11.3507 16.397 11.137 16.6105 11.137 16.8738V18.7808C11.137 19.0441 11.3507 19.2576 11.6144 19.2576H13.5241C13.7878 19.2576 14.0015 19.0441 14.0015 18.7808V16.8738C14.0015 16.6105 13.7878 16.397 13.5241 16.397ZM13.0467 18.3041H12.0918V17.3506H13.0467V18.3041Z" fill="black"/>
<path d="M13.5241 20.2112H11.6144C11.3507 20.2112 11.137 20.4247 11.137 20.6879V22.595C11.137 22.8583 11.3507 23.0718 11.6144 23.0718H13.5241C13.7878 23.0718 14.0015 22.8583 14.0015 22.595V20.6879C14.0015 20.4247 13.7878 20.2112 13.5241 20.2112ZM13.0467 22.1182H12.0918V21.1647H13.0467V22.1182Z" fill="black"/>
<path d="M13.5243 7.6723H3.97572C3.71204 7.6723 3.49829 7.8858 3.49829 8.14907V12.9167C3.49829 13.18 3.71204 13.3935 3.97572 13.3935H13.5243C13.788 13.3935 14.0018 13.18 14.0018 12.9167V8.14907C14.0018 7.8858 13.788 7.6723 13.5243 7.6723ZM13.0469 12.4399H4.45315V8.62583H13.0469V12.4399Z" fill="black"/>
<path d="M11.6145 10.0561H7.79506C7.53137 10.0561 7.31763 10.2696 7.31763 10.5329C7.31763 10.7961 7.53137 11.0096 7.79506 11.0096H11.6145C11.8781 11.0096 12.0919 10.7961 12.0919 10.5329C12.0919 10.2696 11.8781 10.0561 11.6145 10.0561Z" fill="black"/>
<path d="M10.6597 2.7616H6.84022C6.57654 2.7616 6.36279 2.97509 6.36279 3.23836C6.36279 3.50163 6.57654 3.71512 6.84022 3.71512H10.6597C10.9234 3.71512 11.1371 3.50163 11.1371 3.23836C11.1371 2.97509 10.9234 2.7616 10.6597 2.7616Z" fill="black"/>
<path d="M22.1181 7.67229H15.9115V5.14544C15.9115 3.83101 14.8407 2.76163 13.5244 2.76163H13.047V1.18831C13.047 0.925042 12.8332 0.711548 12.5695 0.711548H4.93064C4.66695 0.711548 4.45321 0.925042 4.45321 1.18831V2.76163H3.97578C2.6595 2.76163 1.58862 3.83101 1.58862 5.14544V22.738C1.58862 24.0524 2.6595 25.1218 3.97578 25.1218H13.5244C14.8407 25.1218 15.9115 24.0524 15.9115 22.738V18.3041H22.1181C22.9079 18.3041 23.5504 17.6625 23.5504 16.8738V9.10257C23.5504 8.31391 22.9079 7.67229 22.1181 7.67229ZM5.40807 1.66507H12.0921V5.76523H5.40807V1.66507ZM14.9567 22.738C14.9567 23.5267 14.3142 24.1683 13.5244 24.1683H3.97578C3.18601 24.1683 2.54348 23.5267 2.54348 22.738V15.2609H14.9567V22.738ZM14.9567 14.3074H2.54348V5.14544C2.54348 4.35678 3.18601 3.71515 3.97578 3.71515H4.45321V5.76523H3.97578C3.71209 5.76523 3.49835 5.97873 3.49835 6.242C3.49835 6.50527 3.71209 6.71876 3.97578 6.71876H4.93064H12.5695H13.5244C13.788 6.71876 14.0018 6.50527 14.0018 6.242C14.0018 5.97873 13.788 5.76523 13.5244 5.76523H13.047V3.71515H13.5244C14.3142 3.71515 14.9567 4.35678 14.9567 5.14544V14.3074ZM22.5956 16.8738C22.5956 17.1367 22.3814 17.3506 22.1181 17.3506H15.9115V12.4399H22.5956V16.8738ZM22.5956 11.4864H15.9115V10.5329H22.5956V11.4864ZM22.5956 9.57934H15.9115V8.62581H22.1181C22.3814 8.62581 22.5956 8.83969 22.5956 9.10257V9.57934Z" fill="black"/>
<path d="M20.2085 13.3934C19.8419 13.3934 19.5072 13.5318 19.2536 13.7588C19 13.5318 18.6653 13.3934 18.2987 13.3934C17.509 13.3934 16.8665 14.0351 16.8665 14.8237C16.8665 15.6124 17.509 16.254 18.2987 16.254C18.6653 16.254 19 16.1157 19.2536 15.8886C19.5072 16.1156 19.8419 16.254 20.2085 16.254C20.9982 16.254 21.6408 15.6124 21.6408 14.8237C21.6408 14.0351 20.9982 13.3934 20.2085 13.3934ZM18.2987 15.3005C18.0355 15.3005 17.8213 15.0866 17.8213 14.8237C17.8213 14.5608 18.0355 14.347 18.2987 14.347C18.562 14.347 18.7762 14.5608 18.7762 14.8237C18.7762 15.0866 18.562 15.3005 18.2987 15.3005ZM20.2085 15.3005C19.9452 15.3005 19.731 15.0866 19.731 14.8237C19.731 14.5608 19.9452 14.347 20.2085 14.347C20.4717 14.347 20.6859 14.5608 20.6859 14.8237C20.6859 15.0866 20.4717 15.3005 20.2085 15.3005Z" fill="black"/>
</g>
<defs>
<clipPath id="clip0">
<rect width="24.4444" height="24.4103" fill="white" transform="translate(0.347168 0.711548)"/>
</clipPath>
</defs>
</svg>
