<svg width="26" height="26" viewBox="0 0 26 26" fill="none" xmlns="http://www.w3.org/2000/svg">
<path fill-rule="evenodd" clip-rule="evenodd" d="M20.7894 18.0674C20.7894 18.3368 20.5674 18.5573 20.2961 18.5573C20.2961 18.5573 14.6233 16.4018 13.1435 18.5573C11.6636 16.4018 5.99084 18.5573 5.99084 18.5573C5.71954 18.5573 5.49756 18.3368 5.49756 18.0674V9.20077C5.49756 8.93134 5.71954 8.7109 5.99084 8.7109C5.99084 8.7109 12.1569 6.55547 13.1435 8.7109C14.13 6.55547 20.2961 8.7109 20.2961 8.7109C20.5674 8.7109 20.7894 8.93134 20.7894 9.20077V18.0674Z" stroke="#949494" stroke-width="1.19936"/>
<path d="M14.87 7.77979V14.2461L15.6099 12.5805L16.3498 14.2461V8.02472" stroke="#949494" stroke-width="1.19936"/>
<path d="M13.1436 8.73535V18.5572" stroke="#949494" stroke-width="1.19936"/>
<path d="M13 25C19.6274 25 25 19.6274 25 13C25 6.37258 19.6274 1 13 1C6.37258 1 1 6.37258 1 13C1 19.6274 6.37258 25 13 25Z" stroke="#949494" stroke-width="0.898876" stroke-miterlimit="10"/>
</svg>
