<svg width="25" height="26" viewBox="0 0 25 26" fill="none" xmlns="http://www.w3.org/2000/svg">
<g clip-path="url(#clip0)">
<path d="M7.24476 9.72235C6.98122 9.72235 6.76733 9.93594 6.76733 10.1991C6.76733 10.4623 6.98122 10.6759 7.24476 10.6759C7.50831 10.6759 7.7222 10.4623 7.7222 10.1991C7.7222 9.93594 7.50831 9.72235 7.24476 9.72235Z" fill="#333333"/>
<path d="M24.0503 21.3077H22.3315V3.09536C22.3315 1.78093 21.2606 0.711548 19.9444 0.711548H2.4704C1.15413 0.711548 0.083252 1.78093 0.083252 3.09536V5.00241C0.083252 5.26568 0.297045 5.47918 0.560683 5.47918H3.9027V22.738C3.9027 24.0524 4.97357 25.1218 6.28985 25.1218H22.1405C23.4568 25.1218 24.5277 24.0524 24.5277 22.738V21.7845C24.5277 21.5212 24.3139 21.3077 24.0503 21.3077ZM3.9027 4.52565H1.03811V3.09536C1.03811 2.3067 1.68064 1.66507 2.4704 1.66507C2.85273 1.66507 3.21233 1.81392 3.48299 2.08415C3.75364 2.35447 3.9027 2.71357 3.9027 3.09536V4.52565ZM7.72214 21.7845V22.738C7.72214 23.5267 7.07961 24.1683 6.28985 24.1683C5.50008 24.1683 4.85756 23.5267 4.85756 22.738V5.00241V3.09536C4.85756 2.57264 4.68969 2.07561 4.37989 1.66507H19.9444C20.7341 1.66507 21.3767 2.3067 21.3767 3.09536V21.3077H19.4669V19.6241C20.0761 19.0819 20.4218 18.3188 20.4218 17.4936C20.4218 15.9163 19.1367 14.633 17.5572 14.633C16.7108 14.633 15.9493 15.0018 15.4244 15.5865H7.24471C6.98107 15.5865 6.76728 15.8 6.76728 16.0633C6.76728 16.3266 6.98107 16.5401 7.24471 16.5401H14.8569C14.7509 16.8385 14.6926 17.1593 14.6926 17.4936C14.6926 17.8249 14.7488 18.146 14.8547 18.4471H7.24471C6.98107 18.4471 6.76728 18.6606 6.76728 18.9239C6.76728 19.1872 6.98107 19.4007 7.24471 19.4007H15.1701C15.2452 19.4007 15.316 19.3828 15.3792 19.352C15.4618 19.4479 15.5514 19.5386 15.6475 19.6241V21.3077H8.19957C7.93593 21.3077 7.72214 21.5212 7.72214 21.7845ZM17.5572 19.4007C17.1405 19.4007 16.7449 19.269 16.4129 19.0199C16.4124 19.0195 16.4119 19.0191 16.4113 19.0187C15.9259 18.6547 15.6475 18.0989 15.6475 17.4936C15.6475 16.4421 16.5042 15.5865 17.5572 15.5865C18.6102 15.5865 19.4669 16.4421 19.4669 17.4936C19.4669 18.099 19.1884 18.6549 18.7025 19.0192C18.3703 19.2687 17.9743 19.4007 17.5572 19.4007ZM18.5121 20.1913V22.3801L17.822 21.9208C17.6617 21.814 17.4528 21.814 17.2924 21.9208L16.6024 22.3801V20.1913C16.9057 20.2984 17.227 20.3542 17.5572 20.3542C17.8874 20.3542 18.2088 20.2985 18.5121 20.1913ZM23.5728 22.738C23.5728 23.5267 22.9303 24.1683 22.1405 24.1683H8.19828C8.49868 23.7696 8.677 23.2743 8.677 22.738V22.2612H15.6475V23.271C15.6475 23.4468 15.7444 23.6084 15.8996 23.6913C16.0549 23.7744 16.2433 23.7652 16.3897 23.6677L17.5572 22.8905L18.7247 23.6677C18.8045 23.7209 18.8969 23.7478 18.9895 23.7478C19.0668 23.7478 19.1442 23.7291 19.2148 23.6913C19.37 23.6084 19.4669 23.4468 19.4669 23.271V22.2612H23.5728V22.738Z" fill="#333333"/>
<path d="M15.17 3.57214H10.1093C9.84563 3.57214 9.63184 3.78564 9.63184 4.04891C9.63184 4.31217 9.84563 4.52567 10.1093 4.52567H15.17C15.4337 4.52567 15.6475 4.31217 15.6475 4.04891C15.6475 3.78564 15.4337 3.57214 15.17 3.57214Z" fill="#333333"/>
<path d="M18.9897 9.72235H9.15468C8.89104 9.72235 8.67725 9.93585 8.67725 10.1991C8.67725 10.4624 8.89104 10.6759 9.15468 10.6759H18.9897C19.2534 10.6759 19.4672 10.4624 19.4672 10.1991C19.4672 9.93585 19.2534 9.72235 18.9897 9.72235Z" fill="#333333"/>
<path d="M18.9896 12.726H7.24476C6.98113 12.726 6.76733 12.9394 6.76733 13.2027C6.76733 13.466 6.98113 13.6795 7.24476 13.6795H18.9896C19.2532 13.6795 19.467 13.466 19.467 13.2027C19.467 12.9394 19.2532 12.726 18.9896 12.726Z" fill="#333333"/>
<path d="M18.9896 6.57568H7.24476C6.98113 6.57568 6.76733 6.78918 6.76733 7.05245C6.76733 7.31571 6.98113 7.52921 7.24476 7.52921H18.9896C19.2532 7.52921 19.467 7.31571 19.467 7.05245C19.467 6.78918 19.2532 6.57568 18.9896 6.57568Z" fill="#333333"/>
</g>
<defs>
<clipPath id="clip0">
<rect width="24.4444" height="24.4103" fill="white" transform="translate(0.083252 0.711548)"/>
</clipPath>
</defs>
</svg>
