<svg width="45" height="45" viewBox="0 0 45 45" fill="none" xmlns="http://www.w3.org/2000/svg">
<path fill-rule="evenodd" clip-rule="evenodd" d="M36.4561 31.5497C36.4561 32.032 36.0584 32.4266 35.5723 32.4266C35.5723 32.4266 25.4085 28.5684 22.7571 32.4266C20.1057 28.5684 9.942 32.4266 9.942 32.4266C9.45591 32.4266 9.0582 32.032 9.0582 31.5497V15.6785C9.0582 15.1963 9.45591 14.8017 9.942 14.8017C9.942 14.8017 20.9895 10.9435 22.7571 14.8017C24.5247 10.9435 35.5723 14.8017 35.5723 14.8017C36.0584 14.8017 36.4561 15.1963 36.4561 15.6785V31.5497Z" stroke="#188B30" stroke-width="1.61164"/>
<path d="M25.8504 13.1357V24.7103L27.1761 21.729L28.5018 24.7103V13.5742" stroke="#188B30" stroke-width="1.61164"/>
<path d="M22.7571 14.8457V32.4268" stroke="#188B30" stroke-width="1.61164"/>
<path d="M22.5 43.9598C34.3741 43.9598 44 34.3429 44 22.4799C44 10.6169 34.3741 1 22.5 1C10.6259 1 1 10.6169 1 22.4799C1 34.3429 10.6259 43.9598 22.5 43.9598Z" stroke="#188B30" stroke-width="1.20787" stroke-miterlimit="10"/>
</svg>
