<svg width="55" height="55" viewBox="0 0 55 55" fill="none" xmlns="http://www.w3.org/2000/svg">
<path d="M27.8791 53.8797C42.3134 53.3996 53.6242 41.2975 53.1426 26.8488C52.6609 12.4002 40.5691 1.07645 26.1348 1.55653C11.7006 2.0366 0.389739 14.1387 0.87141 28.5874C1.35308 43.036 13.4448 54.3597 27.8791 53.8797Z" stroke="#188B30" stroke-width="1.47278" stroke-miterlimit="10"/>
<path fill-rule="evenodd" clip-rule="evenodd" d="M25.7571 19.2611V22.2023H22.8187V19.2611H25.7571ZM29.7238 19.2611V22.2023H26.7855V19.2611H29.7238ZM33.6171 19.2611V22.2023H30.6788V19.2611H33.6171ZM37.5839 19.2611V22.2023H34.6455V19.2611H37.5839ZM39.9345 19.2611L39.2734 22.2023H38.6123V19.2611H39.9345ZM21.7903 19.3346V22.2759H19.8069L18.7785 19.3346H21.7903ZM39.053 23.1583L38.6123 25.2172V23.1583H39.053ZM21.7903 23.1583V26.1731H21.2761L20.2477 23.1583H21.7903ZM25.6836 23.1583V26.1731H22.7453V23.1583H25.6836ZM29.7238 23.1583V26.1731H26.7855V23.1583H29.7238ZM33.6171 23.2318V26.1731H30.6788V23.2318H33.6171ZM37.6573 23.2318V26.1731H34.6455V23.2318H37.6573ZM21.7903 27.2025V27.7908L21.5699 27.2025H21.7903ZM25.6836 27.129V29.482C25.4632 29.482 25.2428 29.482 25.0959 29.482C24.7286 29.482 24.4348 29.482 24.2144 29.482C23.7002 29.482 23.2595 29.4085 22.7453 29.1143V27.129H25.6836ZM29.7238 27.2025V29.482H26.7855V27.2025H29.7238ZM33.6171 27.2025V29.482H30.6788V27.2025H33.6171ZM37.5839 27.2025V29.482H34.6455V27.2025H37.5839ZM23.3329 38.6C24.7286 38.6 25.904 39.7765 25.904 41.1736C25.904 42.5707 24.8021 43.7472 23.3329 43.7472C21.8638 43.7472 20.7619 42.6442 20.7619 41.1736C20.7619 39.7029 21.9372 38.6 23.3329 38.6ZM35.3066 38.6C36.7024 38.6 37.8777 39.7765 37.8777 41.1736C37.8777 42.5707 36.7758 43.7472 35.3066 43.7472C33.9109 43.7472 32.7356 42.6442 32.7356 41.1736C32.7356 39.7029 33.8375 38.6 35.3066 38.6ZM12.0203 13.5991C11.0654 13.5991 10.2573 14.408 10.2573 15.4374C10.2573 16.4669 11.0654 17.2022 12.0203 17.2022H14.2241L16.942 24.9966C17.0155 25.2172 17.2359 25.2907 17.4562 25.2907C17.5297 25.2907 17.6032 25.2907 17.6032 25.2907C17.897 25.2172 17.9705 24.923 17.897 24.7024C15.2525 16.9816 15.1056 16.6875 15.1056 16.6875C15.0321 16.3933 14.7383 16.1727 14.371 16.1727H12.0203C11.5796 16.1727 11.2123 15.8051 11.2123 15.3639C11.2123 14.8492 11.5796 14.555 12.0203 14.555H14.371C15.3994 14.555 16.2075 15.0698 16.5747 16.0257C17.1624 17.7169 20.5415 27.129 20.9823 28.5261C21.3495 29.5555 22.5249 30.5114 23.9206 30.5114H41.771C42.2852 30.5114 42.579 30.8791 42.579 31.3203C42.579 31.7615 42.2117 32.1291 41.771 32.1291H23.994C22.0841 32.1291 20.3211 31.0262 19.5131 29.1879L18.4847 26.3937C18.4112 26.1731 18.1908 26.0995 18.0439 26.0995C17.9705 26.0995 17.9705 26.0995 17.897 26.0995C17.6032 26.1731 17.4563 26.4672 17.6032 26.7613C18.4112 28.8202 18.4112 29.7026 19.3662 30.8791L18.2643 32.4233C16.5747 34.8498 18.0439 38.1588 20.9088 38.5264C18.6316 40.6588 20.1008 44.6296 23.3329 44.6296C26.5651 44.6296 27.9608 40.8059 25.7571 38.6H32.8825C30.6053 40.8059 32.1479 44.6296 35.3066 44.6296C38.4654 44.6296 39.9345 40.8059 37.7308 38.6H38.3919C39.4203 38.6 40.2284 37.7911 40.2284 36.8352C40.2284 35.8057 39.4203 34.9969 38.3919 34.9969H33.9109C33.6171 34.9969 33.3967 35.2175 33.3967 35.5116C33.3967 35.7322 33.6171 36.0263 33.9109 36.0263H38.3919C38.9061 36.0263 39.1999 36.394 39.1999 36.8352C39.1999 37.3499 38.8326 37.644 38.3919 37.644H21.4965C19.1458 37.644 17.7501 34.9969 19.0723 33.0115L20.1008 31.6144C20.468 31.9821 20.9823 32.2762 21.423 32.4968L20.468 33.9674C19.8804 34.8498 20.468 36.0263 21.4965 36.0263H32.0745C32.2948 36.0263 32.5152 35.8057 32.5152 35.5116C32.5152 35.2175 32.2948 34.9969 32.0745 34.9969H21.5699C21.2761 34.9969 21.2026 34.7028 21.2761 34.4822L22.4514 32.8645C23.0391 33.0115 23.2595 33.0851 25.0225 33.0851C26.4182 33.0851 28.9158 33.0851 33.5436 33.0851C35.8209 33.0851 38.5388 33.0851 41.9914 33.0851C43.0198 33.0851 43.7544 32.2762 43.7544 31.2468C43.6074 30.2909 42.7994 29.482 41.771 29.482H41.2568L43.6074 19.4817C44.0482 17.5698 42.579 15.8051 40.5957 15.8051H31.0461C30.7522 15.8051 30.5318 16.0257 30.5318 16.3198C30.5318 16.5404 30.7522 16.8345 31.0461 16.8345H40.5957C41.9179 16.8345 42.8729 18.0846 42.579 19.3346L40.2284 29.6291H38.6123C38.9061 28.5261 40.7426 20.5111 41.1099 19.114C41.1833 18.8199 40.9629 18.5258 40.5957 18.5258H18.4847L17.9705 16.9081H29.3565C29.6503 16.9081 29.8707 16.6875 29.8707 16.3933C29.8707 16.0992 29.6503 15.8786 29.3565 15.8786H17.6032C17.1624 14.6286 15.9136 13.6727 14.4445 13.6727H12.0203V13.5991Z" fill="#188B30"/>
</svg>
