<svg width="56" height="56" viewBox="0 0 56 56" fill="none" xmlns="http://www.w3.org/2000/svg">
<path d="M28.3569 54.3847C43.0924 54.3847 55.0378 42.4504 55.0378 27.7287C55.0378 13.007 43.0924 1.07275 28.3569 1.07275C13.6215 1.07275 1.67603 13.007 1.67603 27.7287C1.67603 42.4504 13.6215 54.3847 28.3569 54.3847Z" stroke="#F5BD4E" stroke-width="1.49893" stroke-miterlimit="10"/>
<path fill-rule="evenodd" clip-rule="evenodd" d="M23.1857 9.38347C22.3613 9.38347 21.6868 9.98248 21.5369 10.7312L21.0123 13.277C20.4877 13.4268 19.963 13.6514 19.5134 13.9509L17.3399 12.5283C17.0401 12.3036 16.7403 12.2288 16.3656 12.2288C15.9159 12.2288 15.4663 12.3785 15.1665 12.7529L14.0423 13.876C13.4427 14.4751 13.3678 15.3736 13.8174 16.0475L15.2414 18.2189C15.0166 18.743 14.7917 19.1923 14.6418 19.7164L12.0937 20.2405C11.2693 20.3903 10.7446 21.0642 10.7446 21.8878V23.4602C10.7446 24.2839 11.3442 24.9577 12.0937 25.1824L14.6418 25.6316C14.7917 26.1558 15.0166 26.6799 15.2414 27.204L13.8174 29.3754C13.3678 30.0493 13.4427 30.9478 14.0423 31.5468L15.1665 32.67C15.4663 32.9695 15.9159 33.1941 16.3656 33.1941C16.6654 33.1941 17.0401 33.1193 17.3399 32.8946L19.5134 31.472C19.963 31.7715 20.4877 31.9212 21.0123 32.1459L21.5369 34.6917C21.6868 35.5153 22.4363 36.0394 23.1857 36.0394H24.7596C25.584 36.0394 26.2585 35.4404 26.4084 34.6917L26.9331 32.1459C27.3078 31.9961 27.7575 31.8464 28.1322 31.6217C28.357 31.6217 28.5069 31.2473 28.357 31.0227C28.2821 30.7981 28.0572 30.6483 27.8324 30.6483C27.7575 30.6483 27.6825 30.6483 27.6076 30.7232C27.1579 30.9478 26.7082 31.0976 26.1836 31.2473C26.0337 31.2473 25.8089 31.472 25.8089 31.6217L25.2093 34.467C25.2093 34.6917 24.9095 34.9912 24.6097 34.9912H23.0358C22.7361 34.9912 22.5112 34.7665 22.4363 34.467L21.8367 31.6217C21.8367 31.472 21.6868 31.2473 21.462 31.2473C20.7874 31.0976 20.1879 30.7981 19.5883 30.4237C19.5134 30.4237 19.3635 30.3488 19.2885 30.3488C19.2136 30.3488 19.0637 30.3488 18.9887 30.4237L16.5904 32.071C16.5155 32.1459 16.3656 32.2207 16.2907 32.2207C16.1408 32.2207 15.9909 32.1459 15.841 32.071L14.7168 30.9478C14.492 30.7232 14.4919 30.3488 14.6418 30.1242L16.2907 27.7282C16.3656 27.5784 16.3656 27.3538 16.2907 27.1291C15.9159 26.5301 15.6911 25.8563 15.4663 25.2572C15.4663 25.1075 15.2414 24.8829 15.0915 24.8829L12.2436 24.2838C11.9438 24.209 11.7189 23.9843 11.7189 23.6848V21.8129C11.7189 21.5134 11.9438 21.2888 12.2436 21.2139L15.0915 20.6149C15.2414 20.6149 15.4663 20.4652 15.4663 20.2405C15.6161 19.5666 15.9159 18.9676 16.2907 18.3686C16.3656 18.2189 16.3656 17.9942 16.2907 17.7696L14.6418 15.3736C14.4919 15.1489 14.492 14.7746 14.7168 14.5499L15.841 13.4268C15.9909 13.277 16.1408 13.277 16.2907 13.277C16.4406 13.277 16.5155 13.277 16.5904 13.3519L18.9887 14.9992C19.0637 15.0741 19.2136 15.0741 19.2885 15.0741C19.3635 15.0741 19.5134 15.0741 19.5883 14.9992C20.1879 14.6248 20.8624 14.4002 21.462 14.1756C21.6119 14.1756 21.8367 13.9509 21.8367 13.8012L22.4363 10.9559C22.4363 10.6564 22.7361 10.4317 23.0358 10.4317H24.6097C24.8345 10.4317 25.1343 10.6564 25.2093 10.9559L25.8089 13.8012C25.8089 13.9509 25.9587 14.1756 26.1836 14.1756C26.8581 14.3253 27.5326 14.6248 28.0572 14.9992C28.1322 14.9992 28.2821 15.0741 28.357 15.0741C28.432 15.0741 28.5819 15.0741 28.6568 14.9992L31.13 13.3519C31.205 13.277 31.3549 13.2022 31.4298 13.2022C31.5797 13.2022 31.7296 13.277 31.8795 13.3519L33.0037 14.4751C33.2285 14.6997 33.2285 14.9992 33.0787 15.2987L31.4298 17.6947C31.2799 17.8445 31.2799 18.0691 31.4298 18.2937C31.8046 18.8928 32.0294 19.5666 32.2542 20.1657C32.2542 20.3154 32.4791 20.54 32.629 20.54L35.4769 21.139C35.7767 21.2139 36.0016 21.4386 36.0016 21.7381V23.3105C36.0016 23.61 35.7767 23.8346 35.4769 23.9095L32.629 24.5085C32.4791 24.5085 32.2542 24.6582 32.2542 24.8829C32.1043 25.407 31.9545 25.7814 31.7296 26.3055C31.5797 26.5301 31.7296 26.9045 32.0294 27.0543C32.1044 27.0543 32.1793 27.1291 32.2542 27.1291C32.4791 27.1291 32.629 26.9794 32.7789 26.7548C32.9288 26.3804 33.1536 25.9311 33.2285 25.4819L35.7767 25.0326C36.6011 24.8829 37.1258 24.1341 37.1258 23.3105V21.8129C37.1258 20.9893 36.5262 20.3154 35.7767 20.1657L33.2285 19.6415C33.0786 19.1174 32.8538 18.6681 32.629 18.144L34.053 15.9726C34.5026 15.2987 34.4277 14.4002 33.8281 13.8012L32.7039 12.678C32.4041 12.3785 31.9545 12.1539 31.5048 12.1539C31.205 12.1539 30.8303 12.2288 30.5305 12.4534L28.357 13.876C27.9074 13.5765 27.3827 13.4268 26.8581 13.2022L26.3335 10.6564C26.1836 9.83273 25.4341 9.30859 24.6847 9.30859H23.1857V9.38347Z" fill="#F5BD4E"/>
<path fill-rule="evenodd" clip-rule="evenodd" d="M24.0102 16.5713C22.4363 16.5713 20.9374 17.2452 19.7382 18.2934C19.5134 18.5181 19.5134 18.8176 19.7382 19.0422C19.8132 19.1171 19.963 19.192 20.1129 19.192C20.2628 19.192 20.4127 19.1171 20.4877 19.0422C21.387 18.1437 22.6611 17.6196 23.9352 17.6196C26.7082 17.6196 29.0316 19.8658 29.0316 22.6363C29.0316 23.4599 28.8067 24.2087 28.5069 24.9574C28.357 25.2569 28.432 25.5564 28.6568 25.7062C28.7318 25.7811 28.8067 25.7811 28.8817 25.7811C29.0316 25.7811 29.2564 25.7062 29.4063 25.4816C29.856 24.5831 30.0808 23.6845 30.0808 22.7111C30.0808 19.2668 27.3827 16.5713 24.0102 16.5713Z" fill="#F5BD4E"/>
<path fill-rule="evenodd" clip-rule="evenodd" d="M18.6889 20.3156C18.4641 20.3156 18.2392 20.4654 18.1643 20.6151C17.9395 21.289 17.8645 21.9629 17.8645 22.5619C17.8645 25.9313 20.5626 28.6269 23.9352 28.6269C25.2842 28.6269 26.4084 28.2525 27.5326 27.5037C27.7574 27.354 27.8324 26.9796 27.6825 26.755C27.6075 26.6052 27.3827 26.5303 27.2328 26.5303C27.1579 26.5303 27.008 26.5303 26.933 26.6052C26.0337 27.2042 25.0594 27.5037 24.0101 27.5037C21.2371 27.5037 18.9887 25.2574 18.9887 22.487C18.9887 21.9629 19.0636 21.3639 19.2135 20.8397C19.2885 20.6151 19.0636 20.3156 18.8388 20.2407C18.8388 20.3905 18.7639 20.3156 18.6889 20.3156Z" fill="#F5BD4E"/>
<path fill-rule="evenodd" clip-rule="evenodd" d="M35.7767 26.1559C35.1771 26.1559 34.6525 26.6052 34.5026 27.2042L34.2028 28.7766C33.978 28.8515 33.6032 29.0012 33.3784 29.151L32.0294 28.2525C31.8045 28.1027 31.5797 28.0278 31.3548 28.0278C30.9801 28.0278 30.6803 28.1776 30.3805 28.4022L29.6311 29.151C29.1814 29.6002 29.1814 30.2741 29.4812 30.7983L30.3805 32.146C30.2306 32.5204 30.0808 32.8948 29.9309 33.2692C29.8559 33.5687 30.0058 33.8682 30.3056 33.9431C30.3805 33.9431 30.3805 33.9431 30.4555 33.9431C30.6803 33.9431 30.9052 33.7933 30.9801 33.5687C31.0551 33.1943 31.205 32.745 31.4298 32.3707C31.5047 32.2209 31.5047 31.9963 31.4298 31.7717L30.3805 30.1244C30.3805 30.0495 30.3805 29.9746 30.4555 29.8997L31.2049 29.151C31.2799 29.0761 31.2799 29.0761 31.3548 29.0761C31.4298 29.0761 31.4298 29.0761 31.4298 29.0761L33.0786 30.1244C33.1536 30.1992 33.3034 30.1993 33.3784 30.1993C33.4533 30.1993 33.6032 30.1992 33.6782 30.1244C34.0529 29.8997 34.5026 29.75 34.8773 29.6002C35.0272 29.6002 35.252 29.3756 35.252 29.2259L35.6268 27.354C35.6268 27.2791 35.7017 27.2042 35.8516 27.2042H36.9009C36.9758 27.2042 37.0508 27.2791 37.1257 27.354L37.5004 29.2259C37.5754 29.3756 37.6503 29.6002 37.9501 29.6002C38.3249 29.75 38.7745 29.8997 39.1493 30.1244C39.2242 30.1992 39.3741 30.1993 39.4491 30.1993C39.524 30.1993 39.6739 30.1992 39.7488 30.1244L41.3977 29.0761H41.4726C41.5475 29.0761 41.5475 29.0761 41.6225 29.151L42.372 29.8997C42.4469 29.9746 42.4469 30.0495 42.372 30.1244L41.3227 31.7717C41.2478 31.9214 41.2478 32.146 41.3227 32.3707C41.5475 32.745 41.7724 33.1943 41.8473 33.5687C41.8473 33.7184 42.0722 33.9431 42.2221 33.9431L44.0957 34.3174C44.1707 34.3174 44.2456 34.3923 44.2456 34.5421V35.5903C44.2456 35.6652 44.1707 35.7401 44.0957 35.815L42.2221 36.1894C42.0722 36.2642 41.8473 36.3391 41.8473 36.6386C41.6974 37.013 41.6225 37.4623 41.3227 37.8366C41.2478 37.9864 41.2478 38.2859 41.3227 38.4356L42.372 40.0829C42.4469 40.1578 42.4469 40.2327 42.372 40.3075L41.6225 41.0563C41.5475 41.1312 41.5475 41.1312 41.4726 41.1312C41.3977 41.1312 41.3977 41.1312 41.3977 41.0563L39.7488 40.008C39.6739 39.9332 39.524 39.9332 39.4491 39.9332C39.3741 39.9332 39.2242 39.9332 39.1493 40.008C38.7745 40.2327 38.3249 40.4573 37.9501 40.5322C37.8002 40.6071 37.5754 40.7568 37.5004 40.9066L37.1257 42.7785C37.1257 42.8533 37.0508 42.9282 36.9009 42.9282H35.8516C35.7767 42.9282 35.7017 42.8533 35.6268 42.7785L35.252 40.9066C35.252 40.7568 35.1022 40.6071 34.8773 40.5322C34.5026 40.4573 34.0529 40.3075 33.6782 40.008C33.6032 40.008 33.4533 39.9332 33.3784 39.9332C33.3034 39.9332 33.1536 39.9332 33.0786 40.008L31.4298 41.0563C31.3548 41.0563 31.3548 41.1312 31.2799 41.1312C31.205 41.1312 31.2049 41.1312 31.13 41.0563L30.3805 40.3075C30.3056 40.2327 30.3056 40.1578 30.3056 40.0829L31.3548 38.4356C31.5047 38.2859 31.5047 37.9864 31.3548 37.8366C31.13 37.4623 30.9801 37.013 30.9052 36.6386C30.8302 36.4889 30.6803 36.2642 30.4555 36.1894L28.5818 35.815C28.5069 35.815 28.4319 35.7401 28.4319 35.5903V34.5421C28.4319 34.4672 28.5069 34.3923 28.5818 34.3174H28.7317C29.0315 34.3174 29.1814 33.9431 29.1064 33.6436C29.1064 33.4189 28.8067 33.2692 28.5818 33.2692C28.5069 33.2692 28.5069 33.2692 28.4319 33.2692L28.357 33.3441C27.7574 33.4189 27.3077 34.0179 27.3077 34.5421V35.5903C27.3077 36.2642 27.7574 36.7884 28.357 36.8632L29.9309 37.1627C30.0058 37.3874 30.1557 37.7618 30.3056 37.9864L29.4062 39.3342C29.0315 39.8583 29.1814 40.5322 29.5561 40.9814L30.3056 41.7302C30.6054 41.9548 30.9052 42.1046 31.2799 42.1046C31.5047 42.1046 31.7296 42.0297 31.9544 41.88L33.3034 40.9814C33.5283 41.1312 33.8281 41.2061 34.1279 41.3558L34.4276 42.9282C34.5775 43.5272 35.1022 43.9016 35.7017 43.9016H36.751C37.3505 43.9016 37.8752 43.4524 38.0251 42.9282L38.3249 41.3558C38.5497 41.2809 38.9244 41.1312 39.1493 40.9814L40.4983 41.88C40.7231 42.0297 40.948 42.1046 41.1728 42.1046C41.5476 42.1046 41.8473 41.9548 42.0722 41.7302L42.8216 40.9814C43.2713 40.5322 43.3463 39.8583 42.9715 39.3342L42.0722 37.9864C42.2221 37.7618 42.372 37.4622 42.4469 37.1627L44.0208 36.8632C44.6204 36.7135 45.07 36.1894 45.07 35.5903V34.5421C45.07 33.8682 44.6953 33.3441 44.0208 33.1943L42.4469 32.8948C42.372 32.6702 42.2221 32.2958 42.0722 32.0712L42.9715 30.7234C43.3463 30.1993 43.1964 29.5254 42.8216 29.0761L42.0722 28.3273C41.7724 28.1027 41.4726 27.953 41.0979 27.953C40.873 27.953 40.6482 28.0278 40.4234 28.1776L39.0743 29.0761C38.8495 29.0012 38.5497 28.8515 38.2499 28.7017L37.9501 27.1293C37.8002 26.5303 37.2756 26.0811 36.676 26.0811H35.7767V26.1559Z" fill="#F5BD4E"/>
<path fill-rule="evenodd" clip-rule="evenodd" d="M36.2264 31.9214C34.5026 31.9214 33.1536 33.2692 33.1536 34.9913C33.1536 36.6386 34.5026 38.0612 36.2264 38.0612C36.9009 38.0612 37.5005 37.8366 38.0251 37.3874C38.2499 37.2376 38.2499 36.8632 38.1 36.6386C38.0251 36.4888 37.8002 36.414 37.6503 36.414C37.5754 36.414 37.4255 36.414 37.3506 36.4888C36.9758 36.7883 36.6011 36.9381 36.1514 36.9381C35.1022 36.9381 34.2778 36.0396 34.2778 34.9913C34.3527 33.943 35.1771 33.0445 36.3013 33.0445C37.3506 33.0445 38.2499 33.943 38.2499 34.9913C38.2499 35.2908 38.4748 35.5154 38.7745 35.5154C39.0743 35.5154 39.2992 35.2908 39.2992 34.9913C39.2992 33.2692 37.9501 31.9214 36.2264 31.9214Z" fill="#F5BD4E"/>
<path fill-rule="evenodd" clip-rule="evenodd" d="M23.9352 20.4653C25.1344 20.4653 26.1836 21.4387 26.1836 22.7115C26.1836 23.9096 25.2093 24.883 23.9352 24.883C22.7361 24.883 21.7618 23.9096 21.7618 22.7115C21.7618 21.5135 22.7361 20.4653 23.9352 20.4653ZM23.9352 19.417C22.1365 19.417 20.6376 20.9145 20.6376 22.7864C20.6376 24.5835 22.1365 26.081 23.9352 26.081C25.8089 26.081 27.3078 24.5835 27.3078 22.7864C27.3078 20.8396 25.8089 19.417 23.9352 19.417Z" fill="#F5BD4E"/>
</svg>
