<svg width="43" height="44" viewBox="0 0 43 44" fill="none" xmlns="http://www.w3.org/2000/svg">
<g clip-path="url(#clip0_114_735)">
<path d="M14.7901 8.47656H7.09668C6.38467 8.47656 5.80762 9.05362 5.80762 9.76562C5.80762 10.4776 6.38467 11.0547 7.09668 11.0547H14.7901C15.5018 11.0547 16.0792 10.4776 16.0792 9.76562C16.0792 9.05362 15.5018 8.47656 14.7901 8.47656Z" fill="#C47A2C"/>
<path d="M14.7901 13.6332H7.09668C6.38467 13.6332 5.80762 14.2102 5.80762 14.9222C5.80762 15.6342 6.38467 16.2113 7.09668 16.2113H14.7901C15.5018 16.2113 16.0792 15.6342 16.0792 14.9222C16.0792 14.2102 15.5018 13.6332 14.7901 13.6332Z" fill="#C47A2C"/>
<path d="M14.7901 18.7898H7.09668C6.38467 18.7898 5.80762 19.3669 5.80762 20.0789C5.80762 20.7909 6.38467 21.3679 7.09668 21.3679H14.7901C15.5018 21.3679 16.0792 20.7909 16.0792 20.0789C16.0792 19.3669 15.5018 18.7898 14.7901 18.7898Z" fill="#C47A2C"/>
<path d="M14.7901 23.9464H7.09668C6.38467 23.9464 5.80762 24.5235 5.80762 25.2355C5.80762 25.9475 6.38467 26.5245 7.09668 26.5245H14.7901C15.5018 26.5245 16.0792 25.9475 16.0792 25.2355C16.0792 24.5235 15.5018 23.9464 14.7901 23.9464Z" fill="#C47A2C"/>
<path d="M14.7901 29.1892H7.09668C6.38467 29.1892 5.80762 29.7666 5.80762 30.4783C5.80762 31.1903 6.38467 31.7673 7.09668 31.7673H14.7901C15.5018 31.7673 16.0792 31.1903 16.0792 30.4783C16.0792 29.7666 15.5018 29.1892 14.7901 29.1892Z" fill="#C47A2C"/>
<path d="M19.1191 11.0547H26.8126C27.5246 11.0547 28.1016 10.4776 28.1016 9.76562C28.1016 9.05362 27.5246 8.47656 26.8126 8.47656H19.1191C18.4075 8.47656 17.8301 9.05362 17.8301 9.76562C17.8301 10.4776 18.4075 11.0547 19.1191 11.0547Z" fill="#C47A2C"/>
<path d="M19.1191 16.2113H26.8126C27.5246 16.2113 28.1016 15.6342 28.1016 14.9222C28.1016 14.2102 27.5246 13.6332 26.8126 13.6332H19.1191C18.4075 13.6332 17.8301 14.2102 17.8301 14.9222C17.8301 15.6342 18.4075 16.2113 19.1191 16.2113Z" fill="#C47A2C"/>
<path d="M24.1136 20.0789C24.1136 19.3669 23.5365 18.7898 22.8245 18.7898H19.1191C18.4075 18.7898 17.8301 19.3669 17.8301 20.0789C17.8301 20.7909 18.4075 21.3679 19.1191 21.3679H22.8245C23.5365 21.3679 24.1136 20.7909 24.1136 20.0789Z" fill="#C47A2C"/>
<path d="M36.3248 29.7333C35.7696 29.2879 34.9586 29.3768 34.5127 29.9321L31.1927 34.0712L29.1373 32.582C28.5609 32.1641 27.7546 32.293 27.337 32.8694C26.9194 33.4461 27.0483 34.2521 27.6246 34.6697L30.6738 36.8789C30.902 37.0441 31.1666 37.1243 31.4294 37.1243C31.8077 37.1243 32.1817 36.9581 32.4355 36.6416L36.5239 31.5454C36.9694 30.9902 36.8804 30.1788 36.3248 29.7333Z" fill="#C47A2C"/>
<path d="M39.5831 25.7762C37.904 24.0675 35.7465 22.9906 33.4087 22.6734V5.1915C33.4087 2.32904 31.0797 0 28.2172 0H5.69183C2.82904 0 0.5 2.32904 0.5 5.1915V35.0524C0.5 37.9152 2.82904 40.2443 5.6915 40.2443H23.8085C25.8472 42.6391 28.7785 44 31.9498 44C37.8529 44 42.6554 39.1942 42.6554 33.287C42.6554 30.4591 41.5644 27.7917 39.5831 25.7762ZM3.07812 35.0524V5.1915C3.07812 3.7507 4.2507 2.57812 5.69183 2.57812H28.2172C29.6583 2.57812 30.8306 3.7507 30.8306 5.1915V22.6324C25.4514 23.1941 21.2442 27.7578 21.2442 33.287C21.2442 34.8195 21.5638 36.3012 22.1767 37.6658H5.69183C4.2507 37.6658 3.07812 36.4936 3.07812 35.0524ZM31.9498 41.4219C29.3753 41.4219 27.0087 40.2399 25.4561 38.1794C24.3873 36.7604 23.822 35.0689 23.822 33.287C23.822 28.8015 27.4683 25.1522 31.9498 25.1522C31.9921 25.1522 32.0347 25.1528 32.077 25.1535L32.0968 25.1538C34.2362 25.1918 36.2419 26.0545 37.7445 27.5833C39.2487 29.1137 40.0772 31.1396 40.0772 33.287C40.0772 37.7726 36.4313 41.4219 31.9498 41.4219Z" fill="#C47A2C"/>
</g>
<defs>
<clipPath id="clip0_114_735">
<rect width="42.1953" height="44" fill="white" transform="translate(0.5)"/>
</clipPath>
</defs>
</svg>
