<svg width="48" height="48" viewBox="0 0 48 48" fill="none" xmlns="http://www.w3.org/2000/svg">
<path d="M30.6262 21.4038C30.7447 21.5314 30.8387 21.6831 30.9028 21.8501C30.967 22.0171 31 22.1961 31 22.3768C31 22.5576 30.967 22.7366 30.9028 22.9036C30.8387 23.0706 30.7447 23.2222 30.6262 23.3499L22.9919 31.5962C22.8738 31.7242 22.7333 31.8258 22.5788 31.895C22.4242 31.9643 22.2585 32 22.0911 32C21.9237 32 21.758 31.9643 21.6034 31.895C21.4489 31.8258 21.3085 31.7242 21.1903 31.5962L17.3731 27.4731C17.2548 27.3453 17.161 27.1936 17.097 27.0266C17.033 26.8597 17 26.6807 17 26.5C17 26.3193 17.033 26.1403 17.097 25.9734C17.161 25.8064 17.2548 25.6547 17.3731 25.5269C17.6121 25.2689 17.9361 25.1239 18.274 25.1239C18.4413 25.1239 18.6069 25.1595 18.7615 25.2286C18.9161 25.2978 19.0565 25.3991 19.1748 25.5269L22.0911 28.6798L28.8245 21.4038C28.9427 21.2758 29.0831 21.1742 29.2377 21.105C29.3923 21.0357 29.558 21 29.7254 21C29.8927 21 30.0584 21.0357 30.213 21.105C30.3676 21.1742 30.508 21.2758 30.6262 21.4038V21.4038Z" fill="#C47A2C"/>
<path d="M12.75 4C13.0815 4 13.3995 4.1317 13.6339 4.36612C13.8683 4.60054 14 4.91848 14 5.25V6.5H34V5.25C34 4.91848 34.1317 4.60054 34.3661 4.36612C34.6005 4.1317 34.9185 4 35.25 4C35.5815 4 35.8995 4.1317 36.1339 4.36612C36.3683 4.60054 36.5 4.91848 36.5 5.25V6.5H39C40.3261 6.5 41.5979 7.02678 42.5355 7.96447C43.4732 8.90215 44 10.1739 44 11.5V39C44 40.3261 43.4732 41.5979 42.5355 42.5355C41.5979 43.4732 40.3261 44 39 44H9C7.67392 44 6.40215 43.4732 5.46447 42.5355C4.52678 41.5979 4 40.3261 4 39V11.5C4 10.1739 4.52678 8.90215 5.46447 7.96447C6.40215 7.02678 7.67392 6.5 9 6.5H11.5V5.25C11.5 4.91848 11.6317 4.60054 11.8661 4.36612C12.1005 4.1317 12.4185 4 12.75 4ZM6.5 11V39C6.5 39.663 6.76339 40.2989 7.23223 40.7678C7.70107 41.2366 8.33696 41.5 9 41.5H39C39.663 41.5 40.2989 41.2366 40.7678 40.7678C41.2366 40.2989 41.5 39.663 41.5 39V11H6.5Z" fill="#C47A2C"/>
</svg>
