<svg width="49" height="48" viewBox="0 0 49 48" fill="none" xmlns="http://www.w3.org/2000/svg">
<g clip-path="url(#clip0_114_734)">
<path d="M17.7901 10.4766H10.0967C9.38467 10.4766 8.80762 11.0536 8.80762 11.7656C8.80762 12.4776 9.38467 13.0547 10.0967 13.0547H17.7901C18.5018 13.0547 19.0792 12.4776 19.0792 11.7656C19.0792 11.0536 18.5018 10.4766 17.7901 10.4766Z" fill="#C47A2C"/>
<path d="M17.7901 15.6332H10.0967C9.38467 15.6332 8.80762 16.2102 8.80762 16.9222C8.80762 17.6342 9.38467 18.2113 10.0967 18.2113H17.7901C18.5018 18.2113 19.0792 17.6342 19.0792 16.9222C19.0792 16.2102 18.5018 15.6332 17.7901 15.6332Z" fill="#C47A2C"/>
<path d="M17.7901 20.7898H10.0967C9.38467 20.7898 8.80762 21.3669 8.80762 22.0789C8.80762 22.7909 9.38467 23.3679 10.0967 23.3679H17.7901C18.5018 23.3679 19.0792 22.7909 19.0792 22.0789C19.0792 21.3669 18.5018 20.7898 17.7901 20.7898Z" fill="#C47A2C"/>
<path d="M17.7901 25.9464H10.0967C9.38467 25.9464 8.80762 26.5235 8.80762 27.2355C8.80762 27.9475 9.38467 28.5245 10.0967 28.5245H17.7901C18.5018 28.5245 19.0792 27.9475 19.0792 27.2355C19.0792 26.5235 18.5018 25.9464 17.7901 25.9464Z" fill="#C47A2C"/>
<path d="M17.7901 31.1892H10.0967C9.38467 31.1892 8.80762 31.7666 8.80762 32.4783C8.80762 33.1903 9.38467 33.7673 10.0967 33.7673H17.7901C18.5018 33.7673 19.0792 33.1903 19.0792 32.4783C19.0792 31.7666 18.5018 31.1892 17.7901 31.1892Z" fill="#C47A2C"/>
<path d="M22.1191 13.0547H29.8126C30.5246 13.0547 31.1016 12.4776 31.1016 11.7656C31.1016 11.0536 30.5246 10.4766 29.8126 10.4766H22.1191C21.4075 10.4766 20.8301 11.0536 20.8301 11.7656C20.8301 12.4776 21.4075 13.0547 22.1191 13.0547Z" fill="#C47A2C"/>
<path d="M22.1191 18.2113H29.8126C30.5246 18.2113 31.1016 17.6342 31.1016 16.9222C31.1016 16.2102 30.5246 15.6332 29.8126 15.6332H22.1191C21.4075 15.6332 20.8301 16.2102 20.8301 16.9222C20.8301 17.6342 21.4075 18.2113 22.1191 18.2113Z" fill="#C47A2C"/>
<path d="M27.1136 22.0789C27.1136 21.3669 26.5365 20.7898 25.8245 20.7898H22.1191C21.4075 20.7898 20.8301 21.3669 20.8301 22.0789C20.8301 22.7909 21.4075 23.3679 22.1191 23.3679H25.8245C26.5365 23.3679 27.1136 22.7909 27.1136 22.0789Z" fill="#C47A2C"/>
<path d="M39.3248 31.7333C38.7696 31.2879 37.9586 31.3768 37.5127 31.9321L34.1927 36.0712L32.1373 34.582C31.5609 34.1641 30.7546 34.293 30.337 34.8694C29.9194 35.4461 30.0483 36.2521 30.6246 36.6697L33.6738 38.8789C33.902 39.0441 34.1666 39.1243 34.4294 39.1243C34.8077 39.1243 35.1817 38.9581 35.4355 38.6416L39.5239 33.5454C39.9694 32.9902 39.8804 32.1788 39.3248 31.7333Z" fill="#C47A2C"/>
<path d="M42.5831 27.7762C40.904 26.0675 38.7465 24.9906 36.4087 24.6734V7.1915C36.4087 4.32904 34.0797 2 31.2172 2H8.69183C5.82904 2 3.5 4.32904 3.5 7.1915V37.0524C3.5 39.9152 5.82904 42.2443 8.6915 42.2443H26.8085C28.8472 44.6391 31.7785 46 34.9498 46C40.8529 46 45.6554 41.1942 45.6554 35.287C45.6554 32.4591 44.5644 29.7917 42.5831 27.7762ZM6.07812 37.0524V7.1915C6.07812 5.7507 7.2507 4.57812 8.69183 4.57812H31.2172C32.6583 4.57812 33.8306 5.7507 33.8306 7.1915V24.6324C28.4514 25.1941 24.2442 29.7578 24.2442 35.287C24.2442 36.8195 24.5638 38.3012 25.1767 39.6658H8.69183C7.2507 39.6658 6.07812 38.4936 6.07812 37.0524ZM34.9498 43.4219C32.3753 43.4219 30.0087 42.2399 28.4561 40.1794C27.3873 38.7604 26.822 37.0689 26.822 35.287C26.822 30.8015 30.4683 27.1522 34.9498 27.1522C34.9921 27.1522 35.0347 27.1528 35.077 27.1535L35.0968 27.1538C37.2362 27.1918 39.2419 28.0545 40.7445 29.5833C42.2487 31.1137 43.0772 33.1396 43.0772 35.287C43.0772 39.7726 39.4313 43.4219 34.9498 43.4219Z" fill="#C47A2C"/>
</g>
<defs>
<clipPath id="clip0_114_734">
<rect width="42.1953" height="44" fill="white" transform="translate(3.5 2)"/>
</clipPath>
</defs>
</svg>
