<svg width="600" height="600" viewBox="0 0 600 600" fill="none" xmlns="http://www.w3.org/2000/svg">
<path d="M42 100V421.95H263.2L263.204 488.645H219.974C216.896 488.645 214.372 491.164 214.372 494.247C214.372 497.325 216.892 499.848 219.974 499.848H379.294C382.372 499.848 384.896 497.329 384.896 494.247C384.896 491.168 382.376 488.645 379.294 488.645H336.001V421.95H557.201V100H42ZM546 410.75H53.2V393.949H546V410.75ZM324.8 488.645H274.402V421.95H324.8V488.645ZM53.2 382.755V139.215H546V382.755H53.2ZM53.2 111.215H546V128.016L53.2 128.012V111.215Z" fill="black"/>
<path d="M328.391 187.362C326.153 189.491 326.04 193.018 328.11 195.256L389.598 260.944L328.11 326.632C325.981 328.871 326.095 332.457 328.391 334.527C329.454 335.535 330.856 336.039 332.2 336.039C333.712 336.039 335.169 335.421 336.29 334.246L404.892 260.887L336.29 187.528C334.157 185.348 330.63 185.235 328.391 187.364V187.362Z" fill="#C47A2C"/>
<path d="M270.813 187.362C268.575 185.233 264.989 185.347 262.918 187.643L194.316 261.002L262.918 334.361C264.039 335.537 265.493 336.154 267.008 336.154C268.407 336.154 269.75 335.651 270.817 334.643C273.055 332.514 273.168 328.987 271.098 326.748L209.606 260.943L271.094 195.255C273.223 193.017 273.11 189.486 270.813 187.361L270.813 187.362Z" fill="#C47A2C"/>
</svg>
