<svg width="600" height="600" viewBox="0 0 600 600" fill="none" xmlns="http://www.w3.org/2000/svg">
<path d="M42 100V421.95H263.2L263.204 488.645H219.974C216.896 488.645 214.372 491.164 214.372 494.247C214.372 497.325 216.892 499.848 219.974 499.848H379.294C382.372 499.848 384.896 497.329 384.896 494.247C384.896 491.168 382.376 488.645 379.294 488.645H336.001V421.95H557.201V100H42ZM546 410.75H53.2V393.949H546V410.75ZM324.8 488.645H274.402V421.95H324.8V488.645ZM53.2 382.755V139.215H546V382.755H53.2ZM53.2 111.215H546V128.016L53.2 128.012V111.215Z" fill="black"/>
<path d="M341.497 208.094C339.486 208.094 337.841 206.493 337.787 204.483C337.676 200.521 336.512 196.26 335.792 193.984H335.794C333.585 188.538 333.931 182.39 336.729 177.224C339.53 172.057 344.493 168.415 350.26 167.29C356.028 166.165 361.996 167.677 366.531 171.413C371.067 175.149 373.695 180.716 373.695 186.593C373.693 188.345 373.46 190.087 373.001 191.776C372.993 191.804 372.986 191.83 372.977 191.861C372.003 195.155 371.52 199.469 371.578 204.336C371.602 206.386 369.96 208.07 367.91 208.094H367.862C365.83 208.094 364.174 206.458 364.15 204.426C364.081 198.766 364.651 193.847 365.841 189.8C366.122 188.753 366.265 187.676 366.267 186.593C366.265 182.927 364.62 179.457 361.785 177.133C358.95 174.811 355.223 173.88 351.629 174.598C348.035 175.316 344.952 177.607 343.226 180.84C341.501 184.074 341.316 187.909 342.719 191.295C342.759 191.391 342.796 191.489 342.826 191.587C343.659 194.2 345.078 199.324 345.213 204.278V204.28C345.241 205.263 344.876 206.219 344.197 206.934C343.52 207.648 342.587 208.066 341.603 208.092L341.497 208.094Z" fill="#C47A2C"/>
<path d="M341.329 315.934C339.434 315.932 337.845 314.502 337.641 312.62C337.291 309.766 336.67 306.95 335.794 304.211C333.587 298.765 333.929 292.616 336.729 287.451C339.529 282.283 344.493 278.641 350.26 277.516C356.028 276.391 361.996 277.904 366.531 281.639C371.067 285.375 373.695 290.943 373.695 296.82C373.693 298.571 373.46 300.314 373.001 302.002C372.992 302.031 372.986 302.061 372.977 302.089C372.07 305.418 371.602 308.852 371.587 312.3C371.543 314.352 369.844 315.977 367.792 315.934C365.743 315.89 364.115 314.191 364.161 312.139C364.187 308.047 364.753 303.974 365.839 300.027C366.121 298.98 366.265 297.903 366.267 296.82C366.263 293.156 364.618 289.683 361.783 287.362C358.948 285.038 355.221 284.107 351.627 284.825C348.032 285.543 344.949 287.834 343.224 291.067C341.499 294.3 341.314 298.138 342.719 301.524C342.758 301.619 342.795 301.717 342.826 301.815V301.813C343.881 305.07 344.619 308.421 345.025 311.819C345.132 312.801 344.845 313.782 344.227 314.548C343.609 315.316 342.713 315.808 341.733 315.912C341.599 315.927 341.464 315.934 341.329 315.934L341.329 315.934Z" fill="#C47A2C"/>
<path d="M247.788 349.776C241.654 349.776 235.871 346.915 232.151 342.039C228.43 337.161 227.197 330.83 228.815 324.914C228.822 324.888 228.828 324.864 228.837 324.838C229.636 321.933 230.086 318.944 230.177 315.932H193.316C191.264 315.932 189.602 314.27 189.602 312.218V272.158C189.602 270.144 191.209 268.497 193.224 268.446C199.201 268.296 204.392 268.86 208.664 270.115H208.661C212.475 271.147 216.551 270.276 219.61 267.776C222.667 265.274 224.331 261.452 224.076 257.511C223.822 253.568 221.679 249.992 218.326 247.905C214.971 245.818 210.816 245.479 207.167 246.993C207.067 247.035 206.966 247.072 206.864 247.104C204.049 248.001 198.57 249.496 193.396 249.496H193.3H193.303C191.255 249.489 189.602 247.829 189.602 245.781V204.379V204.381C189.602 202.329 191.264 200.667 193.316 200.667H231.169H231.167C230.787 198.404 230.249 196.172 229.555 193.985C227.173 188.111 227.767 181.449 231.152 176.09C234.535 170.731 240.295 167.33 246.621 166.956C252.948 166.582 259.069 169.28 263.062 174.202C267.054 179.125 268.429 185.67 266.756 191.784C266.75 191.81 266.743 191.834 266.734 191.86C265.947 194.732 265.499 197.689 265.398 200.665H301.152C302.138 200.665 303.082 201.057 303.779 201.753C304.475 202.449 304.866 203.394 304.866 204.379V244.45C304.866 246.476 303.243 248.129 301.218 248.164C295.496 248.266 290.508 247.698 286.388 246.482C282.574 245.451 278.498 246.323 275.442 248.823C272.383 251.325 270.72 255.148 270.977 259.089C271.232 263.031 273.373 266.608 276.727 268.695C280.082 270.779 284.236 271.118 287.885 269.604C287.985 269.563 288.085 269.526 288.189 269.493C290.852 268.647 296.068 267.211 301.076 267.109C302.075 267.087 303.039 267.47 303.753 268.168C304.466 268.866 304.867 269.824 304.867 270.822V312.218C304.867 313.202 304.477 314.146 303.779 314.842C303.082 315.541 302.138 315.93 301.155 315.93H264.389C264.769 318.228 265.313 320.495 266.016 322.714C268.473 328.778 267.755 335.667 264.099 341.093C260.444 346.519 254.33 349.772 247.788 349.774L247.788 349.776ZM235.974 326.905C235.051 330.31 235.643 333.948 237.597 336.885C239.55 339.825 242.677 341.776 246.173 342.24C249.672 342.705 253.199 341.639 255.853 339.316C258.508 336.992 260.031 333.635 260.031 330.106C260.033 328.493 259.715 326.899 259.095 325.41C259.054 325.31 259.017 325.21 258.984 325.11C258.144 322.469 256.717 317.293 256.597 312.308L256.6 312.306C256.576 311.307 256.956 310.339 257.655 309.623C258.353 308.908 259.311 308.505 260.311 308.505H297.438V274.888C295.117 275.268 292.826 275.817 290.582 276.528C284.708 278.911 278.045 278.317 272.684 274.931C267.325 271.546 263.925 265.786 263.552 259.46C263.178 253.13 265.878 247.01 270.802 243.019C275.726 239.027 282.273 237.654 288.387 239.329L288.458 239.349V239.351C291.387 240.154 294.403 240.606 297.438 240.693V208.094H261.629C259.599 208.094 257.943 206.462 257.915 204.433C257.837 198.782 258.405 193.859 259.601 189.794C260.524 186.389 259.932 182.751 257.978 179.814C256.022 176.877 252.896 174.925 249.399 174.462C245.903 173.996 242.374 175.062 239.722 177.386C237.067 179.71 235.544 183.067 235.544 186.593C235.542 188.206 235.86 189.803 236.48 191.291C236.521 191.391 236.558 191.491 236.591 191.591C237.422 194.204 238.838 199.331 238.973 204.278V204.28C239.001 205.281 238.623 206.253 237.922 206.971C237.224 207.689 236.264 208.096 235.261 208.096H197.029V241.799C199.553 241.425 202.039 240.848 204.47 240.073C210.344 237.691 217.006 238.285 222.365 241.668C227.726 245.054 231.125 250.813 231.499 257.142C231.873 263.469 229.173 269.59 224.249 273.58C219.323 277.573 212.778 278.945 206.665 277.27C206.641 277.264 206.619 277.257 206.595 277.251C203.475 276.402 200.261 275.943 197.028 275.886V308.505H233.94C235.968 308.505 237.621 310.133 237.654 312.162C237.741 317.857 237.175 322.817 235.972 326.906L235.974 326.905Z" fill="#C47A2C"/>
<path d="M406.887 315.933H367.869C365.817 315.933 364.155 314.271 364.155 312.219C364.155 310.168 365.817 308.505 367.869 308.505H403.175V208.096H367.859C365.807 208.096 364.145 206.434 364.145 204.382C364.145 202.332 365.807 200.668 367.859 200.668H406.887C407.873 200.668 408.817 201.06 409.513 201.756C410.212 202.454 410.601 203.399 410.601 204.382V312.222C410.601 313.207 410.212 314.151 409.513 314.848C408.817 315.544 407.873 315.935 406.887 315.935V315.933Z" fill="#C47A2C"/>
<path d="M341.497 208.094H301.152C299.102 208.094 297.438 206.432 297.438 204.38C297.438 202.33 299.102 200.666 301.152 200.666H341.497C343.549 200.666 345.211 202.33 345.211 204.38C345.211 206.432 343.549 208.094 341.497 208.094Z" fill="#C47A2C"/>
<path d="M341.329 315.934H301.15C299.1 315.934 297.436 314.272 297.436 312.22C297.436 310.168 299.1 308.506 301.15 308.506H341.329C343.381 308.506 345.043 310.168 345.043 312.22C345.043 314.272 343.381 315.934 341.329 315.934Z" fill="#C47A2C"/>
</svg>
