<svg width="50" height="50" viewBox="0 0 50 50" fill="none" xmlns="http://www.w3.org/2000/svg">
<path d="M39.7547 15.0209C39.7458 14.981 39.7324 14.9453 39.7191 14.9101C39.7148 14.8924 39.7101 14.8744 39.7015 14.8568C39.6838 14.8169 39.6615 14.7769 39.6392 14.7413C39.6303 14.728 39.6259 14.7147 39.6169 14.7057C39.586 14.6568 39.546 14.6125 39.5061 14.5726L29.7404 4.80687C29.7005 4.76693 29.6562 4.72699 29.6073 4.69603C29.594 4.68705 29.5806 4.68271 29.5717 4.67373C29.5361 4.65144 29.4961 4.62945 29.4562 4.61149C29.4385 4.60251 29.4206 4.60251 29.4029 4.59384C29.3673 4.58053 29.3274 4.56722 29.2921 4.55824C29.2388 4.54926 29.1766 4.54492 29.119 4.54492H12.251C11.7627 4.54492 11.3633 4.94436 11.3633 5.43263V43.6076C11.3633 44.0959 11.7627 44.4953 12.251 44.4953H38.8847C39.373 44.4953 39.7724 44.0958 39.7724 43.6076V15.1983C39.7724 15.1407 39.768 15.0785 39.7547 15.0209ZM30.0065 7.57663L36.7405 14.3106H30.0065V7.57663ZM13.1385 42.7204V6.32104H28.2309V15.1989C28.2309 15.6872 28.6304 16.0866 29.1186 16.0866H37.9965V42.7203L13.1385 42.7204Z" fill="#C47A2C"/>
<mask id="path-2-outside-1_1029_11866" maskUnits="userSpaceOnUse" x="16.1816" y="18.4551" width="18" height="18" fill="black">
<rect fill="white" x="16.1816" y="18.4551" width="18" height="18"/>
<path d="M23.3389 33.5891C22.1601 34.7679 20.2444 34.7679 19.0657 33.5891C17.8869 32.4103 17.8869 30.4946 19.0657 29.3159L21.9146 26.4671C23.0384 25.3433 24.8311 25.2851 26.0186 26.3068C26.1867 26.4532 26.2044 26.708 26.0583 26.8762C25.9121 27.0445 25.6574 27.0625 25.4889 26.9166C24.6142 26.164 23.3168 26.2042 22.4842 27.0368L19.6354 29.8856C18.7624 30.7586 18.7624 32.1464 19.6354 33.0194C20.5085 33.8924 21.8962 33.8924 22.7692 33.0194L25.4755 30.313C25.5507 30.2356 25.6539 30.1916 25.7616 30.1908C25.8696 30.1901 25.9733 30.2325 26.0496 30.3088C26.1259 30.3851 26.1683 30.4888 26.1676 30.5966C26.1667 30.7045 26.1228 30.8077 26.0453 30.8828L23.3389 33.5891ZM28.4667 28.4612C27.3429 29.5851 25.5502 29.6433 24.3627 28.6214L24.3628 28.6216C24.2813 28.5515 24.2311 28.4518 24.2233 28.3446C24.2155 28.2374 24.2507 28.1316 24.3212 28.0505C24.3916 27.9693 24.4915 27.9197 24.5987 27.9124C24.7059 27.9051 24.8117 27.9409 24.8925 28.0117C25.7672 28.7643 27.0647 28.724 27.8972 27.8914L30.746 25.0426C31.6191 24.1696 31.6191 22.7818 30.746 21.9088C29.873 21.0358 28.4852 21.0358 27.6122 21.9088L24.9059 24.6152V24.6153C24.8307 24.6927 24.7276 24.7366 24.6198 24.7374C24.5119 24.7381 24.4083 24.6957 24.332 24.6194C24.2557 24.5431 24.2133 24.4395 24.214 24.3316C24.2148 24.2238 24.2587 24.1207 24.3361 24.0455L27.0424 21.3392C28.2212 20.1604 30.1369 20.1604 31.3156 21.3392C32.4943 22.518 32.4944 24.4336 31.3156 25.6123L28.4667 28.4612Z"/>
</mask>
<path d="M23.3389 33.5891C22.1601 34.7679 20.2444 34.7679 19.0657 33.5891C17.8869 32.4103 17.8869 30.4946 19.0657 29.3159L21.9146 26.4671C23.0384 25.3433 24.8311 25.2851 26.0186 26.3068C26.1867 26.4532 26.2044 26.708 26.0583 26.8762C25.9121 27.0445 25.6574 27.0625 25.4889 26.9166C24.6142 26.164 23.3168 26.2042 22.4842 27.0368L19.6354 29.8856C18.7624 30.7586 18.7624 32.1464 19.6354 33.0194C20.5085 33.8924 21.8962 33.8924 22.7692 33.0194L25.4755 30.313C25.5507 30.2356 25.6539 30.1916 25.7616 30.1908C25.8696 30.1901 25.9733 30.2325 26.0496 30.3088C26.1259 30.3851 26.1683 30.4888 26.1676 30.5966C26.1667 30.7045 26.1228 30.8077 26.0453 30.8828L23.3389 33.5891ZM28.4667 28.4612C27.3429 29.5851 25.5502 29.6433 24.3627 28.6214L24.3628 28.6216C24.2813 28.5515 24.2311 28.4518 24.2233 28.3446C24.2155 28.2374 24.2507 28.1316 24.3212 28.0505C24.3916 27.9693 24.4915 27.9197 24.5987 27.9124C24.7059 27.9051 24.8117 27.9409 24.8925 28.0117C25.7672 28.7643 27.0647 28.724 27.8972 27.8914L30.746 25.0426C31.6191 24.1696 31.6191 22.7818 30.746 21.9088C29.873 21.0358 28.4852 21.0358 27.6122 21.9088L24.9059 24.6152V24.6153C24.8307 24.6927 24.7276 24.7366 24.6198 24.7374C24.5119 24.7381 24.4083 24.6957 24.332 24.6194C24.2557 24.5431 24.2133 24.4395 24.214 24.3316C24.2148 24.2238 24.2587 24.1207 24.3361 24.0455L27.0424 21.3392C28.2212 20.1604 30.1369 20.1604 31.3156 21.3392C32.4943 22.518 32.4944 24.4336 31.3156 25.6123L28.4667 28.4612Z" fill="#E5E5E5"/>
<path d="M23.3389 33.5891L22.2783 32.5284L22.2782 32.5284L23.3389 33.5891ZM19.0657 33.5891L20.1265 32.5285L20.1264 32.5284L19.0657 33.5891ZM19.0657 29.3159L20.1264 30.3767L20.1264 30.3766L19.0657 29.3159ZM21.9146 26.4671L20.8539 25.4065H20.8539L21.9146 26.4671ZM26.0186 26.3068L27.004 25.1758L26.9969 25.1697L26.0186 26.3068ZM26.0583 26.8762L24.9259 25.8924L24.9255 25.8928L26.0583 26.8762ZM25.4889 26.9166L26.4708 25.7826L26.4672 25.7796L25.4889 26.9166ZM22.4842 27.0368L23.5449 28.0974L23.5449 28.0974L22.4842 27.0368ZM19.6354 33.0194L20.6961 31.9587L20.6961 31.9587L19.6354 33.0194ZM22.7692 33.0194L21.7086 31.9587L21.7085 31.9587L22.7692 33.0194ZM25.4755 30.313L26.5362 31.3737L26.544 31.3659L26.5517 31.358L25.4755 30.313ZM25.7616 30.1908L25.7519 28.6908L25.7499 28.6908L25.7616 30.1908ZM26.0496 30.3088L27.1102 29.2482L27.1102 29.2481L26.0496 30.3088ZM26.1676 30.5966L27.6675 30.6083L27.6676 30.6064L26.1676 30.5966ZM26.0453 30.8828L25.0004 29.8067L24.9925 29.8143L24.9847 29.8221L26.0453 30.8828ZM28.4667 28.4612L29.5274 29.5219L29.5274 29.5219L28.4667 28.4612ZM24.3627 28.6214L25.341 27.4844L23.302 29.6821L24.3627 28.6214ZM24.3628 28.6216L23.3845 29.7587L25.4235 27.5609L24.3628 28.6216ZM24.2233 28.3446L22.7271 28.4525L22.7273 28.4544L24.2233 28.3446ZM24.3212 28.0505L25.4528 29.0351L25.4547 29.033L24.3212 28.0505ZM24.5987 27.9124L24.7007 29.4089L24.7007 29.4089L24.5987 27.9124ZM24.8925 28.0117L23.9038 29.1398L23.9142 29.1488L24.8925 28.0117ZM27.8972 27.8914L26.8365 26.8308L26.8365 26.8308L27.8972 27.8914ZM30.746 25.0426L29.6854 23.982V23.982L30.746 25.0426ZM30.746 21.9088L29.6854 22.9695L29.6854 22.9695L30.746 21.9088ZM27.6122 21.9088L28.6729 22.9695L28.6729 22.9695L27.6122 21.9088ZM24.9059 24.6152L23.8452 23.5545L23.4059 23.9938V24.6152H24.9059ZM24.9059 24.6153L25.9821 25.6602L26.4059 25.2237V24.6153H24.9059ZM24.6198 24.7374L24.6296 26.2374L24.6315 26.2374L24.6198 24.7374ZM24.332 24.6194L23.2714 25.68L23.2714 25.6801L24.332 24.6194ZM24.214 24.3316L22.714 24.3199L22.714 24.3218L24.214 24.3316ZM24.3361 24.0455L25.381 25.1217L25.3889 25.114L25.3968 25.1062L24.3361 24.0455ZM27.0424 21.3392L28.1031 22.3998V22.3998L27.0424 21.3392ZM31.3156 25.6123L30.255 24.5516L30.2549 24.5517L31.3156 25.6123ZM22.2782 32.5284C21.6852 33.1215 20.7193 33.1214 20.1265 32.5285L18.005 34.6497C19.7696 36.4144 22.635 36.4143 24.3995 34.6497L22.2782 32.5284ZM20.1264 32.5284C19.5334 31.9354 19.5334 30.9695 20.1264 30.3767L18.0051 28.2552C16.2404 30.0198 16.2405 32.8852 18.0051 34.6497L20.1264 32.5284ZM20.1264 30.3766L22.9752 27.5278L20.8539 25.4065L18.0051 28.2553L20.1264 30.3766ZM22.9752 27.5278C23.5433 26.9597 24.4469 26.9333 25.0403 27.4439L26.9969 25.1697C25.2153 23.6369 22.5336 23.7268 20.8539 25.4065L22.9752 27.5278ZM25.0333 27.4378C24.5775 27.0406 24.5292 26.3491 24.9259 25.8924L27.1906 27.8599C27.8796 27.0668 27.7959 25.8658 27.004 25.1758L25.0333 27.4378ZM24.9255 25.8928C25.3226 25.4355 26.0142 25.3873 26.4708 25.7826L24.507 28.0506C25.3005 28.7377 26.5017 28.6535 27.191 27.8595L24.9255 25.8928ZM26.4672 25.7796C24.998 24.5154 22.8115 24.5882 21.4236 25.9761L23.5449 28.0974C23.8221 27.8203 24.2304 27.8126 24.5106 28.0537L26.4672 25.7796ZM21.4236 25.9761L18.5748 28.8249L20.6961 30.9463L23.5449 28.0974L21.4236 25.9761ZM18.5748 28.8249C17.1159 30.2838 17.1159 32.6213 18.5748 34.0801L20.6961 31.9587C20.4088 31.6715 20.4088 31.2335 20.6961 30.9463L18.5748 28.8249ZM18.5748 34.08C20.0336 35.5389 22.3711 35.5389 23.8299 34.08L21.7085 31.9587C21.4213 32.246 20.9834 32.246 20.6961 31.9587L18.5748 34.08ZM23.8299 34.08L26.5362 31.3737L24.4149 29.2524L21.7086 31.9587L23.8299 34.08ZM26.5517 31.358C26.3467 31.5691 26.0662 31.6885 25.7734 31.6908L25.7499 28.6908C25.2415 28.6948 24.7547 28.9022 24.3994 29.2681L26.5517 31.358ZM25.7714 31.6908C25.4793 31.6927 25.1972 31.5777 24.9889 31.3695L27.1102 29.2481C26.7494 28.8873 26.2598 28.6875 25.7519 28.6908L25.7714 31.6908ZM24.9889 31.3695C24.7809 31.1614 24.6657 30.8793 24.6676 30.5868L27.6676 30.6064C27.6709 30.0983 27.4709 29.6088 27.1102 29.2482L24.9889 31.3695ZM24.6676 30.5849C24.6699 30.2924 24.7891 30.0118 25.0004 29.8067L27.0903 31.959C27.4564 31.6035 27.6636 31.1166 27.6675 30.6083L24.6676 30.5849ZM24.9847 29.8221L22.2783 32.5284L24.3995 34.6498L27.106 31.9435L24.9847 29.8221ZM27.4061 27.4006C26.838 27.9686 25.9344 27.995 25.341 27.4844L23.3843 29.7584C25.1659 31.2915 27.8477 31.2016 29.5274 29.5219L27.4061 27.4006ZM23.302 29.6821L23.3021 29.6822L25.4235 27.5609L25.4233 27.5608L23.302 29.6821ZM25.3411 27.4845C25.5621 27.6746 25.698 27.9448 25.7192 28.2348L22.7273 28.4544C22.7643 28.9589 23.0005 29.4283 23.3845 29.7587L25.3411 27.4845ZM25.7194 28.2368C25.7402 28.5259 25.6455 28.8137 25.4528 29.0351L23.1896 27.0659C22.8559 27.4495 22.6908 27.9489 22.7271 28.4525L25.7194 28.2368ZM25.4547 29.033C25.2623 29.2549 24.9904 29.3892 24.7007 29.4089L24.4967 26.4159C23.9927 26.4502 23.5209 26.6837 23.1877 27.068L25.4547 29.033ZM24.7007 29.4089C24.4091 29.4288 24.1225 29.3315 23.9038 29.1398L25.8813 26.8837C25.501 26.5504 25.0028 26.3814 24.4967 26.4159L24.7007 29.4089ZM23.9142 29.1488C25.3836 30.4131 27.5701 30.3399 28.9579 28.9521L26.8365 26.8308C26.5592 27.1081 26.1509 27.1156 25.8709 26.8747L23.9142 29.1488ZM28.9579 28.9521L31.8067 26.1033L29.6854 23.982L26.8365 26.8308L28.9579 28.9521ZM31.8067 26.1033C33.2655 24.6445 33.2655 22.307 31.8067 20.8482L29.6854 22.9695C29.9726 23.2567 29.9726 23.6947 29.6854 23.982L31.8067 26.1033ZM31.8067 20.8482C30.3479 19.3894 28.0104 19.3893 26.5515 20.8482L28.6729 22.9695C28.9601 22.6823 29.3981 22.6822 29.6854 22.9695L31.8067 20.8482ZM26.5516 20.8482L23.8452 23.5545L25.9666 25.6758L28.6729 22.9695L26.5516 20.8482ZM23.4059 24.6152V24.6153H26.4059V24.6152H23.4059ZM23.8297 23.5704C24.0356 23.3583 24.3165 23.2397 24.6081 23.2375L24.6315 26.2374C25.1386 26.2334 25.6258 26.0271 25.9821 25.6602L23.8297 23.5704ZM24.61 23.2375C24.9027 23.2355 25.1848 23.3509 25.3927 23.5587L23.2714 25.6801C23.6318 26.0405 24.1211 26.2407 24.6296 26.2374L24.61 23.2375ZM25.3927 23.5587C25.6005 23.7666 25.7159 24.0487 25.714 24.3414L22.714 24.3218C22.7107 24.8303 22.9109 25.3196 23.2714 25.68L25.3927 23.5587ZM25.7139 24.3433C25.7117 24.6349 25.5931 24.9158 25.381 25.1217L23.2912 22.9693C22.9243 23.3256 22.718 23.8128 22.714 24.3199L25.7139 24.3433ZM25.3968 25.1062L28.1031 22.3998L25.9818 20.2785L23.2754 22.9849L25.3968 25.1062ZM28.1031 22.3998C28.6961 21.8068 29.662 21.8069 30.2549 22.3998L32.3763 20.2786C30.6118 18.5139 27.7463 18.514 25.9818 20.2785L28.1031 22.3998ZM30.2549 22.3998C30.8479 22.9929 30.8478 23.9588 30.255 24.5516L32.3762 26.673C34.1409 24.9084 34.1406 22.0431 32.3763 20.2786L30.2549 22.3998ZM30.2549 24.5517L27.4061 27.4006L29.5274 29.5219L32.3762 26.673L30.2549 24.5517Z" fill="#C47A2C" mask="url(#path-2-outside-1_1029_11866)"/>
</svg>
