<svg width="50" height="50" viewBox="0 0 50 50" fill="none" xmlns="http://www.w3.org/2000/svg">
<path d="M39.7547 15.0209C39.7458 14.981 39.7324 14.9453 39.7191 14.9101C39.7148 14.8924 39.7101 14.8744 39.7015 14.8568C39.6838 14.8169 39.6615 14.7769 39.6392 14.7413C39.6303 14.728 39.6259 14.7147 39.6169 14.7057C39.586 14.6568 39.546 14.6125 39.5061 14.5726L29.7404 4.80687C29.7005 4.76693 29.6562 4.72699 29.6073 4.69603C29.594 4.68705 29.5806 4.68271 29.5717 4.67373C29.5361 4.65144 29.4961 4.62945 29.4562 4.61149C29.4385 4.60251 29.4206 4.60251 29.4029 4.59384C29.3673 4.58053 29.3274 4.56722 29.2921 4.55824C29.2388 4.54926 29.1766 4.54492 29.119 4.54492H12.251C11.7627 4.54492 11.3633 4.94436 11.3633 5.43263V43.6076C11.3633 44.0959 11.7627 44.4953 12.251 44.4953H38.8847C39.373 44.4953 39.7724 44.0958 39.7724 43.6076V15.1983C39.7724 15.1407 39.768 15.0785 39.7547 15.0209ZM30.0065 7.57663L36.7405 14.3106H30.0065V7.57663ZM13.1385 42.7204V6.32104H28.2309V15.1989C28.2309 15.6872 28.6304 16.0866 29.1186 16.0866H37.9965V42.7203L13.1385 42.7204Z" fill="#C47A2C"/>
<path d="M23.394 21.2262C23.6914 22.036 24.0884 22.8818 24.4958 23.6949C23.8459 25.7307 23.1117 27.9131 22.1626 29.7585C21.8443 29.8836 21.5308 30.0041 21.225 30.1216C20.6172 30.3552 20.0399 30.5771 19.5164 30.7994C18.7169 31.139 18.0246 31.487 17.5189 31.8946L17.5188 31.8945L17.5138 31.8989C17.0813 32.2805 16.9015 32.9087 16.8949 33.3651H16.8949V33.3673C16.8949 34.4723 17.7996 35.3767 18.9044 35.3767C19.4858 35.3767 20.0208 35.1141 20.3605 34.7704L20.3608 34.7707L20.3688 34.7612C20.7468 34.3099 21.3682 33.2809 21.889 32.3776C22.3378 31.5993 22.72 30.9 22.8196 30.7168C24.664 29.9911 26.5969 29.2515 28.4678 28.8101C29.8001 29.8881 31.7843 30.6247 33.3673 30.6247C34.4723 30.6247 35.3767 29.7201 35.3767 28.6153C35.3767 27.5103 34.4721 26.6058 33.3673 26.6058C32.0979 26.6058 30.177 27.0715 28.7484 27.5535C27.5692 26.4511 26.4857 25.0715 25.7102 23.6039C25.7921 23.3505 25.8763 23.0959 25.9601 22.8422C26.1535 22.2574 26.3452 21.6773 26.5041 21.1264C26.7374 20.3179 26.9056 19.5539 26.9056 18.9045C26.9056 17.8924 26.1466 17.0485 25.1699 16.9138L25.183 16.8949H24.8961C23.7911 16.8949 22.8866 17.7996 22.8866 18.9044C22.8866 19.6003 23.0906 20.4001 23.394 21.2262ZM24.8961 18.0213C25.3887 18.0213 25.7791 18.4117 25.7791 18.9044C25.7791 19.2708 25.6763 19.7919 25.5114 20.4108C25.3757 20.9198 25.2008 21.4855 25.014 22.0715C24.7604 21.5041 24.5302 20.9455 24.3544 20.4362C24.1409 19.8176 24.013 19.2862 24.013 18.9044C24.013 18.4117 24.4034 18.0213 24.8961 18.0213ZM23.6751 29.1951C24.286 27.8361 24.7851 26.4034 25.2406 25.0094C25.8909 26.0635 26.6639 27.0439 27.5108 27.904C26.2104 28.2543 24.9262 28.7158 23.6751 29.1951ZM33.3675 27.7321C33.8601 27.7321 34.2505 28.1225 34.2505 28.6152C34.2505 29.1078 33.8601 29.4982 33.3675 29.4982C32.3758 29.4982 31.005 29.0456 29.9198 28.4049C31.1596 28.041 32.5454 27.7321 33.3675 27.7321ZM19.5653 32.0375C20.0379 31.8251 20.5838 31.604 21.1684 31.3731C20.5601 32.47 19.9527 33.4893 19.5172 34.0146C19.3669 34.1607 19.1638 34.2504 18.9045 34.2504C18.4118 34.2504 18.0214 33.86 18.0214 33.3673C18.0214 33.1379 18.1199 32.908 18.2579 32.7543C18.5409 32.5331 18.9935 32.2943 19.5653 32.0375Z" fill="#C47A2C" stroke="#C47A2C" stroke-width="0.3"/>
</svg>
