<svg width="50" height="50" viewBox="0 0 50 50" fill="none" xmlns="http://www.w3.org/2000/svg">
<path d="M39.7547 15.0209C39.7458 14.981 39.7324 14.9453 39.7191 14.9101C39.7148 14.8924 39.7101 14.8744 39.7015 14.8568C39.6838 14.8169 39.6615 14.7769 39.6392 14.7413C39.6303 14.728 39.6259 14.7147 39.6169 14.7057C39.586 14.6568 39.546 14.6125 39.5061 14.5726L29.7404 4.80687C29.7005 4.76693 29.6562 4.72699 29.6073 4.69603C29.594 4.68705 29.5806 4.68271 29.5717 4.67373C29.5361 4.65144 29.4961 4.62945 29.4562 4.61149C29.4385 4.60251 29.4206 4.60251 29.4029 4.59384C29.3673 4.58053 29.3274 4.56722 29.2921 4.55824C29.2388 4.54926 29.1766 4.54492 29.119 4.54492H12.251C11.7627 4.54492 11.3633 4.94436 11.3633 5.43263V43.6076C11.3633 44.0959 11.7627 44.4953 12.251 44.4953H38.8847C39.373 44.4953 39.7724 44.0958 39.7724 43.6076V15.1983C39.7724 15.1407 39.768 15.0785 39.7547 15.0209ZM30.0065 7.57663L36.7405 14.3106H30.0065V7.57663ZM13.1385 42.7204V6.32104H28.2309V15.1989C28.2309 15.6872 28.6304 16.0866 29.1186 16.0866H37.9965V42.7203L13.1385 42.7204Z" fill="#C47A2C"/>
<path d="M23.6951 33.6554H24.0358H24.2142L24.3649 33.1588L25.7297 28.6636L27.1097 33.1608L27.2615 33.6554H27.4219H27.7789H28.1873H29.0041H29.5545H29.7962H30.0906L30.2303 33.1378L32.8227 23.532L33.0608 22.6496H32.1468H30.0605H29.5011L29.3778 23.1953L28.4451 27.3206L27.2071 23.1504L27.1053 22.8073L27.1315 22.6496H27.0584H26.536H26.3052H25.1422H24.938H24.4157H24.3154L24.3515 22.8657L24.267 23.1504L23.0391 27.2857L22.0956 23.1924L21.9705 22.6496H21.4135H19.3184H18.4036L18.6427 23.5326L21.2439 33.1384L21.3839 33.6554H21.6836H21.9196H22.47H23.2868H23.6951Z" stroke="#C47A2C" stroke-width="1.4"/>
</svg>
