<svg width="46" height="42" viewBox="0 0 46 42" fill="none" xmlns="http://www.w3.org/2000/svg">
<path d="M45.8096 4.22208C45.8096 4.22208 45.3839 3.3909 44.7085 2.24316C44.7085 2.24316 42.5392 3.95796 42.5558 3.86281C42.5723 3.76765 45.8096 4.22208 45.8096 4.22208Z" fill="#272727"/>
<path d="M45.8096 4.31907H45.7968C44.6553 4.15789 42.7925 3.91902 42.5888 3.94815C42.5356 3.97145 42.5191 3.9598 42.5007 3.94815C42.4849 3.93684 42.4724 3.92092 42.465 3.90231C42.4575 3.88371 42.4552 3.8632 42.4585 3.84328C42.4585 3.81609 42.4695 3.7889 42.5301 3.77337C42.6549 3.72093 43.8955 2.75964 44.6461 2.16538C44.6562 2.1573 44.6678 2.15157 44.6801 2.14856C44.6925 2.14554 44.7052 2.14532 44.7177 2.1479C44.7301 2.15005 44.7419 2.15497 44.7523 2.16234C44.7628 2.1697 44.7716 2.17935 44.7782 2.19063C45.4554 3.32865 45.8794 4.16759 45.8904 4.17536C45.898 4.19017 45.9019 4.20683 45.9016 4.22371C45.9014 4.24058 45.8969 4.25709 45.8888 4.2716C45.8806 4.28611 45.869 4.29811 45.8551 4.30644C45.8413 4.31476 45.8256 4.31912 45.8096 4.31907ZM42.8733 3.76754C43.2733 3.79084 44.0643 3.88212 45.6353 4.10157C45.483 3.81221 45.1398 3.17717 44.67 2.38483C43.6899 3.16163 43.1669 3.56363 42.8788 3.76754H42.8733Z" fill="#272727"/>
<path d="M17.0657 38.8578L15.9829 36.9469L17.4823 35.5137L17.0657 38.8578Z" fill="#272727"/>
<path d="M17.0656 38.955C17.0498 38.9547 17.0344 38.9503 17.0206 38.9422C17.0068 38.934 16.9952 38.9224 16.9867 38.9084L15.9039 36.9974C15.893 36.978 15.8889 36.9551 15.8922 36.9327C15.8956 36.9104 15.9062 36.89 15.9223 36.8751L17.4198 35.4419C17.4338 35.4285 17.4514 35.42 17.4701 35.4176C17.4888 35.4152 17.5078 35.4189 17.5244 35.4283C17.5408 35.4378 17.5541 35.4524 17.5627 35.47C17.5712 35.4877 17.5745 35.5076 17.5721 35.5273L17.1574 38.8656C17.155 38.886 17.1467 38.905 17.1335 38.92C17.1203 38.935 17.103 38.9452 17.084 38.9491L17.0656 38.955ZM16.1003 36.9663L17.0179 38.5685L17.3666 35.7623L16.1003 36.9663Z" fill="#272727"/>
<path d="M17.7681 39.254L35.2029 41.8816C35.5605 41.9317 35.9233 41.8452 36.226 41.6377C36.5288 41.4301 36.7517 41.1152 36.8547 40.7494L45.8767 5.03572C46.0602 4.29582 45.6143 3.64524 44.8747 3.58115L27.0967 2.06444C26.7452 2.04617 26.3982 2.15342 26.1113 2.36897C25.8244 2.58451 25.6143 2.89584 25.5147 3.25295L16.8578 37.7859C16.8129 37.9461 16.8016 38.1148 16.8246 38.2802C16.8476 38.4456 16.9044 38.6037 16.991 38.7435C17.0777 38.8832 17.1921 39.0013 17.3263 39.0895C17.4605 39.1777 17.6113 39.2338 17.7681 39.254Z" fill="#272727"/>
<path d="M35.3964 42C35.3258 41.9996 35.2553 41.9944 35.1853 41.9844L17.7505 39.355C17.5819 39.333 17.4197 39.2729 17.275 39.1788C17.1303 39.0846 17.0064 38.9586 16.9118 38.8093C16.8178 38.6558 16.7558 38.4828 16.7302 38.3019C16.7046 38.1211 16.7158 37.9365 16.7632 37.7606L25.42 3.23347C25.5259 2.85417 25.7488 2.52334 26.0532 2.29382C26.3576 2.06431 26.7259 1.94934 27.0993 1.96728L44.8773 3.48399C45.0575 3.49535 45.2331 3.54857 45.3917 3.63986C45.5503 3.73116 45.688 3.85828 45.7949 4.01222C45.8932 4.16359 45.9584 4.33628 45.9857 4.5177C46.013 4.69911 46.0018 4.88469 45.9527 5.06091L36.9307 40.7746C36.8325 41.1257 36.6305 41.4342 36.3543 41.6547C36.0781 41.8753 35.7424 41.9963 35.3964 42ZM17.7781 39.1627L35.2129 41.7922C35.549 41.8396 35.8902 41.7588 36.175 41.5641C36.4599 41.3694 36.6699 41.0736 36.7673 40.7299L45.782 5.01818C45.8246 4.86937 45.835 4.71235 45.8124 4.55873C45.7898 4.40511 45.7349 4.25882 45.6517 4.13068C45.5599 3.9988 45.4414 3.89026 45.3049 3.81299C45.1683 3.73572 45.0172 3.69166 44.8626 3.68402L27.0846 2.16148C26.7541 2.14311 26.4275 2.2434 26.1577 2.44609C25.8879 2.64878 25.6906 2.94197 25.598 3.27814L16.9467 37.8111C16.9057 37.9603 16.8955 38.1171 16.9167 38.2709C16.9379 38.4247 16.9901 38.5718 17.0697 38.7024C17.1505 38.8284 17.2558 38.9347 17.3786 39.0141C17.5015 39.0935 17.6389 39.1441 17.7817 39.1627H17.7781Z" fill="#272727"/>
<path d="M16.6348 37.2894L34.0696 39.917C34.4271 39.9663 34.7895 39.8795 35.092 39.6721C35.3946 39.4646 35.6176 39.1502 35.7213 38.7848L44.7415 3.07113C44.9251 2.33123 44.4791 1.68065 43.7395 1.61656L25.9578 0.0998508C25.6062 0.0818265 25.259 0.189141 24.9719 0.404619C24.6847 0.620097 24.4742 0.93128 24.374 1.28836L15.7226 35.8155C15.6768 35.9762 15.6647 36.1457 15.6874 36.3119C15.7101 36.4781 15.7669 36.6371 15.8538 36.7776C15.9407 36.9181 16.0557 37.0367 16.1906 37.1251C16.3256 37.2136 16.4772 37.2697 16.6348 37.2894Z" fill="#FCFCFC"/>
<path d="M34.2618 40.0308C34.1912 40.0305 34.1207 40.0253 34.0507 40.0153L16.6159 37.3858C16.4473 37.3639 16.2851 37.3038 16.1404 37.2096C15.9957 37.1154 15.8718 36.9894 15.7772 36.8401C15.683 36.6867 15.6211 36.5137 15.5954 36.3328C15.5698 36.1519 15.5811 35.9673 15.6286 35.7914L24.2872 1.26432C24.3932 0.88538 24.6163 0.555029 24.9208 0.326163C25.2252 0.0972977 25.5934 -0.0168445 25.9665 0.00201157L43.7408 1.51872C43.9226 1.52882 44.1 1.58143 44.2602 1.67277C44.4205 1.7641 44.5596 1.8919 44.6676 2.04695C44.7655 2.19856 44.8304 2.37124 44.8577 2.55256C44.885 2.73389 44.874 2.91936 44.8255 3.09564L35.8034 38.8093C35.7042 39.1609 35.5008 39.4695 35.2232 39.6894C34.9456 39.9094 34.6086 40.0291 34.2618 40.0308ZM25.8509 0.192329C25.5386 0.20148 25.2371 0.314743 24.9892 0.515963C24.7414 0.717183 24.5599 0.99608 24.4708 1.31287L15.8121 35.84C15.7711 35.9892 15.7609 36.146 15.7821 36.2998C15.8033 36.4536 15.8554 36.6007 15.935 36.7313C16.0159 36.8573 16.1212 36.9636 16.244 37.043C16.3668 37.1224 16.5043 37.173 16.6471 37.1916L34.0819 39.8211C34.4172 39.8671 34.757 39.7855 35.0407 39.5909C35.3245 39.3963 35.5336 39.1014 35.6309 38.7588L44.6474 3.04709C44.6896 2.89823 44.6997 2.74129 44.6772 2.58774C44.6546 2.43418 44.6 2.2879 44.5171 2.15959C44.4251 2.02746 44.3063 1.91877 44.1694 1.84149C44.0326 1.76421 43.8811 1.72028 43.7261 1.71293L25.95 0.196213L25.8509 0.192329Z" fill="#272727"/>
<path d="M43.0148 5.42027L24.8146 3.75208L17.8315 31.6122L35.7656 34.1349L43.0148 5.42027Z" fill="#1F8D35"/>
<path d="M35.0312 30.2955C35.0137 30.2956 34.9966 30.2903 34.982 30.2803C34.9673 30.2703 34.9557 30.256 34.9486 30.2392L31.2781 22.0264C31.2728 22.0148 31.2698 22.0022 31.2692 21.9894C31.2685 21.9765 31.2703 21.9637 31.2744 21.9516C31.2785 21.9395 31.2848 21.9284 31.293 21.9189C31.3012 21.9094 31.3111 21.9017 31.3221 21.8963C31.3441 21.8856 31.3691 21.8846 31.3917 21.8933C31.4144 21.902 31.4329 21.9198 31.4433 21.9429L35.1138 30.1576C35.119 30.1691 35.122 30.1815 35.1226 30.1942C35.1232 30.2069 35.1214 30.2196 35.1173 30.2315C35.1132 30.2435 35.1069 30.2544 35.0987 30.2638C35.0905 30.2731 35.0807 30.2806 35.0697 30.2858C35.0576 30.2917 35.0445 30.295 35.0312 30.2955Z" fill="#FCFCFC"/>
<path d="M23.8377 37.081L27.2403 37.5878C27.4564 37.616 27.6749 37.5619 27.8568 37.4352C28.0387 37.3086 28.1721 37.1176 28.2331 36.8965L28.5708 35.5546C28.5991 35.4526 28.6058 35.3454 28.5905 35.2404C28.5751 35.1355 28.5381 35.0354 28.482 34.9473C28.4259 34.8592 28.3522 34.7853 28.266 34.7308C28.1799 34.6764 28.0834 34.6426 27.9835 34.6321L24.5773 34.1427C24.3633 34.118 24.1478 34.1737 23.9687 34.3C23.7895 34.4264 23.6581 34.6155 23.5973 34.8341L23.2615 36.1643C23.2332 36.265 23.2262 36.3711 23.2409 36.4749C23.2556 36.5788 23.2918 36.678 23.3468 36.7654C23.4017 36.8529 23.4742 36.9265 23.5591 36.981C23.6439 37.0356 23.739 37.0697 23.8377 37.081Z" fill="#FCFCFC"/>
<path d="M27.3542 37.7003C27.3118 37.701 27.2694 37.6977 27.2276 37.6906L23.825 37.1857C23.7135 37.1721 23.6062 37.1329 23.5105 37.0708C23.4149 37.0088 23.3332 36.9254 23.2711 36.8264C23.2091 36.7275 23.1682 36.6154 23.1513 36.498C23.1345 36.3806 23.142 36.2607 23.1735 36.1467L23.5075 34.8164C23.5743 34.5749 23.7196 34.3661 23.9177 34.2268C24.1158 34.0875 24.354 34.0267 24.5903 34.0552L27.9965 34.5426C28.1098 34.5568 28.2189 34.5965 28.3164 34.6592C28.414 34.7219 28.4976 34.8059 28.5618 34.9058C28.623 35.0055 28.6634 35.1179 28.6802 35.2355C28.6969 35.353 28.6897 35.473 28.659 35.5874L28.325 36.9235C28.2641 37.1465 28.1366 37.3426 27.9616 37.4826C27.7866 37.6226 27.5735 37.699 27.3542 37.7003ZM23.8507 36.9934L27.2532 37.4984C27.4469 37.5233 27.6426 37.4747 27.8056 37.3613C27.9686 37.2479 28.0883 37.0769 28.1433 36.8789L28.4829 35.5369C28.5063 35.449 28.5119 35.3568 28.4993 35.2664C28.4866 35.1761 28.456 35.0895 28.4095 35.0126C28.3594 34.9362 28.2945 34.872 28.2192 34.8241C28.144 34.7762 28.0599 34.7458 27.9727 34.7349L24.5646 34.2474C24.3728 34.2241 24.1793 34.2733 24.0185 34.3863C23.8576 34.4993 23.7397 34.6689 23.6855 34.865L23.3515 36.1972C23.3264 36.2846 23.3199 36.3767 23.3324 36.4671C23.3449 36.5574 23.3761 36.6437 23.4238 36.7198C23.4715 36.7959 23.5345 36.8599 23.6083 36.9072C23.6821 36.9545 23.7649 36.9839 23.8507 36.9934Z" fill="#E6E7E8"/>
<path d="M37.6298 3.02576L32.4306 2.5655C32.4185 2.56436 32.4068 2.56071 32.3961 2.55477C32.3853 2.54883 32.3758 2.54071 32.3681 2.53088C32.3603 2.52106 32.3545 2.50971 32.3509 2.49749C32.3473 2.48527 32.346 2.47242 32.3471 2.45966C32.3481 2.44691 32.3516 2.43451 32.3572 2.42317C32.3628 2.41183 32.3705 2.40177 32.3798 2.39356C32.3891 2.38536 32.3998 2.37917 32.4113 2.37535C32.4229 2.37153 32.435 2.37016 32.4471 2.3713L37.6445 2.82962C37.6688 2.82962 37.6921 2.83985 37.7094 2.85806C37.7266 2.87627 37.7362 2.90097 37.7362 2.92672C37.7362 2.95247 37.7266 2.97717 37.7094 2.99538C37.6921 3.01359 37.6688 3.02382 37.6445 3.02382L37.6298 3.02576Z" fill="#D1D3D4"/>
<path d="M31.7092 2.50137L31.0191 2.44117C31.0071 2.4402 30.9954 2.43669 30.9847 2.43086C30.9741 2.42503 30.9646 2.41698 30.9569 2.4072C30.9492 2.39742 30.9434 2.38611 30.9399 2.37393C30.9364 2.36175 30.9353 2.34896 30.9365 2.3363C30.9389 2.31071 30.9505 2.28708 30.969 2.27041C30.9875 2.25374 31.0114 2.24533 31.0356 2.24696L31.7239 2.30911C31.7482 2.30911 31.7715 2.31934 31.7887 2.33755C31.8059 2.35576 31.8156 2.38046 31.8156 2.40621C31.8156 2.43196 31.8059 2.45666 31.7887 2.47487C31.7715 2.49308 31.7482 2.50331 31.7239 2.50331L31.7092 2.50137Z" fill="#D1D3D4"/>
<path d="M36.8148 20.7932C36.8148 20.7932 39.0501 12.9941 37.1121 11.2657L27.6276 10.0577C27.6276 10.0577 26.0015 11.8502 25.7666 13.2271C25.5317 14.604 23.5643 17.5364 24.2984 19.2862L36.8148 20.7932Z" fill="#272727"/>
<path d="M36.8149 20.8902H36.8057L24.2875 19.3813C24.2717 19.3793 24.2568 19.373 24.2439 19.3632C24.2311 19.3533 24.2208 19.3402 24.2141 19.325C23.7057 18.1093 24.449 16.3556 25.0473 14.9457C25.3428 14.2505 25.5979 13.6485 25.6713 13.2096C25.908 11.8191 27.4882 10.0635 27.5561 9.98972C27.5659 9.97888 27.578 9.97061 27.5914 9.96556C27.6047 9.9605 27.619 9.9588 27.6331 9.96059L37.1177 11.1705C37.1351 11.173 37.1516 11.1804 37.1654 11.1918C39.1273 12.9396 36.9819 20.5018 36.8975 20.8223C36.8919 20.8412 36.881 20.8578 36.8662 20.8699C36.8515 20.8821 36.8335 20.8892 36.8149 20.8902ZM24.3682 19.1949L36.7488 20.6883C36.9727 19.8765 38.8061 12.9707 37.0736 11.3666L27.6625 10.1664C27.4386 10.4228 26.0658 12.023 25.8566 13.2523C25.7777 13.7145 25.5189 14.3262 25.2198 15.0331C24.6545 16.3789 23.9333 18.0588 24.3682 19.1949Z" fill="#272727"/>
<path d="M37.7103 21.0224H37.6974L21.8464 18.6687C21.8227 18.6648 21.8013 18.6513 21.7869 18.6309C21.7725 18.6106 21.7662 18.5851 21.7694 18.5599C21.7726 18.5344 21.7852 18.5113 21.8044 18.4957C21.8237 18.48 21.848 18.4731 21.8721 18.4764L37.7231 20.8301C37.7474 20.834 37.7692 20.8477 37.7839 20.8684C37.7987 20.8891 37.8052 20.9151 37.802 20.9408C37.7982 20.9636 37.7869 20.9843 37.7701 20.9992C37.7534 21.0141 37.7322 21.0223 37.7103 21.0224Z" fill="#272727"/>
<path d="M37.1119 11.2658C37.1119 11.2658 36.1502 11.4057 35.5611 13.5224C34.66 16.7617 33.4726 23.5976 32.722 26.1689C31.6209 29.9092 28.6845 30.4413 28.6845 30.4413L16.269 28.5362C16.269 28.5362 21.3215 26.6835 22.1749 23.5335C23.0723 20.2146 24.3148 13.9439 24.6506 12.5437C25.2434 10.0637 27.6329 10.0637 27.6329 10.0637L37.1119 11.2658Z" fill="#FCFCFC"/>
<path d="M28.679 30.5323H28.6662L16.2507 28.6272C16.2303 28.6239 16.2115 28.6135 16.1972 28.5977C16.183 28.5819 16.174 28.5616 16.1718 28.5398C16.1698 28.5183 16.1747 28.4966 16.1857 28.4783C16.1966 28.46 16.2131 28.4461 16.2324 28.4388C16.2838 28.4214 21.2518 26.5648 22.0813 23.5003C22.7035 21.199 23.5018 17.4354 24.0285 14.9438C24.2653 13.8271 24.4524 12.9435 24.5552 12.5143C25.159 9.9897 27.6036 9.96057 27.6274 9.96057L37.123 11.1704C37.145 11.1733 37.1654 11.1845 37.1802 11.202C37.1951 11.2195 37.2034 11.2421 37.2037 11.2656C37.2036 11.2891 37.1955 11.3117 37.1811 11.3295C37.1666 11.3472 37.1467 11.359 37.1248 11.3627C37.1101 11.3627 36.2072 11.5394 35.6566 13.5494C35.1996 15.1885 34.6729 17.7442 34.1609 20.2164C33.6617 22.638 33.1882 24.9257 32.8175 26.1978C32.2449 28.1573 31.1658 29.2312 30.3472 29.7866C29.8456 30.1422 29.2853 30.3952 28.6955 30.5323H28.679ZM16.627 28.4893L28.6772 30.3381C28.8919 30.2915 31.6136 29.6487 32.634 26.1395C33.001 24.8752 33.4763 22.5914 33.9755 20.1756C34.4857 17.6995 35.0161 15.1399 35.4731 13.495C35.8603 12.1065 36.4072 11.553 36.7578 11.318L27.6164 10.1528C27.532 10.1528 25.3022 10.1858 24.7332 12.5629C24.6323 12.9882 24.4451 13.8698 24.2084 14.9865C23.6798 17.4801 22.8815 21.2476 22.2575 23.5547C21.8079 25.2112 20.2075 26.5027 18.943 27.2931C18.2005 27.7527 17.4262 28.1526 16.627 28.4893Z" fill="#272727"/>
<path d="M31.1436 26.396H31.1326L29.4533 26.2018C29.4293 26.1988 29.4073 26.186 29.3922 26.1659C29.3771 26.1459 29.37 26.1204 29.3726 26.0949C29.3737 26.0822 29.3773 26.0699 29.383 26.0587C29.3887 26.0474 29.3965 26.0376 29.4059 26.0296C29.4154 26.0216 29.4262 26.0157 29.4378 26.0123C29.4494 26.0088 29.4616 26.0079 29.4735 26.0095L31.1546 26.2037C31.1787 26.2066 31.2007 26.2195 31.2158 26.2395C31.2309 26.2595 31.2379 26.285 31.2354 26.3105C31.2323 26.334 31.2213 26.3556 31.2045 26.3713C31.1876 26.387 31.166 26.3957 31.1436 26.396Z" fill="#D1D3D4"/>
<path d="M28.099 26.0308H28.088L23.0613 25.4269C23.0372 25.4239 23.0152 25.4111 23.0001 25.391C22.985 25.371 22.9779 25.3455 22.9805 25.32C22.9816 25.3073 22.9852 25.295 22.9909 25.2838C22.9966 25.2725 23.0044 25.2627 23.0139 25.2547C23.0233 25.2467 23.0341 25.2408 23.0457 25.2374C23.0573 25.2339 23.0695 25.233 23.0814 25.2346L28.11 25.8366C28.1343 25.8382 28.1571 25.8499 28.1733 25.8692C28.1895 25.8885 28.1977 25.9138 28.1963 25.9395C28.1948 25.9653 28.1837 25.9894 28.1655 26.0065C28.1473 26.0236 28.1233 26.0324 28.099 26.0308Z" fill="#D1D3D4"/>
<path d="M29.6427 28.4254H29.6317L28.0882 28.2312C28.0762 28.2296 28.0645 28.2256 28.054 28.2193C28.0434 28.213 28.0341 28.2046 28.0266 28.1945C28.0191 28.1844 28.0135 28.1728 28.0103 28.1604C28.007 28.1481 28.006 28.1351 28.0075 28.1224C28.0089 28.1096 28.0127 28.0973 28.0187 28.0861C28.0246 28.0749 28.0326 28.0651 28.0422 28.0572C28.0517 28.0492 28.0626 28.0433 28.0743 28.0399C28.086 28.0364 28.0982 28.0354 28.1103 28.037L29.6537 28.2312C29.6657 28.2319 29.6775 28.2352 29.6884 28.2408C29.6992 28.2464 29.709 28.2542 29.717 28.2637C29.725 28.2733 29.7311 28.2844 29.7351 28.2965C29.739 28.3086 29.7407 28.3213 29.74 28.3341C29.7392 28.3468 29.7361 28.3593 29.7309 28.3708C29.7256 28.3823 29.7182 28.3926 29.7092 28.401C29.7002 28.4095 29.6896 28.416 29.6782 28.4202C29.6668 28.4244 29.6547 28.4261 29.6427 28.4254Z" fill="#D1D3D4"/>
<path d="M26.3778 28.0331H26.3667L21.5602 27.4505C21.5359 27.4476 21.5136 27.4347 21.4983 27.4145C21.483 27.3943 21.4759 27.3684 21.4786 27.3427C21.4813 27.3169 21.4935 27.2934 21.5126 27.2772C21.5317 27.2609 21.5561 27.2534 21.5804 27.2563L26.3888 27.8389C26.4128 27.8418 26.4348 27.8547 26.4499 27.8747C26.4651 27.8947 26.4721 27.9202 26.4695 27.9457C26.4668 27.9696 26.4561 27.9916 26.4392 28.0077C26.4223 28.0237 26.4005 28.0328 26.3778 28.0331Z" fill="#D1D3D4"/>
<path d="M28.6792 30.4354C27.9529 29.7254 27.3944 28.8448 27.0485 27.8646C26.7027 26.8843 26.5792 25.8319 26.6879 24.7919L13.6577 22.3042C13.6577 22.3042 14.7754 26.9204 16.2619 28.5303L28.6792 30.4354Z" fill="#FCFCFC"/>
<path d="M28.6793 30.5325H28.6664L16.251 28.6273C16.2309 28.6237 16.2123 28.6135 16.1978 28.5982C14.7112 26.9883 13.6156 22.5178 13.5697 22.3274C13.5659 22.3118 13.566 22.2954 13.5698 22.2798C13.5737 22.2641 13.5812 22.2498 13.5917 22.2381C13.6021 22.2257 13.6154 22.2164 13.6301 22.211C13.6449 22.2055 13.6608 22.2042 13.6762 22.207L26.7064 24.6948C26.7289 24.6999 26.7488 24.7136 26.7624 24.7333C26.7759 24.753 26.7821 24.7773 26.7798 24.8016C26.6769 25.8257 26.8004 26.8611 27.1406 27.826C27.4807 28.7909 28.0282 29.659 28.7398 30.3616C28.7552 30.3738 28.7664 30.391 28.7718 30.4105C28.7772 30.43 28.7766 30.4508 28.7701 30.4699C28.7635 30.489 28.7513 30.5054 28.7353 30.5167C28.7193 30.5279 28.7003 30.5335 28.6811 30.5325H28.6793ZM16.3079 28.439L28.4058 30.2955C27.7495 29.5848 27.2469 28.7317 26.9328 27.7951C26.6188 26.8586 26.5008 25.861 26.5871 24.8715L13.7844 22.4265C13.99 23.2208 15.0141 27.0077 16.3079 28.439Z" fill="#272727"/>
<path d="M33.8398 14.2933H33.8306L25.7556 13.3223C25.7434 13.3211 25.7315 13.3173 25.7208 13.3111C25.71 13.3049 25.7006 13.2965 25.693 13.2863C25.6855 13.2761 25.68 13.2644 25.6768 13.2519C25.6737 13.2394 25.673 13.2263 25.6748 13.2135C25.6776 13.1881 25.6897 13.1648 25.7086 13.1488C25.7275 13.1328 25.7517 13.1253 25.7757 13.1281L33.8508 14.0991C33.8751 14.1004 33.898 14.1118 33.9143 14.1309C33.9307 14.1501 33.9392 14.1753 33.938 14.201C33.9368 14.2268 33.9259 14.251 33.9079 14.2683C33.8898 14.2856 33.866 14.2946 33.8416 14.2933H33.8398Z" fill="#D1D3D4"/>
<path d="M33.5019 16.4916H33.4909L31.975 16.3091C31.9629 16.3076 31.9513 16.3035 31.9407 16.2972C31.9301 16.2909 31.9208 16.2825 31.9133 16.2724C31.9058 16.2623 31.9003 16.2508 31.897 16.2384C31.8937 16.226 31.8928 16.2131 31.8942 16.2003C31.8957 16.1876 31.8995 16.1753 31.9054 16.1641C31.9114 16.1529 31.9193 16.143 31.9289 16.1351C31.9384 16.1272 31.9493 16.1213 31.961 16.1178C31.9727 16.1144 31.9849 16.1134 31.997 16.1149L33.5111 16.2955C33.5231 16.2961 33.5349 16.2993 33.5458 16.3047C33.5567 16.3102 33.5665 16.3179 33.5746 16.3274C33.5827 16.3368 33.5889 16.3479 33.593 16.3599C33.5971 16.3719 33.5988 16.3847 33.5982 16.3975C33.5976 16.4102 33.5947 16.4227 33.5895 16.4342C33.5843 16.4458 33.5771 16.4561 33.5681 16.4647C33.5592 16.4733 33.5487 16.4799 33.5373 16.4842C33.526 16.4885 33.5139 16.4903 33.5019 16.4897V16.4916Z" fill="#D1D3D4"/>
<path d="M30.2886 16.1052L25.4289 15.5226C25.4046 15.5198 25.3823 15.5068 25.367 15.4866C25.3517 15.4664 25.3446 15.4406 25.3472 15.4148C25.3499 15.3891 25.3621 15.3655 25.3812 15.3493C25.4004 15.3331 25.4248 15.3256 25.4491 15.3284L30.3088 15.911C30.3209 15.9118 30.3327 15.915 30.3435 15.9206C30.3544 15.9262 30.3641 15.934 30.3721 15.9436C30.3801 15.9531 30.3863 15.9643 30.3902 15.9763C30.3941 15.9884 30.3958 16.0012 30.3951 16.0139C30.3944 16.0267 30.3913 16.0392 30.386 16.0507C30.3807 16.0621 30.3733 16.0724 30.3643 16.0809C30.3553 16.0894 30.3448 16.0959 30.3333 16.1001C30.3219 16.1042 30.3099 16.106 30.2978 16.1052H30.2886Z" fill="#D1D3D4"/>
<path d="M33.0031 18.5405H32.9921L30.4944 18.2415C30.4702 18.2381 30.4482 18.2248 30.4331 18.2045C30.418 18.1842 30.411 18.1584 30.4136 18.1327C30.4168 18.1071 30.4294 18.0838 30.4486 18.0679C30.4678 18.0519 30.4921 18.0445 30.5164 18.0473L33.0123 18.3483C33.0243 18.3495 33.036 18.3532 33.0466 18.3593C33.0572 18.3653 33.0666 18.3736 33.0741 18.3836C33.0816 18.3935 33.0872 18.405 33.0905 18.4173C33.0937 18.4296 33.0946 18.4424 33.0931 18.4551C33.0904 18.4784 33.0798 18.5 33.0633 18.5157C33.0467 18.5314 33.0254 18.5402 33.0031 18.5405Z" fill="#D1D3D4"/>
<path d="M28.0992 17.952H28.0882L24.9206 17.5636C24.9085 17.5622 24.8969 17.5583 24.8863 17.5521C24.8756 17.546 24.8663 17.5376 24.8587 17.5276C24.8511 17.5176 24.8454 17.5061 24.8421 17.4938C24.8387 17.4815 24.8376 17.4686 24.8389 17.4558C24.8403 17.4431 24.8439 17.4307 24.8498 17.4195C24.8556 17.4083 24.8635 17.3983 24.8729 17.3903C24.8824 17.3823 24.8933 17.3763 24.9049 17.3727C24.9165 17.3691 24.9287 17.368 24.9408 17.3694L28.1102 17.7481C28.1345 17.7515 28.1564 17.7648 28.1715 17.7851C28.1866 17.8054 28.1936 17.8312 28.191 17.8569C28.1901 17.8821 28.18 17.906 28.163 17.9237C28.1459 17.9414 28.1231 17.9515 28.0992 17.952Z" fill="#D1D3D4"/>
<path d="M32.5772 20.4805H32.5662L30.4831 20.2222C30.4589 20.2188 30.4369 20.2056 30.4219 20.1853C30.4068 20.1649 30.3998 20.1392 30.4024 20.1135C30.406 20.0881 30.4187 20.0651 30.4378 20.0492C30.4569 20.0334 30.481 20.0258 30.5052 20.028L32.5863 20.2786C32.6107 20.2798 32.6335 20.2913 32.6499 20.3104C32.6662 20.3296 32.6747 20.3548 32.6735 20.3805C32.6723 20.4063 32.6615 20.4305 32.6434 20.4478C32.6253 20.4651 32.6015 20.4741 32.5772 20.4728V20.4805Z" fill="#D1D3D4"/>
<path d="M28.2717 19.9639H28.2606L24.4929 19.5114C24.4688 19.5085 24.4469 19.4956 24.4317 19.4756C24.4166 19.4556 24.4096 19.4301 24.4121 19.4046C24.4154 19.379 24.4279 19.3557 24.4471 19.3398C24.4663 19.3238 24.4906 19.3164 24.5149 19.3192L28.2808 19.7717C28.3052 19.7717 28.3285 19.7819 28.3457 19.8001C28.3629 19.8183 28.3726 19.843 28.3726 19.8688C28.3726 19.8945 28.3629 19.9192 28.3457 19.9374C28.3285 19.9556 28.3052 19.9659 28.2808 19.9659L28.2717 19.9639Z" fill="#D1D3D4"/>
<path d="M32.1344 22.6284L30.2864 22.407C30.2623 22.4041 30.2403 22.3912 30.2252 22.3712C30.2101 22.3512 30.203 22.3257 30.2056 22.3002C30.2067 22.2875 30.2103 22.2752 30.216 22.2639C30.2217 22.2527 30.2295 22.2428 30.239 22.2348C30.2484 22.2269 30.2592 22.221 30.2708 22.2175C30.2824 22.2141 30.2946 22.2131 30.3065 22.2148L32.1546 22.4361C32.179 22.4377 32.2017 22.4494 32.2179 22.4687C32.2341 22.488 32.2423 22.5133 32.2409 22.5391C32.2394 22.5648 32.2284 22.5889 32.2101 22.606C32.1919 22.6231 32.168 22.6319 32.1436 22.6304L32.1344 22.6284Z" fill="#D1D3D4"/>
<path d="M29.1342 22.2692H29.1232L24.0525 21.6594C24.0284 21.6565 24.0064 21.6436 23.9913 21.6236C23.9762 21.6036 23.9691 21.5781 23.9717 21.5526C23.9728 21.5399 23.9764 21.5275 23.9821 21.5163C23.9878 21.5051 23.9956 21.4952 24.0051 21.4872C24.0145 21.4792 24.0253 21.4734 24.0369 21.4699C24.0485 21.4665 24.0607 21.4655 24.0727 21.4671L29.1434 22.075C29.1678 22.0763 29.1906 22.0877 29.207 22.1069C29.2233 22.126 29.2318 22.1512 29.2306 22.1769C29.2294 22.2027 29.2185 22.2269 29.2005 22.2442C29.1824 22.2615 29.1586 22.2705 29.1342 22.2692Z" fill="#D1D3D4"/>
<path d="M31.6686 24.3666H31.6576L29.4553 24.1025C29.4312 24.0995 29.4093 24.0867 29.3941 24.0666C29.379 24.0466 29.372 24.0211 29.3745 23.9956C29.3757 23.9829 29.3792 23.9706 29.3849 23.9594C29.3907 23.9481 29.3985 23.9382 29.4079 23.9303C29.4173 23.9223 29.4282 23.9164 29.4398 23.913C29.4514 23.9095 29.4635 23.9086 29.4755 23.9102L31.6778 24.1743C31.7021 24.1759 31.7249 24.1876 31.741 24.2069C31.7572 24.2262 31.7655 24.2515 31.764 24.2772C31.7626 24.303 31.7515 24.3271 31.7333 24.3442C31.715 24.3613 31.6911 24.3701 31.6668 24.3685L31.6686 24.3666Z" fill="#D1D3D4"/>
<path d="M28.4698 23.9839L23.5954 23.4013C23.5711 23.3985 23.5488 23.3856 23.5335 23.3653C23.5182 23.3451 23.5111 23.3193 23.5137 23.2936C23.5164 23.2678 23.5286 23.2442 23.5478 23.228C23.5669 23.2118 23.5913 23.2043 23.6156 23.2071L28.49 23.7897C28.5143 23.7913 28.5371 23.803 28.5533 23.8223C28.5695 23.8416 28.5777 23.8669 28.5763 23.8927C28.5748 23.9184 28.5637 23.9425 28.5455 23.9596C28.5273 23.9767 28.5033 23.9855 28.479 23.9839H28.4698Z" fill="#D1D3D4"/>
<path d="M3.12262 11.3636L7.33557 20.9457C7.68446 21.7392 8.57519 22.0832 9.32509 21.714L23.2209 14.8729C23.9708 14.5038 24.2959 13.5612 23.947 12.7677L19.7341 3.18553C19.3852 2.39201 18.4944 2.04802 17.7445 2.4172L3.84871 9.25829C3.09882 9.62748 2.77373 10.57 3.12262 11.3636Z" fill="#FCFCFC"/>
<path d="M8.69725 21.9701C8.39436 21.9705 8.09767 21.8794 7.8421 21.7073C7.58654 21.5353 7.38276 21.2896 7.25475 20.9991L3.03369 11.4172C2.85617 11.0129 2.83765 10.5505 2.98219 10.1317C3.12673 9.7129 3.4225 9.37199 3.80449 9.18388L17.701 2.34216C18.0831 2.15432 18.52 2.13472 18.9158 2.28767C19.3115 2.44061 19.6337 2.75359 19.8115 3.1578L24.0234 12.7397C24.1116 12.9398 24.1616 13.1562 24.1707 13.3768C24.1798 13.5973 24.1477 13.8176 24.0763 14.025C24.0049 14.2324 23.8956 14.4229 23.7545 14.5856C23.6135 14.7482 23.4435 14.8799 23.2544 14.973L9.35794 21.8147C9.15091 21.9165 8.9255 21.9695 8.69725 21.9701ZM18.3763 2.3674C18.1722 2.36755 17.9706 2.41459 17.7854 2.50529L3.88891 9.34701C3.55129 9.51358 3.28995 9.81513 3.16229 10.1854C3.03462 10.5558 3.05108 10.9645 3.20803 11.322L7.42909 20.9059C7.58687 21.2633 7.87219 21.5399 8.22244 21.6749C8.57269 21.81 8.95927 21.7925 9.29737 21.6264L23.1865 14.7846C23.5241 14.6181 23.7855 14.3165 23.9131 13.9462C24.0408 13.5759 24.0243 13.1671 23.8674 12.8096L19.6463 3.22577C19.5333 2.97005 19.3539 2.75358 19.129 2.60161C18.9042 2.44964 18.6431 2.36841 18.3763 2.3674Z" fill="#272727"/>
<path d="M15.2772 7.00416L16.3401 9.42171C16.5924 9.99546 17.2364 10.2442 17.7786 9.97725L19.396 9.18099C19.9382 8.91406 20.1733 8.23255 19.921 7.6588L18.8581 5.24125C18.6058 4.66751 17.9618 4.41878 17.4196 4.68572L15.8022 5.48198C15.26 5.74891 15.0249 6.43042 15.2772 7.00416Z" fill="#1F8D35"/>
<path d="M5.32226 10.6407C4.98867 10.805 4.84405 11.2243 4.99926 11.5773C5.15446 11.9303 5.5507 12.0833 5.8843 11.9191L8.99758 10.3863C9.33117 10.2221 9.47579 9.80282 9.32058 9.44982C9.16538 9.09682 8.76914 8.94379 8.43555 9.10803L5.32226 10.6407Z" fill="#D1D3D4"/>
<path d="M18.7658 13.205L19.0639 13.8829C19.1421 14.0608 19.3419 14.138 19.5101 14.0552L21.8529 12.9017C22.0211 12.8189 22.094 12.6076 22.0158 12.4296L21.7177 11.7517C21.6395 11.5738 21.4397 11.4966 21.2716 11.5794L18.9287 12.7328C18.7605 12.8156 18.6876 13.027 18.7658 13.205Z" fill="#D1D3D4"/>
<path d="M15.1902 14.9674L15.4882 15.6453C15.5665 15.8233 15.7662 15.9004 15.9344 15.8176L18.2773 14.6642C18.4454 14.5814 18.5183 14.37 18.4401 14.1921L18.142 13.5142C18.0638 13.3362 17.864 13.259 17.6959 13.3418L15.353 14.4953C15.1848 14.5781 15.1119 14.7894 15.1902 14.9674Z" fill="#D1D3D4"/>
<path d="M11.6116 16.7268L11.9096 17.4047C11.9878 17.5827 12.1876 17.6598 12.3558 17.577L14.6986 16.4236C14.8668 16.3408 14.9397 16.1294 14.8615 15.9515L14.5634 15.2736C14.4852 15.0956 14.2854 15.0185 14.1173 15.1012L11.7744 16.2547C11.6062 16.3375 11.5333 16.5488 11.6116 16.7268Z" fill="#D1D3D4"/>
<path d="M8.03538 18.4873L8.33343 19.1652C8.41167 19.3432 8.61143 19.4203 8.7796 19.3375L11.1225 18.1841C11.2906 18.1013 11.3636 17.8899 11.2853 17.712L10.9873 17.0341C10.909 16.8561 10.7093 16.7789 10.5411 16.8617L8.19821 18.0152C8.03004 18.098 7.95714 18.3093 8.03538 18.4873Z" fill="#D1D3D4"/>
<path d="M34.1293 9.73546C34.1139 9.73561 34.0987 9.73159 34.0852 9.72377C34.0718 9.71595 34.0604 9.70459 34.0522 9.69079L31.5912 5.61256C31.5795 5.59096 31.5761 5.56546 31.5817 5.54132C31.5873 5.51717 31.6015 5.49621 31.6212 5.48277C31.641 5.46932 31.6649 5.46441 31.688 5.46905C31.7111 5.47369 31.7316 5.48752 31.7453 5.50769L34.2064 9.58592C34.2195 9.60757 34.2239 9.63383 34.2188 9.65894C34.2136 9.68406 34.1993 9.70599 34.1788 9.71992C34.1643 9.73058 34.147 9.73602 34.1293 9.73546Z" fill="#FCFCFC"/>
<path d="M26.6874 8.55072C26.6705 8.55072 26.6538 8.54585 26.6393 8.53661C26.6247 8.52737 26.6128 8.51413 26.6048 8.49829L25.3477 5.929C25.342 5.91782 25.3385 5.90554 25.3373 5.89289C25.3362 5.88023 25.3374 5.86747 25.341 5.85534C25.3446 5.84321 25.3505 5.83197 25.3582 5.82227C25.366 5.81258 25.3755 5.80463 25.3862 5.79889C25.397 5.79281 25.4087 5.78904 25.4208 5.7878C25.4329 5.78657 25.4451 5.78788 25.4567 5.79168C25.4683 5.79547 25.4791 5.80167 25.4884 5.80991C25.4978 5.81814 25.5054 5.82826 25.511 5.83967L26.7682 8.40896C26.7793 8.43194 26.7815 8.45861 26.7743 8.48327C26.7671 8.50794 26.7511 8.52866 26.7296 8.54101C26.7162 8.54682 26.7019 8.55011 26.6874 8.55072Z" fill="#FCFCFC"/>
<path d="M6.18656 23.6072L5.41759 24.5413C4.92758 25.1899 3.36946 24.7355 1.94164 23.5217C0.513823 22.308 -0.249637 20.8048 0.245878 20.1543L1.01668 19.2202L6.18656 23.6072Z" fill="#FCFCFC"/>
<path d="M4.69069 24.9356C3.95659 24.9356 2.89765 24.4559 1.88277 23.5976C1.23863 23.0717 0.697544 22.418 0.289775 21.673C-0.0497447 20.9992 -0.0919546 20.4399 0.16865 20.0942L0.941287 19.1562C0.95689 19.1373 0.978785 19.1256 1.00239 19.1234C1.02599 19.1212 1.04947 19.1288 1.06792 19.1445L6.2433 23.5238C6.25324 23.5315 6.26149 23.5414 6.2675 23.5528C6.27352 23.5642 6.27716 23.5768 6.27817 23.5898C6.28018 23.6165 6.27228 23.643 6.25615 23.6636L5.48535 24.5977C5.38613 24.7146 5.2629 24.8058 5.12513 24.8644C4.98737 24.923 4.83874 24.9473 4.69069 24.9356ZM1.0202 19.3543L0.309963 20.2224C0.102581 20.4962 0.153968 20.9992 0.451277 21.5818C0.847095 22.3046 1.37266 22.9386 1.99839 23.448C3.36197 24.6132 4.8944 25.0774 5.34587 24.4831L6.05427 23.6209L1.0202 19.3543Z" fill="#272727"/>
<path d="M6.18603 23.6056C6.67643 22.9577 5.91507 21.4503 4.48549 20.2388C3.0559 19.0272 1.49945 18.5704 1.00904 19.2184C0.518642 19.8663 1.28 21.3737 2.70959 22.5852C4.13917 23.7967 5.69563 24.2536 6.18603 23.6056Z" fill="#FCFCFC"/>
<path d="M5.45989 23.9995C4.72579 23.9995 3.66502 23.5198 2.6538 22.6634C2.00865 22.1381 1.46686 21.4843 1.05897 20.7389C0.719452 20.065 0.677241 19.5057 0.939681 19.16C1.20029 18.8143 1.727 18.7347 2.42072 18.9386C3.19727 19.1966 3.91861 19.6129 4.5441 20.164C6.03616 21.4283 6.78861 22.9664 6.25822 23.6597C6.15853 23.7771 6.03474 23.8688 5.89635 23.9277C5.75796 23.9866 5.60865 24.0112 5.45989 23.9995ZM1.73618 19.0241C1.61607 19.0121 1.49494 19.0289 1.38182 19.0732C1.2687 19.1176 1.1665 19.1884 1.08283 19.2804C0.871776 19.5581 0.923164 20.0572 1.22231 20.6398C1.61759 21.3625 2.14252 21.9965 2.76758 22.5061C4.13117 23.6713 5.66544 24.1355 6.11507 23.5412C6.56471 22.947 5.7939 21.4652 4.42848 20.3097C3.82282 19.7749 3.12384 19.3711 2.37117 19.1212C2.16468 19.0584 1.95103 19.0257 1.73618 19.0241Z" fill="#272727"/>
<path d="M12.1529 33.4609L12.6025 34.6048C12.9329 35.3583 11.8556 36.6303 10.1965 37.4498C8.53745 38.2694 6.92244 38.3199 6.59026 37.5683L6.14062 36.4225L12.1529 33.4609Z" fill="#FCFCFC"/>
<path d="M7.79375 38.1996C7.15325 38.1996 6.67976 38.0054 6.50908 37.617L6.05761 36.4693C6.04871 36.446 6.0485 36.42 6.05702 36.3966C6.06554 36.3731 6.08215 36.354 6.10349 36.343L12.1157 33.3814C12.127 33.3761 12.1392 33.3734 12.1515 33.3734C12.1639 33.3734 12.1761 33.3761 12.1873 33.3814C12.1989 33.3864 12.2094 33.3938 12.2182 33.4031C12.227 33.4125 12.234 33.4236 12.2387 33.4358L12.6883 34.5797C13.0444 35.3895 11.9689 36.6945 10.2365 37.549C9.47405 37.9439 8.64197 38.1655 7.79375 38.1996ZM6.25949 36.4712L6.67425 37.5296C6.97707 38.2171 8.57189 38.1413 10.1612 37.3606C11.7505 36.58 12.826 35.3371 12.5213 34.6418L12.1084 33.5873L6.25949 36.4712Z" fill="#272727"/>
<path d="M9.74466 36.3056C11.405 35.4875 12.4825 34.2142 12.1513 33.4616C11.8202 32.709 10.2057 32.7622 8.54537 33.5804C6.88503 34.3985 5.80753 35.6718 6.13871 36.4244C6.46988 37.1769 8.08432 37.1238 9.74466 36.3056Z" fill="#FCFCFC"/>
<path d="M7.3389 37.0517C6.67821 37.0517 6.22491 36.8458 6.05423 36.4691C5.68718 35.6573 6.77181 34.3504 8.50428 33.4978C10.2368 32.6453 11.8738 32.6123 12.2317 33.426C12.5895 34.2397 11.5141 35.5447 9.78161 36.3992C9.04995 36.7767 8.25578 36.9996 7.44351 37.0556L7.3389 37.0517ZM10.9598 33.0395C10.1351 33.0754 9.32636 33.2923 8.58503 33.6765C7.00122 34.4533 5.92026 35.7001 6.22307 36.3953C6.36622 36.7177 6.81402 36.8886 7.44167 36.8692C8.22939 36.815 8.99942 36.5979 9.7082 36.2302C11.292 35.4534 12.373 34.2066 12.0683 33.5114C11.9288 33.1851 11.5178 33.0395 10.9598 33.0395Z" fill="#272727"/>
<path d="M7.75757 26.3143C7.10422 27.4659 7.83648 30.0178 7.83648 30.0178L8.80365 30.7635C9.14842 30.9829 9.53065 31.1284 9.92853 31.1915C10.3264 31.2547 10.7321 31.2343 11.1226 31.1315C11.513 31.0287 11.8805 30.8455 12.204 30.5924C12.5275 30.3394 12.8008 30.0214 13.0082 29.6565C13.2156 29.2917 13.353 28.8872 13.4127 28.4662C13.4724 28.0452 13.4531 27.6158 13.3559 27.2027C13.2588 26.7896 13.0857 26.4007 12.8466 26.0584C12.6074 25.716 12.3069 25.4268 11.9621 25.2074L10.8903 24.65C10.8903 24.65 8.41091 25.1647 7.75757 26.3143Z" fill="#FCFCFC"/>
<path d="M10.3759 31.3247C9.80544 31.3237 9.24593 31.1585 8.75726 30.847L7.78091 30.0974C7.76512 30.0847 7.75355 30.067 7.74787 30.0469C7.71667 29.9401 7.01378 27.4387 7.67813 26.2638C8.34616 25.0986 10.765 24.5762 10.8678 24.5548C10.8864 24.5492 10.9061 24.5492 10.9247 24.5548L12.0001 25.1122C12.5922 25.488 13.0515 26.0588 13.3077 26.7373C13.5639 27.4157 13.6028 28.1643 13.4185 28.8683C13.2342 29.5724 12.8368 30.1931 12.2873 30.6354C11.7378 31.0776 11.0664 31.3171 10.3759 31.317V31.3247ZM7.91488 29.9653L8.8582 30.6897C9.53356 31.1166 10.3413 31.2427 11.1044 31.0402C11.8675 30.8378 12.5236 30.3235 12.9288 29.6099C13.3339 28.8953 13.4546 28.0398 13.2644 27.2312C13.0741 26.4225 12.5884 25.7268 11.9139 25.2967L10.8733 24.7588C10.5925 24.8209 8.42324 25.3414 7.83596 26.3706C7.24869 27.4077 7.83597 29.6682 7.91488 29.9595V29.9653Z" fill="#272727"/>
<path d="M9.71536 30.8023C11.407 30.8023 12.7784 29.3512 12.7784 27.5611C12.7784 25.771 11.407 24.3199 9.71536 24.3199C8.0237 24.3199 6.65234 25.771 6.65234 27.5611C6.65234 29.3512 8.0237 30.8023 9.71536 30.8023Z" fill="#FCFCFC"/>
<path d="M9.70993 30.9033C9.22413 30.9019 8.7452 30.7818 8.31045 30.5524C7.87571 30.3231 7.4969 29.9905 7.20356 29.5808C6.91021 29.171 6.71026 28.6951 6.61929 28.1901C6.52831 27.6851 6.54877 27.1648 6.67907 26.6695C6.80938 26.1743 7.046 25.7176 7.37049 25.3351C7.69499 24.9525 8.09859 24.6544 8.54984 24.464C9.00109 24.2736 9.4878 24.1961 9.97202 24.2374C10.4562 24.2788 10.9249 24.4379 11.3415 24.7024C11.9337 25.0784 12.3929 25.6497 12.6487 26.3285C12.9045 27.0074 12.9427 27.7563 12.7575 28.4604C12.5722 29.1644 12.1738 29.7847 11.6232 30.226C11.0727 30.6673 10.4006 30.9052 9.70993 30.9033ZM9.72094 24.4208C9.00209 24.4197 8.30722 24.6943 7.76512 25.1939C7.22302 25.6935 6.87046 26.384 6.77277 27.1377C6.67507 27.8913 6.83889 28.6568 7.23384 29.2924C7.62879 29.928 8.2281 30.3905 8.92069 30.5942C9.61328 30.7979 10.3522 30.729 11.0004 30.4003C11.6487 30.0716 12.1624 29.5054 12.4462 28.8065C12.7301 28.1077 12.7649 27.3236 12.5442 26.5997C12.3235 25.8757 11.8623 25.261 11.246 24.8694C10.7857 24.5753 10.2586 24.419 9.72094 24.4169V24.4208Z" fill="#272727"/>
</svg>
