<svg width="46" height="42" viewBox="0 0 46 42" fill="none" xmlns="http://www.w3.org/2000/svg">
<path d="M0.217773 10.076H45.7821V41.7611H8.1582C6.05227 41.7611 4.03259 40.844 2.54347 39.2114C1.05435 37.5789 0.217773 35.3647 0.217773 33.0559V10.076Z" fill="#FCFCFC"/>
<path d="M45.7822 42H8.15827C5.99527 41.9975 3.92152 41.0544 2.39205 39.3776C0.862577 37.7008 0.00230659 35.4273 0 33.056V10.0761C0 10.0128 0.0229512 9.95202 0.063805 9.90723C0.104659 9.86244 0.160068 9.83728 0.217844 9.83728H45.7822C45.8399 9.83728 45.8953 9.86244 45.9362 9.90723C45.9771 9.95202 46 10.0128 46 10.0761V41.7612C46 41.8245 45.9771 41.8853 45.9362 41.9301C45.8953 41.9749 45.8399 42 45.7822 42ZM0.435689 10.3149V33.056C0.437995 35.3006 1.25236 37.4526 2.70013 39.0398C4.14789 40.627 6.11082 41.5198 8.15827 41.5224H45.5643V10.3149H0.435689Z" fill="#093F68"/>
<path d="M7.79222 0.238831V23.6964C5.84561 23.7945 3.99987 24.6739 2.60638 26.1673C1.21288 27.6606 0.368937 29.6636 0.235201 31.795H0.217773V6.2883C0.217773 4.68388 0.799132 3.14518 1.83396 2.01068C2.86878 0.876183 4.27231 0.238831 5.73577 0.238831H7.79222Z" fill="#188B30"/>
<path d="M0.235272 32.0338C0.175631 32.0345 0.117995 32.0102 0.0742291 31.9658C0.0304635 31.9213 0.00389811 31.8602 0 31.795V6.2883C0.00172972 4.62112 0.606595 3.02277 1.6819 1.84389C2.7572 0.665021 4.21513 0.00189632 5.73584 0H7.79229C7.85006 0 7.90547 0.0251618 7.94633 0.0699504C7.98718 0.114739 8.01013 0.175486 8.01013 0.238826V23.6963C8.01013 23.7597 7.98718 23.8204 7.94633 23.8652C7.90547 23.91 7.85006 23.9352 7.79229 23.9352C5.89759 24.0276 4.10049 24.8826 2.74482 26.3367C1.38915 27.7908 0.570111 29.7418 0.444402 31.8164C0.439662 31.8744 0.415801 31.9284 0.377297 31.9684C0.338792 32.0085 0.288292 32.0317 0.235272 32.0338ZM5.73584 0.477653C4.33051 0.478918 2.98306 1.09152 1.98934 2.18095C0.99562 3.27038 0.436842 4.74761 0.435688 6.2883V29.4951C0.952943 27.8322 1.90615 26.3735 3.17597 25.3017C4.4458 24.2299 5.9758 23.5925 7.57444 23.4695V0.477653H5.73584Z" fill="#093F68"/>
<path d="M33.145 39.2846H21.6363C21.5785 39.2846 21.5231 39.2594 21.4823 39.2146C21.4414 39.1698 21.4185 39.1091 21.4185 39.0457V29.1989C21.4185 29.1356 21.4414 29.0748 21.4823 29.03C21.5231 28.9852 21.5785 28.9601 21.6363 28.9601H33.145C33.2028 28.9601 33.2582 28.9852 33.299 29.03C33.3399 29.0748 33.3629 29.1356 33.3629 29.1989V39.0457C33.3629 39.1091 33.3399 39.1698 33.299 39.2146C33.2582 39.2594 33.2028 39.2846 33.145 39.2846ZM21.8541 38.8069H32.9272V29.4377H21.8541V38.8069Z" fill="#DFEAEF"/>
<path d="M18.7696 16.8993C18.7661 16.7765 18.7254 16.6585 18.6541 16.5639C18.5827 16.4692 18.4846 16.4032 18.3753 16.3763C18.1858 16.3309 17.9941 16.2975 17.8002 16.2664C17.7738 16.2635 17.7489 16.252 17.7287 16.2332C17.7084 16.2144 17.6939 16.1894 17.6869 16.1613C17.6303 15.9941 17.5649 15.827 17.4996 15.6646C17.488 15.6459 17.4818 15.6239 17.4818 15.6013C17.4818 15.5787 17.488 15.5566 17.4996 15.538C17.6172 15.3636 17.7349 15.1893 17.8416 15.0078C17.904 14.9058 17.9334 14.7837 17.9251 14.6612C17.9169 14.5387 17.8713 14.4227 17.7959 14.3319C17.6216 14.1194 17.4321 13.9211 17.2469 13.7181C17.156 13.605 17.0291 13.5343 16.8922 13.5205C16.7552 13.5067 16.6187 13.551 16.5106 13.6441L16.0749 13.9785C16.0596 13.994 16.0401 14.0038 16.0193 14.0064C15.9985 14.009 15.9776 14.0042 15.9594 13.9928C15.7982 13.914 15.6327 13.8399 15.4671 13.7707C15.447 13.7648 15.4291 13.7522 15.4158 13.7347C15.4026 13.7171 15.3946 13.6955 15.393 13.6728C15.3647 13.4793 15.3364 13.2859 15.3037 13.0924C15.2863 12.957 15.2259 12.8326 15.133 12.7413C15.0401 12.65 14.9208 12.5976 14.7961 12.5933C14.5238 12.5933 14.2537 12.5933 13.9814 12.5933C13.8661 12.5961 13.755 12.6411 13.6658 12.7212C13.5766 12.8012 13.5144 12.9117 13.4891 13.0351C13.4455 13.25 13.415 13.4698 13.3823 13.6895C13.3802 13.712 13.372 13.7333 13.3588 13.7507C13.3456 13.7682 13.3281 13.7809 13.3083 13.7874C13.1492 13.8543 12.9924 13.9283 12.8377 14.0047C12.822 14.0175 12.8029 14.0244 12.7833 14.0244C12.7637 14.0244 12.7446 14.0175 12.7288 14.0047C12.572 13.8781 12.4151 13.7516 12.2517 13.6322C12.1581 13.5625 12.046 13.5292 11.9331 13.5374C11.8202 13.5456 11.7131 13.5949 11.6287 13.6775C11.4108 13.8853 11.2213 14.1003 11.0318 14.3248C10.9419 14.4245 10.8886 14.5571 10.8822 14.6972C10.8758 14.8373 10.9166 14.975 10.9969 15.0842C11.1015 15.2514 11.2148 15.4162 11.3172 15.5834C11.3225 15.5974 11.3252 15.6124 11.3252 15.6275C11.3252 15.6427 11.3225 15.6577 11.3172 15.6717C11.2518 15.8604 11.1843 16.0443 11.1124 16.2306C11.0983 16.2583 11.0748 16.2789 11.047 16.2879C10.8728 16.3237 10.6963 16.3548 10.5199 16.3858C10.3955 16.4003 10.2799 16.4628 10.1937 16.5621C10.1076 16.6614 10.0564 16.7911 10.0493 16.928C10.0493 17.2384 10.0493 17.5489 10.0493 17.8594C10.054 17.9802 10.0947 18.0961 10.1651 18.1892C10.2355 18.2824 10.3318 18.3477 10.4393 18.3752C10.6397 18.4254 10.8444 18.4588 11.0492 18.497C11.0686 18.4993 11.087 18.5078 11.1021 18.5214C11.1172 18.5349 11.1283 18.553 11.1342 18.5735C11.1974 18.7502 11.2649 18.9245 11.3368 19.0989C11.3473 19.1153 11.3529 19.1349 11.3529 19.155C11.3529 19.1751 11.3473 19.1947 11.3368 19.2111C11.2279 19.3712 11.1189 19.5312 11.0209 19.6888C10.9405 19.8044 10.9022 19.9486 10.9135 20.0934C10.9248 20.2382 10.9848 20.3732 11.0819 20.4721C11.2518 20.6608 11.4217 20.8495 11.596 21.0358C11.6879 21.1463 11.8148 21.2143 11.9508 21.2258C12.0868 21.2374 12.2217 21.1916 12.328 21.0979L12.7637 20.7516C12.778 20.7405 12.7951 20.7345 12.8127 20.7345C12.8302 20.7345 12.8474 20.7405 12.8617 20.7516C13.012 20.8208 13.1623 20.8925 13.3148 20.9546C13.3383 20.962 13.3591 20.9772 13.3743 20.9982C13.3896 21.0192 13.3984 21.0448 13.3998 21.0716C13.4259 21.2627 13.4542 21.4513 13.4847 21.6424C13.5006 21.7743 13.5576 21.8962 13.6462 21.9872C13.7348 22.0782 13.8494 22.1327 13.9705 22.1415C14.2559 22.1535 14.5413 22.1415 14.8266 22.1415C14.9386 22.1361 15.0458 22.0903 15.1317 22.0113C15.2175 21.9323 15.2772 21.8244 15.3015 21.7045C15.3429 21.4943 15.3713 21.2794 15.4039 21.0668C15.4053 21.0416 15.4138 21.0175 15.4283 20.9978C15.4427 20.9781 15.4624 20.9638 15.4845 20.957C15.6436 20.8901 15.8026 20.8161 15.9594 20.742C15.9744 20.7305 15.9923 20.7243 16.0106 20.7243C16.0289 20.7243 16.0468 20.7305 16.0618 20.742C16.2078 20.859 16.3559 20.9808 16.4975 21.0859C16.5996 21.1698 16.7252 21.212 16.8526 21.2053C16.9704 21.2043 17.0834 21.1539 17.1685 21.0644C17.3558 20.871 17.5366 20.6704 17.7174 20.4721C17.8229 20.371 17.8888 20.2292 17.9014 20.0762C17.914 19.9232 17.8723 19.7707 17.785 19.6506C17.6826 19.493 17.5824 19.3353 17.4778 19.1729C17.4673 19.1565 17.4617 19.1369 17.4617 19.1168C17.4617 19.0967 17.4673 19.0771 17.4778 19.0607C17.5475 18.8863 17.6151 18.712 17.6782 18.5353C17.6837 18.5129 17.6955 18.493 17.712 18.4784C17.7284 18.4638 17.7486 18.4553 17.7697 18.4541L18.2969 18.3609C18.4211 18.343 18.5355 18.2776 18.62 18.1762C18.7045 18.0749 18.7536 17.944 18.7587 17.8068C18.7783 17.5083 18.7783 17.2026 18.7696 16.8993ZM14.4127 19.4189C14.0413 19.418 13.6785 19.2963 13.3702 19.0693C13.0619 18.8423 12.8219 18.5202 12.6806 18.1436C12.5392 17.7671 12.5029 17.3531 12.5762 16.9539C12.6495 16.5548 12.8291 16.1884 13.0924 15.9012C13.3556 15.6139 13.6906 15.4187 14.055 15.3402C14.4195 15.2617 14.7969 15.3034 15.1397 15.4601C15.4825 15.6168 15.7752 15.8814 15.9809 16.2205C16.1865 16.5595 16.2958 16.9578 16.2949 17.365C16.2946 17.635 16.2458 17.9024 16.1513 18.1517C16.0568 18.4011 15.9184 18.6276 15.744 18.8183C15.5696 19.0091 15.3627 19.1603 15.135 19.2633C14.9074 19.3664 14.6634 19.4192 14.4171 19.4189H14.4127Z" stroke="#DFEAEF" stroke-width="2.03" stroke-linecap="round" stroke-linejoin="round"/>
<path d="M37.1314 35.2197H26.9908C26.933 35.2197 26.8776 35.1946 26.8368 35.1498C26.7959 35.105 26.7729 35.0442 26.7729 34.9809V26.8727C26.7729 26.8094 26.7959 26.7487 26.8368 26.7039C26.8776 26.6591 26.933 26.6339 26.9908 26.6339H37.1314C37.1892 26.6339 37.2446 26.6591 37.2855 26.7039C37.3263 26.7487 37.3493 26.8094 37.3493 26.8727V34.9809C37.3493 35.0442 37.3263 35.105 37.2855 35.1498C37.2446 35.1946 37.1892 35.2197 37.1314 35.2197ZM27.2086 34.7421H36.9136V27.1116H27.2086V34.7421Z" fill="#DFEAEF"/>
<path d="M42.3252 14.5732H21.2706C21.2128 14.5732 21.1574 14.548 21.1165 14.5032C21.0757 14.4584 21.0527 14.3977 21.0527 14.3343C21.0527 14.271 21.0757 14.2103 21.1165 14.1655C21.1574 14.1207 21.2128 14.0955 21.2706 14.0955H42.3252C42.383 14.0955 42.4384 14.1207 42.4793 14.1655C42.5201 14.2103 42.5431 14.271 42.5431 14.3343C42.5431 14.3977 42.5201 14.4584 42.4793 14.5032C42.4384 14.548 42.383 14.5732 42.3252 14.5732Z" fill="#DFEAEF"/>
<path d="M42.3252 18.3227H21.2706C21.2128 18.3227 21.1574 18.2976 21.1165 18.2528C21.0757 18.208 21.0527 18.1473 21.0527 18.0839C21.0527 18.0206 21.0757 17.9598 21.1165 17.915C21.1574 17.8703 21.2128 17.8451 21.2706 17.8451H42.3252C42.383 17.8451 42.4384 17.8703 42.4793 17.915C42.5201 17.9598 42.5431 18.0206 42.5431 18.0839C42.5431 18.1473 42.5201 18.208 42.4793 18.2528C42.4384 18.2976 42.383 18.3227 42.3252 18.3227Z" fill="#DFEAEF"/>
<path d="M25.6689 22.0699H21.2706C21.2128 22.0699 21.1574 22.0448 21.1165 22C21.0757 21.9552 21.0527 21.8944 21.0527 21.8311C21.0527 21.7678 21.0757 21.707 21.1165 21.6622C21.1574 21.6174 21.2128 21.5923 21.2706 21.5923H25.6689C25.7266 21.5923 25.782 21.6174 25.8229 21.6622C25.8637 21.707 25.8867 21.7678 25.8867 21.8311C25.8867 21.8944 25.8637 21.9552 25.8229 22C25.782 22.0448 25.7266 22.0699 25.6689 22.0699Z" fill="#DFEAEF"/>
<path d="M43.1024 29.9058H40.3052C40.2475 29.9058 40.1921 29.8807 40.1512 29.8359C40.1104 29.7911 40.0874 29.7303 40.0874 29.667V26.8727C40.0874 26.8094 40.1104 26.7487 40.1512 26.7039C40.1921 26.6591 40.2475 26.6339 40.3052 26.6339H43.1024C43.1601 26.6339 43.2156 26.6591 43.2564 26.7039C43.2973 26.7487 43.3202 26.8094 43.3202 26.8727V29.667C43.3202 29.7303 43.2973 29.7911 43.2564 29.8359C43.2156 29.8807 43.1601 29.9058 43.1024 29.9058ZM40.5231 29.4282H42.8845V27.1116H40.5231V29.4282Z" fill="#DFEAEF"/>
<path d="M43.1024 34.8519H40.3052C40.2475 34.8519 40.1921 34.8267 40.1512 34.7819C40.1104 34.7371 40.0874 34.6764 40.0874 34.613V31.8188C40.0874 31.7554 40.1104 31.6947 40.1512 31.6499C40.1921 31.6051 40.2475 31.58 40.3052 31.58H43.1024C43.1601 31.58 43.2156 31.6051 43.2564 31.6499C43.2973 31.6947 43.3202 31.7554 43.3202 31.8188V34.613C43.3202 34.6764 43.2973 34.7371 43.2564 34.7819C43.2156 34.8267 43.1601 34.8519 43.1024 34.8519ZM40.5231 34.3742H42.8845V32.0576H40.5231V34.3742Z" fill="#DFEAEF"/>
<path d="M43.1024 39.7837H40.3052C40.2475 39.7837 40.1921 39.7585 40.1512 39.7138C40.1104 39.669 40.0874 39.6082 40.0874 39.5449V36.7482C40.0874 36.6849 40.1104 36.6241 40.1512 36.5793C40.1921 36.5346 40.2475 36.5094 40.3052 36.5094H43.1024C43.1601 36.5094 43.2156 36.5346 43.2564 36.5793C43.2973 36.6241 43.3202 36.6849 43.3202 36.7482V39.5449C43.3202 39.6082 43.2973 39.669 43.2564 39.7138C43.2156 39.7585 43.1601 39.7837 43.1024 39.7837ZM40.5231 39.3061H42.8845V36.9871H40.5231V39.3061Z" fill="#DFEAEF"/>
<path d="M42.164 1.58124L42.8976 2.32964C43.1273 2.56394 43.2627 2.88867 43.2739 3.23239C43.2852 3.5761 43.1715 3.91066 42.9578 4.16244L30.5335 18.7998L28.0712 16.2878L40.4954 1.65041C40.7086 1.39923 41.004 1.25092 41.3167 1.23795C41.6295 1.22498 41.9341 1.34842 42.164 1.58124Z" fill="#188B30"/>
<path d="M30.5419 19.0393C30.4869 19.039 30.4339 19.016 30.3938 18.9748L27.9278 16.4623C27.8856 16.4196 27.8606 16.3604 27.8581 16.2975C27.857 16.266 27.8617 16.2346 27.8718 16.2051C27.8819 16.1756 27.8972 16.1486 27.9169 16.1256L40.334 1.48791C40.5877 1.18989 40.9387 1.01426 41.3103 0.999487C41.6819 0.984715 42.0437 1.13201 42.3164 1.4091L43.0483 2.15662C43.3207 2.43441 43.4812 2.81941 43.4947 3.22696C43.5082 3.63452 43.3735 4.03126 43.1202 4.32994L30.7031 18.9652C30.6823 18.9891 30.6573 19.008 30.6296 19.0207C30.6018 19.0335 30.572 19.0398 30.5419 19.0393ZM28.3831 16.2736L30.531 18.4637L42.8043 4.00036C42.891 3.89888 42.9585 3.77965 43.003 3.64949C43.0475 3.51934 43.0681 3.38083 43.0636 3.24192C43.0592 3.10301 43.0298 2.96643 42.977 2.84003C42.9243 2.71362 42.8493 2.59987 42.7564 2.50531L42.0223 1.75778C41.8351 1.56654 41.5862 1.46464 41.3305 1.4745C41.0748 1.48435 40.8331 1.60515 40.6586 1.81033L28.3831 16.2736Z" fill="#093F68"/>
<path d="M30.5416 18.8004L27.5485 20.6609L25.6685 21.8311L26.5987 19.6912L28.0756 16.2856L30.5416 18.8004Z" fill="#FFBC0E"/>
<path d="M25.6684 22.0699C25.6317 22.0698 25.5956 22.0595 25.5634 22.04C25.5313 22.0205 25.5042 21.9924 25.4846 21.9583C25.4651 21.9242 25.4537 21.8853 25.4515 21.8451C25.4494 21.8049 25.4565 21.7648 25.4723 21.7284L27.8686 16.1829C27.8833 16.1488 27.9052 16.119 27.9324 16.096C27.9596 16.0729 27.9914 16.0573 28.0252 16.0503C28.0589 16.0433 28.0938 16.0452 28.1267 16.0558C28.1597 16.0663 28.19 16.0853 28.215 16.1112L30.681 18.626C30.706 18.6517 30.7252 18.6834 30.7369 18.7187C30.7486 18.754 30.7526 18.7918 30.7485 18.829C30.7444 18.8662 30.7324 18.9017 30.7135 18.9328C30.6946 18.9639 30.6693 18.9897 30.6396 19.0082L25.7664 22.0389C25.7365 22.0576 25.7029 22.0682 25.6684 22.0699ZM28.1431 16.682L26.1629 21.2507L30.1756 18.755L28.1431 16.682Z" fill="#093F68"/>
<path d="M27.5485 20.6609L25.6685 21.8311L26.5987 19.6912L27.5485 20.6609Z" fill="#FCFCFC"/>
<path d="M25.6684 22.07C25.6317 22.0698 25.5956 22.0596 25.5634 22.04C25.5313 22.0205 25.5042 21.9924 25.4846 21.9584C25.4651 21.9243 25.4537 21.8853 25.4515 21.8451C25.4494 21.8049 25.4565 21.7648 25.4723 21.7284L26.4004 19.579C26.4152 19.5451 26.4372 19.5156 26.4644 19.4927C26.4917 19.4699 26.5235 19.4545 26.5572 19.4477C26.5908 19.4406 26.6255 19.4423 26.6585 19.4526C26.6914 19.463 26.7216 19.4818 26.7467 19.5074L27.6987 20.477C27.7237 20.5026 27.7428 20.5343 27.7545 20.5694C27.7662 20.6046 27.7702 20.6423 27.7662 20.6795C27.7621 20.7167 27.7502 20.7524 27.7313 20.7836C27.7124 20.8148 27.687 20.8406 27.6573 20.8591L25.7751 22.0294C25.7434 22.053 25.7066 22.067 25.6684 22.07ZM26.6661 20.0877L26.1629 21.2508L27.1846 20.6155L26.6661 20.0877Z" fill="#093F68"/>
<path d="M14.0662 39.0457C14.8783 39.0457 15.5366 38.495 15.5366 37.8157C15.5366 37.1364 14.8783 36.5858 14.0662 36.5858C13.254 36.5858 12.5957 37.1364 12.5957 37.8157C12.5957 38.495 13.254 39.0457 14.0662 39.0457Z" fill="#FCFCFC"/>
<path d="M14.0682 39.2846C13.1358 39.2846 12.3799 38.6254 12.3799 37.8158C12.3799 37.0061 13.1358 36.347 14.0682 36.347C15.0005 36.347 15.7543 37.0061 15.7543 37.8158C15.7543 38.6254 14.9962 39.2846 14.0682 39.2846ZM14.0682 36.8246C13.3776 36.8246 12.8156 37.2689 12.8156 37.8158C12.8156 38.3627 13.3776 38.8069 14.0682 38.8069C14.7587 38.8069 15.3186 38.3627 15.3186 37.8158C15.3186 37.2689 14.7566 36.8246 14.0682 36.8246Z" fill="#DFEAEF"/>
<path d="M18.4252 29.3184C18.4232 28.5338 18.2449 27.7619 17.9062 27.0708C17.5675 26.3797 17.0787 25.7907 16.4831 25.3559C15.8874 24.9211 15.2032 24.6538 14.491 24.5777C13.7788 24.5016 13.0604 24.619 12.3994 24.9195C11.7383 25.22 11.155 25.6944 10.7009 26.3008C10.2468 26.9072 9.93597 27.6268 9.79581 28.3962C9.65565 29.1655 9.6905 29.9609 9.89729 30.7119C10.1041 31.463 10.4764 32.1467 10.9814 32.7025C11.5381 33.3278 11.9244 34.1111 12.0968 34.9642L12.1317 35.1266H15.9984L16.042 34.9284C16.236 34.0622 16.6393 33.2694 17.2096 32.6333C17.992 31.7433 18.428 30.5544 18.4252 29.3184Z" fill="#FCFCFC"/>
<path d="M15.9985 35.3535H12.1317C12.0817 35.3549 12.0327 35.3374 11.993 35.3039C11.9533 35.2705 11.9254 35.223 11.9139 35.1696L11.879 35.0048C11.716 34.1945 11.3501 33.4502 10.8225 32.8553C10.1857 32.1568 9.75115 31.2678 9.57337 30.2996C9.3956 29.3315 9.48249 28.3274 9.82315 27.4132C10.1638 26.4989 10.7431 25.7153 11.4883 25.1606C12.2336 24.6058 13.1116 24.3046 14.0124 24.2947C14.9131 24.2849 15.7965 24.5668 16.5517 25.1051C17.3069 25.6434 17.9004 26.4141 18.2577 27.3207C18.6149 28.2273 18.7201 29.2293 18.56 30.2011C18.4 31.173 17.9817 32.0714 17.3578 32.7837C16.816 33.3911 16.4324 34.1465 16.2468 34.9713L16.2054 35.1696C16.1943 35.221 16.168 35.267 16.1306 35.3002C16.0931 35.3335 16.0467 35.3522 15.9985 35.3535ZM12.2951 34.8758H15.8176C16.0231 33.9642 16.45 33.1307 17.0528 32.4637C17.6168 31.819 17.9947 31.0062 18.1392 30.1271C18.2836 29.248 18.1882 28.3417 17.8649 27.5218C17.5415 26.7019 17.0046 26.0048 16.3215 25.518C15.6383 25.0312 14.8393 24.7762 14.0246 24.7851C13.2098 24.794 12.4156 25.0663 11.7414 25.5679C11.0672 26.0695 10.5431 26.7781 10.2347 27.6049C9.92625 28.4317 9.84728 29.3399 10.0076 30.2157C10.168 31.0915 10.5606 31.8959 11.1362 32.5281C11.7161 33.1771 12.1203 33.9899 12.3038 34.8758H12.2951Z" fill="#DFEAEF"/>
<path d="M15.8766 35.1146H12.256C12.0335 35.1146 11.853 35.3124 11.853 35.5564V35.652C11.853 35.896 12.0335 36.0938 12.256 36.0938H15.8766C16.0992 36.0938 16.2796 35.896 16.2796 35.652V35.5564C16.2796 35.3124 16.0992 35.1146 15.8766 35.1146Z" fill="#FCFCFC"/>
<path d="M15.8767 36.335H12.2539C12.0896 36.3344 11.9323 36.2624 11.8163 36.1348C11.7004 36.0072 11.6353 35.8344 11.6353 35.6543V35.5684C11.6353 35.3882 11.7004 35.2155 11.8163 35.0879C11.9323 34.9603 12.0896 34.8883 12.2539 34.8877H15.8767C16.0412 34.8883 16.1988 34.9602 16.3151 35.0878C16.4314 35.2153 16.497 35.388 16.4975 35.5684V35.6663C16.4941 35.8445 16.4273 36.0142 16.3113 36.1392C16.1953 36.2641 16.0393 36.3344 15.8767 36.335ZM12.2539 35.3534C12.2052 35.354 12.1587 35.3757 12.1244 35.4137C12.0901 35.4517 12.0709 35.503 12.0709 35.5564V35.6543C12.0709 35.7078 12.0901 35.759 12.1244 35.797C12.1587 35.835 12.2052 35.8567 12.2539 35.8573H15.8767C15.9258 35.8573 15.9729 35.8359 16.0076 35.7979C16.0423 35.7598 16.0618 35.7082 16.0618 35.6543V35.5684C16.0618 35.5145 16.0423 35.4629 16.0076 35.4248C15.9729 35.3867 15.9258 35.3653 15.8767 35.3653L12.2539 35.3534Z" fill="#DFEAEF"/>
<path d="M15.8766 36.0963H12.256C12.0335 36.0963 11.853 36.2941 11.853 36.5381V36.6336C11.853 36.8776 12.0335 37.0754 12.256 37.0754H15.8766C16.0992 37.0754 16.2796 36.8776 16.2796 36.6336V36.5381C16.2796 36.2941 16.0992 36.0963 15.8766 36.0963Z" fill="#FCFCFC"/>
<path d="M15.8767 37.3142H12.2539C12.0898 37.3142 11.9325 37.2427 11.8165 37.1155C11.7004 36.9883 11.6353 36.8158 11.6353 36.6359V36.5356C11.6353 36.3557 11.7004 36.1832 11.8165 36.056C11.9325 35.9288 12.0898 35.8574 12.2539 35.8574H15.8767C16.041 35.8574 16.1986 35.9287 16.3149 36.0559C16.4313 36.183 16.497 36.3555 16.4975 36.5356V36.6359C16.497 36.816 16.4313 36.9886 16.3149 37.1157C16.1986 37.2428 16.041 37.3142 15.8767 37.3142ZM12.2539 36.335C12.2056 36.3356 12.1594 36.357 12.1252 36.3945C12.091 36.4319 12.0715 36.4826 12.0709 36.5356V36.6359C12.0715 36.689 12.091 36.7396 12.1252 36.7771C12.1594 36.8146 12.2056 36.8359 12.2539 36.8366H15.8767C15.9254 36.8366 15.9722 36.8155 16.0069 36.7779C16.0415 36.7404 16.0613 36.6894 16.0618 36.6359V36.5356C16.0613 36.4822 16.0415 36.4312 16.0069 36.3936C15.9722 36.3561 15.9254 36.335 15.8767 36.335H12.2539Z" fill="#DFEAEF"/>
<path d="M15.8766 37.0754H12.256C12.0335 37.0754 11.853 37.2732 11.853 37.5172V37.6127C11.853 37.8567 12.0335 38.0546 12.256 38.0546H15.8766C16.0992 38.0546 16.2796 37.8567 16.2796 37.6127V37.5172C16.2796 37.2732 16.0992 37.0754 15.8766 37.0754Z" fill="#FCFCFC"/>
<path d="M15.8767 38.2958H12.2539C12.0896 38.2951 11.9323 38.2232 11.8163 38.0956C11.7004 37.968 11.6353 37.7952 11.6353 37.6151V37.5172C11.6353 37.3371 11.7004 37.1643 11.8163 37.0367C11.9323 36.9092 12.0896 36.8372 12.2539 36.8365H15.8767C16.0412 36.8372 16.1988 36.9091 16.3151 37.0366C16.4314 37.1641 16.497 37.3369 16.4975 37.5172V37.6151C16.497 37.7955 16.4314 37.9682 16.3151 38.0957C16.1988 38.2232 16.0412 38.2951 15.8767 38.2958ZM12.2539 37.3142C12.2052 37.3148 12.1587 37.3365 12.1244 37.3745C12.0901 37.4125 12.0709 37.4638 12.0709 37.5172V37.6151C12.0709 37.6686 12.0901 37.7198 12.1244 37.7578C12.1587 37.7958 12.2052 37.8175 12.2539 37.8181H15.8767C15.9258 37.8181 15.9729 37.7967 16.0076 37.7587C16.0423 37.7206 16.0618 37.669 16.0618 37.6151V37.5172C16.0618 37.4634 16.0423 37.4117 16.0076 37.3737C15.9729 37.3356 15.9258 37.3142 15.8767 37.3142H12.2539Z" fill="#DFEAEF"/>
<path d="M13.3277 34.6632L12.5957 28.7093L14.1468 30.5602L15.6978 28.2913L15.0268 34.6632" fill="#FCFCFC"/>
<path d="M13.3273 34.9021C13.2742 34.9026 13.2226 34.8817 13.1825 34.8434C13.1424 34.8052 13.1164 34.7521 13.1095 34.6943L12.3775 28.7403C12.3731 28.6916 12.3824 28.6426 12.4042 28.5999C12.4261 28.5571 12.4593 28.5228 12.4995 28.5015C12.5416 28.4792 12.589 28.4722 12.6349 28.4817C12.6808 28.4911 12.7227 28.5165 12.7544 28.5541L14.1268 30.1948L15.521 28.1552C15.5497 28.1132 15.5902 28.0827 15.6363 28.0685C15.6824 28.0542 15.7314 28.057 15.7759 28.0764C15.8205 28.096 15.8579 28.1313 15.8823 28.1766C15.9068 28.222 15.9168 28.2749 15.911 28.3272L15.24 34.6991C15.2334 34.7624 15.204 34.8203 15.1585 34.8599C15.1129 34.8995 15.0549 34.9177 14.9971 34.9104C14.9393 34.9031 14.8866 34.871 14.8504 34.8211C14.8143 34.7711 14.7977 34.7075 14.8043 34.6441L15.3816 29.1511L14.3142 30.713C14.2951 30.7413 14.2705 30.7646 14.2422 30.7812C14.2139 30.7978 14.1826 30.8074 14.1505 30.8092C14.1185 30.8111 14.0865 30.8051 14.0568 30.7918C14.0271 30.7784 14.0004 30.7581 13.9787 30.7322L12.8895 29.4401L13.5278 34.6417C13.5352 34.7044 13.5196 34.7678 13.4845 34.8179C13.4494 34.8681 13.3976 34.9009 13.3404 34.9092L13.3273 34.9021Z" fill="#DFEAEF"/>
</svg>
