<svg width="46" height="42" viewBox="0 0 46 42" fill="none" xmlns="http://www.w3.org/2000/svg">
<path d="M38.0205 17.0711C38.0205 17.0711 39.0022 15.4887 39.1932 15.1248C39.6714 13.957 39.7964 13.1356 40.3337 13.1531C40.6007 13.1531 40.229 13.846 40.0127 14.7958C40.0127 14.7958 42.2381 12.976 42.5878 13.4781C42.9376 13.9803 42.9596 15.1248 42.5878 15.5277C42.2161 15.9306 40.768 16.6604 40.6463 16.8784C40.5247 17.0964 39.8015 18.6302 39.8015 18.6302L38.0205 17.0711Z" fill="#FCFCFC"/>
<path d="M39.7951 18.7294C39.7768 18.7296 39.759 18.7227 39.7444 18.71L37.9685 17.1529C37.9511 17.1375 37.9396 17.1148 37.9364 17.0897C37.9333 17.0646 37.9387 17.0391 37.9516 17.0186C37.9618 17.003 38.9334 15.4343 39.1226 15.0878C39.2308 14.8192 39.3254 14.5565 39.4099 14.3268C39.6819 13.5716 39.8644 13.0675 40.3173 13.0675H40.3359C40.3638 13.0664 40.3915 13.0733 40.4166 13.0875C40.4417 13.1018 40.4633 13.123 40.4795 13.1492C40.5572 13.2835 40.4795 13.5152 40.3494 13.9278C40.2919 14.1107 40.2226 14.3171 40.1601 14.5623C40.7803 14.0718 42.3196 12.9371 42.6542 13.4198C42.9887 13.9025 43.0665 15.1462 42.6457 15.5997C42.2895 15.9066 41.9081 16.1726 41.5068 16.3938C41.1689 16.5885 40.765 16.8493 40.7194 16.933C40.5994 17.1471 39.8746 18.6574 39.8746 18.673C39.8686 18.6848 39.8605 18.695 39.8509 18.7031C39.8413 18.7111 39.8304 18.7168 39.8188 18.7197L39.7951 18.7294ZM38.1375 17.0517L39.7698 18.4862C39.9388 18.1436 40.471 17.0244 40.5758 16.8356C40.6434 16.715 40.929 16.5359 41.4207 16.2303C41.8079 16.0145 42.1772 15.7585 42.5241 15.4654C42.862 15.1073 42.8519 14.0329 42.5156 13.5483C42.3906 13.3692 41.5457 13.667 40.0554 14.8854C40.0412 14.8967 40.0244 14.9028 40.0072 14.9028C39.99 14.9028 39.9732 14.8967 39.959 14.8854C39.9444 14.8748 39.9332 14.859 39.9271 14.8403C39.921 14.8217 39.9204 14.8013 39.9253 14.7822C40.0047 14.4338 40.1044 14.1205 40.1838 13.8675C40.2632 13.6144 40.3528 13.3166 40.3325 13.2563H40.3223C39.9844 13.2563 39.8357 13.6281 39.5586 14.3969C39.4741 14.6304 39.3795 14.8932 39.2629 15.1754C39.0973 15.4966 38.3369 16.7208 38.1375 17.0517Z" fill="#272727"/>
<path d="M37.5933 17.2073L37.9802 16.5125L40.013 18.4899L39.6446 19.2373L37.5933 17.2073Z" fill="#272727"/>
<path d="M39.6446 19.3346C39.6249 19.3336 39.606 19.3255 39.5905 19.3113L37.5324 17.2793C37.5171 17.2639 37.507 17.2427 37.5039 17.2196C37.5008 17.1964 37.505 17.1727 37.5156 17.1528L37.9025 16.4599C37.9092 16.4484 37.9179 16.4386 37.9281 16.4312C37.9383 16.4239 37.9497 16.419 37.9616 16.417C37.9736 16.4151 37.9857 16.416 37.9974 16.4196C38.009 16.4233 38.0198 16.4297 38.0292 16.4384L40.0569 18.4159C40.0725 18.4302 40.0832 18.4504 40.0869 18.4729C40.0906 18.4954 40.0872 18.5187 40.0772 18.5386L39.7088 19.284C39.7026 19.2966 39.6941 19.3075 39.6839 19.3159C39.6737 19.3243 39.662 19.33 39.6497 19.3327L39.6446 19.3346ZM37.7014 17.1878L39.6193 19.0855L39.9015 18.5016L37.9971 16.6486L37.7014 17.1878Z" fill="#272727"/>
<path d="M18.7057 14.208H26.1625C26.8478 14.2083 27.5264 14.3641 28.1594 14.6667C28.7924 14.9693 29.3675 15.4126 29.8516 15.9714C30.3357 16.5301 30.7195 17.1933 30.981 17.9231C31.2424 18.6528 31.3764 19.4348 31.3753 20.2242V32.0775H13.4912V20.2242C13.4901 19.4346 13.6242 18.6525 13.8857 17.9226C14.1473 17.1928 14.5312 16.5295 15.0155 15.9707C15.4998 15.4119 16.0751 14.9686 16.7083 14.6662C17.3415 14.3637 18.0202 14.208 18.7057 14.208Z" fill="#272727"/>
<path d="M31.3748 32.165H13.4907C13.4683 32.165 13.4468 32.1548 13.431 32.1365C13.4151 32.1183 13.4062 32.0935 13.4062 32.0677V20.2241C13.408 18.6059 13.9669 17.0546 14.9603 15.9104C15.9536 14.7662 17.3004 14.1224 18.7052 14.1204H26.162C27.5667 14.1224 28.9133 14.7662 29.9064 15.9105C30.8995 17.0548 31.458 18.6061 31.4593 20.2241V32.0774C31.4572 32.1015 31.4474 32.1238 31.4318 32.14C31.4161 32.1562 31.3958 32.1651 31.3748 32.165ZM13.5752 31.9704H31.2903V20.2241C31.289 18.6577 30.7483 17.1559 29.7869 16.0481C28.8255 14.9403 27.5219 14.3171 26.162 14.315H18.7052C17.3452 14.3171 16.0414 14.9403 15.0797 16.048C14.1181 17.1557 13.577 18.6576 13.5752 20.2241V31.9704Z" fill="#272727"/>
<path d="M20.6151 12.2558C20.6151 12.2558 15.9768 13.9297 15.4699 15.2084C15.1049 16.1271 14.1012 23.3967 13.9812 26.9936C13.8579 30.7053 12.9556 32.4103 12.9556 32.4103L17.141 32.5777C17.141 32.5777 17.479 28.72 17.5263 27.3128C17.5802 26.2747 17.68 25.2405 17.8254 24.2142C17.8254 24.2142 18.2326 26.6238 18.2056 27.4996C18.1785 28.3755 17.9318 32.5777 17.9318 32.5777H28.7461C28.7461 32.5777 28.202 27.0306 28.2561 26.2793C28.3101 25.528 28.932 22.336 28.932 22.336L30.2347 14.4182C30.2347 14.4182 25.8262 12.3512 25.3007 12.1332C24.7752 11.9152 20.6151 12.2558 20.6151 12.2558Z" fill="#228B38"/>
<path d="M23.4824 32.6809C23.46 32.6809 23.4385 32.6706 23.4227 32.6524C23.4068 32.6341 23.3979 32.6094 23.3979 32.5836V25.966C23.3979 25.9402 23.4068 25.9154 23.4227 25.8972C23.4385 25.8789 23.46 25.8687 23.4824 25.8687C23.5047 25.8692 23.526 25.8796 23.5417 25.8977C23.5575 25.9159 23.5665 25.9403 23.5669 25.966V32.5836C23.5665 32.6092 23.5575 32.6337 23.5417 32.6518C23.526 32.67 23.5047 32.6804 23.4824 32.6809Z" fill="#272727"/>
<path d="M21.1166 10.9655L25.1111 10.9791L25.0401 12.7366H22.22L20.8496 11.9815L21.1166 10.9655Z" fill="#272727"/>
<path d="M25.0404 12.828H22.2203C22.2086 12.8309 22.1965 12.8309 22.1848 12.828L20.8144 12.0729C20.7958 12.063 20.781 12.0458 20.7726 12.0243C20.7642 12.0029 20.7628 11.9786 20.7688 11.9561L21.0358 10.9401C21.0412 10.9202 21.052 10.9029 21.0666 10.8906C21.0812 10.8784 21.0988 10.8718 21.1169 10.872L25.1114 10.8875C25.1227 10.8872 25.134 10.8897 25.1445 10.8947C25.155 10.8997 25.1644 10.9072 25.1722 10.9167C25.1805 10.926 25.1869 10.9373 25.191 10.9497C25.195 10.9622 25.1967 10.9755 25.1959 10.9887L25.1249 12.7405C25.1228 12.7645 25.113 12.7869 25.0974 12.8031C25.0817 12.8193 25.0614 12.8282 25.0404 12.828ZM22.2389 12.6334H24.961L25.0235 11.0763L21.1794 11.0627L20.953 11.9288L22.2389 12.6334Z" fill="#272727"/>
<path d="M26.1505 6.50237C26.3516 5.9064 26.4707 5.27797 26.5037 4.63971C26.5214 4.4261 26.5214 4.21102 26.5037 3.99741C26.451 3.7082 26.3816 3.42339 26.2958 3.14491C26.403 2.96018 26.4702 2.74862 26.492 2.52787C26.5137 2.30712 26.4893 2.08358 26.4209 1.87589L26.1539 2.29241C26.202 1.96756 26.1884 1.63455 26.114 1.31634C26.0396 0.998135 25.9062 0.702291 25.723 0.449207C25.3968 0.895355 24.955 1.20918 24.4625 1.34453C24.6247 1.19747 24.7527 1.00632 24.835 0.788231C24.9173 0.570138 24.9512 0.331926 24.9339 0.0949707C24.6044 0.470617 24.1059 0.565989 23.6429 0.573774C23.18 0.581559 22.7068 0.519276 22.2591 0.655521C21.8334 0.793819 21.4522 1.07257 21.1624 1.45742C20.9259 1.76689 20.9225 2.11334 20.6369 2.37221C19.961 2.9892 19.9002 3.55948 20.005 4.52682C20.0996 5.41241 20.3632 6.27854 20.4392 7.1583C21.3263 7.22058 22.2219 7.30816 23.1191 7.29259C23.8305 7.28675 25.7703 7.46777 26.1505 6.50237Z" fill="#FCFCFC"/>
<path d="M23.8459 7.40354H23.4623C23.3305 7.40354 23.2139 7.40354 23.1244 7.40354C22.3944 7.41522 21.6611 7.36072 20.9497 7.30622L20.4428 7.26924C20.4228 7.26758 20.4039 7.25793 20.3894 7.24193C20.3749 7.22594 20.3657 7.20463 20.3634 7.18166C20.3141 6.72281 20.2408 6.26783 20.1437 5.81921C20.0534 5.40071 19.9817 4.97715 19.9291 4.55019C19.8193 3.53808 19.8919 2.94444 20.5932 2.30604C20.7186 2.18116 20.8154 2.02277 20.8754 1.84475C20.9333 1.6858 21.0113 1.53758 21.1068 1.40488C21.4053 1.00518 21.7979 0.713776 22.2373 0.565996C22.5814 0.481748 22.9339 0.452278 23.2849 0.47841C23.4049 0.47841 23.5232 0.47841 23.6414 0.47841C24.2126 0.47841 24.6164 0.322702 24.8749 0.0288027C24.8862 0.0157481 24.9004 0.00662583 24.9159 0.00249233C24.9315 -0.00164116 24.9477 -0.000617354 24.9628 0.0054459C24.978 0.0119489 24.9913 0.02325 25.0011 0.0380532C25.011 0.0528564 25.017 0.0705621 25.0186 0.0891392C25.0491 0.467373 24.957 0.845238 24.76 1.1499C25.1069 0.987648 25.4135 0.728845 25.6522 0.396664C25.6601 0.385902 25.67 0.377211 25.681 0.371169C25.6921 0.365128 25.7042 0.361876 25.7164 0.361629C25.7287 0.361614 25.7409 0.36475 25.752 0.37081C25.7631 0.37687 25.7729 0.385701 25.7806 0.396664C26.0977 0.832522 26.268 1.3852 26.2605 1.95375L26.345 1.8214C26.3539 1.80712 26.366 1.79594 26.38 1.78907C26.394 1.7822 26.4094 1.77992 26.4244 1.78247C26.4394 1.78449 26.4536 1.79118 26.4655 1.80181C26.4774 1.81244 26.4866 1.82662 26.492 1.84281C26.5637 2.05721 26.5911 2.28787 26.572 2.51657C26.5529 2.74526 26.488 2.96571 26.3822 3.16049C26.4681 3.43016 26.5348 3.70746 26.5816 3.98964C26.6003 4.20969 26.6003 4.43134 26.5816 4.6514C26.5498 5.30006 26.4283 5.93873 26.2217 6.54325C25.9226 7.3179 24.7431 7.40354 23.8459 7.40354ZM23.2021 7.20891H23.464C24.2683 7.22058 25.7654 7.24394 26.0713 6.4654C26.2666 5.87909 26.3807 5.26102 26.4092 4.63388C26.4272 4.42613 26.4272 4.21685 26.4092 4.0091C26.4092 3.93903 26.2605 3.32398 26.22 3.21109C26.2087 3.19438 26.2026 3.17384 26.2026 3.1527C26.2026 3.13156 26.2087 3.11103 26.22 3.09431C26.3056 2.94951 26.3648 2.78613 26.3938 2.61413C26.4229 2.44213 26.4212 2.26512 26.3889 2.09388L26.22 2.3547C26.2085 2.37204 26.1923 2.38444 26.1739 2.3899C26.1556 2.39537 26.1362 2.39358 26.1189 2.38482C26.1015 2.37607 26.0872 2.36086 26.0783 2.34163C26.0694 2.3224 26.0663 2.30027 26.0696 2.27879C26.1132 1.98692 26.1045 1.68787 26.044 1.40002C25.9836 1.11217 25.8727 0.841594 25.7181 0.604924C25.3906 1.02322 24.9614 1.31825 24.4863 1.45159C24.4672 1.45751 24.4469 1.4555 24.4289 1.44591C24.4109 1.43633 24.3964 1.41977 24.388 1.39914C24.3795 1.3785 24.3776 1.35511 24.3826 1.33303C24.3876 1.31096 24.3992 1.29161 24.4153 1.27836C24.544 1.16091 24.6498 1.01355 24.7258 0.845879C24.8018 0.678204 24.8463 0.493974 24.8564 0.305185C24.5691 0.544586 24.172 0.66526 23.6482 0.673046C23.5265 0.673046 23.4066 0.673046 23.2849 0.673046C22.9492 0.647316 22.6121 0.674822 22.2829 0.754793C21.8733 0.890953 21.5069 1.16146 21.2285 1.53334C21.1443 1.6513 21.0749 1.78235 21.0224 1.92261C20.9497 2.12925 20.8336 2.31185 20.6844 2.45396C20.0423 3.03787 19.9798 3.56338 20.0829 4.52099C20.1285 4.93751 20.213 5.35987 20.2941 5.7686C20.3863 6.19854 20.4585 6.63385 20.5104 7.07266L20.9497 7.1038C21.6577 7.1583 22.391 7.2128 23.1126 7.20112L23.2021 7.20891Z" fill="#272727"/>
<path d="M21.3938 6.65226C21.2722 5.52922 19.672 5.19055 19.7041 6.50823C19.7038 6.96939 19.8458 7.41566 20.1046 7.76753C20.2343 7.93864 20.4051 8.0616 20.5955 8.12085C20.7859 8.18009 20.9873 8.17296 21.1742 8.10035" fill="#FCFCFC"/>
<path d="M20.8668 8.25993C20.7108 8.25647 20.5572 8.21616 20.4154 8.1415C20.2735 8.06683 20.1465 7.95941 20.0422 7.82589C19.7721 7.45861 19.6231 6.99341 19.6214 6.5121C19.6012 5.86007 19.9594 5.59342 20.2973 5.56228C20.5758 5.5392 20.8517 5.63709 21.0706 5.83668C21.2896 6.03626 21.4357 6.32306 21.4801 6.64056C21.4825 6.66609 21.476 6.69167 21.4621 6.71172C21.4482 6.73178 21.4279 6.74468 21.4058 6.74761C21.3838 6.74994 21.3618 6.74261 21.3442 6.7271C21.3267 6.71158 21.3149 6.68902 21.3112 6.66392C21.2712 6.3978 21.1474 6.15803 20.9634 5.99064C20.7794 5.82325 20.5482 5.74002 20.3142 5.75692C19.9763 5.78806 19.7853 6.06055 19.7988 6.50626C19.7976 6.94001 19.9278 7.36065 20.1672 7.69548C20.2847 7.85269 20.4402 7.96607 20.6138 8.02118C20.7874 8.07629 20.9714 8.07065 21.1422 8.00496C21.1628 7.99527 21.1859 7.99536 21.2065 8.0052C21.2271 8.01504 21.2434 8.03384 21.252 8.05751C21.2601 8.08158 21.2598 8.10829 21.2513 8.13216C21.2429 8.15604 21.2268 8.17528 21.2064 8.18597C21.0982 8.23478 20.983 8.25986 20.8668 8.25993Z" fill="#272727"/>
<path d="M24.8784 6.65226C25.0001 5.52922 26.6003 5.19055 26.5597 6.50823C26.5628 6.96792 26.4245 7.41403 26.1694 7.76753C26.0395 7.93843 25.8687 8.06124 25.6783 8.12047C25.488 8.1797 25.2867 8.1727 25.0998 8.10035" fill="#FCFCFC"/>
<path d="M25.4051 8.25993C25.2894 8.26004 25.1748 8.23494 25.0672 8.18597C25.0462 8.17603 25.0295 8.15698 25.0206 8.13293C25.0118 8.10888 25.0115 8.08178 25.0199 8.05751C25.0285 8.03384 25.0448 8.01504 25.0654 8.0052C25.086 7.99536 25.1091 7.99527 25.1297 8.00496C25.3008 8.07107 25.485 8.07694 25.659 8.02181C25.833 7.96669 25.9887 7.85307 26.1064 7.69549C26.3457 7.36065 26.476 6.94001 26.4747 6.50626C26.4882 6.06055 26.3057 5.78806 25.9593 5.75692C25.7253 5.74002 25.4942 5.82325 25.3102 5.99064C25.1262 6.15803 25.0023 6.3978 24.9624 6.66392C24.9587 6.68902 24.9469 6.71159 24.9293 6.7271C24.9118 6.74261 24.8898 6.74994 24.8678 6.74761C24.8569 6.74617 24.8463 6.74224 24.8368 6.73606C24.8272 6.72988 24.8188 6.72157 24.812 6.7116C24.8052 6.70164 24.8003 6.69023 24.7974 6.67804C24.7945 6.66584 24.7937 6.6531 24.7951 6.64056C24.8396 6.32306 24.9857 6.03626 25.2046 5.83668C25.4236 5.63709 25.6995 5.5392 25.9779 5.56228C26.3159 5.59342 26.669 5.86007 26.6538 6.5121C26.6556 6.99276 26.5089 7.45847 26.2398 7.82589C26.1344 7.96094 26.0058 8.06926 25.8621 8.14398C25.7184 8.2187 25.5628 8.25819 25.4051 8.25993Z" fill="#272727"/>
<path d="M21.2705 12.2325C21.2705 12.2325 22.0089 12.6684 23.2779 12.7191C24.5469 12.7697 24.7581 12.3726 24.7581 12.3726L24.7277 11.5941L24.6584 9.77616L24.5925 8.07699L21.6946 7.96216L21.5561 9.34407L21.5138 9.79368L21.2705 12.2325Z" fill="#FCFCFC"/>
<path d="M23.4958 12.8281H23.2761C22.0021 12.7775 21.262 12.3493 21.2316 12.3317C21.2164 12.3226 21.204 12.3084 21.1959 12.2911C21.1878 12.2738 21.1843 12.254 21.1859 12.2344L21.6101 7.95244C21.6109 7.94016 21.6139 7.92819 21.6188 7.91723C21.6236 7.90626 21.6304 7.89652 21.6385 7.88856C21.6467 7.8806 21.6561 7.87458 21.6663 7.87085C21.6765 7.86711 21.6873 7.86574 21.6979 7.86681L24.5941 7.98359C24.6153 7.98447 24.6354 7.99428 24.6507 8.01115C24.6659 8.02802 24.6753 8.05077 24.6769 8.07507L24.8459 12.3765C24.8473 12.3957 24.8431 12.4148 24.8341 12.431C24.807 12.466 24.584 12.8281 23.4958 12.8281ZM21.36 12.1819C21.9714 12.4647 22.6225 12.6164 23.2812 12.6295C24.295 12.6704 24.606 12.4174 24.6719 12.3454L24.5113 8.17433L21.7689 8.06533L21.36 12.1819Z" fill="#272727"/>
<path d="M21.5142 9.78783C21.7456 10.2031 22.0625 10.5461 22.4368 10.7863C23.0484 11.2087 23.9676 11.6933 24.728 11.5902L24.6587 9.77226C24.1018 9.82942 23.5409 9.81113 22.9876 9.71776C22.4959 9.67391 22.0132 9.54259 21.5564 9.32849L21.5142 9.78783Z" fill="#272727"/>
<path d="M24.5218 11.7011C23.731 11.7011 22.8692 11.1931 22.4011 10.87C22.0128 10.6229 21.685 10.2667 21.4481 9.83456C21.4396 9.81675 21.4361 9.79637 21.438 9.77617L21.4802 9.32462C21.4818 9.30936 21.4865 9.29474 21.4938 9.28191C21.5011 9.26908 21.511 9.25838 21.5225 9.25065C21.5345 9.24349 21.5478 9.23975 21.5613 9.23975C21.5749 9.23975 21.5882 9.24349 21.6002 9.25065C22.0495 9.45657 22.5237 9.5813 23.0061 9.62046C23.553 9.7149 24.1079 9.7332 24.6586 9.67496C24.6818 9.67283 24.7049 9.68121 24.7228 9.69832C24.7399 9.71648 24.7503 9.74162 24.7516 9.76838L24.8208 11.5863C24.8218 11.6109 24.8147 11.6349 24.8009 11.6537C24.7871 11.6725 24.7677 11.6846 24.7465 11.6875C24.6719 11.6969 24.5968 11.7015 24.5218 11.7011ZM21.6087 9.76644C21.8313 10.1566 22.1336 10.4781 22.489 10.7026C22.9672 11.0335 23.8678 11.5629 24.6485 11.5026L24.586 9.87933C24.0521 9.92507 23.5156 9.90353 22.9858 9.8151C22.5243 9.7728 22.0698 9.66023 21.634 9.48032L21.6087 9.76644Z" fill="#272727"/>
<path d="M25.6727 3.62569L25.551 7.67606C25.5464 7.84932 25.526 8.02154 25.4902 8.1899C25.3682 8.76068 25.0795 9.26574 24.6724 9.62018C24.2653 9.97462 23.7647 10.1569 23.2547 10.1363L23.0012 10.1324C22.5216 10.1132 22.0603 9.91567 21.6863 9.56939C21.3123 9.22311 21.0456 8.74667 20.9262 8.21131C20.8745 7.97477 20.8517 7.73106 20.8586 7.48726L20.9803 3.43884C20.9803 3.43884 21.5227 4.2641 23.0958 4.2641C23.985 4.2718 24.8648 4.05383 25.6727 3.62569Z" fill="#FCFCFC"/>
<path d="M23.3386 10.2433H23.2592L22.999 10.2317C22.388 10.2068 21.8106 9.90357 21.3937 9.38861C20.9767 8.87366 20.7543 8.1891 20.7753 7.48535L20.8969 3.43693C20.898 3.41694 20.9042 3.39776 20.9147 3.38183C20.9252 3.36589 20.9396 3.35391 20.9561 3.3474C20.9727 3.34176 20.9904 3.34189 21.0069 3.34778C21.0234 3.35366 21.0381 3.36504 21.049 3.38048C21.049 3.38048 21.588 4.15903 23.0598 4.15903H23.102C23.9756 4.16617 24.8403 3.9557 25.6366 3.54203C25.6495 3.53349 25.6641 3.52899 25.6789 3.52899C25.6937 3.52899 25.7083 3.53349 25.7211 3.54203C25.7335 3.55117 25.7436 3.56388 25.7504 3.5789C25.7573 3.59392 25.7605 3.61073 25.76 3.62767L25.6383 7.67804C25.6335 7.85781 25.6126 8.03653 25.5758 8.21134C25.4535 8.7892 25.1668 9.30326 24.7613 9.67155C24.3558 10.0398 23.855 10.2411 23.3386 10.2433ZM21.0592 3.66465L20.9443 7.49119C20.9371 7.72525 20.9593 7.95928 21.0102 8.18603C21.1258 8.69944 21.3818 9.15639 21.7402 9.48935C22.0986 9.82232 22.5406 10.0136 23.0007 10.0351L23.2609 10.0467C23.7521 10.0645 24.2338 9.88743 24.6253 9.5452C25.0168 9.20298 25.2945 8.71632 25.4119 8.16657C25.4452 8.00438 25.4645 7.83877 25.4694 7.6722L25.5859 3.77949C24.7982 4.15902 23.9525 4.35293 23.0987 4.34977H23.053C21.9091 4.35172 21.3109 3.91379 21.0507 3.66465H21.0592Z" fill="#272727"/>
<path d="M23.2257 5.89514C23.2257 5.89514 23.9557 7.75002 23.6329 7.7831C23.3102 7.81619 22.8506 7.53981 22.8506 7.53981" fill="#FCFCFC"/>
<path d="M23.5774 7.88425C23.31 7.8578 23.0498 7.77048 22.8119 7.62733C22.8021 7.62132 22.7933 7.61314 22.7862 7.60323C22.779 7.59333 22.7737 7.58191 22.7704 7.56962C22.7671 7.55733 22.7659 7.54441 22.767 7.53161C22.768 7.5188 22.7712 7.50635 22.7764 7.49498C22.7817 7.4836 22.7888 7.47352 22.7974 7.46531C22.806 7.4571 22.8159 7.45092 22.8265 7.44713C22.8372 7.44333 22.8484 7.442 22.8595 7.44319C22.8707 7.44439 22.8815 7.4481 22.8913 7.4541C22.8913 7.4541 23.329 7.71881 23.6247 7.68767C23.6957 7.58062 23.4794 6.77677 23.1482 5.93595C23.1406 5.91278 23.1409 5.88714 23.1492 5.86425C23.1574 5.84137 23.1729 5.82296 23.1925 5.81279C23.2121 5.80261 23.2343 5.80143 23.2547 5.80949C23.275 5.81755 23.2919 5.83423 23.3019 5.85615C23.4506 6.23179 23.9204 7.48135 23.7666 7.78888C23.753 7.81431 23.7345 7.83578 23.7125 7.85165C23.6905 7.86751 23.6657 7.87733 23.6399 7.88036L23.5774 7.88425Z" fill="#272727"/>
<path d="M23.6769 8.95111C23.2612 8.93902 22.8519 8.82972 22.4739 8.62984C22.4635 8.62495 22.4541 8.61772 22.4461 8.60858C22.4382 8.59944 22.4319 8.58857 22.4277 8.57661C22.4234 8.56465 22.4213 8.55183 22.4214 8.53891C22.4215 8.52599 22.4238 8.51321 22.4282 8.50134C22.4375 8.47787 22.4543 8.45947 22.4751 8.45003C22.4959 8.44058 22.5191 8.44083 22.5398 8.45072C23.6127 8.98031 24.1889 8.64542 24.194 8.64542C24.214 8.63387 24.2371 8.6319 24.2583 8.63992C24.2795 8.64795 24.2971 8.66533 24.3072 8.68826C24.3125 8.69947 24.3157 8.71178 24.3168 8.72446C24.3178 8.73715 24.3167 8.74995 24.3134 8.76211C24.3101 8.77427 24.3047 8.78554 24.2975 8.79526C24.2904 8.80498 24.2816 8.81295 24.2717 8.81871C24.0846 8.91367 23.8813 8.95892 23.6769 8.95111Z" fill="#272727"/>
<path d="M22.281 6.01216C22.365 6.01216 22.4331 5.83433 22.4331 5.61497C22.4331 5.3956 22.365 5.21777 22.281 5.21777C22.197 5.21777 22.1289 5.3956 22.1289 5.61497C22.1289 5.83433 22.197 6.01216 22.281 6.01216Z" fill="#272727"/>
<path d="M24.3186 6.01216C24.4026 6.01216 24.4707 5.83433 24.4707 5.61497C24.4707 5.3956 24.4026 5.21777 24.3186 5.21777C24.2346 5.21777 24.1665 5.3956 24.1665 5.61497C24.1665 5.83433 24.2346 6.01216 24.3186 6.01216Z" fill="#272727"/>
<path d="M20.7129 11.8783L23.4283 25.5398L24.045 22.1434L25.4813 11.8783L23.2779 12.7191L20.7129 11.8783Z" fill="#272727"/>
<path d="M23.4287 25.637C23.4095 25.6368 23.391 25.6292 23.376 25.6155C23.361 25.6017 23.3504 25.5826 23.3459 25.5611L20.6356 11.8997C20.6322 11.8834 20.6326 11.8663 20.6367 11.8503C20.6409 11.8342 20.6487 11.8197 20.6592 11.8082C20.6698 11.7965 20.6829 11.7883 20.6971 11.7842C20.7113 11.7801 20.7262 11.7803 20.7403 11.7848L23.2749 12.6179L25.453 11.7868C25.4667 11.7813 25.4813 11.78 25.4956 11.7831C25.5098 11.7862 25.5231 11.7935 25.5341 11.8043C25.5452 11.8151 25.5536 11.8291 25.5586 11.8447C25.5637 11.8604 25.5651 11.8773 25.5628 11.8938L24.1282 22.1589L23.5081 25.5592C23.504 25.5807 23.4938 25.6 23.4791 25.6141C23.4644 25.6282 23.4461 25.6363 23.427 25.637H23.4287ZM20.8282 12.0126L23.4253 25.0901L23.9626 22.1297L25.3753 12.0281L23.3053 12.8067C23.2894 12.8125 23.2723 12.8125 23.2563 12.8067L20.8282 12.0126Z" fill="#272727"/>
<path d="M22.3251 13.1454L22.7796 14.2081L22.293 19.6481L23.4707 25.0298L24.417 19.652L23.6752 14.1458L24.0452 13.3108L23.2781 12.7191L22.3251 13.1454Z" fill="#FCFCFC"/>
<path d="M23.4724 25.1271C23.4535 25.127 23.4351 25.1196 23.4202 25.1063C23.4052 25.0929 23.3945 25.0742 23.3896 25.0531L22.2068 19.6734C22.2051 19.6618 22.2051 19.65 22.2068 19.6384L22.6901 14.2275L22.2491 13.1882C22.2445 13.1755 22.2421 13.162 22.2421 13.1483C22.2421 13.1346 22.2445 13.121 22.2491 13.1084C22.2532 13.0957 22.2598 13.0842 22.2682 13.0748C22.2767 13.0653 22.2869 13.0582 22.2981 13.0539L23.2494 12.6276C23.2614 12.6204 23.2747 12.6167 23.2882 12.6167C23.3018 12.6167 23.3151 12.6204 23.3271 12.6276L24.0942 13.2115C24.1111 13.2249 24.1233 13.2449 24.1286 13.2677C24.1338 13.2905 24.1318 13.3148 24.123 13.3361L23.7648 14.1438L24.5015 19.6403C24.5041 19.6512 24.5041 19.6626 24.5015 19.6734L23.5569 25.0531C23.5528 25.0746 23.5426 25.094 23.5279 25.108C23.5132 25.1221 23.4949 25.1302 23.4758 25.131L23.4724 25.1271ZM22.3792 19.6403L23.4623 24.588L24.3325 19.6403L23.5924 14.1535C23.5894 14.1329 23.5924 14.1117 23.6008 14.0932L23.9388 13.3361L23.2629 12.8203L22.4366 13.1901L22.8489 14.1633C22.8568 14.1799 22.8597 14.199 22.8574 14.2178L22.3792 19.6403Z" fill="#272727"/>
<path d="M25.1111 10.981C25.0554 10.981 23.2524 12.7191 23.2524 12.7191L24.3626 14.208L25.4711 11.8724L25.1111 10.981Z" fill="#FCFCFC"/>
<path d="M24.3715 14.3053C24.3594 14.3055 24.3473 14.3027 24.3362 14.297C24.3251 14.2913 24.3152 14.2828 24.3073 14.2722L23.1972 12.7813C23.183 12.7617 23.1757 12.7367 23.1769 12.7112C23.1777 12.6984 23.1808 12.6858 23.1861 12.6745C23.1913 12.6631 23.1985 12.653 23.2073 12.645C25.0254 10.8933 25.066 10.8933 25.1116 10.8933C25.1275 10.8933 25.143 10.8984 25.1564 10.908C25.1699 10.9176 25.1807 10.9314 25.1877 10.9478L25.5577 11.847C25.5639 11.8605 25.5672 11.8755 25.5672 11.8908C25.5672 11.9061 25.5639 11.9211 25.5577 11.9346L24.4492 14.2702C24.4426 14.2841 24.4331 14.296 24.4216 14.3048C24.4102 14.3136 24.397 14.3191 24.3833 14.3208L24.3715 14.3053ZM23.3813 12.7307L24.3563 14.0386L25.3854 11.8762L25.0761 11.123C24.8227 11.3449 23.9643 12.1662 23.3813 12.7307Z" fill="#272727"/>
<path d="M21.1167 10.9655C21.1759 10.9655 23.2779 12.7172 23.2779 12.7172L21.9954 14.2061L20.7129 11.8705L21.1167 10.9655Z" fill="#FCFCFC"/>
<path d="M21.9957 14.3053H21.9872C21.9746 14.3036 21.9624 14.2987 21.9516 14.291C21.9408 14.2832 21.9316 14.2728 21.9247 14.2605L20.6422 11.9249C20.6351 11.9103 20.6313 11.8939 20.6313 11.8772C20.6313 11.8605 20.6351 11.8441 20.6422 11.8295L21.046 10.9147C21.0528 10.8987 21.0634 10.8853 21.0766 10.876C21.0897 10.8667 21.1049 10.8619 21.1204 10.8622C21.1542 10.8622 21.2066 10.8622 23.3322 12.6334C23.3418 12.6421 23.3498 12.653 23.3556 12.6654C23.3614 12.6777 23.365 12.6914 23.366 12.7054C23.3669 12.7192 23.3653 12.7332 23.3612 12.7462C23.3571 12.7593 23.3507 12.7713 23.3424 12.7813L22.0599 14.2722C22.0517 14.2825 22.0418 14.2908 22.0308 14.2965C22.0197 14.3022 22.0078 14.3052 21.9957 14.3053ZM20.8128 11.8743L22.0126 14.0542L23.1514 12.7307C22.4316 12.1312 21.4262 11.3021 21.1542 11.0997L20.8128 11.8743Z" fill="#272727"/>
<path d="M20.7129 11.8783C20.7129 11.8783 23.0532 23.9632 23.4824 25.1836C23.4824 25.1836 18.5585 15.5452 18.5315 15.3564C18.5045 15.1676 19.2378 14.3833 19.2378 14.3833L18.6396 14.0738L19.1787 12.9527L20.7129 11.8783Z" fill="#228B38"/>
<path d="M23.4824 25.2847C23.4678 25.2846 23.4536 25.2803 23.4408 25.2721C23.4281 25.264 23.4174 25.2522 23.4097 25.238C22.2523 22.9724 18.4757 15.5666 18.447 15.3758C18.4183 15.1851 18.7613 14.7705 19.0874 14.4026L18.6075 14.1574C18.5966 14.1519 18.5868 14.1438 18.5787 14.1338C18.5705 14.1238 18.5642 14.1119 18.5602 14.099C18.5557 14.0867 18.5533 14.0735 18.5533 14.0601C18.5533 14.0467 18.5557 14.0335 18.5602 14.0212L19.0992 12.9001C19.1071 12.8855 19.1175 12.8729 19.1297 12.8631L20.6639 11.7945C20.676 11.7878 20.6893 11.7843 20.7028 11.7843C20.7162 11.7843 20.7295 11.7878 20.7417 11.7945C20.7538 11.8007 20.7646 11.8101 20.7731 11.8219C20.7816 11.8338 20.7876 11.8477 20.7907 11.8626C20.8143 11.9833 23.1343 23.9534 23.5551 25.1543C23.5632 25.1768 23.5635 25.2021 23.556 25.2249C23.5484 25.2477 23.5336 25.2664 23.5145 25.2769C23.5044 25.2822 23.4935 25.2849 23.4824 25.2847ZM18.7512 14.027L19.2581 14.2917C19.2708 14.2985 19.2819 14.3087 19.2904 14.3215C19.2989 14.3344 19.3045 14.3494 19.3069 14.3653C19.3092 14.3812 19.3081 14.3975 19.3038 14.4128C19.2994 14.4282 19.2918 14.442 19.2817 14.4532C18.959 14.7997 18.6058 15.2435 18.6058 15.3505C18.6819 15.586 21.6558 21.4348 23.1816 24.4225C22.5057 21.6314 20.8853 13.2543 20.647 12.0359L19.2412 13.0227L18.7512 14.027Z" fill="#272727"/>
<path d="M25.4797 11.8783C25.4797 11.8783 23.9116 23.9632 23.4824 25.1836C23.4824 25.1836 27.6358 15.5452 27.6628 15.3564C27.6899 15.1676 26.9565 14.3833 26.9565 14.3833L27.5547 14.0738L27.0156 12.9527L25.4797 11.8783Z" fill="#228B38"/>
<path d="M23.4823 25.2847C23.4706 25.2875 23.4586 25.2875 23.4469 25.2847C23.4273 25.2741 23.4119 25.2554 23.4038 25.2323C23.3957 25.2092 23.3953 25.1835 23.4029 25.1601C23.8237 23.9631 25.3816 11.9969 25.3968 11.8763C25.3989 11.8605 25.4043 11.8455 25.4126 11.8326C25.4208 11.8197 25.4316 11.8093 25.4441 11.8023C25.4564 11.7951 25.47 11.7914 25.4838 11.7914C25.4976 11.7914 25.5112 11.7951 25.5235 11.8023L27.0595 12.8709C27.0716 12.8802 27.0815 12.893 27.0882 12.9078L27.6289 14.0289C27.6335 14.0412 27.6358 14.0545 27.6358 14.0679C27.6358 14.0812 27.6335 14.0945 27.6289 14.1068C27.6256 14.1198 27.6197 14.1318 27.6118 14.1419C27.604 14.152 27.5942 14.16 27.5833 14.1652L27.1017 14.4143C27.4262 14.7744 27.7675 15.1929 27.7405 15.3875C27.7134 15.5821 24.2478 23.6303 23.5533 25.2438C23.5452 25.2567 23.5345 25.2671 23.5222 25.2742C23.5098 25.2814 23.4962 25.2849 23.4823 25.2847ZM25.5455 12.0495C25.3765 13.2913 24.3188 21.4037 23.7713 24.3115C25.0758 21.2791 27.5191 15.5821 27.5816 15.3583C27.5715 15.2649 27.22 14.8211 26.9057 14.4747C26.8957 14.4635 26.8881 14.4497 26.8837 14.4345C26.8793 14.4192 26.8781 14.4029 26.8804 14.3871C26.8825 14.371 26.8882 14.3558 26.8967 14.3429C26.9053 14.33 26.9165 14.3197 26.9294 14.3131L27.4363 14.0484L26.9514 13.0227L25.5455 12.0495Z" fill="#272727"/>
<path d="M17.9588 31.5248C17.9367 31.5228 17.9161 31.5109 17.9016 31.4916C17.8871 31.4723 17.8797 31.4471 17.8811 31.4216C17.8811 31.3885 18.0923 28.2257 18.1278 27.4958C18.1565 26.8964 18.0416 26.149 17.8676 25.0181C17.8304 24.7748 17.7898 24.5121 17.7476 24.2396C17.5144 22.6728 15.7487 16.2595 15.7318 16.1895C15.7258 16.1652 15.7281 16.1393 15.7384 16.1171C15.7487 16.0948 15.766 16.078 15.7868 16.0702C15.8076 16.0624 15.8302 16.0642 15.8498 16.0752C15.8695 16.0862 15.8847 16.1055 15.8923 16.1291C15.9649 16.3938 17.6783 22.6261 17.92 24.2065C17.9622 24.4887 18.0011 24.7495 18.0399 24.9948C18.2089 26.1392 18.3323 26.8944 18.3018 27.5153C18.2647 28.2491 18.0568 31.408 18.0551 31.445C18.0514 31.4702 18.0392 31.4927 18.0212 31.5076C18.0032 31.5226 17.9808 31.5287 17.9588 31.5248Z" fill="#272727"/>
<path d="M5.65457 29.0548H40.3481L45.9157 38.3097H0.0869141L5.65457 29.0548Z" fill="#FCFCFC"/>
<path d="M45.9153 38.4071H0.0864434C0.071073 38.4069 0.0560275 38.402 0.0429265 38.3927C0.0298255 38.3834 0.0191657 38.3702 0.0120956 38.3545C0.004185 38.3396 0 38.3224 0 38.3049C0 38.2874 0.004185 38.2702 0.0120956 38.2553L5.5882 29.0003C5.59576 28.9871 5.60605 28.9763 5.61815 28.9689C5.63024 28.9614 5.64376 28.9575 5.65748 28.9575H40.3476C40.3613 28.9575 40.3749 28.9614 40.387 28.9689C40.399 28.9763 40.4093 28.9871 40.4169 29.0003L45.9812 38.2553C45.9891 38.2702 45.9933 38.2874 45.9933 38.3049C45.9933 38.3224 45.9891 38.3396 45.9812 38.3545C45.9748 38.3689 45.9655 38.3812 45.954 38.3904C45.9425 38.3996 45.9292 38.4053 45.9153 38.4071ZM0.248657 38.2124H45.7531L40.3037 29.1522H5.69803L0.248657 38.2124Z" fill="#272727"/>
<path d="M45.9134 38.3097H0.138672V40.1062H45.9134V38.3097Z" fill="#FCFCFC"/>
<path d="M45.9156 40.2035H0.139174C0.116767 40.2035 0.0952772 40.1933 0.0794329 40.175C0.0635887 40.1568 0.0546875 40.132 0.0546875 40.1062V38.3097C0.0551201 38.2841 0.064161 38.2596 0.0799125 38.2415C0.095664 38.2233 0.116902 38.2129 0.139174 38.2124H45.9156C45.9379 38.2129 45.9591 38.2233 45.9749 38.2415C45.9906 38.2596 45.9997 38.2841 46.0001 38.3097V40.1062C46.0001 40.132 45.9912 40.1568 45.9754 40.175C45.9595 40.1933 45.938 40.2035 45.9156 40.2035ZM0.22366 40.0089H45.8311V38.407H0.22366V40.0089Z" fill="#272727"/>
<path d="M44.9302 40.1062H1.12402V41.9027H44.9302V40.1062Z" fill="#272727"/>
<path d="M44.9303 42H1.12404C1.10163 42 1.08014 41.9898 1.0643 41.9715C1.04845 41.9533 1.03955 41.9285 1.03955 41.9027V40.1062C1.03955 40.0804 1.04845 40.0557 1.0643 40.0374C1.08014 40.0192 1.10163 40.0089 1.12404 40.0089H44.9303C44.9527 40.0089 44.9742 40.0192 44.99 40.0374C45.0058 40.0557 45.0147 40.0804 45.0147 40.1062V41.9027C45.0143 41.9284 45.0053 41.9528 44.9895 41.971C44.9738 41.9891 44.9525 41.9995 44.9303 42ZM1.20345 41.8054H44.8458V40.2035H1.20345V41.8054Z" fill="#272727"/>
<path d="M42.6846 33.6832H34.8257V36.883H42.6846V33.6832Z" fill="#FCFCFC"/>
<path d="M17.5393 35.8437L19.7107 31.188H8.91497L5.07422 35.8437H17.5393Z" fill="#272727"/>
<path d="M17.5394 35.941H5.07424C5.05756 35.9411 5.04123 35.9356 5.02729 35.925C5.01336 35.9144 5.00245 35.8994 4.99595 35.8817C4.98944 35.864 4.98763 35.8445 4.99074 35.8256C4.99384 35.8067 5.00173 35.7893 5.01341 35.7756L8.85416 31.1238C8.86181 31.1139 8.87119 31.1061 8.88168 31.1007C8.89216 31.0953 8.90352 31.0926 8.91499 31.0927H19.7107C19.7254 31.0926 19.7398 31.097 19.7526 31.1053C19.7653 31.1137 19.776 31.1257 19.7835 31.1402C19.791 31.1548 19.7951 31.1713 19.7954 31.1882C19.7956 31.2051 19.7921 31.2218 19.785 31.2367L17.6137 35.8904C17.6064 35.9058 17.5957 35.9186 17.5826 35.9275C17.5695 35.9364 17.5546 35.9411 17.5394 35.941ZM5.27025 35.7464H17.4887L19.5704 31.2853H8.95048L5.27025 35.7464Z" fill="#272727"/>
<path d="M17.5393 27.815C17.5393 30.6878 14.6178 33.6774 14.6178 33.6774L10.7061 32.5719L13.9807 26.9878C13.9807 26.9878 17.5393 24.948 17.5393 27.815Z" fill="#228B38"/>
<path d="M2.92529 26.5323H15.3904L17.5398 35.8437H5.07463L2.92529 26.5323Z" fill="#FCFCFC"/>
<path d="M17.5395 35.9411H5.0744C5.05575 35.9407 5.03767 35.9336 5.02279 35.9206C5.0079 35.9077 4.99698 35.8896 4.9916 35.869L2.84226 26.5577C2.83921 26.5432 2.83904 26.5281 2.84177 26.5135C2.84449 26.4989 2.85004 26.4852 2.858 26.4734C2.86595 26.4616 2.87612 26.452 2.88773 26.4454C2.89934 26.4388 2.9121 26.4352 2.92506 26.4351H15.3969C15.4156 26.4356 15.4336 26.4431 15.4482 26.4565C15.4628 26.4698 15.4733 26.4882 15.4781 26.509L17.6274 35.8184C17.6308 35.8328 17.6312 35.8478 17.6286 35.8624C17.6259 35.877 17.6203 35.8906 17.6122 35.9021C17.6038 35.915 17.5928 35.9254 17.5801 35.9321C17.5674 35.9389 17.5535 35.942 17.5395 35.9411ZM5.13861 35.7464H17.4246L15.3192 26.6297H3.03489L5.13861 35.7464Z" fill="#272727"/>
<path d="M30.2411 14.4182C30.2411 14.4182 34.0227 21.3492 34.4806 22.0752C35.6634 20.1502 37.4478 17.0614 37.4478 17.0614L39.9739 19.5624C39.9739 19.5624 36.5438 28.321 34.0801 27.4569C31.6165 26.5927 27.6592 20.7049 27.6592 20.7049L30.2411 14.4182Z" fill="#228B38"/>
<path d="M28.5771 24.368H28.5568C28.5354 24.3616 28.5171 24.3457 28.5057 24.3239C28.4943 24.3021 28.4908 24.276 28.496 24.2512L29.8477 17.8944C29.8501 17.8819 29.8546 17.8702 29.8611 17.8598C29.8675 17.8494 29.8758 17.8407 29.8853 17.8341C29.8948 17.8275 29.9053 17.8233 29.9163 17.8216C29.9273 17.8199 29.9385 17.8209 29.9491 17.8243C29.9708 17.8304 29.9896 17.846 30.0013 17.8679C30.013 17.8898 30.0167 17.9161 30.0117 17.9411L28.6599 24.296C28.655 24.3169 28.6442 24.3353 28.6292 24.3483C28.6142 24.3614 28.5959 24.3683 28.5771 24.368Z" fill="#272727"/>
<path d="M15.8637 2.02966H3.10791V13.1628H15.8637V2.02966Z" fill="#FCFCFC"/>
<path d="M15.8637 13.2582H3.10792C3.08552 13.2582 3.06403 13.248 3.04818 13.2297C3.03234 13.2115 3.02344 13.1867 3.02344 13.1609V2.02969C3.02344 2.00388 3.03234 1.97913 3.04818 1.96088C3.06403 1.94263 3.08552 1.93237 3.10792 1.93237H15.8637C15.8861 1.93237 15.9076 1.94263 15.9234 1.96088C15.9393 1.97913 15.9482 2.00388 15.9482 2.02969V13.1609C15.9482 13.1867 15.9393 13.2115 15.9234 13.2297C15.9076 13.248 15.8861 13.2582 15.8637 13.2582ZM3.19072 13.0636H15.7775V2.12312H3.19241L3.19072 13.0636Z" fill="#D1D3D4"/>
<path d="M6.91317 10.7221C6.89262 10.7217 6.87219 10.7185 6.85234 10.7124L6.69857 10.6618L6.28797 10.5255C6.25983 10.515 6.23267 10.5013 6.20686 10.4846C6.16133 10.4605 6.12332 10.4209 6.09794 10.3712C6.07256 10.3214 6.06103 10.2639 6.06492 10.2063L6.10379 9.77228C6.10379 9.73335 6.10379 9.69053 6.10379 9.6516C6.10548 9.62994 6.10251 9.60812 6.09514 9.58809C6.08778 9.56807 6.07624 9.55044 6.06154 9.53677C5.96354 9.45113 5.86892 9.36354 5.77429 9.27596L5.74219 9.24676C5.72288 9.22781 5.69939 9.21541 5.67433 9.21094C5.64927 9.20647 5.62362 9.21011 5.60025 9.22146L5.35186 9.31294L5.24034 9.35186H5.22344C5.18798 9.37146 5.14937 9.3823 5.11006 9.38369C5.07076 9.38509 5.03163 9.377 4.9952 9.35996C4.95877 9.34292 4.92583 9.31729 4.8985 9.28472C4.87117 9.25216 4.85005 9.21337 4.83649 9.17085C4.75707 9.0132 4.67766 8.84192 4.57965 8.61419C4.54484 8.55207 4.53226 8.47684 4.54455 8.40427C4.55683 8.3317 4.59303 8.26743 4.64555 8.22492C4.75369 8.11398 4.84494 8.03029 4.9328 7.94854C4.9688 7.92226 4.99697 7.88396 5.01358 7.83875C5.03018 7.79354 5.03443 7.74357 5.02574 7.69551C5.01222 7.60014 5.00208 7.50088 4.99194 7.41135L4.97505 7.24591C4.97161 7.23095 4.9648 7.21731 4.9553 7.20637C4.94581 7.19543 4.93396 7.18758 4.92098 7.18362L4.77904 7.09604L4.58303 6.96952C4.48638 6.92373 4.40722 6.83946 4.35999 6.73207C4.35922 6.72236 4.35922 6.71259 4.35999 6.70287V6.64838C4.35917 6.63737 4.35917 6.6263 4.35999 6.61529L4.3904 6.4771C4.41406 6.37005 4.43771 6.26105 4.46306 6.15205C4.48334 6.07225 4.5053 5.99051 4.52727 5.91071C4.54485 5.84194 4.58179 5.78187 4.63226 5.73994C4.68274 5.69801 4.74388 5.6766 4.80608 5.67909C4.87873 5.67909 4.9497 5.67909 5.02236 5.69855H5.12881H5.17444C5.21154 5.70231 5.24886 5.70231 5.28596 5.69855C5.30707 5.69666 5.32742 5.68863 5.3451 5.6752C5.46338 5.52338 5.57321 5.36962 5.66446 5.23727C5.67187 5.22072 5.67573 5.20236 5.67573 5.18374C5.67573 5.16512 5.67187 5.14677 5.66446 5.13022C5.64925 5.06599 5.63235 5.00176 5.61377 4.93558L5.55125 4.69423C5.53299 4.63146 5.5233 4.5658 5.52252 4.4996C5.52139 4.46261 5.52766 4.42582 5.54085 4.39207C5.55403 4.35832 5.57378 4.32852 5.59856 4.30496C5.7892 4.13484 6.00114 3.999 6.22714 3.90207C6.27535 3.88026 6.32839 3.87701 6.37834 3.89279C6.42829 3.90858 6.47246 3.94256 6.50425 3.98965L6.60057 4.11617C6.65971 4.19207 6.71716 4.26993 6.76954 4.34973C6.78516 4.38775 6.81105 4.41892 6.84334 4.43857C6.87563 4.45822 6.91258 4.46529 6.94865 4.45873C7.03821 4.44121 7.12945 4.42953 7.2207 4.41785L7.36771 4.39644C7.38011 4.3947 7.39191 4.38931 7.40197 4.38079C7.41203 4.37227 7.42002 4.3609 7.42516 4.34778L7.4995 4.19013L7.57216 4.03442C7.60258 3.97019 7.63299 3.90596 7.66679 3.83978C7.69309 3.78361 7.73514 3.73936 7.78608 3.71427C7.83703 3.68917 7.89385 3.6847 7.94728 3.70159C8.14667 3.75998 8.34606 3.82227 8.54376 3.89623C8.59883 3.91514 8.64662 3.95519 8.6792 4.00971C8.71178 4.06424 8.72719 4.12996 8.72287 4.19597C8.72287 4.28161 8.71273 4.3653 8.70597 4.45094L8.69583 4.57356C8.69583 4.63 8.69583 4.68645 8.69583 4.74289C8.69428 4.76577 8.69762 4.78874 8.70558 4.80978C8.71353 4.83083 8.72585 4.84929 8.74146 4.86357L8.81918 4.93558C8.90367 5.01344 8.98816 5.09129 9.07095 5.17304C9.09084 5.19482 9.11568 5.20968 9.14259 5.21588C9.16951 5.22208 9.19739 5.21937 9.22303 5.20807L9.41904 5.13606L9.62856 5.0621C9.6909 5.03311 9.76046 5.03246 9.82319 5.06028C9.88592 5.0881 9.93714 5.14231 9.96651 5.21197C10.06 5.39492 10.1496 5.57983 10.2352 5.76668C10.2759 5.83724 10.2907 5.92348 10.2765 6.0066C10.2622 6.08972 10.2201 6.16299 10.1591 6.21045C10.1186 6.25327 10.0763 6.29414 10.0324 6.33501L9.94961 6.41481C9.9023 6.46347 9.85668 6.51213 9.81105 6.56468C9.80055 6.57642 9.7925 6.59075 9.78752 6.6066C9.78255 6.62245 9.78077 6.6394 9.78233 6.65616L9.79247 6.75932C9.80261 6.89167 9.81443 7.02208 9.82964 7.14859C9.83193 7.1779 9.84097 7.20598 9.85582 7.22993C9.87067 7.25388 9.8908 7.27283 9.91413 7.28483L10.0189 7.34322L10.1625 7.42497C10.2166 7.45806 10.2707 7.4892 10.3214 7.52813C10.3713 7.56137 10.4099 7.61324 10.4308 7.67517C10.4517 7.7371 10.4536 7.80538 10.4363 7.86874C10.3873 8.07505 10.3349 8.28137 10.2825 8.48768C10.2725 8.52285 10.2595 8.55676 10.2436 8.58889C10.2222 8.64061 10.1876 8.68358 10.1444 8.71209C10.1013 8.7406 10.0516 8.7533 10.002 8.74849L9.62011 8.71151H9.58632C9.54816 8.70327 9.50872 8.70875 9.47336 8.7272C9.43799 8.74566 9.40841 8.77619 9.38862 8.81467C9.343 8.88863 9.29062 8.9587 9.23992 9.02877L9.17741 9.11441C9.15399 9.14502 9.13843 9.18253 9.13246 9.22275C9.12649 9.26296 9.13035 9.3043 9.14361 9.34213C9.18585 9.48032 9.22472 9.61851 9.2602 9.7606C9.27466 9.79718 9.28259 9.83674 9.2835 9.87692C9.28442 9.9171 9.27832 9.95708 9.26555 9.99449C9.25278 10.0319 9.23361 10.066 9.20918 10.0947C9.18474 10.1234 9.15555 10.1461 9.12333 10.1615C8.97464 10.2608 8.81073 10.3562 8.61642 10.4788C8.56293 10.5183 8.4985 10.5332 8.43591 10.5206C8.37333 10.508 8.31713 10.4688 8.27847 10.4107C8.21595 10.3348 8.1585 10.255 8.1095 10.1752L8.07063 10.1226C7.93883 9.94161 7.93376 9.93966 7.73269 9.97081L7.46233 10.0117C7.43282 10.0146 7.40449 10.0263 7.38017 10.0458C7.35585 10.0653 7.3364 10.0918 7.32377 10.1226L7.27815 10.2297C7.24604 10.3056 7.21394 10.3795 7.18015 10.4535C7.15046 10.5154 7.11596 10.574 7.07707 10.6287C7.05741 10.6572 7.03253 10.6804 7.00419 10.6965C6.97586 10.7127 6.94478 10.7214 6.91317 10.7221ZM5.65094 9.01515C5.71998 9.01485 5.78693 9.04239 5.84019 9.093L5.87229 9.12414L6.15786 9.38495C6.19223 9.41577 6.21989 9.45538 6.23866 9.50065C6.25743 9.54592 6.26679 9.5956 6.266 9.64576C6.266 9.69248 6.266 9.74114 6.266 9.78785L6.2339 10.2219C6.2339 10.253 6.2339 10.2803 6.28121 10.3075C6.29865 10.3204 6.31737 10.3309 6.33697 10.3387L6.74589 10.4749L6.90134 10.5255C6.91486 10.5255 6.93006 10.5255 6.95203 10.5002C6.98484 10.4563 7.01371 10.4087 7.03821 10.3581C7.07031 10.2861 7.10242 10.2122 7.13283 10.1401L7.18015 10.0311C7.2052 9.9721 7.24282 9.92133 7.2895 9.88355C7.33618 9.84577 7.39041 9.82222 7.44712 9.8151L7.71748 9.77228C7.9777 9.73335 8.04022 9.77228 8.20919 9.99416L8.24636 10.0467C8.30213 10.1226 8.35789 10.2005 8.41534 10.2744C8.42194 10.2869 8.43075 10.2976 8.44119 10.3058C8.45163 10.314 8.46347 10.3196 8.47592 10.3222C8.48838 10.3247 8.50116 10.3242 8.51343 10.3207C8.52571 10.3172 8.5372 10.3107 8.54714 10.3017C8.73301 10.1907 8.89522 10.0876 9.04223 9.99027C9.12164 9.93577 9.1284 9.91631 9.10137 9.80926C9.06757 9.67107 9.02702 9.53677 8.98816 9.40052C8.96511 9.33168 8.95875 9.25691 8.96977 9.18423C8.98078 9.11154 9.00875 9.04368 9.05068 8.9879L9.11319 8.90031C9.1622 8.83413 9.2112 8.76796 9.25513 8.70567C9.29277 8.63769 9.34702 8.58404 9.41106 8.55148C9.4751 8.51893 9.54608 8.50892 9.61505 8.52272H9.6387L10.0189 8.56164C10.035 8.56365 10.0513 8.55937 10.0651 8.54949C10.0788 8.53962 10.0894 8.52471 10.0949 8.50715C10.1073 8.48617 10.117 8.46322 10.1237 8.43902C10.176 8.23271 10.2267 8.02834 10.2774 7.82203C10.2846 7.79816 10.2839 7.7721 10.2755 7.74879C10.2671 7.72547 10.2515 7.70652 10.2318 7.69551C10.1862 7.66243 10.1389 7.63323 10.0899 7.60404L9.94792 7.52424L9.84147 7.4639C9.79513 7.43629 9.75544 7.39588 9.72595 7.3463C9.69647 7.29671 9.6781 7.23949 9.6725 7.17973C9.65898 7.04738 9.64715 6.91503 9.63532 6.79046V6.6873C9.63051 6.64184 9.63487 6.59571 9.64806 6.5525C9.66124 6.50929 9.68291 6.47016 9.71136 6.43817C9.75867 6.38172 9.80767 6.32917 9.85837 6.27857L9.94623 6.19487C9.98679 6.15595 10.0257 6.11897 10.0645 6.07809C10.1355 6.00219 10.1406 5.96715 10.0966 5.86983C10.0104 5.6752 9.92765 5.50197 9.83133 5.32096C9.82591 5.30559 9.81776 5.29169 9.80739 5.28017C9.79702 5.26865 9.78468 5.25976 9.77114 5.25408C9.75761 5.24839 9.74319 5.24604 9.72882 5.24716C9.71445 5.24829 9.70044 5.25288 9.6877 5.26062L9.48325 5.33264L9.28217 5.40465C9.22953 5.4261 9.17283 5.43073 9.11809 5.41805C9.06335 5.40537 9.01261 5.37586 8.97126 5.33264C8.89184 5.25284 8.80229 5.17498 8.72456 5.09908L8.64852 5.02706C8.61305 4.99464 8.58465 4.95311 8.56558 4.9058C8.54651 4.85849 8.5373 4.80671 8.53869 4.75457C8.53869 4.69229 8.53869 4.63195 8.53869 4.55994C8.53869 4.48792 8.53869 4.47624 8.55052 4.43342C8.55052 4.35362 8.56403 4.27382 8.56572 4.19402C8.56741 4.11422 8.54714 4.0967 8.50658 4.08503C8.31057 4.0169 8.11457 3.95657 7.91687 3.89039C7.88814 3.88066 7.85435 3.88066 7.82224 3.94099C7.79014 4.00133 7.76141 4.06167 7.73269 4.12395L7.66003 4.27771L7.58399 4.43926C7.56591 4.4788 7.53994 4.51283 7.50821 4.53854C7.47649 4.56426 7.43991 4.58093 7.4015 4.58719L7.2528 4.60665C7.16325 4.61833 7.07369 4.63 6.98583 4.64558C6.92247 4.65947 6.85698 4.6522 6.7971 4.6246C6.73722 4.59701 6.68544 4.55026 6.64788 4.48987C6.59381 4.41201 6.53636 4.33611 6.47891 4.26214L6.3809 4.13368C6.37119 4.11657 6.35648 4.10402 6.33944 4.09831C6.32239 4.0926 6.30413 4.0941 6.28797 4.10254C6.07812 4.19398 5.88112 4.32056 5.70332 4.47819C5.70219 4.49113 5.70219 4.50417 5.70332 4.51712C5.70389 4.56617 5.71131 4.6148 5.72529 4.66115C5.74557 4.74095 5.76584 4.82075 5.78781 4.8986L5.8385 5.09324C5.85346 5.1404 5.8579 5.19113 5.85141 5.24079C5.84491 5.29044 5.82769 5.33742 5.80133 5.37741C5.70839 5.5117 5.59687 5.66936 5.4769 5.82507C5.43096 5.87543 5.37119 5.90572 5.30792 5.91071C5.25962 5.91665 5.21091 5.91665 5.16261 5.91071H5.12036L5.01053 5.89903C4.94294 5.89903 4.87366 5.88346 4.80608 5.88151C4.78014 5.87898 4.7543 5.88749 4.73344 5.90542C4.71258 5.92336 4.69814 5.94947 4.69286 5.97883C4.6709 6.05668 4.65062 6.13259 4.63203 6.21045C4.60669 6.3175 4.58303 6.42649 4.55937 6.53354L4.53234 6.65616V6.67757C4.5682 6.73415 4.61665 6.77853 4.67259 6.80603L4.87366 6.92865L5.0156 7.01429C5.0518 7.03632 5.08274 7.06825 5.10572 7.10728C5.1287 7.14631 5.14301 7.19124 5.1474 7.23812L5.16599 7.40551C5.17444 7.49699 5.18457 7.60014 5.1964 7.68384C5.20983 7.76632 5.20231 7.85152 5.17473 7.9292C5.14716 8.00689 5.1007 8.07375 5.04095 8.12177C4.95646 8.19573 4.87197 8.28137 4.76383 8.38842C4.70638 8.44681 4.703 8.46822 4.73511 8.54218C4.83311 8.76601 4.90408 8.93145 4.98688 9.09105C5.04771 9.21173 5.06122 9.21757 5.18457 9.17864L5.30623 9.13387L5.55294 9.04434C5.58405 9.02867 5.61713 9.01881 5.65094 9.01515ZM7.39812 8.74071C7.067 8.73947 6.74837 8.59489 6.50548 8.33566C6.26259 8.07643 6.11318 7.72149 6.08689 7.34128C6.0727 7.14248 6.0932 6.94242 6.14718 6.75289C6.20116 6.56336 6.28752 6.38818 6.40118 6.23769C6.56866 6.00637 6.79237 5.83801 7.04355 5.75425C7.29473 5.67049 7.56192 5.67515 7.81078 5.76763C8.05965 5.86012 8.27882 6.0362 8.44014 6.27326C8.60147 6.51032 8.69757 6.79753 8.71611 7.09798C8.74738 7.48003 8.64591 7.86078 8.43392 8.1568C8.3206 8.3203 8.17903 8.4549 8.01818 8.55206C7.85733 8.64923 7.6807 8.70684 7.4995 8.72125L7.39812 8.74071ZM7.38798 5.87957H7.29505C6.99657 5.91648 6.72217 6.08533 6.5296 6.35058C6.43084 6.48196 6.35565 6.63456 6.30838 6.79959C6.26111 6.96462 6.24268 7.13881 6.25417 7.31208C6.27238 7.577 6.35919 7.82951 6.50338 8.03696C6.64757 8.24441 6.84249 8.39722 7.06292 8.47564C7.28335 8.55406 7.51914 8.55446 7.73977 8.47679C7.9604 8.39913 8.15572 8.24697 8.30044 8.04002C8.39247 7.91157 8.4615 7.76339 8.50356 7.60404C8.54561 7.44469 8.55985 7.27733 8.54545 7.11161C8.52482 6.77516 8.39361 6.46043 8.17856 6.23152C7.96351 6.00261 7.68079 5.87675 7.38798 5.87957Z" fill="#D1D3D4"/>
<path d="M12.1987 11.8315H12.1717C12.0957 11.8218 12.0213 11.8062 11.947 11.7906L11.8557 11.7712C11.8151 11.7645 11.778 11.7412 11.7513 11.7053C11.7245 11.6695 11.71 11.6237 11.7104 11.5765C11.7104 11.5434 11.7104 11.5084 11.7104 11.4753V11.376C11.713 11.3573 11.713 11.3383 11.7104 11.3196C11.6796 11.2536 11.6309 11.2009 11.5717 11.1697C11.5126 11.1384 11.4462 11.1302 11.3826 11.1464L11.3285 11.1795C11.2914 11.2009 11.2559 11.2242 11.217 11.2417C11.1899 11.256 11.1599 11.2617 11.1303 11.2582C11.1006 11.2548 11.0722 11.2424 11.048 11.2223C10.9318 11.1135 10.8402 10.974 10.7811 10.8155L10.7709 10.7727C10.7667 10.7496 10.7667 10.7257 10.7709 10.7026V10.689C10.7765 10.6634 10.7856 10.6391 10.798 10.617C10.8217 10.5751 10.8488 10.536 10.8791 10.5002C10.9262 10.4552 10.9572 10.3917 10.9659 10.3219C10.9747 10.2521 10.9606 10.1811 10.9264 10.1226C10.8961 10.0801 10.8588 10.045 10.8165 10.0194C10.7821 9.99823 10.7465 9.97938 10.7101 9.96299L10.6476 9.93379C10.6124 9.91723 10.583 9.88747 10.5643 9.84932C10.5456 9.81118 10.5386 9.76688 10.5445 9.72359V9.65547C10.558 9.54647 10.5698 9.43942 10.5884 9.33237C10.597 9.29812 10.6129 9.26694 10.6348 9.24174C10.6567 9.21655 10.6837 9.19817 10.7135 9.18834C10.769 9.17481 10.8257 9.16828 10.8824 9.16888C10.9228 9.16902 10.9625 9.15662 10.9973 9.13299C11.0321 9.10936 11.0607 9.07536 11.0801 9.03458C11.1149 8.99308 11.1361 8.93896 11.1401 8.88146C11.1442 8.82395 11.1307 8.76663 11.1021 8.71927C10.9788 8.47597 11.0109 8.40785 11.1967 8.24241C11.2288 8.21127 11.2626 8.18402 11.2964 8.15677L11.3691 8.09644C11.3965 8.06892 11.4316 8.05376 11.4679 8.05376C11.5043 8.05376 11.5394 8.06892 11.5668 8.09644L11.6682 8.19375L11.7493 8.27161C11.762 8.28521 11.7774 8.29513 11.7942 8.30054C11.8109 8.30596 11.8285 8.30671 11.8456 8.30275L11.9098 8.28523L11.9706 8.26966C12.007 8.26424 12.0408 8.24536 12.067 8.21588C12.0932 8.18639 12.1104 8.14788 12.116 8.10617C12.1886 7.81227 12.2646 7.77529 12.4539 7.81616H12.5012L12.6094 7.84341L12.6854 7.86093C12.7266 7.86666 12.7645 7.88968 12.792 7.92557C12.8194 7.96147 12.8344 8.00775 12.8341 8.05556L12.8442 8.1704C12.8442 8.22684 12.8561 8.28134 12.8594 8.33778C12.8628 8.39423 12.8594 8.37282 12.8814 8.38644L12.9253 8.41758C13.0943 8.53826 13.0943 8.53826 13.2633 8.44094L13.2886 8.42732C13.3115 8.40907 13.3373 8.39639 13.3645 8.39003C13.3918 8.38367 13.4198 8.38377 13.447 8.39032C13.4742 8.39688 13.5 8.40976 13.5227 8.42817C13.5454 8.44657 13.5647 8.47013 13.5793 8.49738C13.6232 8.55578 13.6621 8.61806 13.7009 8.68034L13.7499 8.75625C13.7779 8.79201 13.7935 8.83848 13.7935 8.88666C13.7935 8.93483 13.7779 8.9813 13.7499 9.01706L13.7381 9.03263C13.6823 9.11243 13.6249 9.19029 13.5691 9.27398C13.5743 9.33625 13.5856 9.39764 13.6029 9.45694L13.6164 9.51533C13.6213 9.53825 13.6316 9.55914 13.6463 9.57564C13.6609 9.59215 13.6792 9.60362 13.6992 9.60875C13.7705 9.63356 13.839 9.66752 13.9037 9.70996C13.9323 9.73074 13.9559 9.75943 13.9725 9.79343C13.989 9.82742 13.9979 9.86564 13.9983 9.9046C13.9928 10.0286 13.981 10.152 13.9628 10.2744C13.9569 10.3294 13.9334 10.3799 13.8968 10.416C13.8602 10.452 13.8132 10.4709 13.7651 10.469C13.7477 10.4708 13.7302 10.4708 13.7127 10.469C13.6463 10.462 13.5798 10.4811 13.524 10.5232C13.4681 10.5652 13.4263 10.6278 13.4052 10.7007C13.3941 10.7211 13.3875 10.7445 13.3861 10.7685C13.3846 10.7926 13.3883 10.8168 13.3968 10.8388L13.4187 10.9011L13.4694 11.0335C13.4928 11.0826 13.4994 11.14 13.4878 11.1944C13.4762 11.2489 13.4474 11.2963 13.4069 11.3274C13.3275 11.3936 13.2498 11.4617 13.172 11.522C13.1391 11.5547 13.0965 11.5716 13.0531 11.5691C13.0096 11.5665 12.9687 11.5448 12.9388 11.5084L12.8729 11.4442L12.7766 11.3468C12.7668 11.3331 12.7538 11.3229 12.7392 11.3174C12.7245 11.3119 12.7088 11.3113 12.6938 11.3157H12.6617C12.6072 11.3271 12.5535 11.3433 12.5012 11.3644C12.4837 11.3754 12.4696 11.3924 12.4607 11.413C12.4371 11.4683 12.4189 11.5264 12.4066 11.5863C12.4032 11.649 12.3803 11.7083 12.3422 11.7533C12.304 11.7983 12.2531 11.826 12.1987 11.8315ZM11.4232 10.9401C11.4929 10.9409 11.5615 10.9595 11.6242 10.9946C11.6766 11.0196 11.7237 11.0572 11.7625 11.1048C11.8012 11.1525 11.8307 11.2091 11.849 11.2709C11.8549 11.3023 11.8583 11.3342 11.8591 11.3663V11.4636V11.559L11.9605 11.594C12.0298 11.6096 12.1007 11.6252 12.1717 11.633C12.1869 11.633 12.219 11.633 12.2359 11.5648C12.2523 11.4911 12.275 11.4194 12.3035 11.3507C12.3316 11.2893 12.3768 11.2406 12.4319 11.2125C12.4931 11.1877 12.5558 11.1682 12.6195 11.1542H12.6499C12.6916 11.1436 12.7349 11.1453 12.7759 11.1588C12.8169 11.1724 12.8543 11.1976 12.8848 11.232C12.9152 11.2651 12.9456 11.2943 12.976 11.3235L13.0436 11.3916H13.0622L13.3004 11.197C13.3173 11.1814 13.3241 11.1775 13.3089 11.1386C13.2937 11.0997 13.2734 11.0491 13.2565 11.0023L13.2345 10.942C13.2165 10.8937 13.2082 10.8412 13.2102 10.7886C13.2123 10.736 13.2246 10.6847 13.2464 10.6384C13.2836 10.527 13.352 10.433 13.4407 10.3713C13.5294 10.3096 13.6335 10.2837 13.7364 10.2978H13.7736C13.804 10.2978 13.8057 10.2861 13.8074 10.2686C13.8247 10.1527 13.836 10.0357 13.8412 9.91822L13.8293 9.89876C13.7753 9.86553 13.7188 9.83817 13.6604 9.81701C13.6137 9.80246 13.5713 9.77388 13.5375 9.7342C13.5036 9.69452 13.4796 9.64518 13.4677 9.59124L13.4525 9.53285C13.4373 9.47056 13.4238 9.41023 13.412 9.33821C13.4046 9.28012 13.4167 9.22099 13.4458 9.17277C13.5015 9.08713 13.5607 9.00538 13.6147 8.92558L13.6266 8.90807V8.8886L13.5759 8.81075C13.5404 8.75236 13.5032 8.69397 13.4627 8.63947C13.4221 8.58497 13.4272 8.59665 13.4238 8.5947C13.4066 8.60147 13.3896 8.60926 13.3731 8.61806L13.3478 8.63363C13.1044 8.76598 13.0723 8.76403 12.8408 8.59859L12.7969 8.56745C12.7674 8.54721 12.7426 8.51883 12.7249 8.48486C12.7072 8.45089 12.6971 8.41239 12.6955 8.37282C12.6955 8.32027 12.6871 8.26771 12.682 8.21711C12.6769 8.1665 12.6736 8.13536 12.6702 8.09644C12.6399 8.08338 12.6089 8.07297 12.5772 8.06529C12.5451 8.06529 12.5113 8.04778 12.4776 8.04194L12.4269 8.03026C12.3221 8.00885 12.3204 8.00885 12.2782 8.18207C12.2631 8.25387 12.2307 8.31926 12.1846 8.37061C12.1385 8.42196 12.0807 8.45715 12.0179 8.47208L11.9605 8.48571L11.8912 8.50517C11.8494 8.51544 11.806 8.51428 11.7647 8.50177C11.7233 8.48927 11.685 8.46577 11.653 8.43315L11.5719 8.3553L11.4755 8.26188L11.4063 8.31832C11.3742 8.34362 11.3421 8.36893 11.3116 8.39618C11.2735 8.42602 11.2394 8.46208 11.2103 8.50322C11.2201 8.54655 11.2367 8.58744 11.2593 8.6239C11.3039 8.70305 11.3253 8.79659 11.3205 8.8908C11.3156 8.98502 11.2847 9.07497 11.2322 9.14747C11.1965 9.21376 11.1468 9.26853 11.0877 9.30666C11.0285 9.34478 10.962 9.36501 10.8943 9.36546C10.8495 9.36393 10.8047 9.36851 10.7608 9.37908C10.7422 9.47445 10.7287 9.57372 10.7169 9.68271L10.7084 9.75278L10.7692 9.78393C10.8136 9.80327 10.8566 9.8267 10.8977 9.85399C10.9657 9.89455 11.0238 9.95411 11.0666 10.0272C11.1192 10.1222 11.1408 10.2356 11.1275 10.3472C11.1141 10.4588 11.0668 10.5613 10.994 10.6364C10.9704 10.6643 10.9494 10.695 10.9315 10.7279C10.9315 10.7279 10.9315 10.7279 10.9315 10.7415C10.976 10.8655 11.0462 10.9751 11.1359 11.0607C11.1693 11.0474 11.2016 11.0304 11.2322 11.0101L11.2931 10.9731C11.3338 10.9514 11.3782 10.9401 11.4232 10.9401ZM12.2967 10.7026C12.0937 10.7044 11.8984 10.6133 11.7538 10.4492C11.6091 10.2851 11.527 10.0616 11.5254 9.82772C11.5238 9.59388 11.603 9.3689 11.7454 9.20227C11.8878 9.03564 12.0819 8.94101 12.2849 8.93921C12.3863 8.94022 12.4864 8.96425 12.5797 9.00992C12.6729 9.05559 12.7574 9.122 12.8284 9.20534C12.8993 9.28869 12.9553 9.38734 12.9931 9.49564C13.0309 9.60394 13.0498 9.71976 13.0487 9.83648C13.0478 10.0659 12.9683 10.2856 12.8275 10.4478C12.6866 10.61 12.4959 10.7016 12.2967 10.7026ZM12.2731 9.12995C12.1948 9.13161 12.1175 9.15103 12.0457 9.18709C11.9739 9.22315 11.9089 9.27516 11.8545 9.34013C11.8002 9.40511 11.7574 9.48178 11.7288 9.56577C11.7002 9.64977 11.6862 9.73944 11.6876 9.82967C11.689 9.91989 11.7059 10.0089 11.7372 10.0916C11.7685 10.1744 11.8137 10.2492 11.8701 10.3118C11.9265 10.3744 11.993 10.4236 12.066 10.4566C12.1389 10.4896 12.2167 10.5057 12.2951 10.5041C12.4492 10.5025 12.5966 10.4309 12.7052 10.3048C12.8137 10.1787 12.8746 10.0082 12.8746 9.83064C12.876 9.64668 12.814 9.46962 12.7021 9.33827C12.5903 9.20692 12.4379 9.132 12.2782 9.12995H12.2731Z" fill="#D1D3D4"/>
<path d="M14.5371 4.57752H11.9468C11.9244 4.57752 11.9029 4.56726 11.887 4.549C11.8712 4.53075 11.8623 4.50598 11.8623 4.48016C11.8623 4.45435 11.8712 4.42958 11.887 4.41133C11.9029 4.39307 11.9244 4.38281 11.9468 4.38281H14.5371C14.5596 4.38281 14.581 4.39307 14.5969 4.41133C14.6127 4.42958 14.6216 4.45435 14.6216 4.48016C14.6216 4.49295 14.6194 4.50561 14.6152 4.51742C14.611 4.52923 14.6047 4.53996 14.5969 4.549C14.589 4.55804 14.5797 4.56521 14.5695 4.57011C14.5592 4.575 14.5482 4.57752 14.5371 4.57752Z" fill="#D1D3D4"/>
<path d="M14.5371 5.31128H11.9468C11.9244 5.31128 11.9029 5.30102 11.887 5.28277C11.8712 5.26451 11.8623 5.23975 11.8623 5.21393C11.8623 5.18811 11.8712 5.16335 11.887 5.14509C11.9029 5.12683 11.9244 5.11658 11.9468 5.11658H14.5371C14.5596 5.11658 14.581 5.12683 14.5969 5.14509C14.6127 5.16335 14.6216 5.18811 14.6216 5.21393C14.6216 5.22671 14.6194 5.23937 14.6152 5.25118C14.611 5.263 14.6047 5.27373 14.5969 5.28277C14.589 5.29181 14.5797 5.29898 14.5695 5.30387C14.5592 5.30876 14.5482 5.31128 14.5371 5.31128Z" fill="#D1D3D4"/>
<path d="M14.5371 6.047H11.9468C11.9244 6.047 11.9029 6.03674 11.887 6.01848C11.8712 6.00023 11.8623 5.97547 11.8623 5.94965C11.8623 5.92383 11.8712 5.89907 11.887 5.88081C11.9029 5.86255 11.9244 5.85229 11.9468 5.85229H14.5371C14.5596 5.85229 14.581 5.86255 14.5969 5.88081C14.6127 5.89907 14.6216 5.92383 14.6216 5.94965C14.6216 5.97547 14.6127 6.00023 14.5969 6.01848C14.581 6.03674 14.5596 6.047 14.5371 6.047Z" fill="#D1D3D4"/>
<path d="M45.8561 2.60388H31.3667V12.4602H45.8561V2.60388Z" fill="#FCFCFC"/>
<path d="M45.8578 12.5574H31.3667C31.3444 12.5569 31.3232 12.5465 31.3075 12.5284C31.2917 12.5102 31.2827 12.4858 31.2822 12.4601V2.60379C31.2827 2.57813 31.2917 2.55367 31.3075 2.53552C31.3232 2.51738 31.3444 2.50697 31.3667 2.50647H45.8578C45.8801 2.50697 45.9013 2.51738 45.9171 2.53552C45.9328 2.55367 45.9419 2.57813 45.9423 2.60379V12.4601C45.9419 12.4858 45.9328 12.5102 45.9171 12.5284C45.9013 12.5465 45.8801 12.5569 45.8578 12.5574ZM31.4512 12.3628H45.7733V2.70694H31.4495L31.4512 12.3628Z" fill="#D1D3D4"/>
<path d="M38.6122 9.1027C38.4787 9.1027 38.3435 9.1027 38.2117 9.1027C38.1176 9.1197 38.0214 9.09358 37.9437 9.02993C37.866 8.96627 37.813 8.87014 37.7961 8.76208C37.7042 8.4088 37.5468 8.08273 37.3348 7.80642C37.0343 7.39479 36.8867 6.86329 36.9242 6.32719C37.0002 5.21777 37.769 4.53654 38.7542 4.63191C40.2141 4.77205 40.6483 6.50626 39.8998 7.72468C39.6819 8.03489 39.5188 8.39131 39.4199 8.77376C39.4019 8.87341 39.3518 8.96152 39.2797 9.02037C39.2076 9.07922 39.1189 9.10446 39.0313 9.09102C38.8843 9.09491 38.7508 9.10075 38.6122 9.1027Z" fill="#FCFCFC"/>
<path d="M38.1728 9.20982C38.0656 9.21627 37.9601 9.17784 37.8756 9.10164C37.7911 9.02544 37.7334 8.91661 37.7132 8.79524C37.6248 8.45543 37.4731 8.14191 37.2688 7.87656C36.9527 7.44328 36.7983 6.88345 36.8396 6.31948C36.8513 6.06512 36.9076 5.81612 37.0048 5.58737C37.1021 5.35862 37.2384 5.15482 37.4056 4.98817C37.594 4.81398 37.8104 4.68427 38.0423 4.60645C38.2743 4.52864 38.5173 4.50424 38.7574 4.53467C39.0594 4.54963 39.3521 4.65922 39.604 4.85163C39.8559 5.04404 40.0575 5.31198 40.1869 5.62657C40.319 5.97901 40.3682 6.36525 40.3296 6.74652C40.2911 7.1278 40.1661 7.49067 39.9673 7.79871C39.7569 8.09891 39.5991 8.4433 39.5026 8.81276C39.4784 8.93291 39.417 9.03876 39.3299 9.11044C39.2428 9.18212 39.136 9.21469 39.0295 9.20203C38.9348 9.20203 38.8402 9.20203 38.7456 9.20203H38.4887C38.3958 9.20203 38.3063 9.20203 38.2167 9.20203L38.1728 9.20982ZM38.5749 4.72736C38.1901 4.71698 37.8145 4.86462 37.5155 5.14388C37.3655 5.29438 37.2434 5.47808 37.1563 5.68404C37.0692 5.89001 37.019 6.11405 37.0085 6.34283C36.9721 6.85407 37.1124 7.36119 37.3989 7.75394C37.6172 8.03888 37.7782 8.37584 37.8703 8.74074C37.876 8.78474 37.8893 8.82696 37.9096 8.86479C37.9299 8.90263 37.9567 8.93531 37.9883 8.96081C38.02 8.98632 38.0558 9.00412 38.0936 9.01314C38.1314 9.02215 38.1704 9.02218 38.2083 9.01323C38.3012 9.01323 38.3941 9.01323 38.4904 9.01323H38.7439C38.8402 9.01323 38.9382 9.01323 39.0345 9.01323C39.1028 9.02688 39.173 9.009 39.2299 8.96346C39.2869 8.91793 39.3259 8.8484 39.3387 8.76994C39.4401 8.37548 39.6077 8.0078 39.8321 7.68776C40.0134 7.40756 40.1276 7.07736 40.1632 6.73027C40.1988 6.38319 40.1545 6.03142 40.0349 5.71027C39.9174 5.42979 39.7354 5.19181 39.5087 5.02227C39.282 4.85272 39.0192 4.75812 38.749 4.74877C38.6898 4.73125 38.6324 4.72736 38.5749 4.72736Z" fill="#D1D3D4"/>
<path d="M39.1492 9.09244L38.0695 9.10829C37.9734 9.1097 37.8965 9.20062 37.8977 9.31137L37.8985 9.37756C37.8997 9.48831 37.9786 9.57695 38.0747 9.57554L39.1543 9.55969C39.2505 9.55828 39.3274 9.46736 39.3262 9.35661L39.3254 9.29042C39.3242 9.17967 39.2453 9.09103 39.1492 9.09244Z" fill="#FCFCFC"/>
<path d="M38.0732 9.67908C38.0048 9.67909 37.9391 9.64803 37.8904 9.59264C37.8417 9.53725 37.8139 9.46198 37.813 9.38313V9.32472C37.8126 9.2856 37.8188 9.24676 37.8314 9.21042C37.844 9.17408 37.8626 9.14095 37.8863 9.11293C37.91 9.08491 37.9383 9.06253 37.9695 9.04709C38.0007 9.03165 38.0342 9.02344 38.0682 9.02293L39.1462 9.00541C39.1803 9.00478 39.2142 9.01203 39.2458 9.02675C39.2775 9.04146 39.3062 9.06334 39.3304 9.09108C39.355 9.11835 39.3747 9.15097 39.3884 9.18706C39.402 9.22315 39.4093 9.262 39.4098 9.30136V9.36561C39.4102 9.40473 39.404 9.44357 39.3914 9.47991C39.3788 9.51625 39.3602 9.54938 39.3365 9.5774C39.3128 9.60543 39.2845 9.6278 39.2533 9.64324C39.2221 9.65868 39.1886 9.66689 39.1547 9.6674L38.0766 9.68492L38.0732 9.67908ZM39.153 9.19427L38.0749 9.21179C38.0629 9.21152 38.0511 9.21406 38.04 9.21928C38.0289 9.22449 38.0188 9.23225 38.0105 9.2421C38.0021 9.25195 37.9955 9.26366 37.9912 9.27653C37.9869 9.2894 37.9849 9.30315 37.9854 9.31693V9.38119C37.9858 9.40873 37.9956 9.43498 38.0127 9.45428C38.0297 9.47357 38.0527 9.48438 38.0766 9.48438L39.1547 9.46686C39.1666 9.46713 39.1785 9.46458 39.1896 9.45937C39.2007 9.45416 39.2107 9.44639 39.2191 9.43655C39.2275 9.4267 39.2341 9.41499 39.2384 9.40212C39.2427 9.38925 39.2447 9.3755 39.2442 9.36172V9.29746C39.2433 9.27008 39.2334 9.24411 39.2164 9.22492C39.1995 9.20572 39.1767 9.19475 39.153 9.19427Z" fill="#D1D3D4"/>
<path d="M39.1545 9.56131L38.0749 9.57716C37.9788 9.57857 37.9019 9.66949 37.9031 9.78024L37.9038 9.84643C37.9051 9.95718 37.984 10.0458 38.0801 10.0444L39.1597 10.0286C39.2558 10.0271 39.3328 9.93623 39.3315 9.82548L39.3308 9.75928C39.3296 9.64854 39.2507 9.5599 39.1545 9.56131Z" fill="#FCFCFC"/>
<path d="M38.0781 10.1462C38.0446 10.1464 38.0113 10.139 37.9803 10.1242C37.9492 10.1095 37.921 10.0879 37.8973 10.0605C37.8727 10.0333 37.853 10.0006 37.8393 9.96454C37.8257 9.92844 37.8184 9.8896 37.8179 9.85024V9.78599C37.8174 9.74687 37.8237 9.70803 37.8363 9.67169C37.8489 9.63535 37.8675 9.60222 37.8912 9.5742C37.9149 9.54617 37.9432 9.5238 37.9744 9.50836C38.0056 9.49291 38.0391 9.48471 38.073 9.4842L39.1511 9.46667C39.2197 9.46707 39.2856 9.49773 39.3353 9.55234C39.3599 9.57961 39.3796 9.61223 39.3932 9.64832C39.4069 9.68442 39.4142 9.72326 39.4147 9.76262V9.82687C39.4152 9.90592 39.3887 9.98202 39.341 10.0388C39.2933 10.0956 39.2281 10.1286 39.1595 10.1306L38.0815 10.1462H38.0781ZM39.1579 9.66138L38.0798 9.6789C38.0678 9.67862 38.0559 9.68117 38.0449 9.68638C38.0338 9.69159 38.0237 9.69936 38.0153 9.70921C38.007 9.71905 38.0004 9.73077 37.9961 9.74364C37.9918 9.7565 37.9898 9.77025 37.9902 9.78404V9.84829C37.9904 9.86177 37.9928 9.87508 37.9975 9.88745C38.0021 9.89982 38.0088 9.911 38.0173 9.92033C38.0359 9.93716 38.0581 9.94792 38.0815 9.95148L39.1595 9.93591C39.1715 9.93565 39.1833 9.93268 39.1943 9.92716C39.2053 9.92164 39.2153 9.91369 39.2236 9.90374C39.2319 9.8938 39.2384 9.88206 39.2428 9.86921C39.2472 9.85635 39.2493 9.84263 39.2491 9.82882V9.76457C39.248 9.73756 39.2384 9.71195 39.2221 9.69253C39.2132 9.68236 39.2026 9.67436 39.191 9.66901C39.1794 9.66366 39.167 9.66106 39.1545 9.66138H39.1579Z" fill="#D1D3D4"/>
<path d="M39.1734 10.0311C39.1734 10.2083 38.9284 10.3543 38.6226 10.3582C38.3167 10.3621 38.0666 10.2239 38.0649 10.0487L39.1734 10.0311Z" fill="#FCFCFC"/>
<path d="M38.6074 10.4556C38.2525 10.4556 37.9838 10.2824 37.9805 10.0487C37.9803 10.0233 37.9888 9.99886 38.0041 9.98057C38.012 9.97116 38.0214 9.96371 38.0319 9.95869C38.0424 9.95367 38.0536 9.95117 38.065 9.95136L39.1717 9.93384C39.194 9.93434 39.2152 9.94475 39.231 9.9629C39.2467 9.98105 39.2558 10.0055 39.2562 10.0312C39.2511 10.1003 39.2295 10.1663 39.1937 10.222C39.1578 10.2777 39.1093 10.3209 39.0535 10.3466C38.9199 10.4197 38.7738 10.457 38.6259 10.4556H38.6074ZM38.2086 10.1441C38.3316 10.2331 38.4761 10.274 38.6209 10.2609C38.7428 10.2624 38.8634 10.2324 38.974 10.1733L39.0332 10.1324L38.2086 10.1441Z" fill="#D1D3D4"/>
<path d="M38.3588 8.87105C38.4157 8.37389 38.3997 7.86925 38.3115 7.3782C38.266 7.14105 38.1767 6.91799 38.0496 6.72422C38.0184 6.69045 37.9816 6.66436 37.9414 6.64756C37.9011 6.63076 37.8583 6.6236 37.8156 6.62652C37.7729 6.62943 37.7312 6.64236 37.693 6.66452C37.6547 6.68667 37.6208 6.71759 37.5933 6.75536C37.5627 6.8109 37.5447 6.87448 37.5412 6.94018C37.5376 7.00587 37.5486 7.07153 37.5731 7.13101C37.6234 7.24951 37.6997 7.35083 37.7944 7.42491C37.9923 7.58511 38.2262 7.67588 38.4679 7.68624C38.7096 7.69661 38.9487 7.62612 39.1563 7.4833C39.2933 7.39196 39.4043 7.25671 39.4757 7.09403C39.5116 7.0133 39.5303 6.92391 39.5303 6.83322C39.5303 6.74252 39.5116 6.65313 39.4757 6.57241C39.3895 6.39918 39.2324 6.51401 39.1378 6.62496C38.9536 6.86436 38.9265 7.25363 38.8995 7.55726C38.8634 7.98836 38.8782 8.42311 38.9434 8.84964" fill="#FCFCFC"/>
<path d="M38.3586 8.96833C38.3475 8.96758 38.3367 8.96432 38.3267 8.95873C38.3167 8.95314 38.3077 8.94533 38.3003 8.93574C38.2929 8.92616 38.2873 8.91499 38.2837 8.90288C38.28 8.89077 38.2785 8.87796 38.2792 8.86517V8.81846C38.3104 8.4679 38.3138 8.1148 38.2894 7.76353C38.0937 7.72526 37.9082 7.63606 37.7469 7.50272C37.639 7.4199 37.5525 7.30487 37.4969 7.16989C37.4661 7.09517 37.4525 7.01256 37.4576 6.93004C37.4626 6.84753 37.486 6.76791 37.5256 6.69888C37.5598 6.64821 37.6033 6.6068 37.6529 6.57754C37.7026 6.54829 37.7571 6.53191 37.8128 6.52954C37.8682 6.52412 37.924 6.53301 37.976 6.55557C38.0281 6.57813 38.0751 6.61379 38.1136 6.65995C38.2515 6.86344 38.3474 7.10038 38.3941 7.35285C38.4127 7.43071 38.4279 7.50856 38.4397 7.58836C38.5676 7.5976 38.696 7.58315 38.8199 7.54554V7.51245C38.847 7.20104 38.8825 6.81566 39.0768 6.56263C39.1124 6.511 39.1572 6.46881 39.2082 6.43892C39.2593 6.40903 39.3153 6.39214 39.3725 6.3894C39.4083 6.39481 39.4424 6.41023 39.4719 6.43432C39.5013 6.4584 39.5252 6.49043 39.5415 6.5276C39.5833 6.6219 39.6051 6.7263 39.6051 6.8322C39.6051 6.9381 39.5833 7.0425 39.5415 7.13681C39.4635 7.31573 39.342 7.46455 39.1917 7.565C39.1206 7.61568 39.0453 7.65806 38.9669 7.69152C38.9452 8.07405 38.9628 8.4582 39.0193 8.83598C39.0229 8.86179 39.0174 8.88818 39.0041 8.90935C38.9908 8.93052 38.9708 8.94473 38.9484 8.94886C38.9259 8.95299 38.903 8.9467 38.8847 8.93137C38.8663 8.91604 38.8539 8.89293 38.8503 8.86712C38.7948 8.49838 38.775 8.12369 38.7912 7.74991C38.6801 7.77676 38.5667 7.78787 38.4533 7.783C38.4741 8.13252 38.4696 8.48343 38.4397 8.83208V8.8788C38.4381 8.90258 38.4289 8.92483 38.414 8.94134C38.399 8.95784 38.3793 8.96745 38.3586 8.96833ZM37.8365 6.72418H37.8213C37.7906 6.72434 37.7603 6.73227 37.7326 6.74741C37.7048 6.76254 37.6803 6.78451 37.6608 6.81176C37.6387 6.85364 37.626 6.90122 37.6239 6.95017C37.6219 6.99912 37.6305 7.04789 37.6489 7.09204C37.6932 7.19463 37.7603 7.28192 37.8433 7.34507C37.9679 7.44914 38.1101 7.52207 38.2606 7.55917C38.2522 7.50661 38.242 7.45601 38.2302 7.40346C38.1885 7.18244 38.1054 6.97455 37.9869 6.79425C37.9675 6.77108 37.9441 6.75287 37.9182 6.7408C37.8923 6.72873 37.8644 6.72307 37.8365 6.72418ZM39.3573 6.58404C39.2987 6.59815 39.2465 6.63617 39.2103 6.69109C39.0756 6.92131 39.0028 7.19206 39.0007 7.46963C39.0406 7.44724 39.0796 7.42255 39.1173 7.39567C39.2395 7.31454 39.3391 7.19506 39.4046 7.05117C39.4342 6.98428 39.4497 6.91023 39.4497 6.83512C39.4497 6.76001 39.4342 6.68597 39.4046 6.61907C39.386 6.58209 39.3708 6.58015 39.364 6.58015L39.3573 6.58404Z" fill="#D1D3D4"/>
<path d="M35.657 9.01514H33.604C33.5816 9.01514 33.5601 9.00488 33.5443 8.98662C33.5284 8.96837 33.5195 8.94361 33.5195 8.91779C33.5195 8.89197 33.5284 8.8672 33.5443 8.84895C33.5601 8.83069 33.5816 8.82043 33.604 8.82043H35.657C35.6794 8.82043 35.7009 8.83069 35.7168 8.84895C35.7326 8.8672 35.7415 8.89197 35.7415 8.91779C35.7415 8.94361 35.7326 8.96837 35.7168 8.98662C35.7009 9.00488 35.6794 9.01514 35.657 9.01514Z" fill="#D1D3D4"/>
<path d="M35.657 9.70032H33.604C33.5816 9.70032 33.5601 9.69006 33.5443 9.6718C33.5284 9.65355 33.5195 9.62878 33.5195 9.60297C33.5195 9.57715 33.5284 9.55239 33.5443 9.53413C33.5601 9.51587 33.5816 9.50562 33.604 9.50562H35.657C35.6794 9.50562 35.7009 9.51587 35.7168 9.53413C35.7326 9.55239 35.7415 9.57715 35.7415 9.60297C35.7415 9.62878 35.7326 9.65355 35.7168 9.6718C35.7009 9.69006 35.6794 9.70032 35.657 9.70032Z" fill="#D1D3D4"/>
<path d="M35.657 10.3835H33.604C33.5816 10.3835 33.5601 10.3733 33.5443 10.355C33.5284 10.3368 33.5195 10.312 33.5195 10.2862C33.5195 10.2604 33.5284 10.2356 33.5443 10.2174C33.5601 10.1991 33.5816 10.1888 33.604 10.1888H35.657C35.6794 10.1888 35.7009 10.1991 35.7168 10.2174C35.7326 10.2356 35.7415 10.2604 35.7415 10.2862C35.7415 10.312 35.7326 10.3368 35.7168 10.355C35.7009 10.3733 35.6794 10.3835 35.657 10.3835Z" fill="#D1D3D4"/>
<path d="M35.1179 11.0764H33.5972C33.5748 11.0764 33.5533 11.0662 33.5374 11.0479C33.5216 11.0297 33.5127 11.0049 33.5127 10.9791C33.5127 10.9532 33.5216 10.9285 33.5374 10.9102C33.5533 10.892 33.5748 10.8817 33.5972 10.8817H35.1179C35.1403 10.8817 35.1618 10.892 35.1777 10.9102C35.1935 10.9285 35.2024 10.9532 35.2024 10.9791C35.202 11.0047 35.1929 11.0292 35.1772 11.0474C35.1614 11.0655 35.1402 11.0759 35.1179 11.0764Z" fill="#D1D3D4"/>
<path d="M43.8789 4.58924H41.1753C41.1529 4.58924 41.1314 4.57898 41.1156 4.56072C41.0997 4.54247 41.0908 4.5177 41.0908 4.49188C41.0908 4.46606 41.0997 4.4413 41.1156 4.42305C41.1314 4.40479 41.1529 4.39453 41.1753 4.39453H43.8789C43.9013 4.39453 43.9228 4.40479 43.9386 4.42305C43.9545 4.4413 43.9634 4.46606 43.9634 4.49188C43.9634 4.5177 43.9545 4.54247 43.9386 4.56072C43.9228 4.57898 43.9013 4.58924 43.8789 4.58924Z" fill="#D1D3D4"/>
<path d="M43.8789 5.27429H41.1753C41.1529 5.27429 41.1314 5.26404 41.1156 5.24578C41.0997 5.22752 41.0908 5.20276 41.0908 5.17694C41.0908 5.15112 41.0997 5.12636 41.1156 5.1081C41.1314 5.08985 41.1529 5.07959 41.1753 5.07959H43.8789C43.9013 5.07959 43.9228 5.08985 43.9386 5.1081C43.9545 5.12636 43.9634 5.15112 43.9634 5.17694C43.9634 5.20276 43.9545 5.22752 43.9386 5.24578C43.9228 5.26404 43.9013 5.27429 43.8789 5.27429Z" fill="#D1D3D4"/>
<path d="M43.8789 5.95752H41.1753C41.1529 5.95752 41.1314 5.94727 41.1156 5.92901C41.0997 5.91075 41.0908 5.88599 41.0908 5.86017C41.0908 5.83435 41.0997 5.80959 41.1156 5.79133C41.1314 5.77307 41.1529 5.76282 41.1753 5.76282H43.8789C43.9013 5.76282 43.9228 5.77307 43.9386 5.79133C43.9545 5.80959 43.9634 5.83435 43.9634 5.86017C43.9634 5.88599 43.9545 5.91075 43.9386 5.92901C43.9228 5.94727 43.9013 5.95752 43.8789 5.95752Z" fill="#D1D3D4"/>
<path d="M43.1679 6.64062H41.1724C41.15 6.64062 41.1285 6.63037 41.1126 6.61211C41.0968 6.59385 41.0879 6.56909 41.0879 6.54327C41.0879 6.51745 41.0968 6.49269 41.1126 6.47444C41.1285 6.45618 41.15 6.44592 41.1724 6.44592H43.1679C43.1902 6.44642 43.2115 6.45684 43.2272 6.47499C43.243 6.49314 43.252 6.51761 43.2524 6.54327C43.2524 6.56909 43.2435 6.59385 43.2277 6.61211C43.2118 6.63037 43.1904 6.64062 43.1679 6.64062Z" fill="#D1D3D4"/>
<path d="M43.6934 8.43506H41.1724V10.288H43.6934V8.43506Z" fill="#FCFCFC"/>
<path d="M43.6918 10.3835H41.1724C41.15 10.3835 41.1285 10.3733 41.1126 10.355C41.0968 10.3368 41.0879 10.312 41.0879 10.2862V8.43521C41.0879 8.4094 41.0968 8.38464 41.1126 8.36639C41.1285 8.34814 41.15 8.33789 41.1724 8.33789H43.6918C43.7142 8.33789 43.7357 8.34814 43.7515 8.36639C43.7673 8.38464 43.7762 8.4094 43.7762 8.43521V10.2862C43.7762 10.299 43.7741 10.3116 43.7698 10.3234C43.7656 10.3352 43.7593 10.346 43.7515 10.355C43.7437 10.364 43.7343 10.3712 43.7241 10.3761C43.7138 10.381 43.7029 10.3835 43.6918 10.3835ZM41.2569 10.1889H43.6157V8.53253H41.2501L41.2569 10.1889Z" fill="#D1D3D4"/>
<path d="M41.1719 10.2861L40.7427 11.2071H44.1188L43.6913 10.2861H41.1719Z" fill="#FCFCFC"/>
<path d="M44.1223 11.3045H40.7428C40.7283 11.304 40.7141 11.2993 40.7016 11.2908C40.6891 11.2823 40.6787 11.2704 40.6713 11.256C40.6639 11.2416 40.6597 11.2253 40.6592 11.2086C40.6587 11.1919 40.6619 11.1753 40.6685 11.1604L41.096 10.2414C41.1032 10.2254 41.1141 10.212 41.1275 10.2027C41.1409 10.1934 41.1563 10.1886 41.172 10.1889H43.6914C43.7068 10.1885 43.722 10.1933 43.7352 10.2026C43.7484 10.212 43.759 10.2254 43.7657 10.2414L44.1932 11.1604C44.2007 11.1749 44.2046 11.1913 44.2046 11.2081C44.2046 11.2249 44.2007 11.2414 44.1932 11.2558C44.186 11.2703 44.1757 11.2823 44.1633 11.2908C44.1508 11.2994 44.1367 11.3041 44.1223 11.3045ZM40.8881 11.1098H43.982L43.6441 10.3836H41.221L40.8881 11.1098Z" fill="#D1D3D4"/>
<path d="M33.2271 4.40417V6.88383C33.2271 7.11934 33.832 7.31008 34.5788 7.31008C35.3257 7.31008 35.9306 7.11545 35.9306 6.88383V4.40417H33.2271Z" fill="#FCFCFC"/>
<path d="M34.5772 7.40743C33.8861 7.40743 33.1426 7.24394 33.1426 6.88386V4.4042C33.1426 4.37839 33.1515 4.35364 33.1673 4.33539C33.1832 4.31714 33.2047 4.30688 33.2271 4.30688H35.9306C35.953 4.30688 35.9745 4.31714 35.9904 4.33539C36.0062 4.35364 36.0151 4.37839 36.0151 4.4042V6.88386C36.0117 7.24394 35.2683 7.40743 34.5772 7.40743ZM33.3082 4.50152V6.88386C33.3082 6.9948 33.7543 7.21279 34.5738 7.21279C35.3933 7.21279 35.8428 6.98896 35.8428 6.88386V4.50152H33.3082Z" fill="#D1D3D4"/>
<path d="M34.5772 4.83277C35.3228 4.83277 35.9272 4.64099 35.9272 4.40442C35.9272 4.16785 35.3228 3.97607 34.5772 3.97607C33.8315 3.97607 33.2271 4.16785 33.2271 4.40442C33.2271 4.64099 33.8315 4.83277 34.5772 4.83277Z" fill="#FCFCFC"/>
<path d="M34.5772 4.92811C33.8861 4.92811 33.1426 4.76456 33.1426 4.40436C33.1426 4.04416 33.8861 3.87866 34.5772 3.87866C35.2683 3.87866 36.0117 4.04221 36.0117 4.40436C36.0117 4.76651 35.2683 4.92811 34.5772 4.92811ZM34.5772 4.07337C33.7576 4.07337 33.3116 4.29143 33.3116 4.40436C33.3116 4.51729 33.7576 4.73341 34.5772 4.73341C35.3967 4.73341 35.8428 4.51534 35.8428 4.40436C35.8428 4.29338 35.3967 4.06947 34.5772 4.06947V4.07337Z" fill="#D1D3D4"/>
<path d="M35.9272 5.08936C35.9272 5.32689 35.3223 5.51771 34.5754 5.51771C33.8286 5.51771 33.2236 5.323 33.2236 5.08936" fill="#FCFCFC"/>
<path d="M34.5772 5.61512C33.8861 5.61512 33.1426 5.45157 33.1426 5.09137C33.1426 5.06555 33.1515 5.04079 33.1673 5.02253C33.1832 5.00428 33.2047 4.99402 33.2271 4.99402C33.2495 4.99402 33.271 5.00428 33.2868 5.02253C33.3027 5.04079 33.3116 5.06555 33.3116 5.09137C33.3116 5.20235 33.7576 5.42042 34.5772 5.42042C35.3967 5.42042 35.8428 5.20235 35.8428 5.09137C35.8428 5.06555 35.8517 5.04079 35.8675 5.02253C35.8834 5.00428 35.9048 4.99402 35.9273 4.99402C35.9497 4.99402 35.9711 5.00428 35.987 5.02253C36.0028 5.04079 36.0117 5.06555 36.0117 5.09137C36.0117 5.45157 35.2683 5.61512 34.5772 5.61512Z" fill="#D1D3D4"/>
<path d="M35.9272 5.8562C35.9272 6.09374 35.3223 6.28455 34.5754 6.28455C33.8286 6.28455 33.2236 6.08985 33.2236 5.8562" fill="#FCFCFC"/>
<path d="M34.5772 6.38197C33.8861 6.38197 33.1426 6.21842 33.1426 5.85822C33.1426 5.8324 33.1515 5.80763 33.1673 5.78938C33.1832 5.77112 33.2047 5.76086 33.2271 5.76086C33.2495 5.76086 33.271 5.77112 33.2868 5.78938C33.3027 5.80763 33.3116 5.8324 33.3116 5.85822C33.3116 5.9692 33.7576 6.18726 34.5772 6.18726C35.3967 6.18726 35.8428 5.9692 35.8428 5.85822C35.8428 5.8324 35.8517 5.80763 35.8675 5.78938C35.8834 5.77112 35.9048 5.76086 35.9273 5.76086C35.9497 5.76086 35.9711 5.77112 35.987 5.78938C36.0028 5.80763 36.0117 5.8324 36.0117 5.85822C36.0117 6.21063 35.2683 6.38197 34.5772 6.38197Z" fill="#D1D3D4"/>
<path d="M40.0127 14.8055C40.0127 14.8055 40.9302 15.2805 40.5703 16.2673L40.0127 14.8055Z" fill="#FCFCFC"/>
<path d="M40.5738 16.3645C40.5632 16.3673 40.5523 16.3673 40.5417 16.3645C40.5214 16.3542 40.5054 16.3354 40.4969 16.3118C40.4884 16.2882 40.4881 16.2618 40.4961 16.238C40.8222 15.3485 40.0179 14.9203 39.9892 14.9028C39.9784 14.8981 39.9685 14.8909 39.9603 14.8817C39.952 14.8724 39.9454 14.8613 39.941 14.8491C39.9366 14.8368 39.9344 14.8236 39.9346 14.8103C39.9348 14.797 39.9373 14.7839 39.942 14.7718C39.9468 14.7597 39.9536 14.7488 39.9621 14.7399C39.9706 14.7309 39.9807 14.7241 39.9916 14.7198C40.0025 14.7154 40.014 14.7137 40.0255 14.7148C40.037 14.7158 40.0482 14.7195 40.0584 14.7257C40.0686 14.7257 41.0469 15.2512 40.6583 16.312C40.6503 16.3294 40.638 16.3437 40.623 16.3531C40.6079 16.3624 40.5908 16.3664 40.5738 16.3645Z" fill="#272727"/>
<path d="M10.2317 32.7431C10.8364 32.7431 11.3266 32.2691 11.3266 31.6843C11.3266 31.0995 10.8364 30.6255 10.2317 30.6255C9.62694 30.6255 9.13672 31.0995 9.13672 31.6843C9.13672 32.2691 9.62694 32.7431 10.2317 32.7431Z" fill="#D1D3D4"/>
<path d="M29.0178 30.3881H22.7642L23.4823 36.5249H31.566L29.0178 30.3881Z" fill="#FCFCFC"/>
<path d="M31.5661 36.6223H23.4825C23.4621 36.6221 23.4424 36.6136 23.4269 36.5983C23.4114 36.5829 23.4012 36.5618 23.398 36.5386L22.6798 30.4017C22.6784 30.3878 22.6794 30.3737 22.6829 30.3603C22.6864 30.3469 22.6923 30.3345 22.7001 30.3239C22.7081 30.3134 22.718 30.305 22.7291 30.2993C22.7402 30.2935 22.7522 30.2907 22.7643 30.2908H29.0163C29.0322 30.2907 29.0477 30.2958 29.0611 30.3055C29.0746 30.3151 29.0854 30.3289 29.0924 30.3453L31.6405 36.4841C31.6471 36.4985 31.6506 36.5145 31.6506 36.5308C31.6506 36.5471 31.6471 36.5631 31.6405 36.5775C31.6328 36.5921 31.6218 36.6039 31.6087 36.6118C31.5956 36.6197 31.5809 36.6233 31.5661 36.6223ZM23.5568 36.4276H31.4326L28.964 30.4854H22.8606L23.5568 36.4276Z" fill="#D1D3D4"/>
<path d="M29.253 35.3805H24.417C24.3946 35.3805 24.3731 35.3702 24.3573 35.352C24.3414 35.3337 24.3325 35.309 24.3325 35.2831C24.3325 35.2573 24.3414 35.2326 24.3573 35.2143C24.3731 35.196 24.3946 35.1858 24.417 35.1858H29.253C29.2754 35.1858 29.2969 35.196 29.3127 35.2143C29.3286 35.2326 29.3375 35.2573 29.3375 35.2831C29.3375 35.309 29.3286 35.3337 29.3127 35.352C29.2969 35.3702 29.2754 35.3805 29.253 35.3805Z" fill="#D1D3D4"/>
<path d="M29.7599 34.1835H24.2041C24.1817 34.1835 24.1602 34.1732 24.1444 34.155C24.1285 34.1367 24.1196 34.1119 24.1196 34.0861C24.1196 34.0603 24.1285 34.0355 24.1444 34.0173C24.1602 33.999 24.1817 33.9888 24.2041 33.9888H29.7599C29.7823 33.9888 29.8038 33.999 29.8197 34.0173C29.8355 34.0355 29.8444 34.0603 29.8444 34.0861C29.8444 34.1119 29.8355 34.1367 29.8197 34.155C29.8038 34.1732 29.7823 34.1835 29.7599 34.1835Z" fill="#D1D3D4"/>
<path d="M29.1869 32.9884H23.9487C23.9263 32.9884 23.9048 32.9781 23.889 32.9599C23.8732 32.9416 23.8643 32.9169 23.8643 32.8911C23.8643 32.8652 23.8732 32.8405 23.889 32.8222C23.9048 32.804 23.9263 32.7937 23.9487 32.7937H29.1869C29.2093 32.7937 29.2308 32.804 29.2466 32.8222C29.2625 32.8405 29.2714 32.8652 29.2714 32.8911C29.2714 32.9169 29.2625 32.9416 29.2466 32.9599C29.2308 32.9781 29.2093 32.9884 29.1869 32.9884Z" fill="#D1D3D4"/>
<path d="M28.7834 31.7933H24.5962C24.5738 31.7933 24.5523 31.7831 24.5365 31.7648C24.5206 31.7466 24.5117 31.7218 24.5117 31.696C24.5117 31.6702 24.5206 31.6454 24.5365 31.6271C24.5523 31.6089 24.5738 31.5986 24.5962 31.5986H28.7834C28.8058 31.5986 28.8273 31.6089 28.8431 31.6271C28.8589 31.6454 28.8678 31.6702 28.8678 31.696C28.8674 31.7216 28.8584 31.7461 28.8426 31.7643C28.8269 31.7824 28.8056 31.7928 28.7834 31.7933Z" fill="#D1D3D4"/>
</svg>
