<svg width="47" height="42" viewBox="0 0 47 42" fill="none" xmlns="http://www.w3.org/2000/svg">
<path d="M1.08488 40.0763H46.9146V41.0682C46.9146 41.3153 46.8196 41.5523 46.6505 41.7271C46.4814 41.9018 46.2521 42 46.0129 42H1.98468C1.74554 42 1.5162 41.9018 1.3471 41.7271C1.178 41.5523 1.08301 41.3153 1.08301 41.0682V40.0763H1.08488Z" fill="black"/>
<path d="M46.1856 40.9036H1.81431C1.69905 40.9029 1.5856 40.8739 1.48331 40.8189C1.38102 40.764 1.29283 40.6848 1.22601 40.5877C1.15918 40.4906 1.11564 40.3785 1.09896 40.2607C1.08228 40.1428 1.09295 40.0225 1.13009 39.9098L4.82301 28.6232C4.9842 28.1337 5.28958 27.7085 5.69634 27.4073C6.1031 27.1061 6.59086 26.9439 7.09126 26.9436H40.9087C41.4091 26.9439 41.8968 27.1061 42.3036 27.4073C42.7104 27.7085 43.0157 28.1337 43.1769 28.6232L46.8698 39.9098C46.907 40.0225 46.9176 40.1428 46.901 40.2607C46.8843 40.3785 46.8407 40.4906 46.7739 40.5877C46.7071 40.6848 46.6189 40.764 46.5166 40.8189C46.4143 40.8739 46.3009 40.9029 46.1856 40.9036Z" fill="#FCFCFC"/>
<path d="M46.1857 41.0023H1.81435C1.68507 41.0018 1.55775 40.9696 1.44285 40.9084C1.32794 40.8472 1.22872 40.7587 1.15334 40.6502C1.07795 40.5416 1.02856 40.4162 1.00921 40.2841C0.989857 40.152 1.0011 40.017 1.04202 39.8903L4.74244 28.6038C4.90807 28.0956 5.22384 27.654 5.64525 27.3412C6.06666 27.0284 6.57244 26.8602 7.09129 26.8602H40.9087C41.4276 26.8602 41.9333 27.0284 42.3548 27.3412C42.7762 27.654 43.0919 28.0956 43.2576 28.6038L46.958 39.8884C46.9989 40.0151 47.0101 40.15 46.9908 40.2821C46.9714 40.4142 46.922 40.5397 46.8467 40.6482C46.7713 40.7568 46.6721 40.8453 46.5572 40.9065C46.4422 40.9677 46.3149 40.9999 46.1857 41.0004V41.0023ZM7.09129 27.0307C6.60845 27.031 6.13782 27.1875 5.74546 27.4783C5.35311 27.7692 5.05873 28.1797 4.90366 28.6522L1.20511 39.9368C1.17345 40.0364 1.16506 40.1424 1.18064 40.2461C1.19623 40.3497 1.23533 40.4481 1.29475 40.5331C1.35418 40.6182 1.43224 40.6875 1.52255 40.7353C1.61286 40.7832 1.71285 40.8083 1.81435 40.8086H46.1857C46.2878 40.8086 46.3885 40.7835 46.4794 40.7353C46.5703 40.6871 46.6488 40.6172 46.7083 40.5314C46.7679 40.4456 46.8068 40.3464 46.8218 40.242C46.8369 40.1376 46.8277 40.031 46.7949 39.931L43.0963 28.6464C42.9413 28.1738 42.6469 27.7633 42.2545 27.4725C41.8622 27.1817 41.3916 27.0252 40.9087 27.0249L7.09129 27.0307Z" fill="#272727"/>
<path d="M41.9958 34.28H6.07885C5.98525 34.2801 5.89291 34.2576 5.80922 34.2143C5.72553 34.171 5.65281 34.108 5.59688 34.0305C5.54095 33.9529 5.50337 33.8629 5.48713 33.7676C5.47088 33.6723 5.47644 33.5745 5.50335 33.4818L6.81556 28.9021C6.85659 28.7608 6.94052 28.6368 7.05495 28.5486C7.16938 28.4603 7.30825 28.4124 7.45104 28.412H40.4605C40.6203 28.413 40.7755 28.4668 40.9037 28.5654C41.0318 28.664 41.1261 28.8023 41.1729 28.9602L42.4982 33.5748C42.5217 33.6562 42.5266 33.742 42.5125 33.8257C42.4985 33.9093 42.4658 33.9884 42.4171 34.0568C42.3684 34.1252 42.305 34.1809 42.2319 34.2197C42.1588 34.2584 42.0779 34.279 41.9958 34.28ZM7.45667 28.6038C7.35411 28.6038 7.25429 28.6379 7.17192 28.701C7.08956 28.7642 7.02903 28.853 6.99927 28.9544L5.68706 33.5361C5.66906 33.5997 5.66561 33.6668 5.67698 33.732C5.68835 33.7973 5.71423 33.8589 5.75258 33.9121C5.79093 33.9652 5.8407 34.0085 5.89797 34.0384C5.95524 34.0682 6.01844 34.084 6.0826 34.0843H41.9958C42.0493 34.0842 42.1021 34.0711 42.15 34.0462C42.1978 34.0214 42.2393 33.9853 42.2714 33.941C42.3034 33.8966 42.3249 33.8451 42.3344 33.7907C42.3438 33.7362 42.3409 33.6802 42.3257 33.6271L40.9985 29.0125C40.9632 28.8949 40.8925 28.7919 40.7968 28.7184C40.7012 28.645 40.5853 28.6048 40.4661 28.6038H7.45667Z" fill="#D1D3D4"/>
<path d="M29.671 39.3789H18.3298C18.2344 39.3795 18.1401 39.3577 18.054 39.315C17.9679 39.2724 17.8924 39.2101 17.833 39.1329C17.7729 39.0564 17.7302 38.9668 17.7082 38.8709C17.6861 38.775 17.6852 38.6752 17.7056 38.5789L18.2473 36.0314C18.2967 35.8075 18.4178 35.6075 18.591 35.4637C18.7642 35.3198 18.9793 35.2407 19.2015 35.239H28.7993C29.0215 35.2407 29.2366 35.3198 29.4098 35.4637C29.583 35.6075 29.7041 35.8075 29.7535 36.0314L30.2952 38.5789C30.3156 38.6752 30.3147 38.775 30.2926 38.8709C30.2706 38.9668 30.2279 39.0564 30.1678 39.1329C30.1084 39.2101 30.0328 39.2724 29.9468 39.315C29.8607 39.3577 29.7664 39.3795 29.671 39.3789ZM19.2015 35.4327C19.0217 35.4336 18.8476 35.4975 18.7076 35.614C18.5676 35.7305 18.4701 35.8927 18.431 36.074L17.8893 38.6195C17.8746 38.6876 17.875 38.7582 17.8904 38.8261C17.9057 38.894 17.9357 38.9575 17.978 39.0118C18.0203 39.0661 18.0739 39.1099 18.1348 39.1399C18.1957 39.1699 18.2623 39.1854 18.3298 39.1852H29.671C29.7385 39.1854 29.8051 39.1699 29.866 39.1399C29.9269 39.1099 29.9805 39.0661 30.0228 39.0118C30.0651 38.9575 30.095 38.894 30.1104 38.8261C30.1258 38.7582 30.1261 38.6876 30.1115 38.6195L29.5698 36.074C29.5307 35.8927 29.4331 35.7305 29.2932 35.614C29.1532 35.4975 28.9791 35.4336 28.7993 35.4327H19.2015Z" fill="#D1D3D4"/>
<path d="M41.4202 2.60168H6.57924C5.90526 2.60168 5.35889 3.16633 5.35889 3.86285V25.6823C5.35889 26.3788 5.90526 26.9435 6.57924 26.9435H41.4202C42.0942 26.9435 42.6405 26.3788 42.6405 25.6823V3.86285C42.6405 3.16633 42.0942 2.60168 41.4202 2.60168Z" fill="#272727"/>
<path d="M41.4202 27.0404H6.5793C6.23128 27.0404 5.89751 26.8975 5.65143 26.6432C5.40534 26.3889 5.26709 26.044 5.26709 25.6843V3.86292C5.26709 3.50327 5.40534 3.15834 5.65143 2.90402C5.89751 2.64971 6.23128 2.50684 6.5793 2.50684H41.4202C41.7683 2.50684 42.102 2.64971 42.3481 2.90402C42.5942 3.15834 42.7324 3.50327 42.7324 3.86292V25.6824C42.7327 25.8606 42.6989 26.0372 42.6331 26.2019C42.5673 26.3667 42.4706 26.5164 42.3488 26.6425C42.2269 26.7687 42.0821 26.8687 41.9228 26.937C41.7635 27.0053 41.5927 27.0404 41.4202 27.0404ZM6.5793 2.69863C6.28099 2.69863 5.99491 2.82109 5.78398 3.03907C5.57305 3.25706 5.45455 3.55271 5.45455 3.86099V25.6824C5.45455 25.9907 5.57305 26.2863 5.78398 26.5043C5.99491 26.7223 6.28099 26.8448 6.5793 26.8448H41.4202C41.7185 26.8448 42.0046 26.7223 42.2155 26.5043C42.4265 26.2863 42.545 25.9907 42.545 25.6824V3.86292C42.545 3.55465 42.4265 3.259 42.2155 3.04101C42.0046 2.82303 41.7185 2.70056 41.4202 2.70056L6.5793 2.69863Z" fill="#272727"/>
<path d="M40.8561 4.27942H7.14551V25.231H40.8561V4.27942Z" fill="#E6E7E8"/>
<path d="M12.3926 4.83154V31.808C12.3926 34.4156 17.5889 36.5466 24 36.5466C30.411 36.5466 35.6074 34.4272 35.6074 31.8138V4.83154H12.3926Z" fill="#188B30"/>
<path d="M24 36.6376C17.5477 36.6376 12.2988 34.4698 12.2988 31.808V4.83148C12.2988 4.80579 12.3087 4.78116 12.3263 4.76299C12.3439 4.74482 12.3677 4.73462 12.3926 4.73462H35.6073C35.6322 4.73462 35.656 4.74482 35.6736 4.76299C35.6912 4.78116 35.7011 4.80579 35.7011 4.83148V31.808C35.7011 34.4698 30.4523 36.6376 24 36.6376ZM12.4863 4.92835V31.808C12.4863 34.3632 17.6508 36.4438 24 36.4438C30.3492 36.4438 35.5136 34.3632 35.5136 31.808V4.92835H12.4863Z" fill="#272727"/>
<path d="M24 9.56437C30.4106 9.56437 35.6074 7.44545 35.6074 4.83162C35.6074 2.2178 30.4106 0.098877 24 0.098877C17.5894 0.098877 12.3926 2.2178 12.3926 4.83162C12.3926 7.44545 17.5894 9.56437 24 9.56437Z" fill="#188B30"/>
<path d="M24 9.66116C17.5477 9.66116 12.2988 7.49336 12.2988 4.83155C12.2988 2.16974 17.5477 0 24 0C30.4523 0 35.7011 2.1678 35.7011 4.83155C35.7011 7.4953 30.4523 9.66116 24 9.66116ZM24 0.193727C17.6508 0.193727 12.4863 2.27435 12.4863 4.83155C12.4863 7.38875 17.6508 9.46744 24 9.46744C30.3492 9.46744 35.5136 7.38681 35.5136 4.83155C35.5136 2.27629 30.3492 0.193727 24 0.193727Z" fill="#272727"/>
<path d="M24 17.8501C17.5477 17.8501 12.2988 15.6842 12.2988 13.0204C12.2988 12.9948 12.3087 12.9701 12.3263 12.952C12.3439 12.9338 12.3677 12.9236 12.3926 12.9236C12.4174 12.9236 12.4413 12.9338 12.4588 12.952C12.4764 12.9701 12.4863 12.9948 12.4863 13.0204C12.4863 15.5776 17.6508 17.6563 24 17.6563C30.3492 17.6563 35.5136 15.5776 35.5136 13.0204C35.5136 12.9948 35.5235 12.9701 35.5411 12.952C35.5586 12.9338 35.5825 12.9236 35.6073 12.9236C35.6322 12.9236 35.656 12.9338 35.6736 12.952C35.6912 12.9701 35.7011 12.9948 35.7011 13.0204C35.7011 15.6842 30.4523 17.8501 24 17.8501Z" fill="#272727"/>
<path d="M24 27.1314C17.5477 27.1314 12.2988 24.9636 12.2988 22.2999C12.2988 22.2742 12.3087 22.2495 12.3263 22.2314C12.3439 22.2132 12.3677 22.203 12.3926 22.203C12.4173 22.2035 12.4408 22.2139 12.4583 22.2319C12.4758 22.25 12.4858 22.2743 12.4863 22.2999C12.4863 24.8571 17.6508 26.9377 24 26.9377C30.3492 26.9377 35.5136 24.8571 35.5136 22.2999C35.5141 22.2743 35.5241 22.25 35.5416 22.2319C35.5591 22.2139 35.5826 22.2035 35.6073 22.203C35.6322 22.203 35.656 22.2132 35.6736 22.2314C35.6912 22.2495 35.7011 22.2742 35.7011 22.2999C35.7011 24.9636 30.4523 27.1314 24 27.1314Z" fill="#272727"/>
<path d="M15.3768 9.66118H15.345C14.059 9.19042 13.4966 8.47169 13.4704 8.4407C13.4615 8.43094 13.4546 8.41938 13.4503 8.40675C13.4459 8.39412 13.4441 8.38068 13.4451 8.36731C13.446 8.35393 13.4496 8.34089 13.4556 8.32903C13.4617 8.31716 13.4701 8.30673 13.4802 8.29838C13.4904 8.29004 13.5021 8.28396 13.5147 8.28054C13.5272 8.27712 13.5403 8.27644 13.5531 8.27852C13.566 8.28061 13.5782 8.28543 13.5891 8.29267C13.6001 8.29991 13.6094 8.30942 13.6166 8.32059C13.6166 8.32059 14.179 9.02769 15.405 9.48295C15.4298 9.48732 15.452 9.50171 15.4666 9.52296C15.4812 9.54422 15.487 9.57059 15.4828 9.59628C15.4785 9.62197 15.4646 9.64487 15.444 9.65995C15.4235 9.67503 15.3979 9.68104 15.3731 9.67668L15.3768 9.66118Z" fill="#272727"/>
<path d="M16.3142 9.94393H16.2935L15.8718 9.85287C15.8469 9.84774 15.825 9.8326 15.811 9.8108C15.7969 9.78901 15.7918 9.76233 15.7968 9.73664C15.8018 9.71095 15.8164 9.68835 15.8375 9.67382C15.8586 9.65929 15.8844 9.65401 15.9093 9.65915L16.3329 9.7502C16.345 9.75295 16.3564 9.75814 16.3666 9.76548C16.3767 9.77282 16.3853 9.78217 16.392 9.79298C16.3986 9.80378 16.4031 9.81584 16.4052 9.82845C16.4072 9.84106 16.4069 9.85397 16.4041 9.86643C16.4006 9.88833 16.3895 9.90817 16.373 9.92238C16.3565 9.9366 16.3356 9.94424 16.3142 9.94393Z" fill="#272727"/>
<path d="M15.3768 18.3033H15.3449C14.059 17.8325 13.4966 17.1138 13.4703 17.0828C13.455 17.0627 13.448 17.0372 13.4508 17.0118C13.4536 16.9864 13.466 16.9632 13.4853 16.9472C13.5048 16.9314 13.5295 16.9241 13.554 16.927C13.5786 16.9299 13.6011 16.9428 13.6166 16.9627C13.6166 16.9627 14.1789 17.6698 15.4049 18.1251C15.4298 18.1294 15.4519 18.1438 15.4665 18.1651C15.4811 18.1863 15.4869 18.2127 15.4827 18.2384C15.4785 18.2641 15.4645 18.287 15.444 18.3021C15.4234 18.3171 15.3979 18.3232 15.373 18.3188L15.3768 18.3033Z" fill="#272727"/>
<path d="M16.3142 18.5861H16.2935L15.8718 18.4951C15.8469 18.4899 15.825 18.4748 15.811 18.453C15.7969 18.4312 15.7918 18.4045 15.7968 18.3788C15.8018 18.3532 15.8164 18.3306 15.8375 18.316C15.8586 18.3015 15.8844 18.2962 15.9093 18.3014L16.3329 18.3924C16.3449 18.3949 16.3563 18.3999 16.3664 18.4071C16.3766 18.4142 16.3852 18.4234 16.3918 18.434C16.3985 18.4447 16.403 18.4566 16.4051 18.4691C16.4072 18.4816 16.4069 18.4944 16.4041 18.5067C16.401 18.529 16.3901 18.5493 16.3736 18.5639C16.357 18.5785 16.3359 18.5864 16.3142 18.5861Z" fill="#272727"/>
<path d="M15.3768 26.9455H15.3449C14.059 26.4748 13.4966 25.756 13.4703 25.725C13.455 25.705 13.448 25.6794 13.4508 25.654C13.4536 25.6286 13.466 25.6054 13.4853 25.5894C13.5048 25.5736 13.5295 25.5663 13.554 25.5692C13.5786 25.5721 13.6011 25.585 13.6166 25.6049C13.6166 25.6049 14.1789 26.312 15.4049 26.7673C15.4298 26.7716 15.4519 26.786 15.4665 26.8073C15.4811 26.8285 15.4869 26.8549 15.4827 26.8806C15.4785 26.9063 15.4645 26.9292 15.444 26.9443C15.4234 26.9594 15.3979 26.9654 15.373 26.961L15.3768 26.9455Z" fill="#272727"/>
<path d="M16.3143 27.2284H16.2937L15.8719 27.1373C15.8598 27.1348 15.8484 27.1298 15.8382 27.1227C15.8279 27.1156 15.8192 27.1065 15.8124 27.0958C15.8056 27.0852 15.8009 27.0733 15.7986 27.0609C15.7962 27.0484 15.7963 27.0355 15.7988 27.023C15.8012 27.0106 15.806 26.9988 15.8129 26.9884C15.8199 26.9779 15.8287 26.969 15.8391 26.9621C15.8494 26.9553 15.8609 26.9506 15.873 26.9484C15.885 26.9463 15.8974 26.9466 15.9094 26.9494L16.333 27.0405C16.345 27.043 16.3564 27.048 16.3666 27.0551C16.3767 27.0623 16.3853 27.0715 16.392 27.0821C16.3986 27.0928 16.4031 27.1047 16.4052 27.1172C16.4073 27.1296 16.407 27.1424 16.4043 27.1548C16.3999 27.176 16.3885 27.1949 16.3721 27.2083C16.3557 27.2218 16.3352 27.2289 16.3143 27.2284Z" fill="#272727"/>
<path d="M21.6136 25.8295C21.773 25.3472 21.9285 24.8609 22.0916 24.3863C22.1779 24.1364 22.2791 23.8923 22.3728 23.6482C22.425 23.4943 22.527 23.3637 22.6616 23.2787C22.7962 23.1936 22.9551 23.1592 23.1114 23.1813C23.4863 23.2239 23.8612 23.3072 24.2361 23.375C24.436 23.4202 24.6392 23.4474 24.8435 23.4564C24.994 23.4592 25.1411 23.4101 25.2615 23.3169C25.6927 22.8926 26.107 22.4471 26.5156 21.9976C26.5843 21.9137 26.6318 21.8136 26.654 21.7061C26.6762 21.5986 26.6725 21.4872 26.6431 21.3816C26.5475 20.9108 26.4369 20.4439 26.3432 19.9732C26.3 19.7908 26.2836 19.6027 26.2944 19.4152C26.2995 19.3467 26.3177 19.28 26.348 19.2188C26.3782 19.1576 26.4199 19.1032 26.4706 19.0588C27.1649 18.5907 27.9232 18.2329 28.7201 17.9972C28.8382 17.9582 28.9655 17.9606 29.0821 18.004C29.1987 18.0474 29.2982 18.1295 29.365 18.2374C29.6518 18.6442 29.9536 19.0433 30.2292 19.4598C30.3186 19.617 30.45 19.7443 30.6075 19.8264C30.7651 19.9085 30.9422 19.942 31.1177 19.9228C31.6164 19.8841 32.115 19.8763 32.6174 19.8511C32.7092 19.846 32.7984 19.8178 32.8771 19.7688C32.9559 19.7198 33.0218 19.6516 33.0692 19.5702C33.2473 19.299 33.4141 19.02 33.5884 18.745C33.7384 18.5086 33.8865 18.2723 34.0458 18.0437C34.115 17.9264 34.2215 17.8378 34.347 17.7929C34.4726 17.748 34.6093 17.7497 34.7338 17.7976C35.4255 18.0437 36.1154 18.2974 36.7958 18.5725C36.9257 18.6246 37.034 18.7216 37.1024 18.847C37.1708 18.9725 37.1949 19.1185 37.1708 19.2603C37.1351 19.6574 37.047 20.0468 36.9833 20.442C36.9533 20.6357 36.9271 20.812 36.9121 20.9999C36.8984 21.1201 36.9121 21.2419 36.9521 21.3556C36.9921 21.4693 37.0574 21.5718 37.1426 21.6547C37.5063 22.0093 37.8756 22.358 38.2261 22.728C38.3276 22.8397 38.4566 22.9208 38.5993 22.9624C38.742 23.0041 38.8929 23.0047 39.036 22.9643C39.529 22.8539 40.0201 22.7299 40.5131 22.6195C40.6753 22.563 40.8524 22.5739 41.007 22.6498C41.1616 22.7257 41.2816 22.8607 41.3417 23.0263C41.6229 23.6346 41.8941 24.2481 42.1553 24.8667C42.3427 25.3162 42.2771 25.5777 41.9003 25.8838C41.6472 26.093 41.3736 26.2712 41.113 26.465C40.9255 26.6083 40.7381 26.7575 40.5675 26.9144C40.4924 26.9784 40.4326 27.0594 40.3926 27.1511C40.3527 27.2428 40.3336 27.3428 40.3369 27.4433C40.35 27.978 40.3575 28.5127 40.3819 29.0454C40.3853 29.1904 40.4251 29.332 40.4974 29.4563C40.5697 29.5806 40.672 29.6833 40.7943 29.7545C41.0774 29.9307 41.3567 30.0973 41.6454 30.2756C41.8207 30.3837 41.9903 30.5013 42.1534 30.6282C42.2715 30.7085 42.3589 30.8287 42.4006 30.9683C42.4424 31.108 42.4358 31.2582 42.3821 31.3934C42.1553 32.0385 41.9209 32.6797 41.6866 33.3306C41.6445 33.4269 41.593 33.5184 41.5329 33.6038C41.4771 33.7075 41.3911 33.7904 41.2871 33.8408C41.1832 33.8912 41.0665 33.9066 40.9537 33.8847L39.6096 33.6406C39.5758 33.6406 39.5421 33.6406 39.5084 33.6232C39.3208 33.5715 39.1225 33.5793 38.9393 33.6457C38.7561 33.712 38.5964 33.8338 38.4811 33.9951C38.228 34.3051 37.9412 34.5763 37.6694 34.8766C37.5433 35.0049 37.4534 35.1663 37.4095 35.3435C37.3655 35.5207 37.3692 35.7069 37.4201 35.882C37.5307 36.3315 37.6375 36.7829 37.7275 37.2381C37.8175 37.6934 37.7275 37.9259 37.3057 38.137C36.6965 38.4392 36.0797 38.7182 35.4593 38.9952C35.3215 39.0733 35.1601 39.0939 35.0081 39.0528C34.8561 39.0118 34.7251 38.9121 34.6419 38.7744C34.402 38.4625 34.1827 38.1331 33.9577 37.8057C33.476 37.1064 33.356 37.0444 32.5255 37.087C32.2012 37.1044 31.8788 37.1258 31.5564 37.1451C31.402 37.1465 31.2507 37.1893 31.1172 37.2695C30.9838 37.3496 30.8728 37.4644 30.7953 37.6023C30.5966 37.9394 30.4091 38.2823 30.2029 38.6116C30.0929 38.783 29.9673 38.9432 29.828 39.0902C29.7675 39.1656 29.6853 39.2194 29.5934 39.2438C29.5015 39.2681 29.4045 39.2618 29.3163 39.2258C28.662 38.9759 28.0041 38.7259 27.3554 38.4702C27.2676 38.4296 27.184 38.3796 27.1061 38.3211C27.0055 38.264 26.9247 38.1757 26.8752 38.0686C26.8258 37.9616 26.8101 37.8411 26.8306 37.7244C26.9018 37.2652 26.9768 36.808 27.0461 36.3509C27.0668 36.2114 27.078 36.0719 27.0855 35.9305C27.098 35.8163 27.0843 35.7007 27.0456 35.593C27.0068 35.4853 26.9441 35.3885 26.8624 35.3105C26.5063 34.9735 26.1538 34.6325 25.8014 34.2896C25.7014 34.1892 25.5772 34.1183 25.4417 34.0843C25.3063 34.0502 25.1644 34.0542 25.031 34.0959C24.5961 34.2082 24.1574 34.307 23.7188 34.4097L23.6682 34.4233C23.0964 34.5298 22.9183 34.4523 22.6634 33.9099C22.3878 33.3055 22.1366 32.6894 21.8948 32.0695C21.7448 31.682 21.8104 31.4767 22.131 31.2248C22.4515 30.973 22.834 30.6863 23.2014 30.4402C23.3801 30.3352 23.5249 30.1782 23.6179 29.9888C23.7109 29.7993 23.7479 29.5858 23.7244 29.3747C23.6925 28.8943 23.6813 28.4061 23.6569 27.9315C23.6562 27.831 23.6309 27.7323 23.5833 27.6445C23.5358 27.5568 23.4676 27.4829 23.3851 27.4297C22.9989 27.174 22.6071 26.9222 22.221 26.6645C21.9698 26.494 21.713 26.3255 21.6099 26.0058L21.6136 25.8295ZM36.4228 28.5146C36.424 27.9115 36.3096 27.3142 36.0861 26.7572C35.8626 26.2001 35.5344 25.6944 35.1205 25.2692C34.7067 24.8441 34.2154 24.5079 33.6751 24.2802C33.1347 24.0525 32.5561 23.9378 31.9725 23.9426C29.933 23.933 27.6198 25.7811 27.6216 28.5204C27.6294 29.7191 28.0926 30.8666 28.9114 31.7156C29.7302 32.5647 30.839 33.0473 31.9988 33.0594C34.8369 33.0711 36.5409 30.541 36.419 28.5146H36.4228Z" fill="#FCFCFC"/>
<path d="M29.4814 39.3575C29.414 39.3576 29.3472 39.3445 29.2846 39.3188L28.7503 39.1134C28.2742 38.9313 27.7999 38.7492 27.3257 38.5632C27.2428 38.5262 27.1637 38.4808 27.0895 38.4276L27.0557 38.4044C26.9406 38.3363 26.8485 38.2332 26.7922 38.1091C26.7358 37.9849 26.7179 37.8459 26.7408 37.7108C26.7708 37.5171 26.8027 37.306 26.8364 37.1025C26.8758 36.8468 26.917 36.593 26.9564 36.3276C26.9732 36.2075 26.9864 36.0777 26.9957 35.9169C27.0076 35.8177 26.9968 35.7169 26.9643 35.6227C26.9317 35.5285 26.8783 35.4435 26.8083 35.3745C26.499 35.0839 26.1953 34.7933 25.8897 34.4911L25.7473 34.3536C25.6592 34.2632 25.5489 34.1994 25.4283 34.1691C25.3078 34.1387 25.1815 34.1429 25.063 34.1811C24.7575 34.2586 24.4501 34.3303 24.1445 34.402L23.7321 34.4988L23.6965 34.5085C23.0704 34.6267 22.8529 34.5085 22.5905 33.9409C22.2868 33.2764 22.0187 32.6061 21.82 32.0966C21.6551 31.6782 21.7263 31.4186 22.0862 31.128C22.4911 30.8103 22.836 30.5604 23.1622 30.3395C23.3268 30.2436 23.4603 30.0996 23.546 29.9255C23.6317 29.7515 23.6658 29.5552 23.644 29.3612C23.6234 29.0629 23.6121 28.7645 23.599 28.4662C23.599 28.2841 23.584 28.1 23.5746 27.9179C23.5749 27.8326 23.554 27.7487 23.514 27.6741C23.4739 27.5995 23.4161 27.5367 23.3459 27.4917L22.8548 27.1702C22.6298 27.0229 22.4049 26.8757 22.1818 26.7265C21.9138 26.5464 21.6438 26.3662 21.5332 26.0175C21.5314 26.0072 21.5314 25.9967 21.5332 25.9865V25.8102C21.5312 25.8 21.5312 25.7894 21.5332 25.7792L21.6757 25.3472C21.7863 25.0082 21.8969 24.6711 22.0112 24.334C22.1012 24.0744 22.1987 23.8245 22.2943 23.592C22.3547 23.4193 22.4702 23.2729 22.6218 23.1771C22.7735 23.0814 22.9522 23.0418 23.1285 23.0651C23.3797 23.0941 23.6327 23.1406 23.8783 23.1852C24.0058 23.2084 24.1333 23.2336 24.2532 23.253L24.4032 23.2801C24.5478 23.3139 24.6955 23.3321 24.8437 23.3344C24.9704 23.3366 25.0944 23.2973 25.198 23.222C25.6573 22.7687 26.0884 22.3037 26.4484 21.9066C26.5076 21.8347 26.5483 21.7486 26.5666 21.6561C26.585 21.5636 26.5804 21.4679 26.5533 21.3777C26.5102 21.1685 26.4652 20.9612 26.4202 20.7539C26.364 20.4924 26.3059 20.2309 26.2534 19.9674C26.21 19.7771 26.193 19.5814 26.2028 19.3862C26.2096 19.3033 26.2325 19.2226 26.2702 19.149C26.3079 19.0754 26.3595 19.0105 26.4221 18.9581C27.1242 18.4829 27.8922 18.1211 28.6997 17.8848C28.8366 17.8388 28.9843 17.8408 29.1199 17.8906C29.2556 17.9403 29.3714 18.035 29.4496 18.1599C29.5508 18.3052 29.6539 18.4466 29.7589 18.59C29.9463 18.8476 30.1338 19.115 30.3212 19.3862C30.4011 19.5292 30.5194 19.6451 30.6619 19.7197C30.8044 19.7944 30.9648 19.8246 31.1236 19.8066C31.4479 19.7814 31.7778 19.7698 32.0965 19.7562L32.6232 19.7349C32.6996 19.7298 32.7736 19.7057 32.8389 19.6645C32.9042 19.6233 32.9588 19.5664 32.9981 19.4986C33.1031 19.3378 33.2043 19.1731 33.3056 19.0104C33.3749 18.898 33.4462 18.7837 33.5174 18.6733L33.5924 18.5532C33.7161 18.3595 33.8417 18.1657 33.9673 17.972C34.0488 17.8384 34.1722 17.7377 34.3168 17.6866C34.4614 17.6355 34.6185 17.6371 34.7621 17.6911C35.5944 17.9875 36.2318 18.2258 36.8242 18.466C36.9729 18.5261 37.0969 18.6373 37.1755 18.781C37.254 18.9246 37.2822 19.0918 37.2553 19.2545C37.2309 19.5199 37.1841 19.7872 37.1372 20.0429C37.1147 20.1766 37.0904 20.3083 37.0697 20.4304C37.0435 20.6048 37.0154 20.7927 37.0004 20.9825C36.9862 21.0891 36.9973 21.1976 37.0325 21.2988C37.0678 21.4 37.1262 21.4909 37.2028 21.5637L37.4578 21.8117C37.7333 22.079 38.0201 22.356 38.2882 22.6389C38.3777 22.7398 38.4926 22.813 38.6201 22.8503C38.7475 22.8875 38.8825 22.8875 39.0099 22.85C39.2499 22.7977 39.4898 22.7396 39.7279 22.6834C39.966 22.6273 40.234 22.5614 40.489 22.5052C40.6723 22.4422 40.8722 22.4547 41.0468 22.5403C41.2215 22.6258 41.3574 22.7777 41.4263 22.9643C41.7074 23.5746 41.9886 24.1945 42.2398 24.8086C42.446 25.2968 42.371 25.6048 41.9586 25.9419C41.8087 26.064 41.6493 26.1802 41.4937 26.2906C41.385 26.3701 41.2763 26.4476 41.1694 26.5309C40.9707 26.682 40.7945 26.8273 40.6296 26.9764C40.5645 27.0307 40.5127 27.1 40.4782 27.1787C40.4437 27.2575 40.4275 27.3434 40.4309 27.4298V27.761C40.4402 28.1775 40.4477 28.6076 40.4683 29.0299C40.4712 29.1598 40.5074 29.2866 40.5733 29.3972C40.6392 29.5079 40.7323 29.5984 40.8433 29.6595C40.9632 29.7351 41.0851 29.8087 41.2069 29.8823C41.37 29.9811 41.5331 30.0761 41.6943 30.1807C41.8731 30.2908 42.0458 30.4111 42.2117 30.541C42.3448 30.6343 42.443 30.7718 42.4901 30.9307C42.5371 31.0897 42.5302 31.2604 42.4704 31.4147C42.2548 32.0269 42.0261 32.6565 41.7731 33.3423C41.7349 33.4388 41.6852 33.5299 41.625 33.6135L41.6212 33.6406C41.5547 33.7594 41.4545 33.8542 41.3341 33.9121C41.2137 33.97 41.079 33.9882 40.9482 33.9642L40.0709 33.8131L39.5685 33.7259C39.5445 33.724 39.5207 33.7202 39.4973 33.7143C39.3261 33.6659 39.1446 33.6727 38.9772 33.7336C38.8097 33.7945 38.6642 33.9067 38.56 34.0552C38.3819 34.2722 38.1851 34.4795 37.9977 34.679L37.7502 34.9405C37.6351 35.0569 37.5532 35.2038 37.5136 35.3651C37.4739 35.5264 37.4779 35.6959 37.5253 35.8549C37.6302 36.285 37.7408 36.7461 37.8327 37.211C37.9358 37.7418 37.8214 37.9859 37.3584 38.2165C36.796 38.4916 36.1999 38.7744 35.5101 39.0766C35.3532 39.1622 35.1709 39.1841 34.9992 39.1378C34.8275 39.0916 34.6787 38.9806 34.5822 38.8267C34.3835 38.5691 34.196 38.2959 34.0198 38.0324L33.8979 37.8561C33.433 37.18 33.3356 37.1355 32.5482 37.1781L31.9971 37.211L31.5772 37.2343C31.438 37.2355 31.3015 37.2741 31.1812 37.3465C31.0609 37.4189 30.9609 37.5224 30.8911 37.6469L30.7037 37.9859C30.5762 38.2087 30.445 38.4373 30.3062 38.6582C30.1974 38.8352 30.0718 39.0007 29.9313 39.1522C29.8756 39.2185 29.8064 39.2713 29.7286 39.3068C29.6508 39.3423 29.5664 39.3596 29.4814 39.3575ZM25.273 33.968C25.3845 33.9672 25.4951 33.9892 25.5984 34.0328C25.7017 34.0763 25.7956 34.1406 25.8747 34.2218L26.0153 34.3594C26.3209 34.6558 26.6246 34.9405 26.9339 35.2408C27.026 35.3284 27.0969 35.4372 27.1409 35.5583C27.1848 35.6795 27.2006 35.8096 27.1869 35.9382C27.1816 36.0823 27.1678 36.2259 27.1457 36.3683C27.1082 36.624 27.067 36.8778 27.0257 37.1335L26.9301 37.7399C26.913 37.8384 26.9265 37.9399 26.9686 38.03C27.0106 38.1202 27.0792 38.1942 27.1645 38.2417L27.2001 38.2649C27.2613 38.3112 27.3273 38.3501 27.3969 38.3811C27.8712 38.5749 28.3454 38.7492 28.8216 38.9333L29.3558 39.1386C29.4273 39.1679 29.5061 39.1725 29.5803 39.1519C29.6546 39.1314 29.7205 39.0866 29.7682 39.0243C29.9029 38.8823 30.024 38.7272 30.13 38.5613C30.2669 38.3443 30.3962 38.1157 30.5237 37.8949C30.5893 37.7825 30.653 37.6682 30.7112 37.5559C30.7961 37.4038 30.9178 37.2773 31.0644 37.1886C31.211 37.1 31.3774 37.0523 31.5472 37.0502L31.9653 37.025L32.5164 36.9921C33.3749 36.9476 33.5305 37.025 34.031 37.7515L34.1529 37.9278C34.331 38.1893 34.5166 38.4606 34.7153 38.7143C34.7859 38.8354 34.8994 38.9233 35.0316 38.9595C35.1639 38.9956 35.3045 38.9772 35.4239 38.9081C36.1099 38.6059 36.7117 38.3269 37.2647 38.0518C37.6396 37.8581 37.7221 37.6992 37.6396 37.2595C37.5571 36.8197 37.439 36.3373 37.334 35.9034C37.2786 35.712 37.2746 35.5087 37.3225 35.3152C37.3704 35.1217 37.4684 34.9453 37.6059 34.8049L37.8552 34.5415C38.0426 34.3477 38.2395 34.1424 38.4176 33.9293C38.5437 33.7526 38.7187 33.6194 38.9194 33.5475C39.1202 33.4756 39.3374 33.4682 39.5423 33.5263H39.5967H39.6379L40.1047 33.6077L40.982 33.7588C41.0771 33.777 41.1753 33.7635 41.2626 33.7203C41.3498 33.6772 41.4215 33.6065 41.4675 33.5186L41.4825 33.4953C41.5339 33.4238 41.5773 33.3465 41.6118 33.2648C41.863 32.579 42.0917 31.9494 42.3073 31.3392C42.3542 31.2233 42.3599 31.0941 42.3236 30.9743C42.2872 30.8545 42.2111 30.7518 42.1086 30.6844C41.9484 30.5592 41.782 30.4428 41.61 30.3357C41.4487 30.2349 41.2875 30.1419 41.1244 30.0393C41.0026 29.9656 40.8808 29.892 40.7608 29.8165C40.625 29.7371 40.5113 29.6228 40.4309 29.4846C40.3504 29.3465 40.3058 29.1892 40.3015 29.028C40.2828 28.6037 40.2734 28.1717 40.264 27.7552V27.4239C40.2606 27.3092 40.2824 27.1952 40.3279 27.0905C40.3734 26.9858 40.4413 26.8931 40.5265 26.8195C40.6952 26.6684 40.877 26.5192 41.0776 26.3643L41.4075 26.1221C41.5593 26.0136 41.7168 25.8993 41.863 25.7792C42.208 25.4964 42.2623 25.2852 42.0899 24.8764C41.8312 24.2643 41.5594 23.6463 41.2782 23.038C41.2261 22.8931 41.1212 22.775 40.986 22.7091C40.8507 22.6432 40.6958 22.6347 40.5546 22.6854C40.3015 22.7416 40.0484 22.8016 39.8047 22.8617L39.0849 23.0302C38.9265 23.075 38.7593 23.0741 38.6013 23.0277C38.4434 22.9812 38.3007 22.891 38.1889 22.7667C37.9208 22.4858 37.6377 22.2088 37.3622 21.9434L37.1072 21.6954C37.0115 21.603 36.9382 21.4885 36.8932 21.3612C36.8483 21.234 36.833 21.0976 36.8485 20.9631C36.8635 20.7694 36.8916 20.5757 36.9179 20.3975C36.9404 20.2619 36.9629 20.1282 36.9872 19.9945C37.0322 19.7427 37.0791 19.4792 37.1035 19.2196C37.1215 19.1005 37.1004 18.9787 37.0437 18.8734C36.987 18.7681 36.8978 18.6854 36.7904 18.6384C36.1943 18.4021 35.5588 18.1657 34.7284 17.8635C34.6229 17.8224 34.5067 17.8208 34.4002 17.859C34.2937 17.8972 34.2035 17.9729 34.1454 18.0727C34.016 18.2665 33.8904 18.4602 33.7705 18.6539L33.6936 18.774C33.6224 18.8864 33.553 18.9988 33.4837 19.1111C33.3806 19.2758 33.2793 19.4405 33.1744 19.6012C33.1187 19.695 33.0419 19.7735 32.9505 19.8298C32.859 19.8862 32.7558 19.9187 32.6495 19.9248L32.1208 19.9461C31.804 19.9596 31.476 19.9713 31.1554 19.9965C30.9635 20.017 30.7698 19.9803 30.5974 19.8907C30.425 19.8011 30.281 19.6623 30.1825 19.4908C30.0063 19.2235 29.8076 18.9581 29.6202 18.7024C29.5152 18.559 29.4121 18.4156 29.309 18.2703C29.2525 18.1797 29.1682 18.1113 29.0696 18.0762C28.971 18.0411 28.8639 18.0412 28.7653 18.0766C27.9762 18.3065 27.2258 18.66 26.5402 19.1247C26.4624 19.1988 26.4142 19.3004 26.4052 19.4095C26.3977 19.5872 26.4141 19.7652 26.454 19.9383C26.5065 20.1999 26.5627 20.4614 26.6208 20.7132C26.6658 20.9225 26.7108 21.1298 26.7539 21.339C26.7871 21.4597 26.7906 21.5871 26.7641 21.7095C26.7376 21.832 26.6819 21.9457 26.6021 22.0403C26.2403 22.4393 25.8073 22.9082 25.3442 23.3634C25.2074 23.4739 25.038 23.5327 24.8643 23.53C24.7036 23.5272 24.5436 23.5084 24.3863 23.4738L24.2401 23.4467L23.8539 23.3789C23.614 23.3344 23.3647 23.2879 23.1191 23.2588C22.9827 23.2392 22.8439 23.2696 22.7268 23.3446C22.6098 23.4196 22.5217 23.5345 22.478 23.6695C22.3843 23.8981 22.2905 24.1461 22.1987 24.4018C22.0843 24.7369 21.9737 25.074 21.8631 25.4111L21.7263 25.8276V25.9729C21.82 26.248 22.0487 26.3991 22.2887 26.5541C22.5286 26.7091 22.7423 26.8563 22.9673 27.0016L23.4584 27.3251C23.5534 27.3874 23.6319 27.4732 23.6869 27.5746C23.7419 27.6761 23.7716 27.7901 23.7733 27.9063C23.7827 28.0884 23.7902 28.2725 23.7977 28.4565C23.809 28.7529 23.8221 29.0512 23.8408 29.3476C23.8675 29.577 23.8284 29.8094 23.7285 30.0161C23.6285 30.2227 23.472 30.3944 23.2784 30.51C22.9541 30.727 22.6148 30.975 22.2137 31.2849C21.925 31.5116 21.8763 31.6724 22.0075 32.0172C22.2062 32.5228 22.4743 33.1796 22.7761 33.8518C23.001 34.3439 23.136 34.4136 23.6777 34.309L24.1164 34.2063C24.4238 34.1346 24.7294 34.063 25.0331 33.9855C25.1122 33.9706 25.1926 33.9647 25.273 33.968ZM32.0065 33.1641H31.9971C30.8085 33.1569 29.6709 32.6639 28.8328 31.7927C27.9947 30.9216 27.5244 29.743 27.5244 28.5146C27.5239 27.9041 27.6411 27.2996 27.8694 26.7364C28.0976 26.1733 28.4321 25.6628 28.8534 25.2348C29.6733 24.3737 30.7837 23.8739 31.9521 23.84H31.969C32.565 23.8338 33.1563 23.9501 33.7084 24.1821C34.2606 24.4141 34.7626 24.7572 35.1854 25.1914C35.6082 25.6256 35.9432 26.1423 36.1711 26.7114C36.3991 27.2806 36.5152 27.8909 36.513 28.5069C36.5786 29.6053 36.1287 30.7987 35.3076 31.6995C34.885 32.1659 34.3735 32.5368 33.8054 32.7889C33.2373 33.0409 32.6248 33.1687 32.0065 33.1641ZM31.9521 24.0395C30.8329 24.0732 29.7696 24.5529 28.9847 25.3782C28.3802 25.9967 27.9671 26.7867 27.7977 27.6481C27.6283 28.5096 27.7102 29.4036 28.0331 30.2168C28.356 31.0301 28.9053 31.7259 29.6114 32.2161C30.3174 32.7063 31.1484 32.9688 31.999 32.9703C32.5911 32.9754 33.1778 32.854 33.7223 32.6136C34.2669 32.3732 34.7574 32.0192 35.1633 31.5736C35.9506 30.7095 36.3818 29.5685 36.318 28.5204C36.3205 27.9297 36.2094 27.3444 35.991 26.7985C35.7726 26.2526 35.4514 25.7571 35.046 25.3406C34.6406 24.9242 34.1592 24.5953 33.6296 24.3729C33.1001 24.1505 32.5331 24.0392 31.9615 24.0453L31.9521 24.0395Z" fill="#272727"/>
<path d="M35.6543 12.4101C35.733 12.1699 35.8099 11.9297 35.8924 11.6895C35.9355 11.5655 35.9842 11.4434 36.033 11.3214C36.0592 11.2433 36.111 11.1771 36.1795 11.1343C36.2479 11.0915 36.3287 11.0747 36.4079 11.087C36.5953 11.1083 36.7828 11.149 36.9702 11.18C37.0701 11.203 37.1717 11.2166 37.2739 11.2206C37.3491 11.2235 37.4228 11.1988 37.482 11.1509C37.6976 10.9397 37.9057 10.717 38.1081 10.4922C38.143 10.4506 38.1672 10.4006 38.1787 10.3468C38.1901 10.293 38.1884 10.2371 38.1737 10.1842C38.125 9.9498 38.0706 9.71539 38.0238 9.48098C38.002 9.3898 37.9931 9.29583 37.9975 9.20201C38.0035 9.13265 38.0359 9.06857 38.0875 9.02379C38.4345 8.78944 38.8136 8.61049 39.2122 8.49297C39.2713 8.47381 39.3348 8.47517 39.393 8.49687C39.4513 8.51856 39.501 8.55938 39.5347 8.61308C39.6771 8.80681 39.829 9.01604 39.9658 9.22332C40.0102 9.30229 40.0758 9.36626 40.1547 9.40752C40.2335 9.44878 40.3222 9.46554 40.4101 9.4558C40.6594 9.43642 40.9087 9.43255 41.1599 9.41899C41.2057 9.41689 41.2502 9.40304 41.2895 9.37868C41.3288 9.35433 41.3616 9.32024 41.3849 9.27951C41.4749 9.1439 41.5592 9.00441 41.6454 8.86687C41.7317 8.72932 41.7935 8.63052 41.8741 8.51622C41.9084 8.45758 41.9616 8.41324 42.0243 8.39093C42.087 8.36863 42.1552 8.36977 42.2172 8.39417C42.5646 8.51558 42.9083 8.64473 43.2482 8.78163C43.313 8.80815 43.367 8.8569 43.4011 8.91968C43.4353 8.98247 43.4474 9.05548 43.4357 9.12646C43.4169 9.32019 43.3738 9.51391 43.3419 9.70764C43.3288 9.79869 43.3157 9.90137 43.3082 9.98661C43.3012 10.0466 43.3079 10.1075 43.3278 10.1643C43.3477 10.2212 43.3801 10.2724 43.4225 10.314C43.61 10.4903 43.7881 10.6647 43.9643 10.8487C44.0149 10.9048 44.0793 10.9457 44.1506 10.9668C44.222 10.988 44.2975 10.9887 44.3692 10.9688C44.6148 10.9126 44.8604 10.8506 45.1078 10.7964C45.1874 10.7672 45.2749 10.7711 45.3518 10.8072C45.4288 10.8433 45.4891 10.9089 45.5202 10.9901C45.6608 11.2923 45.7976 11.6004 45.927 11.9084C45.9523 11.9501 45.9691 11.9967 45.9764 12.0454C45.9837 12.0941 45.9813 12.1438 45.9694 12.1915C45.9574 12.2392 45.9362 12.2838 45.907 12.3228C45.8778 12.3617 45.8412 12.3941 45.7995 12.4179C45.6739 12.5225 45.5371 12.6116 45.4077 12.7123C45.314 12.784 45.2203 12.8576 45.134 12.9371C45.0963 12.9686 45.0663 13.0089 45.0464 13.0547C45.0266 13.1005 45.0174 13.1504 45.0197 13.2005C45.0197 13.4679 45.0291 13.7352 45.0403 14.0006C45.0424 14.0733 45.0626 14.1441 45.0991 14.2062C45.1356 14.2684 45.187 14.3197 45.2484 14.3552C45.389 14.4443 45.5314 14.5276 45.672 14.6167C45.7603 14.6703 45.8454 14.7291 45.927 14.793C45.9873 14.8332 46.0318 14.8942 46.0527 14.9651C46.0737 15.036 46.0696 15.1123 46.0413 15.1804C45.9264 15.502 45.8101 15.8249 45.6927 16.1491C45.6729 16.1981 45.647 16.2444 45.6158 16.2866C45.5881 16.3385 45.5453 16.38 45.4935 16.4054C45.4417 16.4307 45.3835 16.4387 45.3271 16.428L44.656 16.3118H44.6054C44.5109 16.2862 44.4111 16.291 44.3193 16.3257C44.2275 16.3603 44.1481 16.423 44.0918 16.5055C43.9643 16.6586 43.8218 16.798 43.6869 16.9453C43.6234 17.0089 43.5781 17.0894 43.5559 17.1779C43.5338 17.2664 43.5356 17.3595 43.5613 17.447C43.6156 17.6718 43.67 17.8965 43.715 18.1251C43.7326 18.1686 43.741 18.2155 43.7397 18.2626C43.7383 18.3098 43.7272 18.3561 43.7072 18.3984C43.6871 18.4408 43.6586 18.4783 43.6234 18.5083C43.5882 18.5383 43.5472 18.5602 43.5032 18.5726C43.1995 18.7237 42.892 18.8671 42.5809 19.0027C42.512 19.0417 42.4313 19.052 42.3553 19.0315C42.2793 19.0109 42.2138 18.9611 42.1722 18.8922C42.0522 18.7353 41.9435 18.5706 41.831 18.4079C41.5892 18.0592 41.5292 18.0205 41.1149 18.0495L40.6294 18.0786C40.5532 18.0804 40.4788 18.1024 40.4132 18.1424C40.3475 18.1824 40.2929 18.2392 40.2545 18.3072C40.157 18.4757 40.0671 18.6462 39.9602 18.8128C39.9051 18.8982 39.8424 18.9779 39.7727 19.0511C39.7425 19.0886 39.7016 19.1154 39.6559 19.1276C39.6101 19.1397 39.5618 19.1367 39.5178 19.1189C39.1897 18.993 38.8636 18.869 38.5374 18.7411C38.4932 18.7211 38.4511 18.6965 38.4118 18.6675C38.3617 18.6383 38.3216 18.5937 38.2971 18.5399C38.2725 18.4861 38.2648 18.4258 38.275 18.3672C38.3106 18.1386 38.3481 17.91 38.3818 17.6814C38.3924 17.6121 38.3993 17.5423 38.4024 17.4722C38.4089 17.415 38.402 17.3571 38.3825 17.3032C38.3629 17.2493 38.3312 17.201 38.29 17.1623C38.1025 16.9937 37.9375 16.8232 37.7613 16.6528C37.7115 16.602 37.6493 16.566 37.5813 16.5486C37.5134 16.5312 37.4422 16.5331 37.3752 16.554C37.1577 16.6101 36.9384 16.6586 36.7209 16.7109H36.6966C36.4098 16.7651 36.3216 16.7264 36.1942 16.4552C36.0555 16.1529 35.9299 15.8449 35.808 15.5349C35.7883 15.4994 35.7757 15.46 35.771 15.4193C35.7663 15.3786 35.7695 15.3373 35.7805 15.2979C35.7916 15.2586 35.8101 15.2219 35.8351 15.19C35.8601 15.1582 35.8911 15.1319 35.9261 15.1126C36.1004 14.977 36.2785 14.8433 36.4622 14.7252C36.5515 14.6725 36.6239 14.594 36.6706 14.4994C36.7172 14.4047 36.736 14.298 36.7247 14.1924C36.7078 13.9522 36.7022 13.712 36.6891 13.4718C36.6891 13.4214 36.6768 13.3718 36.6532 13.3278C36.6295 13.2837 36.5954 13.2466 36.5541 13.2199L35.973 12.8325C35.8365 12.7637 35.7282 12.6469 35.6674 12.5031L35.6543 12.4101ZM43.0533 13.7527C43.054 13.4512 42.9969 13.1526 42.8851 12.8741C42.7734 12.5956 42.6093 12.3428 42.4023 12.1304C42.1953 11.9179 41.9496 11.75 41.6794 11.6364C41.4092 11.5228 41.1198 11.4658 40.8281 11.4686C40.251 11.4884 39.7034 11.7368 39.2987 12.1623C38.8939 12.5879 38.6629 13.158 38.6536 13.7546C38.6566 14.3547 38.8879 14.9295 39.2976 15.3547C39.7073 15.7799 40.2625 16.0214 40.8431 16.027C41.1336 16.0309 41.4219 15.9748 41.6912 15.862C41.9604 15.7492 42.2051 15.582 42.411 15.3701C42.6168 15.1583 42.7797 14.9061 42.89 14.6283C43.0003 14.3506 43.0558 14.0529 43.0533 13.7527Z" fill="#FCFCFC"/>
<path d="M39.587 19.2216C39.5472 19.2212 39.5078 19.2134 39.4708 19.1984L39.1933 19.0918L38.4904 18.8206C38.4463 18.8004 38.4042 18.7758 38.3648 18.747L38.3479 18.7354C38.2816 18.6989 38.2279 18.642 38.1944 18.5726C38.1608 18.5031 38.1489 18.4246 38.1605 18.3479L38.2073 18.0457C38.2279 17.9179 38.2486 17.79 38.2673 17.6583C38.2673 17.5905 38.2823 17.5246 38.286 17.4645C38.2919 17.4219 38.2875 17.3785 38.2735 17.338C38.2595 17.2975 38.2361 17.2612 38.2054 17.2321L37.7312 16.7768L37.6749 16.7206C37.6361 16.6815 37.5876 16.6539 37.5348 16.641C37.482 16.628 37.4268 16.6301 37.375 16.647L36.9082 16.7594L36.7208 16.8039H36.6908C36.3571 16.8679 36.2278 16.8039 36.0872 16.494C35.9691 16.2324 35.8491 15.9477 35.701 15.5699C35.6529 15.4782 35.6415 15.3707 35.6692 15.2704C35.6969 15.1701 35.7615 15.085 35.8491 15.0333C36.0516 14.8744 36.224 14.7485 36.3909 14.6458C36.4663 14.6027 36.5276 14.5372 36.5667 14.4578C36.6058 14.3784 36.6209 14.2887 36.6102 14.2002C36.5989 14.0511 36.5933 13.9019 36.5877 13.7508C36.5877 13.6597 36.5877 13.5687 36.5746 13.4776C36.5748 13.4429 36.5664 13.4087 36.5504 13.3782C36.5343 13.3477 36.511 13.322 36.4827 13.3033L36.239 13.1444L35.9072 12.912C35.752 12.8289 35.6304 12.6916 35.5642 12.5245C35.5632 12.5148 35.5632 12.5051 35.5642 12.4954V12.4063C35.5633 12.396 35.5633 12.3856 35.5642 12.3753L35.6335 12.1642C35.6898 11.9937 35.746 11.8232 35.8041 11.6527C35.8472 11.5268 35.896 11.4028 35.9466 11.2788C35.98 11.1825 36.0444 11.1009 36.129 11.0477C36.2136 10.9944 36.3133 10.9728 36.4115 10.9863C36.5389 11.0018 36.6645 11.0251 36.7864 11.0464C36.8501 11.0593 36.9126 11.0709 36.9738 11.0812L37.0488 11.0948C37.1184 11.1105 37.1894 11.1189 37.2607 11.12C37.3125 11.122 37.3637 11.1071 37.4069 11.0774C37.6356 10.8526 37.8493 10.6202 38.0292 10.4226C38.0532 10.3921 38.0695 10.356 38.0767 10.3175C38.0839 10.279 38.0817 10.2392 38.0705 10.2017L38.003 9.88982C37.9749 9.75809 37.9468 9.62829 37.9205 9.50237C37.8963 9.40173 37.8874 9.2978 37.8943 9.19434C37.8978 9.14547 37.9113 9.09793 37.9339 9.05485C37.9566 9.01177 37.9878 8.97414 38.0255 8.94443C38.3801 8.70398 38.7683 8.52105 39.1765 8.402C39.2538 8.37771 39.3366 8.37986 39.4126 8.40814C39.4886 8.43641 39.5537 8.48929 39.5983 8.55892L39.752 8.77201C39.8476 8.90375 39.9394 9.03548 40.0332 9.17109C40.0674 9.23654 40.1198 9.28993 40.1836 9.32444C40.2473 9.35895 40.3196 9.37301 40.3912 9.36482C40.5562 9.35126 40.7193 9.34545 40.8842 9.33963H41.1429C41.1742 9.3376 41.2045 9.32749 41.231 9.31023C41.2575 9.29297 41.2795 9.26911 41.2948 9.24084C41.3472 9.16141 41.396 9.08004 41.4466 9.00061L41.5534 8.83013L41.5947 8.76427C41.6565 8.6674 41.7184 8.57054 41.7821 8.47561C41.8281 8.39981 41.898 8.34277 41.98 8.31417C42.062 8.28557 42.151 8.28717 42.232 8.31869C42.6482 8.46593 42.9669 8.5841 43.2668 8.70615C43.3506 8.73995 43.4207 8.80242 43.4654 8.88314C43.5101 8.96386 43.5267 9.05797 43.5124 9.14978C43.5011 9.28345 43.4768 9.41906 43.4543 9.54692C43.4411 9.61279 43.4299 9.67866 43.4205 9.74065C43.4046 9.83036 43.3933 9.9209 43.3868 10.0119C43.3805 10.0572 43.3849 10.1033 43.3996 10.1465C43.4143 10.1897 43.4388 10.2285 43.4711 10.2598L43.6024 10.3877C43.7411 10.5233 43.8817 10.657 44.0166 10.7984C44.0557 10.843 44.1062 10.8753 44.1622 10.8918C44.2182 10.9082 44.2775 10.9081 44.3334 10.8914L44.6915 10.8081C44.819 10.7771 44.9446 10.7461 45.0664 10.719C45.1682 10.6863 45.2782 10.6944 45.3745 10.7418C45.4707 10.7892 45.5461 10.8724 45.5857 10.9747C45.7263 11.2808 45.8631 11.5907 45.9924 11.8968C46.0221 11.9483 46.0417 12.0053 46.0499 12.0646C46.0582 12.1239 46.055 12.1843 46.0405 12.2423C46.0261 12.3003 46.0006 12.3547 45.9656 12.4025C45.9307 12.4503 45.8869 12.4904 45.8369 12.5206C45.7619 12.5826 45.6831 12.6407 45.6025 12.6969L45.4413 12.817C45.3438 12.8906 45.2539 12.9643 45.1751 13.0359C45.1476 13.0593 45.1259 13.089 45.1115 13.1226C45.0972 13.1563 45.0907 13.193 45.0926 13.2297V13.3963C45.0926 13.6074 45.0926 13.8167 45.1095 14.0278C45.1109 14.0847 45.1267 14.1402 45.1553 14.1888C45.1839 14.2374 45.2244 14.2774 45.2726 14.3049L45.4469 14.4114L45.6963 14.5644C45.7873 14.6204 45.8756 14.6812 45.9606 14.7466C46.0352 14.7993 46.0902 14.8769 46.1165 14.9664C46.1427 15.0558 46.1386 15.1519 46.1049 15.2386C45.9899 15.5615 45.8737 15.8844 45.7562 16.2073C45.7358 16.2582 45.7093 16.3063 45.6775 16.3506C45.6399 16.4206 45.5821 16.4768 45.5123 16.5115C45.4425 16.5462 45.364 16.5576 45.2876 16.5443L44.7702 16.4552L44.6146 16.4281H44.5584C44.4815 16.4062 44.3999 16.4093 44.3247 16.437C44.2496 16.4648 44.1846 16.5158 44.1385 16.5831C44.0485 16.6935 43.951 16.7981 43.8517 16.8969L43.7298 17.0267C43.6772 17.0788 43.6397 17.145 43.6215 17.2179C43.6033 17.2908 43.6051 17.3675 43.6267 17.4394C43.6811 17.6563 43.7355 17.8888 43.7823 18.1213C43.8017 18.1755 43.8102 18.2332 43.8074 18.291C43.8046 18.3487 43.7905 18.4052 43.766 18.4572C43.7415 18.5092 43.707 18.5554 43.6647 18.5933C43.6224 18.6311 43.5732 18.6597 43.5199 18.6773C43.2443 18.8129 42.9425 18.9543 42.5938 19.1073C42.506 19.1549 42.4041 19.1669 42.3082 19.1412C42.2122 19.1154 42.1289 19.0536 42.0746 18.9679C41.9752 18.8381 41.8871 18.7005 41.7896 18.5688L41.7297 18.4797C41.5066 18.1561 41.4766 18.1426 41.0942 18.162L40.8224 18.1775L40.6105 18.191C40.5487 18.1913 40.488 18.2083 40.4344 18.2402C40.3808 18.2722 40.3362 18.318 40.305 18.3731C40.2712 18.4293 40.2394 18.4874 40.2075 18.5436C40.1419 18.656 40.0763 18.7703 40.0088 18.8807C39.9502 18.9714 39.8837 19.0563 39.8101 19.1345C39.7488 19.1913 39.6693 19.2223 39.587 19.2216ZM37.48 16.43C37.6041 16.4293 37.7234 16.4795 37.8118 16.5695L37.868 16.6257L38.3404 17.079C38.3919 17.1275 38.4316 17.1879 38.4564 17.2552C38.4811 17.3225 38.4902 17.3949 38.4829 17.4665C38.4797 17.5404 38.4728 17.6141 38.4623 17.6873C38.4435 17.8152 38.4229 17.943 38.4023 18.0748L38.3535 18.377C38.3491 18.4157 38.356 18.4548 38.3733 18.4894C38.3907 18.524 38.4178 18.5523 38.451 18.5707L38.4679 18.5823C38.4958 18.6033 38.526 18.6209 38.5579 18.6347L39.259 18.9059L39.5364 19.0124C39.5634 19.024 39.5934 19.0259 39.6216 19.0178C39.6498 19.0097 39.6746 18.9921 39.692 18.9679C39.7575 18.8989 39.8165 18.8237 39.8682 18.7431C39.9357 18.6366 39.9994 18.5242 40.0557 18.4138C40.0875 18.3557 40.1213 18.2995 40.155 18.2414C40.2015 18.1588 40.2679 18.0901 40.3478 18.0419C40.4276 17.9937 40.5181 17.9677 40.6105 17.9663L40.8205 17.9527L41.0942 17.9372C41.5422 17.914 41.6322 17.9585 41.8927 18.3363L41.9527 18.4254C42.0427 18.5552 42.1402 18.6908 42.2302 18.8129C42.2445 18.8388 42.2637 18.8614 42.2866 18.8796C42.3095 18.8977 42.3357 18.9109 42.3636 18.9185C42.3915 18.9261 42.4206 18.9279 42.4492 18.9237C42.4778 18.9195 42.5053 18.9095 42.5301 18.8942C42.875 18.7412 43.175 18.6017 43.4486 18.4661C43.6192 18.3809 43.6473 18.3247 43.608 18.1252C43.5686 17.9256 43.5086 17.666 43.4561 17.4529C43.4261 17.3492 43.4241 17.2391 43.4502 17.1343C43.4763 17.0295 43.5295 16.934 43.6042 16.8582L43.728 16.7264C43.8217 16.6296 43.9154 16.5327 44.0054 16.4223C44.0748 16.3263 44.1706 16.2543 44.2804 16.2156C44.3901 16.1768 44.5085 16.1733 44.6203 16.2053H44.6427H44.6652L44.819 16.2305L45.3363 16.3196C45.375 16.3265 45.4148 16.3207 45.4502 16.303C45.4855 16.2852 45.5145 16.2565 45.5332 16.2208C45.5595 16.1849 45.5815 16.1459 45.5988 16.1046C45.7169 15.783 45.8331 15.4633 45.9475 15.1359C45.9675 15.0875 45.9701 15.0333 45.9546 14.9831C45.9391 14.9329 45.9066 14.8902 45.8631 14.8628C45.7842 14.8015 45.7022 14.7446 45.6175 14.6923L45.372 14.5412L45.1939 14.4327C45.1192 14.3893 45.0567 14.3268 45.0124 14.2511C44.968 14.1754 44.9434 14.0891 44.9408 14.0007C44.9314 13.7876 44.9277 13.5764 44.9239 13.3633V13.1967C44.9214 13.1324 44.9333 13.0684 44.9587 13.0096C44.984 12.9508 45.0222 12.8988 45.0702 12.8577C45.1564 12.7802 45.2482 12.7047 45.3495 12.6272L45.5144 12.5051C45.5913 12.4509 45.6681 12.3966 45.7394 12.3366C45.7717 12.3192 45.8002 12.2949 45.823 12.2655C45.8459 12.236 45.8625 12.202 45.8718 12.1655C45.8812 12.1291 45.8831 12.091 45.8774 12.0537C45.8717 12.0165 45.8585 11.9808 45.8387 11.9491C45.7113 11.645 45.5744 11.337 45.4338 11.0328C45.4233 11.0017 45.407 10.9731 45.3857 10.9487C45.3644 10.9242 45.3386 10.9043 45.3098 10.8903C45.281 10.8762 45.2498 10.8682 45.218 10.8667C45.1862 10.8653 45.1544 10.8704 45.1245 10.8817L44.7496 10.9708L44.3878 11.0541C44.3009 11.0784 44.2092 11.0776 44.1227 11.052C44.0361 11.0264 43.958 10.9769 43.8967 10.9088C43.7654 10.7713 43.6267 10.6376 43.488 10.502L43.3587 10.3761C43.3055 10.3251 43.2647 10.2618 43.2396 10.1915C43.2145 10.1211 43.2059 10.0456 43.2143 9.97118C43.2143 9.87432 43.2349 9.77746 43.2499 9.68447L43.2837 9.49074C43.3062 9.36676 43.3305 9.23696 43.3418 9.10329C43.3507 9.05367 43.343 9.00239 43.3198 8.95798C43.2966 8.91357 43.2594 8.8787 43.2143 8.85919C42.9181 8.74102 42.6013 8.62285 42.187 8.47174C42.144 8.453 42.0957 8.45155 42.0517 8.46767C42.0076 8.4838 41.971 8.51634 41.949 8.55892C41.8852 8.6519 41.8253 8.75264 41.7615 8.84176L41.7203 8.90569L41.6134 9.07617C41.5628 9.15753 41.5122 9.2389 41.4597 9.32026C41.4279 9.37314 41.3841 9.4173 41.3322 9.449C41.2804 9.4807 41.2218 9.49901 41.1617 9.50237L40.8992 9.51399C40.738 9.51399 40.5768 9.52561 40.4156 9.53917C40.3116 9.54883 40.2071 9.52839 40.1137 9.48015C40.0204 9.43191 39.9418 9.35776 39.8869 9.26602C39.7988 9.13235 39.6995 9.00255 39.6114 8.87857C39.5589 8.80689 39.5064 8.73521 39.4558 8.66159C39.4334 8.62402 39.3993 8.59548 39.359 8.58069C39.3188 8.56589 39.2749 8.56573 39.2346 8.58023C38.8444 8.69362 38.4733 8.86805 38.1342 9.09748C38.109 9.1274 38.0933 9.16459 38.0892 9.20403C38.0861 9.28809 38.0943 9.3722 38.1136 9.45393C38.138 9.58373 38.168 9.71353 38.1961 9.84139C38.2242 9.96925 38.2411 10.0506 38.2617 10.1552C38.2795 10.2221 38.281 10.2926 38.2659 10.3602C38.2509 10.4278 38.2198 10.4906 38.1754 10.5427C37.988 10.7364 37.778 10.9786 37.5456 11.2072C37.4681 11.2698 37.3722 11.3033 37.2738 11.3021C37.1899 11.3014 37.1064 11.2916 37.0245 11.273L36.9532 11.2614L36.7658 11.2265C36.6458 11.2033 36.5239 11.182 36.4021 11.1684C36.3442 11.1599 36.2853 11.1727 36.2356 11.2046C36.1859 11.2365 36.1486 11.2854 36.1303 11.3428C36.0815 11.4629 36.0347 11.583 35.9916 11.705C35.9335 11.8755 35.8791 12.0441 35.8229 12.2145L35.7591 12.4083V12.4625C35.8151 12.5768 35.906 12.6687 36.0178 12.724L36.359 12.9488L36.6027 13.1096C36.6568 13.1441 36.7015 13.1922 36.7327 13.2495C36.7638 13.3067 36.7804 13.3713 36.7808 13.437C36.7808 13.5299 36.7901 13.6307 36.7939 13.7121C36.7939 13.8612 36.8051 14.0085 36.8145 14.1576C36.8281 14.2803 36.8066 14.4044 36.7526 14.5146C36.6986 14.6248 36.6145 14.7162 36.5108 14.7775C36.3477 14.886 36.1809 15.0081 35.9822 15.165C35.8529 15.2657 35.836 15.3258 35.8941 15.475C36.0403 15.8489 36.1584 16.1298 36.269 16.3894C36.3721 16.6141 36.419 16.6373 36.6702 16.5831L36.7114 16.6722L36.6908 16.5773L36.8782 16.5327C37.032 16.4978 37.1876 16.461 37.3413 16.4223C37.3876 16.4187 37.4343 16.4213 37.48 16.43ZM40.8542 16.124C40.2556 16.1096 39.6859 15.8545 39.2664 15.4129C38.8469 14.9713 38.6105 14.378 38.6076 13.7592C38.6046 13.1403 38.8354 12.5447 39.2507 12.0989C39.666 11.6531 40.2332 11.3923 40.8317 11.3718C41.1357 11.3682 41.4373 11.4272 41.719 11.5453C42.0007 11.6634 42.2569 11.8382 42.4725 12.0596C42.6882 12.281 42.859 12.5446 42.9751 12.835C43.0912 13.1253 43.1502 13.4366 43.1487 13.7508C43.1567 14.0513 43.1064 14.3505 43.0008 14.6306C42.8952 14.9108 42.7365 15.1662 42.5338 15.382C42.3175 15.6189 42.0562 15.8071 41.7662 15.9348C41.4762 16.0625 41.1638 16.1269 40.8486 16.124H40.8542ZM40.8261 11.5656C40.2788 11.582 39.7589 11.8167 39.3752 12.2204C39.1783 12.4208 39.0219 12.6596 38.915 12.923C38.8082 13.1864 38.7531 13.4691 38.7528 13.7547C38.7533 14.3298 38.974 14.8814 39.3666 15.289C39.7593 15.6967 40.2921 15.9272 40.8486 15.9302C41.1379 15.9327 41.4246 15.8734 41.6907 15.7561C41.9569 15.6387 42.1967 15.4659 42.3951 15.2483C42.5807 15.0516 42.7261 14.8184 42.8227 14.5624C42.9193 14.3065 42.9652 14.0331 42.9575 13.7585C42.9588 13.4696 42.9044 13.1834 42.7975 12.9164C42.6907 12.6495 42.5335 12.4071 42.3351 12.2036C42.1367 12 41.9012 11.8393 41.6421 11.7307C41.383 11.6222 41.1056 11.568 40.8261 11.5714V11.5656Z" fill="#272727"/>
<path d="M2.14829 15.8643C2.73219 16.5194 3.50203 16.9664 4.34718 17.141C4.9449 17.2665 5.51239 17.514 6.01645 17.8689C6.52051 18.2238 6.95101 18.6791 7.28277 19.208C8.16195 20.6184 8.99801 22.0558 9.85282 23.4816L12.5353 27.9509C13.2589 29.1598 13.9819 30.368 14.7042 31.5756C15.3141 32.5971 15.9258 33.6161 16.5394 34.6326C16.7533 34.9746 17.0642 35.2399 17.4297 35.3922C17.7952 35.5445 18.1973 35.5762 18.5809 35.483C18.9621 35.4032 19.3085 35.199 19.569 34.9004C19.8295 34.6019 19.9904 34.2248 20.028 33.8247C20.0702 33.4807 19.9974 33.1322 19.8218 32.8367C19.3644 32.1219 18.9089 31.407 18.4421 30.7057C17.2837 28.9506 16.122 27.1973 14.9573 25.446C14.1075 24.1662 13.2596 22.8837 12.4135 21.5986C11.7424 20.5874 11.0719 19.5761 10.4021 18.5649C10.1137 18.1666 9.84886 17.7506 9.60912 17.3192C9.09831 16.3156 8.96476 15.1522 9.23421 14.053C9.79658 11.55 7.94825 9.19235 5.39507 9.07612C5.33918 9.06313 5.28082 9.06762 5.22741 9.089C5.174 9.11039 5.12796 9.14772 5.09513 9.19623C5.02577 9.3144 5.08389 9.4132 5.14762 9.51394L6.48045 11.6275C6.53031 11.6959 6.56491 11.7749 6.58178 11.8588C6.59865 11.9427 6.59736 12.0294 6.57801 12.1127C6.55867 12.196 6.52174 12.2739 6.46987 12.3407C6.418 12.4075 6.35248 12.4617 6.27799 12.4993L4.12973 13.8205C4.06395 13.8654 3.99018 13.8963 3.91272 13.9115C3.83525 13.9267 3.75565 13.9257 3.67853 13.9088C3.60142 13.8918 3.52834 13.8592 3.46355 13.8128C3.39876 13.7664 3.34356 13.7071 3.30116 13.6384C3.06871 13.2781 2.84189 12.9138 2.61319 12.5496C2.38699 12.1919 2.16079 11.8329 1.93459 11.4725C1.91176 11.4211 1.87499 11.3776 1.82875 11.3474C1.7825 11.3171 1.72876 11.3014 1.67403 11.302C1.62057 11.3053 1.56943 11.3257 1.52776 11.3604C1.48608 11.3951 1.45595 11.4425 1.44158 11.4958C0.798597 13.1056 1.02167 14.5547 2.14829 15.8643ZM17.3886 34.1347C17.3262 34.0368 17.2838 33.9267 17.264 33.8112C17.2442 33.6957 17.2475 33.5772 17.2737 33.4631C17.2999 33.349 17.3483 33.2416 17.4161 33.1475C17.4839 33.0535 17.5696 32.9747 17.6679 32.9161C17.8689 32.7807 18.1136 32.7332 18.3483 32.784C18.5831 32.8349 18.7888 32.98 18.9202 33.1874C18.9825 33.2878 19.0243 33.4003 19.0429 33.5181C19.0615 33.6359 19.0565 33.7563 19.0282 33.872C18.9999 33.9877 18.9489 34.0962 18.8784 34.1907C18.8079 34.2852 18.7194 34.3637 18.6184 34.4214C18.4163 34.5434 18.1771 34.5816 17.9488 34.5284C17.7206 34.4752 17.5204 34.3345 17.3886 34.1347Z" fill="#FCFCFC" stroke="#272727" stroke-width="1.015" stroke-linecap="round" stroke-linejoin="round"/>
<path d="M7.7077 8.39416C8.19386 8.42681 8.68134 8.35604 9.13998 8.18623C9.59862 8.01642 10.0187 7.75117 10.3742 7.40689C10.7297 7.06262 11.013 6.64663 11.2067 6.18467C11.4004 5.7227 11.5004 5.22457 11.5004 4.72109C11.5004 4.21762 11.4004 3.71949 11.2067 3.25752C11.013 2.79555 10.7297 2.37957 10.3742 2.0353C10.0187 1.69102 9.59862 1.42577 9.13998 1.25596C8.68134 1.08615 8.19386 1.01538 7.7077 1.04803V4.72884H4.146C4.14996 5.70237 4.52696 6.63462 5.19448 7.32156C5.862 8.00849 6.76567 8.39416 7.7077 8.39416Z" fill="#FCFCFC"/>
<path d="M7.70799 8.49114C6.74081 8.49012 5.81352 8.0926 5.12961 7.38583C4.4457 6.67905 4.06105 5.72075 4.06006 4.72122C4.06006 4.69553 4.06993 4.67089 4.08751 4.65273C4.10509 4.63456 4.12893 4.62436 4.15379 4.62436H7.61426V1.04816C7.61426 1.02247 7.62414 0.997831 7.64172 0.979665C7.6593 0.9615 7.68314 0.951294 7.70799 0.951294C8.67549 0.951294 9.60335 1.34848 10.2875 2.05548C10.9716 2.76248 11.3559 3.72137 11.3559 4.72122C11.3559 5.72107 10.9716 6.67996 10.2875 7.38696C9.60335 8.09396 8.67549 8.49114 7.70799 8.49114ZM4.24752 4.81033C4.26576 5.50877 4.48157 6.18638 4.8683 6.75947C5.25502 7.33257 5.79572 7.77604 6.42361 8.03511C7.05149 8.29418 7.73905 8.3575 8.40137 8.21725C9.06369 8.07699 9.67175 7.73932 10.1504 7.24592C10.6291 6.75253 10.9575 6.12503 11.0949 5.44094C11.2324 4.75684 11.1729 4.04612 10.9239 3.39656C10.6749 2.747 10.2472 2.18705 9.69365 1.78588C9.14012 1.38472 8.485 1.1599 7.80922 1.13921V4.72122C7.80922 4.74691 7.79935 4.77155 7.78177 4.78971C7.76419 4.80788 7.74035 4.81808 7.71549 4.81808L4.24752 4.81033Z" fill="#272727"/>
<path d="M3.31201 3.8378H6.87371V0.156982C5.92909 0.156982 5.02316 0.544781 4.35521 1.23507C3.68726 1.92535 3.31201 2.86158 3.31201 3.8378Z" fill="#FCFCFC"/>
<path d="M6.86588 3.93466H3.30418C3.27932 3.93466 3.25548 3.92446 3.2379 3.90629C3.22032 3.88813 3.21045 3.86349 3.21045 3.8378C3.21094 3.34222 3.30588 2.85159 3.48985 2.39392C3.67382 1.93626 3.94322 1.52052 4.28265 1.17045C4.62209 0.820384 5.02493 0.542835 5.46816 0.353653C5.91139 0.164472 6.38633 0.067364 6.86588 0.0678731C6.89074 0.0678731 6.91458 0.0780782 6.93216 0.0962437C6.94973 0.114409 6.95961 0.139047 6.95961 0.164737V3.84555C6.95772 3.86987 6.94702 3.89256 6.92964 3.90909C6.91226 3.92561 6.88949 3.93474 6.86588 3.93466ZM3.40728 3.74094H6.77215V0.253851C5.88621 0.280289 5.04373 0.656457 4.41789 1.30503C3.79205 1.9536 3.4304 2.8253 3.40728 3.74094Z" fill="#272727"/>
<path d="M6.70885 29.7778H3.83887V39.2608H6.70885V29.7778Z" fill="#FCFCFC"/>
<path d="M6.70882 39.3576H3.83885C3.81399 39.3576 3.79015 39.3474 3.77257 39.3292C3.75499 39.311 3.74512 39.2864 3.74512 39.2607V29.7778C3.74512 29.7521 3.75499 29.7274 3.77257 29.7093C3.79015 29.6911 3.81399 29.6809 3.83885 29.6809H6.70882C6.73368 29.6809 6.75752 29.6911 6.7751 29.7093C6.79268 29.7274 6.80255 29.7521 6.80255 29.7778V39.2588C6.8028 39.2717 6.80056 39.2845 6.79596 39.2964C6.79136 39.3084 6.7845 39.3193 6.77577 39.3285C6.76704 39.3377 6.75663 39.345 6.74513 39.35C6.73364 39.355 6.72129 39.3576 6.70882 39.3576ZM3.93257 39.1638H6.6151V29.8746H3.94195L3.93257 39.1638Z" fill="#272727"/>
<path d="M10.681 32.2943H7.81104V39.2607H10.681V32.2943Z" fill="#FCFCFC"/>
<path d="M10.6904 39.3576H7.81101C7.78616 39.3576 7.76232 39.3474 7.74474 39.3292C7.72716 39.3111 7.71729 39.2864 7.71729 39.2607V32.2866C7.71729 32.2609 7.72716 32.2362 7.74474 32.2181C7.76232 32.1999 7.78616 32.1897 7.81101 32.1897H10.6904C10.7152 32.1897 10.7391 32.1999 10.7566 32.2181C10.7742 32.2362 10.7841 32.2609 10.7841 32.2866V39.2607C10.7841 39.2864 10.7742 39.3111 10.7566 39.3292C10.7391 39.3474 10.7152 39.3576 10.6904 39.3576ZM7.91412 39.1639H10.5966V32.3834H7.90474L7.91412 39.1639Z" fill="#272727"/>
<path d="M14.6532 35.7775H11.7832V39.2607H14.6532V35.7775Z" fill="#FCFCFC"/>
<path d="M14.6532 39.3576H11.7832C11.7583 39.3576 11.7345 39.3474 11.7169 39.3292C11.6993 39.311 11.6895 39.2864 11.6895 39.2607V35.7717C11.6895 35.746 11.6993 35.7213 11.7169 35.7032C11.7345 35.685 11.7583 35.6748 11.7832 35.6748H14.6532C14.678 35.6748 14.7019 35.685 14.7194 35.7032C14.737 35.7213 14.7469 35.746 14.7469 35.7717V39.2588C14.7471 39.2716 14.7449 39.2844 14.7403 39.2964C14.7357 39.3084 14.7288 39.3193 14.7201 39.3285C14.7114 39.3377 14.701 39.345 14.6895 39.35C14.678 39.355 14.6656 39.3576 14.6532 39.3576ZM11.8769 39.1638H14.5594V35.8705H11.8769V39.1638Z" fill="#272727"/>
<path d="M16.0971 39.3575H2.78758C2.76272 39.3575 2.73888 39.3473 2.7213 39.3292C2.70372 39.311 2.69385 39.2864 2.69385 39.2607C2.69433 39.2351 2.70436 39.2108 2.72183 39.1927C2.73931 39.1747 2.76287 39.1643 2.78758 39.1638H16.1065C16.1313 39.1638 16.1552 39.174 16.1727 39.1922C16.1903 39.2104 16.2002 39.235 16.2002 39.2607C16.2003 39.2743 16.1976 39.2877 16.1923 39.3001C16.187 39.3126 16.1792 39.3237 16.1695 39.3328C16.1598 39.342 16.1483 39.3489 16.1358 39.3531C16.1234 39.3574 16.1102 39.3589 16.0971 39.3575Z" fill="#272727"/>
<path d="M37.8214 1.04799H30.323C30.1023 1.04799 29.8906 1.13862 29.7345 1.29993C29.5784 1.46123 29.4907 1.68002 29.4907 1.90814V5.41847C29.4905 5.53159 29.5118 5.64365 29.5535 5.74823C29.5953 5.85282 29.6565 5.94787 29.7338 6.02794C29.8112 6.10802 29.903 6.17155 30.0041 6.2149C30.1052 6.25825 30.2136 6.28056 30.323 6.28056H31.0035V7.59597L32.0383 6.28056H37.827C37.9365 6.28056 38.0448 6.25825 38.1459 6.2149C38.247 6.17155 38.3389 6.10802 38.4162 6.02794C38.4935 5.94787 38.5548 5.85282 38.5965 5.74823C38.6382 5.64365 38.6596 5.53159 38.6593 5.41847V1.90814C38.6593 1.79469 38.6376 1.68237 38.5954 1.57763C38.5532 1.47289 38.4914 1.37781 38.4135 1.29786C38.3357 1.21791 38.2432 1.15468 38.1416 1.11179C38.04 1.06891 37.9311 1.04723 37.8214 1.04799Z" fill="#FCFCFC"/>
<path d="M30.9976 7.69299C30.9877 7.69484 30.9776 7.69484 30.9676 7.69299C30.9493 7.6863 30.9334 7.67401 30.922 7.65774C30.9106 7.64148 30.9043 7.62201 30.9039 7.60194V6.37759H30.3172C30.0705 6.37453 29.835 6.27113 29.6617 6.0898C29.4883 5.90848 29.3911 5.66385 29.3911 5.40895V1.90831C29.394 1.65543 29.4925 1.41376 29.6656 1.23493C29.8386 1.05611 30.0725 0.954311 30.3172 0.951294H37.8155C38.0611 0.951294 38.2966 1.05212 38.4703 1.2316C38.644 1.41107 38.7415 1.65449 38.7415 1.90831V5.41864C38.7415 5.67353 38.6443 5.91816 38.471 6.09949C38.2976 6.28081 38.0621 6.38421 37.8155 6.38727H32.0774L31.0707 7.66587C31.0611 7.67543 31.0496 7.68278 31.037 7.68745C31.0244 7.69212 31.011 7.69401 30.9976 7.69299ZM30.3172 1.14502C30.1222 1.14802 29.936 1.2294 29.7981 1.3719C29.6602 1.5144 29.5815 1.7068 29.5786 1.90831V5.41864C29.5785 5.62216 29.656 5.81752 29.7942 5.96251C29.9324 6.10751 30.1202 6.19049 30.3172 6.19355H30.9976C31.0225 6.19355 31.0463 6.20375 31.0639 6.22192C31.0815 6.24008 31.0914 6.26472 31.0914 6.29041V7.33266L31.9593 6.22842C31.9682 6.21736 31.9794 6.20849 31.992 6.20245C32.0047 6.19642 32.0185 6.19338 32.0324 6.19355H37.8211C37.919 6.19356 38.016 6.17344 38.1064 6.13435C38.1967 6.09527 38.2786 6.038 38.3474 5.96589C38.4161 5.89378 38.4703 5.80826 38.5067 5.7143C38.5432 5.62035 38.5612 5.51985 38.5597 5.41864V1.90831C38.5597 1.70587 38.4819 1.51173 38.3434 1.36858C38.2048 1.22544 38.017 1.14502 37.8211 1.14502H30.3172Z" fill="#272727"/>
<path d="M37.4293 2.59986H30.709C30.6841 2.59986 30.6603 2.58965 30.6427 2.57148C30.6251 2.55332 30.6152 2.52868 30.6152 2.50299C30.6157 2.47746 30.6257 2.45311 30.6432 2.43505C30.6607 2.41699 30.6843 2.40662 30.709 2.40613H37.4293C37.4542 2.40613 37.478 2.41633 37.4956 2.4345C37.5132 2.45266 37.5231 2.4773 37.5231 2.50299C37.5231 2.52868 37.5132 2.55332 37.4956 2.57148C37.478 2.58965 37.4542 2.59986 37.4293 2.59986Z" fill="#D1D3D4"/>
<path d="M37.4293 3.74085H30.709C30.6843 3.74035 30.6607 3.72999 30.6432 3.71193C30.6257 3.69387 30.6157 3.66952 30.6152 3.64398C30.6152 3.61829 30.6251 3.59366 30.6427 3.57549C30.6603 3.55732 30.6841 3.54712 30.709 3.54712H37.4293C37.4542 3.54712 37.478 3.55732 37.4956 3.57549C37.5132 3.59366 37.5231 3.61829 37.5231 3.64398C37.5231 3.66967 37.5132 3.69431 37.4956 3.71248C37.478 3.73064 37.4542 3.74085 37.4293 3.74085Z" fill="#D1D3D4"/>
<path d="M35.7066 4.88001H30.709C30.6841 4.88001 30.6603 4.8698 30.6427 4.85164C30.6251 4.83347 30.6152 4.80883 30.6152 4.78314C30.6157 4.75761 30.6257 4.73326 30.6432 4.7152C30.6607 4.69714 30.6843 4.68678 30.709 4.68628H35.7066C35.7313 4.68678 35.7549 4.69714 35.7723 4.7152C35.7898 4.73326 35.7999 4.75761 35.8003 4.78314C35.8003 4.80883 35.7905 4.83347 35.7729 4.85164C35.7553 4.8698 35.7315 4.88001 35.7066 4.88001Z" fill="#D1D3D4"/>
</svg>
