<svg width="46" height="42" viewBox="0 0 46 42" fill="none" xmlns="http://www.w3.org/2000/svg">
<path d="M8.96875 35.0243C8.96875 35.0243 11.0259 30.5071 11.563 28.7418C12.1 26.9766 11.9425 21.7373 11.9425 21.7373L13.4303 18.1185C13.4303 18.1185 23.8679 10.2314 26.9043 8.52613C29.9407 6.8209 33.6109 4.16949 34.6851 4.75908C35.7592 5.34868 35.5713 6.64261 34.3055 7.93654C33.7855 8.46611 33.0815 9.02393 32.6507 9.6047C32.2996 10.0796 31.8612 11.5712 32.2825 12.1008C32.7873 12.7345 34.093 11.8148 34.7951 12.4379C35.1652 12.7663 35.1424 13.3435 34.8957 13.7583C34.649 14.1732 34.2296 14.4644 33.8444 14.784C32.8177 15.6101 31.9466 16.6481 31.1306 17.6419C30.2956 18.664 30.7738 20.1133 30.8402 21.2907C30.9199 22.7223 31.1344 24.4293 30.6998 25.8291C30.0033 28.064 25.9213 30.8301 24.1507 32.2441C22.3801 33.658 20.8923 38.3642 20.8923 38.3642L8.96875 35.0243Z" fill="#FCFCFC"/>
<path d="M20.896 38.4525H20.8676L8.94215 35.1126C8.92921 35.1091 8.91726 35.1031 8.9071 35.0948C8.89694 35.0866 8.88883 35.0764 8.88332 35.065C8.87815 35.0535 8.87549 35.0412 8.87549 35.0288C8.87549 35.0164 8.87815 35.0041 8.88332 34.9926C8.90419 34.9485 10.9443 30.4612 11.4737 28.7207C12.0032 26.9801 11.8533 21.7956 11.8533 21.7444C11.8513 21.7333 11.8513 21.722 11.8533 21.7109L13.3411 18.0903C13.347 18.0759 13.3568 18.0631 13.3696 18.0532C13.474 17.9738 23.8489 10.1431 26.8568 8.4538C27.6159 8.02484 28.4301 7.53234 29.2138 7.05572C31.7189 5.53231 33.8804 4.21896 34.7363 4.68675C34.9289 4.78463 35.0949 4.92222 35.2215 5.08898C35.3482 5.25573 35.4321 5.44723 35.4669 5.64881C35.577 6.3302 35.1917 7.16164 34.3795 7.99307C34.1897 8.1696 33.9999 8.36201 33.7893 8.55619C33.4035 8.89181 33.0498 9.258 32.7323 9.65064C32.3812 10.1255 31.9732 11.5642 32.3622 12.0443C32.5785 12.3162 32.9809 12.2544 33.4439 12.1838C33.907 12.1132 34.4782 12.0267 34.8653 12.3709C35.2524 12.7151 35.2449 13.3665 34.9811 13.7972C34.7368 14.1578 34.4235 14.4737 34.0569 14.7293L33.9089 14.8475C32.8936 15.6649 32.0111 16.7011 31.2103 17.6914C30.5897 18.4487 30.7206 19.4566 30.8478 20.4293C30.8857 20.7276 30.9218 21.0083 30.9389 21.2837C30.9503 21.5043 30.9655 21.732 30.9825 21.965C31.0679 23.2237 31.1723 24.6518 30.7928 25.8486C30.2045 27.748 27.2288 30.0093 25.2476 31.5151C24.868 31.8046 24.5055 32.0799 24.2152 32.3112C22.4863 33.6899 21.0023 38.3431 20.989 38.389C20.9817 38.4114 20.9654 38.4303 20.9435 38.4419C20.9288 38.449 20.9125 38.4527 20.896 38.4525ZM9.09776 34.9679L20.8315 38.2548C21.0478 37.5911 22.4294 33.501 24.0918 32.177C24.3841 31.944 24.7465 31.6686 25.128 31.3774C27.0827 29.8928 30.0375 27.6474 30.6106 25.8045C30.9749 24.6359 30.8782 23.2254 30.8003 21.9792C30.7852 21.7462 30.7681 21.5184 30.7567 21.296C30.7415 21.0277 30.7055 20.7488 30.6675 20.454C30.5423 19.4919 30.3999 18.4028 31.066 17.589C31.8821 16.5899 32.7626 15.5466 33.7931 14.7187L33.9411 14.5986C34.2897 14.3559 34.5886 14.057 34.8236 13.716C35.0437 13.3436 35.0873 12.8087 34.742 12.5015C34.3966 12.1944 33.9449 12.2915 33.4838 12.3621C33.0226 12.4327 32.5026 12.5104 32.218 12.152C31.7511 11.5677 32.2331 10.0337 32.5842 9.55532C32.9069 9.15201 33.2683 8.77682 33.664 8.43438C33.8709 8.24197 34.0683 8.06015 34.2466 7.87656C35.0057 7.09809 35.3853 6.28784 35.2866 5.67882C35.2582 5.50173 35.1858 5.33325 35.0751 5.18677C34.9644 5.04029 34.8185 4.91985 34.649 4.83503C33.8899 4.42196 31.5708 5.83417 29.3239 7.20047C28.5401 7.67709 27.7279 8.17136 26.9631 8.60032C24.0292 10.2491 14.03 17.7796 13.5176 18.1715L12.0469 21.7532C12.0582 22.1433 12.1892 27.049 11.6673 28.7666C11.1625 30.3782 9.39002 34.3201 9.09776 34.9679Z" fill="#272727"/>
<path d="M32.3359 0.0794678H19.0498C18.5142 0.0794678 18.0801 0.483327 18.0801 0.981512V27.4073C18.0801 27.9055 18.5142 28.3094 19.0498 28.3094H32.3359C32.8715 28.3094 33.3057 27.9055 33.3057 27.4073V0.981512C33.3057 0.483327 32.8715 0.0794678 32.3359 0.0794678Z" fill="#FCFCFC"/>
<path d="M32.3356 28.3994H19.0514C18.7685 28.3994 18.4973 28.2949 18.2972 28.1088C18.0972 27.9228 17.9849 27.6704 17.9849 27.4073V0.983246C17.9874 0.721664 18.1008 0.471588 18.3006 0.287444C18.5003 0.103299 18.7702 -1.03523e-05 19.0514 7.78076e-10H32.3356C32.6181 0.000467631 32.8889 0.105195 33.0885 0.291194C33.2881 0.477193 33.4002 0.729264 33.4002 0.992072V27.4073C33.4002 27.6701 33.2881 27.9222 33.0885 28.1082C32.8889 28.2942 32.6181 28.3989 32.3356 28.3994ZM19.0514 0.176525C18.8189 0.176525 18.5959 0.262449 18.4314 0.415394C18.267 0.568339 18.1746 0.775776 18.1746 0.992072V27.4073C18.1746 27.6236 18.267 27.8311 18.4314 27.984C18.5959 28.1369 18.8189 28.2229 19.0514 28.2229H32.3356C32.5678 28.2224 32.7903 28.1363 32.9543 27.9834C33.1183 27.8305 33.2105 27.6233 33.2105 27.4073V0.983246C33.208 0.768788 33.1147 0.563875 32.951 0.412884C32.7873 0.261893 32.5662 0.176977 32.3356 0.176525H19.0514Z" fill="#272727"/>
<path d="M32.5369 2.63367H18.9111V24.3604H32.5369V2.63367Z" fill="#188B30"/>
<path d="M27.1473 27.5379H24.555C24.3718 27.5379 24.1961 27.4702 24.0666 27.3497C23.937 27.2292 23.8643 27.0658 23.8643 26.8954V25.9739C23.8643 25.8033 23.937 25.6397 24.0665 25.5189C24.196 25.3981 24.3717 25.3301 24.555 25.3296H27.1473C27.3307 25.3301 27.5064 25.3981 27.6359 25.5189C27.7654 25.6397 27.8381 25.8033 27.8381 25.9739V26.8954C27.8381 27.0658 27.7653 27.2292 27.6358 27.3497C27.5063 27.4702 27.3306 27.5379 27.1473 27.5379ZM24.555 25.5061C24.422 25.5066 24.2946 25.5561 24.2007 25.6438C24.1068 25.7314 24.054 25.8501 24.054 25.9739V26.8954C24.054 27.019 24.1068 27.1375 24.2008 27.2249C24.2947 27.3123 24.4222 27.3614 24.555 27.3614H27.1473C27.2802 27.3614 27.4077 27.3123 27.5016 27.2249C27.5956 27.1375 27.6484 27.019 27.6484 26.8954V25.9739C27.6484 25.8501 27.5956 25.7314 27.5017 25.6438C27.4078 25.5561 27.2804 25.5066 27.1473 25.5061H24.555Z" fill="#FCFCFC"/>
<path d="M26.8284 1.43336H22.9494C22.9242 1.43336 22.9001 1.42406 22.8823 1.40751C22.8645 1.39096 22.8545 1.36851 22.8545 1.3451C22.8545 1.32169 22.8645 1.29924 22.8823 1.28269C22.9001 1.26613 22.9242 1.25684 22.9494 1.25684H26.8284C26.8535 1.25684 26.8777 1.26613 26.8955 1.28269C26.9133 1.29924 26.9233 1.32169 26.9233 1.3451C26.9233 1.36851 26.9133 1.39096 26.8955 1.40751C26.8777 1.42406 26.8535 1.43336 26.8284 1.43336Z" fill="#FCFCFC"/>
<path d="M27.8932 1.391H27.3732C27.348 1.391 27.3239 1.3817 27.3061 1.36515C27.2883 1.3486 27.2783 1.32615 27.2783 1.30274C27.2783 1.27933 27.2883 1.25688 27.3061 1.24033C27.3239 1.22378 27.348 1.21448 27.3732 1.21448H27.8932C27.9184 1.21448 27.9425 1.22378 27.9603 1.24033C27.9781 1.25688 27.9881 1.27933 27.9881 1.30274C27.9881 1.32615 27.9781 1.3486 27.9603 1.36515C27.9425 1.3817 27.9184 1.391 27.8932 1.391Z" fill="#FCFCFC"/>
<path d="M31.8461 12.4397C31.789 12.6838 31.7964 12.9371 31.8675 13.178C31.9387 13.4189 32.0716 13.6401 32.2547 13.8228C32.4379 14.0055 32.6659 14.1442 32.9193 14.2271C33.1727 14.3099 33.4439 14.3344 33.7096 14.2985C34.0142 14.2542 34.3023 14.1409 34.5484 13.9684C34.7751 13.8152 34.9633 13.6181 35.1003 13.3908C35.2372 13.1635 35.3196 12.9113 35.3417 12.6515C35.3948 11.8024 34.6243 11.0628 33.7286 10.9604C32.8898 10.8633 32.0112 11.7283 31.8461 12.4397Z" fill="#FCFCFC"/>
<path d="M33.4803 14.4009C33.2174 14.4019 32.9577 14.348 32.7202 14.2433C32.4827 14.1386 32.2734 13.9857 32.1077 13.7959C31.9421 13.6061 31.8243 13.3841 31.7629 13.1464C31.7016 12.9087 31.6983 12.6612 31.7533 12.4221C31.9431 11.6366 32.8616 10.7698 33.7402 10.8704C34.729 10.9834 35.4919 11.7848 35.4368 12.6551C35.4142 12.9278 35.3282 13.1926 35.1847 13.4312C35.0411 13.6699 34.8436 13.8767 34.6056 14.0373C34.3469 14.2203 34.0439 14.3416 33.7232 14.3903C33.6426 14.3992 33.5614 14.4027 33.4803 14.4009ZM33.5998 11.047C32.8711 11.047 32.0949 11.7937 31.9393 12.4592C31.8863 12.6892 31.8938 12.9277 31.9612 13.1544C32.0287 13.3812 32.154 13.5894 32.3266 13.7614C32.4992 13.9333 32.7139 14.064 32.9524 14.1421C33.1909 14.2203 33.4463 14.2437 33.6966 14.2103C33.986 14.1679 34.2597 14.06 34.4937 13.8961C34.7102 13.7512 34.8903 13.5642 35.0213 13.348C35.1524 13.1319 35.2314 12.8919 35.2527 12.6445C35.3002 11.8784 34.5999 11.1458 33.7232 11.0452C33.6814 11.0417 33.6397 11.0399 33.5998 11.0399V11.047Z" fill="#272727"/>
<path d="M31.2539 17.9439C31.1453 18.0876 31.0732 18.2523 31.043 18.4256C31.0127 18.599 31.0252 18.7765 31.0793 18.9448C31.167 19.1422 31.3028 19.3181 31.4759 19.4584C31.9333 19.8609 32.5576 20.1451 33.1839 20.0586C33.5641 19.9857 33.9216 19.8336 34.2296 19.6138C34.7799 19.2607 35.3075 18.8159 35.4897 18.221C35.7534 17.3578 35.0816 16.1027 33.9942 16.2227C33.0947 16.3269 31.7302 17.2572 31.2539 17.9439Z" fill="#FCFCFC"/>
<path d="M32.9522 20.1628C32.3673 20.1413 31.8133 19.9127 31.4037 19.5237C31.2188 19.3741 31.0745 19.186 30.9824 18.9747C30.9238 18.7934 30.9105 18.602 30.9434 18.4151C30.9763 18.2282 31.0545 18.0507 31.1721 17.8962C31.6599 17.1901 33.049 16.2439 33.9732 16.1309C34.1952 16.107 34.4201 16.1361 34.6266 16.2155C34.8331 16.2949 35.0145 16.4219 35.1536 16.5846C35.3576 16.8106 35.5018 17.078 35.5746 17.3653C35.6474 17.6525 35.6469 17.9516 35.573 18.2386C35.4136 18.7682 35.0037 19.2183 34.2769 19.6808C33.9563 19.9082 33.5845 20.0651 33.1894 20.1398C33.1111 20.1527 33.0318 20.1604 32.9522 20.1628ZM31.3335 17.9915C31.2325 18.1237 31.1652 18.2755 31.1366 18.4354C31.108 18.5954 31.1189 18.7593 31.1683 18.9147C31.2525 19.1003 31.3825 19.2648 31.5479 19.3949C32.047 19.8344 32.6372 20.0445 33.1705 19.9703C33.5358 19.8984 33.8793 19.7519 34.1763 19.5414C34.8633 19.1018 35.2523 18.6746 35.3984 18.1963C35.4644 17.9373 35.4644 17.6676 35.3985 17.4086C35.3326 17.1497 35.2026 16.9086 35.0189 16.7046C34.8995 16.5651 34.7442 16.4559 34.5674 16.3871C34.3906 16.3183 34.198 16.2921 34.0074 16.311C33.1439 16.4116 31.7984 17.3348 31.341 17.9915H31.3335Z" fill="#272727"/>
<path d="M31.8065 21.5466C31.5951 21.6822 31.4182 21.8594 31.2885 22.0656C31.1611 22.3054 31.1095 22.5738 31.1398 22.8398C31.17 23.1057 31.2808 23.3582 31.4593 23.5678C31.6419 23.7738 31.8669 23.9437 32.1211 24.0677C32.3753 24.1917 32.6535 24.2672 32.9395 24.2898C33.2763 24.3278 33.618 24.2992 33.9421 24.2058C34.2662 24.1124 34.5654 23.9564 34.8202 23.7479C35.0714 23.5351 35.2587 23.2652 35.3639 22.9647C35.469 22.6642 35.4883 22.3434 35.4198 22.0338C35.0099 20.4133 32.892 20.8123 31.8065 21.5466Z" fill="#FCFCFC"/>
<path d="M33.2144 24.3923C33.1195 24.3923 33.0246 24.3923 32.9278 24.3782C32.6289 24.3546 32.3382 24.2754 32.0728 24.1454C31.8074 24.0153 31.5729 23.8369 31.383 23.6209C31.1948 23.3971 31.0783 23.1284 31.0471 22.8458C31.0158 22.5631 31.0711 22.278 31.2066 22.0233C31.3425 21.8058 31.5285 21.6189 31.7512 21.4761C32.4837 20.9801 33.6755 20.6323 34.5333 20.9289C34.7827 21.0165 35.0037 21.1624 35.1749 21.3526C35.346 21.5427 35.4617 21.7707 35.5106 22.0145C35.5848 22.3391 35.566 22.6761 35.4561 22.9918C35.3462 23.3075 35.149 23.5908 34.8844 23.8133C34.4241 24.1922 33.829 24.3986 33.2144 24.3923ZM31.8632 21.6191C31.6631 21.747 31.4954 21.9138 31.3717 22.1081C31.2525 22.3336 31.2044 22.5859 31.2329 22.8358C31.2615 23.0858 31.3655 23.323 31.533 23.5203C31.7076 23.7171 31.9228 23.8794 32.166 23.9977C32.4091 24.1159 32.6753 24.1877 32.9487 24.2087C33.2724 24.2452 33.6008 24.2179 33.9124 24.1285C34.224 24.0391 34.5119 23.8896 34.7572 23.6897C34.9971 23.4886 35.176 23.2324 35.2759 22.9468C35.3758 22.6611 35.3933 22.3561 35.3266 22.0622C35.2855 21.8464 35.1848 21.6443 35.0345 21.4756C34.8841 21.3069 34.6891 21.1775 34.4688 21.1001C33.6717 20.8265 32.554 21.1583 31.8632 21.6297V21.6191Z" fill="#272727"/>
<path d="M9.57031 30.7861L10.931 28.2865L23.8053 33.0827L22.3516 35.2592L9.57031 30.7861Z" fill="#188B30"/>
<path d="M23.3953 34.539L9.44309 29.5945L4.69873 36.5249L19.9775 41.9107L23.3953 34.539Z" fill="#272727"/>
<path d="M19.9777 41.9989C19.967 42.0003 19.9562 42.0003 19.9455 41.9989L4.66484 36.6148C4.65184 36.6101 4.64015 36.6028 4.63062 36.5933C4.6211 36.5838 4.61398 36.5725 4.60981 36.5601C4.60374 36.5483 4.60059 36.5353 4.60059 36.5222C4.60059 36.509 4.60374 36.4961 4.60981 36.4842L9.35416 29.5556C9.36586 29.5384 9.38358 29.5255 9.40433 29.5191C9.42508 29.5126 9.44758 29.5131 9.46803 29.5203L23.4183 34.463C23.4424 34.472 23.462 34.489 23.4734 34.5106C23.4785 34.5218 23.4811 34.5338 23.4811 34.546C23.4811 34.5581 23.4785 34.5701 23.4734 34.5813L20.0574 41.9512C20.0498 41.9649 20.0384 41.9766 20.0244 41.9849C20.0104 41.9933 19.9943 41.9981 19.9777 41.9989ZM4.83564 36.4807L19.9227 41.7976L23.2627 34.5883L9.47562 29.7021L4.83564 36.4807Z" fill="#272727"/>
<path d="M11.9692 21.8891C11.9692 21.8891 12.0641 14.3197 13.013 12.8175C13.9619 11.3153 16.9565 5.00448 17.7574 4.96035C18.5582 4.91622 19.3932 7.20045 18.6891 9.23226C18.2763 10.4295 17.6683 11.5607 16.8863 12.5862C16.8863 12.5862 19.2433 14.9252 17.9604 19.1177" fill="#FCFCFC"/>
<path d="M11.969 21.9809C11.9565 21.9807 11.9442 21.9782 11.9328 21.9735C11.9214 21.9689 11.9111 21.9622 11.9024 21.9538C11.8938 21.9455 11.887 21.9356 11.8825 21.9248C11.8779 21.914 11.8757 21.9025 11.876 21.8909C11.876 21.582 11.9823 14.2809 12.933 12.7769C13.2215 12.3179 13.7035 11.4106 14.2615 10.3567C15.9505 7.16867 17.1897 4.90738 17.7609 4.88443C17.9697 4.87031 18.1841 4.98858 18.3777 5.2216C18.9906 5.95947 19.3265 7.71766 18.7724 9.26579C18.3595 10.4481 17.763 11.568 17.0018 12.5898C17.3434 12.9728 19.2203 15.31 18.0475 19.1494C18.0441 19.161 18.0383 19.1719 18.0304 19.1814C18.0226 19.1909 18.0127 19.1989 18.0016 19.2049C17.9904 19.2109 17.978 19.2147 17.9652 19.2163C17.9524 19.2178 17.9394 19.217 17.927 19.2139C17.9145 19.2107 17.9028 19.2054 17.8926 19.198C17.8824 19.1907 17.8738 19.1816 17.8674 19.1712C17.8609 19.1608 17.8568 19.1493 17.8551 19.1374C17.8534 19.1255 17.8543 19.1134 17.8577 19.1018C18.5124 16.9623 18.1917 15.3241 17.8064 14.3356C17.5861 13.7251 17.2464 13.1578 16.8044 12.6621C16.7902 12.6463 16.7825 12.6263 16.7825 12.6057C16.7825 12.585 16.7902 12.565 16.8044 12.5492C17.5785 11.5302 18.1813 10.4076 18.5921 9.2199C19.1159 7.72649 18.8104 6.04244 18.2277 5.33634C18.1791 5.26155 18.1125 5.19826 18.0331 5.1514C17.9538 5.10455 17.8639 5.07541 17.7704 5.06625C17.2675 5.0945 15.4931 8.44671 14.4304 10.4503C13.8724 11.5094 13.3885 12.4168 13.1019 12.881C12.1758 14.3444 12.0715 21.8326 12.0715 21.9068C12.0673 21.9287 12.0545 21.9485 12.0356 21.9622C12.0166 21.9759 11.9929 21.9826 11.969 21.9809Z" fill="#272727"/>
<path d="M9.49094 35.554C10.0412 35.554 10.4873 35.139 10.4873 34.6272C10.4873 34.1154 10.0412 33.7004 9.49094 33.7004C8.94069 33.7004 8.49463 34.1154 8.49463 34.6272C8.49463 35.139 8.94069 35.554 9.49094 35.554Z" fill="#FCFCFC"/>
<path d="M9.20057 12.5616C9.1823 12.5621 9.16434 12.5571 9.14933 12.5475L4.15636 9.51298C4.13522 9.50011 4.12045 9.47995 4.11529 9.45694C4.11013 9.43393 4.11501 9.40996 4.12885 9.39029C4.14269 9.37063 4.16436 9.35689 4.18909 9.35209C4.21383 9.34729 4.2396 9.35182 4.26074 9.3647L9.2556 12.3992C9.27684 12.4122 9.29173 12.4324 9.29706 12.4555C9.30239 12.4786 9.29772 12.5028 9.28407 12.5227C9.27468 12.5351 9.26214 12.5451 9.24757 12.5519C9.233 12.5587 9.21685 12.562 9.20057 12.5616Z" fill="#FCFCFC"/>
<path d="M7.10144 18.371L0.0911712 18.0691C0.0787072 18.0686 0.0664614 18.0659 0.0551353 18.0611C0.0438092 18.0562 0.0336251 18.0493 0.0251645 18.0408C0.016704 18.0322 0.0101341 18.0223 0.00582976 18.0114C0.00152544 18.0005 -0.000429666 17.9889 7.88477e-05 17.9773C0.0019948 17.9542 0.0132321 17.9326 0.0315351 17.9169C0.0498382 17.9012 0.0738537 17.8925 0.0987623 17.8926L7.11282 18.1944C7.13799 18.1962 7.16146 18.2069 7.1784 18.2243C7.19534 18.2417 7.20447 18.2645 7.20391 18.288C7.20197 18.3116 7.19013 18.3335 7.17095 18.349C7.15178 18.3645 7.12681 18.3724 7.10144 18.371Z" fill="#FCFCFC"/>
<path d="M40.9454 11.8854C40.9261 11.8849 40.9073 11.8792 40.8914 11.8688C40.8755 11.8584 40.8633 11.844 40.8562 11.8272C40.8477 11.8052 40.8489 11.7809 40.8596 11.7597C40.8702 11.7385 40.8895 11.7222 40.9132 11.7142L45.0332 10.302C45.0568 10.2941 45.0829 10.2952 45.1057 10.3051C45.1284 10.315 45.1461 10.333 45.1546 10.355C45.1592 10.3657 45.1613 10.3772 45.161 10.3888C45.1607 10.4003 45.1579 10.4117 45.1528 10.4223C45.1476 10.4328 45.1403 10.4423 45.1311 10.4501C45.122 10.458 45.1113 10.464 45.0996 10.4679L40.9777 11.8801C40.9674 11.8837 40.9564 11.8855 40.9454 11.8854Z" fill="#FCFCFC"/>
<path d="M45.9041 21.778H45.8814L41.3154 20.7435C41.291 20.7381 41.27 20.7239 41.2568 20.704C41.2436 20.6842 41.2395 20.6603 41.2452 20.6376C41.2481 20.6262 41.2534 20.6154 41.2608 20.606C41.2682 20.5965 41.2775 20.5885 41.2883 20.5824C41.2991 20.5763 41.3111 20.5723 41.3235 20.5705C41.336 20.5688 41.3487 20.5694 41.3609 20.5723L45.9269 21.6067C45.9513 21.6122 45.9723 21.6264 45.9855 21.6462C45.9986 21.6661 46.0028 21.69 45.9971 21.7127C45.9916 21.7316 45.9795 21.7483 45.9627 21.7602C45.9458 21.772 45.9252 21.7783 45.9041 21.778Z" fill="#FCFCFC"/>
<path d="M38.6686 34.2352C38.655 34.2351 38.6416 34.2324 38.6291 34.2272C38.6167 34.2221 38.6056 34.2146 38.5965 34.2052L35.9263 31.3067C35.9181 31.298 35.9118 31.288 35.9078 31.277C35.9038 31.2661 35.9022 31.2545 35.9031 31.243C35.904 31.2315 35.9073 31.2203 35.9129 31.21C35.9186 31.1997 35.9263 31.1906 35.9358 31.1831C35.9539 31.1668 35.978 31.1577 36.0032 31.1577C36.0283 31.1577 36.0525 31.1668 36.0706 31.1831L38.7407 34.0817C38.7489 34.0903 38.7552 34.1004 38.7592 34.1113C38.7632 34.1222 38.7648 34.1338 38.7639 34.1453C38.7631 34.1568 38.7597 34.1681 38.7541 34.1783C38.7485 34.1886 38.7407 34.1978 38.7312 34.2052C38.715 34.2221 38.6927 34.2327 38.6686 34.2352Z" fill="#FCFCFC"/>
<path d="M5.30453 26.1258C5.28351 26.1258 5.26306 26.1194 5.24628 26.1076C5.22951 26.0958 5.21731 26.0793 5.21154 26.0605C5.2084 26.0492 5.20768 26.0375 5.20942 26.026C5.21116 26.0145 5.21532 26.0034 5.22167 25.9934C5.22801 25.9834 5.23642 25.9747 5.24641 25.9677C5.25639 25.9607 5.26776 25.9557 5.27986 25.9528L7.857 25.3173C7.86908 25.3144 7.88167 25.3137 7.89404 25.3153C7.9064 25.3169 7.91831 25.3208 7.92906 25.3267C7.93981 25.3326 7.94921 25.3404 7.95671 25.3497C7.96421 25.359 7.96966 25.3696 7.97276 25.3808C7.97916 25.4033 7.97578 25.4272 7.96334 25.4474C7.9509 25.4675 7.93042 25.4823 7.90634 25.4885L5.3292 26.124L5.30453 26.1258Z" fill="#FCFCFC"/>
</svg>
