<svg width="46" height="42" viewBox="0 0 46 42" fill="none" xmlns="http://www.w3.org/2000/svg">
<path d="M20.4565 10.8692C20.4565 10.8692 20.5687 8.55188 20.4565 7.91109C20.3443 7.2703 19.6698 5.71869 19.4454 5.83154C19.2211 5.94438 19.1926 6.39979 19.4454 7.00431C19.4454 7.00431 18.0125 5.43457 17.4651 5.46278C16.9177 5.49099 16.6095 6.43807 16.6933 6.89146C16.7771 7.34485 18.0394 8.13073 18.1262 8.50352C18.2129 8.87631 18.4343 11.4959 18.4343 11.4959" fill="#FEFEFE"/>
<path d="M18.4373 11.6067C18.419 11.6064 18.4014 11.5973 18.3876 11.5811C18.3739 11.5648 18.365 11.5424 18.3625 11.518C18.3625 11.4918 18.1381 8.91254 18.0633 8.54176C18.0304 8.39466 17.6969 8.09845 17.4291 7.86067C17.0448 7.51609 16.6813 7.19167 16.6304 6.9156C16.611 6.7263 16.6204 6.53367 16.6579 6.34939C16.6955 6.16511 16.7604 5.99303 16.8488 5.84358C16.9183 5.70642 17.0098 5.59197 17.1164 5.50863C17.223 5.42529 17.3422 5.37519 17.465 5.36198C17.9003 5.33982 18.8112 6.2204 19.2524 6.66976C19.1885 6.46208 19.178 6.23155 19.2225 6.01487C19.2382 5.95174 19.2643 5.89417 19.2987 5.8464C19.3331 5.79862 19.3751 5.76185 19.4214 5.7388C19.4462 5.72799 19.4724 5.72455 19.4982 5.72873C19.524 5.7329 19.5489 5.74459 19.571 5.76298C19.8806 5.98464 20.4325 7.33071 20.5297 7.88888C20.6434 8.53773 20.5297 10.7805 20.5297 10.8752C20.5294 10.8885 20.527 10.9016 20.5228 10.9137C20.5185 10.9258 20.5125 10.9365 20.5051 10.9454C20.4977 10.9542 20.4891 10.961 20.4797 10.9652C20.4703 10.9694 20.4603 10.971 20.4505 10.9699C20.4309 10.9679 20.4127 10.9555 20.3998 10.9355C20.387 10.9155 20.3804 10.8895 20.3817 10.8631C20.3817 10.8389 20.4909 8.55385 20.3817 7.93523C20.2605 7.24003 19.6189 5.89799 19.4678 5.92016C19.4422 5.93398 19.4191 5.95522 19.4002 5.98238C19.3814 6.00954 19.3672 6.04196 19.3586 6.07733C19.3048 6.27884 19.3586 6.59319 19.5082 6.94986C19.5168 6.96997 19.5198 6.99351 19.5168 7.01636C19.5138 7.0392 19.5049 7.05989 19.4917 7.07479C19.4783 7.08987 19.4614 7.09813 19.4439 7.09813C19.4264 7.09813 19.4094 7.08987 19.396 7.07479C19.0041 6.64357 17.9003 5.53326 17.4665 5.55543C17.3648 5.56717 17.2663 5.60947 17.1783 5.67921C17.0903 5.74895 17.015 5.84436 16.958 5.95844C16.8077 6.21318 16.7383 6.53775 16.7651 6.8612C16.8025 7.0627 17.1898 7.40728 17.5024 7.68536C17.9033 8.04404 18.1516 8.27577 18.1964 8.4793C18.2802 8.86619 18.4956 11.381 18.5076 11.4878C18.5097 11.5145 18.504 11.5412 18.4917 11.5623C18.4794 11.5833 18.4615 11.5971 18.4417 11.6006L18.4373 11.6067Z" fill="#231F20"/>
<path d="M24.1416 41.8971L45.1727 35.2937V30.7336L24.1416 33.6434V41.8971Z" fill="#FEFEFE"/>
<path d="M24.1417 42C24.1244 42 24.1076 41.9922 24.0939 41.9778C24.0849 41.968 24.0776 41.9558 24.0724 41.9419C24.0673 41.928 24.0644 41.9127 24.064 41.8972V33.6354C24.0639 33.6093 24.071 33.5841 24.084 33.5647C24.097 33.5453 24.115 33.5332 24.1343 33.5306L45.1639 30.6229C45.1747 30.621 45.1857 30.6224 45.196 30.6269C45.2064 30.6314 45.2158 30.639 45.2237 30.6491C45.2317 30.6588 45.238 30.6706 45.2424 30.6838C45.2468 30.697 45.2491 30.7112 45.2492 30.7257V35.2858C45.2493 35.3095 45.2434 35.3326 45.2326 35.3512C45.2217 35.3699 45.2065 35.3831 45.1893 35.3885L24.1597 41.998L24.1417 42ZM24.2195 33.7382V41.7682L45.0951 35.2132V30.8486L24.2195 33.7382Z" fill="#231F20"/>
<path d="M1.0752 26.1072V31.0945L24.142 41.8973V31.9972L1.0752 26.1072Z" fill="#FEFEFE"/>
<path d="M24.1421 42H24.1167L1.04988 31.1931C1.03491 31.1857 1.022 31.1722 1.0129 31.1546C1.0038 31.1369 0.998958 31.1159 0.999024 31.0944V26.1071C0.999167 26.0919 1.00163 26.0769 1.00626 26.063C1.0109 26.0492 1.0176 26.0367 1.02595 26.0265C1.03479 26.0166 1.04514 26.0095 1.05626 26.0057C1.06738 26.0019 1.07899 26.0014 1.09026 26.0043L24.1571 31.8944C24.1747 31.8991 24.1907 31.9119 24.2021 31.9306C24.2136 31.9493 24.2199 31.9729 24.2199 31.9972V41.8972C24.2194 41.9137 24.2162 41.9299 24.2105 41.9445C24.2048 41.9592 24.1968 41.9719 24.187 41.9818C24.1737 41.9938 24.1581 42.0002 24.1421 42ZM1.15308 31.0219L24.0643 41.7561V32.0838L1.15308 26.2401V31.0219Z" fill="#231F20"/>
<path d="M39.667 30.0688C39.667 30.0688 41.7729 13.4545 40.0035 11.1029C38.2341 8.75134 30.1468 8.31205 28.337 8.94478C26.5272 9.57751 25.1392 26.3933 25.1392 26.3933L39.667 30.0688Z" fill="#231F20"/>
<path d="M39.6671 30.1634H39.6537L25.1229 26.4859C25.1043 26.481 25.0879 26.4669 25.0768 26.4463C25.0657 26.4258 25.0608 26.4003 25.063 26.3751C25.1199 25.686 26.475 9.48681 28.3162 8.844C30.0048 8.25359 38.2148 8.58003 40.056 11.0283C41.8314 13.388 39.8272 29.4017 39.7404 30.0808C39.7388 30.0942 39.7352 30.107 39.7298 30.1185C39.7244 30.1299 39.7173 30.1397 39.709 30.1473C39.6967 30.1585 39.682 30.1642 39.6671 30.1634ZM25.2186 26.3066L39.6013 29.9458C39.7733 28.5554 41.5981 13.3618 39.9468 11.1694C39.199 10.1739 37.0945 9.38404 34.1734 8.99916C31.8446 8.69287 29.2854 8.70899 28.3491 9.03543C27.8525 9.20873 27.0643 10.8913 26.125 17.9179C25.6105 21.8069 25.2724 25.6638 25.2186 26.3066Z" fill="#231F20"/>
<path d="M45.9221 29.9176V31.6203L24.2762 37.6938L0.0756836 26.5303V25.1721L45.9221 29.9176Z" fill="#FEFEFE"/>
<path d="M24.2773 37.7945C24.2694 37.7965 24.2613 37.7965 24.2533 37.7945L0.0528076 26.631C0.0381926 26.6241 0.0254972 26.6113 0.0164122 26.5944C0.0073273 26.5774 0.00228398 26.5572 0.00195351 26.5363V25.1721C0.00192035 25.1582 0.00403393 25.1444 0.00816071 25.1316C0.0122875 25.1188 0.0183377 25.1073 0.0259287 25.0979C0.0335198 25.0884 0.0424865 25.0812 0.0522621 25.0766C0.0620377 25.072 0.072409 25.0703 0.0827212 25.0714L45.9291 29.8169C45.9479 29.8189 45.9654 29.8304 45.9782 29.8491C45.9909 29.8678 45.998 29.8922 45.9979 29.9176V31.6203C45.9979 31.6436 45.992 31.6661 45.9811 31.6841C45.9702 31.7021 45.955 31.7144 45.9381 31.7191L24.2937 37.7905L24.2773 37.7945ZM0.151524 26.4577L24.2833 37.589L45.8484 31.5438V30.0184L0.151524 25.2809V26.4577Z" fill="#231F20"/>
<path d="M36.2896 11.8142C36.9971 15.2882 35.3309 31.6224 35.3309 31.6224L25.5863 26.49C25.5863 26.49 27.5876 23.2498 25.1944 16.459C24.2162 13.6822 25.2229 12.2273 25.9049 11.4455C26.4778 10.7886 35.5806 8.34027 36.2896 11.8142Z" fill="#188B30"/>
<path d="M15.8419 21.4382L45.9221 29.9176L24.2762 35.5377L0.0756836 25.1722L15.8419 21.4382Z" fill="#FEFEFE"/>
<path d="M24.2763 35.6404H24.2539L0.051881 25.2709C0.0358338 25.2632 0.0220878 25.2487 0.012751 25.2296C0.00341409 25.2104 -0.000998443 25.1876 0.00018992 25.1648C0.00137828 25.1419 0.00810212 25.1202 0.0193302 25.1029C0.0305582 25.0857 0.0456708 25.0739 0.0623509 25.0694L15.8286 21.3375C15.8379 21.3345 15.8477 21.3345 15.857 21.3375L45.9387 29.8169C45.9561 29.8219 45.9717 29.8349 45.9828 29.8536C45.994 29.8723 46.0001 29.8956 46 29.9196C45.9994 29.9435 45.9929 29.9663 45.9815 29.9846C45.9701 30.0029 45.9545 30.0155 45.9372 30.0204L24.2913 35.6384L24.2763 35.6404ZM0.398885 25.2003L24.2808 35.4288L45.5303 29.9136L15.8406 21.545L0.398885 25.2003Z" fill="#231F20"/>
<path d="M25.6 27.3464C25.6 27.3464 18.2726 24.2251 18.1454 24.2251C18.0183 24.2251 8.75537 26.3671 8.75537 26.3671L16.4478 29.9116L25.6 27.3464Z" fill="#FEFEFE"/>
<path d="M16.4476 30.0224C16.4392 30.0245 16.4306 30.0245 16.4222 30.0224L8.72978 26.4759C8.71364 26.4687 8.69973 26.4546 8.69025 26.4356C8.68076 26.4166 8.67625 26.3939 8.67743 26.3711C8.67884 26.3479 8.68592 26.326 8.69756 26.3089C8.70921 26.2918 8.72475 26.2803 8.74175 26.2764C9.69002 26.0567 18.0151 24.1323 18.1453 24.1323C18.2754 24.1323 23.9007 26.5202 25.6238 27.2537C25.6402 27.2597 25.6546 27.2733 25.6644 27.292C25.6743 27.3108 25.6789 27.3335 25.6776 27.3564C25.677 27.3795 25.6705 27.4016 25.6594 27.4191C25.6483 27.4367 25.6331 27.4487 25.6163 27.4532L16.4626 30.0204L16.4476 30.0224ZM9.06631 26.3953L16.4521 29.8007L25.2947 27.3161C23.123 26.3932 18.3232 24.362 18.1378 24.3238C17.9867 24.35 12.303 25.6577 9.06631 26.4053V26.3953Z" fill="#231F20"/>
<path d="M15.4126 28.6583C15.4028 28.6613 15.3926 28.6613 15.3827 28.6583L11.3039 26.1858C11.2892 26.1767 11.2771 26.1614 11.2693 26.1423C11.2616 26.1231 11.2587 26.1011 11.2611 26.0795C11.2634 26.0579 11.2709 26.0379 11.2824 26.0226C11.2939 26.0072 11.3088 25.9973 11.3249 25.9944L16.0947 25.0896C16.1074 25.0846 16.1209 25.0846 16.1336 25.0896L20.3769 27.5198C20.3919 27.5281 20.4045 27.5429 20.4126 27.5618C20.4207 27.5808 20.424 27.6029 20.4218 27.6246C20.4196 27.6465 20.4121 27.6669 20.4005 27.6826C20.3889 27.6982 20.3737 27.7083 20.3574 27.7112L15.4216 28.6583H15.4126ZM11.6016 26.1274L15.4246 28.4427L20.0718 27.554L16.0947 25.275L11.6016 26.1274Z" fill="#D1D3D4"/>
<path d="M16.4478 29.9177L25.6419 28.4588L25.6 27.3464L16.4478 28.9968V29.9177Z" fill="#FEFEFE"/>
<path d="M16.4479 30.0224C16.4287 30.022 16.4103 30.0127 16.3956 29.9962C16.3874 29.9863 16.381 29.9741 16.3766 29.9606C16.3722 29.947 16.37 29.9324 16.3701 29.9176V28.9967C16.37 28.9714 16.3768 28.947 16.3892 28.928C16.4016 28.9091 16.4188 28.8969 16.4374 28.894L25.5897 27.2476C25.6002 27.2453 25.611 27.2461 25.6213 27.2499C25.6315 27.2536 25.6411 27.2603 25.6493 27.2695C25.6576 27.2786 25.6642 27.2901 25.6689 27.303C25.6736 27.3159 25.6761 27.33 25.6764 27.3444L25.7198 28.4567C25.7207 28.4832 25.7141 28.5092 25.7013 28.5294C25.6885 28.5495 25.6705 28.5625 25.651 28.5655L16.4569 30.0264L16.4479 30.0224ZM16.5242 29.0874V29.8007L25.5612 28.366L25.5268 27.4633L16.5242 29.0874Z" fill="#231F20"/>
<path d="M16.4476 29.9176L14.7634 13.4323L7.01416 12.9023L8.75516 26.3731L16.4476 29.9176Z" fill="#FEFEFE"/>
<path d="M16.4479 30.0224C16.4395 30.0245 16.4308 30.0245 16.4224 30.0224L8.73001 26.4759C8.71682 26.4701 8.70508 26.4595 8.6961 26.4453C8.68712 26.4311 8.68125 26.4138 8.67916 26.3953L6.93815 12.9205C6.93618 12.9052 6.93677 12.8894 6.93987 12.8745C6.94298 12.8595 6.94852 12.8456 6.9561 12.8339C6.96375 12.8223 6.97323 12.8132 6.98385 12.8073C6.99447 12.8013 7.00595 12.7987 7.01743 12.7996L14.7727 13.3276C14.7907 13.3291 14.8079 13.339 14.8212 13.3555C14.8345 13.372 14.8433 13.3941 14.846 13.4182L16.5301 29.9035C16.5318 29.9213 16.53 29.9393 16.5251 29.9559C16.5201 29.9725 16.512 29.987 16.5017 29.9982C16.4944 30.0069 16.4858 30.0135 16.4766 30.0176C16.4673 30.0218 16.4576 30.0234 16.4479 30.0224ZM8.81975 26.2945L16.3506 29.7645L14.6919 13.5311L7.10418 13.0132L8.81975 26.2945Z" fill="#231F20"/>
<path d="M20.4443 26.9595H20.4189L17.8762 25.7505C17.8563 25.7484 17.8379 25.7357 17.825 25.7153C17.8121 25.6949 17.8058 25.6684 17.8074 25.6417C17.809 25.615 17.8184 25.5902 17.8335 25.5728C17.8487 25.5554 17.8683 25.5469 17.8881 25.549L19.342 25.2427C19.3542 25.2386 19.3671 25.2386 19.3794 25.2427L21.9759 26.5203C21.9919 26.5279 22.0055 26.5426 22.0145 26.562C22.0234 26.5814 22.0273 26.6044 22.0253 26.6271C22.0232 26.6498 22.0154 26.6708 22.0031 26.6866C21.9909 26.7024 21.9749 26.712 21.958 26.7137L20.4622 26.9414L20.4443 26.9595ZM18.2007 25.6981L20.4563 26.756L21.6244 26.5807L19.345 25.4583L18.2007 25.6981Z" fill="#D1D3D4"/>
<path d="M36.4604 14.1678L36.9973 19.9933C37.3204 23.5217 37.5418 26.905 36.5322 27.7554C35.5226 28.6057 26.8101 28.636 26.8101 28.636C26.9728 27.644 27.0112 26.6224 26.9237 25.6134C26.9237 25.6134 34.1031 24.231 34.0238 23.2658C33.9446 22.3006 31.6696 15.7214 31.6307 14.1879C31.5918 12.6544 35.0768 13.0575 36.4604 14.1678Z" fill="#188B30"/>
<path d="M25.9051 11.4455C25.9051 11.4455 21.0964 16.721 21.1308 15.7235C21.1488 15.1976 21.0441 9.99268 21.0441 9.99268L18.0422 10.17C18.0422 10.17 16.8561 18.7058 17.8926 20.8076C19.2059 23.4675 21.1024 22.607 23.6302 20.6222C26.8669 18.0792 27.6686 16.995 27.6686 16.995L25.9051 11.4455Z" fill="#188B30"/>
<path d="M26.9177 25.6134C26.9177 25.6134 25.4219 25.6981 25.223 25.3172C25.0241 24.9364 24.701 24.4628 24.5096 24.4165C24.3181 24.3702 21.9758 24.7329 22.1164 25.0613C22.257 25.3898 23.2696 25.1077 23.2696 25.1077C23.2696 25.1077 22.3901 25.4099 22.4305 25.8049C22.4709 26.1998 22.6743 26.1575 23.0109 26.0064C23.3474 25.8553 24.1596 25.5913 24.1596 25.5913C24.1596 25.5913 22.9166 26.3671 22.8972 26.7681C22.8777 27.1691 23.4775 26.9696 24.3226 26.3651C24.3226 26.3651 23.3384 27.1993 23.6435 27.4451C23.9487 27.691 24.6651 27.1832 24.6651 27.1832C24.6651 27.1832 25.0031 27.9187 25.4593 28.1021C25.9155 28.2854 26.8653 28.2693 26.8653 28.2693C26.8653 28.2693 27.3155 26.9112 26.9177 25.6134Z" fill="#FEFEFE"/>
<path d="M26.8058 28.366C26.5919 28.366 25.8336 28.3539 25.4313 28.1927C25.0289 28.0315 24.7373 27.5116 24.6326 27.3081C24.4381 27.435 23.8847 27.7594 23.5975 27.5277C23.5692 27.5064 23.5454 27.4755 23.5287 27.438C23.5119 27.4005 23.5026 27.3579 23.5018 27.3141C23.5243 27.1404 23.5929 26.9835 23.6948 26.8728C23.3717 27.0481 23.0561 27.1549 22.9035 27.026C22.8722 26.9975 22.8473 26.9581 22.8315 26.9119C22.8156 26.8657 22.8095 26.8145 22.8138 26.764C22.8257 26.5121 23.1698 26.1857 23.5123 25.9217C23.3298 25.9862 23.1488 26.0547 23.0292 26.1071C22.8108 26.2038 22.6178 26.2743 22.4862 26.1635C22.4454 26.1243 22.4118 26.073 22.388 26.0137C22.3642 25.9543 22.3507 25.8884 22.3486 25.8209C22.3277 25.6194 22.4593 25.4562 22.6283 25.3252C22.3666 25.3393 22.1183 25.297 22.042 25.1116C22.0308 25.0839 22.0259 25.0524 22.0277 25.0209C22.0296 24.9894 22.0382 24.9593 22.0525 24.9343C22.2484 24.5676 24.3439 24.2714 24.5249 24.3157C24.7687 24.3741 25.1232 24.9565 25.2862 25.2567C25.4058 25.4885 26.3107 25.5449 26.915 25.5106C26.9309 25.5095 26.9467 25.5151 26.9601 25.5267C26.9735 25.5383 26.9839 25.5552 26.9898 25.5751C27.3951 26.899 26.9494 28.2491 26.93 28.3055C26.924 28.3234 26.9143 28.3386 26.9021 28.3493C26.8899 28.36 26.8757 28.3658 26.8612 28.366H26.8058ZM24.6595 27.0703C24.6727 27.0704 24.6857 27.0751 24.6972 27.084C24.7088 27.0928 24.7184 27.1054 24.7253 27.1207C24.7253 27.1207 25.0544 27.8259 25.4731 27.9932C25.8531 28.1463 26.6039 28.1584 26.8058 28.1584C26.8836 27.8904 27.1663 26.7882 26.8642 25.7202C26.5142 25.7363 25.3565 25.7605 25.1576 25.3776C24.9242 24.9303 24.6326 24.5535 24.4935 24.5192C24.2616 24.4628 22.3995 24.8074 22.1901 25.0371C22.2978 25.164 22.8063 25.1278 23.246 25.0069C23.2557 25.0039 23.2656 25.0035 23.2754 25.0058C23.2851 25.008 23.2944 25.0128 23.3028 25.0199C23.3111 25.0271 23.3183 25.0363 23.324 25.0472C23.3297 25.0581 23.3337 25.0704 23.3358 25.0834C23.3383 25.0965 23.3388 25.1102 23.3373 25.1235C23.3359 25.1369 23.3325 25.1498 23.3273 25.1614C23.3222 25.173 23.3154 25.1831 23.3074 25.1912C23.2993 25.1992 23.2902 25.2051 23.2804 25.2084C22.9529 25.3212 22.4772 25.5852 22.4982 25.7907C22.4974 25.8288 22.503 25.8666 22.5143 25.9014C22.5257 25.9362 22.5427 25.9673 22.564 25.9922C22.6403 26.0567 22.8183 25.9922 22.9783 25.9157C23.3148 25.7665 24.0986 25.5126 24.133 25.4985C24.1428 25.4942 24.1532 25.4925 24.1635 25.4935C24.1738 25.4945 24.1839 25.4983 24.1931 25.5045C24.2023 25.5108 24.2106 25.5195 24.2173 25.53C24.2241 25.5406 24.2292 25.5528 24.2325 25.566C24.2357 25.5793 24.237 25.5932 24.2362 25.6071C24.2354 25.621 24.2327 25.6346 24.228 25.647C24.2234 25.6595 24.2169 25.6706 24.2091 25.6796C24.2013 25.6887 24.1922 25.6957 24.1824 25.7C23.605 26.0607 22.9753 26.5786 22.9648 26.7902C22.9648 26.8426 22.9768 26.8547 22.9843 26.8627C23.0681 26.9353 23.433 26.893 24.2766 26.2764C24.294 26.2666 24.3134 26.2656 24.3313 26.2737C24.3491 26.2818 24.3642 26.2983 24.3737 26.3202C24.3832 26.3421 24.3865 26.3679 24.3829 26.3928C24.3794 26.4178 24.3692 26.4401 24.3544 26.4557C24.0163 26.7438 23.6514 27.1569 23.6529 27.3222C23.6529 27.3322 23.6529 27.3443 23.6738 27.3605C23.8937 27.5378 24.4321 27.2295 24.6206 27.0945C24.6317 27.0818 24.6451 27.0734 24.6595 27.0703Z" fill="#231F20"/>
<path d="M28.0379 25.4865C28.0201 25.4844 28.0033 25.4739 27.9907 25.4569C27.978 25.4399 27.9702 25.4174 27.9686 25.3933C27.967 25.3693 27.9717 25.3453 27.9819 25.3255C27.9921 25.3057 28.0072 25.2914 28.0244 25.285L33.8846 23.9107C33.5027 22.5439 33.1781 21.1493 32.9124 19.7335C32.3231 16.5557 32.2333 14.1417 32.6447 12.5558C32.6477 12.5428 32.6526 12.5307 32.6592 12.5203C32.6658 12.51 32.6739 12.5015 32.683 12.4955C32.6921 12.4894 32.702 12.486 32.7121 12.4852C32.7222 12.4845 32.7324 12.4866 32.7419 12.4913C32.7613 12.5005 32.7772 12.5196 32.7862 12.5445C32.7951 12.5694 32.7964 12.5981 32.7897 12.6243C31.8325 16.322 34.0402 23.8785 34.0626 23.953C34.0677 23.9668 34.0704 23.982 34.0704 23.9974C34.0704 24.0128 34.0677 24.0279 34.0626 24.0417C34.057 24.0552 34.0492 24.0668 34.0399 24.0759C34.0306 24.0849 34.02 24.0911 34.0087 24.0941L28.0558 25.4905L28.0379 25.4865Z" fill="#231F20"/>
<path d="M24.2765 37.7966C24.2563 37.7966 24.2369 37.7858 24.2226 37.7665C24.2083 37.7473 24.2003 37.7211 24.2003 37.6939V35.5377C24.1969 35.5221 24.1964 35.5057 24.1986 35.4898C24.2008 35.4738 24.2057 35.4588 24.213 35.4459C24.2202 35.4329 24.2296 35.4224 24.2404 35.4152C24.2511 35.4079 24.263 35.4042 24.275 35.4042C24.2871 35.4042 24.299 35.4079 24.3097 35.4152C24.3205 35.4224 24.3299 35.4329 24.3371 35.4459C24.3444 35.4588 24.3493 35.4738 24.3515 35.4898C24.3537 35.5057 24.3531 35.5221 24.3498 35.5377V37.6939C24.3498 37.7204 24.3422 37.746 24.3286 37.7651C24.3149 37.7843 24.2962 37.7956 24.2765 37.7966Z" fill="#231F20"/>
<path d="M26.3625 22.2644C26.3427 22.2644 26.3238 22.2541 26.3096 22.2357C26.2953 22.2173 26.287 22.1922 26.2862 22.1656C26.2338 20.7067 25.9422 19.5682 25.6879 18.5627C25.5126 17.9695 25.3896 17.3507 25.3215 16.7189C25.311 16.5758 25.3005 16.4388 25.2915 16.3159C25.2078 15.1915 25.142 14.3008 25.6371 12.3059C25.6436 12.2798 25.6574 12.2583 25.6756 12.2458C25.6938 12.2334 25.7148 12.2311 25.7343 12.2394C25.7438 12.2437 25.7527 12.2505 25.7602 12.2595C25.7678 12.2684 25.774 12.2793 25.7785 12.2914C25.7829 12.3036 25.7855 12.3169 25.7862 12.3304C25.7868 12.344 25.7854 12.3575 25.7821 12.3704C25.299 14.327 25.3604 15.1532 25.4456 16.2957C25.4546 16.4287 25.4651 16.5658 25.474 16.7088C25.5416 17.324 25.6621 17.9265 25.833 18.5042C26.0947 19.5239 26.3909 20.6765 26.4432 22.1656C26.4441 22.1931 26.4368 22.2199 26.4231 22.2402C26.4094 22.2606 26.3903 22.2729 26.3699 22.2744L26.3625 22.2644Z" fill="#231F20"/>
<path d="M30.7182 32.7166C32.0763 32.7166 33.1772 32.27 33.1772 31.7191C33.1772 31.1683 32.0763 30.7217 30.7182 30.7217C29.3602 30.7217 28.2593 31.1683 28.2593 31.7191C28.2593 32.27 29.3602 32.7166 30.7182 32.7166Z" fill="#FEFEFE"/>
<path d="M30.7185 32.8214C29.489 32.8214 28.1758 32.4345 28.1758 31.7191C28.1758 31.0038 29.483 30.6189 30.7185 30.6189C31.9539 30.6189 33.2612 31.0038 33.2612 31.7191C33.2612 32.4345 31.9495 32.8214 30.7185 32.8214ZM30.7185 30.8264C29.3155 30.8264 28.3358 31.296 28.3358 31.7191C28.3358 32.1423 29.3155 32.6138 30.7185 32.6138C32.1215 32.6138 33.1011 32.1423 33.1011 31.7191C33.1011 31.296 32.123 30.8264 30.7185 30.8264Z" fill="#231F20"/>
<path d="M28.865 29.0069L28.8052 29.021C28.6293 29.0576 28.4695 29.1803 28.3565 29.3655C28.2922 29.4979 28.2567 29.6519 28.2541 29.81C28.2514 29.9681 28.2817 30.1241 28.3415 30.2602C28.6018 30.895 29.239 31.0663 29.7281 31.1328C29.7972 31.1471 29.8679 31.1396 29.9345 31.1106C29.9675 31.095 29.9963 31.0662 30.0168 31.028C30.0374 30.9899 30.0489 30.9442 30.0496 30.897C30.0461 30.859 30.0354 30.8228 30.0187 30.7918C30.0019 30.7608 29.9797 30.736 29.9539 30.7197C29.9025 30.6871 29.8474 30.6667 29.7909 30.6592C29.482 30.6171 29.1796 30.5132 28.8935 30.3509C28.7304 30.2401 28.5031 29.9862 28.6212 29.7141C28.6625 29.6255 28.7224 29.5554 28.7932 29.5126C29.0729 29.3333 29.3392 29.4683 29.6159 29.5791C29.6359 29.5892 29.6574 29.5933 29.6787 29.5912C29.7326 29.5912 29.7625 29.4965 29.758 29.424C29.749 29.2608 29.6294 29.154 29.5157 29.0955C29.3084 28.9894 29.0839 28.9588 28.865 29.0069Z" fill="#FEFEFE"/>
<path d="M29.8057 31.2415C29.7758 31.2436 29.7459 31.2436 29.716 31.2415C28.9592 31.1448 28.485 30.8385 28.2696 30.3166C28.2022 30.1632 28.1682 29.9873 28.1716 29.8091C28.1751 29.6308 28.2158 29.4575 28.2891 29.3091C28.416 29.1032 28.594 28.9665 28.7902 28.9242L28.853 28.9101C29.0823 28.8634 29.3168 28.8975 29.5335 29.0088C29.7115 29.1015 29.8147 29.2486 29.8252 29.4259C29.8314 29.4895 29.8194 29.5539 29.7916 29.6059C29.7638 29.6579 29.7223 29.6938 29.6756 29.706C29.6432 29.7088 29.6108 29.7034 29.5799 29.6899L29.5081 29.6597C29.2688 29.563 29.0429 29.4703 28.8141 29.6174C28.757 29.6485 28.7084 29.7027 28.675 29.7725C28.6643 29.7961 28.6573 29.8224 28.6545 29.8498C28.6516 29.8772 28.653 29.9051 28.6585 29.9317C28.7113 30.0804 28.8021 30.1984 28.9143 30.2642C29.1586 30.408 29.4179 30.5004 29.6831 30.5383L29.7968 30.5624C29.8618 30.5711 29.9252 30.5957 29.9837 30.635C30.0267 30.6605 30.0629 30.7032 30.0873 30.7573C30.1116 30.8115 30.123 30.8744 30.1199 30.9376C30.1168 31.0007 30.0994 31.0611 30.0699 31.1104C30.0405 31.1598 30.0004 31.1957 29.9553 31.2133C29.9071 31.2348 29.8565 31.2444 29.8057 31.2415ZM28.8769 29.1096L28.8201 29.1217C28.6616 29.1533 28.517 29.2614 28.4132 29.4259C28.3574 29.5423 28.3269 29.6775 28.3253 29.8161C28.3237 29.9547 28.3511 30.0911 28.4043 30.2098C28.5942 30.6712 29.028 30.9393 29.731 31.0279C29.7879 31.0405 29.8461 31.0357 29.9015 31.0138C29.9192 31.0114 29.9358 31.0006 29.9482 30.9834C29.9607 30.9663 29.9683 30.9437 29.9697 30.9198C29.9712 30.8958 29.9663 30.8719 29.956 30.8523C29.9457 30.8327 29.9307 30.8185 29.9134 30.8123C29.8695 30.7848 29.8225 30.7671 29.7743 30.7599L29.6622 30.7357C29.3808 30.6958 29.1058 30.5973 28.847 30.4435C28.6974 30.3513 28.5786 30.1876 28.5134 29.9841C28.5018 29.9304 28.4985 29.874 28.5039 29.8184C28.5094 29.7629 28.5233 29.7096 28.5449 29.6617C28.5931 29.5552 28.6647 29.4714 28.7498 29.4219C29.0325 29.2405 29.2987 29.3494 29.556 29.4541L29.6278 29.4844C29.6377 29.4859 29.6477 29.4859 29.6577 29.4844C29.6627 29.4768 29.6665 29.4678 29.6689 29.4581C29.6712 29.4484 29.672 29.4381 29.6711 29.428C29.6636 29.299 29.5335 29.2264 29.4782 29.1882C29.2875 29.0911 29.0815 29.0613 28.8799 29.1015L28.8769 29.1096Z" fill="#231F20"/>
<path d="M29.0942 28.3278C29.0942 28.3278 29.5549 31.4229 29.5923 31.6083C29.6297 31.7937 30.8532 32.2733 31.5846 31.8098L32.3429 28.6461L29.0942 28.3278Z" fill="#FEFEFE"/>
<path d="M30.8154 32.11C30.4269 32.1117 30.0416 32.0139 29.6802 31.8219C29.5815 31.7594 29.5306 31.701 29.5186 31.6345C29.4812 31.4471 29.037 28.4728 29.0191 28.3479C29.0167 28.3319 29.0171 28.3155 29.0203 28.2997C29.0234 28.284 29.0291 28.2695 29.037 28.2572C29.0448 28.2454 29.0546 28.2361 29.0655 28.2302C29.0763 28.2242 29.0881 28.2218 29.0998 28.223L32.3485 28.5413C32.3601 28.5424 32.3714 28.547 32.3815 28.5548C32.3916 28.5627 32.4003 28.5735 32.4068 28.5866C32.4133 28.5996 32.4175 28.6145 32.419 28.63C32.4206 28.6456 32.4195 28.6614 32.4158 28.6763L31.659 31.84C31.6554 31.8536 31.6499 31.8662 31.6427 31.8769C31.6355 31.8876 31.6268 31.8963 31.6171 31.9025C31.3643 32.0494 31.0907 32.1202 30.8154 32.11ZM29.1896 28.4406C29.3541 29.5388 29.6383 31.443 29.6667 31.5801C29.746 31.705 30.8244 32.1443 31.5214 31.7332L32.2393 28.7388L29.1896 28.4406Z" fill="#231F20"/>
<path d="M32.3512 28.5072C32.3671 27.9834 31.6514 27.5186 30.7526 27.4689C29.8538 27.4192 29.1122 27.8035 29.0963 28.3272C29.0803 28.8509 29.796 29.3158 30.6948 29.3655C31.5937 29.4152 32.3352 29.0309 32.3512 28.5072Z" fill="#231F20"/>
<path d="M30.8516 29.4642H30.69C30.2863 29.4523 29.8883 29.3332 29.5189 29.1136C29.1884 28.898 29.0119 28.6158 29.0208 28.3196C29.0298 28.0234 29.2228 27.7635 29.5653 27.5861C30.3386 27.2455 31.1771 27.292 31.927 27.7171C32.2575 27.9307 32.434 28.2128 32.4251 28.509C32.4086 29.0612 31.7296 29.4642 30.8516 29.4642ZM30.5943 27.5579C30.2625 27.5492 29.9322 27.6209 29.6191 27.7695C29.3394 27.9146 29.1704 28.1161 29.1704 28.3257C29.1704 28.5352 29.32 28.7529 29.5847 28.9302C29.9363 29.1383 30.315 29.2506 30.699 29.2607C31.6278 29.3131 32.265 28.908 32.2785 28.499H32.3518H32.2785C32.2785 28.2975 32.1289 28.0698 31.8642 27.8944C31.5126 27.6858 31.1339 27.5728 30.7499 27.562L30.5943 27.5579Z" fill="#231F20"/>
<path d="M28.8041 0.384661C28.8041 0.384661 27.2231 0.459219 26.7595 1.48892C26.2958 2.51862 26.3586 4.04202 25.7618 5.03142C25.165 6.02082 24.4336 8.14067 24.812 9.22679C25.1905 10.3129 29.1257 10.6011 31.1867 9.34165C33.2478 8.08223 33.351 5.8314 33.1955 4.4007C33.0399 2.97 32.2861 -0.91506 28.8041 0.384661Z" fill="#FEFEFE"/>
<path d="M27.7074 10.2707C27.5938 10.2707 27.4801 10.2707 27.3664 10.2707C26.2521 10.2284 24.9733 9.94426 24.7444 9.27728C24.3585 8.171 25.066 6.031 25.7032 4.9751C26.0218 4.44514 26.1519 3.74389 26.273 3.0628C26.3533 2.50016 26.4955 1.95681 26.6948 1.45074C27.16 0.414995 28.6482 0.304166 28.7888 0.296106C29.9764 -0.145194 30.9651 -0.0283206 31.7279 0.640683C32.8572 1.63411 33.1802 3.59881 33.267 4.39879C33.442 6.01085 33.2281 8.21332 31.2134 9.43647C30.3444 9.96643 29.0536 10.2707 27.7074 10.2707ZM30.1006 0.223563C29.6661 0.231674 29.2345 0.318427 28.8172 0.481492H28.8008C28.7843 0.481492 27.2542 0.566125 26.816 1.53739C26.6239 2.02836 26.4877 2.5555 26.4121 3.10108C26.285 3.80233 26.1519 4.52775 25.8139 5.08996C25.1887 6.12973 24.529 8.18712 24.8761 9.18055C25.2096 10.1377 29.0461 10.5306 31.1505 9.24503C33.08 8.06622 33.2849 5.96652 33.1174 4.40887C33.0336 3.63709 32.7225 1.74091 31.6441 0.791813C31.1842 0.402815 30.6494 0.205156 30.1065 0.223563H30.1006Z" fill="#231F20"/>
<path d="M31.6189 12.2777C31.6189 12.2777 30.334 16.5094 29.2646 16.3925C28.1952 16.2756 28.2341 13.1261 28.2341 13.1261L31.6189 12.2777Z" fill="#231F20"/>
<path d="M29.3082 16.4953H29.2589C28.1341 16.3723 28.152 13.259 28.1535 13.1281C28.1533 13.105 28.1592 13.0825 28.1702 13.0648C28.1811 13.0471 28.1965 13.0352 28.2134 13.0313L31.6056 12.181C31.6185 12.1772 31.632 12.1784 31.6444 12.1845C31.6569 12.1905 31.6678 12.2012 31.6759 12.2152C31.6847 12.2293 31.6904 12.2463 31.6925 12.2644C31.6946 12.2825 31.693 12.301 31.6879 12.318C31.6355 12.4893 30.4061 16.4953 29.3082 16.4953ZM28.3016 13.2107C28.3016 13.6983 28.3764 16.195 29.2708 16.2938C30.065 16.3824 31.0986 13.6742 31.4964 12.4107L28.3016 13.2107Z" fill="#231F20"/>
<path d="M28.5154 10.1821L28.2342 13.1261C28.2342 13.1261 28.5947 14.3351 30.0634 14.1477C30.9698 14.0268 31.6265 12.2777 31.6265 12.2777L31.9166 6.50455C31.9166 6.50455 29.8795 4.99325 28.7053 2.37769C28.7053 2.37769 27.7391 4.52575 27.0331 4.31618C27.0331 4.31618 26.8043 7.21587 27.0601 8.6909C27.3158 10.1659 28.5154 10.1821 28.5154 10.1821Z" fill="#FEFEFE"/>
<path d="M29.7415 14.2686C28.5001 14.2686 28.1725 13.2127 28.1576 13.1643C28.1546 13.1478 28.1546 13.1305 28.1576 13.114L28.4343 10.2747C28.1486 10.2385 27.2153 10.0148 26.9909 8.71305C26.7352 7.23802 26.9535 4.42297 26.964 4.30408C26.965 4.29014 26.9682 4.27664 26.9733 4.26448C26.9785 4.25232 26.9855 4.24178 26.9939 4.23355C27.0026 4.22557 27.0123 4.22003 27.0226 4.21726C27.0329 4.21449 27.0435 4.21455 27.0537 4.21743C27.5922 4.37864 28.3849 2.90562 28.6452 2.32528C28.6523 2.31115 28.6619 2.29959 28.6731 2.29159C28.6843 2.2836 28.6968 2.27942 28.7095 2.27942C28.7222 2.27942 28.7347 2.2836 28.7459 2.29159C28.7571 2.29959 28.7667 2.31115 28.7738 2.32528C29.927 4.88644 31.9297 6.40177 31.9492 6.41587C31.9615 6.4254 31.9716 6.43925 31.9784 6.45594C31.9853 6.47263 31.9886 6.49152 31.9881 6.51058L31.6979 12.2838C31.6967 12.2972 31.6937 12.3102 31.6889 12.322C31.662 12.3966 31.0039 14.1235 30.0676 14.2464C29.9593 14.2616 29.8504 14.269 29.7415 14.2686ZM28.3041 13.112C28.361 13.2772 28.7529 14.2182 30.0481 14.0469C30.8558 13.9401 31.4736 12.4349 31.5439 12.2495L31.831 6.56096C31.5394 6.33124 29.7924 4.88845 28.705 2.5691C28.4806 3.03056 27.7313 4.47738 27.1001 4.42901C27.0627 4.95696 26.9101 7.38109 27.1315 8.66066C27.3708 10.039 28.4687 10.0712 28.515 10.0712C28.5257 10.0714 28.5362 10.0746 28.5458 10.0806C28.5555 10.0867 28.5641 10.0954 28.571 10.1063C28.5779 10.1172 28.5831 10.1299 28.5861 10.1437C28.589 10.1574 28.5898 10.1719 28.5883 10.1861L28.3041 13.112Z" fill="#231F20"/>
<path d="M28.3643 11.7316C28.6138 11.7713 28.8667 11.7286 29.1013 11.6071C29.3358 11.4856 29.5449 11.2891 29.7104 11.0344C30.2952 10.1538 30.1591 9.99463 30.1591 9.99463C29.6275 10.2184 29.066 10.283 28.5138 10.184L28.3643 11.7316Z" fill="#231F20"/>
<path d="M28.5433 11.8484C28.4787 11.8493 28.4142 11.8426 28.3504 11.8283C28.3316 11.8238 28.3148 11.8099 28.3034 11.7893C28.292 11.7687 28.2869 11.743 28.2891 11.7175L28.4386 10.1699C28.4397 10.1567 28.4428 10.1439 28.4476 10.1324C28.4525 10.1208 28.459 10.1107 28.4668 10.1026C28.4747 10.0945 28.4836 10.0886 28.4932 10.0853C28.5027 10.082 28.5127 10.0813 28.5224 10.0832C29.064 10.1798 29.6147 10.1165 30.1363 9.89785C30.1492 9.8919 30.163 9.89063 30.1764 9.89417C30.1898 9.89771 30.2023 9.90593 30.2126 9.91801C30.2335 9.9442 30.2769 10.0228 30.226 10.2162C30.1105 10.5433 29.9548 10.8418 29.7653 11.0988C29.613 11.3337 29.4251 11.5221 29.2144 11.6513C29.0037 11.7806 28.7749 11.8478 28.5433 11.8484ZM28.4476 11.6469C28.6739 11.667 28.9006 11.6163 29.11 11.4989C29.3194 11.3814 29.5058 11.2004 29.6547 10.9699C29.9688 10.4963 30.063 10.2485 30.0914 10.1336C29.5997 10.3174 29.0864 10.3728 28.5792 10.2968L28.4476 11.6469Z" fill="#231F20"/>
<path d="M29.0027 5.51111C29.0027 5.51111 28.2952 7.06271 28.4807 7.32467C28.6662 7.58663 29.1612 7.37908 29.1612 7.37908" fill="#FEFEFE"/>
<path d="M28.7931 7.54426C28.6609 7.55776 28.53 7.50138 28.4281 7.38708C28.2232 7.10699 28.7168 5.94631 28.9382 5.45866C28.9487 5.43595 28.9655 5.41979 28.9848 5.41374C29.0042 5.4077 29.0245 5.41226 29.0414 5.42642C29.0582 5.44058 29.0702 5.46319 29.0747 5.48926C29.0792 5.51534 29.0758 5.54274 29.0653 5.56546C28.7048 6.35537 28.4566 7.13923 28.5343 7.24401C28.66 7.41529 29.0145 7.3226 29.1401 7.27222C29.1589 7.26466 29.1792 7.2674 29.1966 7.27984C29.2139 7.29229 29.227 7.31344 29.2328 7.33872C29.2385 7.36437 29.2365 7.39199 29.2273 7.4157C29.2181 7.43941 29.2023 7.45733 29.1835 7.46567C29.0564 7.51433 28.9252 7.54074 28.7931 7.54426Z" fill="#231F20"/>
<path d="M29.9359 5.71067C30.0375 5.69359 30.1054 5.52308 30.0875 5.32982C30.0696 5.13656 29.9727 4.99374 29.8711 5.01082C29.7694 5.0279 29.7015 5.19841 29.7194 5.39167C29.7373 5.58493 29.8342 5.72775 29.9359 5.71067Z" fill="#231F20"/>
<path d="M28.3307 5.5069C28.3559 5.31512 28.2945 5.14018 28.1936 5.11617C28.0928 5.09216 27.9906 5.22817 27.9655 5.41995C27.9403 5.61174 28.0017 5.78668 28.1026 5.81069C28.2034 5.8347 28.3056 5.69869 28.3307 5.5069Z" fill="#231F20"/>
<path d="M28.9415 8.70892C28.7483 8.72032 28.557 8.65321 28.3924 8.51631C28.2278 8.37941 28.0976 8.17903 28.0187 7.94118C28.0142 7.92596 28.0127 7.90948 28.0143 7.89327C28.0158 7.87706 28.0204 7.86165 28.0276 7.84848C28.0345 7.8352 28.0437 7.82439 28.0544 7.81701C28.0651 7.80963 28.0769 7.80591 28.0889 7.80616C29.7866 7.80616 29.7956 7.81826 29.824 7.86057C29.8313 7.87091 29.8369 7.88333 29.8403 7.89692C29.8436 7.91051 29.8447 7.92494 29.8434 7.93916C29.8428 7.95678 29.8381 7.97368 29.83 7.98752C29.815 8.01573 29.4635 8.66458 29.0402 8.70489L28.9415 8.70892ZM28.2116 8.00767C28.2989 8.18669 28.4222 8.32867 28.567 8.41713C28.7118 8.50558 28.8723 8.53689 29.0298 8.50741C29.2706 8.48524 29.4964 8.20313 29.6176 8.02379C29.3379 8.01573 28.6932 8.0117 28.2116 8.0117V8.00767Z" fill="#231F20"/>
<path d="M32.1636 5.52729C32.1636 5.52729 32.7484 2.146 31.6625 0.834191C30.5766 -0.47762 28.8042 0.38483 28.8042 0.38483C28.8042 0.38483 30.7965 0.21758 31.2078 1.43065C31.6191 2.64373 31.2886 6.09957 31.2886 6.09957L32.1636 5.52729Z" fill="#FEFEFE"/>
<path d="M31.2879 6.20025C31.2717 6.20071 31.2558 6.19359 31.2431 6.1801C31.2323 6.16925 31.2239 6.15478 31.2187 6.13815C31.2134 6.12152 31.2115 6.10332 31.2131 6.08539C31.2131 6.05113 31.5362 2.64163 31.1398 1.47088C30.754 0.336395 28.8275 0.483495 28.808 0.483495C28.7902 0.485464 28.7724 0.478556 28.7581 0.464076C28.7438 0.449597 28.7339 0.428549 28.7303 0.404907C28.7263 0.381182 28.7291 0.356346 28.7379 0.335154C28.7467 0.313961 28.7611 0.297902 28.7781 0.290049C28.8514 0.253777 30.6074 -0.580461 31.7127 0.757545C32.818 2.09555 32.2601 5.40832 32.2347 5.54938C32.2324 5.56397 32.2277 5.57768 32.221 5.58953C32.2143 5.60137 32.2057 5.61106 32.1958 5.61789L31.3193 6.19017C31.3095 6.19657 31.2988 6.20001 31.2879 6.20025ZM29.4048 0.288033C30.0435 0.33841 30.9933 0.558052 31.276 1.38826C31.6394 2.46229 31.4405 5.18667 31.3777 5.92821L32.0971 5.45669C32.1614 5.05367 32.5847 2.08346 31.6125 0.908675C30.9499 0.106677 30.0046 0.148993 29.4048 0.288033Z" fill="#231F20"/>
<path d="M32.9401 6.89345C33.0931 5.83008 32.7361 4.8424 32.1427 4.68741C31.5494 4.53242 30.9443 5.2688 30.7912 6.33217C30.6382 7.39554 30.9952 8.38321 31.5886 8.53821C32.182 8.6932 32.7871 7.95682 32.9401 6.89345Z" fill="#FEFEFE"/>
<path d="M31.674 8.50754C31.6173 8.50783 31.5608 8.50109 31.505 8.48739C30.8693 8.32417 30.4819 7.27835 30.6405 6.162C30.7068 5.65055 30.8934 5.18142 31.173 4.82399C31.2895 4.66485 31.4325 4.54531 31.5901 4.47524C31.7477 4.40517 31.9154 4.38657 32.0794 4.42098C32.7135 4.5842 33.1009 5.63002 32.9424 6.74637C32.7958 7.766 32.2469 8.50754 31.674 8.50754ZM31.9073 4.60838C31.6696 4.61902 31.4433 4.74912 31.2732 4.97311C31.0181 5.30158 30.8482 5.73181 30.7886 6.20029C30.639 7.20782 30.9785 8.14685 31.5364 8.2879C32.0943 8.42896 32.6567 7.7257 32.8003 6.71615C32.9424 5.70861 32.6088 4.76959 32.0524 4.62853C32.004 4.61238 31.9543 4.60359 31.9044 4.60234L31.9073 4.60838Z" fill="#231F20"/>
<path d="M29.6773 9.52911C29.6575 9.52911 29.6385 9.5185 29.6244 9.4996C29.6104 9.48071 29.6025 9.45508 29.6025 9.42836C29.6025 9.40164 29.6104 9.37601 29.6244 9.35712C29.6385 9.33822 29.6575 9.32761 29.6773 9.32761C30.2083 9.28932 31.1117 9.13617 31.2673 8.88429C31.4467 8.59009 31.5664 7.64905 31.5933 7.31253C31.5945 7.2993 31.5976 7.28651 31.6025 7.27489C31.6073 7.26328 31.6138 7.25306 31.6216 7.24483C31.6293 7.23659 31.6383 7.23051 31.6478 7.22691C31.6573 7.22331 31.6673 7.22228 31.6771 7.22387C31.6869 7.22546 31.6964 7.22963 31.705 7.23616C31.7136 7.2427 31.7212 7.25145 31.7273 7.26193C31.7334 7.27241 31.738 7.2844 31.7406 7.29723C31.7433 7.31007 31.7441 7.32348 31.7429 7.33671C31.7429 7.3891 31.6277 8.61225 31.3809 9.01124C31.1341 9.41022 29.8299 9.51501 29.6818 9.52911H29.6773Z" fill="#231F20"/>
<path d="M30.186 9.06776L29.3697 9.16707C29.2553 9.18098 29.1709 9.31671 29.1812 9.47022C29.1915 9.62373 29.2926 9.7369 29.4069 9.72298L30.2232 9.62367C30.3376 9.60976 30.422 9.47403 30.4117 9.32052C30.4014 9.16701 30.3003 9.05384 30.186 9.06776Z" fill="#FEFEFE"/>
<path d="M29.3859 9.82944C29.3157 9.82882 29.2481 9.79298 29.1964 9.72891C29.1447 9.66484 29.1125 9.57712 29.1062 9.48285C29.1008 9.38415 29.1245 9.28655 29.1721 9.21114C29.2196 9.13573 29.2873 9.08857 29.3605 9.07984L30.1787 8.97908C30.2532 8.97042 30.3273 9.00154 30.3851 9.06573C30.4276 9.11353 30.4588 9.17712 30.4748 9.2486C30.4907 9.32009 30.4907 9.39631 30.4748 9.4678C30.4589 9.53929 30.4277 9.6029 30.3851 9.65071C30.3426 9.69853 30.2906 9.72845 30.2355 9.73675L29.4173 9.83549L29.3859 9.82944ZM30.2056 9.17253H30.1921L29.374 9.27127C29.3562 9.27377 29.3391 9.28099 29.3234 9.29251C29.3078 9.30402 29.294 9.3196 29.2829 9.33834C29.2717 9.35709 29.2635 9.37862 29.2586 9.4017C29.2537 9.42478 29.2522 9.44894 29.2543 9.47278C29.2558 9.49623 29.2609 9.51902 29.2691 9.53979C29.2773 9.56056 29.2886 9.57889 29.3022 9.59368C29.315 9.60935 29.3302 9.62122 29.3467 9.62851C29.3632 9.6358 29.3806 9.63835 29.3979 9.636L30.216 9.53524C30.234 9.53326 30.2514 9.5264 30.2673 9.51508C30.2832 9.50376 30.2973 9.48822 30.3086 9.46938C30.3199 9.45055 30.3283 9.42882 30.3332 9.40551C30.3381 9.38219 30.3395 9.35778 30.3372 9.33374C30.333 9.2868 30.3159 9.24367 30.2893 9.21283C30.2657 9.18686 30.2361 9.17263 30.2056 9.17253Z" fill="#231F20"/>
<path d="M10.6953 1.36609C8.27969 1.36609 6.32031 3.32675 6.32031 5.74282C6.32031 7.16748 7.00086 8.43294 8.05384 9.23091L9.03203 11.0969V9.7911C9.57129 10.011 10.1318 10.1217 10.6953 10.1196C13.1108 10.1196 15.0717 8.16091 15.0717 5.74282C15.0717 3.32474 13.1108 1.36609 10.6953 1.36609Z" fill="#FEFEFE"/>
<path d="M9.03208 11.1977C9.02006 11.1979 9.00819 11.1942 8.99749 11.1868C8.9868 11.1794 8.97762 11.1686 8.97075 11.1553L8.00153 9.31357C6.88574 8.45314 6.24707 7.15543 6.24707 5.74287C6.24707 3.26836 8.24234 1.26538 10.6953 1.26538C13.1483 1.26538 15.1435 3.28045 15.1435 5.74287C15.1435 8.20528 13.1483 10.2204 10.6953 10.2204C10.158 10.2197 9.62331 10.118 9.10686 9.91809V11.0888C9.10696 11.1104 9.10193 11.1314 9.0925 11.1488C9.08308 11.1662 9.06977 11.1791 9.05451 11.1856C9.04774 11.1917 9.0401 11.1958 9.03208 11.1977ZM10.6953 1.46689C8.32461 1.46689 6.39664 3.38523 6.39664 5.74287C6.39664 7.09699 7.01287 8.32619 8.08978 9.14431C8.09983 9.1508 8.10855 9.16048 8.11521 9.17252L8.95729 10.7846V9.79115C8.9574 9.77553 8.96016 9.76016 8.96534 9.74619C8.97052 9.73222 8.978 9.72003 8.98721 9.71054C8.99691 9.70151 9.00794 9.6954 9.01956 9.69262C9.03117 9.68983 9.04309 9.69045 9.05451 9.69442C9.58787 9.91245 10.1424 10.0218 10.6998 10.0188C13.0705 10.0188 14.9985 8.1005 14.9985 5.74287C14.9985 3.38523 13.066 1.46689 10.6953 1.46689Z" fill="#D1D3D4"/>
<path d="M8.59512 6.24057C8.80163 6.24057 8.96905 6.01502 8.96905 5.7368C8.96905 5.45858 8.80163 5.23303 8.59512 5.23303C8.3886 5.23303 8.22119 5.45858 8.22119 5.7368C8.22119 6.01502 8.3886 6.24057 8.59512 6.24057Z" fill="#D1D3D4"/>
<path d="M10.6952 6.24057C10.9017 6.24057 11.0691 6.01502 11.0691 5.7368C11.0691 5.45858 10.9017 5.23303 10.6952 5.23303C10.4887 5.23303 10.3213 5.45858 10.3213 5.7368C10.3213 6.01502 10.4887 6.24057 10.6952 6.24057Z" fill="#D1D3D4"/>
<path d="M12.7938 6.24057C13.0004 6.24057 13.1678 6.01502 13.1678 5.7368C13.1678 5.45858 13.0004 5.23303 12.7938 5.23303C12.5873 5.23303 12.4199 5.45858 12.4199 5.7368C12.4199 6.01502 12.5873 6.24057 12.7938 6.24057Z" fill="#D1D3D4"/>
<path d="M37.5076 17.9622H37.5001C37.4799 17.9592 37.4613 17.9457 37.4482 17.9247C37.4352 17.9037 37.4286 17.8767 37.4298 17.8494C37.729 13.1724 38.9181 11.5019 38.9674 11.4334C38.9822 11.4173 39.0009 11.4091 39.0199 11.4103C39.0389 11.4115 39.0569 11.422 39.0705 11.4398C39.0841 11.4577 39.0924 11.4817 39.0938 11.5072C39.0952 11.5327 39.0896 11.5581 39.0781 11.5785C39.0661 11.5946 37.8815 13.2772 37.5824 17.8675C37.5809 17.893 37.5724 17.9168 37.5586 17.9343C37.5448 17.9518 37.5266 17.9618 37.5076 17.9622Z" fill="#FEFEFE"/>
</svg>
