<svg width="46" height="42" viewBox="0 0 46 42" fill="none" xmlns="http://www.w3.org/2000/svg">
<path d="M9.2002 28H16.3558V38H9.2002V28Z" fill="#2B9140"/>
<path d="M40.8889 0H20.4444C17.6231 0 15.3333 1.8816 15.3333 4.2V16.8H5.11111C2.29233 16.8 0 18.6837 0 21V39.9C0 41.0592 1.14233 42 2.55556 42H15.3333H23H25.5556H35.7778H43.4444C44.8577 42 46 41.0592 46 39.9V4.2C46 1.8816 43.7102 0 40.8889 0ZM5.11111 37.8V21H20.4444V37.8H5.11111ZM28.1111 12.6H23V8.4H28.1111V12.6ZM38.3333 29.4H33.2222V25.2H38.3333V29.4ZM38.3333 21H33.2222V16.8H38.3333V21ZM38.3333 12.6H33.2222V8.4H38.3333V12.6Z" fill="#2B9140"/>
</svg>
