<svg width="46" height="42" viewBox="0 0 46 42" fill="none" xmlns="http://www.w3.org/2000/svg">
<path d="M45.8087 4.22208C45.8087 4.22208 45.3829 3.3909 44.7075 2.24316C44.7075 2.24316 42.5383 3.95796 42.5548 3.86281C42.5713 3.76765 45.8087 4.22208 45.8087 4.22208Z" fill="#272727"/>
<path d="M45.8096 4.31907H45.7968C44.6553 4.15789 42.7925 3.91902 42.5888 3.94815C42.5356 3.97145 42.5191 3.9598 42.5007 3.94815C42.4849 3.93684 42.4724 3.92092 42.465 3.90231C42.4575 3.88371 42.4552 3.8632 42.4585 3.84328C42.4585 3.81609 42.4695 3.7889 42.5301 3.77337C42.6549 3.72093 43.8955 2.75964 44.6461 2.16538C44.6562 2.1573 44.6678 2.15157 44.6801 2.14856C44.6925 2.14554 44.7052 2.14532 44.7177 2.1479C44.7301 2.15005 44.7419 2.15497 44.7523 2.16234C44.7628 2.1697 44.7716 2.17935 44.7782 2.19063C45.4554 3.32865 45.8794 4.16759 45.8904 4.17536C45.898 4.19017 45.9019 4.20683 45.9016 4.22371C45.9014 4.24058 45.8969 4.25709 45.8888 4.2716C45.8806 4.28611 45.869 4.29811 45.8551 4.30644C45.8413 4.31476 45.8256 4.31912 45.8096 4.31907ZM42.8733 3.76754C43.2733 3.79084 44.0643 3.88212 45.6353 4.10157C45.483 3.81221 45.1398 3.17717 44.67 2.38483C43.6899 3.16163 43.1669 3.56363 42.8788 3.76754H42.8733Z" fill="#272727"/>
<path d="M17.0652 38.8578L15.9824 36.9469L17.4818 35.5137L17.0652 38.8578Z" fill="#272727"/>
<path d="M17.0651 38.955C17.0494 38.9547 17.0339 38.9503 17.0201 38.9422C17.0064 38.934 16.9947 38.9224 16.9862 38.9084L15.9034 36.9974C15.8925 36.978 15.8884 36.9551 15.8918 36.9327C15.8951 36.9104 15.9057 36.89 15.9218 36.8751L17.4193 35.4419C17.4333 35.4285 17.4509 35.42 17.4696 35.4176C17.4883 35.4152 17.5073 35.4189 17.5239 35.4283C17.5403 35.4378 17.5537 35.4524 17.5622 35.47C17.5707 35.4877 17.574 35.5076 17.5717 35.5273L17.1569 38.8656C17.1545 38.886 17.1462 38.905 17.133 38.92C17.1198 38.935 17.1025 38.9452 17.0835 38.9491L17.0651 38.955ZM16.0998 36.9663L17.0174 38.5685L17.3661 35.7623L16.0998 36.9663Z" fill="#272727"/>
<path d="M17.7676 39.254L35.2024 41.8816C35.56 41.9317 35.9228 41.8452 36.2255 41.6377C36.5283 41.4301 36.7512 41.1152 36.8542 40.7494L45.8762 5.03572C46.0597 4.29582 45.6138 3.64524 44.8742 3.58115L27.0962 2.06444C26.7447 2.04617 26.3977 2.15342 26.1108 2.36897C25.8239 2.58451 25.6138 2.89584 25.5142 3.25295L16.8574 37.7859C16.8124 37.9461 16.8011 38.1148 16.8241 38.2802C16.8471 38.4456 16.9039 38.6037 16.9906 38.7435C17.0772 38.8832 17.1916 39.0013 17.3258 39.0895C17.4601 39.1777 17.6108 39.2338 17.7676 39.254Z" fill="#272727"/>
<path d="M35.3964 42C35.3258 41.9996 35.2553 41.9944 35.1853 41.9844L17.7505 39.355C17.5819 39.333 17.4197 39.2729 17.275 39.1788C17.1303 39.0846 17.0064 38.9586 16.9118 38.8093C16.8178 38.6558 16.7558 38.4828 16.7302 38.3019C16.7046 38.1211 16.7158 37.9365 16.7632 37.7606L25.42 3.23347C25.5259 2.85417 25.7488 2.52334 26.0532 2.29382C26.3576 2.06431 26.7259 1.94934 27.0993 1.96728L44.8773 3.48399C45.0575 3.49535 45.2331 3.54857 45.3917 3.63986C45.5503 3.73116 45.688 3.85828 45.7949 4.01222C45.8932 4.16359 45.9584 4.33628 45.9857 4.5177C46.013 4.69911 46.0018 4.88469 45.9527 5.06091L36.9307 40.7746C36.8325 41.1257 36.6305 41.4342 36.3543 41.6547C36.0781 41.8753 35.7424 41.9963 35.3964 42ZM17.7781 39.1627L35.2129 41.7922C35.549 41.8396 35.8902 41.7588 36.175 41.5641C36.4599 41.3694 36.6699 41.0736 36.7673 40.7299L45.782 5.01818C45.8246 4.86937 45.835 4.71235 45.8124 4.55873C45.7898 4.40511 45.7349 4.25882 45.6517 4.13068C45.5599 3.9988 45.4414 3.89026 45.3049 3.81299C45.1683 3.73572 45.0172 3.69166 44.8626 3.68402L27.0846 2.16148C26.7541 2.14311 26.4275 2.2434 26.1577 2.44609C25.8879 2.64878 25.6906 2.94197 25.598 3.27814L16.9467 37.8111C16.9057 37.9603 16.8955 38.1171 16.9167 38.2709C16.9379 38.4247 16.9901 38.5718 17.0697 38.7024C17.1505 38.8284 17.2558 38.9347 17.3786 39.0141C17.5015 39.0935 17.6389 39.1441 17.7817 39.1627H17.7781Z" fill="#272727"/>
<path d="M16.6343 37.2894L34.0691 39.917C34.4266 39.9663 34.789 39.8795 35.0916 39.6721C35.3941 39.4646 35.6172 39.1502 35.7208 38.7848L44.741 3.07113C44.9246 2.33123 44.4786 1.68065 43.739 1.61656L25.9573 0.0998508C25.6057 0.0818265 25.2585 0.189141 24.9714 0.404619C24.6843 0.620097 24.4737 0.93128 24.3735 1.28836L15.7222 35.8155C15.6763 35.9762 15.6643 36.1457 15.6869 36.3119C15.7096 36.4781 15.7664 36.6371 15.8533 36.7776C15.9403 36.9181 16.0552 37.0367 16.1902 37.1251C16.3251 37.2136 16.4767 37.2697 16.6343 37.2894Z" fill="#FCFCFC"/>
<path d="M34.2618 40.0308C34.1912 40.0305 34.1207 40.0253 34.0507 40.0153L16.6159 37.3858C16.4473 37.3639 16.2851 37.3038 16.1404 37.2096C15.9957 37.1154 15.8718 36.9894 15.7772 36.8401C15.683 36.6867 15.6211 36.5137 15.5954 36.3328C15.5698 36.1519 15.5811 35.9673 15.6286 35.7914L24.2872 1.26432C24.3932 0.88538 24.6163 0.555029 24.9208 0.326163C25.2252 0.0972977 25.5934 -0.0168445 25.9665 0.00201157L43.7408 1.51872C43.9226 1.52882 44.1 1.58143 44.2602 1.67277C44.4205 1.7641 44.5596 1.8919 44.6676 2.04695C44.7655 2.19856 44.8304 2.37124 44.8577 2.55256C44.885 2.73389 44.874 2.91936 44.8255 3.09564L35.8034 38.8093C35.7042 39.1609 35.5008 39.4695 35.2232 39.6894C34.9456 39.9094 34.6086 40.0291 34.2618 40.0308ZM25.8509 0.192329C25.5386 0.20148 25.2371 0.314743 24.9892 0.515963C24.7414 0.717183 24.5599 0.99608 24.4708 1.31287L15.8121 35.84C15.7711 35.9892 15.7609 36.146 15.7821 36.2998C15.8033 36.4536 15.8554 36.6007 15.935 36.7313C16.0159 36.8573 16.1212 36.9636 16.244 37.043C16.3668 37.1224 16.5043 37.173 16.6471 37.1916L34.0819 39.8211C34.4172 39.8671 34.757 39.7855 35.0407 39.5909C35.3245 39.3963 35.5336 39.1014 35.6309 38.7588L44.6474 3.04709C44.6896 2.89823 44.6997 2.74129 44.6772 2.58774C44.6546 2.43418 44.6 2.2879 44.5171 2.15959C44.4251 2.02746 44.3063 1.91877 44.1694 1.84149C44.0326 1.76421 43.8811 1.72028 43.7261 1.71293L25.95 0.196213L25.8509 0.192329Z" fill="#272727"/>
<path d="M43.0153 5.42027L24.8151 3.75208L17.832 31.6122L35.766 34.1349L43.0153 5.42027Z" fill="#188B30"/>
<path d="M35.0317 30.2955C35.0142 30.2956 34.9971 30.2903 34.9824 30.2803C34.9678 30.2703 34.9562 30.256 34.9491 30.2392L31.2786 22.0264C31.2733 22.0148 31.2703 22.0022 31.2697 21.9894C31.269 21.9765 31.2708 21.9637 31.2749 21.9516C31.279 21.9395 31.2853 21.9284 31.2935 21.9189C31.3017 21.9094 31.3116 21.9017 31.3226 21.8963C31.3446 21.8856 31.3696 21.8846 31.3922 21.8933C31.4149 21.902 31.4334 21.9198 31.4438 21.9429L35.1142 30.1576C35.1195 30.1691 35.1225 30.1815 35.1231 30.1942C35.1237 30.2069 35.1219 30.2196 35.1178 30.2315C35.1137 30.2435 35.1074 30.2544 35.0992 30.2638C35.091 30.2731 35.0811 30.2806 35.0702 30.2858C35.0581 30.2917 35.045 30.295 35.0317 30.2955Z" fill="#FCFCFC"/>
<path d="M23.8387 37.081L27.2412 37.5878C27.4573 37.616 27.6759 37.5619 27.8577 37.4352C28.0396 37.3086 28.173 37.1176 28.2341 36.8965L28.5718 35.5546C28.6001 35.4526 28.6068 35.3454 28.5914 35.2404C28.5761 35.1355 28.539 35.0354 28.483 34.9473C28.4269 34.8592 28.3531 34.7853 28.267 34.7308C28.1808 34.6764 28.0844 34.6426 27.9845 34.6321L24.5783 34.1427C24.3643 34.118 24.1488 34.1737 23.9696 34.3C23.7905 34.4264 23.659 34.6155 23.5983 34.8341L23.2624 36.1643C23.2342 36.265 23.2271 36.3711 23.2419 36.4749C23.2566 36.5788 23.2928 36.678 23.3477 36.7654C23.4027 36.8529 23.4752 36.9265 23.56 36.981C23.6449 37.0356 23.74 37.0697 23.8387 37.081Z" fill="#FCFCFC"/>
<path d="M27.3542 37.7003C27.3118 37.701 27.2694 37.6977 27.2276 37.6906L23.825 37.1857C23.7135 37.1721 23.6062 37.1329 23.5105 37.0708C23.4149 37.0088 23.3332 36.9254 23.2711 36.8264C23.2091 36.7275 23.1682 36.6154 23.1513 36.498C23.1345 36.3806 23.142 36.2607 23.1735 36.1467L23.5075 34.8164C23.5743 34.5749 23.7196 34.3661 23.9177 34.2268C24.1158 34.0875 24.354 34.0267 24.5903 34.0552L27.9965 34.5426C28.1098 34.5568 28.2189 34.5965 28.3164 34.6592C28.414 34.7219 28.4976 34.8059 28.5618 34.9058C28.623 35.0055 28.6634 35.1179 28.6802 35.2355C28.6969 35.353 28.6897 35.473 28.659 35.5874L28.325 36.9235C28.2641 37.1465 28.1366 37.3426 27.9616 37.4826C27.7866 37.6226 27.5735 37.699 27.3542 37.7003ZM23.8507 36.9934L27.2532 37.4984C27.4469 37.5233 27.6426 37.4747 27.8056 37.3613C27.9686 37.2479 28.0883 37.0769 28.1433 36.8789L28.4829 35.5369C28.5063 35.449 28.5119 35.3568 28.4993 35.2664C28.4866 35.1761 28.456 35.0895 28.4095 35.0126C28.3594 34.9362 28.2945 34.872 28.2192 34.8241C28.144 34.7762 28.0599 34.7458 27.9727 34.7349L24.5646 34.2474C24.3728 34.2241 24.1793 34.2733 24.0185 34.3863C23.8576 34.4993 23.7397 34.6689 23.6855 34.865L23.3515 36.1972C23.3264 36.2846 23.3199 36.3767 23.3324 36.4671C23.3449 36.5574 23.3761 36.6437 23.4238 36.7198C23.4715 36.7959 23.5345 36.8599 23.6083 36.9072C23.6821 36.9545 23.7649 36.9839 23.8507 36.9934Z" fill="#E6E7E8"/>
<path d="M37.6308 3.02576L32.4315 2.5655C32.4195 2.56436 32.4078 2.56071 32.397 2.55477C32.3863 2.54883 32.3768 2.54071 32.3691 2.53088C32.3613 2.52106 32.3555 2.50971 32.3519 2.49749C32.3482 2.48527 32.3469 2.47242 32.348 2.45966C32.3491 2.44691 32.3526 2.43451 32.3582 2.42317C32.3638 2.41183 32.3715 2.40177 32.3807 2.39356C32.39 2.38536 32.4008 2.37917 32.4123 2.37535C32.4239 2.37153 32.436 2.37016 32.4481 2.3713L37.6454 2.82962C37.6698 2.82962 37.6931 2.83985 37.7103 2.85806C37.7275 2.87627 37.7372 2.90097 37.7372 2.92672C37.7372 2.95247 37.7275 2.97717 37.7103 2.99538C37.6931 3.01359 37.6698 3.02382 37.6454 3.02382L37.6308 3.02576Z" fill="#D1D3D4"/>
<path d="M31.7087 2.50137L31.0186 2.44117C31.0066 2.4402 30.9949 2.43669 30.9843 2.43086C30.9736 2.42503 30.9641 2.41698 30.9564 2.4072C30.9487 2.39742 30.9429 2.38611 30.9394 2.37393C30.9359 2.36175 30.9348 2.34896 30.936 2.3363C30.9384 2.31071 30.95 2.28708 30.9685 2.27041C30.987 2.25374 31.0109 2.24533 31.0351 2.24696L31.7234 2.30911C31.7477 2.30911 31.771 2.31934 31.7882 2.33755C31.8055 2.35576 31.8151 2.38046 31.8151 2.40621C31.8151 2.43196 31.8055 2.45666 31.7882 2.47487C31.771 2.49308 31.7477 2.50331 31.7234 2.50331L31.7087 2.50137Z" fill="#D1D3D4"/>
<path d="M36.8143 20.7932C36.8143 20.7932 39.0496 12.9941 37.1116 11.2657L27.6271 10.0577C27.6271 10.0577 26.001 11.8502 25.7661 13.2271C25.5312 14.604 23.5638 17.5364 24.2979 19.2862L36.8143 20.7932Z" fill="#272727"/>
<path d="M36.8149 20.8903H36.8057L24.2875 19.3814C24.2717 19.3793 24.2568 19.3731 24.2439 19.3632C24.2311 19.3534 24.2208 19.3402 24.2141 19.325C23.7057 18.1093 24.449 16.3557 25.0473 14.9458C25.3428 14.2506 25.5979 13.6485 25.6713 13.2096C25.908 11.8192 27.4882 10.0636 27.5561 9.98978C27.5659 9.97894 27.578 9.97067 27.5914 9.96562C27.6047 9.96056 27.619 9.95886 27.6331 9.96065L37.1177 11.1705C37.1351 11.173 37.1516 11.1804 37.1654 11.1919C39.1273 12.9397 36.9819 20.5019 36.8975 20.8223C36.8919 20.8412 36.881 20.8579 36.8662 20.87C36.8515 20.8821 36.8335 20.8892 36.8149 20.8903ZM24.3682 19.1949L36.7488 20.6883C36.9727 19.8766 38.8061 12.9708 37.0736 11.3667L27.6625 10.1665C27.4386 10.4228 26.0658 12.0231 25.8566 13.2524C25.7777 13.7146 25.5189 14.3263 25.2198 15.0332C24.6545 16.379 23.9333 18.0589 24.3682 19.1949Z" fill="#272727"/>
<path d="M37.7113 21.0224H37.6984L21.8474 18.6687C21.8237 18.6648 21.8023 18.6513 21.7879 18.6309C21.7735 18.6106 21.7672 18.5851 21.7703 18.5599C21.7735 18.5344 21.7861 18.5113 21.8054 18.4957C21.8247 18.48 21.849 18.4731 21.8731 18.4764L37.7241 20.8301C37.7483 20.834 37.7702 20.8477 37.7849 20.8684C37.7997 20.8891 37.8062 20.9151 37.803 20.9408C37.7992 20.9636 37.7879 20.9843 37.7711 20.9992C37.7543 21.0141 37.7332 21.0223 37.7113 21.0224Z" fill="#272727"/>
<path d="M37.1124 11.2658C37.1124 11.2658 36.1507 11.4057 35.5616 13.5224C34.6605 16.7617 33.4731 23.5976 32.7225 26.1689C31.6214 29.9092 28.685 30.4413 28.685 30.4413L16.2695 28.5362C16.2695 28.5362 21.322 26.6835 22.1753 23.5335C23.0728 20.2146 24.3152 13.9439 24.6511 12.5437C25.2439 10.0637 27.6334 10.0637 27.6334 10.0637L37.1124 11.2658Z" fill="#FCFCFC"/>
<path d="M28.6795 30.5323H28.6667L16.2512 28.6272C16.2308 28.6239 16.212 28.6135 16.1977 28.5977C16.1834 28.5819 16.1745 28.5616 16.1723 28.5398C16.1703 28.5183 16.1752 28.4966 16.1862 28.4783C16.1971 28.46 16.2136 28.4461 16.2329 28.4388C16.2843 28.4214 21.2523 26.5648 22.0818 23.5003C22.7039 21.199 23.5023 17.4354 24.029 14.9438C24.2657 13.8271 24.4529 12.9435 24.5557 12.5143C25.1595 9.9897 27.604 9.96057 27.6279 9.96057L37.1235 11.1704C37.1455 11.1733 37.1659 11.1845 37.1807 11.202C37.1956 11.2195 37.2039 11.2421 37.2042 11.2656C37.204 11.2891 37.196 11.3117 37.1816 11.3295C37.1671 11.3472 37.1472 11.359 37.1253 11.3627C37.1106 11.3627 36.2077 11.5394 35.6571 13.5494C35.2001 15.1885 34.6734 17.7442 34.1614 20.2164C33.6622 22.638 33.1887 24.9257 32.818 26.1978C32.2454 28.1573 31.1663 29.2312 30.3477 29.7866C29.8461 30.1422 29.2858 30.3952 28.696 30.5323H28.6795ZM16.6275 28.4893L28.6777 30.3381C28.8924 30.2915 31.6141 29.6487 32.6345 26.1395C33.0015 24.8752 33.4768 22.5914 33.976 20.1756C34.4862 17.6995 35.0166 15.1399 35.4736 13.495C35.8608 12.1065 36.4077 11.553 36.7582 11.318L27.6169 10.1528C27.5325 10.1528 25.3027 10.1858 24.7337 12.5629C24.6328 12.9882 24.4456 13.8698 24.2088 14.9865C23.6803 17.4801 22.882 21.2476 22.258 23.5547C21.8083 25.2112 20.208 26.5027 18.9435 27.2931C18.2009 27.7527 17.4267 28.1526 16.6275 28.4893Z" fill="#272727"/>
<path d="M31.1426 26.3959H31.1316L29.4524 26.2017C29.4283 26.1988 29.4063 26.1859 29.3912 26.1659C29.3761 26.1459 29.369 26.1204 29.3716 26.0949C29.3727 26.0822 29.3763 26.0698 29.382 26.0586C29.3877 26.0474 29.3956 26.0375 29.405 26.0295C29.4144 26.0215 29.4252 26.0157 29.4368 26.0122C29.4484 26.0088 29.4606 26.0078 29.4726 26.0094L31.1536 26.2036C31.1777 26.2066 31.1997 26.2194 31.2148 26.2394C31.2299 26.2594 31.237 26.285 31.2344 26.3104C31.2313 26.334 31.2203 26.3555 31.2035 26.3712C31.1867 26.3869 31.1651 26.3957 31.1426 26.3959Z" fill="#D1D3D4"/>
<path d="M28.0995 26.0309H28.0885L23.0617 25.4269C23.0377 25.424 23.0157 25.4111 23.0006 25.3911C22.9855 25.3711 22.9784 25.3456 22.981 25.3201C22.9821 25.3074 22.9857 25.2951 22.9914 25.2838C22.9971 25.2726 23.0049 25.2627 23.0143 25.2547C23.0238 25.2468 23.0346 25.2409 23.0462 25.2374C23.0578 25.234 23.07 25.233 23.0819 25.2347L28.1105 25.8367C28.1348 25.8382 28.1576 25.8499 28.1738 25.8692C28.19 25.8885 28.1982 25.9139 28.1968 25.9396C28.1953 25.9654 28.1842 25.9894 28.166 26.0066C28.1477 26.0237 28.1238 26.0324 28.0995 26.0309Z" fill="#D1D3D4"/>
<path d="M29.6437 28.4254H29.6326L28.0892 28.2312C28.0772 28.2296 28.0655 28.2256 28.0549 28.2193C28.0444 28.213 28.0351 28.2046 28.0276 28.1945C28.0201 28.1844 28.0145 28.1728 28.0112 28.1604C28.008 28.1481 28.007 28.1351 28.0085 28.1224C28.0099 28.1096 28.0137 28.0973 28.0197 28.0861C28.0256 28.0749 28.0336 28.0651 28.0431 28.0572C28.0527 28.0492 28.0636 28.0433 28.0753 28.0399C28.087 28.0364 28.0992 28.0354 28.1112 28.037L29.6547 28.2312C29.6667 28.2319 29.6785 28.2352 29.6894 28.2408C29.7002 28.2464 29.7099 28.2542 29.7179 28.2637C29.726 28.2733 29.7321 28.2844 29.7361 28.2965C29.74 28.3086 29.7417 28.3213 29.7409 28.3341C29.7402 28.3468 29.7371 28.3593 29.7318 28.3708C29.7266 28.3823 29.7192 28.3926 29.7102 28.401C29.7011 28.4095 29.6906 28.416 29.6792 28.4202C29.6678 28.4244 29.6557 28.4261 29.6437 28.4254Z" fill="#D1D3D4"/>
<path d="M26.3782 28.0331H26.3672L21.5607 27.4505C21.5364 27.4477 21.5141 27.4347 21.4988 27.4145C21.4835 27.3943 21.4764 27.3685 21.4791 27.3427C21.4817 27.317 21.494 27.2934 21.5131 27.2772C21.5322 27.261 21.5566 27.2535 21.5809 27.2563L26.3893 27.8389C26.4133 27.8419 26.4353 27.8547 26.4504 27.8747C26.4655 27.8947 26.4726 27.9203 26.47 27.9457C26.4673 27.9696 26.4566 27.9916 26.4397 28.0077C26.4228 28.0238 26.401 28.0328 26.3782 28.0331Z" fill="#D1D3D4"/>
<path d="M28.6797 30.4354C27.9534 29.7254 27.3949 28.8448 27.049 27.8646C26.7031 26.8843 26.5796 25.8319 26.6884 24.7919L13.6582 22.3042C13.6582 22.3042 14.7759 26.9204 16.2624 28.5303L28.6797 30.4354Z" fill="#FCFCFC"/>
<path d="M28.6788 30.5325H28.6659L16.2505 28.6273C16.2304 28.6237 16.2118 28.6135 16.1973 28.5982C14.7108 26.9883 13.6151 22.5178 13.5692 22.3274C13.5654 22.3118 13.5655 22.2954 13.5693 22.2798C13.5732 22.2641 13.5807 22.2498 13.5913 22.2381C13.6017 22.2257 13.6149 22.2164 13.6296 22.211C13.6444 22.2055 13.6603 22.2042 13.6757 22.207L26.7059 24.6948C26.7284 24.6999 26.7483 24.7136 26.7619 24.7333C26.7754 24.753 26.7816 24.7773 26.7793 24.8016C26.6764 25.8257 26.7999 26.8611 27.1401 27.826C27.4802 28.7909 28.0277 29.659 28.7394 30.3616C28.7547 30.3738 28.7659 30.391 28.7713 30.4105C28.7767 30.43 28.7761 30.4508 28.7696 30.4699C28.763 30.489 28.7508 30.5054 28.7348 30.5167C28.7188 30.5279 28.6998 30.5335 28.6806 30.5325H28.6788ZM16.3074 28.439L28.4053 30.2955C27.749 29.5848 27.2464 28.7317 26.9324 27.7951C26.6183 26.8586 26.5004 25.861 26.5866 24.8715L13.784 22.4265C13.9895 23.2208 15.0136 27.0077 16.3074 28.439Z" fill="#272727"/>
<path d="M33.8398 14.2933H33.8306L25.7556 13.3223C25.7434 13.3211 25.7315 13.3173 25.7208 13.3112C25.71 13.305 25.7006 13.2965 25.693 13.2863C25.6855 13.2762 25.68 13.2645 25.6768 13.2519C25.6737 13.2394 25.673 13.2264 25.6748 13.2136C25.6776 13.1881 25.6897 13.1648 25.7086 13.1488C25.7275 13.1328 25.7517 13.1254 25.7757 13.1281L33.8508 14.0991C33.8751 14.1004 33.898 14.1119 33.9143 14.131C33.9307 14.1501 33.9392 14.1753 33.938 14.2011C33.9368 14.2268 33.9259 14.251 33.9079 14.2683C33.8898 14.2856 33.866 14.2946 33.8416 14.2933H33.8398Z" fill="#D1D3D4"/>
<path d="M33.5029 16.4917H33.4918L31.9759 16.3092C31.9639 16.3076 31.9522 16.3036 31.9417 16.2973C31.9311 16.291 31.9218 16.2826 31.9143 16.2725C31.9068 16.2624 31.9012 16.2508 31.898 16.2384C31.8947 16.2261 31.8937 16.2132 31.8952 16.2004C31.8966 16.1877 31.9004 16.1753 31.9064 16.1641C31.9123 16.1529 31.9203 16.1431 31.9299 16.1352C31.9394 16.1272 31.9503 16.1214 31.962 16.1179C31.9737 16.1144 31.9859 16.1134 31.998 16.115L33.512 16.2956C33.5241 16.2962 33.5359 16.2993 33.5468 16.3048C33.5577 16.3103 33.5675 16.318 33.5756 16.3274C33.5837 16.3369 33.5899 16.348 33.594 16.36C33.598 16.372 33.5998 16.3848 33.5992 16.3975C33.5986 16.4103 33.5956 16.4228 33.5905 16.4343C33.5853 16.4458 33.578 16.4562 33.5691 16.4648C33.5601 16.4733 33.5497 16.4799 33.5383 16.4842C33.527 16.4885 33.5149 16.4904 33.5029 16.4898V16.4917Z" fill="#D1D3D4"/>
<path d="M30.2896 16.1052L25.4299 15.5225C25.4055 15.5197 25.3833 15.5068 25.3679 15.4866C25.3526 15.4663 25.3455 15.4405 25.3482 15.4148C25.3509 15.389 25.3631 15.3654 25.3822 15.3492C25.4013 15.333 25.4257 15.3255 25.4501 15.3283L30.3098 15.911C30.3219 15.9117 30.3336 15.915 30.3445 15.9206C30.3554 15.9262 30.3651 15.934 30.3731 15.9435C30.3811 15.9531 30.3872 15.9642 30.3912 15.9763C30.3951 15.9883 30.3968 16.0011 30.3961 16.0139C30.3953 16.0266 30.3922 16.0391 30.387 16.0506C30.3817 16.0621 30.3743 16.0724 30.3653 16.0808C30.3563 16.0893 30.3457 16.0958 30.3343 16.1C30.3229 16.1042 30.3108 16.1059 30.2988 16.1052H30.2896Z" fill="#D1D3D4"/>
<path d="M33.0041 18.5405H32.9931L30.4953 18.2414C30.4711 18.238 30.4491 18.2247 30.4341 18.2044C30.419 18.1841 30.412 18.1583 30.4146 18.1326C30.4178 18.107 30.4304 18.0838 30.4496 18.0678C30.4688 18.0518 30.4931 18.0444 30.5174 18.0472L33.0133 18.3482C33.0253 18.3494 33.037 18.3531 33.0476 18.3592C33.0582 18.3653 33.0675 18.3735 33.0751 18.3835C33.0826 18.3935 33.0882 18.4049 33.0914 18.4172C33.0947 18.4295 33.0956 18.4424 33.094 18.455C33.0914 18.4784 33.0808 18.4999 33.0643 18.5156C33.0477 18.5313 33.0264 18.5402 33.0041 18.5405Z" fill="#D1D3D4"/>
<path d="M28.0988 17.9521H28.0877L24.9201 17.5637C24.9081 17.5623 24.8964 17.5584 24.8858 17.5522C24.8751 17.546 24.8658 17.5377 24.8582 17.5277C24.8506 17.5177 24.845 17.5062 24.8416 17.4939C24.8382 17.4816 24.8371 17.4687 24.8384 17.4559C24.8398 17.4432 24.8435 17.4308 24.8493 17.4196C24.8551 17.4083 24.863 17.3984 24.8725 17.3904C24.8819 17.3823 24.8928 17.3764 24.9044 17.3728C24.9161 17.3692 24.9282 17.3681 24.9403 17.3695L28.1098 17.7482C28.134 17.7516 28.156 17.7648 28.171 17.7852C28.1861 17.8055 28.1931 17.8312 28.1905 17.8569C28.1896 17.8822 28.1796 17.9061 28.1625 17.9238C28.1454 17.9415 28.1226 17.9516 28.0988 17.9521Z" fill="#D1D3D4"/>
<path d="M32.5777 20.4806H32.5666L30.4836 20.2223C30.4594 20.2189 30.4374 20.2056 30.4223 20.1853C30.4073 20.165 30.4003 20.1392 30.4029 20.1136C30.4065 20.0881 30.4192 20.0652 30.4383 20.0493C30.4574 20.0334 30.4815 20.0258 30.5057 20.0281L32.5868 20.2786C32.6112 20.2799 32.634 20.2914 32.6504 20.3105C32.6667 20.3296 32.6752 20.3548 32.674 20.3806C32.6728 20.4063 32.662 20.4305 32.6439 20.4478C32.6258 20.4651 32.602 20.4741 32.5777 20.4728V20.4806Z" fill="#D1D3D4"/>
<path d="M28.2721 19.9639H28.2611L24.4934 19.5114C24.4693 19.5085 24.4473 19.4956 24.4322 19.4756C24.4171 19.4556 24.4101 19.4301 24.4126 19.4046C24.4158 19.379 24.4284 19.3557 24.4476 19.3398C24.4668 19.3238 24.4911 19.3164 24.5154 19.3192L28.2813 19.7717C28.3057 19.7717 28.329 19.7819 28.3462 19.8001C28.3634 19.8183 28.3731 19.843 28.3731 19.8688C28.3731 19.8945 28.3634 19.9192 28.3462 19.9374C28.329 19.9556 28.3057 19.9659 28.2813 19.9659L28.2721 19.9639Z" fill="#D1D3D4"/>
<path d="M32.1344 22.6284L30.2864 22.407C30.2623 22.4041 30.2403 22.3912 30.2252 22.3712C30.2101 22.3512 30.203 22.3257 30.2056 22.3002C30.2067 22.2875 30.2103 22.2752 30.216 22.2639C30.2217 22.2527 30.2295 22.2428 30.239 22.2348C30.2484 22.2269 30.2592 22.221 30.2708 22.2175C30.2824 22.2141 30.2946 22.2131 30.3065 22.2148L32.1546 22.4361C32.179 22.4377 32.2017 22.4494 32.2179 22.4687C32.2341 22.488 32.2423 22.5133 32.2409 22.5391C32.2394 22.5648 32.2284 22.5889 32.2101 22.606C32.1919 22.6231 32.168 22.6319 32.1436 22.6304L32.1344 22.6284Z" fill="#D1D3D4"/>
<path d="M29.1338 22.2691H29.1227L24.052 21.6593C24.0279 21.6564 24.0059 21.6435 23.9908 21.6235C23.9757 21.6035 23.9686 21.578 23.9712 21.5525C23.9724 21.5398 23.9759 21.5275 23.9816 21.5163C23.9874 21.505 23.9952 21.4951 24.0046 21.4872C24.014 21.4792 24.0248 21.4733 24.0364 21.4699C24.0481 21.4664 24.0602 21.4655 24.0722 21.4671L29.1429 22.0749C29.1673 22.0762 29.1901 22.0877 29.2065 22.1068C29.2228 22.1259 29.2313 22.1511 29.2301 22.1769C29.2289 22.2026 29.2181 22.2268 29.2 22.2441C29.1819 22.2614 29.1581 22.2704 29.1338 22.2691Z" fill="#D1D3D4"/>
<path d="M31.6696 24.3666H31.6586L29.4563 24.1025C29.4322 24.0995 29.4102 24.0867 29.3951 24.0666C29.38 24.0466 29.3729 24.0211 29.3755 23.9956C29.3767 23.9829 29.3802 23.9706 29.3859 23.9594C29.3917 23.9481 29.3995 23.9382 29.4089 23.9303C29.4183 23.9223 29.4291 23.9164 29.4407 23.913C29.4524 23.9095 29.4645 23.9086 29.4765 23.9102L31.6788 24.1743C31.7031 24.1759 31.7258 24.1876 31.742 24.2069C31.7582 24.2262 31.7665 24.2515 31.765 24.2772C31.7635 24.303 31.7525 24.3271 31.7342 24.3442C31.716 24.3613 31.6921 24.3701 31.6677 24.3685L31.6696 24.3666Z" fill="#D1D3D4"/>
<path d="M28.4703 23.9839L23.5959 23.4013C23.5716 23.3985 23.5493 23.3856 23.534 23.3653C23.5186 23.3451 23.5115 23.3193 23.5142 23.2936C23.5169 23.2678 23.5291 23.2442 23.5482 23.228C23.5673 23.2118 23.5917 23.2043 23.6161 23.2071L28.4905 23.7897C28.5148 23.7913 28.5376 23.803 28.5538 23.8223C28.5699 23.8416 28.5782 23.8669 28.5768 23.8927C28.5753 23.9184 28.5642 23.9425 28.546 23.9596C28.5277 23.9767 28.5038 23.9855 28.4795 23.9839H28.4703Z" fill="#D1D3D4"/>
<path d="M3.12213 11.3636L7.33509 20.9458C7.68397 21.7393 8.57471 22.0833 9.3246 21.7141L23.2204 14.873C23.9703 14.5038 24.2954 13.5613 23.9465 12.7678L19.7336 3.18559C19.3847 2.39207 18.4939 2.04808 17.7441 2.41726L3.84822 9.25836C3.09833 9.62754 2.77324 10.5701 3.12213 11.3636Z" fill="#FCFCFC"/>
<path d="M8.69822 21.9701C8.39534 21.9705 8.09864 21.8794 7.84308 21.7073C7.58752 21.5353 7.38373 21.2896 7.25572 20.9991L3.03466 11.4172C2.85715 11.0129 2.83863 10.5505 2.98317 10.1317C3.1277 9.7129 3.42347 9.37199 3.80546 9.18388L17.7019 2.34216C18.084 2.15432 18.521 2.13472 18.9168 2.28767C19.3125 2.44061 19.6347 2.75359 19.8125 3.1578L24.0243 12.7397C24.1125 12.9398 24.1626 13.1562 24.1717 13.3768C24.1808 13.5973 24.1487 13.8176 24.0773 14.025C24.0059 14.2324 23.8965 14.4229 23.7555 14.5856C23.6145 14.7482 23.4445 14.8799 23.2554 14.973L9.35891 21.8147C9.15189 21.9165 8.92648 21.9695 8.69822 21.9701ZM18.3773 2.3674C18.1732 2.36755 17.9716 2.41459 17.7864 2.50529L3.88988 9.34701C3.55227 9.51358 3.29093 9.81513 3.16326 10.1854C3.0356 10.5558 3.05205 10.9645 3.20901 11.322L7.43007 20.9059C7.58785 21.2633 7.87317 21.5399 8.22342 21.6749C8.57367 21.81 8.96025 21.7925 9.29835 21.6264L23.1875 14.7846C23.5251 14.6181 23.7864 14.3165 23.9141 13.9462C24.0418 13.5759 24.0253 13.1671 23.8684 12.8096L19.6473 3.22577C19.5342 2.97005 19.3548 2.75358 19.13 2.60161C18.9051 2.44964 18.6441 2.36841 18.3773 2.3674Z" fill="#272727"/>
<path d="M15.2772 7.00416L16.3401 9.42171C16.5924 9.99546 17.2364 10.2442 17.7786 9.97725L19.396 9.18099C19.9382 8.91406 20.1733 8.23255 19.921 7.6588L18.8581 5.24125C18.6058 4.66751 17.9618 4.41878 17.4196 4.68572L15.8022 5.48198C15.26 5.74891 15.0249 6.43042 15.2772 7.00416Z" fill="#188B30"/>
<path d="M5.32324 10.6407C4.98964 10.805 4.84503 11.2243 5.00023 11.5773C5.15543 11.9303 5.55168 12.0833 5.88527 11.9191L8.99856 10.3863C9.33215 10.2221 9.47676 9.80282 9.32156 9.44982C9.16636 9.09682 8.77011 8.94379 8.43652 9.10803L5.32324 10.6407Z" fill="#D1D3D4"/>
<path d="M18.7654 13.205L19.0634 13.8829C19.1416 14.0608 19.3414 14.138 19.5096 14.0552L21.8525 12.9017C22.0206 12.8189 22.0935 12.6076 22.0153 12.4296L21.7172 11.7517C21.639 11.5738 21.4392 11.4966 21.2711 11.5794L18.9282 12.7328C18.76 12.8156 18.6871 13.027 18.7654 13.205Z" fill="#D1D3D4"/>
<path d="M15.1892 14.9674L15.4872 15.6453C15.5655 15.8233 15.7652 15.9004 15.9334 15.8176L18.2763 14.6642C18.4445 14.5814 18.5174 14.37 18.4391 14.1921L18.1411 13.5142C18.0628 13.3362 17.8631 13.259 17.6949 13.3418L15.352 14.4953C15.1838 14.5781 15.1109 14.7894 15.1892 14.9674Z" fill="#D1D3D4"/>
<path d="M11.6111 16.7268L11.9091 17.4047C11.9874 17.5827 12.1871 17.6598 12.3553 17.577L14.6982 16.4236C14.8663 16.3408 14.9392 16.1294 14.861 15.9515L14.5629 15.2736C14.4847 15.0956 14.2849 15.0185 14.1168 15.1012L11.7739 16.2547C11.6057 16.3375 11.5328 16.5488 11.6111 16.7268Z" fill="#D1D3D4"/>
<path d="M8.03489 18.4873L8.33294 19.1652C8.41118 19.3432 8.61094 19.4203 8.77912 19.3375L11.122 18.1841C11.2902 18.1013 11.3631 17.8899 11.2848 17.712L10.9868 17.0341C10.9085 16.8561 10.7088 16.7789 10.5406 16.8617L8.19773 18.0152C8.02955 18.098 7.95665 18.3093 8.03489 18.4873Z" fill="#D1D3D4"/>
<path d="M34.1283 9.7354C34.1129 9.73555 34.0978 9.73153 34.0843 9.72371C34.0708 9.71589 34.0594 9.70453 34.0512 9.69073L31.5902 5.6125C31.5785 5.5909 31.5752 5.5654 31.5808 5.54125C31.5864 5.51711 31.6005 5.49615 31.6203 5.48271C31.64 5.46926 31.6639 5.46435 31.687 5.46899C31.7101 5.47363 31.7306 5.48746 31.7443 5.50763L34.2054 9.58586C34.2185 9.60751 34.223 9.63376 34.2178 9.65888C34.2127 9.684 34.1983 9.70593 34.1779 9.71986C34.1634 9.73052 34.146 9.73596 34.1283 9.7354Z" fill="#FCFCFC"/>
<path d="M26.6864 8.55072C26.6695 8.55072 26.6528 8.54585 26.6383 8.53661C26.6237 8.52737 26.6118 8.51413 26.6039 8.49829L25.3467 5.929C25.341 5.91782 25.3375 5.90554 25.3363 5.89289C25.3352 5.88023 25.3365 5.86747 25.3401 5.85534C25.3436 5.84321 25.3495 5.83197 25.3573 5.82227C25.365 5.81258 25.3746 5.80463 25.3853 5.79889C25.396 5.79281 25.4077 5.78904 25.4198 5.7878C25.4319 5.78657 25.4441 5.78788 25.4557 5.79168C25.4673 5.79547 25.4781 5.80167 25.4874 5.80991C25.4968 5.81814 25.5045 5.82826 25.5101 5.83967L26.7672 8.40896C26.7783 8.43194 26.7805 8.45861 26.7733 8.48327C26.7661 8.50794 26.7501 8.52866 26.7287 8.54101C26.7152 8.54682 26.7009 8.55011 26.6864 8.55072Z" fill="#FCFCFC"/>
<path d="M6.18558 23.6071L5.41662 24.5412C4.92661 25.1898 3.36848 24.7354 1.94067 23.5217C0.512847 22.3079 -0.250614 20.8048 0.244902 20.1542L1.0157 19.2201L6.18558 23.6071Z" fill="#FCFCFC"/>
<path d="M4.69069 24.9356C3.95659 24.9356 2.89765 24.4559 1.88277 23.5976C1.23863 23.0717 0.697544 22.418 0.289775 21.673C-0.0497447 20.9992 -0.0919546 20.4399 0.16865 20.0942L0.941287 19.1562C0.95689 19.1373 0.978785 19.1256 1.00239 19.1234C1.02599 19.1212 1.04947 19.1288 1.06792 19.1445L6.2433 23.5238C6.25324 23.5315 6.26149 23.5414 6.2675 23.5528C6.27352 23.5642 6.27716 23.5768 6.27817 23.5898C6.28018 23.6165 6.27228 23.643 6.25615 23.6636L5.48535 24.5977C5.38613 24.7146 5.2629 24.8058 5.12513 24.8644C4.98737 24.923 4.83874 24.9473 4.69069 24.9356ZM1.0202 19.3543L0.309963 20.2224C0.102581 20.4962 0.153968 20.9992 0.451277 21.5818C0.847095 22.3046 1.37266 22.9386 1.99839 23.448C3.36197 24.6132 4.8944 25.0774 5.34587 24.4831L6.05427 23.6209L1.0202 19.3543Z" fill="#272727"/>
<path d="M6.18603 23.6056C6.67643 22.9577 5.91507 21.4503 4.48549 20.2388C3.0559 19.0272 1.49945 18.5704 1.00904 19.2184C0.518642 19.8663 1.28 21.3737 2.70959 22.5852C4.13917 23.7967 5.69563 24.2536 6.18603 23.6056Z" fill="#FCFCFC"/>
<path d="M5.45989 23.9995C4.72579 23.9995 3.66502 23.5198 2.6538 22.6634C2.00865 22.1381 1.46686 21.4843 1.05897 20.7388C0.719452 20.0649 0.677241 19.5056 0.939681 19.16C1.20029 18.8143 1.727 18.7347 2.42072 18.9386C3.19727 19.1966 3.91861 19.6129 4.5441 20.164C6.03616 21.4282 6.78861 22.9663 6.25822 23.6596C6.15853 23.777 6.03474 23.8687 5.89635 23.9276C5.75796 23.9865 5.60865 24.0111 5.45989 23.9995ZM1.73618 19.024C1.61607 19.012 1.49494 19.0288 1.38182 19.0732C1.2687 19.1176 1.1665 19.1884 1.08283 19.2804C0.871776 19.5581 0.923164 20.0572 1.22231 20.6398C1.61759 21.3625 2.14252 21.9964 2.76758 22.5061C4.13117 23.6713 5.66544 24.1354 6.11507 23.5411C6.56471 22.9469 5.7939 21.4651 4.42848 20.3096C3.82282 19.7748 3.12384 19.371 2.37117 19.1211C2.16468 19.0583 1.95103 19.0256 1.73618 19.024Z" fill="#272727"/>
<path d="M12.1529 33.4609L12.6025 34.6048C12.9329 35.3583 11.8556 36.6303 10.1965 37.4498C8.53745 38.2694 6.92244 38.3199 6.59026 37.5683L6.14062 36.4225L12.1529 33.4609Z" fill="#FCFCFC"/>
<path d="M7.79375 38.1996C7.15325 38.1996 6.67976 38.0054 6.50908 37.617L6.05761 36.4693C6.04871 36.446 6.0485 36.42 6.05702 36.3966C6.06554 36.3731 6.08215 36.354 6.10349 36.343L12.1157 33.3814C12.127 33.3761 12.1392 33.3734 12.1515 33.3734C12.1639 33.3734 12.1761 33.3761 12.1873 33.3814C12.1989 33.3864 12.2094 33.3938 12.2182 33.4031C12.227 33.4125 12.234 33.4236 12.2387 33.4358L12.6883 34.5797C13.0444 35.3895 11.9689 36.6945 10.2365 37.549C9.47405 37.9439 8.64197 38.1655 7.79375 38.1996ZM6.25949 36.4712L6.67425 37.5296C6.97707 38.2171 8.57189 38.1413 10.1612 37.3606C11.7505 36.58 12.826 35.3371 12.5213 34.6418L12.1084 33.5873L6.25949 36.4712Z" fill="#272727"/>
<path d="M9.74466 36.3056C11.405 35.4875 12.4825 34.2142 12.1513 33.4616C11.8202 32.709 10.2057 32.7622 8.54537 33.5804C6.88503 34.3985 5.80753 35.6718 6.13871 36.4244C6.46988 37.1769 8.08432 37.1238 9.74466 36.3056Z" fill="#FCFCFC"/>
<path d="M7.33841 37.0517C6.67773 37.0517 6.22442 36.8458 6.05374 36.4691C5.68669 35.6573 6.77132 34.3504 8.50379 33.4978C10.2363 32.6453 11.8733 32.6123 12.2312 33.426C12.589 34.2397 11.5136 35.5447 9.78112 36.3992C9.04946 36.7767 8.25529 36.9996 7.44302 37.0556L7.33841 37.0517ZM10.9593 33.0395C10.1346 33.0754 9.32587 33.2923 8.58454 33.6765C7.00073 34.4533 5.91977 35.7001 6.22258 36.3953C6.36573 36.7177 6.81353 36.8886 7.44119 36.8692C8.2289 36.815 8.99893 36.5979 9.70771 36.2302C11.2915 35.4534 12.3725 34.2066 12.0678 33.5114C11.9284 33.1851 11.5173 33.0395 10.9593 33.0395Z" fill="#272727"/>
<path d="M7.75757 26.3143C7.10422 27.4659 7.83648 30.0178 7.83648 30.0178L8.80365 30.7635C9.14842 30.9829 9.53065 31.1284 9.92853 31.1915C10.3264 31.2547 10.7321 31.2343 11.1226 31.1315C11.513 31.0287 11.8805 30.8455 12.204 30.5924C12.5275 30.3394 12.8008 30.0214 13.0082 29.6565C13.2156 29.2917 13.353 28.8872 13.4127 28.4662C13.4724 28.0452 13.4531 27.6158 13.3559 27.2027C13.2588 26.7896 13.0857 26.4007 12.8466 26.0584C12.6074 25.716 12.3069 25.4268 11.9621 25.2074L10.8903 24.65C10.8903 24.65 8.41091 25.1647 7.75757 26.3143Z" fill="#FCFCFC"/>
<path d="M10.3769 31.3247C9.80641 31.3236 9.24691 31.1585 8.75823 30.8469L7.78188 30.0973C7.76609 30.0846 7.75453 30.0669 7.74885 30.0468C7.71765 29.94 7.01475 27.4387 7.67911 26.2638C8.34714 25.0986 10.766 24.5761 10.8688 24.5548C10.8874 24.5491 10.9071 24.5491 10.9257 24.5548L12.0011 25.1121C12.5932 25.4879 13.0525 26.0588 13.3087 26.7372C13.5648 27.4156 13.6038 28.1642 13.4195 28.8683C13.2352 29.5724 12.8378 30.1931 12.2883 30.6353C11.7387 31.0776 11.0673 31.317 10.3769 31.3169V31.3247ZM7.91586 29.9652L8.85917 30.6896C9.53453 31.1165 10.3423 31.2426 11.1054 31.0402C11.8685 30.8378 12.5245 30.3234 12.9297 29.6099C13.3349 28.8953 13.4556 28.0398 13.2653 27.2311C13.0751 26.4225 12.5894 25.7268 11.9149 25.2966L10.8743 24.7587C10.5935 24.8208 8.42422 25.3413 7.83694 26.3706C7.24966 27.4076 7.83694 29.6681 7.91586 29.9594V29.9652Z" fill="#272727"/>
<path d="M9.71536 30.8024C11.407 30.8024 12.7784 29.3512 12.7784 27.5612C12.7784 25.7711 11.407 24.3199 9.71536 24.3199C8.0237 24.3199 6.65234 25.7711 6.65234 27.5612C6.65234 29.3512 8.0237 30.8024 9.71536 30.8024Z" fill="#FCFCFC"/>
<path d="M9.70895 30.9033C9.22316 30.902 8.74422 30.7819 8.30947 30.5525C7.87473 30.3231 7.49592 29.9906 7.20258 29.5808C6.90924 29.171 6.70929 28.6951 6.61831 28.1902C6.52734 27.6852 6.5478 27.1648 6.6781 26.6696C6.8084 26.1744 7.04502 25.7177 7.36951 25.3351C7.69401 24.9526 8.09761 24.6545 8.54886 24.4641C9.00011 24.2737 9.48682 24.1962 9.97104 24.2375C10.4553 24.2789 10.9239 24.438 11.3405 24.7025C11.9327 25.0785 12.3919 25.6498 12.6477 26.3286C12.9035 27.0075 12.9417 27.7564 12.7565 28.4604C12.5712 29.1645 12.1728 29.7847 11.6223 30.226C11.0717 30.6673 10.3996 30.9053 9.70895 30.9033ZM9.71996 24.4209C9.00111 24.4197 8.30624 24.6944 7.76415 25.194C7.22205 25.6935 6.86948 26.3841 6.77179 27.1377C6.6741 27.8913 6.83791 28.6569 7.23286 29.2924C7.62781 29.928 8.22712 30.3905 8.91971 30.5943C9.6123 30.798 10.3512 30.7291 10.9995 30.4004C11.6477 30.0717 12.1614 29.5054 12.4453 28.8066C12.7291 28.1077 12.7639 27.3237 12.5433 26.5997C12.3226 25.8758 11.8613 25.2611 11.2451 24.8695C10.7847 24.5754 10.2577 24.419 9.71996 24.417V24.4209Z" fill="#272727"/>
</svg>
