<svg width="46" height="42" viewBox="0 0 46 42" fill="none" xmlns="http://www.w3.org/2000/svg">
<path d="M0.21875 10.076H45.7831V41.7611H8.15917C6.05324 41.7611 4.03357 40.844 2.54445 39.2114C1.05533 37.5789 0.21875 35.3647 0.21875 33.0559V10.076Z" fill="#FCFCFC"/>
<path d="M45.7822 42H8.15827C5.99527 41.9975 3.92152 41.0544 2.39205 39.3776C0.862577 37.7008 0.00230659 35.4273 0 33.056V10.0761C0 10.0128 0.0229512 9.95202 0.063805 9.90723C0.104659 9.86244 0.160068 9.83728 0.217844 9.83728H45.7822C45.8399 9.83728 45.8953 9.86244 45.9362 9.90723C45.9771 9.95202 46 10.0128 46 10.0761V41.7612C46 41.8245 45.9771 41.8853 45.9362 41.9301C45.8953 41.9749 45.8399 42 45.7822 42ZM0.435689 10.3149V33.056C0.437995 35.3006 1.25236 37.4526 2.70013 39.0398C4.14789 40.627 6.11082 41.5198 8.15827 41.5224H45.5643V10.3149H0.435689Z" fill="#093F68"/>
<path d="M7.7932 0.238831V23.6964C5.84659 23.7945 4.00085 24.6739 2.60735 26.1673C1.21386 27.6606 0.369914 29.6636 0.236178 31.795H0.21875V6.2883C0.21875 4.68388 0.800108 3.14518 1.83493 2.01068C2.86976 0.876183 4.27328 0.238831 5.73675 0.238831H7.7932Z" fill="#188B30"/>
<path d="M0.235272 32.0338C0.175631 32.0345 0.117995 32.0102 0.0742291 31.9658C0.0304635 31.9213 0.00389811 31.8602 0 31.795V6.2883C0.00172972 4.62112 0.606595 3.02277 1.6819 1.84389C2.7572 0.665021 4.21513 0.00189632 5.73584 0H7.79229C7.85006 0 7.90547 0.0251618 7.94633 0.0699504C7.98718 0.114739 8.01013 0.175486 8.01013 0.238826V23.6963C8.01013 23.7597 7.98718 23.8204 7.94633 23.8652C7.90547 23.91 7.85006 23.9352 7.79229 23.9352C5.89759 24.0276 4.10049 24.8826 2.74482 26.3367C1.38915 27.7908 0.570111 29.7418 0.444402 31.8164C0.439662 31.8744 0.415801 31.9284 0.377297 31.9684C0.338792 32.0085 0.288292 32.0317 0.235272 32.0338ZM5.73584 0.477653C4.33051 0.478918 2.98306 1.09152 1.98934 2.18095C0.99562 3.27038 0.436842 4.74761 0.435688 6.2883V29.4951C0.952943 27.8322 1.90615 26.3735 3.17597 25.3017C4.4458 24.2299 5.9758 23.5925 7.57444 23.4695V0.477653H5.73584Z" fill="#093F68"/>
<path d="M33.1445 39.2846H21.6358C21.578 39.2846 21.5226 39.2594 21.4818 39.2146C21.4409 39.1698 21.418 39.1091 21.418 39.0457V29.1989C21.418 29.1356 21.4409 29.0748 21.4818 29.03C21.5226 28.9852 21.578 28.9601 21.6358 28.9601H33.1445C33.2023 28.9601 33.2577 28.9852 33.2986 29.03C33.3394 29.0748 33.3624 29.1356 33.3624 29.1989V39.0457C33.3624 39.1091 33.3394 39.1698 33.2986 39.2146C33.2577 39.2594 33.2023 39.2846 33.1445 39.2846ZM21.8537 38.8069H32.9267V29.4377H21.8537V38.8069Z" fill="#DFEAEF"/>
<path d="M18.7691 16.8993C18.7656 16.7765 18.7249 16.6585 18.6536 16.5639C18.5822 16.4692 18.4841 16.4032 18.3748 16.3763C18.1853 16.3309 17.9936 16.2975 17.7997 16.2664C17.7734 16.2635 17.7484 16.252 17.7282 16.2332C17.7079 16.2144 17.6934 16.1894 17.6865 16.1613C17.6298 15.9941 17.5645 15.827 17.4991 15.6646C17.4875 15.6459 17.4813 15.6239 17.4813 15.6013C17.4813 15.5787 17.4875 15.5566 17.4991 15.538C17.6167 15.3636 17.7344 15.1893 17.8411 15.0078C17.9035 14.9058 17.933 14.7837 17.9247 14.6612C17.9164 14.5387 17.8708 14.4227 17.7954 14.3319C17.6211 14.1194 17.4316 13.9211 17.2464 13.7181C17.1555 13.605 17.0286 13.5343 16.8917 13.5205C16.7548 13.5067 16.6182 13.551 16.5101 13.6441L16.0744 13.9785C16.0591 13.994 16.0396 14.0038 16.0188 14.0064C15.998 14.009 15.9771 14.0042 15.9589 13.9928C15.7977 13.914 15.6322 13.8399 15.4666 13.7707C15.4465 13.7648 15.4286 13.7522 15.4153 13.7347C15.4021 13.7171 15.3941 13.6955 15.3926 13.6728C15.3642 13.4793 15.3359 13.2859 15.3032 13.0924C15.2858 12.957 15.2254 12.8326 15.1325 12.7413C15.0396 12.65 14.9203 12.5976 14.7957 12.5933C14.5234 12.5933 14.2532 12.5933 13.9809 12.5933C13.8656 12.5961 13.7545 12.6411 13.6653 12.7212C13.5761 12.8012 13.5139 12.9117 13.4886 13.0351C13.445 13.25 13.4145 13.4698 13.3818 13.6895C13.3797 13.712 13.3715 13.7333 13.3583 13.7507C13.3452 13.7682 13.3276 13.7809 13.3078 13.7874C13.1488 13.8543 12.9919 13.9283 12.8372 14.0047C12.8215 14.0175 12.8024 14.0244 12.7828 14.0244C12.7632 14.0244 12.7441 14.0175 12.7283 14.0047C12.5715 13.8781 12.4146 13.7516 12.2512 13.6322C12.1576 13.5625 12.0455 13.5292 11.9326 13.5374C11.8197 13.5456 11.7126 13.5949 11.6282 13.6775C11.4104 13.8853 11.2208 14.1003 11.0313 14.3248C10.9414 14.4245 10.8882 14.5571 10.8817 14.6972C10.8753 14.8373 10.9161 14.975 10.9964 15.0842C11.101 15.2514 11.2143 15.4162 11.3167 15.5834C11.322 15.5974 11.3248 15.6124 11.3248 15.6275C11.3248 15.6427 11.322 15.6577 11.3167 15.6717C11.2513 15.8604 11.1838 16.0443 11.1119 16.2306C11.0978 16.2583 11.0743 16.2789 11.0466 16.2879C10.8723 16.3237 10.6958 16.3548 10.5194 16.3858C10.395 16.4003 10.2795 16.4628 10.1933 16.5621C10.1071 16.6614 10.0559 16.7911 10.0488 16.928C10.0488 17.2384 10.0488 17.5489 10.0488 17.8594C10.0535 17.9802 10.0942 18.0961 10.1646 18.1892C10.235 18.2824 10.3313 18.3477 10.4388 18.3752C10.6392 18.4254 10.844 18.4588 11.0487 18.497C11.0681 18.4993 11.0865 18.5078 11.1016 18.5214C11.1167 18.5349 11.1279 18.553 11.1337 18.5735C11.1969 18.7502 11.2644 18.9245 11.3363 19.0989C11.3468 19.1153 11.3524 19.1349 11.3524 19.155C11.3524 19.1751 11.3468 19.1947 11.3363 19.2111C11.2274 19.3712 11.1184 19.5312 11.0204 19.6888C10.94 19.8044 10.9018 19.9486 10.913 20.0934C10.9243 20.2382 10.9843 20.3732 11.0814 20.4721C11.2513 20.6608 11.4212 20.8495 11.5955 21.0358C11.6874 21.1463 11.8143 21.2143 11.9503 21.2258C12.0863 21.2374 12.2212 21.1916 12.3275 21.0979L12.7632 20.7516C12.7775 20.7405 12.7946 20.7345 12.8122 20.7345C12.8297 20.7345 12.8469 20.7405 12.8612 20.7516C13.0115 20.8208 13.1618 20.8925 13.3143 20.9546C13.3378 20.962 13.3586 20.9772 13.3739 20.9982C13.3891 21.0192 13.398 21.0448 13.3993 21.0716C13.4254 21.2627 13.4537 21.4513 13.4842 21.6424C13.5001 21.7743 13.5572 21.8962 13.6457 21.9872C13.7343 22.0782 13.8489 22.1327 13.97 22.1415C14.2554 22.1535 14.5408 22.1415 14.8262 22.1415C14.9381 22.1361 15.0453 22.0903 15.1312 22.0113C15.217 21.9323 15.2767 21.8244 15.3011 21.7045C15.3424 21.4943 15.3708 21.2794 15.4034 21.0668C15.4048 21.0416 15.4133 21.0175 15.4278 20.9978C15.4422 20.9781 15.4619 20.9638 15.484 20.957C15.6431 20.8901 15.8021 20.8161 15.9589 20.742C15.974 20.7305 15.9918 20.7243 16.0101 20.7243C16.0285 20.7243 16.0463 20.7305 16.0613 20.742C16.2073 20.859 16.3554 20.9808 16.497 21.0859C16.5991 21.1698 16.7247 21.212 16.8521 21.2053C16.9699 21.2043 17.0829 21.1539 17.168 21.0644C17.3553 20.871 17.5361 20.6704 17.717 20.4721C17.8225 20.371 17.8884 20.2292 17.9009 20.0762C17.9135 19.9232 17.8718 19.7707 17.7845 19.6506C17.6821 19.493 17.5819 19.3353 17.4773 19.1729C17.4668 19.1565 17.4612 19.1369 17.4612 19.1168C17.4612 19.0967 17.4668 19.0771 17.4773 19.0607C17.547 18.8863 17.6146 18.712 17.6777 18.5353C17.6832 18.5129 17.695 18.493 17.7115 18.4784C17.7279 18.4638 17.7481 18.4553 17.7692 18.4541L18.2964 18.3609C18.4206 18.343 18.535 18.2776 18.6195 18.1762C18.704 18.0749 18.7532 17.944 18.7582 17.8068C18.7779 17.5083 18.7779 17.2026 18.7691 16.8993ZM14.4123 19.4189C14.0409 19.418 13.6781 19.2963 13.3697 19.0693C13.0614 18.8423 12.8214 18.5202 12.6801 18.1436C12.5387 17.7671 12.5024 17.3531 12.5757 16.9539C12.649 16.5548 12.8287 16.1884 13.0919 15.9012C13.3551 15.6139 13.6901 15.4187 14.0545 15.3402C14.419 15.2617 14.7964 15.3034 15.1392 15.4601C15.482 15.6168 15.7748 15.8814 15.9804 16.2205C16.186 16.5595 16.2953 16.9578 16.2944 17.365C16.2941 17.635 16.2453 17.9024 16.1508 18.1517C16.0563 18.4011 15.9179 18.6276 15.7435 18.8183C15.5692 19.0091 15.3622 19.1603 15.1345 19.2633C14.9069 19.3664 14.6629 19.4192 14.4166 19.4189H14.4123Z" stroke="#DFEAEF" stroke-width="2.03" stroke-linecap="round" stroke-linejoin="round"/>
<path d="M37.1319 35.2197H26.9913C26.9335 35.2197 26.8781 35.1946 26.8372 35.1498C26.7964 35.105 26.7734 35.0442 26.7734 34.9809V26.8727C26.7734 26.8094 26.7964 26.7487 26.8372 26.7039C26.8781 26.6591 26.9335 26.6339 26.9913 26.6339H37.1319C37.1897 26.6339 37.2451 26.6591 37.286 26.7039C37.3268 26.7487 37.3498 26.8094 37.3498 26.8727V34.9809C37.3498 35.0442 37.3268 35.105 37.286 35.1498C37.2451 35.1946 37.1897 35.2197 37.1319 35.2197ZM27.2091 34.7421H36.9141V27.1116H27.2091V34.7421Z" fill="#DFEAEF"/>
<path d="M42.3252 14.5731H21.2706C21.2128 14.5731 21.1574 14.548 21.1165 14.5032C21.0757 14.4584 21.0527 14.3976 21.0527 14.3343C21.0527 14.2709 21.0757 14.2102 21.1165 14.1654C21.1574 14.1206 21.2128 14.0955 21.2706 14.0955H42.3252C42.383 14.0955 42.4384 14.1206 42.4793 14.1654C42.5201 14.2102 42.5431 14.2709 42.5431 14.3343C42.5431 14.3976 42.5201 14.4584 42.4793 14.5032C42.4384 14.548 42.383 14.5731 42.3252 14.5731Z" fill="#DFEAEF"/>
<path d="M42.3252 18.3227H21.2706C21.2128 18.3227 21.1574 18.2976 21.1165 18.2528C21.0757 18.208 21.0527 18.1473 21.0527 18.0839C21.0527 18.0206 21.0757 17.9598 21.1165 17.915C21.1574 17.8703 21.2128 17.8451 21.2706 17.8451H42.3252C42.383 17.8451 42.4384 17.8703 42.4793 17.915C42.5201 17.9598 42.5431 18.0206 42.5431 18.0839C42.5431 18.1473 42.5201 18.208 42.4793 18.2528C42.4384 18.2976 42.383 18.3227 42.3252 18.3227Z" fill="#DFEAEF"/>
<path d="M25.6689 22.0699H21.2706C21.2128 22.0699 21.1574 22.0448 21.1165 22C21.0757 21.9552 21.0527 21.8944 21.0527 21.8311C21.0527 21.7678 21.0757 21.707 21.1165 21.6622C21.1574 21.6174 21.2128 21.5923 21.2706 21.5923H25.6689C25.7266 21.5923 25.782 21.6174 25.8229 21.6622C25.8637 21.707 25.8867 21.7678 25.8867 21.8311C25.8867 21.8944 25.8637 21.9552 25.8229 22C25.782 22.0448 25.7266 22.0699 25.6689 22.0699Z" fill="#DFEAEF"/>
<path d="M43.1029 29.9058H40.3057C40.248 29.9058 40.1925 29.8807 40.1517 29.8359C40.1108 29.7911 40.0879 29.7303 40.0879 29.667V26.8727C40.0879 26.8094 40.1108 26.7487 40.1517 26.7039C40.1925 26.6591 40.248 26.6339 40.3057 26.6339H43.1029C43.1606 26.6339 43.2161 26.6591 43.2569 26.7039C43.2978 26.7487 43.3207 26.8094 43.3207 26.8727V29.667C43.3207 29.7303 43.2978 29.7911 43.2569 29.8359C43.2161 29.8807 43.1606 29.9058 43.1029 29.9058ZM40.5236 29.4282H42.885V27.1116H40.5236V29.4282Z" fill="#DFEAEF"/>
<path d="M43.1029 34.8519H40.3057C40.248 34.8519 40.1925 34.8267 40.1517 34.7819C40.1108 34.7371 40.0879 34.6764 40.0879 34.613V31.8188C40.0879 31.7554 40.1108 31.6947 40.1517 31.6499C40.1925 31.6051 40.248 31.58 40.3057 31.58H43.1029C43.1606 31.58 43.2161 31.6051 43.2569 31.6499C43.2978 31.6947 43.3207 31.7554 43.3207 31.8188V34.613C43.3207 34.6764 43.2978 34.7371 43.2569 34.7819C43.2161 34.8267 43.1606 34.8519 43.1029 34.8519ZM40.5236 34.3742H42.885V32.0576H40.5236V34.3742Z" fill="#DFEAEF"/>
<path d="M43.1029 39.7837H40.3057C40.248 39.7837 40.1925 39.7585 40.1517 39.7138C40.1108 39.669 40.0879 39.6082 40.0879 39.5449V36.7482C40.0879 36.6849 40.1108 36.6241 40.1517 36.5793C40.1925 36.5346 40.248 36.5094 40.3057 36.5094H43.1029C43.1606 36.5094 43.2161 36.5346 43.2569 36.5793C43.2978 36.6241 43.3207 36.6849 43.3207 36.7482V39.5449C43.3207 39.6082 43.2978 39.669 43.2569 39.7138C43.2161 39.7585 43.1606 39.7837 43.1029 39.7837ZM40.5236 39.3061H42.885V36.9871H40.5236V39.3061Z" fill="#DFEAEF"/>
<path d="M42.1636 1.58124L42.8971 2.32964C43.1268 2.56394 43.2622 2.88867 43.2734 3.23239C43.2847 3.5761 43.171 3.91066 42.9573 4.16244L30.533 18.7998L28.0707 16.2878L40.495 1.65041C40.7082 1.39923 41.0035 1.25092 41.3162 1.23795C41.629 1.22498 41.9337 1.34842 42.1636 1.58124Z" fill="#188B30"/>
<path d="M30.5414 19.0393C30.4864 19.039 30.4334 19.016 30.3933 18.9748L27.9273 16.4623C27.8851 16.4196 27.8601 16.3604 27.8576 16.2975C27.8565 16.266 27.8612 16.2346 27.8713 16.2051C27.8814 16.1756 27.8967 16.1486 27.9164 16.1256L40.3335 1.48791C40.5872 1.18989 40.9383 1.01426 41.3098 0.999487C41.6814 0.984715 42.0432 1.13201 42.3159 1.4091L43.0478 2.15662C43.3202 2.43441 43.4808 2.81941 43.4942 3.22696C43.5077 3.63452 43.373 4.03126 43.1197 4.32994L30.7026 18.9652C30.6819 18.9891 30.6568 19.008 30.6291 19.0207C30.6013 19.0335 30.5715 19.0398 30.5414 19.0393ZM28.3826 16.2736L30.5305 18.4637L42.8038 4.00036C42.8905 3.89888 42.958 3.77965 43.0025 3.64949C43.047 3.51934 43.0676 3.38083 43.0631 3.24192C43.0587 3.10301 43.0293 2.96643 42.9765 2.84003C42.9238 2.71362 42.8488 2.59987 42.7559 2.50531L42.0218 1.75778C41.8346 1.56654 41.5857 1.46464 41.33 1.4745C41.0743 1.48435 40.8326 1.60515 40.6581 1.81033L28.3826 16.2736Z" fill="#093F68"/>
<path d="M30.5411 18.8004L27.548 20.6608L25.668 21.8311L26.5982 19.6912L28.0752 16.2855L30.5411 18.8004Z" fill="#FFBC0E"/>
<path d="M25.6684 22.0699C25.6317 22.0698 25.5956 22.0595 25.5634 22.04C25.5313 22.0205 25.5042 21.9924 25.4846 21.9583C25.4651 21.9242 25.4537 21.8853 25.4515 21.8451C25.4494 21.8049 25.4565 21.7648 25.4723 21.7284L27.8686 16.1829C27.8833 16.1488 27.9052 16.119 27.9324 16.096C27.9596 16.0729 27.9914 16.0573 28.0252 16.0503C28.0589 16.0433 28.0938 16.0452 28.1267 16.0558C28.1597 16.0663 28.19 16.0853 28.215 16.1112L30.681 18.626C30.706 18.6517 30.7252 18.6834 30.7369 18.7187C30.7486 18.754 30.7526 18.7918 30.7485 18.829C30.7444 18.8662 30.7324 18.9017 30.7135 18.9328C30.6946 18.9639 30.6693 18.9897 30.6396 19.0082L25.7664 22.0389C25.7365 22.0576 25.7029 22.0682 25.6684 22.0699ZM28.1431 16.682L26.1629 21.2507L30.1756 18.755L28.1431 16.682Z" fill="#093F68"/>
<path d="M27.548 20.6609L25.668 21.8312L26.5982 19.6913L27.548 20.6609Z" fill="#FCFCFC"/>
<path d="M25.6684 22.07C25.6317 22.0698 25.5956 22.0596 25.5634 22.04C25.5313 22.0205 25.5042 21.9924 25.4846 21.9584C25.4651 21.9243 25.4537 21.8853 25.4515 21.8451C25.4494 21.8049 25.4565 21.7648 25.4723 21.7284L26.4004 19.579C26.4152 19.5451 26.4372 19.5156 26.4644 19.4927C26.4917 19.4699 26.5235 19.4545 26.5572 19.4477C26.5908 19.4406 26.6255 19.4423 26.6585 19.4526C26.6914 19.463 26.7216 19.4818 26.7467 19.5074L27.6987 20.477C27.7237 20.5026 27.7428 20.5343 27.7545 20.5694C27.7662 20.6046 27.7702 20.6423 27.7662 20.6795C27.7621 20.7167 27.7502 20.7524 27.7313 20.7836C27.7124 20.8148 27.687 20.8406 27.6573 20.8591L25.7751 22.0294C25.7434 22.053 25.7066 22.067 25.6684 22.07ZM26.6661 20.0877L26.1629 21.2508L27.1846 20.6155L26.6661 20.0877Z" fill="#093F68"/>
<path d="M14.0662 39.0457C14.8783 39.0457 15.5366 38.4951 15.5366 37.8158C15.5366 37.1365 14.8783 36.5858 14.0662 36.5858C13.254 36.5858 12.5957 37.1365 12.5957 37.8158C12.5957 38.4951 13.254 39.0457 14.0662 39.0457Z" fill="#FCFCFC"/>
<path d="M14.0672 39.2846C13.1348 39.2846 12.3789 38.6255 12.3789 37.8158C12.3789 37.0062 13.1348 36.347 14.0672 36.347C14.9996 36.347 15.7533 37.0062 15.7533 37.8158C15.7533 38.6255 14.9952 39.2846 14.0672 39.2846ZM14.0672 36.8247C13.3766 36.8247 12.8146 37.2689 12.8146 37.8158C12.8146 38.3627 13.3766 38.807 14.0672 38.807C14.7578 38.807 15.3176 38.3627 15.3176 37.8158C15.3176 37.2689 14.7556 36.8247 14.0672 36.8247Z" fill="#DFEAEF"/>
<path d="M18.4247 29.3184C18.4227 28.5338 18.2445 27.7619 17.9057 27.0708C17.567 26.3797 17.0782 25.7907 16.4826 25.3559C15.8869 24.9211 15.2028 24.6538 14.4905 24.5777C13.7783 24.5016 13.0599 24.619 12.3989 24.9195C11.7378 25.22 11.1545 25.6944 10.7004 26.3008C10.2463 26.9072 9.93548 27.6268 9.79532 28.3962C9.65516 29.1655 9.69002 29.9609 9.8968 30.7119C10.1036 31.463 10.4759 32.1467 10.981 32.7025C11.5376 33.3278 11.9239 34.1111 12.0963 34.9642L12.1312 35.1266H15.9979L16.0415 34.9284C16.2355 34.0622 16.6389 33.2694 17.2091 32.6333C17.9916 31.7433 18.4275 30.5544 18.4247 29.3184Z" fill="#FCFCFC"/>
<path d="M15.9994 35.3535H12.1327C12.0826 35.355 12.0336 35.3375 11.994 35.304C11.9543 35.2705 11.9264 35.2231 11.9149 35.1696L11.88 35.0048C11.717 34.1946 11.3511 33.4502 10.8235 32.8554C10.1867 32.1569 9.75213 31.2678 9.57435 30.2997C9.39657 29.3316 9.48347 28.3274 9.82413 27.4132C10.1648 26.499 10.7441 25.7154 11.4893 25.1606C12.2346 24.6059 13.1126 24.3047 14.0134 24.2948C14.9141 24.2849 15.7975 24.5668 16.5527 25.1051C17.3079 25.6434 17.9014 26.4142 18.2586 27.3207C18.6159 28.2273 18.7211 29.2293 18.561 30.2012C18.4009 31.173 17.9827 32.0714 17.3588 32.7837C16.817 33.3912 16.4334 34.1465 16.2478 34.9714L16.2064 35.1696C16.1953 35.2211 16.169 35.267 16.1315 35.3003C16.0941 35.3336 16.0476 35.3523 15.9994 35.3535ZM12.2961 34.8759H15.8186C16.0241 33.9643 16.4509 33.1307 17.0538 32.4637C17.6178 31.8191 17.9957 31.0062 18.1402 30.1271C18.2846 29.248 18.1892 28.3417 17.8658 27.5218C17.5425 26.7019 17.0056 26.0049 16.3225 25.5181C15.6393 25.0312 14.8403 24.7763 14.0256 24.7852C13.2108 24.794 12.4166 25.0664 11.7424 25.568C11.0682 26.0696 10.5441 26.7782 10.2357 27.605C9.92723 28.4318 9.84826 29.34 10.0086 30.2158C10.169 31.0915 10.5616 31.896 11.1372 32.5282C11.7171 33.1772 12.1213 33.9899 12.3048 34.8759H12.2961Z" fill="#DFEAEF"/>
<path d="M15.8771 35.1146H12.2565C12.0339 35.1146 11.8535 35.3124 11.8535 35.5564V35.652C11.8535 35.896 12.0339 36.0938 12.2565 36.0938H15.8771C16.0997 36.0938 16.2801 35.896 16.2801 35.652V35.5564C16.2801 35.3124 16.0997 35.1146 15.8771 35.1146Z" fill="#FCFCFC"/>
<path d="M15.8762 36.335H12.2534C12.0892 36.3344 11.9318 36.2624 11.8158 36.1348C11.6999 36.0072 11.6348 35.8344 11.6348 35.6543V35.5684C11.6348 35.3882 11.6999 35.2155 11.8158 35.0879C11.9318 34.9603 12.0892 34.8883 12.2534 34.8877H15.8762C16.0407 34.8883 16.1983 34.9602 16.3146 35.0878C16.4309 35.2153 16.4965 35.388 16.497 35.5684V35.6663C16.4936 35.8445 16.4268 36.0142 16.3108 36.1392C16.1948 36.2641 16.0388 36.3344 15.8762 36.335ZM12.2534 35.3534C12.2047 35.354 12.1582 35.3757 12.1239 35.4137C12.0897 35.4517 12.0705 35.503 12.0705 35.5564V35.6543C12.0705 35.7078 12.0897 35.759 12.1239 35.797C12.1582 35.835 12.2047 35.8567 12.2534 35.8573H15.8762C15.9253 35.8573 15.9724 35.8359 16.0071 35.7979C16.0419 35.7598 16.0614 35.7082 16.0614 35.6543V35.5684C16.0614 35.5145 16.0419 35.4629 16.0071 35.4248C15.9724 35.3867 15.9253 35.3653 15.8762 35.3653L12.2534 35.3534Z" fill="#DFEAEF"/>
<path d="M15.8771 36.0962H12.2565C12.0339 36.0962 11.8535 36.294 11.8535 36.538V36.6335C11.8535 36.8776 12.0339 37.0754 12.2565 37.0754H15.8771C16.0997 37.0754 16.2801 36.8776 16.2801 36.6335V36.538C16.2801 36.294 16.0997 36.0962 15.8771 36.0962Z" fill="#FCFCFC"/>
<path d="M15.8762 37.3143H12.2534C12.0894 37.3143 11.932 37.2428 11.816 37.1156C11.6999 36.9884 11.6348 36.8159 11.6348 36.636V36.5357C11.6348 36.3558 11.6999 36.1833 11.816 36.0561C11.932 35.9289 12.0894 35.8574 12.2534 35.8574H15.8762C16.0405 35.8574 16.1981 35.9288 16.3144 36.0559C16.4308 36.1831 16.4965 36.3556 16.497 36.5357V36.636C16.4965 36.8161 16.4308 36.9886 16.3144 37.1158C16.1981 37.2429 16.0405 37.3143 15.8762 37.3143ZM12.2534 36.3351C12.2051 36.3357 12.1589 36.357 12.1247 36.3945C12.0905 36.432 12.071 36.4827 12.0705 36.5357V36.636C12.071 36.689 12.0905 36.7397 12.1247 36.7772C12.1589 36.8147 12.2051 36.836 12.2534 36.8366H15.8762C15.9249 36.8366 15.9717 36.8156 16.0064 36.778C16.041 36.7404 16.0608 36.6894 16.0614 36.636V36.5357C16.0608 36.4823 16.041 36.4312 16.0064 36.3937C15.9717 36.3561 15.9249 36.3351 15.8762 36.3351H12.2534Z" fill="#DFEAEF"/>
<path d="M15.8771 37.0754H12.2565C12.0339 37.0754 11.8535 37.2733 11.8535 37.5173V37.6128C11.8535 37.8568 12.0339 38.0546 12.2565 38.0546H15.8771C16.0997 38.0546 16.2801 37.8568 16.2801 37.6128V37.5173C16.2801 37.2733 16.0997 37.0754 15.8771 37.0754Z" fill="#FCFCFC"/>
<path d="M15.8762 38.2958H12.2534C12.0892 38.2951 11.9318 38.2232 11.8158 38.0956C11.6999 37.968 11.6348 37.7952 11.6348 37.6151V37.5172C11.6348 37.3371 11.6999 37.1643 11.8158 37.0367C11.9318 36.9092 12.0892 36.8372 12.2534 36.8365H15.8762C16.0407 36.8372 16.1983 36.9091 16.3146 37.0366C16.4309 37.1641 16.4965 37.3369 16.497 37.5172V37.6151C16.4965 37.7955 16.4309 37.9682 16.3146 38.0957C16.1983 38.2232 16.0407 38.2951 15.8762 38.2958ZM12.2534 37.3142C12.2047 37.3148 12.1582 37.3365 12.1239 37.3745C12.0897 37.4125 12.0705 37.4638 12.0705 37.5172V37.6151C12.0705 37.6686 12.0897 37.7198 12.1239 37.7578C12.1582 37.7958 12.2047 37.8175 12.2534 37.8181H15.8762C15.9253 37.8181 15.9724 37.7967 16.0071 37.7587C16.0419 37.7206 16.0614 37.669 16.0614 37.6151V37.5172C16.0614 37.4634 16.0419 37.4117 16.0071 37.3737C15.9724 37.3356 15.9253 37.3142 15.8762 37.3142H12.2534Z" fill="#DFEAEF"/>
<path d="M13.3277 34.6633L12.5957 28.7093L14.1468 30.5602L15.6978 28.2914L15.0268 34.6633" fill="#FCFCFC"/>
<path d="M13.3278 34.9021C13.2746 34.9026 13.2231 34.8818 13.183 34.8435C13.1429 34.8052 13.1169 34.7522 13.11 34.6943L12.378 28.7404C12.3736 28.6917 12.3829 28.6426 12.4047 28.5999C12.4265 28.5572 12.4598 28.5229 12.5 28.5016C12.542 28.4792 12.5895 28.4723 12.6354 28.4817C12.6813 28.4912 12.7232 28.5166 12.7549 28.5541L14.1273 30.1949L15.5215 28.1553C15.5502 28.1133 15.5907 28.0828 15.6368 28.0685C15.6829 28.0543 15.7319 28.0571 15.7764 28.0765C15.821 28.0961 15.8584 28.1313 15.8828 28.1767C15.9073 28.222 15.9173 28.275 15.9115 28.3272L15.2405 34.6991C15.2339 34.7625 15.2045 34.8203 15.159 34.86C15.1134 34.8996 15.0554 34.9178 14.9976 34.9105C14.9398 34.9032 14.8871 34.8711 14.8509 34.8211C14.8148 34.7712 14.7982 34.7075 14.8048 34.6442L15.3821 29.1512L14.3147 30.7131C14.2955 30.7414 14.271 30.7646 14.2427 30.7813C14.2144 30.7979 14.1831 30.8075 14.151 30.8093C14.119 30.8111 14.087 30.8052 14.0572 30.7918C14.0275 30.7785 14.0009 30.7581 13.9792 30.7322L12.89 29.4402L13.5283 34.6418C13.5357 34.7045 13.5201 34.7679 13.485 34.818C13.4499 34.8681 13.3981 34.901 13.3409 34.9093L13.3278 34.9021Z" fill="#DFEAEF"/>
</svg>
