<svg width="80" height="80" viewBox="0 0 80 80" fill="none" xmlns="http://www.w3.org/2000/svg">
<path d="M10.7716 52H68.2284C68.9913 52 69.6851 52.3177 70.1867 52.8288C70.6883 53.34 71 54.047 71 54.8244V68.1756C71 68.9536 70.6883 69.66 70.1867 70.1712C69.6851 70.6824 68.9914 71 68.2284 71H10.7716C10.0087 71 9.31492 70.6823 8.8133 70.1712C8.31168 69.66 8 68.953 8 68.1756V54.8244C8 54.0464 8.31172 53.34 8.8133 52.8288C9.31488 52.3176 10.0086 52 10.7716 52ZM68.2284 54.0063H10.7716C10.5519 54.0063 10.3515 54.0989 10.2056 54.2476C10.0597 54.3962 9.96884 54.6005 9.96884 54.8244V68.1755C9.96884 68.3994 10.0597 68.6036 10.2056 68.7523C10.3515 68.901 10.5519 68.9935 10.7716 68.9935H68.2284C68.4482 68.9935 68.6486 68.901 68.7944 68.7523C68.9403 68.6036 69.0312 68.3994 69.0312 68.1755V54.8244C69.0312 54.6005 68.9403 54.3962 68.7944 54.2476C68.6485 54.0989 68.4482 54.0063 68.2284 54.0063Z" fill="#C47A2C"/>
<path d="M16.7854 24H63.2151C63.9821 24 64.6786 24.3182 65.1825 24.831C65.687 25.3438 66 26.0518 66 26.8309V55H14V26.8309C14 26.0512 14.313 25.3432 14.8175 24.831C15.322 24.3182 16.0185 24 16.7849 24H16.7854ZM63.2151 26.0059H16.7854C16.5634 26.0059 16.3602 26.099 16.2128 26.2488C16.0654 26.3987 15.9738 26.6052 15.9738 26.8309V52.9934H64.0272V26.8309C64.0272 26.6052 63.9356 26.3987 63.7882 26.2488C63.6408 26.099 63.4376 26.0059 63.2156 26.0059H63.2151Z" fill="#C47A2C"/>
<path d="M21.9233 23.9913H24.0767V20.0087H21.9233V23.9913ZM25.0384 26H20V18H26V26H25.0384Z" fill="#C47A2C"/>
<path d="M16.7316 9H30.2678C31.0201 9 31.7033 9.31877 32.1982 9.83253C32.693 10.3457 33 11.0556 33 11.8361V17.1639C33 17.945 32.693 18.6543 32.1982 19.1675C31.7033 19.6812 31.0202 20 30.2678 20H16.7316C15.9793 20 15.2961 19.6812 14.8018 19.1675C14.307 18.6537 14 17.9444 14 17.1639V11.8361C14 11.055 14.307 10.3457 14.8018 9.83253C15.2967 9.31877 15.9798 9 16.7316 9ZM30.2678 11.0096H16.7316C16.5138 11.0096 16.3145 11.1029 16.1699 11.253C16.0254 11.4031 15.9355 11.61 15.9355 11.8361V17.1639C15.9355 17.3899 16.0254 17.5969 16.1699 17.747C16.3145 17.8971 16.5132 17.9904 16.7316 17.9904H30.2678C30.4856 17.9904 30.6849 17.8971 30.8295 17.747C30.9741 17.5969 31.0639 17.3899 31.0639 17.1639V11.8361C31.0639 11.61 30.9741 11.4031 30.8295 11.253C30.6849 11.1029 30.4856 11.0096 30.2678 11.0096Z" fill="#C47A2C"/>
<path d="M60.9947 46C61.55 46 62 45.5524 62 45C62 44.4476 61.55 44 60.9947 44H42.0053C41.45 44 41 44.4476 41 45C41 45.5524 41.45 46 42.0053 46H60.9947Z" fill="#C47A2C"/>
<path d="M45.9439 44.0029H56.0571V36.2803C55.7904 36.2958 55.5185 36.1989 55.3148 35.9897L54.7519 35.4114L54.1889 35.9897L53.5016 35.2836L54.1889 35.9897C53.8094 36.3796 53.1938 36.3796 52.8143 35.9897L52.2513 35.4114L51.6884 35.9897C51.3088 36.3796 50.6932 36.3796 50.3137 35.9897L49.7508 35.4114L49.1878 35.9897L48.5005 35.2836L49.1878 35.9897C48.8083 36.3796 48.1927 36.3796 47.8132 35.9897L47.2502 35.4114L46.6873 35.9897C46.4837 36.1989 46.2117 36.2958 45.945 36.2803V44.0029H45.9439ZM57.0291 46H44.972C44.4351 46 44 45.553 44 45.0015V34.228C44 33.9724 44.0949 33.7168 44.2847 33.5218C44.6642 33.1319 45.2798 33.1319 45.6593 33.5218L45.9989 33.8707L46.5619 33.2924C46.9414 32.9025 47.557 32.9025 47.9365 33.2924L48.4995 33.8707L49.0624 33.2924C49.4419 32.9025 50.0575 32.9025 50.4371 33.2924L51 33.8707L51.5629 33.2924C51.9425 32.9025 52.5581 32.9025 52.9376 33.2924L53.5005 33.8707L54.0635 33.2924C54.443 32.9025 55.0586 32.9025 55.4381 33.2924L56.0011 33.8707L56.3366 33.526C56.5131 33.343 56.7572 33.2294 57.028 33.2294C57.5649 33.2294 58 33.6764 58 34.228V45.0015C58 45.553 57.5649 46 57.028 46L57.0291 46Z" fill="#C47A2C"/>
<path d="M19.0035 31H21.9965C22.5508 31 23 31.4492 23 32.0035V34.9965C23 35.5508 22.5508 36 21.9965 36H19.0035C18.4492 36 18 35.5508 18 34.9965V32.0035C18 31.4492 18.4492 31 19.0035 31ZM20.9931 33.0069H20.007V33.9931H20.9931V33.0069Z" fill="#C47A2C"/>
<path d="M26.0035 31H28.9965C29.5508 31 30 31.4492 30 32.0035V34.9965C30 35.5508 29.5508 36 28.9965 36H26.0035C25.4492 36 25 35.5508 25 34.9965V32.0035C25 31.4492 25.4492 31 26.0035 31ZM27.9931 33.0069H27.007V33.9931H27.9931V33.0069Z" fill="#C47A2C"/>
<path d="M33.0035 31H35.9965C36.5508 31 37 31.4492 37 32.0035V34.9965C37 35.5508 36.5508 36 35.9965 36H33.0035C32.4492 36 32 35.5508 32 34.9965V32.0035C32 31.4492 32.4492 31 33.0035 31ZM34.9931 33.0069H34.007V33.9931H34.9931V33.0069Z" fill="#C47A2C"/>
<path d="M19.0035 37H21.9965C22.5508 37 23 37.4492 23 38.0035V40.9965C23 41.5508 22.5508 42 21.9965 42H19.0035C18.4492 42 18 41.5508 18 40.9965V38.0035C18 37.4492 18.4492 37 19.0035 37ZM20.9931 39.0069H20.007V39.9931H20.9931V39.0069Z" fill="#C47A2C"/>
<path d="M26.0035 37H28.9965C29.5508 37 30 37.4492 30 38.0035V40.9965C30 41.5508 29.5508 42 28.9965 42H26.0035C25.4492 42 25 41.5508 25 40.9965V38.0035C25 37.4492 25.4492 37 26.0035 37ZM27.9931 39.0069H27.007V39.9931H27.9931V39.0069Z" fill="#C47A2C"/>
<path d="M33.0035 37H35.9965C36.5508 37 37 37.4492 37 38.0035V40.9965C37 41.5508 36.5508 42 35.9965 42H33.0035C32.4492 42 32 41.5508 32 40.9965V38.0035C32 37.4492 32.4492 37 33.0035 37ZM34.9931 39.0069H34.007V39.9931H34.9931V39.0069Z" fill="#C47A2C"/>
<path d="M19.0035 44H21.9965C22.5508 44 23 44.4492 23 45.0035V47.9965C23 48.5508 22.5508 49 21.9965 49H19.0035C18.4492 49 18 48.5508 18 47.9965V45.0035C18 44.4492 18.4492 44 19.0035 44ZM20.9931 46.0069H20.007V46.9931H20.9931V46.0069Z" fill="#C47A2C"/>
<path d="M26.0035 44H28.9965C29.5508 44 30 44.4492 30 45.0035V47.9965C30 48.5508 29.5508 49 28.9965 49H26.0035C25.4492 49 25 48.5508 25 47.9965V45.0035C25 44.4492 25.4492 44 26.0035 44ZM27.9931 46.0069H27.007V46.9931H27.9931V46.0069Z" fill="#C47A2C"/>
<path d="M33.0035 44H35.9965C36.5508 44 37 44.4492 37 45.0035V47.9965C37 48.5508 36.5508 49 35.9965 49H33.0035C32.4492 49 32 48.5508 32 47.9965V45.0035C32 44.4492 32.4492 44 33.0035 44ZM34.9931 46.0069H34.007V46.9931H34.9931V46.0069Z" fill="#C47A2C"/>
<path d="M40 58C41.1042 58 42.1044 58.4478 42.8283 59.1717C43.5522 59.8957 44 60.8959 44 62C44 63.1042 43.5522 64.1044 42.8283 64.8283C42.1043 65.5522 41.1041 66 40 66C38.8959 66 37.8956 65.5522 37.1717 64.8283C36.4478 64.1043 36 63.1041 36 62C36 60.8958 36.4478 59.8956 37.1717 59.1717C37.8957 58.4478 38.8959 58 40 58ZM41.4079 60.5917C41.0474 60.2312 40.55 60.0088 40 60.0088C39.45 60.0088 38.952 60.2318 38.5921 60.5917C38.2316 60.9521 38.0092 61.4495 38.0092 61.9995C38.0092 62.5495 38.2322 63.0475 38.5921 63.4074C38.9526 63.7679 39.45 63.9903 40 63.9903C40.55 63.9903 41.048 63.7673 41.4079 63.4074C41.7684 63.0469 41.9908 62.5495 41.9908 61.9995C41.9908 61.4495 41.7678 60.9515 41.4079 60.5917Z" fill="#C47A2C"/>
</svg>
