<svg width="80" height="80" viewBox="0 0 80 80" fill="none" xmlns="http://www.w3.org/2000/svg">
<mask id="path-1-outside-1_974_11774" maskUnits="userSpaceOnUse" x="42.8775" y="11.6105" width="21.9469" height="22.4983" fill="black">
<rect fill="white" x="42.8775" y="11.6105" width="21.9469" height="22.4983"/>
<path fill-rule="evenodd" clip-rule="evenodd" d="M46.4119 21.431C46.4105 21.4293 46.409 21.4275 46.4075 21.4258C46.4061 21.424 46.4046 21.4222 46.4031 21.4205C46.0743 21.028 45.742 20.65 45.4078 20.2868C45.3393 20.2123 45.2726 20.1362 45.2067 20.0611C45.1627 20.011 45.1191 19.9612 45.0755 19.9125C45.0454 19.879 45.0153 19.8459 44.9851 19.8135L55.0215 13L63.3969 25.3596L53.3605 32.1731C53.3414 32.1326 53.3219 32.0924 53.3021 32.0523C53.2767 32.0007 53.2508 31.9493 53.225 31.8979C53.179 31.8066 53.1331 31.7153 53.0895 31.6227C52.8746 31.1751 52.6399 30.7159 52.3899 30.254C50.7699 27.2452 48.5937 24.0335 46.4119 21.431ZM52.5051 30.1922C50.8796 27.1734 48.6965 23.9518 46.5073 21.3414C46.1757 20.9454 45.8406 20.5641 45.5035 20.1978M52.5051 30.1922C52.756 30.6558 52.9917 31.1169 53.2075 31.5666C53.2503 31.6574 53.2958 31.748 53.3419 31.8395C53.3648 31.8851 53.3883 31.9318 53.4113 31.9782L63.2143 25.3231L54.9878 13.1832L45.1846 19.8385C45.2206 19.8788 45.2564 19.9196 45.2921 19.9602L45.3042 19.9741C45.3704 20.0495 45.4361 20.1244 45.5035 20.1978M56.7997 21.9441L58.1451 23.9294L55.3221 25.8459L53.9767 23.8606L56.7997 21.9441ZM54.4068 18.4128L55.7521 20.3981L52.9291 22.3146L51.5838 20.3292L54.4068 18.4128ZM56.7661 22.1273L54.1593 23.897L55.3557 25.6627L57.9625 23.893L56.7661 22.1273ZM54.3731 18.596L51.7663 20.3657L52.9628 22.1313L55.5696 20.3616L54.3731 18.596Z"/>
</mask>
<path fill-rule="evenodd" clip-rule="evenodd" d="M46.4119 21.431C46.4105 21.4293 46.409 21.4275 46.4075 21.4258C46.4061 21.424 46.4046 21.4222 46.4031 21.4205C46.0743 21.028 45.742 20.65 45.4078 20.2868C45.3393 20.2123 45.2726 20.1362 45.2067 20.0611C45.1627 20.011 45.1191 19.9612 45.0755 19.9125C45.0454 19.879 45.0153 19.8459 44.9851 19.8135L55.0215 13L63.3969 25.3596L53.3605 32.1731C53.3414 32.1326 53.3219 32.0924 53.3021 32.0523C53.2767 32.0007 53.2508 31.9493 53.225 31.8979C53.179 31.8066 53.1331 31.7153 53.0895 31.6227C52.8746 31.1751 52.6399 30.7159 52.3899 30.254C50.7699 27.2452 48.5937 24.0335 46.4119 21.431ZM52.5051 30.1922C50.8796 27.1734 48.6965 23.9518 46.5073 21.3414C46.1757 20.9454 45.8406 20.5641 45.5035 20.1978M52.5051 30.1922C52.756 30.6558 52.9917 31.1169 53.2075 31.5666C53.2503 31.6574 53.2958 31.748 53.3419 31.8395C53.3648 31.8851 53.3883 31.9318 53.4113 31.9782L63.2143 25.3231L54.9878 13.1832L45.1846 19.8385C45.2206 19.8788 45.2564 19.9196 45.2921 19.9602L45.3042 19.9741C45.3704 20.0495 45.4361 20.1244 45.5035 20.1978M56.7997 21.9441L58.1451 23.9294L55.3221 25.8459L53.9767 23.8606L56.7997 21.9441ZM54.4068 18.4128L55.7521 20.3981L52.9291 22.3146L51.5838 20.3292L54.4068 18.4128ZM56.7661 22.1273L54.1593 23.897L55.3557 25.6627L57.9625 23.893L56.7661 22.1273ZM54.3731 18.596L51.7663 20.3657L52.9628 22.1313L55.5696 20.3616L54.3731 18.596Z" fill="#C47A2C"/>
<path d="M45.1761 20.4276L52.1776 30.422L52.8325 29.9624L45.8309 19.968L45.1761 20.4276ZM46.4075 21.4258L45.7945 21.9399L45.7949 21.9403L46.4075 21.4258ZM46.4119 21.431L47.0246 20.9165L47.0246 20.9165L46.4119 21.431ZM46.4031 21.4205L45.7902 21.9348L45.7903 21.9348L46.4031 21.4205ZM45.4078 20.2868L44.819 20.8286L44.8195 20.8291L45.4078 20.2868ZM45.2067 20.0611L44.6056 20.5891L44.6056 20.5891L45.2067 20.0611ZM45.0755 19.9125L44.48 20.4469L44.48 20.4469L45.0755 19.9125ZM44.9851 19.8135L44.5363 19.1513L43.7629 19.6763L44.4005 20.3598L44.9851 19.8135ZM55.0215 13L55.6834 12.5507L55.2346 11.8884L54.5727 12.3377L55.0215 13ZM63.3969 25.3596L63.8456 26.0219L64.5075 25.5725L64.0587 24.9102L63.3969 25.3596ZM53.3605 32.1731L52.6372 32.5147L53.0358 33.3605L53.8093 32.8354L53.3605 32.1731ZM53.3021 32.0523L54.0193 31.6981L54.0193 31.6981L53.3021 32.0523ZM53.225 31.8979L52.5107 32.258L52.5107 32.258L53.225 31.8979ZM53.0895 31.6227L53.8128 31.2811L53.8103 31.276L53.0895 31.6227ZM52.3899 30.254L51.6859 30.6338L51.6867 30.6353L52.3899 30.254ZM52.5051 30.1922L51.8011 30.572L51.8019 30.5735L52.5051 30.1922ZM46.5073 21.3414L45.8944 21.8555L45.8947 21.856L46.5073 21.3414ZM45.5035 20.1978L44.9148 20.7396L44.9152 20.7401L45.5035 20.1978ZM53.2075 31.5666L53.9308 31.225L53.9284 31.2199L53.2075 31.5666ZM53.3419 31.8395L54.0562 31.4794L54.0562 31.4794L53.3419 31.8395ZM53.4113 31.9782L52.6947 32.3337L53.1015 33.1555L53.8601 32.6405L53.4113 31.9782ZM63.2143 25.3231L63.6631 25.9854L64.325 25.5361L63.8762 24.8738L63.2143 25.3231ZM54.9878 13.1832L55.6497 12.7339L55.2009 12.0716L54.539 12.521L54.9878 13.1832ZM45.1846 19.8385L44.7358 19.1762L43.9794 19.6897L44.5881 20.3717L45.1846 19.8385ZM45.2921 19.9602L45.8931 19.4321L45.8931 19.4321L45.2921 19.9602ZM45.3042 19.9741L45.9053 19.446L45.9052 19.446L45.3042 19.9741ZM56.7997 21.9441L57.4616 21.4947L57.0128 20.8325L56.3509 21.2818L56.7997 21.9441ZM58.1451 23.9294L58.5939 24.5917L59.2557 24.1423L58.807 23.4801L58.1451 23.9294ZM55.3221 25.8459L54.6602 26.2952L55.109 26.9575L55.7708 26.5081L55.3221 25.8459ZM53.9767 23.8606L53.5279 23.1983L52.8661 23.6476L53.3148 24.3099L53.9767 23.8606ZM54.4068 18.4128L55.0686 17.9634L54.6199 17.3011L53.958 17.7505L54.4068 18.4128ZM55.7521 20.3981L56.2009 21.0604L56.8628 20.611L56.414 19.9487L55.7521 20.3981ZM52.9291 22.3146L52.2672 22.7639L52.716 23.4262L53.3779 22.9768L52.9291 22.3146ZM51.5838 20.3292L51.135 19.667L50.4731 20.1163L50.9219 20.7786L51.5838 20.3292ZM56.7661 22.1273L57.4279 21.678L56.9792 21.0157L56.3173 21.465L56.7661 22.1273ZM54.1593 23.897L53.7105 23.2347L53.0486 23.6841L53.4974 24.3463L54.1593 23.897ZM55.3557 25.6627L54.6939 26.112L55.1426 26.7743L55.8045 26.3249L55.3557 25.6627ZM57.9625 23.893L58.4113 24.5552L59.0732 24.1059L58.6244 23.4436L57.9625 23.893ZM54.3731 18.596L55.035 18.1466L54.5862 17.4844L53.9243 17.9337L54.3731 18.596ZM51.7663 20.3657L51.3175 19.7034L50.6556 20.1528L51.1044 20.815L51.7663 20.3657ZM52.9628 22.1313L52.3009 22.5807L52.7497 23.2429L53.4116 22.7936L52.9628 22.1313ZM55.5696 20.3616L56.0183 21.0239L56.6802 20.5746L56.2315 19.9123L55.5696 20.3616ZM45.7949 21.9403C45.8368 21.9903 45.7589 21.8974 45.7993 21.9455L47.0246 20.9165C47.0235 20.9152 47.0225 20.914 47.0218 20.9132C47.021 20.9122 47.0206 20.9117 47.0202 20.9112L45.7949 21.9403ZM45.7903 21.9348C45.7917 21.9365 45.7931 21.9382 45.7945 21.9399L47.0206 20.9117C47.019 20.9098 47.0175 20.908 47.0159 20.9061L45.7903 21.9348ZM44.8195 20.8291C45.1453 21.1832 45.4694 21.5518 45.7902 21.9348L47.016 20.9062C46.6791 20.5041 46.3386 20.1168 45.9961 19.7446L44.8195 20.8291ZM44.6056 20.5891C44.6705 20.6632 44.7432 20.7461 44.819 20.8286L45.9966 19.7451C45.9353 19.6784 45.8746 19.6093 45.8077 19.533L44.6056 20.5891ZM44.48 20.4469C44.5203 20.4919 44.5612 20.5385 44.6056 20.5891L45.8077 19.533C45.7643 19.4834 45.7178 19.4305 45.6709 19.3781L44.48 20.4469ZM44.4005 20.3598C44.4261 20.3873 44.4525 20.4162 44.48 20.4469L45.6709 19.3782C45.6383 19.3417 45.6045 19.3045 45.5697 19.2672L44.4005 20.3598ZM52.585 32.4066C52.6033 32.4437 52.6206 32.4796 52.6372 32.5147L54.0838 31.8315C54.0622 31.7857 54.0405 31.7411 54.0193 31.6981L52.585 32.4066ZM52.5107 32.258C52.5368 32.3099 52.5612 32.3584 52.585 32.4066L54.0193 31.6981C53.9922 31.643 53.9649 31.5887 53.9392 31.5378L52.5107 32.258ZM52.3662 31.9643C52.4149 32.0678 52.4655 32.1683 52.5107 32.258L53.9392 31.5378C53.8925 31.445 53.8513 31.3629 53.8127 31.2811L52.3662 31.9643ZM51.6867 30.6353C51.9309 31.0865 52.1597 31.5342 52.3686 31.9694L53.8103 31.276C53.5896 30.816 53.3489 30.3452 53.0931 29.8727L51.6867 30.6353ZM45.7993 21.9455C47.9459 24.5061 50.0915 27.6726 51.6859 30.6338L53.0939 29.8742C51.4482 26.8178 49.2416 23.5609 47.0246 20.9165L45.7993 21.9455ZM53.2091 29.8124C51.558 26.7459 49.3443 23.4792 47.1199 20.8267L45.8947 21.856C48.0487 24.4245 50.2012 27.6008 51.8011 30.572L53.2091 29.8124ZM47.1203 20.8272C46.7807 20.4216 46.4373 20.031 46.0918 19.6555L44.9152 20.7401C45.2439 21.0973 45.5708 21.4692 45.8944 21.8555L47.1203 20.8272ZM53.9284 31.2199C53.7066 30.7579 53.465 30.2852 53.2083 29.8109L51.8019 30.5735C52.047 31.0264 52.2768 31.476 52.4866 31.9133L53.9284 31.2199ZM54.0562 31.4794C54.0094 31.3864 53.9685 31.305 53.9308 31.225L52.4842 31.9082C52.5321 32.0098 52.5823 32.1096 52.6276 32.1997L54.0562 31.4794ZM54.1279 31.6228C54.1036 31.5737 54.0789 31.5246 54.0562 31.4794L52.6276 32.1996C52.6507 32.2456 52.6731 32.29 52.6947 32.3337L54.1279 31.6228ZM62.7655 24.6609L52.9625 31.316L53.8601 32.6405L63.6631 25.9854L62.7655 24.6609ZM54.3259 13.6326L62.5524 25.7725L63.8762 24.8738L55.6497 12.7339L54.3259 13.6326ZM45.6334 20.5007L55.4366 13.8455L54.539 12.521L44.7358 19.1762L45.6334 20.5007ZM45.8931 19.4321C45.8574 19.3914 45.8196 19.3484 45.781 19.3052L44.5881 20.3717C44.6216 20.4093 44.6554 20.4477 44.691 20.4883L45.8931 19.4321ZM45.9052 19.446L45.8931 19.4321L44.691 20.4883L44.7032 20.5022L45.9052 19.446ZM46.0923 19.656C46.0321 19.5906 45.9725 19.5226 45.9053 19.446L44.7032 20.5021C44.7683 20.5764 44.8401 20.6583 44.9148 20.7396L46.0923 19.656ZM54.5727 12.3377L44.5363 19.1513L45.4339 20.4758L55.4703 13.6623L54.5727 12.3377ZM64.0587 24.9102L55.6834 12.5507L54.3596 13.4493L62.735 25.8089L64.0587 24.9102ZM53.8093 32.8354L63.8456 26.0219L62.9481 24.6973L52.9117 31.5108L53.8093 32.8354ZM58.807 23.4801L57.4616 21.4947L56.1378 22.3934L57.4832 24.3787L58.807 23.4801ZM55.7708 26.5081L58.5939 24.5917L57.6963 23.2671L54.8733 25.1836L55.7708 26.5081ZM53.3148 24.3099L54.6602 26.2952L55.984 25.3965L54.6386 23.4112L53.3148 24.3099ZM56.3509 21.2818L53.5279 23.1983L54.4255 24.5228L57.2485 22.6063L56.3509 21.2818ZM56.414 19.9487L55.0686 17.9634L53.7449 18.8621L55.0902 20.8474L56.414 19.9487ZM53.3779 22.9768L56.2009 21.0604L55.3033 19.7358L52.4803 21.6523L53.3779 22.9768ZM50.9219 20.7786L52.2672 22.7639L53.591 21.8652L52.2456 19.8799L50.9219 20.7786ZM53.958 17.7505L51.135 19.667L52.0325 20.9915L54.8555 19.075L53.958 17.7505ZM56.1042 22.5766L57.3006 24.3423L58.6244 23.4436L57.4279 21.678L56.1042 22.5766ZM54.608 24.5593L57.2148 22.7896L56.3173 21.465L53.7105 23.2347L54.608 24.5593ZM56.0176 25.2133L54.8211 23.4477L53.4974 24.3463L54.6939 26.112L56.0176 25.2133ZM57.5138 23.2307L54.907 25.0004L55.8045 26.3249L58.4113 24.5552L57.5138 23.2307ZM53.7112 19.0453L54.9077 20.811L56.2315 19.9123L55.035 18.1466L53.7112 19.0453ZM52.2151 21.028L54.8219 19.2583L53.9243 17.9337L51.3175 19.7034L52.2151 21.028ZM53.6247 21.682L52.4282 19.9163L51.1044 20.815L52.3009 22.5807L53.6247 21.682ZM55.1208 19.6994L52.514 21.4691L53.4116 22.7936L56.0183 21.0239L55.1208 19.6994Z" fill="#C47A2C" mask="url(#path-1-outside-1_974_11774)"/>
<mask id="path-3-outside-2_974_11774" maskUnits="userSpaceOnUse" x="36.4329" y="16.2765" width="18.6939" height="22.9719" fill="black">
<rect fill="white" x="36.4329" y="16.2765" width="18.6939" height="22.9719"/>
<path fill-rule="evenodd" clip-rule="evenodd" d="M39.7618 21.6027C41.6374 23.3822 43.4521 25.5492 45.0807 27.9524C46.7037 30.3475 48.0439 32.8363 48.9998 35.2522C49.2497 35.8697 49.4742 36.4812 49.6723 37.0871L52.3723 35.2541L52.0727 34.4942L52.0721 34.4925C51.9536 34.1664 51.8227 33.8381 51.6718 33.498L51.671 33.4962L51.6702 33.4944C51.548 33.1957 51.4179 32.9032 51.2746 32.6073L51.2734 32.6049L51.2724 32.6024C51.2603 32.5748 51.2478 32.5476 51.2349 32.5196C51.2249 32.4978 51.2146 32.4755 51.2042 32.4522C51.0884 32.2002 50.9597 31.9457 50.8294 31.6877L50.8141 31.6575C50.8141 31.6574 50.8141 31.6574 50.814 31.6573C50.641 31.317 50.4618 30.9684 50.2771 30.6108C50.261 30.5815 50.2449 30.5522 50.2287 30.5228C50.1964 30.464 50.164 30.4051 50.1319 30.3466C50.1166 30.3232 50.1061 30.3018 50.099 30.2871C50.0899 30.2686 50.088 30.2649 50.0862 30.2623L50.0821 30.2561L50.0786 30.2496C49.8721 29.8604 49.6442 29.4732 49.4084 29.075L49.4076 29.0736L49.4068 29.0722C49.3511 28.973 49.2924 28.8702 49.2273 28.774L49.2241 28.7694L49.2214 28.7646C49.1178 28.5813 49.0071 28.4021 48.8953 28.221C48.883 28.2012 48.8708 28.1813 48.8586 28.1615L48.8576 28.1599L48.8567 28.1583C48.7239 27.9297 48.5835 27.7056 48.4301 27.4792L48.4242 27.4705L48.4196 27.4609C48.3981 27.4154 48.3698 27.3732 48.3342 27.3207L48.3297 27.3141L48.3261 27.307C48.292 27.2416 48.2506 27.1803 48.204 27.1114L47.8444 26.5808L47.8421 26.5769C47.772 26.457 47.6997 26.3502 47.6187 26.2307C47.3895 25.8925 47.1583 25.5682 46.9136 25.2411L46.9117 25.2385L46.7489 24.9983C46.6911 24.913 46.6363 24.8323 46.5693 24.7494L46.5656 24.7449L46.5624 24.7401C46.4556 24.5826 46.3409 24.4298 46.2186 24.2828L46.2143 24.2776L46.2048 24.2635C46.1465 24.1775 46.0868 24.0896 46.0258 24.0154L46.0243 24.0136L46.0229 24.0117C45.9729 23.9465 45.9244 23.8833 45.8757 23.8201L45.8756 23.8199C45.827 23.7567 45.7784 23.6935 45.7283 23.6281L45.7258 23.6249L45.7199 23.6161C45.4046 23.2008 45.0818 22.7923 44.7554 22.4119L44.7503 22.406L44.7379 22.3877C44.6735 22.3094 44.6037 22.2231 44.5343 22.1374L44.5297 22.1317L44.5265 22.1269C44.5127 22.1065 44.4859 22.0784 44.4561 22.0508L44.4507 22.0458L44.4458 22.0402C44.3845 21.9696 44.3259 21.9032 44.2666 21.8359C44.2271 21.7911 44.1872 21.746 44.146 21.6989L44.1448 21.6975L44.141 21.693C44.0163 21.543 43.894 21.3958 43.7707 21.2635L43.7693 21.262L43.7679 21.2604C43.5634 21.0268 43.3666 20.804 43.1682 20.5947L43.168 20.5944C43.1348 20.5593 43.1018 20.5242 43.0688 20.4892C42.9383 20.3509 42.8092 20.2138 42.6832 20.082C42.3257 19.7199 41.977 19.387 41.6382 19.0704C41.6349 19.0688 41.6314 19.0669 41.6279 19.0648C41.6104 19.0543 41.5981 19.0418 41.5899 19.0319C41.5897 19.0316 41.5895 19.0314 41.5893 19.0311L40.9991 18.4714L38.3084 20.298C38.8003 20.7049 39.2798 21.1436 39.7618 21.6027ZM39.6829 21.6918C39.6757 21.6849 39.6685 21.6781 39.6613 21.6712C39.1818 21.2151 38.706 20.7807 38.2185 20.3785C38.2146 20.3746 38.2106 20.3708 38.2066 20.3671C38.1921 20.3538 38.1775 20.342 38.1629 20.3303C38.1438 20.3149 38.1247 20.2996 38.1062 20.2809L41.005 18.313L41.6767 18.9501C41.6825 18.9587 41.6825 18.9587 41.6962 18.9618C42.0422 19.2849 42.3994 19.6254 42.766 19.9968C42.8926 20.1293 43.0225 20.267 43.1532 20.4057C43.1861 20.4407 43.2192 20.4757 43.2522 20.5107C43.4526 20.7222 43.651 20.9468 43.8556 21.1804C43.9814 21.3155 44.1059 21.4652 44.2296 21.6142L44.2336 21.6189C44.2741 21.6651 44.3137 21.7101 44.3532 21.7548C44.4129 21.8225 44.4723 21.8898 44.5338 21.9606C44.5648 21.9894 44.6014 22.0262 44.6245 22.0603L44.6252 22.0612C44.6962 22.1489 44.7671 22.2367 44.8323 22.3159L44.8439 22.333C45.1735 22.717 45.4988 23.129 45.8158 23.5465L45.8216 23.5551C45.8716 23.6204 45.9202 23.6835 45.9688 23.7467C46.0174 23.81 46.0661 23.8733 46.1162 23.9387C46.182 24.0187 46.2453 24.1121 46.3028 24.197L46.3086 24.2055C46.4336 24.356 46.5511 24.5123 46.6604 24.6735C46.7316 24.7616 46.7894 24.8469 46.8469 24.9318L47.0079 25.1693C47.2538 25.4981 47.4863 25.8242 47.7167 26.1642C47.7974 26.2832 47.8722 26.3937 47.945 26.5181L48.302 27.0449C48.3479 27.1127 48.3939 27.1805 48.4322 27.2541C48.4669 27.3053 48.5013 27.3561 48.5281 27.4127C48.6833 27.6417 48.8254 27.8685 48.9598 28.0999C48.972 28.1198 48.9843 28.1396 48.9965 28.1595C49.1082 28.3403 49.2203 28.5218 49.3253 28.7075C49.394 28.8089 49.4552 28.9163 49.5109 29.0155C49.7466 29.4135 49.9761 29.8033 50.1843 30.1958C50.1921 30.2074 50.1984 30.2202 50.2051 30.234C50.2129 30.2502 50.2214 30.2676 50.2339 30.286C50.2668 30.346 50.3001 30.4065 50.3333 30.467C50.3498 30.4969 50.3662 30.5269 50.3827 30.5568C50.5677 30.9151 50.7474 31.2646 50.9209 31.6058L50.9367 31.6371C51.0668 31.8946 51.1966 32.1514 51.3136 32.406C51.3226 32.4262 51.3327 32.4481 51.3429 32.4703C51.3566 32.5001 51.3705 32.5304 51.3825 32.5579C51.5271 32.8565 51.6584 33.1516 51.7816 33.4528C51.9339 33.796 52.066 34.1273 52.1854 34.456L52.5211 35.3075L49.614 37.281C49.6064 37.2613 49.6003 37.2438 49.5942 37.2263C49.5881 37.2088 49.5821 37.1913 49.5744 37.1715C49.5729 37.1666 49.5713 37.1617 49.5697 37.1568C49.3696 36.5416 49.142 35.9204 48.888 35.2928C47.9362 32.8871 46.6008 30.4069 44.9827 28.0189C43.3653 25.6322 41.5645 23.4805 39.7046 21.7123C39.6974 21.7055 39.6901 21.6986 39.6829 21.6918Z"/>
</mask>
<path fill-rule="evenodd" clip-rule="evenodd" d="M39.7618 21.6027C41.6374 23.3822 43.4521 25.5492 45.0807 27.9524C46.7037 30.3475 48.0439 32.8363 48.9998 35.2522C49.2497 35.8697 49.4742 36.4812 49.6723 37.0871L52.3723 35.2541L52.0727 34.4942L52.0721 34.4925C51.9536 34.1664 51.8227 33.8381 51.6718 33.498L51.671 33.4962L51.6702 33.4944C51.548 33.1957 51.4179 32.9032 51.2746 32.6073L51.2734 32.6049L51.2724 32.6024C51.2603 32.5748 51.2478 32.5476 51.2349 32.5196C51.2249 32.4978 51.2146 32.4755 51.2042 32.4522C51.0884 32.2002 50.9597 31.9457 50.8294 31.6877L50.8141 31.6575C50.8141 31.6574 50.8141 31.6574 50.814 31.6573C50.641 31.317 50.4618 30.9684 50.2771 30.6108C50.261 30.5815 50.2449 30.5522 50.2287 30.5228C50.1964 30.464 50.164 30.4051 50.1319 30.3466C50.1166 30.3232 50.1061 30.3018 50.099 30.2871C50.0899 30.2686 50.088 30.2649 50.0862 30.2623L50.0821 30.2561L50.0786 30.2496C49.8721 29.8604 49.6442 29.4732 49.4084 29.075L49.4076 29.0736L49.4068 29.0722C49.3511 28.973 49.2924 28.8702 49.2273 28.774L49.2241 28.7694L49.2214 28.7646C49.1178 28.5813 49.0071 28.4021 48.8953 28.221C48.883 28.2012 48.8708 28.1813 48.8586 28.1615L48.8576 28.1599L48.8567 28.1583C48.7239 27.9297 48.5835 27.7056 48.4301 27.4792L48.4242 27.4705L48.4196 27.4609C48.3981 27.4154 48.3698 27.3732 48.3342 27.3207L48.3297 27.3141L48.3261 27.307C48.292 27.2416 48.2506 27.1803 48.204 27.1114L47.8444 26.5808L47.8421 26.5769C47.772 26.457 47.6997 26.3502 47.6187 26.2307C47.3895 25.8925 47.1583 25.5682 46.9136 25.2411L46.9117 25.2385L46.7489 24.9983C46.6911 24.913 46.6363 24.8323 46.5693 24.7494L46.5656 24.7449L46.5624 24.7401C46.4556 24.5826 46.3409 24.4298 46.2186 24.2828L46.2143 24.2776L46.2048 24.2635C46.1465 24.1775 46.0868 24.0896 46.0258 24.0154L46.0243 24.0136L46.0229 24.0117C45.9729 23.9465 45.9244 23.8833 45.8757 23.8201L45.8756 23.8199C45.827 23.7567 45.7784 23.6935 45.7283 23.6281L45.7258 23.6249L45.7199 23.6161C45.4046 23.2008 45.0818 22.7923 44.7554 22.4119L44.7503 22.406L44.7379 22.3877C44.6735 22.3094 44.6037 22.2231 44.5343 22.1374L44.5297 22.1317L44.5265 22.1269C44.5127 22.1065 44.4859 22.0784 44.4561 22.0508L44.4507 22.0458L44.4458 22.0402C44.3845 21.9696 44.3259 21.9032 44.2666 21.8359C44.2271 21.7911 44.1872 21.746 44.146 21.6989L44.1448 21.6975L44.141 21.693C44.0163 21.543 43.894 21.3958 43.7707 21.2635L43.7693 21.262L43.7679 21.2604C43.5634 21.0268 43.3666 20.804 43.1682 20.5947L43.168 20.5944C43.1348 20.5593 43.1018 20.5242 43.0688 20.4892C42.9383 20.3509 42.8092 20.2138 42.6832 20.082C42.3257 19.7199 41.977 19.387 41.6382 19.0704C41.6349 19.0688 41.6314 19.0669 41.6279 19.0648C41.6104 19.0543 41.5981 19.0418 41.5899 19.0319C41.5897 19.0316 41.5895 19.0314 41.5893 19.0311L40.9991 18.4714L38.3084 20.298C38.8003 20.7049 39.2798 21.1436 39.7618 21.6027ZM39.6829 21.6918C39.6757 21.6849 39.6685 21.6781 39.6613 21.6712C39.1818 21.2151 38.706 20.7807 38.2185 20.3785C38.2146 20.3746 38.2106 20.3708 38.2066 20.3671C38.1921 20.3538 38.1775 20.342 38.1629 20.3303C38.1438 20.3149 38.1247 20.2996 38.1062 20.2809L41.005 18.313L41.6767 18.9501C41.6825 18.9587 41.6825 18.9587 41.6962 18.9618C42.0422 19.2849 42.3994 19.6254 42.766 19.9968C42.8926 20.1293 43.0225 20.267 43.1532 20.4057C43.1861 20.4407 43.2192 20.4757 43.2522 20.5107C43.4526 20.7222 43.651 20.9468 43.8556 21.1804C43.9814 21.3155 44.1059 21.4652 44.2296 21.6142L44.2336 21.6189C44.2741 21.6651 44.3137 21.7101 44.3532 21.7548C44.4129 21.8225 44.4723 21.8898 44.5338 21.9606C44.5648 21.9894 44.6014 22.0262 44.6245 22.0603L44.6252 22.0612C44.6962 22.1489 44.7671 22.2367 44.8323 22.3159L44.8439 22.333C45.1735 22.717 45.4988 23.129 45.8158 23.5465L45.8216 23.5551C45.8716 23.6204 45.9202 23.6835 45.9688 23.7467C46.0174 23.81 46.0661 23.8733 46.1162 23.9387C46.182 24.0187 46.2453 24.1121 46.3028 24.197L46.3086 24.2055C46.4336 24.356 46.5511 24.5123 46.6604 24.6735C46.7316 24.7616 46.7894 24.8469 46.8469 24.9318L47.0079 25.1693C47.2538 25.4981 47.4863 25.8242 47.7167 26.1642C47.7974 26.2832 47.8722 26.3937 47.945 26.5181L48.302 27.0449C48.3479 27.1127 48.3939 27.1805 48.4322 27.2541C48.4669 27.3053 48.5013 27.3561 48.5281 27.4127C48.6833 27.6417 48.8254 27.8685 48.9598 28.0999C48.972 28.1198 48.9843 28.1396 48.9965 28.1595C49.1082 28.3403 49.2203 28.5218 49.3253 28.7075C49.394 28.8089 49.4552 28.9163 49.5109 29.0155C49.7466 29.4135 49.9761 29.8033 50.1843 30.1958C50.1921 30.2074 50.1984 30.2202 50.2051 30.234C50.2129 30.2502 50.2214 30.2676 50.2339 30.286C50.2668 30.346 50.3001 30.4065 50.3333 30.467C50.3498 30.4969 50.3662 30.5269 50.3827 30.5568C50.5677 30.9151 50.7474 31.2646 50.9209 31.6058L50.9367 31.6371C51.0668 31.8946 51.1966 32.1514 51.3136 32.406C51.3226 32.4262 51.3327 32.4481 51.3429 32.4703C51.3566 32.5001 51.3705 32.5304 51.3825 32.5579C51.5271 32.8565 51.6584 33.1516 51.7816 33.4528C51.9339 33.796 52.066 34.1273 52.1854 34.456L52.5211 35.3075L49.614 37.281C49.6064 37.2613 49.6003 37.2438 49.5942 37.2263C49.5881 37.2088 49.5821 37.1913 49.5744 37.1715C49.5729 37.1666 49.5713 37.1617 49.5697 37.1568C49.3696 36.5416 49.142 35.9204 48.888 35.2928C47.9362 32.8871 46.6008 30.4069 44.9827 28.0189C43.3653 25.6322 41.5645 23.4805 39.7046 21.7123C39.6974 21.7055 39.6901 21.6986 39.6829 21.6918Z" fill="#C47A2C"/>
<path d="M39.3984 21.9731C39.3984 21.9731 39.3984 21.9731 39.3984 21.9731C39.3984 21.9731 39.3984 21.9731 39.3984 21.9731L39.3984 21.9731C39.3984 21.9731 39.3984 21.9731 39.3984 21.9731C39.3984 21.9731 39.3984 21.9731 39.3984 21.9731C39.3984 21.9731 39.3984 21.9731 39.3984 21.9731C39.3984 21.9731 39.3984 21.9731 39.3984 21.9731C39.3984 21.9731 39.3984 21.9731 39.3984 21.9731C39.3984 21.9731 39.3984 21.9731 39.3984 21.9731C39.3984 21.9731 39.3984 21.9731 39.3984 21.9731C39.3984 21.9731 39.3984 21.9731 39.3984 21.9731C39.3984 21.9731 39.3984 21.9731 39.3984 21.9731C39.3984 21.9731 39.3984 21.9731 39.3984 21.9731C39.3984 21.9731 39.3984 21.9731 39.3984 21.9731C39.9639 21.9764 39.9674 21.4105 39.9674 21.4105C39.9674 21.4105 39.9674 21.4105 39.9674 21.4105C39.9674 21.4105 39.9674 21.4105 39.9674 21.4105C39.9674 21.4105 39.9674 21.4105 39.9674 21.4105C39.9674 21.4105 39.9674 21.4105 39.9674 21.4105C39.9674 21.4105 39.9674 21.4105 39.9674 21.4105C39.9674 21.4105 39.9674 21.4105 39.9674 21.4105C39.9674 21.4105 39.9674 21.4105 39.9674 21.4105C39.9674 21.4105 39.9674 21.4105 39.9674 21.4105C39.9674 21.4105 39.9674 21.4105 39.9674 21.4105C39.9674 21.4105 39.9674 21.4105 39.9674 21.4105C39.9674 21.4105 39.9674 21.4105 39.9674 21.4105C39.9674 21.4105 39.9674 21.4105 39.9674 21.4105C39.9674 21.4105 39.9674 21.4105 39.9674 21.4105C39.9674 21.4105 39.9639 21.9764 39.3984 21.9731C39.3984 21.9731 39.3984 21.9731 39.3984 21.9731C39.3984 21.9731 39.3984 21.9731 39.3984 21.9731C39.3984 21.9731 39.3984 21.9731 39.3984 21.9731C39.3984 21.9731 39.3984 21.9731 39.3984 21.9731C39.3984 21.9731 39.3984 21.9731 39.3984 21.9731C39.3984 21.9731 39.3984 21.9731 39.3984 21.9731C39.3984 21.9731 39.3984 21.9731 39.3984 21.9731C39.3984 21.9731 39.3984 21.9731 39.3984 21.9731L39.9674 21.4105L39.9674 21.4105C39.9674 21.4105 39.9674 21.4105 39.9674 21.4105C39.9674 21.4105 39.9674 21.4105 39.9674 21.4105C39.9674 21.4105 39.9674 21.4105 39.9674 21.4105C39.9674 21.4105 39.9674 21.4105 39.9674 21.4105C39.9674 21.4105 39.9674 21.4105 39.9674 21.4105C39.9674 21.4105 39.9674 21.4105 39.9674 21.4105C39.9674 21.4105 39.9674 21.4105 39.9674 21.4105C39.9674 21.4105 39.9674 21.4105 39.9674 21.4105C39.9674 21.4105 39.9674 21.4105 39.9674 21.4105C39.9674 21.4105 39.9674 21.4105 39.9674 21.4105C39.9674 21.4105 39.9674 21.4105 39.9674 21.4105C39.9674 21.4105 39.9674 21.4105 39.9674 21.4105C39.9674 21.4105 39.9674 21.4105 39.9674 21.4105C39.4019 21.4072 39.3984 21.9731 39.3984 21.9731C39.3984 21.9731 39.3984 21.9731 39.3984 21.9731C39.3984 21.9731 39.3984 21.9731 39.3984 21.9731C39.3984 21.9731 39.3984 21.9731 39.3984 21.9731C39.3984 21.9731 39.3984 21.9731 39.3984 21.9731C39.3984 21.9731 39.3984 21.9731 39.3984 21.9731C39.3984 21.9731 39.3984 21.9731 39.3984 21.9731C39.3984 21.9731 39.3984 21.9731 39.3984 21.9731C39.3984 21.9731 39.3984 21.9731 39.3984 21.9731C39.3984 21.9731 39.3984 21.9731 39.3984 21.9731C39.3984 21.9731 39.3984 21.9731 39.3984 21.9731C39.3984 21.9731 39.3984 21.9731 39.3984 21.9731C39.3984 21.9731 39.3984 21.9731 39.3984 21.9731C39.3984 21.9731 39.3984 21.9731 39.3984 21.9731C39.3984 21.9731 39.3984 21.9731 39.3984 21.9731C39.3984 21.9731 39.3984 21.9731 39.3984 21.9731C39.3984 21.9731 39.3984 21.9731 39.3984 21.9731C39.3984 21.9731 39.4019 21.4072 39.9674 21.4105C39.9674 21.4105 39.9674 21.4105 39.9674 21.4105C39.9674 21.4105 39.9674 21.4105 39.9674 21.4105C39.9674 21.4105 39.9674 21.4105 39.9674 21.4105C39.9674 21.4105 39.9674 21.4105 39.9674 21.4105C39.9674 21.4105 39.9674 21.4105 39.9674 21.4105C39.9674 21.4105 39.9674 21.4105 39.9674 21.4105C39.9674 21.4105 39.9674 21.4105 39.9674 21.4105L39.3984 21.9731ZM39.7618 21.6027L39.2104 22.1826L39.2115 22.1836L39.7618 21.6027ZM48.9998 35.2522L48.2562 35.547L48.2586 35.5528L48.9998 35.2522ZM49.6723 37.0871L48.9123 37.3362L49.2424 38.3459L50.1211 37.7494L49.6723 37.0871ZM52.3723 35.2541L52.821 35.9164L53.3512 35.5565L53.1162 34.9602L52.3723 35.2541ZM52.0727 34.4942L51.3211 34.7677L51.3248 34.778L51.3288 34.7881L52.0727 34.4942ZM52.0721 34.4925L52.8237 34.2189L52.8236 34.2188L52.0721 34.4925ZM51.6718 33.498L52.4026 33.173L52.4026 33.1729L51.6718 33.498ZM51.671 33.4962L50.9309 33.7997L50.9354 33.8106L50.9401 33.8213L51.671 33.4962ZM51.6702 33.4944L52.4103 33.1909L52.4103 33.1909L51.6702 33.4944ZM51.2746 32.6073L50.5549 32.9564L50.5549 32.9564L51.2746 32.6073ZM51.2734 32.6049L50.5408 32.9259L50.547 32.9401L50.5538 32.954L51.2734 32.6049ZM51.2724 32.6024L50.5397 32.9234L50.5398 32.9235L51.2724 32.6024ZM51.2349 32.5196L50.5085 32.8545L50.5085 32.8545L51.2349 32.5196ZM51.2042 32.4522L51.9342 32.1251L51.9307 32.1175L51.2042 32.4522ZM50.8294 31.6877L50.1157 32.049L50.1157 32.049L50.8294 31.6877ZM50.8141 31.6575L51.5278 31.2962L51.5274 31.2954L50.8141 31.6575ZM50.814 31.6573L51.5273 31.2953L51.5268 31.2943L50.814 31.6573ZM50.2771 30.6108L50.9876 30.2432L50.9828 30.234L50.9778 30.2249L50.2771 30.6108ZM50.2287 30.5228L49.5281 30.9088L50.2287 30.5228ZM50.1319 30.3466L50.8328 29.9611L50.8182 29.9345L50.8016 29.9091L50.1319 30.3466ZM50.099 30.2871L50.8178 29.9363L50.8178 29.9363L50.099 30.2871ZM50.0821 30.2561L49.3757 30.6316L49.396 30.6697L49.4202 30.7055L50.0821 30.2561ZM50.0786 30.2496L49.3722 30.625L49.3722 30.625L50.0786 30.2496ZM49.4084 29.075L50.0964 28.6668L50.0964 28.6668L49.4084 29.075ZM49.4076 29.0736L48.7103 29.4657L48.7149 29.4738L48.7196 29.4818L49.4076 29.0736ZM49.4068 29.0722L50.1041 28.6801L50.1041 28.6801L49.4068 29.0722ZM49.2241 28.7694L48.5282 29.1638L48.5441 29.192L48.5623 29.2187L49.2241 28.7694ZM49.2214 28.7646L48.5254 29.1589L48.5254 29.1589L49.2214 28.7646ZM48.8953 28.221L48.215 28.6418L48.215 28.6418L48.8953 28.221ZM48.8586 28.1615L49.5391 27.7409L49.5391 27.7409L48.8586 28.1615ZM48.8576 28.1599L48.1661 28.5622L48.1715 28.5714L48.1771 28.5805L48.8576 28.1599ZM48.8567 28.1583L49.5482 27.7561L49.5482 27.7561L48.8567 28.1583ZM48.4242 27.4705L47.7015 27.8133L47.7278 27.8689L47.7623 27.9198L48.4242 27.4705ZM48.4196 27.4609L49.1423 27.118L49.1423 27.118L48.4196 27.4609ZM48.3297 27.3141L47.6206 27.6842L47.6419 27.7252L47.6679 27.7634L48.3297 27.3141ZM48.3261 27.307L47.6169 27.6771L47.6169 27.6771L48.3261 27.307ZM47.8444 26.5808L47.1542 26.9852L47.1676 27.0082L47.1825 27.0302L47.8444 26.5808ZM47.8421 26.5769L47.1519 26.9813L47.1519 26.9813L47.8421 26.5769ZM46.9136 25.2411L47.5539 24.7614L47.5539 24.7614L46.9136 25.2411ZM46.9117 25.2385L46.2498 25.6879L46.2603 25.7033L46.2715 25.7183L46.9117 25.2385ZM46.5693 24.7494L47.1909 24.2457L47.1909 24.2457L46.5693 24.7494ZM46.5656 24.7449L45.9037 25.1942L45.9227 25.2222L45.944 25.2485L46.5656 24.7449ZM46.2186 24.2828L45.6038 24.7947L45.6038 24.7947L46.2186 24.2828ZM46.2143 24.2776L45.5524 24.727L45.5744 24.7594L45.5995 24.7895L46.2143 24.2776ZM46.0258 24.0154L46.6434 23.5068L46.6434 23.5068L46.0258 24.0154ZM46.0243 24.0136L45.3896 24.5006L45.398 24.5116L45.4067 24.5222L46.0243 24.0136ZM46.0229 24.0117L46.6576 23.5247L46.6576 23.5247L46.0229 24.0117ZM45.8757 23.8201L45.2419 24.3083L45.2419 24.3083L45.8757 23.8201ZM45.8756 23.8199L46.5094 23.3317L46.5093 23.3316L45.8756 23.8199ZM45.7283 23.6281L46.363 23.141L46.363 23.141L45.7283 23.6281ZM45.7258 23.6249L45.0639 24.0743L45.077 24.0935L45.0911 24.112L45.7258 23.6249ZM45.7199 23.6161L46.3818 23.1668L46.3697 23.149L46.3567 23.1318L45.7199 23.6161ZM44.7554 22.4119L44.1486 22.9335L44.1486 22.9335L44.7554 22.4119ZM44.7503 22.406L44.0884 22.8553L44.1139 22.893L44.1436 22.9275L44.7503 22.406ZM44.7379 22.3877L45.3998 21.9384L45.379 21.9077L45.3555 21.8791L44.7379 22.3877ZM44.5343 22.1374L45.1559 21.6337L45.1559 21.6337L44.5343 22.1374ZM44.5297 22.1317L43.8679 22.581L43.8868 22.609L43.9081 22.6354L44.5297 22.1317ZM44.4561 22.0508L43.9127 22.6381L43.9127 22.6381L44.4561 22.0508ZM44.4507 22.0458L43.8471 22.571L43.8755 22.6036L43.9073 22.6331L44.4507 22.0458ZM44.4458 22.0402L43.8422 22.5654L43.8422 22.5654L44.4458 22.0402ZM44.2666 21.8359L43.667 22.3657L44.2666 21.8359ZM44.146 21.6989L44.7473 21.1711L44.7473 21.1711L44.146 21.6989ZM44.1448 21.6975L43.5299 22.2095L43.5366 22.2175L43.5435 22.2253L44.1448 21.6975ZM44.141 21.693L44.7559 21.1811L44.7559 21.1811L44.141 21.693ZM43.7707 21.2635L43.1857 21.8093L43.1857 21.8093L43.7707 21.2635ZM43.7693 21.262L43.1677 21.7895L43.1759 21.7987L43.1843 21.8078L43.7693 21.262ZM43.7679 21.2604L44.3695 20.7329L44.3695 20.7329L43.7679 21.2604ZM43.1682 20.5947L42.5879 21.1455L42.5879 21.1455L43.1682 20.5947ZM43.168 20.5944L42.5864 21.144L42.5877 21.1453L43.168 20.5944ZM43.0688 20.4892L43.6506 19.94L43.6506 19.94L43.0688 20.4892ZM42.6832 20.082L43.261 19.5285L43.2522 19.5195L42.6832 20.082ZM41.6382 19.0704L42.1841 18.4854L42.0978 18.4048L41.992 18.3526L41.6382 19.0704ZM41.6279 19.0648L42.0395 18.3785L42.0395 18.3785L41.6279 19.0648ZM41.5899 19.0319L42.2075 18.5233L42.2074 18.5232L41.5899 19.0319ZM41.5893 19.0311L42.2104 18.5268L42.1774 18.4861L42.1395 18.4501L41.5893 19.0311ZM40.9991 18.4714L41.5492 17.8904L41.0826 17.4478L40.5503 17.8091L40.9991 18.4714ZM38.3084 20.298L37.8596 19.6358L36.9768 20.2351L37.7988 20.915L38.3084 20.298ZM39.6829 21.6918L39.1315 22.2717L39.1326 22.2727L39.6829 21.6918ZM39.6613 21.6712L39.1102 22.2514L39.1102 22.2514L39.6613 21.6712ZM38.2185 20.3785L37.6552 20.9467L37.6813 20.9727L37.7097 20.9961L38.2185 20.3785ZM38.2066 20.3671L37.6655 20.9565L37.6655 20.9565L38.2066 20.3671ZM38.1629 20.3303L38.6638 19.7063L38.6638 19.7063L38.1629 20.3303ZM38.1062 20.2809L37.6574 19.6187L36.8598 20.1602L37.5384 20.8447L38.1062 20.2809ZM41.005 18.313L41.5551 17.732L41.0884 17.2894L40.5562 17.6508L41.005 18.313ZM41.6767 18.9501L42.3386 18.5008L42.2899 18.4289L42.2269 18.3692L41.6767 18.9501ZM41.6962 18.9618L42.2418 18.3766L42.0851 18.2303L41.8763 18.182L41.6962 18.9618ZM42.766 19.9968L43.3439 19.4433L43.335 19.4343L42.766 19.9968ZM43.1532 20.4057L43.735 19.8564L43.735 19.8564L43.1532 20.4057ZM43.2522 20.5107L42.6706 21.0602L42.6719 21.0616L43.2522 20.5107ZM43.8556 21.1804L43.254 21.7079L43.2621 21.7172L43.2705 21.7262L43.8556 21.1804ZM44.2296 21.6142L44.8445 21.1022L44.8445 21.1022L44.2296 21.6142ZM44.2336 21.6189L43.6187 22.1308L43.6254 22.1388L43.6322 22.1467L44.2336 21.6189ZM44.3532 21.7548L43.7537 22.2846L43.7537 22.2846L44.3532 21.7548ZM44.5338 21.9606L43.9302 22.4858L43.9586 22.5185L43.9904 22.5479L44.5338 21.9606ZM44.6245 22.0603L43.9626 22.5097L43.9816 22.5377L44.0029 22.564L44.6245 22.0603ZM44.6252 22.0612L44.0036 22.5648L44.0036 22.5649L44.6252 22.0612ZM44.8323 22.3159L45.4942 21.8666L45.4733 21.8358L45.4497 21.807L44.8323 22.3159ZM44.8439 22.333L44.182 22.7823L44.2075 22.82L44.2372 22.8545L44.8439 22.333ZM45.8158 23.5465L46.4777 23.0972L46.4656 23.0794L46.4526 23.0623L45.8158 23.5465ZM45.8216 23.5551L45.1597 24.0044L45.1728 24.0237L45.1869 24.0421L45.8216 23.5551ZM45.9688 23.7467L45.335 24.2349L45.9688 23.7467ZM46.1162 23.9387L45.4815 24.4257L45.4899 24.4367L45.4986 24.4473L46.1162 23.9387ZM46.3086 24.2055L45.6467 24.6548L45.6687 24.6873L45.6937 24.7174L46.3086 24.2055ZM46.6604 24.6735L45.9985 25.1229L46.0175 25.1509L46.0388 25.1772L46.6604 24.6735ZM47.0079 25.1693L46.346 25.6187L46.3565 25.6341L46.3677 25.6491L47.0079 25.1693ZM47.945 26.5181L47.2548 26.9225L47.2682 26.9454L47.2831 26.9674L47.945 26.5181ZM48.4322 27.2541L47.723 27.6242L47.7444 27.6652L47.7703 27.7035L48.4322 27.2541ZM48.5281 27.4127L47.8054 27.7556L47.8317 27.8111L47.8662 27.862L48.5281 27.4127ZM48.9598 28.0999L48.2683 28.5021L48.2737 28.5114L48.2793 28.5205L48.9598 28.0999ZM48.9965 28.1595L48.3162 28.5803L48.9965 28.1595ZM49.3253 28.7075L48.6293 29.1019L48.6452 29.13L48.6634 29.1568L49.3253 28.7075ZM49.5109 29.0155L48.8137 29.4076L48.8182 29.4157L48.8229 29.4237L49.5109 29.0155ZM50.1843 30.1958L49.4779 30.5712L49.4981 30.6093L49.5224 30.6451L50.1843 30.1958ZM50.2051 30.234L50.9243 29.8838L50.9243 29.8838L50.2051 30.234ZM50.2339 30.286L50.9348 29.9005L50.9167 29.8677L50.8957 29.8367L50.2339 30.286ZM50.3333 30.467L51.034 30.081L51.034 30.081L50.3333 30.467ZM50.3827 30.5568L51.0931 30.1891L51.0884 30.1799L51.0834 30.1709L50.3827 30.5568ZM50.9209 31.6058L51.6345 31.2444L51.6336 31.2427L50.9209 31.6058ZM50.9367 31.6371L50.223 31.9984L50.223 31.9984L50.9367 31.6371ZM51.3136 32.406L52.0437 32.0791L52.0401 32.0714L51.3136 32.406ZM51.3429 32.4703L50.6163 32.8048L50.6163 32.8048L51.3429 32.4703ZM51.3825 32.5579L50.6499 32.8789L50.6561 32.8931L50.6629 32.9071L51.3825 32.5579ZM51.7816 33.4528L51.0416 33.7563L51.046 33.7672L51.0508 33.7779L51.7816 33.4528ZM52.1854 34.456L51.4339 34.7297L51.4376 34.7399L51.4415 34.7499L52.1854 34.456ZM52.5211 35.3075L52.9699 35.9697L53.5 35.6098L53.265 35.0136L52.5211 35.3075ZM49.614 37.281L48.8678 37.5691L49.2298 38.5088L50.0628 37.9433L49.614 37.281ZM49.5942 37.2263L48.8389 37.4895L48.8389 37.4895L49.5942 37.2263ZM49.5744 37.1715L48.8139 37.419L48.8205 37.4395L48.8283 37.4596L49.5744 37.1715ZM49.5697 37.1568L48.8093 37.4047L48.8093 37.4048L49.5697 37.1568ZM48.888 35.2928L48.1444 35.5876L48.1468 35.5934L48.888 35.2928ZM39.7046 21.7123L39.1537 22.2927L39.1537 22.2927L39.7046 21.7123ZM45.7426 27.5031C44.0856 25.0579 42.2343 22.8456 40.3121 21.0218L39.2115 22.1836C41.0405 23.9189 42.8187 26.0405 44.4188 28.4018L45.7426 27.5031ZM49.7433 34.9573C48.7633 32.4805 47.394 29.9402 45.7426 27.5031L44.4188 28.4018C46.0133 30.7548 47.3245 33.1921 48.2562 35.547L49.7433 34.9573ZM50.4323 36.838C50.2281 36.2135 49.9973 35.5849 49.741 34.9515L48.2586 35.5528C48.5021 36.1545 48.7202 36.7488 48.9123 37.3362L50.4323 36.838ZM51.9235 34.5919L49.2235 36.4248L50.1211 37.7494L52.821 35.9164L51.9235 34.5919ZM51.3205 34.766L51.3211 34.7677L52.8243 34.2207L52.8237 34.2189L51.3205 34.766ZM50.9409 33.8231C51.0838 34.1451 51.2079 34.4562 51.3205 34.7662L52.8236 34.2188C52.6993 33.8767 52.5616 33.5311 52.4026 33.173L50.9409 33.8231ZM50.9401 33.8213L50.941 33.8231L52.4026 33.1729L52.4018 33.1711L50.9401 33.8213ZM50.9302 33.7978L50.9309 33.7997L52.411 33.1927L52.4103 33.1909L50.9302 33.7978ZM50.5549 32.9564C50.6908 33.237 50.8141 33.5142 50.9302 33.7978L52.4103 33.1909C52.2819 32.8771 52.145 32.5694 51.9943 32.2581L50.5549 32.9564ZM50.5538 32.954L50.5549 32.9564L51.9943 32.2581L51.9931 32.2557L50.5538 32.954ZM50.5398 32.9235L50.5408 32.9259L52.006 32.2838L52.005 32.2814L50.5398 32.9235ZM50.5085 32.8545C50.5219 32.8836 50.5312 32.9039 50.5397 32.9234L52.005 32.2814C51.9894 32.2456 51.9737 32.2115 51.9613 32.1848L50.5085 32.8545ZM50.4742 32.7793C50.4867 32.8071 50.4987 32.8332 50.5085 32.8545L51.9613 32.1848C51.9511 32.1624 51.9426 32.1439 51.9341 32.1251L50.4742 32.7793ZM50.1157 32.049C50.2474 32.3095 50.3691 32.5507 50.4777 32.7869L51.9307 32.1175C51.8076 31.8497 51.6721 31.5818 51.543 31.3263L50.1157 32.049ZM50.1005 32.0188L50.1157 32.049L51.543 31.3263L51.5278 31.2962L50.1005 32.0188ZM50.1008 32.0194L50.1008 32.0196L51.5274 31.2954L51.5273 31.2953L50.1008 32.0194ZM49.5667 30.9784C49.751 31.3353 49.9294 31.6823 50.1013 32.0204L51.5268 31.2943C51.3527 30.9518 51.1726 30.6015 50.9876 30.2432L49.5667 30.9784ZM49.5281 30.9088C49.5442 30.9382 49.5604 30.9675 49.5764 30.9967L50.9778 30.2249C50.9617 30.1956 50.9455 30.1661 50.9294 30.1368L49.5281 30.9088ZM49.431 30.7322C49.4633 30.7909 49.4958 30.85 49.5281 30.9088L50.9294 30.1368C50.897 30.0779 50.8647 30.0193 50.8328 29.9611L49.431 30.7322ZM49.3801 30.6379C49.3893 30.6569 49.4179 30.7163 49.4622 30.7841L50.8016 29.9091C50.8153 29.93 50.8229 29.9467 50.8178 29.9363L49.3801 30.6379ZM49.4244 30.7116C49.3982 30.6731 49.3819 30.6411 49.3788 30.6351C49.376 30.6297 49.3751 30.6276 49.3801 30.6379L50.8178 29.9363C50.8138 29.928 50.8074 29.9148 50.801 29.9023C50.7942 29.8892 50.776 29.8541 50.7481 29.8129L49.4244 30.7116ZM49.4202 30.7055L49.4244 30.7116L50.7481 29.8129L50.744 29.8068L49.4202 30.7055ZM49.3722 30.625L49.3757 30.6316L50.7884 29.8807L50.7849 29.8741L49.3722 30.625ZM48.7204 29.4832C48.957 29.8827 49.1758 30.2546 49.3722 30.625L50.7849 29.8741C50.5685 29.4661 50.3315 29.0638 50.0964 28.6668L48.7204 29.4832ZM48.7196 29.4818L48.7204 29.4832L50.0964 28.6668L50.0956 28.6654L48.7196 29.4818ZM48.7096 29.4643L48.7103 29.4657L50.1049 28.6815L50.1041 28.6801L48.7096 29.4643ZM48.5654 29.2234C48.6097 29.2888 48.6539 29.3651 48.7096 29.4643L50.1041 28.6801C50.0484 28.5809 49.9752 28.4516 49.8892 28.3247L48.5654 29.2234ZM48.5623 29.2187L48.5654 29.2234L49.8892 28.3247L49.886 28.3201L48.5623 29.2187ZM48.5254 29.1589L48.5282 29.1638L49.9201 28.375L49.9174 28.3702L48.5254 29.1589ZM48.215 28.6418C48.3282 28.8252 48.4306 28.9913 48.5254 29.1589L49.9174 28.3702C49.8049 28.1713 49.6861 27.979 49.5756 27.8001L48.215 28.6418ZM48.1781 28.5821C48.1904 28.6021 48.2027 28.6221 48.215 28.6418L49.5756 27.8001C49.5633 27.7803 49.5512 27.7606 49.5391 27.7409L48.1781 28.5821ZM48.1771 28.5805L48.1781 28.5821L49.5391 27.7409L49.5381 27.7394L48.1771 28.5805ZM48.1652 28.5606L48.1661 28.5622L49.5491 27.7577L49.5482 27.7561L48.1652 28.5606ZM47.7682 27.9285C47.9111 28.1394 48.0417 28.3478 48.1652 28.5606L49.5482 27.7561C49.4062 27.5116 49.2559 27.2717 49.092 27.0299L47.7682 27.9285ZM47.7623 27.9198L47.7682 27.9285L49.092 27.0299L49.086 27.0211L47.7623 27.9198ZM47.697 27.8038L47.7015 27.8133L49.1468 27.1276L49.1423 27.118L47.697 27.8038ZM47.6723 27.77C47.6812 27.7832 47.6877 27.7927 47.6932 27.8011C47.6986 27.8092 47.7018 27.8142 47.7037 27.8172C47.7073 27.823 47.7032 27.817 47.697 27.8038L49.1423 27.118C49.0901 27.0077 49.0258 26.9152 48.9961 26.8713L47.6723 27.77ZM47.6679 27.7634L47.6723 27.77L48.9961 26.8713L48.9916 26.8648L47.6679 27.7634ZM47.6169 27.6771L47.6206 27.6842L49.0389 26.944L49.0352 26.937L47.6169 27.6771ZM47.5421 27.5607C47.593 27.636 47.6077 27.6595 47.6169 27.6771L49.0353 26.937C48.9763 26.8237 48.9082 26.7245 48.8658 26.6621L47.5421 27.5607ZM47.1519 26.9813L47.1542 26.9852L48.5346 26.1764L48.5323 26.1725L47.1519 26.9813ZM46.9568 26.6801C47.0398 26.8024 47.0973 26.8879 47.1519 26.9813L48.5323 26.1725C48.4467 26.0262 48.3596 25.898 48.2806 25.7814L46.9568 26.6801ZM46.2734 25.7208C46.5108 26.0382 46.7348 26.3524 46.9568 26.6801L48.2806 25.7814C48.0443 25.4327 47.8058 25.0982 47.5539 24.7614L46.2734 25.7208ZM46.2715 25.7183L46.2734 25.7208L47.5539 24.7614L47.552 24.7588L46.2715 25.7183ZM45.9477 25.2531C45.9904 25.3059 46.0274 25.3596 46.087 25.4477L47.4108 24.549C47.3549 24.4664 47.2823 24.3587 47.1909 24.2457L45.9477 25.2531ZM45.944 25.2485L45.9477 25.2531L47.1909 24.2457L47.1872 24.2412L45.944 25.2485ZM45.9005 25.1894L45.9037 25.1942L47.2275 24.2955L47.2242 24.2907L45.9005 25.1894ZM45.6038 24.7947C45.7093 24.9217 45.8084 25.0536 45.9005 25.1894L47.2242 24.2907C47.1028 24.1116 46.9724 23.9379 46.8335 23.7709L45.6038 24.7947ZM45.5995 24.7895L45.6038 24.7947L46.8335 23.7709L46.8292 23.7657L45.5995 24.7895ZM45.4082 24.524C45.4414 24.5644 45.4802 24.6203 45.5429 24.7128L46.8667 23.8142C46.8128 23.7348 46.7322 23.6148 46.6434 23.5068L45.4082 24.524ZM45.4067 24.5222L45.4082 24.524L46.6434 23.5068L46.6419 23.505L45.4067 24.5222ZM45.3882 24.4988L45.3896 24.5006L46.659 23.5265L46.6576 23.5247L45.3882 24.4988ZM45.2419 24.3083C45.2906 24.3717 45.3387 24.4342 45.3882 24.4988L46.6576 23.5247C46.6071 23.4587 46.5581 23.395 46.5095 23.3319L45.2419 24.3083ZM45.2417 24.3081L45.2419 24.3083L46.5096 23.3319L46.5094 23.3317L45.2417 24.3081ZM45.0936 24.1151C45.1442 24.1812 45.1933 24.2451 45.2418 24.3081L46.5093 23.3316C46.4607 23.2684 46.4125 23.2058 46.363 23.141L45.0936 24.1151ZM45.0911 24.112L45.0936 24.1151L46.363 23.141L46.3605 23.1379L45.0911 24.112ZM44.1486 22.9335C44.4611 23.2976 44.7734 23.6926 45.0831 24.1005L46.3567 23.1318C46.0357 22.7091 45.7025 22.287 45.3621 21.8904L44.1486 22.9335ZM44.1436 22.9275L44.1486 22.9335L45.3621 21.8904L45.357 21.8845L44.1436 22.9275ZM43.9127 22.641C43.9816 22.7262 44.0535 22.8151 44.1204 22.8964L45.3555 21.8791C45.2934 21.8036 45.2258 21.72 45.1559 21.6337L43.9127 22.641ZM43.8646 22.5762L43.8679 22.581L45.1916 21.6823L45.1884 21.6775L43.8646 22.5762ZM43.9127 22.6381C43.917 22.6421 43.9167 22.6422 43.9126 22.6378C43.9104 22.6354 43.9053 22.6298 43.8984 22.6214C43.8919 22.6137 43.8795 22.5982 43.8646 22.5762L45.1884 21.6775C45.1201 21.5768 45.0358 21.4971 44.9995 21.4634L43.9127 22.6381ZM43.9073 22.6331L43.9127 22.6381L44.9995 21.4635L44.9941 21.4584L43.9073 22.6331ZM43.8422 22.5654L43.8471 22.571L45.0542 21.5206L45.0494 21.515L43.8422 22.5654ZM43.667 22.3657C43.7266 22.4333 43.7832 22.4974 43.8422 22.5654L45.0494 21.515C44.9857 21.4417 44.9252 21.3731 44.8661 21.3061L43.667 22.3657ZM43.5446 22.2267C43.5869 22.2749 43.6276 22.3211 43.667 22.3657L44.8661 21.3061C44.8265 21.2612 44.7875 21.217 44.7473 21.1711L43.5446 22.2267ZM43.5435 22.2253L43.5446 22.2267L44.7473 21.1711L44.7461 21.1698L43.5435 22.2253ZM43.1857 21.8093C43.2907 21.9221 43.3984 22.0512 43.5262 22.205L44.7559 21.1811C44.6342 21.0348 44.4972 20.8695 44.3558 20.7177L43.1857 21.8093ZM43.1843 21.8078L43.1857 21.8093L44.3558 20.7177L44.3543 20.7162L43.1843 21.8078ZM43.1664 21.7879L43.1677 21.7895L44.3709 20.7345L44.3695 20.7329L43.1664 21.7879ZM42.5879 21.1455C42.7744 21.3423 42.9621 21.5546 43.1664 21.7879L44.3695 20.7329C44.1647 20.499 43.9588 20.2657 43.7485 20.0438L42.5879 21.1455ZM42.5877 21.1453L42.5879 21.1455L43.7485 20.0438L43.7483 20.0436L42.5877 21.1453ZM42.487 21.0385C42.52 21.0735 42.5532 21.1087 42.5864 21.144L43.7495 20.0449C43.7165 20.0099 43.6836 19.975 43.6506 19.94L42.487 21.0385ZM42.1053 20.6355C42.229 20.7648 42.3562 20.8997 42.487 21.0385L43.6506 19.94C43.5205 19.802 43.3893 19.6628 43.261 19.5286L42.1053 20.6355ZM41.0923 19.6554C41.427 19.9682 41.7671 20.293 42.1141 20.6446L43.2522 19.5195C42.8843 19.1468 42.527 18.8059 42.1841 18.4854L41.0923 19.6554ZM41.2162 19.7511C41.24 19.7654 41.2629 19.7777 41.2844 19.7882L41.992 18.3526C42.0069 18.3599 42.0228 18.3685 42.0395 18.3785L41.2162 19.7511ZM40.9723 19.5404C41.0219 19.6008 41.1008 19.6818 41.2163 19.7511L42.0395 18.3785C42.12 18.4268 42.1743 18.4829 42.2075 18.5233L40.9723 19.5404ZM40.9682 19.5355C40.9696 19.5372 40.971 19.5388 40.9724 19.5405L42.2074 18.5232C42.2084 18.5244 42.2094 18.5256 42.2104 18.5268L40.9682 19.5355ZM40.4489 19.0524L41.0391 19.6121L42.1395 18.4501L41.5492 17.8904L40.4489 19.0524ZM38.7572 20.9603L41.4479 19.1336L40.5503 17.8091L37.8596 19.6358L38.7572 20.9603ZM40.3132 21.0229C39.8244 20.5574 39.33 20.1046 38.8179 19.6811L37.7988 20.915C38.2707 21.3053 38.7351 21.7299 39.2104 22.1825L40.3132 21.0229ZM39.1102 22.2514C39.1173 22.2581 39.1244 22.2649 39.1315 22.2717L40.2343 21.1119C40.227 21.105 40.2196 21.098 40.2123 21.091L39.1102 22.2514ZM37.7097 20.9961C38.177 21.3816 38.6376 21.8018 39.1102 22.2514L40.2123 21.091C39.7259 20.6284 39.2351 20.1798 38.7273 19.7609L37.7097 20.9961ZM37.6655 20.9565C37.6626 20.9539 37.6591 20.9506 37.6552 20.9467L38.7818 19.8102C38.77 19.7985 38.7586 19.7877 38.7477 19.7777L37.6655 20.9565ZM37.6621 20.9544C37.6659 20.9575 37.6682 20.9593 37.6703 20.961C37.6722 20.9626 37.6731 20.9633 37.6733 20.9635C37.6737 20.9638 37.6706 20.9612 37.6655 20.9565L38.7478 19.7777C38.7107 19.7436 38.6756 19.7158 38.6638 19.7063L37.6621 20.9544ZM37.5384 20.8447C37.5934 20.9002 37.6469 20.9422 37.6621 20.9544L38.6638 19.7063C38.6586 19.7021 38.6562 19.7001 38.6541 19.6985C38.6523 19.697 38.6524 19.697 38.6535 19.698C38.6558 19.7 38.6636 19.7067 38.674 19.7172L37.5384 20.8447ZM42.2269 18.3692L41.5551 17.732L40.4548 18.894L41.1266 19.5311L42.2269 18.3692ZM41.8763 18.182C41.8646 18.1793 41.8859 18.184 41.9087 18.1905C41.9345 18.1979 42.0095 18.2203 42.0951 18.2717C42.1918 18.3298 42.2575 18.3973 42.2979 18.4465C42.3257 18.4803 42.3478 18.5143 42.3386 18.5008L41.0148 19.3995C41.015 19.3997 41.0163 19.4016 41.0177 19.4037C41.0192 19.4059 41.0219 19.4098 41.0252 19.4145C41.0312 19.423 41.0445 19.4416 41.0627 19.4637C41.1052 19.5154 41.1728 19.5848 41.2719 19.6443C41.3599 19.6972 41.4378 19.7207 41.4677 19.7292C41.4843 19.734 41.4978 19.7373 41.5038 19.7388C41.5098 19.7402 41.5156 19.7415 41.5162 19.7417L41.8763 18.182ZM43.335 19.4343C42.9578 19.0521 42.5919 18.7035 42.2418 18.3766L41.1506 19.5471C41.4926 19.8664 41.841 20.1987 42.197 20.5593L43.335 19.4343ZM43.735 19.8564C43.6046 19.7181 43.4728 19.5782 43.3438 19.4434L42.1882 20.5503C42.3125 20.6803 42.4403 20.8159 42.5714 20.955L43.735 19.8564ZM43.8337 19.9612C43.8008 19.9263 43.7679 19.8914 43.735 19.8564L42.5714 20.955C42.6043 20.9899 42.6375 21.0251 42.6706 21.0602L43.8337 19.9612ZM44.4571 20.6529C44.2523 20.419 44.0448 20.1839 43.8325 19.9598L42.6719 21.0616C42.8604 21.2605 43.0497 21.4746 43.254 21.7079L44.4571 20.6529ZM44.8445 21.1022C44.7237 20.9569 44.5846 20.7892 44.4406 20.6346L43.2705 21.7262C43.3783 21.8419 43.4881 21.9736 43.6148 22.1261L44.8445 21.1022ZM44.8484 21.107L44.8445 21.1022L43.6148 22.1261L43.6187 22.1308L44.8484 21.107ZM44.9527 21.225C44.9131 21.1801 44.8744 21.1362 44.8349 21.0911L43.6322 22.1467C43.6738 22.1941 43.7143 22.24 43.7537 22.2846L44.9527 21.225ZM45.1374 21.4354C45.0735 21.3619 45.0122 21.2924 44.9527 21.225L43.7537 22.2846C43.8137 22.3526 43.871 22.4176 43.9302 22.4858L45.1374 21.4354ZM45.2864 21.611C45.2091 21.4969 45.1154 21.4087 45.0772 21.3733L43.9904 22.5479C43.9966 22.5537 43.9986 22.5558 43.9971 22.5542C43.9961 22.5532 43.9927 22.5495 43.9875 22.5433C43.9827 22.5373 43.9736 22.526 43.9626 22.5097L45.2864 21.611ZM45.2468 21.5575L45.2461 21.5567L44.0029 22.564L44.0036 22.5648L45.2468 21.5575ZM45.4497 21.807C45.387 21.7309 45.3183 21.6459 45.2468 21.5575L44.0036 22.5649C44.074 22.652 44.1472 22.7425 44.215 22.8248L45.4497 21.807ZM45.5058 21.8836L45.4942 21.8666L44.1705 22.7653L44.182 22.7823L45.5058 21.8836ZM46.4526 23.0623C46.13 22.6373 45.7942 22.2118 45.4506 21.8115L44.2372 22.8545C44.5528 23.2223 44.8676 23.6207 45.179 24.0308L46.4526 23.0623ZM46.4835 23.1057L46.4777 23.0972L45.1539 23.9959L45.1597 24.0044L46.4835 23.1057ZM46.6026 23.2585C46.5539 23.1952 46.5058 23.1326 46.4563 23.068L45.1869 24.0421C45.2374 24.1081 45.2865 24.1719 45.335 24.2349L46.6026 23.2585ZM46.7509 23.4516C46.7003 23.3855 46.6512 23.3217 46.6026 23.2585L45.335 24.2349C45.3837 24.2983 45.4319 24.361 45.4815 24.4257L46.7509 23.4516ZM46.9647 23.7476C46.9115 23.6691 46.8273 23.5438 46.7338 23.4301L45.4986 24.4473C45.5366 24.4935 45.579 24.555 45.6409 24.6463L46.9647 23.7476ZM46.9704 23.7562L46.9647 23.7476L45.6409 24.6463L45.6467 24.6548L46.9704 23.7562ZM47.3223 24.2242C47.1983 24.0413 47.0651 23.8641 46.9234 23.6936L45.6937 24.7174C45.8021 24.8479 45.9039 24.9833 45.9985 25.1229L47.3223 24.2242ZM47.5088 24.4824C47.4531 24.4002 47.3775 24.2879 47.282 24.1699L46.0388 25.1772C46.0857 25.2352 46.1257 25.2936 46.1851 25.3811L47.5088 24.4824ZM47.6698 24.72L47.5088 24.4824L46.1851 25.3811L46.346 25.6187L47.6698 24.72ZM48.3786 25.7148C48.1411 25.3643 47.9013 25.0281 47.6482 24.6896L46.3677 25.6491C46.6063 25.9681 46.8316 26.2841 47.0548 26.6135L48.3786 25.7148ZM48.6352 26.1137C48.547 25.9628 48.4573 25.831 48.3786 25.7148L47.0548 26.6135C47.1374 26.7354 47.1975 26.8245 47.2548 26.9225L48.6352 26.1137ZM48.9638 26.5955L48.6069 26.0687L47.2831 26.9674L47.6401 27.4942L48.9638 26.5955ZM49.1414 26.8841C49.0782 26.7627 49.0057 26.6573 48.9638 26.5955L47.6401 27.4942C47.6901 27.5681 47.7095 27.5983 47.723 27.6242L49.1414 26.8841ZM49.2508 27.0698C49.1934 26.9486 49.1234 26.8481 49.0941 26.8048L47.7703 27.7035C47.7794 27.7168 47.7858 27.7264 47.7919 27.7355C47.7976 27.7442 47.8015 27.7502 47.8043 27.7547C47.81 27.7638 47.8089 27.7629 47.8054 27.7556L49.2508 27.0698ZM49.6513 27.6977C49.5077 27.4504 49.3557 27.2079 49.19 26.9633L47.8662 27.862C48.0109 28.0755 48.1432 28.2866 48.2683 28.5021L49.6513 27.6977ZM49.6769 27.7386C49.6646 27.7187 49.6524 27.699 49.6403 27.6794L48.2793 28.5205C48.2916 28.5405 48.304 28.5605 48.3162 28.5803L49.6769 27.7386ZM50.0213 28.3131C49.9074 28.1118 49.7872 27.9172 49.6769 27.7386L48.3162 28.5803C48.4292 28.7633 48.5331 28.9318 48.6293 29.1019L50.0213 28.3131ZM50.2082 28.6234C50.1524 28.5241 50.0768 28.3904 49.9872 28.2581L48.6634 29.1568C48.7113 29.2275 48.758 29.3085 48.8137 29.4076L50.2082 28.6234ZM50.8906 29.8203C50.6724 29.409 50.4339 29.0041 50.1989 28.6073L48.8229 29.4237C49.0594 29.823 49.2797 30.1976 49.4779 30.5712L50.8906 29.8203ZM50.9243 29.8838C50.9226 29.8804 50.8919 29.814 50.8461 29.7464L49.5224 30.6451C49.5049 30.6193 49.4935 30.5985 49.4885 30.5889C49.4842 30.581 49.4814 30.5749 49.4859 30.5842L50.9243 29.8838ZM50.8957 29.8367C50.9084 29.8553 50.9172 29.8708 50.9223 29.8803C50.9263 29.8879 50.929 29.8936 50.9243 29.8838L49.4859 30.5842C49.4926 30.598 49.5234 30.6636 49.572 30.7353L50.8957 29.8367ZM51.034 30.081C51.0007 30.0205 50.9676 29.9602 50.9348 29.9005L49.533 30.6715C49.5661 30.7319 49.5994 30.7926 49.6327 30.853L51.034 30.081ZM51.0834 30.1709C51.0669 30.1409 51.0504 30.1109 51.034 30.081L49.6327 30.853C49.6491 30.8829 49.6656 30.9128 49.682 30.9426L51.0834 30.1709ZM51.6336 31.2427C51.4591 30.8993 51.2785 30.5482 51.0931 30.1891L49.6722 30.9244C49.8569 31.282 50.0357 31.6298 50.2081 31.9689L51.6336 31.2427ZM51.6503 31.2757L51.6345 31.2444L50.2072 31.9671L50.223 31.9984L51.6503 31.2757ZM52.0401 32.0714C51.9159 31.801 51.7792 31.5308 51.6503 31.2757L50.223 31.9984C50.3545 32.2585 50.4773 32.5019 50.5871 32.7406L52.0401 32.0714ZM52.0695 32.1358C52.0589 32.1127 52.0506 32.0948 52.0436 32.0791L50.5836 32.7329C50.5946 32.7576 50.6065 32.7835 50.6163 32.8048L52.0695 32.1358ZM52.1152 32.2369C52.0996 32.2013 52.0824 32.164 52.0695 32.1358L50.6163 32.8048C50.6307 32.8362 50.6414 32.8595 50.6499 32.8789L52.1152 32.2369ZM52.5217 33.1493C52.3923 32.833 52.2542 32.5227 52.1022 32.2088L50.6629 32.9071C50.8 33.1903 50.9245 33.4701 51.0416 33.7563L52.5217 33.1493ZM52.937 34.1823C52.8117 33.8375 52.6728 33.489 52.5125 33.1278L51.0508 33.7779C51.1951 34.103 51.3203 34.417 51.4339 34.7297L52.937 34.1823ZM53.265 35.0136L52.9294 34.1621L51.4415 34.7499L51.7772 35.6014L53.265 35.0136ZM48.8389 37.4895C48.8447 37.5062 48.8548 37.5354 48.8678 37.5691L50.3602 36.9929C50.358 36.9872 50.3559 36.9814 50.3495 36.9631L48.8389 37.4895ZM48.8283 37.4596C48.8305 37.4654 48.8326 37.4711 48.8389 37.4895L50.3495 36.9631C50.3437 36.9464 50.3336 36.9172 50.3206 36.8834L48.8283 37.4596ZM48.8093 37.4048C48.8108 37.4095 48.8123 37.4142 48.8139 37.419L50.335 36.924C50.3334 36.919 50.3317 36.9139 50.3301 36.9088L48.8093 37.4048ZM48.1468 35.5934C48.3943 36.205 48.6153 36.8085 48.8093 37.4047L50.3301 36.9088C50.1238 36.2747 49.8898 35.6359 49.6292 34.9921L48.1468 35.5934ZM44.3208 28.4683C45.9105 30.8142 47.2168 33.2429 48.1444 35.5876L49.6315 34.9979C48.6556 32.5313 47.2912 29.9996 45.6445 27.5696L44.3208 28.4683ZM39.1537 22.2927C40.9673 24.0168 42.7317 26.1234 44.3208 28.4683L45.6445 27.5696C43.9989 25.1411 42.1617 22.9442 40.2554 21.132L39.1537 22.2927ZM39.1326 22.2727C39.1423 22.2819 39.1462 22.2856 39.1537 22.2927L40.2554 21.132C40.2485 21.1254 40.2379 21.1154 40.2332 21.1109L39.1326 22.2727ZM51.3288 34.7881L51.6284 35.548L53.1162 34.9602L52.8166 34.2003L51.3288 34.7881ZM47.1825 27.0302L47.5421 27.5607L48.8658 26.6621L48.5063 26.1315L47.1825 27.0302ZM46.087 25.4477L46.2498 25.6879L47.5736 24.7892L47.4108 24.549L46.087 25.4477ZM45.5429 24.7128L45.5524 24.727L46.8762 23.8283L46.8667 23.8142L45.5429 24.7128ZM45.058 24.0655L45.0639 24.0743L46.3877 23.1756L46.3818 23.1668L45.058 24.0655ZM44.076 22.8371L44.0884 22.8553L45.4122 21.9567L45.3998 21.9384L44.076 22.8371ZM43.9081 22.6354L43.9127 22.641L45.1559 21.6337L45.1513 21.628L43.9081 22.6354ZM43.5262 22.205L43.5299 22.2095L44.7596 21.1856L44.7559 21.1811L43.5262 22.205ZM40.5562 17.6508L37.6574 19.6187L38.555 20.9432L41.4537 18.9753L40.5562 17.6508ZM50.0628 37.9433L52.9699 35.9697L52.0723 34.6452L49.1652 36.6188L50.0628 37.9433Z" fill="#C47A2C" mask="url(#path-3-outside-2_974_11774)"/>
<mask id="path-5-outside-3_974_11774" maskUnits="userSpaceOnUse" x="1.76958" y="18.1417" width="49.0679" height="45.3803" fill="black">
<rect fill="white" x="1.76958" y="18.1417" width="49.0679" height="45.3803"/>
<path fill-rule="evenodd" clip-rule="evenodd" d="M47.1308 40.3773L47.0862 40.1967C47.0353 39.9904 46.9842 39.787 46.9252 39.5906L46.9222 39.5806L46.9208 39.5703C46.9158 39.533 46.9091 39.5086 46.9005 39.478L46.8994 39.4743L46.8986 39.4704C46.8638 39.3113 46.8141 39.1482 46.7619 38.9977L46.7576 38.9852L46.7558 38.9722C46.7526 38.9487 46.7434 38.924 46.7299 38.8877C46.7271 38.8801 46.724 38.872 46.7208 38.8632L46.7084 38.8293L46.712 38.8101C46.6117 38.4707 46.4907 38.1333 46.368 37.791L46.3601 37.769L46.3589 37.7645C46.3337 37.6748 46.3059 37.5983 46.2709 37.5102L46.2702 37.5083L46.2695 37.5063C45.6697 35.843 44.8643 34.153 43.9173 32.4943L43.9167 32.4933L43.9162 32.4922C43.8116 32.3011 43.7093 32.1326 43.5944 31.9443L43.5938 31.9434L43.5934 31.9426C42.8316 30.6516 41.975 29.3876 41.0583 28.2017L41.0577 28.2009L41.0572 28.2001C40.9248 28.0236 40.8063 27.8661 40.6675 27.6982L40.6664 27.6969L40.6653 27.6955C40.0974 26.9692 39.5014 26.2749 38.8827 25.6218L38.8823 25.6214C38.7001 25.4274 38.5197 25.2355 38.3315 25.0494L38.3303 25.0482L38.3292 25.047C37.8594 24.5578 37.3783 24.0889 36.8841 23.656L36.883 23.6549C36.5306 23.3389 36.1753 23.037 35.8173 22.7497L35.8166 22.7491L35.8158 22.7485C35.6169 22.5839 35.4152 22.433 35.1978 22.2783L35.1944 22.2759L35.1911 22.2732C34.9156 22.0492 34.6136 21.842 34.3067 21.648L34.3029 21.6456L34.2993 21.643C34.1762 21.5528 34.0389 21.4592 33.9066 21.3744L33.3985 21.0648L5.16628 40.2311L5.27122 40.8274C5.27124 40.8275 5.27126 40.8276 5.27128 40.8277C5.30761 41.0298 5.34937 41.2378 5.4004 41.4405L5.40076 41.4419L5.40108 41.4434C5.50369 41.8931 5.61199 42.3484 5.75091 42.7929L5.75144 42.7946L5.75192 42.7963C5.81491 43.0187 5.88313 43.2489 5.9598 43.4716L5.96063 43.474L5.96137 43.4765C6.12155 44.0083 6.32587 44.5492 6.53714 45.1033C6.70004 45.5102 6.87715 45.9206 7.0609 46.3403L7.06098 46.3404C7.26435 46.8068 7.49648 47.2796 7.73061 47.7551C8.44091 49.1566 9.27012 50.5658 10.1739 51.8995C11.0777 53.2332 12.0791 54.5255 13.1173 55.7043C13.1174 55.7045 13.1176 55.7046 13.1177 55.7048L13.1411 55.7307C13.4886 56.1153 13.8333 56.4968 14.1829 56.8503L14.183 56.8504C14.5049 57.177 14.8201 57.493 15.1375 57.7949C15.5737 58.1963 16.0008 58.5861 16.4348 58.9321L16.4366 58.9336L16.4384 58.9351C16.6175 59.0886 16.8053 59.2372 16.9887 59.3784L16.9901 59.3795L16.9914 59.3806C17.3526 59.6741 17.7349 59.9427 18.1148 60.205L18.1159 60.2058L18.117 60.2066C18.2859 60.3284 18.4642 60.4443 18.6382 60.5533C18.6384 60.5535 18.6386 60.5536 18.6388 60.5537L19.1532 60.8716L47.3854 41.7053L47.2859 41.1182C47.2859 41.118 47.2858 41.1177 47.2858 41.1175C47.2418 40.8745 47.1903 40.6212 47.1317 40.3767L47.1308 40.3773ZM47.2469 40.2998C47.236 40.2553 47.2249 40.211 47.2135 40.1671C47.2134 40.1666 47.2132 40.1661 47.2131 40.1656C47.2131 40.1656 47.2131 40.1655 47.213 40.1654L47.2126 40.1658C47.2126 40.1657 47.2125 40.1656 47.2125 40.1656C47.2124 40.1651 47.2123 40.1646 47.2122 40.1641C47.2012 40.1198 47.1902 40.0754 47.1791 40.0311C47.1387 39.87 47.0968 39.7097 47.0498 39.5533C47.0436 39.5066 47.0348 39.475 47.0258 39.4429C46.9895 39.2771 46.9381 39.1087 46.8848 38.9552C46.8795 38.9158 46.8641 38.8747 46.8504 38.8383C46.8478 38.8315 46.8453 38.825 46.843 38.8186L46.8458 38.8039C46.7426 38.4505 46.617 38.1001 46.4911 37.749L46.4842 37.7296C46.4574 37.6338 46.4277 37.5527 46.3919 37.4623C45.7891 35.7907 44.9803 34.0938 44.0303 32.4298C43.9241 32.2356 43.8202 32.0647 43.7054 31.8765C42.9408 30.5807 42.0811 29.3122 41.1611 28.122C41.0289 27.9455 40.9086 27.7857 40.7677 27.6152C40.1973 26.8858 39.5986 26.1884 38.977 25.5321C38.795 25.3384 38.613 25.1448 38.4228 24.9567C37.9511 24.4655 37.4673 23.9938 36.9696 23.5578C36.6156 23.2402 36.2584 22.9368 35.8985 22.648C35.6964 22.4807 35.4919 22.3278 35.2729 22.172C34.992 21.9436 34.6853 21.7333 34.3758 21.5377C34.2499 21.4455 34.1099 21.3501 33.9753 21.2637L33.3943 20.9097L5.02344 40.1702L5.1431 40.8501C5.17974 41.0539 5.22211 41.2652 5.27417 41.472C5.37685 41.922 5.4861 42.3817 5.62669 42.8315C5.68992 43.0548 5.75891 43.2876 5.83675 43.5138C5.99858 44.0511 6.20471 44.5965 6.41592 45.1505C6.57975 45.5597 6.7577 45.9721 6.94171 46.3924C7.14662 46.8622 7.38025 47.338 7.61433 47.8134C8.3272 49.22 9.15931 50.6341 10.0663 51.9726C10.9733 53.311 11.9782 54.6078 13.0202 55.7909L13.0456 55.819C13.3924 56.2029 13.7389 56.5864 14.0906 56.942C14.413 57.269 14.7296 57.5865 15.0489 57.8902C15.485 58.2915 15.9156 58.6846 16.354 59.0341C16.5356 59.1898 16.7254 59.3399 16.9096 59.4818C17.2751 59.7789 17.6611 60.05 18.0412 60.3124C18.2136 60.4368 18.3948 60.5545 18.57 60.6643L19.1569 61.027L47.5277 41.7665L47.414 41.0953C47.3668 40.835 47.3111 40.562 47.2469 40.2998Z"/>
</mask>
<path fill-rule="evenodd" clip-rule="evenodd" d="M47.1308 40.3773L47.0862 40.1967C47.0353 39.9904 46.9842 39.787 46.9252 39.5906L46.9222 39.5806L46.9208 39.5703C46.9158 39.533 46.9091 39.5086 46.9005 39.478L46.8994 39.4743L46.8986 39.4704C46.8638 39.3113 46.8141 39.1482 46.7619 38.9977L46.7576 38.9852L46.7558 38.9722C46.7526 38.9487 46.7434 38.924 46.7299 38.8877C46.7271 38.8801 46.724 38.872 46.7208 38.8632L46.7084 38.8293L46.712 38.8101C46.6117 38.4707 46.4907 38.1333 46.368 37.791L46.3601 37.769L46.3589 37.7645C46.3337 37.6748 46.3059 37.5983 46.2709 37.5102L46.2702 37.5083L46.2695 37.5063C45.6697 35.843 44.8643 34.153 43.9173 32.4943L43.9167 32.4933L43.9162 32.4922C43.8116 32.3011 43.7093 32.1326 43.5944 31.9443L43.5938 31.9434L43.5934 31.9426C42.8316 30.6516 41.975 29.3876 41.0583 28.2017L41.0577 28.2009L41.0572 28.2001C40.9248 28.0236 40.8063 27.8661 40.6675 27.6982L40.6664 27.6969L40.6653 27.6955C40.0974 26.9692 39.5014 26.2749 38.8827 25.6218L38.8823 25.6214C38.7001 25.4274 38.5197 25.2355 38.3315 25.0494L38.3303 25.0482L38.3292 25.047C37.8594 24.5578 37.3783 24.0889 36.8841 23.656L36.883 23.6549C36.5306 23.3389 36.1753 23.037 35.8173 22.7497L35.8166 22.7491L35.8158 22.7485C35.6169 22.5839 35.4152 22.433 35.1978 22.2783L35.1944 22.2759L35.1911 22.2732C34.9156 22.0492 34.6136 21.842 34.3067 21.648L34.3029 21.6456L34.2993 21.643C34.1762 21.5528 34.0389 21.4592 33.9066 21.3744L33.3985 21.0648L5.16628 40.2311L5.27122 40.8274C5.27124 40.8275 5.27126 40.8276 5.27128 40.8277C5.30761 41.0298 5.34937 41.2378 5.4004 41.4405L5.40076 41.4419L5.40108 41.4434C5.50369 41.8931 5.61199 42.3484 5.75091 42.7929L5.75144 42.7946L5.75192 42.7963C5.81491 43.0187 5.88313 43.2489 5.9598 43.4716L5.96063 43.474L5.96137 43.4765C6.12155 44.0083 6.32587 44.5492 6.53714 45.1033C6.70004 45.5102 6.87715 45.9206 7.0609 46.3403L7.06098 46.3404C7.26435 46.8068 7.49648 47.2796 7.73061 47.7551C8.44091 49.1566 9.27012 50.5658 10.1739 51.8995C11.0777 53.2332 12.0791 54.5255 13.1173 55.7043C13.1174 55.7045 13.1176 55.7046 13.1177 55.7048L13.1411 55.7307C13.4886 56.1153 13.8333 56.4968 14.1829 56.8503L14.183 56.8504C14.5049 57.177 14.8201 57.493 15.1375 57.7949C15.5737 58.1963 16.0008 58.5861 16.4348 58.9321L16.4366 58.9336L16.4384 58.9351C16.6175 59.0886 16.8053 59.2372 16.9887 59.3784L16.9901 59.3795L16.9914 59.3806C17.3526 59.6741 17.7349 59.9427 18.1148 60.205L18.1159 60.2058L18.117 60.2066C18.2859 60.3284 18.4642 60.4443 18.6382 60.5533C18.6384 60.5535 18.6386 60.5536 18.6388 60.5537L19.1532 60.8716L47.3854 41.7053L47.2859 41.1182C47.2859 41.118 47.2858 41.1177 47.2858 41.1175C47.2418 40.8745 47.1903 40.6212 47.1317 40.3767L47.1308 40.3773ZM47.2469 40.2998C47.236 40.2553 47.2249 40.211 47.2135 40.1671C47.2134 40.1666 47.2132 40.1661 47.2131 40.1656C47.2131 40.1656 47.2131 40.1655 47.213 40.1654L47.2126 40.1658C47.2126 40.1657 47.2125 40.1656 47.2125 40.1656C47.2124 40.1651 47.2123 40.1646 47.2122 40.1641C47.2012 40.1198 47.1902 40.0754 47.1791 40.0311C47.1387 39.87 47.0968 39.7097 47.0498 39.5533C47.0436 39.5066 47.0348 39.475 47.0258 39.4429C46.9895 39.2771 46.9381 39.1087 46.8848 38.9552C46.8795 38.9158 46.8641 38.8747 46.8504 38.8383C46.8478 38.8315 46.8453 38.825 46.843 38.8186L46.8458 38.8039C46.7426 38.4505 46.617 38.1001 46.4911 37.749L46.4842 37.7296C46.4574 37.6338 46.4277 37.5527 46.3919 37.4623C45.7891 35.7907 44.9803 34.0938 44.0303 32.4298C43.9241 32.2356 43.8202 32.0647 43.7054 31.8765C42.9408 30.5807 42.0811 29.3122 41.1611 28.122C41.0289 27.9455 40.9086 27.7857 40.7677 27.6152C40.1973 26.8858 39.5986 26.1884 38.977 25.5321C38.795 25.3384 38.613 25.1448 38.4228 24.9567C37.9511 24.4655 37.4673 23.9938 36.9696 23.5578C36.6156 23.2402 36.2584 22.9368 35.8985 22.648C35.6964 22.4807 35.4919 22.3278 35.2729 22.172C34.992 21.9436 34.6853 21.7333 34.3758 21.5377C34.2499 21.4455 34.1099 21.3501 33.9753 21.2637L33.3943 20.9097L5.02344 40.1702L5.1431 40.8501C5.17974 41.0539 5.22211 41.2652 5.27417 41.472C5.37685 41.922 5.4861 42.3817 5.62669 42.8315C5.68992 43.0548 5.75891 43.2876 5.83675 43.5138C5.99858 44.0511 6.20471 44.5965 6.41592 45.1505C6.57975 45.5597 6.7577 45.9721 6.94171 46.3924C7.14662 46.8622 7.38025 47.338 7.61433 47.8134C8.3272 49.22 9.15931 50.6341 10.0663 51.9726C10.9733 53.311 11.9782 54.6078 13.0202 55.7909L13.0456 55.819C13.3924 56.2029 13.7389 56.5864 14.0906 56.942C14.413 57.269 14.7296 57.5865 15.0489 57.8902C15.485 58.2915 15.9156 58.6846 16.354 59.0341C16.5356 59.1898 16.7254 59.3399 16.9096 59.4818C17.2751 59.7789 17.6611 60.05 18.0412 60.3124C18.2136 60.4368 18.3948 60.5545 18.57 60.6643L19.1569 61.027L47.5277 41.7665L47.414 41.0953C47.3668 40.835 47.3111 40.562 47.2469 40.2998Z" fill="#C47A2C"/>
<path fill-rule="evenodd" clip-rule="evenodd" d="M47.1308 40.3773L47.0862 40.1967C47.0353 39.9904 46.9842 39.787 46.9252 39.5906L46.9222 39.5806L46.9208 39.5703C46.9158 39.533 46.9091 39.5086 46.9005 39.478L46.8994 39.4743L46.8986 39.4704C46.8638 39.3113 46.8141 39.1482 46.7619 38.9977L46.7576 38.9852L46.7558 38.9722C46.7526 38.9487 46.7434 38.924 46.7299 38.8877C46.7271 38.8801 46.724 38.872 46.7208 38.8632L46.7084 38.8293L46.712 38.8101C46.6117 38.4707 46.4907 38.1333 46.368 37.791L46.3601 37.769L46.3589 37.7645C46.3337 37.6748 46.3059 37.5983 46.2709 37.5102L46.2702 37.5083L46.2695 37.5063C45.6697 35.843 44.8643 34.153 43.9173 32.4943L43.9167 32.4933L43.9162 32.4922C43.8116 32.3011 43.7093 32.1326 43.5944 31.9443L43.5938 31.9434L43.5934 31.9426C42.8316 30.6516 41.975 29.3876 41.0583 28.2017L41.0577 28.2009L41.0572 28.2001C40.9248 28.0236 40.8063 27.8661 40.6675 27.6982L40.6664 27.6969L40.6653 27.6955C40.0974 26.9692 39.5014 26.2749 38.8827 25.6218L38.8823 25.6214C38.7001 25.4274 38.5197 25.2355 38.3315 25.0494L38.3303 25.0482L38.3292 25.047C37.8594 24.5578 37.3783 24.0889 36.8841 23.656L36.883 23.6549C36.5306 23.3389 36.1753 23.037 35.8173 22.7497L35.8166 22.7491L35.8158 22.7485C35.6169 22.5839 35.4152 22.433 35.1978 22.2783L35.1944 22.2759L35.1911 22.2732C34.9156 22.0492 34.6136 21.842 34.3067 21.648L34.3029 21.6456L34.2993 21.643C34.1762 21.5528 34.0389 21.4592 33.9066 21.3744L33.3985 21.0648L5.16628 40.2311L5.27122 40.8274C5.27124 40.8275 5.27126 40.8276 5.27128 40.8277C5.30761 41.0298 5.34937 41.2378 5.4004 41.4405L5.40076 41.4419L5.40108 41.4434C5.50369 41.8931 5.61199 42.3484 5.75091 42.7929L5.75144 42.7946L5.75192 42.7963C5.81491 43.0187 5.88313 43.2489 5.9598 43.4716L5.96063 43.474L5.96137 43.4765C6.12155 44.0083 6.32587 44.5492 6.53714 45.1033C6.70004 45.5102 6.87715 45.9206 7.0609 46.3403L7.06098 46.3404C7.26435 46.8068 7.49648 47.2796 7.73061 47.7551C8.44091 49.1566 9.27012 50.5658 10.1739 51.8995C11.0777 53.2332 12.0791 54.5255 13.1173 55.7043C13.1174 55.7045 13.1176 55.7046 13.1177 55.7048L13.1411 55.7307C13.4886 56.1153 13.8333 56.4968 14.1829 56.8503L14.183 56.8504C14.5049 57.177 14.8201 57.493 15.1375 57.7949C15.5737 58.1963 16.0008 58.5861 16.4348 58.9321L16.4366 58.9336L16.4384 58.9351C16.6175 59.0886 16.8053 59.2372 16.9887 59.3784L16.9901 59.3795L16.9914 59.3806C17.3526 59.6741 17.7349 59.9427 18.1148 60.205L18.1159 60.2058L18.117 60.2066C18.2859 60.3284 18.4642 60.4443 18.6382 60.5533C18.6384 60.5535 18.6386 60.5536 18.6388 60.5537L19.1532 60.8716L47.3854 41.7053L47.2859 41.1182C47.2859 41.118 47.2858 41.1177 47.2858 41.1175C47.2418 40.8745 47.1903 40.6212 47.1317 40.3767L47.1308 40.3773ZM47.2469 40.2998C47.236 40.2553 47.2249 40.211 47.2135 40.1671C47.2134 40.1666 47.2132 40.1661 47.2131 40.1656C47.2131 40.1656 47.2131 40.1655 47.213 40.1654L47.2126 40.1658C47.2126 40.1657 47.2125 40.1656 47.2125 40.1656C47.2124 40.1651 47.2123 40.1646 47.2122 40.1641C47.2012 40.1198 47.1902 40.0754 47.1791 40.0311C47.1387 39.87 47.0968 39.7097 47.0498 39.5533C47.0436 39.5066 47.0348 39.475 47.0258 39.4429C46.9895 39.2771 46.9381 39.1087 46.8848 38.9552C46.8795 38.9158 46.8641 38.8747 46.8504 38.8383C46.8478 38.8315 46.8453 38.825 46.843 38.8186L46.8458 38.8039C46.7426 38.4505 46.617 38.1001 46.4911 37.749L46.4842 37.7296C46.4574 37.6338 46.4277 37.5527 46.3919 37.4623C45.7891 35.7907 44.9803 34.0938 44.0303 32.4298C43.9241 32.2356 43.8202 32.0647 43.7054 31.8765C42.9408 30.5807 42.0811 29.3122 41.1611 28.122C41.0289 27.9455 40.9086 27.7857 40.7677 27.6152C40.1973 26.8858 39.5986 26.1884 38.977 25.5321C38.795 25.3384 38.613 25.1448 38.4228 24.9567C37.9511 24.4655 37.4673 23.9938 36.9696 23.5578C36.6156 23.2402 36.2584 22.9368 35.8985 22.648C35.6964 22.4807 35.4919 22.3278 35.2729 22.172C34.992 21.9436 34.6853 21.7333 34.3758 21.5377C34.2499 21.4455 34.1099 21.3501 33.9753 21.2637L33.3943 20.9097L5.02344 40.1702L5.1431 40.8501C5.17974 41.0539 5.22211 41.2652 5.27417 41.472C5.37685 41.922 5.4861 42.3817 5.62669 42.8315C5.68992 43.0548 5.75891 43.2876 5.83675 43.5138C5.99858 44.0511 6.20471 44.5965 6.41592 45.1505C6.57975 45.5597 6.7577 45.9721 6.94171 46.3924C7.14662 46.8622 7.38025 47.338 7.61433 47.8134C8.3272 49.22 9.15931 50.6341 10.0663 51.9726C10.9733 53.311 11.9782 54.6078 13.0202 55.7909L13.0456 55.819C13.3924 56.2029 13.7389 56.5864 14.0906 56.942C14.413 57.269 14.7296 57.5865 15.0489 57.8902C15.485 58.2915 15.9156 58.6846 16.354 59.0341C16.5356 59.1898 16.7254 59.3399 16.9096 59.4818C17.2751 59.7789 17.6611 60.05 18.0412 60.3124C18.2136 60.4368 18.3948 60.5545 18.57 60.6643L19.1569 61.027L47.5277 41.7665L47.414 41.0953C47.3668 40.835 47.3111 40.562 47.2469 40.2998Z" stroke="#C47A2C" stroke-width="1.6" mask="url(#path-5-outside-3_974_11774)"/>
<path d="M54.719 64.3588L54.7197 64.3589L54.719 64.3588ZM54.719 64.3588C53.9739 64.1993 53.2187 64.0013 52.5047 63.7612C52.5042 63.761 52.5037 63.7609 52.5033 63.7607C52.5031 63.7607 52.503 63.7606 52.5029 63.7606L52.1916 63.6511L50.4501 43.0342L51.2094 43.2937C51.8827 43.5252 52.5835 43.7119 53.3008 43.8536C58.9946 45.0877 66.4216 44.4588 71.8177 42.2957C72.5072 42.0254 73.1667 41.724 73.792 41.3822C73.7922 41.3821 73.7923 41.3821 73.7925 41.382L74.4973 40.9989L76.2389 61.616L75.9478 61.7776C75.2844 62.1341 74.5745 62.4557 73.8578 62.7385L73.8578 62.7385L73.8557 62.7394L73.855 62.7396M54.719 64.3588L73.855 62.7396M73.855 62.7396C73.855 62.7396 73.855 62.7396 73.855 62.7396C68.2987 64.9679 60.5826 65.6211 54.7206 64.3591L73.855 62.7396ZM54.5232 65.2664C60.5663 66.5675 68.4715 65.8986 74.2006 63.6013C74.9463 63.3071 75.6909 62.97 76.3921 62.593L76.3921 62.593L76.3969 62.5904L76.9905 62.2608L77.2167 62.1351L77.1949 61.8773L75.3565 40.1133L75.3049 39.5032L74.7669 39.7956L73.3465 40.5675L73.3457 40.568C72.7591 40.8886 72.1351 41.1742 71.4757 41.4325L71.4728 41.4337C66.2478 43.5288 59.007 44.1415 53.4942 42.9455L53.4942 42.9454L53.4868 42.9439C52.8072 42.8099 52.1458 42.6336 51.513 42.4161L51.5123 42.4159L49.9826 41.893L49.403 41.695L49.4546 42.3053L51.293 64.0693L51.3148 64.3271L51.5588 64.4129L52.199 64.6381L52.199 64.6382L52.2042 64.6399C52.9589 64.8938 53.7501 65.1009 54.5232 65.2664Z" fill="#C47A2C" stroke="#C47A2C" stroke-width="0.8"/>
<path d="M23.2695 44.4759L22.9353 44.7035L23.088 45.0779C23.5137 46.122 23.6307 47.2594 23.4265 48.3601C23.2224 49.4608 22.705 50.4818 21.9324 51.3058C21.1598 52.13 20.1629 52.7241 19.0551 53.0184C17.9472 53.3128 16.7743 53.2952 15.6712 52.9671C14.5682 52.639 13.581 52.0142 12.8224 51.1656C12.0639 50.3171 11.5647 49.2794 11.3805 48.1722C11.1963 47.0651 11.3341 45.9319 11.7782 44.9022C12.222 43.8729 12.9545 42.9873 13.893 42.3477C14.8825 41.6835 16.0538 41.3207 17.26 41.3064C18.4667 41.292 19.6529 41.6272 20.6692 42.2692L20.946 42.444L21.2168 42.2603L32.2087 34.8072L34.4976 35.7319L34.2131 37.1039L33.6705 37.4615L32.7103 37.0456L32.0126 36.7434L32.0117 37.5036L32.0103 38.5851L30.8375 39.3783L29.112 38.6197L28.4093 38.3107L28.4109 39.0783L28.415 41.0183L26.9848 41.9609L25.2463 41.2054L24.5452 40.9006L24.5472 41.6651L24.5523 43.6024L23.2695 44.4759ZM17.2279 49.76L16.7637 49.5741L17.2279 49.76C17.4022 49.3244 17.4401 48.8471 17.3372 48.3891C17.2342 47.9312 16.9954 47.5145 16.653 47.1908C16.3106 46.8672 15.8797 46.6506 15.4148 46.5672C14.95 46.4837 14.4705 46.5368 14.0367 46.7207C13.6027 46.9048 13.2334 47.212 12.9767 47.6049C12.7199 47.998 12.5882 48.4583 12.5989 48.9273C12.6097 49.3962 12.7623 49.8509 13.0356 50.234C13.4009 50.7461 13.9558 51.0944 14.5773 51.206C15.1987 51.3176 15.8403 51.1842 16.3616 50.8317C16.7515 50.5681 17.0536 50.1955 17.2279 49.76Z" stroke="#C47A2C"/>
</svg>
