<svg width="67" height="67" viewBox="0 0 67 67" fill="none" xmlns="http://www.w3.org/2000/svg">
<g clip-path="url(#clip0_974_11802)">
<path d="M50.2416 50.25H47.4555C47.4555 45.9173 47.623 45.2948 44.9989 44.6862C40.9845 43.7594 37.1906 42.8856 35.8059 39.8594C35.3034 38.7539 34.9656 36.9338 36.2386 34.5357C39.0889 29.1506 39.8036 24.5332 38.1984 21.8671C36.3224 18.7544 30.6413 18.7405 28.7486 21.9146C27.1406 24.6169 27.8664 29.2092 30.739 34.5106C32.0372 36.9003 31.7105 38.726 31.208 39.8371C29.8401 42.8772 26.0825 43.7454 22.1016 44.6611C19.3602 45.2948 19.5333 45.8755 19.5333 50.25H16.7556L16.75 48.5108C16.75 44.9961 17.0292 42.9693 21.1832 42.009C25.8787 40.923 30.5185 39.9543 28.288 35.8422C21.6829 23.6566 26.4008 16.75 33.4944 16.75C40.4513 16.75 45.2948 23.4025 38.7065 35.8422C36.5429 39.9292 41.0068 40.9007 45.8113 42.009C49.9708 42.9693 50.2472 45.0017 50.2472 48.522L50.2416 50.25ZM63.6695 44.0693C60.0711 43.2373 56.7211 42.5087 58.343 39.4435C63.2843 30.1137 59.6551 25.125 54.4347 25.125C50.9033 25.125 48.159 27.4058 48.159 31.6156C48.159 35.1583 49.7615 37.6875 50.6827 39.7812H53.6084C53.1338 37.6875 49.5158 32.629 51.47 29.3516C52.6201 27.4198 56.227 27.417 57.3715 29.3181C58.4324 31.0796 57.8768 34.3766 55.8808 38.1425C54.7976 40.1888 55.0991 41.7745 55.543 42.7432C56.3945 44.6025 58.2705 45.4986 60.3921 46.1155C64.5992 47.3467 64.2111 46.2328 64.2111 50.2472H66.9944L67 48.9547C67 46.3165 66.7934 44.7895 63.6695 44.0693ZM0.00558333 50.25H2.78888C2.78888 46.2356 2.40083 47.3495 6.60788 46.1183C8.73233 45.5014 10.6083 44.6053 11.457 42.746C11.9009 41.7745 12.2024 40.1916 11.1192 38.1453C9.12317 34.3794 8.56763 31.0824 9.62846 29.3209C10.773 27.417 14.3799 27.4198 15.53 29.3544C17.4842 32.6346 13.8662 37.6903 13.3916 39.784H16.3173C17.2385 37.6903 18.841 35.161 18.841 31.6184C18.8438 27.4058 16.0995 25.125 12.5681 25.125C7.34767 25.125 3.7185 30.1137 8.65975 39.4435C10.2817 42.5115 6.93171 43.2373 3.33325 44.0693C0.206583 44.7895 0 46.3165 0 48.9575L0.00558333 50.25Z" fill="#C47A2C"/>
</g>
<defs>
<clipPath id="clip0_974_11802">
<rect width="67" height="67" fill="white"/>
</clipPath>
</defs>
</svg>
