<svg width="80" height="80" viewBox="0 0 80 80" fill="none" xmlns="http://www.w3.org/2000/svg">
<path d="M69.0368 13.524L69.0367 13.5242L54.845 11.4871C54.4416 9.36585 52.5839 7.75056 50.3363 7.75056L8.81136 7.75H8.81135C8.22554 7.75 7.75 8.22221 7.75 8.80812V68.3219C7.75 68.9078 8.22554 69.38 8.81135 69.38L36.4159 69.3795C36.4203 69.3814 36.4256 69.3837 36.4319 69.3864C36.4592 69.398 36.5044 69.4162 36.5604 69.4246L36.5621 69.4248L60.4539 72.8545L60.4542 72.8545C60.6713 72.8855 60.8856 72.9004 61.0988 72.9004C63.3008 72.9004 65.2326 71.2857 65.5557 69.0514L72.8533 18.6076C73.0252 17.4215 72.7235 16.2376 72.0017 15.277C71.2811 14.3171 70.2279 13.6953 69.0368 13.524ZM52.8219 12.339V64.7921C52.8219 66.1542 51.7077 67.2646 50.3374 67.2646H15.8426V9.86654H50.3374C51.7076 9.86654 52.8218 10.9767 52.8219 12.3387C52.8219 12.3388 52.8219 12.3389 52.8219 12.339ZM70.3044 16.547C70.6856 17.0541 70.8451 17.6776 70.7549 18.3056L70.7546 18.3056L63.4558 68.7495L63.4558 68.7497C63.3657 69.3768 63.0362 69.9307 62.5252 70.3115C62.0151 70.6914 61.3853 70.8517 60.7577 70.76L60.7571 70.7599L50.9053 69.3459C53.1775 69.066 54.9431 67.1314 54.9431 64.7927L54.9436 13.6404L68.7351 15.6197L68.7353 15.6197C69.366 15.7096 69.9232 16.0383 70.3042 16.5467L70.3044 16.547ZM9.87348 9.86625H13.7205V67.2643H9.87348V9.86625Z" fill="#C47A2C" stroke="#C47A2C" stroke-width="0.5"/>
<path d="M22.4924 25.6552H46.968C47.5563 25.6552 48.0346 25.1815 48.0346 24.593V16.2711C48.0346 15.6827 47.5563 15.209 46.968 15.209H22.4924C21.904 15.209 21.4258 15.6827 21.4258 16.2711V24.593C21.4258 25.1815 21.904 25.6552 22.4924 25.6552ZM23.5585 17.3327H45.9027V23.5309L23.5585 23.5315V17.3327Z" fill="#C47A2C" stroke="#C47A2C" stroke-width="0.5"/>
<path d="M22.4924 49.2767V49.2769L22.4967 49.2767H46.968C47.5538 49.2767 48.0346 48.8094 48.0346 48.2232L48.034 34.911C48.034 34.3247 47.5533 33.8574 46.9674 33.8574H22.4924C21.9065 33.8574 21.4258 34.3247 21.4258 34.911V48.2238C21.4258 48.8095 21.9067 49.2767 22.4924 49.2767ZM23.559 35.9639H45.9027V47.1697L23.559 47.1702V35.9639Z" fill="#C47A2C" stroke="#C47A2C" stroke-width="0.5"/>
<path d="M46.9598 53.752H22.5006C22.2235 53.752 21.9633 53.836 21.7667 53.9842C21.5699 54.1325 21.4258 54.3561 21.4258 54.6236C21.4258 54.8911 21.5699 55.1147 21.7667 55.263C21.9633 55.4111 22.2235 55.4952 22.5006 55.4952H46.9598C47.2368 55.4952 47.4971 55.4111 47.6937 55.263C47.8905 55.1147 48.0346 54.8911 48.0346 54.6236C48.0346 54.3561 47.8905 54.1325 47.6937 53.9842C47.4971 53.836 47.2368 53.752 46.9598 53.752Z" fill="#C47A2C" stroke="#C47A2C" stroke-width="0.5"/>
<path d="M46.9598 57.4805H22.5006C22.2235 57.4805 21.9633 57.5646 21.7667 57.7127C21.5699 57.861 21.4258 58.0846 21.4258 58.3521C21.4258 58.6196 21.5699 58.8432 21.7667 58.9915C21.9633 59.1397 22.2235 59.2237 22.5006 59.2237H46.9598C47.2368 59.2237 47.4971 59.1397 47.6937 58.9915C47.8905 58.8432 48.0346 58.6196 48.0346 58.3521C48.0346 58.0846 47.8905 57.861 47.6937 57.7127C47.4971 57.5646 47.2368 57.4805 46.9598 57.4805Z" fill="#C47A2C" stroke="#C47A2C" stroke-width="0.5"/>
</svg>
