<svg width="64" height="64" viewBox="0 0 64 64" fill="none" xmlns="http://www.w3.org/2000/svg">
<path fill-rule="evenodd" clip-rule="evenodd" d="M5.52004 11.5H59.48C61.1287 11.5 62.5 12.824 62.5 14.4997V50.5003C62.5 52.176 61.1287 53.5 59.48 53.5H5.52004C3.87128 53.5 2.5 52.176 2.5 50.5003V14.4997C2.5 12.824 3.87128 11.5 5.52004 11.5ZM5.52004 13H59.48C60.3195 13 61 13.6714 61 14.4997V50.5003C61 51.3286 60.3195 52 59.48 52H5.52004C4.68055 52 4 51.3286 4 50.5003V14.4997C4 13.6714 4.68055 13 5.52004 13Z" fill="#C47A2C"/>
<path fill-rule="evenodd" clip-rule="evenodd" d="M62.5 17.5H2.5V14.7559C2.5 13.9567 2.7729 13.1543 3.31109 12.5326C3.85516 11.904 4.64346 11.5 5.52 11.5H59.48C60.3565 11.5 61.1448 11.904 61.6889 12.5326C62.2271 13.1543 62.5 13.9567 62.5 14.7559V17.5ZM60.9838 14.5C60.9365 14.129 60.7871 13.7827 60.5548 13.5143C60.2697 13.185 59.8831 13 59.48 13H5.52C5.11687 13 4.73025 13.185 4.4452 13.5143C4.21289 13.7827 4.06354 14.129 4.01623 14.5C4.00548 14.5842 4 14.6698 4 14.7559V16H61V14.7559C61 14.6698 60.9945 14.5842 60.9838 14.5Z" fill="#C47A2C"/>
<path d="M6.5 15.2C6.8866 15.2 7.2 14.8866 7.2 14.5C7.2 14.1134 6.8866 13.8 6.5 13.8C6.1134 13.8 5.8 14.1134 5.8 14.5C5.8 14.8866 6.1134 15.2 6.5 15.2Z" fill="#C47A2C" stroke="#C47A2D" stroke-width="0.4"/>
<path d="M10.5 15.2C10.8866 15.2 11.2 14.8866 11.2 14.5C11.2 14.1134 10.8866 13.8 10.5 13.8C10.1134 13.8 9.8 14.1134 9.8 14.5C9.8 14.8866 10.1134 15.2 10.5 15.2Z" fill="#C47A2C" stroke="#C47A2D" stroke-width="0.4"/>
<path d="M14.5 15.2C14.8866 15.2 15.2 14.8866 15.2 14.5C15.2 14.1134 14.8866 13.8 14.5 13.8C14.1134 13.8 13.8 14.1134 13.8 14.5C13.8 14.8866 14.1134 15.2 14.5 15.2Z" fill="#C47A2C" stroke="#C47A2D" stroke-width="0.4"/>
<path d="M57.2 22V21.8H57H8H7.8V22V23V23.2H8H57H57.2V23V22Z" fill="#C47A2C" stroke="#C47A2C" stroke-width="0.4"/>
<path d="M57.2 28V27.8H57H8H7.8V28V29V29.2H8H57H57.2V29V28Z" fill="#C47A2C" stroke="#C47A2C" stroke-width="0.4"/>
<path d="M57.2 34V33.8H57H8H7.8V34V35V35.2H8H57H57.2V35V34Z" fill="#C47A2C" stroke="#C47A2C" stroke-width="0.4"/>
<path d="M57.2 40V39.8H57H8H7.8V40V41V41.2H8H57H57.2V41V40Z" fill="#C47A2C" stroke="#C47A2C" stroke-width="0.4"/>
<path d="M57.2 46V45.8H57H8H7.8V46V47V47.2H8H57H57.2V47V46Z" fill="#C47A2C" stroke="#C47A2C" stroke-width="0.4"/>
</svg>
