<svg width="67" height="67" viewBox="0 0 67 67" fill="none" xmlns="http://www.w3.org/2000/svg">
<g clip-path="url(#clip0_96_362)">
<path d="M52.9996 18.5009L59.9996 16.5009L64.4996 34.5009L57.4996 36.5009L56.7494 33.5M52.9996 18.5009L56.7494 33.5M52.9996 18.5009C46.6698 29.6993 39.8659 9.60333 29.8173 19.1641M47.9996 37C45.4992 37 37.7674 24.6623 35.4996 26C33.2318 27.3377 22.1051 34.1495 22.4996 28.5C22.8942 22.8505 26.5425 24.5814 28.9996 20.0009C29.2746 19.6997 29.5471 19.4212 29.8173 19.1641M47.9996 37C50.5 37 56.7494 33.5 56.7494 33.5M47.9996 37C50.1852 41.2013 49.3974 42.4241 46 43.5M46 43.5C45.681 46.3249 44.7896 46.7802 42.5 46.5M46 43.5L38.5 37M42.5 46.5C41.5405 48.7993 38.5 49 38.5 49M42.5 46.5L36 40.5M38.5 49C38.5 49 35.9389 52.8194 33.5 51L32 50M38.5 49L34.2666 45M32 50C28.6385 52.0278 27.452 51.2389 26 48M32 50C33.9259 47.9133 34.3701 46.1693 34.2666 45M31 42C30.1766 39.6497 29.2284 39.1102 27 39M31 42C32.4383 42.3037 33.5 43 34 44C34.1288 44.2576 34.2307 44.5942 34.2666 45M31 42L26 48M27 39C26.6167 37.0941 23.5 36.5009 23.5 36.5009M27 39L22.5 45.5M23.5 36.5009C21.3906 33.723 19.5 33.5 17.5 35C17.1213 35.284 16.77 35.6233 16.4577 36M23.5 36.5009L21.25 39.5004L19 42.5M19 42.5C17.6777 42.1292 16.4911 42.7723 15.5 41.5C14.4987 39.9111 15.1208 37.6126 16.4577 36M19 42.5C19.9126 44.8952 20.7539 45.7083 22.5 45.5M22.5 45.5C23.9076 48.177 24.666 48.3821 26 48M16.4577 36L8.5 33.5M8.5 33.5L7.5 36L1 34L6 16L12.5 18L8.5 33.5ZM12 20.5C14.5 23 22.5 14 29.8173 19.1641" stroke="#C47A2C" stroke-width="2"/>
</g>
<defs>
<clipPath id="clip0_96_362">
<rect width="67" height="67" fill="white"/>
</clipPath>
</defs>
</svg>
