<svg width="67" height="67" viewBox="0 0 67 67" fill="none" xmlns="http://www.w3.org/2000/svg">
<path fill-rule="evenodd" clip-rule="evenodd" d="M61.4167 58.625C62.8963 58.625 64.3172 59.214 65.3641 60.2609C66.4138 61.3078 67 62.7288 67 64.2083V67H50.25V64.2083C50.25 61.1263 52.7513 58.625 55.8333 58.625H61.4167ZM41.875 58.625C43.3546 58.625 44.7755 59.214 45.8224 60.2609C46.8721 61.3078 47.4583 62.7288 47.4583 64.2083V67H30.7083V64.2083C30.7083 61.1263 33.2097 58.625 36.2917 58.625H41.875ZM61.4167 61.4167H55.8333C54.2951 61.4167 53.0417 62.6673 53.0417 64.2083H64.2083C64.2083 62.6338 62.9214 61.4167 61.4167 61.4167ZM41.875 61.4167H36.2917C34.7535 61.4167 33.5 62.6673 33.5 64.2083H44.6667C44.6667 62.6338 43.3797 61.4167 41.875 61.4167ZM23.0089 58.022C22.9391 59.9175 21.4009 61.3999 19.5026 61.3999C17.7159 61.3999 16.2112 60.0125 16.0018 58.1727L14.8684 46.9112L13.9835 58.1309C13.8411 59.9622 12.2973 61.3999 10.4743 61.3999C8.57321 61.3999 7.02663 59.9175 6.95125 58.022L6.21983 39.999L5.36 41.5484C4.68721 42.7683 3.12667 43.3295 1.82854 42.8298C0.700708 42.3943 0 41.3278 0 40.1749C0 39.9153 0.0335 39.65 0.108875 39.3848L3.27463 27.9446C3.74921 26.2668 5.29858 25.0943 7.04617 25.0943H18.4808C19.9074 25.0943 21.306 24.5974 22.0681 24.173C24.0865 23.048 28.877 20.3513 30.8228 19.1676C31.9227 18.4892 33.4721 18.7572 34.2845 19.7734C35.1778 20.8789 35.0829 22.4255 34.0779 23.3942L25.5689 31.5068C24.522 32.509 23.9078 33.8769 23.8464 35.362C23.6761 39.262 23.0089 58.022 23.0089 58.022ZM7.04617 27.886C6.54367 27.886 6.097 28.2238 5.96021 28.7067C5.13667 31.61 3.13783 38.941 2.79446 40.147L7.01267 32.9082C7.49283 32.0846 8.75188 32.4057 8.78817 33.3493L9.74013 57.9075C9.76804 58.6836 11.136 58.7088 11.2002 57.9131C11.2002 57.9131 11.9511 48.561 12.06 46.9028C12.1745 45.2306 13.3135 44.0637 14.8293 44.0637C16.3564 44.0693 17.5317 45.2222 17.702 46.8665C17.8025 47.8408 18.6148 56.4112 18.7768 57.8601C18.8968 58.9153 20.1865 58.7702 20.22 57.9215C20.22 57.9215 20.8873 39.1475 21.0575 35.242C21.1497 33.0338 22.0681 30.9903 23.6398 29.4884L32.1405 21.3814C30.2952 22.7549 25.46 25.4795 23.4277 26.6102C22.3222 27.2271 20.4406 27.886 18.4808 27.886H7.04617V27.886ZM58.625 44.6667C54.9819 44.6667 52.0255 47.6258 52.0255 51.2662C52.0255 54.9093 54.9819 57.8685 58.625 57.8685C62.2681 57.8685 65.2245 54.9093 65.2245 51.2662C65.2245 47.6258 62.2681 44.6667 58.625 44.6667V44.6667ZM39.0833 44.6667C35.4402 44.6667 32.4838 47.6258 32.4838 51.2662C32.4838 54.9093 35.4402 57.8685 39.0833 57.8685C42.7265 57.8685 45.6828 54.9093 45.6828 51.2662C45.6828 47.6258 42.7265 44.6667 39.0833 44.6667V44.6667ZM58.625 47.4583C60.7243 47.4583 62.4328 49.1668 62.4328 51.2662C62.4328 53.3683 60.7243 55.0768 58.625 55.0768C56.5257 55.0768 54.8172 53.3683 54.8172 51.2662C54.8172 49.1668 56.5257 47.4583 58.625 47.4583ZM39.0833 47.4583C41.1827 47.4583 42.8912 49.1668 42.8912 51.2662C42.8912 53.3683 41.1827 55.0768 39.0833 55.0768C36.984 55.0768 35.2755 53.3683 35.2755 51.2662C35.2755 49.1668 36.984 47.4583 39.0833 47.4583ZM67 41.875H26.0798V39.0833H47.4583V36.2917H55.8333V39.0833H64.2083V2.79167H2.79167V22.3333L0 30.7083V0H67V41.875ZM50.25 25.125H39.0833V22.3333H50.25V25.125ZM14.7205 11.1667C11.1527 11.1667 8.25775 14.0644 8.25775 17.6322C8.25775 21.1999 11.1527 24.0977 14.7205 24.0977C18.2882 24.0977 21.186 21.1999 21.186 17.6322C21.186 14.0644 18.2882 11.1667 14.7205 11.1667ZM14.7205 13.9583C16.7472 13.9583 18.3943 15.6054 18.3943 17.6322C18.3943 19.6589 16.7472 21.306 14.7205 21.306C12.6965 21.306 11.0494 19.6589 11.0494 17.6322C11.0494 15.6054 12.6965 13.9583 14.7205 13.9583ZM58.625 19.5417H39.0833V16.75H58.625V19.5417ZM58.625 13.9583H39.0833V11.1667H58.625V13.9583Z" fill="#C47A2C"/>
</svg>
