<svg width="67" height="67" viewBox="0 0 67 67" fill="none" xmlns="http://www.w3.org/2000/svg">
<g clip-path="url(#clip0_96_359)">
<path d="M39.3011 16.8003C38.4133 16.5909 37.4446 16.6439 36.5066 17.0264C33.5642 18.2296 32.696 21.9648 34.7702 24.3433C34.586 22.3501 35.2232 18.8253 37.5 18.5C39.7768 18.1747 42.2379 20.2703 42.8688 21.0408C42.7404 18.8884 41.2022 17.2525 39.3011 16.8003Z" fill="#C47A2C"/>
<path d="M13.9583 37.104L21.6075 29.6531L25.795 33.8462L32.0148 27.5258L33.1929 30.3175L25.7782 37.7768L21.6019 33.5977L15.9265 39.0833L13.9583 37.104Z" fill="#C47A2C"/>
<path d="M15 67H9L19 55.8333H24.5L15 67Z" fill="#C47A2C"/>
<path d="M45.4344 67L35.8869 55.8333H41L50.5 67H45.4344Z" fill="#C47A2C"/>
<path d="M32 67H27.9167V55.8333H32V67Z" fill="#C47A2C"/>
<path d="M32.5 47C32.5 47 30.4852 49 35.2554 50.25H4V4H0V0H61V4H57V25.125H53.8828L54 3H7V47H32.5Z" fill="#C47A2C"/>
<path d="M67.1207 50.0409L51.6207 56.5408C48.5131 52.5889 46.42 50.4556 41.1207 47.041C36.9395 44.4003 34.878 42.9319 36.6207 40.541C37.7105 39.0391 39.1851 39.2093 43.6207 41.541C43.6207 41.541 38.1207 28.041 37.1207 25.0407C36.1207 22.0404 40.6207 21.0404 41.6207 23.0407C42.6207 25.041 42.4298 23.6415 45.1207 31.5408C47.8116 39.4401 48.7946 32.6864 48 31.041C47.2054 29.3956 51 31 51.1207 31.541C51.2415 32.082 53 36 54 35C55 34 53.5 31.041 54 31.041C54.5 31.041 56.1207 31.041 56.6207 31.541L56.664 31.627C57.9195 34.1193 58.132 34.541 59.1207 34.541C60.1207 34.541 59.1207 31.5408 60 31.5C60.8793 31.4592 61.8793 31.5 64 37C64 37 64.3707 41.5 64.6207 46C64.8707 50.5 67.1207 50.0409 67.1207 50.0409Z" stroke="#C47A2C" stroke-width="1.8"/>
</g>
<defs>
<clipPath id="clip0_96_359">
<rect width="67" height="67" fill="white"/>
</clipPath>
</defs>
</svg>
