<svg width="67" height="67" viewBox="0 0 67 67" fill="none" xmlns="http://www.w3.org/2000/svg">
<path fill-rule="evenodd" clip-rule="evenodd" d="M67 53.0417H64.2083V46.9C59.0354 58.7283 47.2266 67 33.5 67C15.0108 67 0 51.9892 0 33.5H2.79167C2.79167 50.4482 16.5518 64.2083 33.5 64.2083C46.5092 64.2083 57.6395 56.1013 62.1118 44.6667H55.8333V41.875H67V53.0417V53.0417ZM36.9282 53.0417H30.069C28.8184 49.4516 28.7039 48.5778 27.47 48.0697C26.1635 47.5309 25.3204 48.1925 22.1044 49.7391L17.2581 44.8956C18.8968 41.4981 19.4523 40.7835 18.9331 39.53C18.4083 38.271 17.4591 38.1481 13.9583 36.9282V30.069C17.5456 28.8184 18.4194 28.7067 18.9331 27.4672C19.4691 26.1691 18.8214 25.3511 17.2581 22.1044L22.1044 17.2581C25.3511 18.8242 26.1998 19.4691 27.4672 18.9331C28.7514 18.3999 28.877 17.3809 30.069 13.9583H36.9282C38.1816 17.5512 38.2961 18.4222 39.53 18.9303C40.8309 19.4719 41.6963 18.8047 44.8956 17.2581L49.7391 22.1044C48.1172 25.4768 47.5505 26.2165 48.0669 27.4672C48.6001 28.7514 49.6191 28.877 53.0417 30.069V36.9282C49.4963 38.1621 48.5834 38.2877 48.0669 39.5328C47.5449 40.7946 48.1283 41.5484 49.7391 44.8956L44.8956 49.7391C41.8359 48.2707 40.8421 47.5114 39.5468 48.0613C38.2486 48.6001 38.1286 49.6051 36.9282 53.0417V53.0417ZM34.9461 16.75H32.0539C31.3755 18.7656 30.7642 20.5885 28.5364 21.5098C26.4594 22.3752 24.6755 21.5991 22.6795 20.6332L20.6332 22.6795C21.6466 24.7453 22.431 26.317 21.5126 28.5364C20.555 30.8451 18.8075 31.303 16.75 32.0511V34.9712C18.7684 35.6524 20.5885 36.2358 21.5126 38.4608C22.4394 40.6997 21.6047 42.3077 20.6332 44.3233L22.6795 46.364C24.6644 45.3925 26.4622 44.6276 28.5364 45.4874C30.6497 46.364 31.3588 48.025 32.0511 50.25H34.9238C35.6049 48.2316 36.2386 46.4115 38.4747 45.4818C40.6327 44.5885 42.3831 45.4539 44.3205 46.364L46.3612 44.3205C45.4232 42.2993 44.5299 40.7807 45.4874 38.4636C46.4478 36.1521 48.1758 35.7138 50.25 34.9461V32.0539C48.2288 31.3755 46.4115 30.7614 45.4874 28.5364C44.5662 26.3087 45.3646 24.7202 46.3668 22.6795L44.3233 20.6332C42.3273 21.5935 40.5685 22.3836 38.4636 21.5126C36.261 20.5997 35.6887 18.9387 34.9461 16.75V16.75ZM33.4414 40.4792C29.5945 40.4792 26.4622 37.3469 26.4622 33.5C26.4622 29.6531 29.5945 26.5208 33.4414 26.5208C37.2883 26.5208 40.4205 29.6531 40.4205 33.5C40.4205 37.3469 37.2883 40.4792 33.4414 40.4792ZM33.4414 29.3125C31.1327 29.3125 29.2539 31.1913 29.2539 33.5C29.2539 35.8087 31.1327 37.6875 33.4414 37.6875C35.7501 37.6875 37.6289 35.8087 37.6289 33.5C37.6289 31.1913 35.7501 29.3125 33.4414 29.3125ZM11.1667 25.125H0V13.9583H2.79167V20.1C7.96463 8.27171 19.7734 0 33.5 0C51.9892 0 67 15.0108 67 33.5H64.2083C64.2083 16.5518 50.4482 2.79167 33.5 2.79167C20.4908 2.79167 9.36046 10.8987 4.88821 22.3333H11.1667V25.125V25.125Z" fill="#C47A2C"/>
</svg>
