<svg width="67" height="67" viewBox="0 0 67 67" fill="none" xmlns="http://www.w3.org/2000/svg">
<path fill-rule="evenodd" clip-rule="evenodd" d="M33.5 5.58333H39.0833V11.1667H44.6667V21.5014L64.2083 28.81V64.2083H67V67H0V64.2083H2.79167V33.5H19.5417V11.1667H25.125V5.58333H30.7083V0H33.5V5.58333ZM41.875 13.9583H22.3333V64.2083H25.125V58.625H39.0833V64.2083H41.875V13.9583ZM36.2917 61.4167H27.9167V64.2083H36.2917V61.4167ZM58.625 64.2083H61.4167V30.7446L44.6667 24.4829V64.2083H47.4583V58.625H58.625V64.2083ZM19.5417 36.2917H5.58333V64.2083H8.375V58.625H16.75V64.2083H19.5417V36.2917ZM13.9583 61.4167H11.1667V64.2083H13.9583V61.4167ZM55.8333 61.4167H50.25V64.2083H55.8333V61.4167ZM11.1667 47.4583V53.0417H8.375V47.4583H11.1667ZM16.75 47.4583V53.0417H13.9583V47.4583H16.75ZM30.7083 19.5417V53.0417H27.9167V19.5417H30.7083ZM58.625 50.25V53.0417H47.4583V50.25H58.625ZM36.2917 19.5417V53.0417H33.5V19.5417H36.2917ZM58.625 44.6667V47.4583H47.4583V44.6667H58.625ZM11.1667 39.0833V44.6667H8.375V39.0833H11.1667ZM16.75 39.0833V44.6667H13.9583V39.0833H16.75ZM58.625 39.0833V41.875H47.4583V39.0833H58.625ZM58.625 33.5V36.2917H47.4583V33.5H58.625ZM36.2917 8.375H27.9167V11.1667H36.2917V8.375Z" fill="#C47A2C"/>
</svg>
